  0
SECTION
  2
HEADER
  9
$ACADVER
  1
AC1009
  9
$DWGCODEPAGE
  3
ANSI_1252
  9
$INSBASE
 10
0.0
 20
0.0
 30
0.0
  9
$EXTMIN
 10
-100
 20
-100
 30
-100
  9
$EXTMAX
 10
100
 20
100
 30
100
  9
$LIMMIN
 10
0.0
 20
0.0
  9
$LIMMAX
 10
420.0
 20
297.0
  9
$ORTHOMODE
 70
0
  9
$REGENMODE
 70
1
  9
$DRAGMODE
 70
2
  9
$FILLMODE
 70
1
  9
$QTEXTMODE
 70
0
  9
$MIRRTEXT
 70
1
  9
$OSMODE
 70
20583
  9
$LTSCALE
 40
1.0
  9
$ATTMODE
 70
1
  9
$TEXTSIZE
 40
2.5
  9
$TRACEWID
 40
1.0
  9
$TEXTSTYLE
  7
Standard
  9
$CLAYER
  8
0
  9
$CELTYPE
  6
ByLayer
  9
$CECOLOR
 62
256
  9
$DIMSCALE
 40
1.0
  9
$DIMASZ
 40
2.5
  9
$DIMEXO
 40
0.625
  9
$DIMDLI
 40
3.75
  9
$DIMRND
 40
0.0
  9
$DIMDLE
 40
0.0
  9
$DIMEXE
 40
1.25
  9
$DIMTP
 40
0.0
  9
$DIMTM
 40
0.0
  9
$DIMTXT
 40
2.5
  9
$DIMCEN
 40
2.5
  9
$DIMTSZ
 40
0.0
  9
$DIMTOL
 70
0
  9
$DIMLIM
 70
0
  9
$DIMTIH
 70
0
  9
$DIMTOH
 70
0
  9
$DIMSE1
 70
0
  9
$DIMSE2
 70
0
  9
$DIMTAD
 70
1
  9
$DIMZIN
 70
8
  9
$DIMBLK
  1

  9
$DIMASO
 70
1
  9
$DIMSHO
 70
1
  9
$DIMPOST
  1

  9
$DIMAPOST
  1

  9
$DIMALT
 70
0
  9
$DIMALTD
 70
3
  9
$DIMALTF
 40
0.03937007874
  9
$DIMLFAC
 40
1.0
  9
$DIMTOFL
 70
1
  9
$DIMTVP
 40
0.0
  9
$DIMTIX
 70
0
  9
$DIMSOXD
 70
0
  9
$DIMSAH
 70
0
  9
$DIMBLK1
  1

  9
$DIMBLK2
  1

  9
$DIMSTYLE
  2
ISO-25
  9
$DIMCLRD
 70
0
  9
$DIMCLRE
 70
0
  9
$DIMCLRT
 70
0
  9
$DIMTFAC
 40
1.0
  9
$DIMGAP
 40
0.625
  9
$COORDS
 70
1
  9
$ATTDIA
 70
0
  9
$ATTREQ
 70
1
  9
$HANDLING
 70
1
  9
$LUNITS
 70
2
  9
$LUPREC
 70
4
  9
$SKETCHINC
 40
1.0
  9
$FILLETRAD
 40
10.0
  9
$AUNITS
 70
0
  9
$AUPREC
 70
2
  9
$MENU
  1
.
  9
$ELEVATION
 40
0.0
  9
$PELEVATION
 40
0.0
  9
$THICKNESS
 40
0.0
  9
$LIMCHECK
 70
0
  9
$CHAMFERA
 40
0.0
  9
$CHAMFERB
 40
0.0
  9
$SKPOLY
 70
0
  9
$TDCREATE
 40
2459867.7772685187
  9
$TDUPDATE
 40
2459867.7772685187
  9
$TDINDWG
 40
0.0
  9
$TDUSRTIMER
 40
0.0
  9
$USRTIMER
 70
1
  9
$ANGBASE
 50
0.0
  9
$ANGDIR
 70
0
  9
$PDMODE
 70
0
  9
$PDSIZE
 40
0.0
  9
$PLINEWID
 40
0.0
  9
$SPLFRAME
 70
0
  9
$SPLINETYPE
 70
6
  9
$SPLINESEGS
 70
8
  9
$HANDSEED
  5
86
  9
$SURFTAB1
 70
6
  9
$SURFTAB2
 70
6
  9
$SURFTYPE
 70
6
  9
$SURFU
 70
6
  9
$SURFV
 70
6
  9
$UCSNAME
  2

  9
$UCSORG
 10
0.0
 20
0.0
 30
0.0
  9
$UCSXDIR
 10
1.0
 20
0.0
 30
0.0
  9
$UCSYDIR
 10
0.0
 20
1.0
 30
0.0
  9
$PUCSNAME
  2

  9
$PUCSORG
 10
0.0
 20
0.0
 30
0.0
  9
$PUCSXDIR
 10
1.0
 20
0.0
 30
0.0
  9
$PUCSYDIR
 10
0.0
 20
1.0
 30
0.0
  9
$USERI1
 70
0
  9
$USERI2
 70
0
  9
$USERI3
 70
0
  9
$USERI4
 70
0
  9
$USERI5
 70
0
  9
$USERR1
 40
0.0
  9
$USERR2
 40
0.0
  9
$USERR3
 40
0.0
  9
$USERR4
 40
0.0
  9
$USERR5
 40
0.0
  9
$WORLDVIEW
 70
1
  9
$SHADEDGE
 70
3
  9
$SHADEDIF
 70
70
  9
$TILEMODE
 70
1
  9
$MAXACTVP
 70
64
  9
$PLIMCHECK
 70
0
  9
$PEXTMIN
 10
1e+20
 20
1e+20
 30
1e+20
  9
$PEXTMAX
 10
-1e+20
 20
-1e+20
 30
-1e+20
  9
$PLIMMIN
 10
0.0
 20
0.0
  9
$PLIMMAX
 10
420.0
 20
297.0
  9
$UNITMODE
 70
0
  9
$VISRETAIN
 70
1
  9
$PLINEGEN
 70
0
  9
$PSLTSCALE
 70
1
  0
ENDSEC
  0
SECTION
  2
TABLES
  0
TABLE
  2
VPORT
 70
1
  0
VPORT
  5
23
  2
*Active
 70
0
 10
0.0
 20
0.0
 11
1.0
 21
1.0
 12
70.0
 22
50.0
 13
0.0
 23
0.0
 14
0.5
 24
0.5
 15
0.5
 25
0.5
 16
0.0
 26
0.0
 36
1.0
 17
0.0
 27
0.0
 37
0.0
 40
1.0
 41
1.34
 42
50.0
 43
0.0
 44
0.0
 50
0.0
 51
0.0
 71
0
 72
1000
 73
1
 74
3
 75
0
 76
0
 77
0
 78
0
  0
ENDTAB
  0
TABLE
  2
LTYPE
 70
3
  0
LTYPE
  5
24
  2
ByBlock
 70
0
  3

 72
65
 73
0
 40
0.0
  0
LTYPE
  5
25
  2
ByLayer
 70
0
  3

 72
65
 73
0
 40
0.0
  0
LTYPE
  5
26
  2
Continuous
 70
0
  3

 72
65
 73
0
 40
0.0
  0
ENDTAB
  0
TABLE
  2
LAYER
 70
2
  0
LAYER
  5
27
  2
0
 70
0
 62
7
  6
Continuous
  0
LAYER
  5
28
  2
Defpoints
 70
0
 62
7
  6
Continuous
  0
ENDTAB
  0
TABLE
  2
STYLE
 70
1
  0
STYLE
  5
29
  2
Standard
 70
0
 40
0.0
 41
1.0
 50
0.0
 71
0
 42
2.5
  3
txt
  4

  0
ENDTAB
  0
TABLE
  2
VIEW
 70
0
  0
ENDTAB
  0
TABLE
  2
UCS
 70
0
  0
ENDTAB
  0
TABLE
  2
APPID
 70
2
  0
APPID
  5
2A
  2
ACAD
 70
0
  0
APPID
  5
85
  2
HATCHBACKGROUNDCOLOR
 70
0
  0
ENDTAB
  0
TABLE
  2
DIMSTYLE
 70
1
  0
DIMSTYLE
105
2B
  2
Standard
 70
0
  3

  4

  5

  6

  7

 40
1.0
 41
2.5
 42
0.625
 43
3.75
 44
1.25
 45
0.0
 46
0.0
 47
0.0
 48
0.0
140
2.5
141
2.5
142
0.0
143
0.03937007874
144
1.0
145
0.0
146
1.0
147
0.625
 71
0
 72
0
 73
0
 74
0
 75
0
 76
0
 77
1
 78
8
170
0
171
3
172
1
173
0
174
0
175
0
176
0
177
0
178
0
  0
ENDTAB
  0
ENDSEC
  0
SECTION
  2
BLOCKS
  0
BLOCK
  5
18
  8
0
  2
$Model_Space
 70
0
 10
0.0
 20
0.0
 30
0.0
  3
$Model_Space
  1

  0
ENDBLK
  5
19
  8
0
  0
BLOCK
  5
1C
  8
0
  2
$Paper_Space
 70
0
 10
0.0
 20
0.0
 30
0.0
  3
$Paper_Space
  1

  0
ENDBLK
  5
1D
  8
0
  0
ENDSEC
  0
SECTION
  2
ENTITIES
  0
LINE
  5
2D
  8
0
 10
-5.338850143
 20
-0.3474275060000003
 30
0.0
 11
-5.371206502
 21
-0.534356389
 31
0.0
  0
LINE
  5
2E
  8
0
 10
-5.371206502
 20
-0.534356389
 30
0.0
 11
-5.367818468
 21
-1.101638666
 31
0.0
  0
LINE
  5
2F
  8
0
 10
-5.367818468
 20
-1.101638666
 30
0.0
 11
-5.355308864
 21
-1.3229438290000002
 31
0.0
  0
LINE
  5
30
  8
0
 10
-5.355308864
 20
-1.3229438290000002
 30
0.0
 11
-5.34103803
 21
-1.380034979
 31
0.0
  0
LINE
  5
31
  8
0
 10
-5.34103803
 20
-1.380034979
 30
0.0
 11
-5.188463235
 21
-2.0240615760000003
 31
0.0
  0
LINE
  5
32
  8
0
 10
-5.188463235
 20
-2.0240615760000003
 30
0.0
 11
-5.028619368
 21
-2.3670733860000004
 31
0.0
  0
LINE
  5
33
  8
0
 10
-5.028619368
 20
-2.3670733860000004
 30
0.0
 11
-4.905629918
 21
-2.605111866
 31
0.0
  0
LINE
  5
34
  8
0
 10
-4.905629918
 20
-2.605111866
 30
0.0
 11
-4.769591808
 21
-2.786283591
 31
0.0
  0
LINE
  5
35
  8
0
 10
-4.769591808
 20
-2.786283591
 30
0.0
 11
-4.530406341
 21
-3.0690335499000003
 31
0.0
  0
LINE
  5
36
  8
0
 10
-4.530406341
 20
-3.0690335499000003
 30
0.0
 11
-4.45832258
 21
-3.1275054284
 31
0.0
  0
LINE
  5
37
  8
0
 10
-4.45832258
 20
-3.1275054284
 30
0.0
 11
-4.185109446
 21
-3.326622627
 31
0.0
  0
LINE
  5
38
  8
0
 10
-4.185109446
 20
-3.326622627
 30
0.0
 11
-4.085148375
 21
-3.3961896002
 31
0.0
  0
LINE
  5
39
  8
0
 10
-4.085148375
 20
-3.3961896002
 30
0.0
 11
-4.065637518
 21
-3.4084489782
 31
0.0
  0
LINE
  5
3A
  8
0
 10
-4.065637518
 20
-3.4084489782
 30
0.0
 11
-3.629031215
 21
-3.6160388215
 31
0.0
  0
LINE
  5
3B
  8
0
 10
-3.629031215
 20
-3.6160388215
 30
0.0
 11
-3.524600378
 21
-3.6606268274000002
 31
0.0
  0
LINE
  5
3C
  8
0
 10
-3.524600378
 20
-3.6606268274000002
 30
0.0
 11
-3.150656206
 21
-3.7824175340000004
 31
0.0
  0
LINE
  5
3D
  8
0
 10
-3.150656206
 20
-3.7824175340000004
 30
0.0
 11
-2.957055728
 21
-3.8385175673000003
 31
0.0
  0
LINE
  5
3E
  8
0
 10
-2.957055728
 20
-3.8385175673000003
 30
0.0
 11
-2.646178972
 21
-3.9089327881
 31
0.0
  0
LINE
  5
3F
  8
0
 10
-2.646178972
 20
-3.9089327881
 30
0.0
 11
-2.360257594
 21
-3.96551984802
 31
0.0
  0
LINE
  5
40
  8
0
 10
-2.360257594
 20
-3.96551984802
 30
0.0
 11
-2.128176958
 21
-3.99234586778
 31
0.0
  0
LINE
  5
41
  8
0
 10
-2.128176958
 20
-3.99234586778
 30
0.0
 11
-1.765623682
 21
-4.02991144674
 31
0.0
  0
LINE
  5
42
  8
0
 10
-1.765623682
 20
-4.02991144674
 30
0.0
 11
-1.600849673
 21
-4.03540118468
 31
0.0
  0
LINE
  5
43
  8
0
 10
-1.600849673
 20
-4.03540118468
 30
0.0
 11
-1.169056325
 21
-4.050198837595
 31
0.0
  0
LINE
  5
44
  8
0
 10
-1.169056325
 20
-4.050198837595
 30
0.0
 11
-1.061122557
 21
-4.051318117197
 31
0.0
  0
LINE
  5
45
  8
0
 10
-1.061122557
 20
-4.051318117197
 30
0.0
 11
-0.5797634098
 21
-4.0567039749743
 31
0.0
  0
LINE
  5
46
  8
0
 10
-0.5797634098
 20
-4.0567039749743
 30
0.0
 11
-0.5097525116
 21
-4.0568077754167
 31
0.0
  0
LINE
  5
47
  8
0
 10
-0.5097525116
 20
-4.0568077754167
 30
0.0
 11
0.0
 21
-4.057621161
 31
0.0
  0
LINE
  5
48
  8
0
 10
0.0
 20
-4.057621161
 30
0.0
 11
0.5097525116
 21
-4.0568077754167
 31
0.0
  0
LINE
  5
49
  8
0
 10
0.5097525116
 20
-4.0568077754167
 30
0.0
 11
0.5797634098
 21
-4.0567039749743
 31
0.0
  0
LINE
  5
4A
  8
0
 10
0.5797634098
 20
-4.0567039749743
 30
0.0
 11
1.061122557
 21
-4.051318117197
 31
0.0
  0
LINE
  5
4B
  8
0
 10
1.061122557
 20
-4.051318117197
 30
0.0
 11
1.169056325
 21
-4.050198837595
 31
0.0
  0
LINE
  5
4C
  8
0
 10
1.169056325
 20
-4.050198837595
 30
0.0
 11
1.600849673
 21
-4.03540118468
 31
0.0
  0
LINE
  5
4D
  8
0
 10
1.600849673
 20
-4.03540118468
 30
0.0
 11
1.765623682
 21
-4.02991144674
 31
0.0
  0
LINE
  5
4E
  8
0
 10
1.765623682
 20
-4.02991144674
 30
0.0
 11
2.128176958
 21
-3.99234586778
 31
0.0
  0
LINE
  5
4F
  8
0
 10
2.128176958
 20
-3.99234586778
 30
0.0
 11
2.360257594
 21
-3.96551984802
 31
0.0
  0
LINE
  5
50
  8
0
 10
2.360257594
 20
-3.96551984802
 30
0.0
 11
2.646178972
 21
-3.9089327881
 31
0.0
  0
LINE
  5
51
  8
0
 10
2.646178972
 20
-3.9089327881
 30
0.0
 11
2.957055728
 21
-3.8385175673000003
 31
0.0
  0
LINE
  5
52
  8
0
 10
2.957055728
 20
-3.8385175673000003
 30
0.0
 11
3.150656206
 21
-3.7824175340000004
 31
0.0
  0
LINE
  5
53
  8
0
 10
3.150656206
 20
-3.7824175340000004
 30
0.0
 11
3.524600378
 21
-3.6606268274000002
 31
0.0
  0
LINE
  5
54
  8
0
 10
3.524600378
 20
-3.6606268274000002
 30
0.0
 11
3.629031215
 21
-3.6160388215
 31
0.0
  0
LINE
  5
55
  8
0
 10
3.629031215
 20
-3.6160388215
 30
0.0
 11
4.065637518
 21
-3.4084489782
 31
0.0
  0
LINE
  5
56
  8
0
 10
4.065637518
 20
-3.4084489782
 30
0.0
 11
4.085148375
 21
-3.3961896002
 31
0.0
  0
LINE
  5
57
  8
0
 10
4.085148375
 20
-3.3961896002
 30
0.0
 11
4.185109446
 21
-3.326622627
 31
0.0
  0
LINE
  5
58
  8
0
 10
4.185109446
 20
-3.326622627
 30
0.0
 11
4.45832258
 21
-3.1275054284
 31
0.0
  0
LINE
  5
59
  8
0
 10
4.45832258
 20
-3.1275054284
 30
0.0
 11
4.530406341
 21
-3.0690335499000003
 31
0.0
  0
LINE
  5
5A
  8
0
 10
4.530406341
 20
-3.0690335499000003
 30
0.0
 11
4.769591808
 21
-2.786283591
 31
0.0
  0
LINE
  5
5B
  8
0
 10
4.769591808
 20
-2.786283591
 30
0.0
 11
4.905629918
 21
-2.605111866
 31
0.0
  0
LINE
  5
5C
  8
0
 10
4.905629918
 20
-2.605111866
 30
0.0
 11
5.028619368
 21
-2.3670733860000004
 31
0.0
  0
LINE
  5
5D
  8
0
 10
5.028619368
 20
-2.3670733860000004
 30
0.0
 11
5.188463235
 21
-2.0240615760000003
 31
0.0
  0
LINE
  5
5E
  8
0
 10
5.188463235
 20
-2.0240615760000003
 30
0.0
 11
5.34103803
 21
-1.380034979
 31
0.0
  0
LINE
  5
5F
  8
0
 10
5.34103803
 20
-1.380034979
 30
0.0
 11
5.355308864
 21
-1.3229438290000002
 31
0.0
  0
LINE
  5
60
  8
0
 10
5.355308864
 20
-1.3229438290000002
 30
0.0
 11
5.367818468
 21
-1.101638666
 31
0.0
  0
LINE
  5
61
  8
0
 10
5.367818468
 20
-1.101638666
 30
0.0
 11
5.371206502
 21
-0.534356389
 31
0.0
  0
LINE
  5
62
  8
0
 10
5.371206502
 20
-0.534356389
 30
0.0
 11
5.338850143
 21
-0.3474275060000003
 31
0.0
  0
LINE
  5
63
  8
0
 10
5.338850143
 20
-0.3474275060000003
 30
0.0
 11
5.230606614
 21
0.2756620070000002
 31
0.0
  0
LINE
  5
64
  8
0
 10
5.230606614
 20
0.2756620070000002
 30
0.0
 11
5.077005241
 21
0.6982636109999998
 31
0.0
  0
LINE
  5
65
  8
0
 10
5.077005241
 20
0.6982636109999998
 30
0.0
 11
4.929928961
 21
1.1061823339999997
 31
0.0
  0
LINE
  5
66
  8
0
 10
4.929928961
 20
1.1061823339999997
 30
0.0
 11
4.591024567
 21
1.7042577730000001
 31
0.0
  0
LINE
  5
67
  8
0
 10
4.591024567
 20
1.7042577730000001
 30
0.0
 11
4.473389002
 21
1.9149029239999997
 31
0.0
  0
LINE
  5
68
  8
0
 10
4.473389002
 20
1.9149029239999997
 30
0.0
 11
3.866111352
 21
2.625154276
 31
0.0
  0
LINE
  5
69
  8
0
 10
3.866111352
 20
2.625154276
 30
0.0
 11
3.817535331
 21
2.6835296379999996
 31
0.0
  0
LINE
  5
6A
  8
0
 10
3.817535331
 20
2.6835296379999996
 30
0.0
 11
3.391863921
 21
3.0149736689999997
 31
0.0
  0
LINE
  5
6B
  8
0
 10
3.391863921
 20
3.0149736689999997
 30
0.0
 11
3.019977721
 21
3.2894219399999995
 31
0.0
  0
LINE
  5
6C
  8
0
 10
3.019977721
 20
3.2894219399999995
 30
0.0
 11
2.957892618
 21
3.3146352099999996
 31
0.0
  0
LINE
  5
6D
  8
0
 10
2.957892618
 20
3.3146352099999996
 30
0.0
 11
2.078501274
 21
3.7009472709999995
 31
0.0
  0
LINE
  5
6E
  8
0
 10
2.078501274
 20
3.7009472709999995
 30
0.0
 11
1.908937275
 21
3.741404106
 31
0.0
  0
LINE
  5
6F
  8
0
 10
1.908937275
 20
3.741404106
 30
0.0
 11
1.053308478
 21
3.9639543570000004
 31
0.0
  0
LINE
  5
70
  8
0
 10
1.053308478
 20
3.9639543570000004
 30
0.0
 11
0.8219601497
 21
3.9831541319999992
 31
0.0
  0
LINE
  5
71
  8
0
 10
0.8219601497
 20
3.9831541319999992
 30
0.0
 11
-1.776356839e-15
 21
4.057621161
 31
0.0
  0
LINE
  5
72
  8
0
 10
-1.776356839e-15
 20
4.057621161
 30
0.0
 11
-0.8219601497
 21
3.9831541319999992
 31
0.0
  0
LINE
  5
73
  8
0
 10
-0.8219601497
 20
3.9831541319999992
 30
0.0
 11
-1.053308478
 21
3.9639543570000004
 31
0.0
  0
LINE
  5
74
  8
0
 10
-1.053308478
 20
3.9639543570000004
 30
0.0
 11
-1.908937275
 21
3.741404106
 31
0.0
  0
LINE
  5
75
  8
0
 10
-1.908937275
 20
3.741404106
 30
0.0
 11
-2.078501274
 21
3.7009472709999995
 31
0.0
  0
LINE
  5
76
  8
0
 10
-2.078501274
 20
3.7009472709999995
 30
0.0
 11
-2.957892618
 21
3.3146352099999996
 31
0.0
  0
LINE
  5
77
  8
0
 10
-2.957892618
 20
3.3146352099999996
 30
0.0
 11
-3.019977721
 21
3.2894219399999995
 31
0.0
  0
LINE
  5
78
  8
0
 10
-3.019977721
 20
3.2894219399999995
 30
0.0
 11
-3.391863921
 21
3.0149736689999997
 31
0.0
  0
LINE
  5
79
  8
0
 10
-3.391863921
 20
3.0149736689999997
 30
0.0
 11
-3.817535331
 21
2.6835296379999996
 31
0.0
  0
LINE
  5
7A
  8
0
 10
-3.817535331
 20
2.6835296379999996
 30
0.0
 11
-3.866111352
 21
2.625154276
 31
0.0
  0
LINE
  5
7B
  8
0
 10
-3.866111352
 20
2.625154276
 30
0.0
 11
-4.473389002
 21
1.9149029239999997
 31
0.0
  0
LINE
  5
7C
  8
0
 10
-4.473389002
 20
1.9149029239999997
 30
0.0
 11
-4.591024567
 21
1.7042577730000001
 31
0.0
  0
LINE
  5
7D
  8
0
 10
-4.591024567
 20
1.7042577730000001
 30
0.0
 11
-4.929928961
 21
1.1061823339999997
 31
0.0
  0
LINE
  5
7E
  8
0
 10
-4.929928961
 20
1.1061823339999997
 30
0.0
 11
-5.077005241
 21
0.6982636109999998
 31
0.0
  0
LINE
  5
7F
  8
0
 10
-5.077005241
 20
0.6982636109999998
 30
0.0
 11
-5.230606614
 21
0.2756620070000002
 31
0.0
  0
LINE
  5
80
  8
0
 10
-5.230606614
 20
0.2756620070000002
 30
0.0
 11
-5.338850143
 21
-0.3474275060000003
 31
0.0
  0
LINE
  5
81
  8
0
 10
0.2
 20
0.2
 30
0.0
 11
0.2
 21
-0.2
 31
0.0
  0
LINE
  5
82
  8
0
 10
0.2
 20
-0.2
 30
0.0
 11
-0.2
 21
-0.2
 31
0.0
  0
LINE
  5
83
  8
0
 10
-0.2
 20
-0.2
 30
0.0
 11
-0.2
 21
0.2
 31
0.0
  0
LINE
  5
84
  8
0
 10
-0.2
 20
0.2
 30
0.0
 11
0.2
 21
0.2
 31
0.0
  0
ENDSEC
  0
EOF
