  0
SECTION
  2
HEADER
  9
$ACADVER
  1
AC1009
  9
$DWGCODEPAGE
  3
ANSI_1252
  9
$INSBASE
 10
0.0
 20
0.0
 30
0.0
  9
$EXTMIN
 10
-100
 20
-100
 30
-100
  9
$EXTMAX
 10
100
 20
100
 30
100
  9
$LIMMIN
 10
0.0
 20
0.0
  9
$LIMMAX
 10
420.0
 20
297.0
  9
$ORTHOMODE
 70
0
  9
$REGENMODE
 70
1
  9
$DRAGMODE
 70
2
  9
$FILLMODE
 70
1
  9
$QTEXTMODE
 70
0
  9
$MIRRTEXT
 70
1
  9
$OSMODE
 70
20583
  9
$LTSCALE
 40
1.0
  9
$ATTMODE
 70
1
  9
$TEXTSIZE
 40
2.5
  9
$TRACEWID
 40
1.0
  9
$TEXTSTYLE
  7
Standard
  9
$CLAYER
  8
0
  9
$CELTYPE
  6
ByLayer
  9
$CECOLOR
 62
256
  9
$DIMSCALE
 40
1.0
  9
$DIMASZ
 40
2.5
  9
$DIMEXO
 40
0.625
  9
$DIMDLI
 40
3.75
  9
$DIMRND
 40
0.0
  9
$DIMDLE
 40
0.0
  9
$DIMEXE
 40
1.25
  9
$DIMTP
 40
0.0
  9
$DIMTM
 40
0.0
  9
$DIMTXT
 40
2.5
  9
$DIMCEN
 40
2.5
  9
$DIMTSZ
 40
0.0
  9
$DIMTOL
 70
0
  9
$DIMLIM
 70
0
  9
$DIMTIH
 70
0
  9
$DIMTOH
 70
0
  9
$DIMSE1
 70
0
  9
$DIMSE2
 70
0
  9
$DIMTAD
 70
1
  9
$DIMZIN
 70
8
  9
$DIMBLK
  1

  9
$DIMASO
 70
1
  9
$DIMSHO
 70
1
  9
$DIMPOST
  1

  9
$DIMAPOST
  1

  9
$DIMALT
 70
0
  9
$DIMALTD
 70
3
  9
$DIMALTF
 40
0.03937007874
  9
$DIMLFAC
 40
1.0
  9
$DIMTOFL
 70
1
  9
$DIMTVP
 40
0.0
  9
$DIMTIX
 70
0
  9
$DIMSOXD
 70
0
  9
$DIMSAH
 70
0
  9
$DIMBLK1
  1

  9
$DIMBLK2
  1

  9
$DIMSTYLE
  2
ISO-25
  9
$DIMCLRD
 70
0
  9
$DIMCLRE
 70
0
  9
$DIMCLRT
 70
0
  9
$DIMTFAC
 40
1.0
  9
$DIMGAP
 40
0.625
  9
$COORDS
 70
1
  9
$ATTDIA
 70
0
  9
$ATTREQ
 70
1
  9
$HANDLING
 70
1
  9
$LUNITS
 70
2
  9
$LUPREC
 70
4
  9
$SKETCHINC
 40
1.0
  9
$FILLETRAD
 40
10.0
  9
$AUNITS
 70
0
  9
$AUPREC
 70
2
  9
$MENU
  1
.
  9
$ELEVATION
 40
0.0
  9
$PELEVATION
 40
0.0
  9
$THICKNESS
 40
0.0
  9
$LIMCHECK
 70
0
  9
$CHAMFERA
 40
0.0
  9
$CHAMFERB
 40
0.0
  9
$SKPOLY
 70
0
  9
$TDCREATE
 40
2459751.94568287
  9
$TDUPDATE
 40
2459751.94568287
  9
$TDINDWG
 40
0.0
  9
$TDUSRTIMER
 40
0.0
  9
$USRTIMER
 70
1
  9
$ANGBASE
 50
0.0
  9
$ANGDIR
 70
0
  9
$PDMODE
 70
0
  9
$PDSIZE
 40
0.0
  9
$PLINEWID
 40
0.0
  9
$SPLFRAME
 70
0
  9
$SPLINETYPE
 70
6
  9
$SPLINESEGS
 70
8
  9
$HANDSEED
  5
72
  9
$SURFTAB1
 70
6
  9
$SURFTAB2
 70
6
  9
$SURFTYPE
 70
6
  9
$SURFU
 70
6
  9
$SURFV
 70
6
  9
$UCSNAME
  2

  9
$UCSORG
 10
0.0
 20
0.0
 30
0.0
  9
$UCSXDIR
 10
1.0
 20
0.0
 30
0.0
  9
$UCSYDIR
 10
0.0
 20
1.0
 30
0.0
  9
$PUCSNAME
  2

  9
$PUCSORG
 10
0.0
 20
0.0
 30
0.0
  9
$PUCSXDIR
 10
1.0
 20
0.0
 30
0.0
  9
$PUCSYDIR
 10
0.0
 20
1.0
 30
0.0
  9
$USERI1
 70
0
  9
$USERI2
 70
0
  9
$USERI3
 70
0
  9
$USERI4
 70
0
  9
$USERI5
 70
0
  9
$USERR1
 40
0.0
  9
$USERR2
 40
0.0
  9
$USERR3
 40
0.0
  9
$USERR4
 40
0.0
  9
$USERR5
 40
0.0
  9
$WORLDVIEW
 70
1
  9
$SHADEDGE
 70
3
  9
$SHADEDIF
 70
70
  9
$TILEMODE
 70
1
  9
$MAXACTVP
 70
64
  9
$PLIMCHECK
 70
0
  9
$PEXTMIN
 10
1e+20
 20
1e+20
 30
1e+20
  9
$PEXTMAX
 10
-1e+20
 20
-1e+20
 30
-1e+20
  9
$PLIMMIN
 10
0.0
 20
0.0
  9
$PLIMMAX
 10
420.0
 20
297.0
  9
$UNITMODE
 70
0
  9
$VISRETAIN
 70
1
  9
$PLINEGEN
 70
0
  9
$PSLTSCALE
 70
1
  0
ENDSEC
  0
SECTION
  2
TABLES
  0
TABLE
  2
VPORT
 70
1
  0
VPORT
  5
23
  2
*Active
 70
0
 10
0.0
 20
0.0
 11
1.0
 21
1.0
 12
70.0
 22
50.0
 13
0.0
 23
0.0
 14
0.5
 24
0.5
 15
0.5
 25
0.5
 16
0.0
 26
0.0
 36
1.0
 17
0.0
 27
0.0
 37
0.0
 40
1.0
 41
1.34
 42
50.0
 43
0.0
 44
0.0
 50
0.0
 51
0.0
 71
0
 72
1000
 73
1
 74
3
 75
0
 76
0
 77
0
 78
0
  0
ENDTAB
  0
TABLE
  2
LTYPE
 70
3
  0
LTYPE
  5
24
  2
ByBlock
 70
0
  3

 72
65
 73
0
 40
0.0
  0
LTYPE
  5
25
  2
ByLayer
 70
0
  3

 72
65
 73
0
 40
0.0
  0
LTYPE
  5
26
  2
Continuous
 70
0
  3

 72
65
 73
0
 40
0.0
  0
ENDTAB
  0
TABLE
  2
LAYER
 70
2
  0
LAYER
  5
27
  2
0
 70
0
 62
7
  6
Continuous
  0
LAYER
  5
28
  2
Defpoints
 70
0
 62
7
  6
Continuous
  0
ENDTAB
  0
TABLE
  2
STYLE
 70
1
  0
STYLE
  5
29
  2
Standard
 70
0
 40
0.0
 41
1.0
 50
0.0
 71
0
 42
2.5
  3
txt
  4

  0
ENDTAB
  0
TABLE
  2
VIEW
 70
0
  0
ENDTAB
  0
TABLE
  2
UCS
 70
0
  0
ENDTAB
  0
TABLE
  2
APPID
 70
2
  0
APPID
  5
2A
  2
ACAD
 70
0
  0
APPID
  5
71
  2
HATCHBACKGROUNDCOLOR
 70
0
  0
ENDTAB
  0
TABLE
  2
DIMSTYLE
 70
1
  0
DIMSTYLE
105
2B
  2
Standard
 70
0
  3

  4

  5

  6

  7

 40
1.0
 41
2.5
 42
0.625
 43
3.75
 44
1.25
 45
0.0
 46
0.0
 47
0.0
 48
0.0
140
2.5
141
2.5
142
0.0
143
0.03937007874
144
1.0
145
0.0
146
1.0
147
0.625
 71
0
 72
0
 73
0
 74
0
 75
0
 76
0
 77
1
 78
8
170
0
171
3
172
1
173
0
174
0
175
0
176
0
177
0
178
0
  0
ENDTAB
  0
ENDSEC
  0
SECTION
  2
BLOCKS
  0
BLOCK
  5
18
  8
0
  2
$Model_Space
 70
0
 10
0.0
 20
0.0
 30
0.0
  3
$Model_Space
  1

  0
ENDBLK
  5
19
  8
0
  0
BLOCK
  5
1C
  8
0
  2
$Paper_Space
 70
0
 10
0.0
 20
0.0
 30
0.0
  3
$Paper_Space
  1

  0
ENDBLK
  5
1D
  8
0
  0
ENDSEC
  0
SECTION
  2
ENTITIES
  0
LINE
  5
2D
  8
0
 10
-1.6979440815000002
 20
-0.01781481484999997
 30
0.0
 11
-1.6696740815000002
 21
-0.05679126404999996
 31
0.0
  0
LINE
  5
2E
  8
0
 10
-1.6696740815000002
 20
-0.05679126404999996
 30
0.0
 11
-1.6611677605000001
 21
-0.06867365264999997
 31
0.0
  0
LINE
  5
2F
  8
0
 10
-1.6611677605000001
 20
-0.06867365264999997
 30
0.0
 11
-1.5953666275000002
 21
-0.09726774934999999
 31
0.0
  0
LINE
  5
30
  8
0
 10
-1.5953666275000002
 20
-0.09726774934999999
 30
0.0
 11
-1.5754591725000004
 21
-0.10596093304999998
 31
0.0
  0
LINE
  5
31
  8
0
 10
-1.5754591725000004
 20
-0.10596093304999998
 30
0.0
 11
-1.4768884395000001
 21
-0.12888894315
 31
0.0
  0
LINE
  5
32
  8
0
 10
-1.4768884395000001
 20
-0.12888894315
 30
0.0
 11
-1.4469970695000005
 21
-0.13565604425
 31
0.0
  0
LINE
  5
33
  8
0
 10
-1.4469970695000005
 20
-0.13565604425
 30
0.0
 11
-1.3098494925000002
 21
-0.15380363804999997
 31
0.0
  0
LINE
  5
34
  8
0
 10
-1.3098494925000002
 20
-0.15380363804999997
 30
0.0
 11
-1.2682694545000004
 21
-0.15893930294999997
 31
0.0
  0
LINE
  5
35
  8
0
 10
-1.2682694545000004
 20
-0.15893930294999997
 30
0.0
 11
-1.0869863485000004
 21
-0.17104047655
 31
0.0
  0
LINE
  5
36
  8
0
 10
-1.0869863485000004
 20
-0.17104047655
 30
0.0
 11
-1.0320555275000003
 21
-0.17421917674999998
 31
0.0
  0
LINE
  5
37
  8
0
 10
-1.0320555275000003
 20
-0.17421917674999998
 30
0.0
 11
-0.8055855705000003
 21
-0.17854185265
 31
0.0
  0
LINE
  5
38
  8
0
 10
-0.8055855705000003
 20
-0.17854185265
 30
0.0
 11
-0.7369912775000005
 21
-0.17935649324999997
 31
0.0
  0
LINE
  5
39
  8
0
 10
-0.7369912775000005
 20
-0.17935649324999997
 30
0.0
 11
-0.47226102549999993
 21
-0.17512378125
 31
0.0
  0
LINE
  5
3A
  8
0
 10
-0.47226102549999993
 20
-0.17512378125
 30
0.0
 11
-0.3920910595000002
 21
-0.17351481824999998
 31
0.0
  0
LINE
  5
3B
  8
0
 10
-0.3920910595000002
 20
-0.17351481824999998
 30
0.0
 11
-0.10522387349999995
 21
-0.16149707084999998
 31
0.0
  0
LINE
  5
3C
  8
0
 10
-0.10522387349999995
 20
-0.16149707084999998
 30
0.0
 11
-0.018346466500000602
 21
-0.15777762935
 31
0.0
  0
LINE
  5
3D
  8
0
 10
-0.018346466500000602
 20
-0.15777762935
 30
0.0
 11
0.06845171350000001
 21
-0.15250978945
 31
0.0
  0
LINE
  5
3E
  8
0
 10
0.06845171350000001
 20
-0.15250978945
 30
0.0
 11
0.3550320204999995
 21
-0.13488189865
 31
0.0
  0
LINE
  5
3F
  8
0
 10
0.3550320204999995
 20
-0.13488189865
 30
0.0
 11
0.4350141694999996
 21
-0.12910999364999998
 31
0.0
  0
LINE
  5
40
  8
0
 10
0.4350141694999996
 20
-0.12910999364999998
 30
0.0
 11
0.6990522184999994
 21
-0.10933815505
 31
0.0
  0
LINE
  5
41
  8
0
 10
0.6990522184999994
 20
-0.10933815505
 30
0.0
 11
0.7674446305
 21
-0.10389327574999996
 31
0.0
  0
LINE
  5
42
  8
0
 10
0.7674446305
 20
-0.10389327574999996
 30
0.0
 11
0.9931862444999995
 21
-0.08489654124999996
 31
0.0
  0
LINE
  5
43
  8
0
 10
0.9931862444999995
 20
-0.08489654124999996
 30
0.0
 11
1.0480244845
 21
-0.08024393224999998
 31
0.0
  0
LINE
  5
44
  8
0
 10
1.0480244845
 20
-0.08024393224999998
 30
0.0
 11
1.2290007654999995
 21
-0.06378558395
 31
0.0
  0
LINE
  5
45
  8
0
 10
1.2290007654999995
 20
-0.06378558395
 30
0.0
 11
1.2707453355
 21
-0.06007950875000001
 31
0.0
  0
LINE
  5
46
  8
0
 10
1.2707453355
 20
-0.06007950875000001
 30
0.0
 11
1.4084923675
 21
-0.046839667449999955
 31
0.0
  0
LINE
  5
47
  8
0
 10
1.4084923675
 20
-0.046839667449999955
 30
0.0
 11
1.4390297284999995
 21
-0.044034152449999975
 31
0.0
  0
LINE
  5
48
  8
0
 10
1.4390297284999995
 20
-0.044034152449999975
 30
0.0
 11
1.5397852445
 21
-0.03394498395000001
 31
0.0
  0
LINE
  5
49
  8
0
 10
1.5397852445
 20
-0.03394498395000001
 30
0.0
 11
1.5614799424999992
 21
-0.03189998494999996
 31
0.0
  0
LINE
  5
4A
  8
0
 10
1.5614799424999992
 20
-0.03189998494999996
 30
0.0
 11
1.6330541514999997
 21
-0.024514008449999958
 31
0.0
  0
LINE
  5
4B
  8
0
 10
1.6330541514999997
 20
-0.024514008449999958
 30
0.0
 11
1.6481484654999994
 21
-0.02306455614999997
 31
0.0
  0
LINE
  5
4C
  8
0
 10
1.6481484654999994
 20
-0.02306455614999997
 30
0.0
 11
1.6979440814999993
 21
-0.01781481484999997
 31
0.0
  0
LINE
  5
4D
  8
0
 10
1.6979440814999993
 20
-0.01781481484999997
 30
0.0
 11
1.6481948074999995
 21
-0.010986057150000006
 31
0.0
  0
LINE
  5
4E
  8
0
 10
1.6481948074999995
 20
-0.010986057150000006
 30
0.0
 11
1.6331272954999996
 21
-0.00862342844999997
 31
0.0
  0
LINE
  5
4F
  8
0
 10
1.6331272954999996
 20
-0.00862342844999997
 30
0.0
 11
1.5616001204999996
 21
0.000941583150000036
 31
0.0
  0
LINE
  5
50
  8
0
 10
1.5616001204999996
 20
0.000941583150000036
 30
0.0
 11
1.5399326234999995
 21
0.00424676115
 31
0.0
  0
LINE
  5
51
  8
0
 10
1.5399326234999995
 20
0.00424676115
 30
0.0
 11
1.4392059584999997
 21
0.01722246995000004
 31
0.0
  0
LINE
  5
52
  8
0
 10
1.4392059584999997
 20
0.01722246995000004
 30
0.0
 11
1.4086852834999997
 21
0.021697328250000036
 31
0.0
  0
LINE
  5
53
  8
0
 10
1.4086852834999997
 20
0.021697328250000036
 30
0.0
 11
1.2709116594999994
 21
0.03854152805000002
 31
0.0
  0
LINE
  5
54
  8
0
 10
1.2709116594999994
 20
0.03854152805000002
 30
0.0
 11
1.2291517114999992
 21
0.04433207505000003
 31
0.0
  0
LINE
  5
55
  8
0
 10
1.2291517114999992
 20
0.04433207505000003
 30
0.0
 11
1.0480341355
 21
0.06492592015000001
 31
0.0
  0
LINE
  5
56
  8
0
 10
1.0480341355
 20
0.06492592015000001
 30
0.0
 11
0.9931141824999994
 21
0.07197016855000002
 31
0.0
  0
LINE
  5
57
  8
0
 10
0.9931141824999994
 20
0.07197016855000002
 30
0.0
 11
0.7670429714999996
 21
0.09517008085
 31
0.0
  0
LINE
  5
58
  8
0
 10
0.7670429714999996
 20
0.09517008085
 30
0.0
 11
0.6984599464999999
 21
0.10304574075000003
 31
0.0
  0
LINE
  5
59
  8
0
 10
0.6984599464999999
 20
0.10304574075000003
 30
0.0
 11
0.43384656149999934
 21
0.12638603775
 31
0.0
  0
LINE
  5
5A
  8
0
 10
0.43384656149999934
 20
0.12638603775
 30
0.0
 11
0.35353168549999925
 21
0.13422165275000003
 31
0.0
  0
LINE
  5
5B
  8
0
 10
0.35353168549999925
 20
0.13422165275000003
 30
0.0
 11
0.06613500949999995
 21
0.15407459085000003
 31
0.0
  0
LINE
  5
5C
  8
0
 10
0.06613500949999995
 20
0.15407459085000003
 30
0.0
 11
-0.021135291500000264
 21
0.16062921955000004
 31
0.0
  0
LINE
  5
5D
  8
0
 10
-0.021135291500000264
 20
0.16062921955000004
 30
0.0
 11
-0.10856568750000051
 21
0.16461868575000002
 31
0.0
  0
LINE
  5
5E
  8
0
 10
-0.10856568750000051
 20
0.16461868575000002
 30
0.0
 11
-0.3963890705000006
 21
0.17710334585000004
 31
0.0
  0
LINE
  5
5F
  8
0
 10
-0.3963890705000006
 20
0.17710334585000004
 30
0.0
 11
-0.4770931675000005
 21
0.17739741915
 31
0.0
  0
LINE
  5
60
  8
0
 10
-0.4770931675000005
 20
0.17739741915
 30
0.0
 11
-0.7427470115000006
 21
0.17935649325000003
 31
0.0
  0
LINE
  5
61
  8
0
 10
-0.7427470115000006
 20
0.17935649325000003
 30
0.0
 11
-0.8116945415000005
 21
0.17596225275000002
 31
0.0
  0
LINE
  5
62
  8
0
 10
-0.8116945415000005
 20
0.17596225275000002
 30
0.0
 11
-1.0387752955000003
 21
0.16717906885
 31
0.0
  0
LINE
  5
63
  8
0
 10
-1.0387752955000003
 20
0.16717906885
 30
0.0
 11
-1.0937751465000005
 21
0.16098718435000003
 31
0.0
  0
LINE
  5
64
  8
0
 10
-1.0937751465000005
 20
0.16098718435000003
 30
0.0
 11
-1.2751776175000002
 21
0.14367577165
 31
0.0
  0
LINE
  5
65
  8
0
 10
-1.2751776175000002
 20
0.14367577165
 30
0.0
 11
-1.3165328825000002
 21
0.13571545545000002
 31
0.0
  0
LINE
  5
66
  8
0
 10
-1.3165328825000002
 20
0.13571545545000002
 30
0.0
 11
-1.4532917935000005
 21
0.11268362375000002
 31
0.0
  0
LINE
  5
67
  8
0
 10
-1.4532917935000005
 20
0.11268362375000002
 30
0.0
 11
-1.4826976835000005
 21
0.10361378665000001
 31
0.0
  0
LINE
  5
68
  8
0
 10
-1.4826976835000005
 20
0.10361378665000001
 30
0.0
 11
-1.5804289525000002
 21
0.07670400695000001
 31
0.0
  0
LINE
  5
69
  8
0
 10
-1.5804289525000002
 20
0.07670400695000001
 30
0.0
 11
-1.5995894055000002
 21
0.06637826575000003
 31
0.0
  0
LINE
  5
6A
  8
0
 10
-1.5995894055000002
 20
0.06637826575000003
 30
0.0
 11
-1.6640988635000005
 21
0.03496123675000001
 31
0.0
  0
LINE
  5
6B
  8
0
 10
-1.6640988635000005
 20
0.03496123675000001
 30
0.0
 11
-1.6715311855000001
 21
0.022376352550000034
 31
0.0
  0
LINE
  5
6C
  8
0
 10
-1.6715311855000001
 20
0.022376352550000034
 30
0.0
 11
-1.6979440815000002
 21
-0.01781481484999997
 31
0.0
  0
LINE
  5
6D
  8
0
 10
0.2
 20
0.2
 30
0.0
 11
0.2
 21
-0.2
 31
0.0
  0
LINE
  5
6E
  8
0
 10
0.2
 20
-0.2
 30
0.0
 11
-0.2
 21
-0.2
 31
0.0
  0
LINE
  5
6F
  8
0
 10
-0.2
 20
-0.2
 30
0.0
 11
-0.2
 21
0.2
 31
0.0
  0
LINE
  5
70
  8
0
 10
-0.2
 20
0.2
 30
0.0
 11
0.2
 21
0.2
 31
0.0
  0
ENDSEC
  0
EOF
