  0
SECTION
  2
HEADER
  9
$ACADVER
  1
AC1009
  9
$DWGCODEPAGE
  3
ANSI_1252
  9
$INSBASE
 10
0.0
 20
0.0
 30
0.0
  9
$EXTMIN
 10
-100
 20
-100
 30
-100
  9
$EXTMAX
 10
100
 20
100
 30
100
  9
$LIMMIN
 10
0.0
 20
0.0
  9
$LIMMAX
 10
420.0
 20
297.0
  9
$ORTHOMODE
 70
0
  9
$REGENMODE
 70
1
  9
$DRAGMODE
 70
2
  9
$FILLMODE
 70
1
  9
$QTEXTMODE
 70
0
  9
$MIRRTEXT
 70
1
  9
$OSMODE
 70
20583
  9
$LTSCALE
 40
1.0
  9
$ATTMODE
 70
1
  9
$TEXTSIZE
 40
2.5
  9
$TRACEWID
 40
1.0
  9
$TEXTSTYLE
  7
Standard
  9
$CLAYER
  8
0
  9
$CELTYPE
  6
ByLayer
  9
$CECOLOR
 62
256
  9
$DIMSCALE
 40
1.0
  9
$DIMASZ
 40
2.5
  9
$DIMEXO
 40
0.625
  9
$DIMDLI
 40
3.75
  9
$DIMRND
 40
0.0
  9
$DIMDLE
 40
0.0
  9
$DIMEXE
 40
1.25
  9
$DIMTP
 40
0.0
  9
$DIMTM
 40
0.0
  9
$DIMTXT
 40
2.5
  9
$DIMCEN
 40
2.5
  9
$DIMTSZ
 40
0.0
  9
$DIMTOL
 70
0
  9
$DIMLIM
 70
0
  9
$DIMTIH
 70
0
  9
$DIMTOH
 70
0
  9
$DIMSE1
 70
0
  9
$DIMSE2
 70
0
  9
$DIMTAD
 70
1
  9
$DIMZIN
 70
8
  9
$DIMBLK
  1

  9
$DIMASO
 70
1
  9
$DIMSHO
 70
1
  9
$DIMPOST
  1

  9
$DIMAPOST
  1

  9
$DIMALT
 70
0
  9
$DIMALTD
 70
3
  9
$DIMALTF
 40
0.03937007874
  9
$DIMLFAC
 40
1.0
  9
$DIMTOFL
 70
1
  9
$DIMTVP
 40
0.0
  9
$DIMTIX
 70
0
  9
$DIMSOXD
 70
0
  9
$DIMSAH
 70
0
  9
$DIMBLK1
  1

  9
$DIMBLK2
  1

  9
$DIMSTYLE
  2
ISO-25
  9
$DIMCLRD
 70
0
  9
$DIMCLRE
 70
0
  9
$DIMCLRT
 70
0
  9
$DIMTFAC
 40
1.0
  9
$DIMGAP
 40
0.625
  9
$COORDS
 70
1
  9
$ATTDIA
 70
0
  9
$ATTREQ
 70
1
  9
$HANDLING
 70
1
  9
$LUNITS
 70
2
  9
$LUPREC
 70
4
  9
$SKETCHINC
 40
1.0
  9
$FILLETRAD
 40
10.0
  9
$AUNITS
 70
0
  9
$AUPREC
 70
2
  9
$MENU
  1
.
  9
$ELEVATION
 40
0.0
  9
$PELEVATION
 40
0.0
  9
$THICKNESS
 40
0.0
  9
$LIMCHECK
 70
0
  9
$CHAMFERA
 40
0.0
  9
$CHAMFERB
 40
0.0
  9
$SKPOLY
 70
0
  9
$TDCREATE
 40
2459746.820277778
  9
$TDUPDATE
 40
2459746.820277778
  9
$TDINDWG
 40
0.0
  9
$TDUSRTIMER
 40
0.0
  9
$USRTIMER
 70
1
  9
$ANGBASE
 50
0.0
  9
$ANGDIR
 70
0
  9
$PDMODE
 70
0
  9
$PDSIZE
 40
0.0
  9
$PLINEWID
 40
0.0
  9
$SPLFRAME
 70
0
  9
$SPLINETYPE
 70
6
  9
$SPLINESEGS
 70
8
  9
$HANDSEED
  5
92
  9
$SURFTAB1
 70
6
  9
$SURFTAB2
 70
6
  9
$SURFTYPE
 70
6
  9
$SURFU
 70
6
  9
$SURFV
 70
6
  9
$UCSNAME
  2

  9
$UCSORG
 10
0.0
 20
0.0
 30
0.0
  9
$UCSXDIR
 10
1.0
 20
0.0
 30
0.0
  9
$UCSYDIR
 10
0.0
 20
1.0
 30
0.0
  9
$PUCSNAME
  2

  9
$PUCSORG
 10
0.0
 20
0.0
 30
0.0
  9
$PUCSXDIR
 10
1.0
 20
0.0
 30
0.0
  9
$PUCSYDIR
 10
0.0
 20
1.0
 30
0.0
  9
$USERI1
 70
0
  9
$USERI2
 70
0
  9
$USERI3
 70
0
  9
$USERI4
 70
0
  9
$USERI5
 70
0
  9
$USERR1
 40
0.0
  9
$USERR2
 40
0.0
  9
$USERR3
 40
0.0
  9
$USERR4
 40
0.0
  9
$USERR5
 40
0.0
  9
$WORLDVIEW
 70
1
  9
$SHADEDGE
 70
3
  9
$SHADEDIF
 70
70
  9
$TILEMODE
 70
1
  9
$MAXACTVP
 70
64
  9
$PLIMCHECK
 70
0
  9
$PEXTMIN
 10
1e+20
 20
1e+20
 30
1e+20
  9
$PEXTMAX
 10
-1e+20
 20
-1e+20
 30
-1e+20
  9
$PLIMMIN
 10
0.0
 20
0.0
  9
$PLIMMAX
 10
420.0
 20
297.0
  9
$UNITMODE
 70
0
  9
$VISRETAIN
 70
1
  9
$PLINEGEN
 70
0
  9
$PSLTSCALE
 70
1
  0
ENDSEC
  0
SECTION
  2
TABLES
  0
TABLE
  2
VPORT
 70
1
  0
VPORT
  5
23
  2
*Active
 70
0
 10
0.0
 20
0.0
 11
1.0
 21
1.0
 12
70.0
 22
50.0
 13
0.0
 23
0.0
 14
0.5
 24
0.5
 15
0.5
 25
0.5
 16
0.0
 26
0.0
 36
1.0
 17
0.0
 27
0.0
 37
0.0
 40
1.0
 41
1.34
 42
50.0
 43
0.0
 44
0.0
 50
0.0
 51
0.0
 71
0
 72
1000
 73
1
 74
3
 75
0
 76
0
 77
0
 78
0
  0
ENDTAB
  0
TABLE
  2
LTYPE
 70
3
  0
LTYPE
  5
24
  2
ByBlock
 70
0
  3

 72
65
 73
0
 40
0.0
  0
LTYPE
  5
25
  2
ByLayer
 70
0
  3

 72
65
 73
0
 40
0.0
  0
LTYPE
  5
26
  2
Continuous
 70
0
  3

 72
65
 73
0
 40
0.0
  0
ENDTAB
  0
TABLE
  2
LAYER
 70
2
  0
LAYER
  5
27
  2
0
 70
0
 62
7
  6
Continuous
  0
LAYER
  5
28
  2
Defpoints
 70
0
 62
7
  6
Continuous
  0
ENDTAB
  0
TABLE
  2
STYLE
 70
1
  0
STYLE
  5
29
  2
Standard
 70
0
 40
0.0
 41
1.0
 50
0.0
 71
0
 42
2.5
  3
txt
  4

  0
ENDTAB
  0
TABLE
  2
VIEW
 70
0
  0
ENDTAB
  0
TABLE
  2
UCS
 70
0
  0
ENDTAB
  0
TABLE
  2
APPID
 70
2
  0
APPID
  5
2A
  2
ACAD
 70
0
  0
APPID
  5
91
  2
HATCHBACKGROUNDCOLOR
 70
0
  0
ENDTAB
  0
TABLE
  2
DIMSTYLE
 70
1
  0
DIMSTYLE
105
2B
  2
Standard
 70
0
  3

  4

  5

  6

  7

 40
1.0
 41
2.5
 42
0.625
 43
3.75
 44
1.25
 45
0.0
 46
0.0
 47
0.0
 48
0.0
140
2.5
141
2.5
142
0.0
143
0.03937007874
144
1.0
145
0.0
146
1.0
147
0.625
 71
0
 72
0
 73
0
 74
0
 75
0
 76
0
 77
1
 78
8
170
0
171
3
172
1
173
0
174
0
175
0
176
0
177
0
178
0
  0
ENDTAB
  0
ENDSEC
  0
SECTION
  2
BLOCKS
  0
BLOCK
  5
18
  8
0
  2
$Model_Space
 70
0
 10
0.0
 20
0.0
 30
0.0
  3
$Model_Space
  1

  0
ENDBLK
  5
19
  8
0
  0
BLOCK
  5
1C
  8
0
  2
$Paper_Space
 70
0
 10
0.0
 20
0.0
 30
0.0
  3
$Paper_Space
  1

  0
ENDBLK
  5
1D
  8
0
  0
ENDSEC
  0
SECTION
  2
ENTITIES
  0
LINE
  5
2D
  8
0
 10
-0.1555460846
 20
-0.002354495860499989
 30
-3.126456843103206
 11
-0.15554960439999999
 21
-0.02545868266049997
 31
-2.979361819292764
  0
LINE
  5
2E
  8
0
 10
-0.15554960439999999
 20
-0.02545868266049997
 30
-2.979361819292764
 11
-0.1553503653
 21
-0.03044875586049997
 31
-2.9480456671027437
  0
LINE
  5
2F
  8
0
 10
-0.1553503653
 20
-0.03044875586049997
 30
-2.9480456671027437
 11
-0.1543987175
 21
-0.05357124096049998
 31
-2.807622498765014
  0
LINE
  5
30
  8
0
 10
-0.1543987175
 20
-0.05357124096049998
 30
-2.807622498765014
 11
-0.1538737223
 21
-0.05852894246049997
 31
-2.7781223998830917
  0
LINE
  5
31
  8
0
 10
-0.1538737223
 20
-0.05852894246049997
 30
-2.7781223998830917
 11
-0.1512817343
 21
-0.0815128403605
 31
-2.6473774512268577
  0
LINE
  5
32
  8
0
 10
-0.1512817343
 20
-0.0815128403605
 30
-2.6473774512268577
 11
-0.1503006324
 21
-0.08637027496049998
 31
-2.6200213650594715
  0
LINE
  5
33
  8
0
 10
-0.1503006324
 20
-0.08637027496049998
 30
-2.6200213650594715
 11
-0.1453552912
 21
-0.10884019376049997
 31
-2.49886813472565
  0
LINE
  5
34
  8
0
 10
-0.1453552912
 20
-0.10884019376049997
 30
-2.49886813472565
 11
-0.1438154432
 21
-0.11347205916049999
 31
-2.4735879348969547
  0
LINE
  5
35
  8
0
 10
-0.1438154432
 20
-0.11347205916049999
 30
-2.4735879348969547
 11
-0.1359566077
 21
-0.13473824696049996
 31
-2.360695323848879
  0
LINE
  5
36
  8
0
 10
-0.1359566077
 20
-0.13473824696049996
 30
-2.360695323848879
 11
-0.1338435026
 21
-0.13898936486049998
 31
-2.33733586712408
  0
LINE
  5
37
  8
0
 10
-0.1338435026
 20
-0.13898936486049998
 30
-2.33733586712408
 11
-0.1230028218
 21
-0.1582016572205
 31
-2.2316704661988136
  0
LINE
  5
38
  8
0
 10
-0.1230028218
 20
-0.1582016572205
 30
-2.2316704661988136
 11
-0.12041136549999999
 21
-0.16197081240049999
 31
-2.2100690375850105
  0
LINE
  5
39
  8
0
 10
-0.12041136549999999
 20
-0.16197081240049999
 30
-2.2100690375850105
 11
-0.1071312147
 21
-0.1785809360605
 31
-2.1111443992461307
  0
LINE
  5
3A
  8
0
 10
-0.1071312147
 20
-0.1785809360605
 30
-2.1111443992461307
 11
-0.10419291359999999
 21
-0.1818747801605
 31
-2.091037937324245
  0
LINE
  5
3B
  8
0
 10
-0.10419291359999999
 20
-0.1818747801605
 30
-2.091037937324245
 11
-0.08923082783
 21
-0.1959350695005
 31
-1.9981402532731665
  0
LINE
  5
3C
  8
0
 10
-0.08923082783
 20
-0.1959350695005
 30
-1.9981402532731665
 11
-0.08602819281
 21
-0.19882339407049998
 31
-1.9791594287919296
  0
LINE
  5
3D
  8
0
 10
-0.08602819281
 20
-0.19882339407049998
 30
-1.9791594287919296
 11
-0.06989282034
 21
-0.2107458714305
 31
-1.8910266371805413
  0
LINE
  5
3E
  8
0
 10
-0.06989282034
 20
-0.2107458714305
 30
-1.8910266371805413
 11
-0.06641285575
 21
-0.21328161418049998
 31
-1.8726657574858787
  0
LINE
  5
3F
  8
0
 10
-0.06641285575
 20
-0.21328161418049998
 30
-1.8726657574858787
 11
-0.04915766914
 21
-0.22343038137049998
 31
-1.7873593758535313
  0
LINE
  5
40
  8
0
 10
-0.04915766914
 20
-0.22343038137049998
 30
-1.7873593758535313
 11
-0.045274738689999997
 21
-0.2255829482505
 31
-1.76886589974605
  0
LINE
  5
41
  8
0
 10
-0.045274738689999997
 20
-0.2255829482505
 30
-1.76886589974605
 11
-0.02646045201
 21
-0.23400340426049998
 31
-1.683395248285627
  0
LINE
  5
42
  8
0
 10
-0.02646045201
 20
-0.23400340426049998
 30
-1.683395248285627
 11
-0.0218015843
 21
-0.2351501916805
 31
-1.6632454850307012
  0
LINE
  5
43
  8
0
 10
-0.0218015843
 20
-0.2351501916805
 30
-1.6632454850307012
 11
-3.0000000140334437e-09
 21
-0.2395972519395
 31
-1.5707963393159083
  0
LINE
  5
44
  8
0
 10
-3.0000000140334437e-09
 20
-0.2395972519395
 30
-1.5707963393159083
 11
0.021801578300000003
 21
-0.2351501916805
 31
-1.4783471938572423
  0
LINE
  5
45
  8
0
 10
0.021801578300000003
 20
-0.2351501916805
 30
-1.4783471938572423
 11
0.026460446010000003
 21
-0.23400340426049998
 31
-1.4581974306211052
  0
LINE
  5
46
  8
0
 10
0.026460446010000003
 20
-0.23400340426049998
 30
-1.4581974306211052
 11
0.04527473269
 21
-0.2255829482505
 31
-1.3727267794116016
  0
LINE
  5
47
  8
0
 10
0.04527473269
 20
-0.2255829482505
 30
-1.3727267794116016
 11
0.04915766314
 21
-0.22343038137049998
 31
-1.3542333033503902
  0
LINE
  5
48
  8
0
 10
0.04915766314
 20
-0.22343038137049998
 30
-1.3542333033503902
 11
0.06641284975
 21
-0.21328161418049998
 31
-1.2689269217491455
  0
LINE
  5
49
  8
0
 10
0.06641284975
 20
-0.21328161418049998
 30
-1.2689269217491455
 11
0.06989281434
 21
-0.2107458714305
 31
-1.2505660420584463
  0
LINE
  5
4A
  8
0
 10
0.06989281434
 20
-0.2107458714305
 30
-1.2505660420584463
 11
0.08602818681
 21
-0.19882339407049998
 31
-1.1624332502165704
  0
LINE
  5
4B
  8
0
 10
0.08602818681
 20
-0.19882339407049998
 30
-1.1624332502165704
 11
0.08923082183
 21
-0.1959350695005
 31
-1.143452425678917
  0
LINE
  5
4C
  8
0
 10
0.08923082183
 20
-0.1959350695005
 30
-1.143452425678917
 11
0.1041929076
 21
-0.1818747801605
 31
-1.0505547411035738
  0
LINE
  5
4D
  8
0
 10
0.1041929076
 20
-0.1818747801605
 30
-1.0505547411035738
 11
0.10713120870000001
 21
-0.1785809360705
 31
-1.03044827907505
  0
LINE
  5
4E
  8
0
 10
0.10713120870000001
 20
-0.1785809360705
 30
-1.03044827907505
 11
0.1204113595
 21
-0.16197081240049999
 31
-0.9315236398629413
  0
LINE
  5
4F
  8
0
 10
0.1204113595
 20
-0.16197081240049999
 30
-0.9315236398629413
 11
0.1230028158
 21
-0.1582016572205
 31
-0.9099222110281815
  0
LINE
  5
50
  8
0
 10
0.1230028158
 20
-0.1582016572205
 30
-0.9099222110281815
 11
0.1338434966
 21
-0.1389893647605
 31
-0.8042568085045257
  0
LINE
  5
51
  8
0
 10
0.1338434966
 20
-0.1389893647605
 30
-0.8042568085045257
 11
0.1359566017
 21
-0.13473824696049996
 31
-0.7808973518058846
  0
LINE
  5
52
  8
0
 10
0.1359566017
 20
-0.13473824696049996
 30
-0.7808973518058846
 11
0.1438154377
 21
-0.11347205986049999
 31
-0.668004740289778
  0
LINE
  5
53
  8
0
 10
0.1438154377
 20
-0.11347205986049999
 30
-0.668004740289778
 11
0.1453552858
 21
-0.10884019466049999
 31
-0.6427245406555314
  0
LINE
  5
54
  8
0
 10
0.1453552858
 20
-0.10884019466049999
 30
-0.6427245406555314
 11
0.15030062660000001
 21
-0.08637027516049997
 31
-0.5215713062010668
  0
LINE
  5
55
  8
0
 10
0.15030062660000001
 20
-0.08637027516049997
 30
-0.5215713062010668
 11
0.1512817283
 21
-0.0815128403605
 31
-0.49421521892469195
  0
LINE
  5
56
  8
0
 10
0.1512817283
 20
-0.0815128403605
 30
-0.49421521892469195
 11
0.153873713
 21
-0.058528938060499996
 31
-0.36347024880959056
  0
LINE
  5
57
  8
0
 10
0.153873713
 20
-0.058528938060499996
 30
-0.36347024880959056
 11
0.1543987075
 21
-0.053571235360499986
 31
-0.33397014250974033
  0
LINE
  5
58
  8
0
 10
0.1543987075
 20
-0.053571235360499986
 30
-0.33397014250974033
 11
0.1553503634
 21
-0.03044876146049999
 31
-0.1935470235095054
  0
LINE
  5
59
  8
0
 10
0.1553503634
 20
-0.03044876146049999
 30
-0.1935470235095054
 11
0.1555496044
 21
-0.02545869096049999
 31
-0.1622308862641384
  0
LINE
  5
5A
  8
0
 10
0.1555496044
 20
-0.02545869096049999
 30
-0.1622308862641384
 11
0.1555460797
 21
-0.002354497360499974
 31
-0.01513582060455671
  0
LINE
  5
5B
  8
0
 10
0.1555460797
 20
-0.002354497360499974
 30
-0.01513582060455671
 11
0.1555450692
 21
0.0026398359395000404
 31
0.01696988881800038
  0
LINE
  5
5C
  8
0
 10
0.1555450692
 20
0.0026398359395000404
 30
0.01696988881800038
 11
0.1554195343
 21
0.007621530239499991
 31
0.04899917977993746
  0
LINE
  5
5D
  8
0
 10
0.1554195343
 20
0.007621530239499991
 30
0.04899917977993746
 11
0.1548861464
 21
0.030652646439500025
 31
0.19537972888418947
  0
LINE
  5
5E
  8
0
 10
0.1548861464
 20
0.030652646439500025
 30
0.19537972888418947
 11
0.154567365
 21
0.03561586443950002
 31
0.22647002772154165
  0
LINE
  5
5F
  8
0
 10
0.154567365
 20
0.03561586443950002
 30
0.22647002772154165
 11
0.1531143135
 21
0.05851269193950001
 31
0.36502470623391686
  0
LINE
  5
60
  8
0
 10
0.1531143135
 20
0.05851269193950001
 30
0.36502470623391686
 11
0.1524822298
 21
0.06343050383950002
 31
0.3942111765221106
  0
LINE
  5
61
  8
0
 10
0.1524822298
 20
0.06343050383950002
 30
0.3942111765221106
 11
0.1494593593
 21
0.08605044933950004
 31
0.5223938386953121
  0
LINE
  5
62
  8
0
 10
0.1494593593
 20
0.08605044933950004
 30
0.5223938386953121
 11
0.1483875592
 21
0.09085627903950003
 31
0.5494075854585819
  0
LINE
  5
63
  8
0
 10
0.1483875592
 20
0.09085627903950003
 30
0.5494075854585819
 11
0.1431145891
 21
0.11284691013950002
 31
0.6676938579731722
  0
LINE
  5
64
  8
0
 10
0.1431145891
 20
0.11284691013950002
 30
0.6676938579731722
 11
0.1415030218
 21
0.1174169600395
 31
0.6926399973925919
  0
LINE
  5
65
  8
0
 10
0.1415030218
 20
0.1174169600395
 30
0.6926399973925919
 11
0.1334462328
 21
0.13812116893950002
 31
0.8026111072017357
  0
LINE
  5
66
  8
0
 10
0.1334462328
 20
0.13812116893950002
 30
0.8026111072017357
 11
0.131283054
 21
0.14230193283950002
 31
0.8256522967742989
  0
LINE
  5
67
  8
0
 10
0.131283054
 20
0.14230193283950002
 30
0.8256522967742989
 11
0.120391862
 21
0.1609082881395
 31
0.9284470948336813
  0
LINE
  5
68
  8
0
 10
0.120391862
 20
0.1609082881395
 30
0.9284470948336813
 11
0.11777509480000001
 21
0.16460204123950004
 31
0.9497338688901177
  0
LINE
  5
69
  8
0
 10
0.11777509480000001
 20
0.16460204123950004
 30
0.9497338688901177
 11
0.10459738140000001
 21
0.1806037722395
 31
1.0458458748023585
  0
LINE
  5
6A
  8
0
 10
0.10459738140000001
 20
0.1806037722395
 30
1.0458458748023585
 11
0.1016607696
 21
0.18382348963950004
 31
1.0656261930555198
  0
LINE
  5
6B
  8
0
 10
0.1016607696
 20
0.18382348963950004
 30
1.0656261930555198
 11
0.08694793146
 21
0.1973126163395
 31
1.1557359843664723
  0
LINE
  5
6C
  8
0
 10
0.08694793146
 20
0.1973126163395
 30
1.1557359843664723
 11
0.08377369844
 21
0.20013632553950003
 31
1.1743733183099736
  0
LINE
  5
6D
  8
0
 10
0.08377369844
 20
0.20013632553950003
 30
1.1743733183099736
 11
0.06802010537
 21
0.21156122043950001
 31
1.2597197146993298
  0
LINE
  5
6E
  8
0
 10
0.06802010537
 20
0.21156122043950001
 30
1.2597197146993298
 11
0.06459098142
 21
0.2140500186395
 31
1.2777288574646124
  0
LINE
  5
6F
  8
0
 10
0.06459098142
 20
0.2140500186395
 30
1.2777288574646124
 11
0.0478279902
 21
0.2238073948395
 31
1.360261565505504
  0
LINE
  5
70
  8
0
 10
0.0478279902
 20
0.2238073948395
 30
1.360261565505504
 11
0.04400999807
 21
0.2259370008395
 31
1.3784165172975875
  0
LINE
  5
71
  8
0
 10
0.04400999807
 20
0.2259370008395
 30
1.3784165172975875
 11
0.025770182760000003
 21
0.2341003071395
 31
1.4611559805033143
  0
LINE
  5
72
  8
0
 10
0.025770182760000003
 20
0.2341003071395
 30
1.4611559805033143
 11
0.021176229730000003
 21
0.2352446268395
 31
1.4810203861879814
  0
LINE
  5
73
  8
0
 10
0.021176229730000003
 20
0.2352446268395
 30
1.4810203861879814
 11
-3.0000003592434155e-09
 21
0.23959725193950002
 31
1.57079633931591
  0
LINE
  5
74
  8
0
 10
-3.0000003592434155e-09
 20
0.23959725193950002
 30
1.57079633931591
 11
-0.02117623573
 21
0.2352446268395
 31
1.660572292702162
  0
LINE
  5
75
  8
0
 10
-0.02117623573
 20
0.2352446268395
 30
1.660572292702162
 11
-0.02577018876
 21
0.2341003071395
 31
1.6804366984096515
  0
LINE
  5
76
  8
0
 10
-0.02577018876
 20
0.2341003071395
 30
1.6804366984096515
 11
-0.04401000407
 21
0.2259370008395
 31
1.7631761618775061
  0
LINE
  5
77
  8
0
 10
-0.04401000407
 20
0.2259370008395
 30
1.7631761618775061
 11
-0.0478279962
 21
0.2238073948395
 31
1.781331113722213
  0
LINE
  5
78
  8
0
 10
-0.0478279962
 20
0.2238073948395
 30
1.781331113722213
 11
-0.06459098742
 21
0.2140500186395
 31
1.8638638218166268
  0
LINE
  5
79
  8
0
 10
-0.06459098742
 20
0.2140500186395
 30
1.8638638218166268
 11
-0.06802011137
 21
0.21156122043950001
 31
1.8818729645940229
  0
LINE
  5
7A
  8
0
 10
-0.06802011137
 20
0.21156122043950001
 30
1.8818729645940229
 11
-0.08377370444
 21
0.20013632553950003
 31
1.9672193607897428
  0
LINE
  5
7B
  8
0
 10
-0.08377370444
 20
0.20013632553950003
 30
1.9672193607897428
 11
-0.08694793746
 21
0.1973126163395
 31
1.9858566946872782
  0
LINE
  5
7C
  8
0
 10
-0.08694793746
 20
0.1973126163395
 30
1.9858566946872782
 11
-0.1016607756
 21
0.18382348963950004
 31
2.0759664855295425
  0
LINE
  5
7D
  8
0
 10
-0.1016607756
 20
0.18382348963950004
 30
2.0759664855295425
 11
-0.1045973874
 21
0.1806037722395
 31
2.0957468036649383
  0
LINE
  5
7E
  8
0
 10
-0.1045973874
 20
0.1806037722395
 30
2.0957468036649383
 11
-0.1177751008
 21
0.16460204123950004
 31
2.1918588088084743
  0
LINE
  5
7F
  8
0
 10
-0.1177751008
 20
0.16460204123950004
 30
2.1918588088084743
 11
-0.120391868
 21
0.1609082881395
 31
2.213145582661857
  0
LINE
  5
80
  8
0
 10
-0.120391868
 20
0.1609082881395
 30
2.213145582661857
 11
-0.13128306
 21
0.14230193293950003
 31
2.3159403792426376
  0
LINE
  5
81
  8
0
 10
-0.13128306
 20
0.14230193293950003
 30
2.3159403792426376
 11
-0.1334462388
 21
0.13812116913950004
 31
2.338981568132128
  0
LINE
  5
82
  8
0
 10
-0.1334462388
 20
0.13812116913950004
 30
2.338981568132128
 11
-0.1415030274
 21
0.11741695893950002
 31
2.4489526802490187
  0
LINE
  5
83
  8
0
 10
-0.1415030274
 20
0.11741695893950002
 30
2.4489526802490187
 11
-0.1431145946
 21
0.11284690873950001
 31
2.4738988203340226
  0
LINE
  5
84
  8
0
 10
-0.1431145946
 20
0.11284690873950001
 30
2.4738988203340226
 11
-0.1483875651
 21
0.0908562787395
 31
2.5921850873085073
  0
LINE
  5
85
  8
0
 10
-0.1483875651
 20
0.0908562787395
 30
2.5921850873085073
 11
-0.1494593653
 21
0.08605044933950004
 31
2.619198832253406
  0
LINE
  5
86
  8
0
 10
-0.1494593653
 20
0.08605044933950004
 30
2.619198832253406
 11
-0.1524822384
 21
0.06343051113950002
 31
2.747381456256195
  0
LINE
  5
87
  8
0
 10
-0.1524822384
 20
0.06343051113950002
 30
2.747381456256195
 11
-0.1531143227
 21
0.058512700939500034
 31
2.776567916102322
  0
LINE
  5
88
  8
0
 10
-0.1531143227
 20
0.058512700939500034
 30
2.776567916102322
 11
-0.1545673678
 21
0.03561585523950003
 31
2.9151226863519866
  0
LINE
  5
89
  8
0
 10
-0.1545673678
 20
0.03561585523950003
 30
2.9151226863519866
 11
-0.1548861477
 21
0.030652633039500027
 31
2.94621300955847
  0
LINE
  5
8A
  8
0
 10
-0.1548861477
 20
0.030652633039500027
 30
2.94621300955847
 11
-0.1554195393
 21
0.0076215276394999976
 31
3.0925934920724667
  0
LINE
  5
8B
  8
0
 10
-0.1554195393
 20
0.0076215276394999976
 30
3.0925934920724667
 11
-0.1555450752
 21
0.0026398359395000404
 31
3.124622765426264
  0
LINE
  5
8C
  8
0
 10
-0.1555450752
 20
0.0026398359395000404
 30
3.124622765426264
 11
-0.1555460846
 21
-0.002354495860499989
 31
-3.126456843103206
  0
LINE
  5
8D
  8
0
 10
0.2
 20
0.2
 30
0.0
 11
0.2
 21
-0.2
 31
0.0
  0
LINE
  5
8E
  8
0
 10
0.2
 20
-0.2
 30
0.0
 11
-0.2
 21
-0.2
 31
0.0
  0
LINE
  5
8F
  8
0
 10
-0.2
 20
-0.2
 30
0.0
 11
-0.2
 21
0.2
 31
0.0
  0
LINE
  5
90
  8
0
 10
-0.2
 20
0.2
 30
0.0
 11
0.2
 21
0.2
 31
0.0
  0
ENDSEC
  0
EOF
