  0
SECTION
  2
HEADER
  9
$ACADVER
  1
AC1024
  9
$ACADMAINTVER
 70
6
  9
$DWGCODEPAGE
  3
ANSI_1252
  9
$LASTSAVEDBY
  1
ezdxf
  9
$INSBASE
 10
0.0
 20
0.0
 30
0.0
  9
$EXTMIN
 10
-100
 20
-100
 30
-100
  9
$EXTMAX
 10
100
 20
100
 30
100
  9
$LIMMIN
 10
0.0
 20
0.0
  9
$LIMMAX
 10
420.0
 20
297.0
  9
$ORTHOMODE
 70
0
  9
$REGENMODE
 70
1
  9
$FILLMODE
 70
1
  9
$QTEXTMODE
 70
0
  9
$MIRRTEXT
 70
1
  9
$LTSCALE
 40
1.0
  9
$ATTMODE
 70
1
  9
$TEXTSIZE
 40
2.5
  9
$TRACEWID
 40
1.0
  9
$TEXTSTYLE
  7
Standard
  9
$CLAYER
  8
0
  9
$CELTYPE
  6
ByLayer
  9
$CECOLOR
 62
256
  9
$CELTSCALE
 40
1.0
  9
$DISPSILH
 70
0
  9
$DIMSCALE
 40
1.0
  9
$DIMASZ
 40
2.5
  9
$DIMEXO
 40
0.625
  9
$DIMDLI
 40
3.75
  9
$DIMRND
 40
0.0
  9
$DIMDLE
 40
0.0
  9
$DIMEXE
 40
1.25
  9
$DIMTP
 40
0.0
  9
$DIMTM
 40
0.0
  9
$DIMTXT
 40
2.5
  9
$DIMCEN
 40
2.5
  9
$DIMTSZ
 40
0.0
  9
$DIMTOL
 70
0
  9
$DIMLIM
 70
0
  9
$DIMTIH
 70
0
  9
$DIMTOH
 70
0
  9
$DIMSE1
 70
0
  9
$DIMSE2
 70
0
  9
$DIMTAD
 70
1
  9
$DIMZIN
 70
8
  9
$DIMBLK
  1

  9
$DIMASO
 70
1
  9
$DIMSHO
 70
1
  9
$DIMPOST
  1

  9
$DIMAPOST
  1

  9
$DIMALT
 70
0
  9
$DIMALTD
 70
3
  9
$DIMALTF
 40
0.03937007874
  9
$DIMLFAC
 40
1.0
  9
$DIMTOFL
 70
1
  9
$DIMTVP
 40
0.0
  9
$DIMTIX
 70
0
  9
$DIMSOXD
 70
0
  9
$DIMSAH
 70
0
  9
$DIMBLK1
  1

  9
$DIMBLK2
  1

  9
$DIMSTYLE
  2
ISO-25
  9
$DIMCLRD
 70
0
  9
$DIMCLRE
 70
0
  9
$DIMCLRT
 70
0
  9
$DIMTFAC
 40
1.0
  9
$DIMGAP
 40
0.625
  9
$DIMJUST
 70
0
  9
$DIMSD1
 70
0
  9
$DIMSD2
 70
0
  9
$DIMTOLJ
 70
0
  9
$DIMTZIN
 70
8
  9
$DIMALTZ
 70
0
  9
$DIMALTTZ
 70
0
  9
$DIMUPT
 70
0
  9
$DIMDEC
 70
2
  9
$DIMTDEC
 70
2
  9
$DIMALTU
 70
2
  9
$DIMALTTD
 70
3
  9
$DIMTXSTY
  7
Standard
  9
$DIMAUNIT
 70
0
  9
$DIMADEC
 70
0
  9
$DIMALTRND
 40
0.0
  9
$DIMAZIN
 70
0
  9
$DIMDSEP
 70
44
  9
$DIMATFIT
 70
3
  9
$DIMFRAC
 70
0
  9
$DIMLDRBLK
  1

  9
$DIMLUNIT
 70
2
  9
$DIMLWD
 70
-2
  9
$DIMLWE
 70
-2
  9
$DIMTMOVE
 70
0
  9
$DIMFXL
 40
1.0
  9
$DIMFXLON
 70
0
  9
$DIMJOGANG
 40
0.785398163397
  9
$DIMTFILL
 70
0
  9
$DIMTFILLCLR
 70
0
  9
$DIMARCSYM
 70
0
  9
$DIMLTYPE
  6

  9
$DIMLTEX1
  6

  9
$DIMLTEX2
  6

  9
$DIMTXTDIRECTION
 70
0
  9
$LUNITS
 70
2
  9
$LUPREC
 70
4
  9
$SKETCHINC
 40
1.0
  9
$FILLETRAD
 40
10.0
  9
$AUNITS
 70
0
  9
$AUPREC
 70
2
  9
$MENU
  1
.
  9
$ELEVATION
 40
0.0
  9
$PELEVATION
 40
0.0
  9
$THICKNESS
 40
0.0
  9
$LIMCHECK
 70
0
  9
$CHAMFERA
 40
0.0
  9
$CHAMFERB
 40
0.0
  9
$CHAMFERC
 40
0.0
  9
$CHAMFERD
 40
0.0
  9
$SKPOLY
 70
0
  9
$TDCREATE
 40
2459744.44125
  9
$TDUCREATE
 40
2458532.153996898
  9
$TDUPDATE
 40
2459744.44125
  9
$TDUUPDATE
 40
2458532.1544311
  9
$TDINDWG
 40
0.0
  9
$TDUSRTIMER
 40
0.0
  9
$USRTIMER
 70
1
  9
$ANGBASE
 50
0.0
  9
$ANGDIR
 70
0
  9
$PDMODE
 70
0
  9
$PDSIZE
 40
0.0
  9
$PLINEWID
 40
0.0
  9
$SPLFRAME
 70
0
  9
$SPLINETYPE
 70
6
  9
$SPLINESEGS
 70
8
  9
$HANDSEED
  5
112
  9
$SURFTAB1
 70
6
  9
$SURFTAB2
 70
6
  9
$SURFTYPE
 70
6
  9
$SURFU
 70
6
  9
$SURFV
 70
6
  9
$UCSBASE
  2

  9
$UCSNAME
  2

  9
$UCSORG
 10
0.0
 20
0.0
 30
0.0
  9
$UCSXDIR
 10
1.0
 20
0.0
 30
0.0
  9
$UCSYDIR
 10
0.0
 20
1.0
 30
0.0
  9
$UCSORTHOREF
  2

  9
$UCSORTHOVIEW
 70
0
  9
$UCSORGTOP
 10
0.0
 20
0.0
 30
0.0
  9
$UCSORGBOTTOM
 10
0.0
 20
0.0
 30
0.0
  9
$UCSORGLEFT
 10
0.0
 20
0.0
 30
0.0
  9
$UCSORGRIGHT
 10
0.0
 20
0.0
 30
0.0
  9
$UCSORGFRONT
 10
0.0
 20
0.0
 30
0.0
  9
$UCSORGBACK
 10
0.0
 20
0.0
 30
0.0
  9
$PUCSBASE
  2

  9
$PUCSNAME
  2

  9
$PUCSORG
 10
0.0
 20
0.0
 30
0.0
  9
$PUCSXDIR
 10
1.0
 20
0.0
 30
0.0
  9
$PUCSYDIR
 10
0.0
 20
1.0
 30
0.0
  9
$PUCSORTHOREF
  2

  9
$PUCSORTHOVIEW
 70
0
  9
$PUCSORGTOP
 10
0.0
 20
0.0
 30
0.0
  9
$PUCSORGBOTTOM
 10
0.0
 20
0.0
 30
0.0
  9
$PUCSORGLEFT
 10
0.0
 20
0.0
 30
0.0
  9
$PUCSORGRIGHT
 10
0.0
 20
0.0
 30
0.0
  9
$PUCSORGFRONT
 10
0.0
 20
0.0
 30
0.0
  9
$PUCSORGBACK
 10
0.0
 20
0.0
 30
0.0
  9
$USERI1
 70
0
  9
$USERI2
 70
0
  9
$USERI3
 70
0
  9
$USERI4
 70
0
  9
$USERI5
 70
0
  9
$USERR1
 40
0.0
  9
$USERR2
 40
0.0
  9
$USERR3
 40
0.0
  9
$USERR4
 40
0.0
  9
$USERR5
 40
0.0
  9
$WORLDVIEW
 70
1
  9
$SHADEDGE
 70
3
  9
$SHADEDIF
 70
70
  9
$TILEMODE
 70
1
  9
$MAXACTVP
 70
64
  9
$PINSBASE
 10
0.0
 20
0.0
 30
0.0
  9
$PLIMCHECK
 70
0
  9
$PEXTMIN
 10
1e+20
 20
1e+20
 30
1e+20
  9
$PEXTMAX
 10
-1e+20
 20
-1e+20
 30
-1e+20
  9
$PLIMMIN
 10
0.0
 20
0.0
  9
$PLIMMAX
 10
420.0
 20
297.0
  9
$UNITMODE
 70
0
  9
$VISRETAIN
 70
1
  9
$PLINEGEN
 70
0
  9
$PSLTSCALE
 70
1
  9
$TREEDEPTH
 70
3020
  9
$CMLSTYLE
  2
Standard
  9
$CMLJUST
 70
0
  9
$CMLSCALE
 40
20.0
  9
$PROXYGRAPHICS
 70
1
  9
$MEASUREMENT
 70
1
  9
$CELWEIGHT
370
-1
  9
$ENDCAPS
280
0
  9
$JOINSTYLE
280
0
  9
$LWDISPLAY
290
0
  9
$INSUNITS
 70
6
  9
$HYPERLINKBASE
  1

  9
$STYLESHEET
  1

  9
$XEDIT
290
1
  9
$CEPSNTYPE
380
0
  9
$PSTYLEMODE
290
1
  9
$FINGERPRINTGUID
  2
C4ED8890-EAF3-11EC-90DD-088FC3043410
  9
$VERSIONGUID
  2
C4EEE81E-EAF3-11EC-9B5D-088FC3043410
  9
$EXTNAMES
290
1
  9
$PSVPSCALE
 40
0.0
  9
$OLESTARTUP
290
0
  9
$SORTENTS
280
127
  9
$INDEXCTL
280
0
  9
$HIDETEXT
280
1
  9
$XCLIPFRAME
280
2
  9
$HALOGAP
280
0
  9
$OBSCOLOR
 70
257
  9
$OBSLTYPE
280
0
  9
$INTERSECTIONDISPLAY
280
0
  9
$INTERSECTIONCOLOR
 70
257
  9
$DIMASSOC
280
2
  9
$PROJECTNAME
  1

  9
$CAMERADISPLAY
290
0
  9
$LENSLENGTH
 40
50.0
  9
$CAMERAHEIGHT
 40
0.0
  9
$STEPSPERSEC
 40
24.0
  9
$STEPSIZE
 40
100.0
  9
$3DDWFPREC
 40
2.0
  9
$PSOLWIDTH
 40
0.005
  9
$PSOLHEIGHT
 40
0.08
  9
$LOFTANG1
 40
1.570796326795
  9
$LOFTANG2
 40
1.570796326795
  9
$LOFTMAG1
 40
0.0
  9
$LOFTMAG2
 40
0.0
  9
$LOFTPARAM
 70
7
  9
$LOFTNORMALS
280
1
  9
$LATITUDE
 40
37.795
  9
$LONGITUDE
 40
-122.394
  9
$NORTHDIRECTION
 40
0.0
  9
$TIMEZONE
 70
-8000
  9
$LIGHTGLYPHDISPLAY
280
1
  9
$TILEMODELIGHTSYNCH
280
1
  9
$CMATERIAL
347
20
  9
$SOLIDHIST
280
0
  9
$SHOWHIST
280
1
  9
$DWFFRAME
280
2
  9
$DGNFRAME
280
2
  9
$REALWORLDSCALE
290
1
  9
$INTERFERECOLOR
 62
256
  9
$CSHADOW
280
0
  9
$SHADOWPLANELOCATION
 40
0.0
  0
ENDSEC
  0
SECTION
  2
CLASSES
  0
CLASS
  1
ACDBDICTIONARYWDFLT
  2
AcDbDictionaryWithDefault
  3
ObjectDBX Classes
 90
0
 91
0
280
0
281
0
  0
CLASS
  1
SUN
  2
AcDbSun
  3
SCENEOE
 90
1153
 91
0
280
0
281
0
  0
CLASS
  1
VISUALSTYLE
  2
AcDbVisualStyle
  3
ObjectDBX Classes
 90
4095
 91
0
280
0
281
0
  0
CLASS
  1
MATERIAL
  2
AcDbMaterial
  3
ObjectDBX Classes
 90
1153
 91
0
280
0
281
0
  0
CLASS
  1
SCALE
  2
AcDbScale
  3
ObjectDBX Classes
 90
1153
 91
0
280
0
281
0
  0
CLASS
  1
TABLESTYLE
  2
AcDbTableStyle
  3
ObjectDBX Classes
 90
4095
 91
0
280
0
281
0
  0
CLASS
  1
MLEADERSTYLE
  2
AcDbMLeaderStyle
  3
ACDB_MLEADERSTYLE_CLASS
 90
4095
 91
0
280
0
281
0
  0
CLASS
  1
DICTIONARYVAR
  2
AcDbDictionaryVar
  3
ObjectDBX Classes
 90
0
 91
0
280
0
281
0
  0
CLASS
  1
CELLSTYLEMAP
  2
AcDbCellStyleMap
  3
ObjectDBX Classes
 90
1152
 91
0
280
0
281
0
  0
CLASS
  1
MENTALRAYRENDERSETTINGS
  2
AcDbMentalRayRenderSettings
  3
SCENEOE
 90
1024
 91
0
280
0
281
0
  0
CLASS
  1
ACDBDETAILVIEWSTYLE
  2
AcDbDetailViewStyle
  3
ObjectDBX Classes
 90
1025
 91
0
280
0
281
0
  0
CLASS
  1
ACDBSECTIONVIEWSTYLE
  2
AcDbSectionViewStyle
  3
ObjectDBX Classes
 90
1025
 91
0
280
0
281
0
  0
CLASS
  1
RASTERVARIABLES
  2
AcDbRasterVariables
  3
ISM
 90
0
 91
0
280
0
281
0
  0
CLASS
  1
ACDBPLACEHOLDER
  2
AcDbPlaceHolder
  3
ObjectDBX Classes
 90
0
 91
0
280
0
281
0
  0
CLASS
  1
LAYOUT
  2
AcDbLayout
  3
ObjectDBX Classes
 90
0
 91
0
280
0
281
0
  0
ENDSEC
  0
SECTION
  2
TABLES
  0
TABLE
  2
VPORT
  5
8
330
0
100
AcDbSymbolTable
 70
1
  0
VPORT
  5
23
330
8
100
AcDbSymbolTableRecord
100
AcDbViewportTableRecord
  2
*Active
 70
0
 10
0.0
 20
0.0
 11
1.0
 21
1.0
 12
70.0
 22
50.0
 13
0.0
 23
0.0
 14
0.5
 24
0.5
 15
0.5
 25
0.5
 16
0.0
 26
0.0
 36
1.0
 17
0.0
 27
0.0
 37
0.0
 40
1.0
 41
1.34
 42
50.0
 43
0.0
 44
0.0
 50
0.0
 51
0.0
 71
0
 72
1000
 73
1
 74
3
 75
0
 76
0
 77
0
 78
0
281
0
 65
0
146
0.0
  0
ENDTAB
  0
TABLE
  2
LTYPE
  5
2
330
0
100
AcDbSymbolTable
 70
3
  0
LTYPE
  5
24
330
2
100
AcDbSymbolTableRecord
100
AcDbLinetypeTableRecord
  2
ByBlock
 70
0
  3

 72
65
 73
0
 40
0.0
  0
LTYPE
  5
25
330
2
100
AcDbSymbolTableRecord
100
AcDbLinetypeTableRecord
  2
ByLayer
 70
0
  3

 72
65
 73
0
 40
0.0
  0
LTYPE
  5
26
330
2
100
AcDbSymbolTableRecord
100
AcDbLinetypeTableRecord
  2
Continuous
 70
0
  3

 72
65
 73
0
 40
0.0
  0
ENDTAB
  0
TABLE
  2
LAYER
  5
1
330
0
100
AcDbSymbolTable
 70
2
  0
LAYER
  5
27
330
1
100
AcDbSymbolTableRecord
100
AcDbLayerTableRecord
  2
0
 70
0
 62
7
  6
Continuous
370
-3
390
13
347
21
  0
LAYER
  5
28
330
1
100
AcDbSymbolTableRecord
100
AcDbLayerTableRecord
  2
Defpoints
 70
0
 62
7
  6
Continuous
290
0
370
-3
390
13
347
21
  0
ENDTAB
  0
TABLE
  2
STYLE
  5
5
330
0
100
AcDbSymbolTable
 70
1
  0
STYLE
  5
29
330
5
100
AcDbSymbolTableRecord
100
AcDbTextStyleTableRecord
  2
Standard
 70
0
 40
0.0
 41
1.0
 50
0.0
 71
0
 42
2.5
  3
txt
  4

  0
ENDTAB
  0
TABLE
  2
VIEW
  5
7
330
0
100
AcDbSymbolTable
 70
0
  0
ENDTAB
  0
TABLE
  2
UCS
  5
6
330
0
100
AcDbSymbolTable
 70
0
  0
ENDTAB
  0
TABLE
  2
APPID
  5
3
330
0
100
AcDbSymbolTable
 70
2
  0
APPID
  5
2A
330
3
100
AcDbSymbolTableRecord
100
AcDbRegAppTableRecord
  2
ACAD
 70
0
  0
APPID
  5
111
330
3
100
AcDbSymbolTableRecord
100
AcDbRegAppTableRecord
  2
HATCHBACKGROUNDCOLOR
 70
0
  0
ENDTAB
  0
TABLE
  2
DIMSTYLE
  5
4
330
0
100
AcDbSymbolTable
 70
1
100
AcDbDimStyleTable
  0
DIMSTYLE
105
2B
330
4
100
AcDbSymbolTableRecord
100
AcDbDimStyleTableRecord
  2
Standard
 70
0
 40
1.0
 41
2.5
 42
0.625
 43
3.75
 44
1.25
 45
0.0
 46
0.0
 47
0.0
 48
0.0
 49
2.5
140
2.5
141
2.5
142
0.0
143
0.03937007874
144
1.0
145
0.0
146
1.0
147
0.625
148
0.0
 69
0
 70
0
 71
0
 72
0
 73
0
 74
0
 75
0
 76
0
 77
1
 78
8
 79
0
170
0
171
3
172
1
173
0
174
0
175
0
176
0
177
0
178
0
179
0
271
0
272
2
273
2
274
3
275
0
276
0
277
2
278
44
279
0
280
0
281
0
282
0
283
0
284
8
285
0
286
0
288
0
289
3
290
0
371
-2
372
-2
  0
ENDTAB
  0
TABLE
  2
BLOCK_RECORD
  5
9
330
0
100
AcDbSymbolTable
 70
2
  0
BLOCK_RECORD
  5
17
330
9
100
AcDbSymbolTableRecord
100
AcDbBlockTableRecord
  2
*Model_Space
340
1A
 70
0
280
1
281
0
  0
BLOCK_RECORD
  5
1B
330
9
100
AcDbSymbolTableRecord
100
AcDbBlockTableRecord
  2
*Paper_Space
340
1E
 70
0
280
1
281
0
  0
ENDTAB
  0
ENDSEC
  0
SECTION
  2
BLOCKS
  0
BLOCK
  5
18
330
17
100
AcDbEntity
  8
0
100
AcDbBlockBegin
  2
*Model_Space
 70
0
 10
0.0
 20
0.0
 30
0.0
  3
*Model_Space
  1

  0
ENDBLK
  5
19
330
17
100
AcDbEntity
  8
0
100
AcDbBlockEnd
  0
BLOCK
  5
1C
330
1B
100
AcDbEntity
  8
0
100
AcDbBlockBegin
  2
*Paper_Space
 70
0
 10
0.0
 20
0.0
 30
0.0
  3
*Paper_Space
  1

  0
ENDBLK
  5
1D
330
1B
100
AcDbEntity
  8
0
100
AcDbBlockEnd
  0
ENDSEC
  0
SECTION
  2
ENTITIES
  0
LINE
  5
2D
330
17
100
AcDbEntity
  8
0
100
AcDbLine
 10
-2.365761416
 20
-0.018611112749999978
 30
-3.1337259563367343
 11
-2.367954231
 21
-0.02458500334999998
 31
-3.1312106454771946
  0
LINE
  5
2E
330
17
100
AcDbEntity
  8
0
100
AcDbLine
 10
-2.367954231
 20
-0.02458500334999998
 30
-3.1312106454771946
 11
-2.379885695
 21
-0.05095853774999998
 31
-3.1201837463672666
  0
LINE
  5
2F
330
17
100
AcDbEntity
  8
0
100
AcDbLine
 10
-2.379885695
 20
-0.05095853774999998
 30
-3.1201837463672666
 11
-2.38276265
 21
-0.06375967181999997
 31
-3.1148403203554937
  0
LINE
  5
30
330
17
100
AcDbEntity
  8
0
100
AcDbLine
 10
-2.38276265
 20
-0.06375967181999997
 30
-3.1148403203554937
 11
-2.388600088
 21
-0.08382126708999998
 31
-3.1065148331959884
  0
LINE
  5
31
330
17
100
AcDbEntity
  8
0
100
AcDbLine
 10
-2.388600088
 20
-0.08382126708999998
 30
-3.1065148331959884
 11
-2.389665577
 21
-0.10023207556999998
 31
-3.0996732489800154
  0
LINE
  5
32
330
17
100
AcDbEntity
  8
0
100
AcDbLine
 10
-2.389665577
 20
-0.10023207556999998
 30
-3.0996732489800154
 11
-2.391079844
 21
-0.11384516285999999
 31
-3.0940161357855898
  0
LINE
  5
33
330
17
100
AcDbEntity
  8
0
100
AcDbLine
 10
-2.391079844
 20
-0.11384516285999999
 30
-3.0940161357855898
 11
-2.391457587
 21
-0.11748114976999999
 31
-3.092506781723279
  0
LINE
  5
34
330
17
100
AcDbEntity
  8
0
100
AcDbLine
 10
-2.391457587
 20
-0.11748114976999999
 30
-3.092506781723279
 11
-2.390634326
 21
-0.13767633298799997
 31
-3.0840663191895885
  0
LINE
  5
35
330
17
100
AcDbEntity
  8
0
100
AcDbLine
 10
-2.390634326
 20
-0.13767633298799997
 30
-3.0840663191895885
 11
-2.3894821100000003
 21
-0.15683150945
 31
-3.076052556990256
  0
LINE
  5
36
330
17
100
AcDbEntity
  8
0
100
AcDbLine
 10
-2.3894821100000003
 20
-0.15683150945
 30
-3.076052556990256
 11
-2.386758749
 21
-0.17945646124999998
 31
-3.0665455082782183
  0
LINE
  5
37
330
17
100
AcDbEntity
  8
0
100
AcDbLine
 10
-2.386758749
 20
-0.17945646124999998
 30
-3.0665455082782183
 11
-2.38435174
 21
-0.19656643633999998
 31
-3.059338459983699
  0
LINE
  5
38
330
17
100
AcDbEntity
  8
0
100
AcDbLine
 10
-2.38435174
 20
-0.19656643633999998
 30
-3.059338459983699
 11
-2.378762349
 21
-0.22493721787999998
 31
-3.047312385932042
  0
LINE
  5
39
330
17
100
AcDbEntity
  8
0
100
AcDbLine
 10
-2.378762349
 20
-0.22493721787999998
 30
-3.047312385932042
 11
-2.375900989
 21
-0.23807874785
 31
-3.0417203726707744
  0
LINE
  5
3A
330
17
100
AcDbEntity
  8
0
100
AcDbLine
 10
-2.375900989
 20
-0.23807874785
 30
-3.0417203726707744
 11
-2.365433647
 21
-0.27681335134999996
 31
-3.025098154195334
  0
LINE
  5
3B
330
17
100
AcDbEntity
  8
0
100
AcDbLine
 10
-2.365433647
 20
-0.27681335134999996
 30
-3.025098154195334
 11
-2.3635973740000003
 21
-0.28313679605
 31
-3.0223701399142713
  0
LINE
  5
3C
330
17
100
AcDbEntity
  8
0
100
AcDbLine
 10
-2.3635973740000003
 20
-0.28313679605
 30
-3.0223701399142713
 11
-2.353835744
 21
-0.31218198295
 31
-3.0097352604746463
  0
LINE
  5
3D
330
17
100
AcDbEntity
  8
0
100
AcDbLine
 10
-2.353835744
 20
-0.31218198295
 30
-3.0097352604746463
 11
-2.316768046
 21
-0.34203327855
 31
-2.995017633970345
  0
LINE
  5
3E
330
17
100
AcDbEntity
  8
0
100
AcDbLine
 10
-2.316768046
 20
-0.34203327855
 30
-2.995017633970345
 11
-2.2935730789999997
 21
-0.35961591174999996
 31
-2.986066020776789
  0
LINE
  5
3F
330
17
100
AcDbEntity
  8
0
100
AcDbLine
 10
-2.2935730789999997
 20
-0.35961591174999996
 30
-2.986066020776789
 11
-2.2414710700000002
 21
-0.40100293974999995
 31
-2.9645637700856713
  0
LINE
  5
40
330
17
100
AcDbEntity
  8
0
100
AcDbLine
 10
-2.2414710700000002
 20
-0.40100293974999995
 30
-2.9645637700856713
 11
-2.2079643100000004
 21
-0.42664740375
 31
-2.950714028783128
  0
LINE
  5
41
330
17
100
AcDbEntity
  8
0
100
AcDbLine
 10
-2.2079643100000004
 20
-0.42664740375
 30
-2.950714028783128
 11
-2.185609303
 21
-0.44417708005
 31
-2.9410951512031405
  0
LINE
  5
42
330
17
100
AcDbEntity
  8
0
100
AcDbLine
 10
-2.185609303
 20
-0.44417708005
 30
-2.9410951512031405
 11
-2.1067466130000003
 21
-0.50295783605
 31
-2.907242466038268
  0
LINE
  5
43
330
17
100
AcDbEntity
  8
0
100
AcDbLine
 10
-2.1067466130000003
 20
-0.50295783605
 30
-2.907242466038268
 11
-2.023892234
 21
-0.56227234335
 31
-2.870609081587668
  0
LINE
  5
44
330
17
100
AcDbEntity
  8
0
100
AcDbLine
 10
-2.023892234
 20
-0.56227234335
 30
-2.870609081587668
 11
-2.000154035
 21
-0.5787100573499999
 31
-2.8599508335332207
  0
LINE
  5
45
330
17
100
AcDbEntity
  8
0
100
AcDbLine
 10
-2.000154035
 20
-0.5787100573499999
 30
-2.8599508335332207
 11
-1.966503834
 21
-0.59905374905
 31
-2.8458946608906017
  0
LINE
  5
46
330
17
100
AcDbEntity
  8
0
100
AcDbLine
 10
-1.966503834
 20
-0.59905374905
 30
-2.8458946608906017
 11
-1.8988507460000001
 21
-0.63700569585
 31
-2.8179211683810284
  0
LINE
  5
47
330
17
100
AcDbEntity
  8
0
100
AcDbLine
 10
-1.8988507460000001
 20
-0.63700569585
 30
-2.8179211683810284
 11
-1.879838291
 21
-0.64349145805
 31
-2.8117830611724517
  0
LINE
  5
48
330
17
100
AcDbEntity
  8
0
100
AcDbLine
 10
-1.879838291
 20
-0.64349145805
 30
-2.8117830611724517
 11
-1.8138357440000001
 21
-0.6658831428499999
 31
-2.7897542544011795
  0
LINE
  5
49
330
17
100
AcDbEntity
  8
0
100
AcDbLine
 10
-1.8138357440000001
 20
-0.6658831428499999
 30
-2.7897542544011795
 11
-1.7695534130000001
 21
-0.6725841232499999
 31
-2.7783696851120365
  0
LINE
  5
4A
330
17
100
AcDbEntity
  8
0
100
AcDbLine
 10
-1.7695534130000001
 20
-0.6725841232499999
 30
-2.7783696851120365
 11
-1.7040254430000001
 21
-0.68386013645
 31
-2.7599485373072334
  0
LINE
  5
4B
330
17
100
AcDbEntity
  8
0
100
AcDbLine
 10
-1.7040254430000001
 20
-0.68386013645
 30
-2.7599485373072334
 11
-1.63724954
 21
-0.69428279325
 31
-2.7405232508382653
  0
LINE
  5
4C
330
17
100
AcDbEntity
  8
0
100
AcDbLine
 10
-1.63724954
 20
-0.69428279325
 30
-2.7405232508382653
 11
-1.594136904
 21
-0.7023177992499999
 31
-2.726614161819396
  0
LINE
  5
4D
330
17
100
AcDbEntity
  8
0
100
AcDbLine
 10
-1.594136904
 20
-0.7023177992499999
 30
-2.726614161819396
 11
-1.505761627
 21
-0.71332329945
 31
-2.6991816601498813
  0
LINE
  5
4E
330
17
100
AcDbEntity
  8
0
100
AcDbLine
 10
-1.505761627
 20
-0.71332329945
 30
-2.6991816601498813
 11
-1.484106992
 21
-0.71667174355
 31
-2.6917203140775303
  0
LINE
  5
4F
330
17
100
AcDbEntity
  8
0
100
AcDbLine
 10
-1.484106992
 20
-0.71667174355
 30
-2.6917203140775303
 11
-1.38487093
 21
-0.72307676575
 31
-2.660401530065493
  0
LINE
  5
50
330
17
100
AcDbEntity
  8
0
100
AcDbLine
 10
-1.38487093
 20
-0.72307676575
 30
-2.660401530065493
 11
-1.373835744
 21
-0.72401554555
 31
-2.656576743414004
  0
LINE
  5
51
330
17
100
AcDbEntity
  8
0
100
AcDbLine
 10
-1.373835744
 20
-0.72401554555
 30
-2.656576743414004
 11
-1.3163141274
 21
-0.72596903775
 31
-2.63758584383026
  0
LINE
  5
52
330
17
100
AcDbEntity
  8
0
100
AcDbLine
 10
-1.3163141274
 20
-0.72596903775
 30
-2.63758584383026
 11
-1.2645615664
 21
-0.7265093097499999
 31
-2.6201231061601264
  0
LINE
  5
53
330
17
100
AcDbEntity
  8
0
100
AcDbLine
 10
-1.2645615664
 20
-0.7265093097499999
 30
-2.6201231061601264
 11
-1.2517063086000002
 21
-0.72653342115
 31
-2.6156838564265112
  0
LINE
  5
54
330
17
100
AcDbEntity
  8
0
100
AcDbLine
 10
-1.2517063086000002
 20
-0.72653342115
 30
-2.6156838564265112
 11
-1.1537169361
 21
-0.7256162873499999
 31
-2.580166612550468
  0
LINE
  5
55
330
17
100
AcDbEntity
  8
0
100
AcDbLine
 10
-1.1537169361
 20
-0.7256162873499999
 30
-2.580166612550468
 11
-1.079333665
 21
-0.72514249465
 31
-2.5500151651890155
  0
LINE
  5
56
330
17
100
AcDbEntity
  8
0
100
AcDbLine
 10
-1.079333665
 20
-0.72514249465
 30
-2.5500151651890155
 11
-1.0354454128000001
 21
-0.72418471095
 31
-2.5312732557574624
  0
LINE
  5
57
330
17
100
AcDbEntity
  8
0
100
AcDbLine
 10
-1.0354454128000001
 20
-0.72418471095
 30
-2.5312732557574624
 11
-0.9210046123000001
 21
-0.72163035125
 31
-2.476978341452938
  0
LINE
  5
58
330
17
100
AcDbEntity
  8
0
100
AcDbLine
 10
-0.9210046123000001
 20
-0.72163035125
 30
-2.476978341452938
 11
-0.903835744
 21
-0.72094847425
 31
-2.46828364932591
  0
LINE
  5
59
330
17
100
AcDbEntity
  8
0
100
AcDbLine
 10
-0.903835744
 20
-0.72094847425
 30
-2.46828364932591
 11
-0.8621790663000001
 21
-0.71866381775
 31
-2.446730315543016
  0
LINE
  5
5A
330
17
100
AcDbEntity
  8
0
100
AcDbLine
 10
-0.8621790663000001
 20
-0.71866381775
 30
-2.446730315543016
 11
-0.8563254649
 21
-0.71828304955
 31
-2.4436386948919697
  0
LINE
  5
5B
330
17
100
AcDbEntity
  8
0
100
AcDbLine
 10
-0.8563254649
 20
-0.71828304955
 30
-2.4436386948919697
 11
-0.7951068719000001
 21
-0.71388881035
 31
-2.409965201691837
  0
LINE
  5
5C
330
17
100
AcDbEntity
  8
0
100
AcDbLine
 10
-0.7951068719000001
 20
-0.71388881035
 30
-2.409965201691837
 11
-0.7860709355000001
 21
-0.71319463965
 31
-2.404764258243164
  0
LINE
  5
5D
330
17
100
AcDbEntity
  8
0
100
AcDbLine
 10
-0.7860709355000001
 20
-0.71319463965
 30
-2.404764258243164
 11
-0.7079843735000001
 21
-0.7069646938499999
 31
-2.356915137667941
  0
LINE
  5
5E
330
17
100
AcDbEntity
  8
0
100
AcDbLine
 10
-0.7079843735000001
 20
-0.7069646938499999
 30
-2.356915137667941
 11
-0.6963031219000001
 21
-0.70600304945
 31
-2.349277475171169
  0
LINE
  5
5F
330
17
100
AcDbEntity
  8
0
100
AcDbLine
 10
-0.6963031219000001
 20
-0.70600304945
 30
-2.349277475171169
 11
-0.6038675913
 21
-0.69818892255
 31
-2.2838805306099945
  0
LINE
  5
60
330
17
100
AcDbEntity
  8
0
100
AcDbLine
 10
-0.6038675913
 20
-0.69818892255
 30
-2.2838805306099945
 11
-0.5902529594000001
 21
-0.69702434725
 31
-2.273440336470445
  0
LINE
  5
61
330
17
100
AcDbEntity
  8
0
100
AcDbLine
 10
-0.5902529594000001
 20
-0.69702434725
 30
-2.273440336470445
 11
-0.48592708663000006
 21
-0.68786738205
 31
-2.1858217286318493
  0
LINE
  5
62
330
17
100
AcDbEntity
  8
0
100
AcDbLine
 10
-0.48592708663000006
 20
-0.68786738205
 30
-2.1858217286318493
 11
-0.4711514540530001
 21
-0.68657184225
 31
-2.1722259815165166
  0
LINE
  5
63
330
17
100
AcDbEntity
  8
0
100
AcDbLine
 10
-0.4711514540530001
 20
-0.68657184225
 30
-2.1722259815165166
 11
-0.35742774820000006
 21
-0.6763134011499999
 31
-2.056978638540164
  0
LINE
  5
64
330
17
100
AcDbEntity
  8
0
100
AcDbLine
 10
-0.35742774820000006
 20
-0.6763134011499999
 30
-2.056978638540164
 11
-0.3422297529
 21
-0.67495704945
 31
-2.0400595082862583
  0
LINE
  5
65
330
17
100
AcDbEntity
  8
0
100
AcDbLine
 10
-0.3422297529
 20
-0.67495704945
 30
-2.0400595082862583
 11
-0.22170584620000006
 21
-0.66384649615
 31
-1.893121170128408
  0
LINE
  5
66
330
17
100
AcDbEntity
  8
0
100
AcDbLine
 10
-0.22170584620000006
 20
-0.66384649615
 30
-1.893121170128408
 11
-0.20671918080000007
 21
-0.66249061145
 31
-1.8732560275724979
  0
LINE
  5
67
330
17
100
AcDbEntity
  8
0
100
AcDbLine
 10
-0.20671918080000007
 20
-0.66249061145
 30
-1.8732560275724979
 11
-0.08214448180000006
 21
-0.65079091945
 31
-1.6963548697526987
  0
LINE
  5
68
330
17
100
AcDbEntity
  8
0
100
AcDbLine
 10
-0.08214448180000006
 20
-0.65079091945
 30
-1.6963548697526987
 11
-0.06785124490000005
 21
-0.6494831597499999
 31
-1.6748883379363038
  0
LINE
  5
69
330
17
100
AcDbEntity
  8
0
100
AcDbLine
 10
-0.06785124490000005
 20
-0.6494831597499999
 30
-1.6748883379363038
 11
0.057851570499999894
 21
-0.6374740813499999
 31
-1.4802929877463342
  0
LINE
  5
6A
330
17
100
AcDbEntity
  8
0
100
AcDbLine
 10
0.057851570499999894
 20
-0.6374740813499999
 30
-1.4802929877463342
 11
0.0711423913999999
 21
-0.63624610325
 31
-1.4594430266189582
  0
LINE
  5
6B
330
17
100
AcDbEntity
  8
0
100
AcDbLine
 10
0.0711423913999999
 20
-0.63624610325
 30
-1.4594430266189582
 11
0.1948808231999999
 21
-0.62422490615
 31
-1.2681879917851655
  0
LINE
  5
6C
330
17
100
AcDbEntity
  8
0
100
AcDbLine
 10
0.1948808231999999
 20
-0.62422490615
 30
-1.2681879917851655
 11
0.20702996519999994
 21
-0.6230923428499999
 31
-1.2500101994483916
  0
LINE
  5
6D
330
17
100
AcDbEntity
  8
0
100
AcDbLine
 10
0.20702996519999994
 20
-0.6230923428499999
 30
-1.2500101994483916
 11
0.3255692654
 21
-0.61137216905
 31
-1.0814707019494851
  0
LINE
  5
6E
330
17
100
AcDbEntity
  8
0
100
AcDbLine
 10
0.3255692654
 20
-0.61137216905
 30
-1.0814707019494851
 11
0.33657969879999994
 21
-0.61033691545
 31
-1.066828735377199
  0
LINE
  5
6F
330
17
100
AcDbEntity
  8
0
100
AcDbLine
 10
0.33657969879999994
 20
-0.61033691545
 30
-1.066828735377199
 11
0.4465934517
 21
-0.59924284835
 31
-0.9303338740500927
  0
LINE
  5
70
330
17
100
AcDbEntity
  8
0
100
AcDbLine
 10
0.4465934517
 20
-0.59924284835
 30
-0.9303338740500927
 11
0.4565599131999999
 21
-0.59829758075
 31
-0.9189648252656829
  0
LINE
  5
71
330
17
100
AcDbEntity
  8
0
100
AcDbLine
 10
0.4565599131999999
 20
-0.59829758075
 30
-0.9189648252656829
 11
0.5547023979999999
 21
-0.58816050985
 31
-0.8146655041452902
  0
LINE
  5
72
330
17
100
AcDbEntity
  8
0
100
AcDbLine
 10
0.5547023979999999
 20
-0.58816050985
 30
-0.8146655041452902
 11
0.563739169
 21
-0.58729536325
 31
-0.8058605437761834
  0
LINE
  5
73
330
17
100
AcDbEntity
  8
0
100
AcDbLine
 10
0.563739169
 20
-0.58729536325
 30
-0.8058605437761834
 11
0.6467384109999998
 21
-0.57844372675
 31
-0.7297133161284146
  0
LINE
  5
74
330
17
100
AcDbEntity
  8
0
100
AcDbLine
 10
0.6467384109999998
 20
-0.57844372675
 30
-0.7297133161284146
 11
0.6548864409999999
 21
-0.5776550740499999
 31
-0.7228197224899148
  0
LINE
  5
75
330
17
100
AcDbEntity
  8
0
100
AcDbLine
 10
0.6548864409999999
 20
-0.5776550740499999
 30
-0.7228197224899148
 11
0.7196571779999998
 21
-0.57040452145
 31
-0.6702160514641433
  0
LINE
  5
76
330
17
100
AcDbEntity
  8
0
100
AcDbLine
 10
0.7196571779999998
 20
-0.57040452145
 30
-0.6702160514641433
 11
0.726771319
 21
-0.56970583435
 31
-0.6648377865210231
  0
LINE
  5
77
330
17
100
AcDbEntity
  8
0
100
AcDbLine
 10
0.726771319
 20
-0.56970583435
 30
-0.6648377865210231
 11
0.7705476149999999
 21
-0.5643468056500001
 31
-0.632139713016706
  0
LINE
  5
78
330
17
100
AcDbEntity
  8
0
100
AcDbLine
 10
0.7705476149999999
 20
-0.5643468056500001
 30
-0.632139713016706
 11
0.7761642559999999
 21
-0.5637816314499999
 31
-0.6282049263796239
  0
LINE
  5
79
330
17
100
AcDbEntity
  8
0
100
AcDbLine
 10
0.7761642559999999
 20
-0.5637816314499999
 30
-0.6282049263796239
 11
0.861568044
 21
-0.54952416975
 31
-0.5677641649515675
  0
LINE
  5
7A
330
17
100
AcDbEntity
  8
0
100
AcDbLine
 10
0.861568044
 20
-0.54952416975
 30
-0.5677641649515675
 11
0.892539435
 21
-0.54553524285
 31
-0.5486264685363408
  0
LINE
  5
7B
330
17
100
AcDbEntity
  8
0
100
AcDbLine
 10
0.892539435
 20
-0.54553524285
 30
-0.5486264685363408
 11
0.9467476799999999
 21
-0.5343289633499999
 31
-0.5138192535393379
  0
LINE
  5
7C
330
17
100
AcDbEntity
  8
0
100
AcDbLine
 10
0.9467476799999999
 20
-0.5343289633499999
 30
-0.5138192535393379
 11
1.005758173
 21
-0.52484604365
 31
-0.48096750039834907
  0
LINE
  5
7D
330
17
100
AcDbEntity
  8
0
100
AcDbLine
 10
1.005758173
 20
-0.52484604365
 30
-0.48096750039834907
 11
1.024940123
 21
-0.52072836495
 31
-0.4700726943097997
  0
LINE
  5
7E
330
17
100
AcDbEntity
  8
0
100
AcDbLine
 10
1.024940123
 20
-0.52072836495
 30
-0.4700726943097997
 11
1.062061398
 21
-0.5143891708499999
 31
-0.45103394965828153
  0
LINE
  5
7F
330
17
100
AcDbEntity
  8
0
100
AcDbLine
 10
1.062061398
 20
-0.5143891708499999
 30
-0.45103394965828153
 11
1.096812635
 21
-0.50559981755
 31
-0.4319406170555816
  0
LINE
  5
80
330
17
100
AcDbEntity
  8
0
100
AcDbLine
 10
1.096812635
 20
-0.50559981755
 30
-0.4319406170555816
 11
1.1177375809999999
 21
-0.50163329275
 31
-0.4218500959957162
  0
LINE
  5
81
330
17
100
AcDbEntity
  8
0
100
AcDbLine
 10
1.1177375809999999
 20
-0.50163329275
 30
-0.4218500959957162
 11
1.1705718779999998
 21
-0.48925637125
 31
-0.3958956427160314
  0
LINE
  5
82
330
17
100
AcDbEntity
  8
0
100
AcDbLine
 10
1.1705718779999998
 20
-0.48925637125
 30
-0.3958956427160314
 11
1.2304665559999999
 21
-0.47791343114999996
 31
-0.3704667097371554
  0
LINE
  5
83
330
17
100
AcDbEntity
  8
0
100
AcDbLine
 10
1.2304665559999999
 20
-0.47791343114999996
 30
-0.3704667097371554
 11
1.24900763
 21
-0.47414503015
 31
-0.36281264456494855
  0
LINE
  5
84
330
17
100
AcDbEntity
  8
0
100
AcDbLine
 10
1.24900763
 20
-0.47414503015
 30
-0.36281264456494855
 11
1.305115965
 21
-0.46381109365
 31
-0.3414589367787375
  0
LINE
  5
85
330
17
100
AcDbEntity
  8
0
100
AcDbLine
 10
1.305115965
 20
-0.46381109365
 30
-0.3414589367787375
 11
1.3351673929999999
 21
-0.45676967744999997
 31
-0.3296256713801678
  0
LINE
  5
86
330
17
100
AcDbEntity
  8
0
100
AcDbLine
 10
1.3351673929999999
 20
-0.45676967744999997
 30
-0.3296256713801678
 11
1.346164256
 21
-0.45444875674999996
 31
-0.32557475962957294
  0
LINE
  5
87
330
17
100
AcDbEntity
  8
0
100
AcDbLine
 10
1.346164256
 20
-0.45444875674999996
 30
-0.32557475962957294
 11
1.381592701
 21
-0.44657699385
 31
-0.3126332984556232
  0
LINE
  5
88
330
17
100
AcDbEntity
  8
0
100
AcDbLine
 10
1.381592701
 20
-0.44657699385
 30
-0.3126332984556232
 11
1.390238481
 21
-0.44465936925
 31
-0.30956138467590816
  0
LINE
  5
89
330
17
100
AcDbEntity
  8
0
100
AcDbLine
 10
1.390238481
 20
-0.44465936925
 30
-0.30956138467590816
 11
1.441275098
 21
-0.43280038335
 31
-0.29172275456576446
  0
LINE
  5
8A
330
17
100
AcDbEntity
  8
0
100
AcDbLine
 10
1.441275098
 20
-0.43280038335
 30
-0.29172275456576446
 11
1.464133892
 21
-0.42742506035
 31
-0.284037065289737
  0
LINE
  5
8B
330
17
100
AcDbEntity
  8
0
100
AcDbLine
 10
1.464133892
 20
-0.42742506035
 30
-0.284037065289737
 11
1.518300407
 21
-0.41460237665
 31
-0.26657107318828843
  0
LINE
  5
8C
330
17
100
AcDbEntity
  8
0
100
AcDbLine
 10
1.518300407
 20
-0.41460237665
 30
-0.26657107318828843
 11
1.5646192389999998
 21
-0.40343562985
 31
-0.2523522798596717
  0
LINE
  5
8D
330
17
100
AcDbEntity
  8
0
100
AcDbLine
 10
1.5646192389999998
 20
-0.40343562985
 30
-0.2523522798596717
 11
1.6080410729999999
 21
-0.39303340835
 31
-0.23971770074934953
  0
LINE
  5
8E
330
17
100
AcDbEntity
  8
0
100
AcDbLine
 10
1.6080410729999999
 20
-0.39303340835
 30
-0.23971770074934953
 11
1.6884633770000002
 21
-0.37332517774999996
 31
-0.21760262592498786
  0
LINE
  5
8F
330
17
100
AcDbEntity
  8
0
100
AcDbLine
 10
1.6884633770000002
 20
-0.37332517774999996
 30
-0.21760262592498786
 11
1.7064255569999998
 21
-0.36897937454999996
 31
-0.2129509446411653
  0
LINE
  5
90
330
17
100
AcDbEntity
  8
0
100
AcDbLine
 10
1.7064255569999998
 20
-0.36897937454999996
 30
-0.2129509446411653
 11
1.7566117399999999
 21
-0.35650981095
 31
-0.20023346681324553
  0
LINE
  5
91
330
17
100
AcDbEntity
  8
0
100
AcDbLine
 10
1.7566117399999999
 20
-0.35650981095
 30
-0.20023346681324553
 11
1.8102171289999998
 21
-0.34072564115
 31
-0.18604691324300338
  0
LINE
  5
92
330
17
100
AcDbEntity
  8
0
100
AcDbLine
 10
1.8102171289999998
 20
-0.34072564115
 30
-0.18604691324300338
 11
1.832435136
 21
-0.33402470655
 31
-0.18030495590249626
  0
LINE
  5
93
330
17
100
AcDbEntity
  8
0
100
AcDbLine
 10
1.832435136
 20
-0.33402470655
 30
-0.18030495590249626
 11
1.9156434559999997
 21
-0.30926404875
 31
-0.16006030918553996
  0
LINE
  5
94
330
17
100
AcDbEntity
  8
0
100
AcDbLine
 10
1.9156434559999997
 20
-0.30926404875
 30
-0.16006030918553996
 11
1.993303381
 21
-0.28551146655
 31
-0.14226765786486398
  0
LINE
  5
95
330
17
100
AcDbEntity
  8
0
100
AcDbLine
 10
1.993303381
 20
-0.28551146655
 30
-0.14226765786486398
 11
2.019441064
 21
-0.27764337325
 31
-0.1366286928159263
  0
LINE
  5
96
330
17
100
AcDbEntity
  8
0
100
AcDbLine
 10
2.019441064
 20
-0.27764337325
 30
-0.1366286928159263
 11
2.057623235
 21
-0.26578403274999995
 31
-0.12845911279081762
  0
LINE
  5
97
330
17
100
AcDbEntity
  8
0
100
AcDbLine
 10
2.057623235
 20
-0.26578403274999995
 30
-0.12845911279081762
 11
2.1159825039999998
 21
-0.24231408294999998
 31
-0.11401942544760617
  0
LINE
  5
98
330
17
100
AcDbEntity
  8
0
100
AcDbLine
 10
2.1159825039999998
 20
-0.24231408294999998
 30
-0.11401942544760617
 11
2.167835939
 21
-0.22088284374999997
 31
-0.10154051865825589
  0
LINE
  5
99
330
17
100
AcDbEntity
  8
0
100
AcDbLine
 10
2.167835939
 20
-0.22088284374999997
 30
-0.10154051865825589
 11
2.204177921
 21
-0.20605736817999998
 31
-0.09321399141080038
  0
LINE
  5
9A
330
17
100
AcDbEntity
  8
0
100
AcDbLine
 10
2.204177921
 20
-0.20605736817999998
 30
-0.09321399141080038
 11
2.2346590109999998
 21
-0.19322762493999998
 31
-0.08625396446557274
  0
LINE
  5
9B
330
17
100
AcDbEntity
  8
0
100
AcDbLine
 10
2.2346590109999998
 20
-0.19322762493999998
 30
-0.08625396446557274
 11
2.276939392
 21
-0.16696195058
 31
-0.0731963559930295
  0
LINE
  5
9C
330
17
100
AcDbEntity
  8
0
100
AcDbLine
 10
2.276939392
 20
-0.16696195058
 30
-0.0731963559930295
 11
2.330449438
 21
-0.13282300162
 31
-0.056932992893807904
  0
LINE
  5
9D
330
17
100
AcDbEntity
  8
0
100
AcDbLine
 10
2.330449438
 20
-0.13282300162
 30
-0.056932992893807904
 11
2.335148836
 21
-0.12739827646
 31
-0.05450278017806516
  0
LINE
  5
9E
330
17
100
AcDbEntity
  8
0
100
AcDbLine
 10
2.335148836
 20
-0.12739827646
 30
-0.05450278017806516
 11
2.352789851
 21
-0.10657015109999998
 31
-0.04526428861458227
  0
LINE
  5
9F
330
17
100
AcDbEntity
  8
0
100
AcDbLine
 10
2.352789851
 20
-0.10657015109999998
 30
-0.04526428861458227
 11
2.371426287
 21
-0.08467697191999998
 31
-0.03569202723174926
  0
LINE
  5
A0
330
17
100
AcDbEntity
  8
0
100
AcDbLine
 10
2.371426287
 20
-0.08467697191999998
 30
-0.03569202723174926
 11
2.375361581
 21
-0.07993556035999999
 31
-0.03363926024375671
  0
LINE
  5
A1
330
17
100
AcDbEntity
  8
0
100
AcDbLine
 10
2.375361581
 20
-0.07993556035999999
 30
-0.03363926024375671
 11
2.387943541
 21
-0.03954013193999999
 31
-0.01655672264219706
  0
LINE
  5
A2
330
17
100
AcDbEntity
  8
0
100
AcDbLine
 10
2.387943541
 20
-0.03954013193999999
 30
-0.01655672264219706
 11
2.390498456
 21
-0.03114562864999998
 31
-0.013028189329070268
  0
LINE
  5
A3
330
17
100
AcDbEntity
  8
0
100
AcDbLine
 10
2.390498456
 20
-0.03114562864999998
 30
-0.013028189329070268
 11
2.391307794
 21
0.007014820650000031
 31
0.0029334578118035506
  0
LINE
  5
A4
330
17
100
AcDbEntity
  8
0
100
AcDbLine
 10
2.391307794
 20
0.007014820650000031
 30
0.0029334578118035506
 11
2.391457587
 21
0.01594813755000002
 31
0.006668694951355094
  0
LINE
  5
A5
330
17
100
AcDbEntity
  8
0
100
AcDbLine
 10
2.391457587
 20
0.01594813755000002
 30
0.006668694951355094
 11
2.390687529
 21
0.024650912350000026
 31
0.010310857637197067
  0
LINE
  5
A6
330
17
100
AcDbEntity
  8
0
100
AcDbLine
 10
2.390687529
 20
0.024650912350000026
 30
0.010310857637197067
 11
2.387714541
 21
0.06263046305000003
 31
0.026224284374620693
  0
LINE
  5
A7
330
17
100
AcDbEntity
  8
0
100
AcDbLine
 10
2.387714541
 20
0.06263046305000003
 30
0.026224284374620693
 11
2.384887068
 21
0.06985038875000002
 31
0.029280390955068594
  0
LINE
  5
A8
330
17
100
AcDbEntity
  8
0
100
AcDbLine
 10
2.384887068
 20
0.06985038875000002
 30
0.029280390955068594
 11
2.377174023
 21
0.08993550895000002
 31
0.03781491623934654
  0
LINE
  5
A9
330
17
100
AcDbEntity
  8
0
100
AcDbLine
 10
2.377174023
 20
0.08993550895000002
 30
0.03781491623934654
 11
2.370015925
 21
0.10857551995000003
 31
0.045780138683237576
  0
LINE
  5
AA
330
17
100
AcDbEntity
  8
0
100
AcDbLine
 10
2.370015925
 20
0.10857551995000003
 30
0.045780138683237576
 11
2.366842547
 21
0.11164213485000002
 31
0.047134291412730775
  0
LINE
  5
AB
330
17
100
AcDbEntity
  8
0
100
AcDbLine
 10
2.366842547
 20
0.11164213485000002
 30
0.047134291412730775
 11
2.352633576
 21
0.12522070715
 31
0.053175581487926483
  0
LINE
  5
AC
330
17
100
AcDbEntity
  8
0
100
AcDbLine
 10
2.352633576
 20
0.12522070715
 30
0.053175581487926483
 11
2.329410953
 21
0.14752144015000002
 31
0.06324547102609443
  0
LINE
  5
AD
330
17
100
AcDbEntity
  8
0
100
AcDbLine
 10
2.329410953
 20
0.14752144015000002
 30
0.06324547102609443
 11
2.323044516
 21
0.15357449605
 31
0.06601309252245814
  0
LINE
  5
AE
330
17
100
AcDbEntity
  8
0
100
AcDbLine
 10
2.323044516
 20
0.15357449605
 30
0.06601309252245814
 11
2.271492394
 21
0.17722826325000002
 31
0.0778650821159102
  0
LINE
  5
AF
330
17
100
AcDbEntity
  8
0
100
AcDbLine
 10
2.271492394
 20
0.17722826325000002
 30
0.0778650821159102
 11
2.226046237
 21
0.19753383685000003
 31
0.08850570400650236
  0
LINE
  5
B0
330
17
100
AcDbEntity
  8
0
100
AcDbLine
 10
2.226046237
 20
0.19753383685000003
 30
0.08850570400650236
 11
2.199422071
 21
0.20417739975000004
 31
0.09256699486426993
  0
LINE
  5
B1
330
17
100
AcDbEntity
  8
0
100
AcDbLine
 10
2.199422071
 20
0.20417739975000004
 30
0.09256699486426993
 11
2.167632661
 21
0.21176030095000004
 31
0.09738295413030222
  0
LINE
  5
B2
330
17
100
AcDbEntity
  8
0
100
AcDbLine
 10
2.167632661
 20
0.21176030095000004
 30
0.09738295413030222
 11
2.111724307
 21
0.22548491645000002
 31
0.10637457650287416
  0
LINE
  5
B3
330
17
100
AcDbEntity
  8
0
100
AcDbLine
 10
2.111724307
 20
0.22548491645000002
 30
0.10637457650287416
 11
2.049271835
 21
0.24022923825000003
 31
0.11669403858492576
  0
LINE
  5
B4
330
17
100
AcDbEntity
  8
0
100
AcDbLine
 10
2.049271835
 20
0.24022923825000003
 30
0.11669403858492576
 11
2.016077165
 21
0.24501375165
 31
0.12093688077646716
  0
LINE
  5
B5
330
17
100
AcDbEntity
  8
0
100
AcDbLine
 10
2.016077165
 20
0.24501375165
 30
0.12093688077646716
 11
1.993126487
 21
0.24812483235000005
 31
0.12385306415157056
  0
LINE
  5
B6
330
17
100
AcDbEntity
  8
0
100
AcDbLine
 10
1.993126487
 20
0.24812483235000005
 30
0.12385306415157056
 11
1.9130127350000001
 21
0.25958382595
 31
0.13486997435600875
  0
LINE
  5
B7
330
17
100
AcDbEntity
  8
0
100
AcDbLine
 10
1.9130127350000001
 20
0.25958382595
 30
0.13486997435600875
 11
1.8322985429999998
 21
0.27053352265
 31
0.1465880091652049
  0
LINE
  5
B8
330
17
100
AcDbEntity
  8
0
100
AcDbLine
 10
1.8322985429999998
 20
0.27053352265
 30
0.1465880091652049
 11
1.808289432
 21
0.27398117105
 31
0.1503703056042884
  0
LINE
  5
B9
330
17
100
AcDbEntity
  8
0
100
AcDbLine
 10
1.808289432
 20
0.27398117105
 30
0.1503703056042884
 11
1.751161723
 21
0.28182326105
 31
0.15956681780303764
  0
LINE
  5
BA
330
17
100
AcDbEntity
  8
0
100
AcDbLine
 10
1.751161723
 20
0.28182326105
 30
0.15956681780303764
 11
1.7050999660000001
 21
0.28599626095
 31
0.1661830040885837
  0
LINE
  5
BB
330
17
100
AcDbEntity
  8
0
100
AcDbLine
 10
1.7050999660000001
 20
0.28599626095
 30
0.1661830040885837
 11
1.688368246
 21
0.28741295885
 31
0.16861485817844724
  0
LINE
  5
BC
330
17
100
AcDbEntity
  8
0
100
AcDbLine
 10
1.688368246
 20
0.28741295885
 30
0.16861485817844724
 11
1.607245522
 21
0.29503332575
 31
0.18154347806046614
  0
LINE
  5
BD
330
17
100
AcDbEntity
  8
0
100
AcDbLine
 10
1.607245522
 20
0.29503332575
 30
0.18154347806046614
 11
1.564562016
 21
0.29883175215
 31
0.1887271780978258
  0
LINE
  5
BE
330
17
100
AcDbEntity
  8
0
100
AcDbLine
 10
1.564562016
 20
0.29883175215
 30
0.1887271780978258
 11
1.517897802
 21
0.30353050575
 31
0.19736448514527227
  0
LINE
  5
BF
330
17
100
AcDbEntity
  8
0
100
AcDbLine
 10
1.517897802
 20
0.30353050575
 30
0.19736448514527227
 11
1.464106847
 21
0.30873908045000004
 31
0.20782717830574965
  0
LINE
  5
C0
330
17
100
AcDbEntity
  8
0
100
AcDbLine
 10
1.464106847
 20
0.30873908045000004
 30
0.20782717830574965
 11
1.441125497
 21
0.31137451825
 31
0.21279238263069136
  0
LINE
  5
C1
330
17
100
AcDbEntity
  8
0
100
AcDbLine
 10
1.441125497
 20
0.31137451825
 30
0.21279238263069136
 11
1.390231327
 21
0.31708979845
 31
0.2242480811150242
  0
LINE
  5
C2
330
17
100
AcDbEntity
  8
0
100
AcDbLine
 10
1.390231327
 20
0.31708979845
 30
0.2242480811150242
 11
1.381565217
 21
0.31840230325
 31
0.22650989493167073
  0
LINE
  5
C3
330
17
100
AcDbEntity
  8
0
100
AcDbLine
 10
1.381565217
 20
0.31840230325
 30
0.22650989493167073
 11
1.346164256
 21
0.32378591405
 31
0.23604115742613135
  0
LINE
  5
C4
330
17
100
AcDbEntity
  8
0
100
AcDbLine
 10
1.346164256
 20
0.32378591405
 30
0.23604115742613135
 11
1.334438332
 21
0.32784429955
 31
0.2409083058656566
  0
LINE
  5
C5
330
17
100
AcDbEntity
  8
0
100
AcDbLine
 10
1.334438332
 20
0.32784429955
 30
0.2409083058656566
 11
1.294794277
 21
0.34133516355000004
 31
0.25775692246080384
  0
LINE
  5
C6
330
17
100
AcDbEntity
  8
0
100
AcDbLine
 10
1.294794277
 20
0.34133516355000004
 30
0.25775692246080384
 11
1.242840355
 21
0.35726128345
 31
0.27990871034646475
  0
LINE
  5
C7
330
17
100
AcDbEntity
  8
0
100
AcDbLine
 10
1.242840355
 20
0.35726128345
 30
0.27990871034646475
 11
1.228873028
 21
0.36140855735
 31
0.28603295254691385
  0
LINE
  5
C8
330
17
100
AcDbEntity
  8
0
100
AcDbLine
 10
1.228873028
 20
0.36140855735
 30
0.28603295254691385
 11
1.1565774119999999
 21
0.39732845045
 31
0.3309065911811595
  0
LINE
  5
C9
330
17
100
AcDbEntity
  8
0
100
AcDbLine
 10
1.1565774119999999
 20
0.39732845045
 30
0.3309065911811595
 11
1.112455391
 21
0.41777216255000005
 31
0.3592445347615208
  0
LINE
  5
CA
330
17
100
AcDbEntity
  8
0
100
AcDbLine
 10
1.112455391
 20
0.41777216255000005
 30
0.3592445347615208
 11
1.075479576
 21
0.43948935085000007
 31
0.38793667580414026
  0
LINE
  5
CB
330
17
100
AcDbEntity
  8
0
100
AcDbLine
 10
1.075479576
 20
0.43948935085000007
 30
0.38793667580414026
 11
1.005242687
 21
0.47851065405000004
 31
0.44427620523226496
  0
LINE
  5
CC
330
17
100
AcDbEntity
  8
0
100
AcDbLine
 10
1.005242687
 20
0.47851065405000004
 30
0.44427620523226496
 11
0.9994705149999998
 21
0.48153049315000007
 31
0.44897019230960356
  0
LINE
  5
CD
330
17
100
AcDbEntity
  8
0
100
AcDbLine
 10
0.9994705149999998
 20
0.48153049315000007
 30
0.44897019230960356
 11
0.9968274419999998
 21
0.48281839085
 31
0.4510534851195777
  0
LINE
  5
CE
330
17
100
AcDbEntity
  8
0
100
AcDbLine
 10
0.9968274419999998
 20
0.48281839085
 30
0.4510534851195777
 11
0.922514678
 21
0.5230669852500001
 31
0.5158022380947689
  0
LINE
  5
CF
330
17
100
AcDbEntity
  8
0
100
AcDbLine
 10
0.922514678
 20
0.5230669852500001
 30
0.5158022380947689
 11
0.883764743
 21
0.5441484038500001
 31
0.5518955629456728
  0
LINE
  5
D0
330
17
100
AcDbEntity
  8
0
100
AcDbLine
 10
0.883764743
 20
0.5441484038500001
 30
0.5518955629456728
 11
0.845355445
 21
0.56353306675
 31
0.5879721133179824
  0
LINE
  5
D1
330
17
100
AcDbEntity
  8
0
100
AcDbLine
 10
0.845355445
 20
0.56353306675
 30
0.5879721133179824
 11
0.7761642559999999
 21
0.60362879025
 31
0.6609994006757645
  0
LINE
  5
D2
330
17
100
AcDbEntity
  8
0
100
AcDbLine
 10
0.7761642559999999
 20
0.60362879025
 30
0.6609994006757645
 11
0.771395426
 21
0.60526981765
 31
0.6653063569792111
  0
LINE
  5
D3
330
17
100
AcDbEntity
  8
0
100
AcDbLine
 10
0.771395426
 20
0.60526981765
 30
0.6653063569792111
 11
0.730568431
 21
0.62180035165
 31
0.7051430881557926
  0
LINE
  5
D4
330
17
100
AcDbEntity
  8
0
100
AcDbLine
 10
0.730568431
 20
0.62180035165
 30
0.7051430881557926
 11
0.7297803349999998
 21
0.62197951915
 31
0.7058180868983897
  0
LINE
  5
D5
330
17
100
AcDbEntity
  8
0
100
AcDbLine
 10
0.7297803349999998
 20
0.62197951915
 30
0.7058180868983897
 11
0.722668807
 21
0.62382659435
 31
0.7121225738179506
  0
LINE
  5
D6
330
17
100
AcDbEntity
  8
0
100
AcDbLine
 10
0.722668807
 20
0.62382659435
 30
0.7121225738179506
 11
0.6659243749999999
 21
0.6375962979500001
 31
0.7636696098587727
  0
LINE
  5
D7
330
17
100
AcDbEntity
  8
0
100
AcDbLine
 10
0.6659243749999999
 20
0.6375962979500001
 30
0.7636696098587727
 11
0.6608688169999999
 21
0.63895739225
 31
0.7685425641943585
  0
LINE
  5
D8
330
17
100
AcDbEntity
  8
0
100
AcDbLine
 10
0.6608688169999999
 20
0.63895739225
 30
0.7685425641943585
 11
0.584650205
 21
0.65260823815
 31
0.8402693312839729
  0
LINE
  5
D9
330
17
100
AcDbEntity
  8
0
100
AcDbLine
 10
0.584650205
 20
0.65260823815
 30
0.8402693312839729
 11
0.5704798549999999
 21
0.65537511315
 31
0.8545416815059488
  0
LINE
  5
DA
330
17
100
AcDbEntity
  8
0
100
AcDbLine
 10
0.5704798549999999
 20
0.65537511315
 30
0.8545416815059488
 11
0.488750755
 21
0.6669237691500001
 31
0.938366093801506
  0
LINE
  5
DB
330
17
100
AcDbEntity
  8
0
100
AcDbLine
 10
0.488750755
 20
0.6669237691500001
 30
0.938366093801506
 11
0.4628369602
 21
0.67085464795
 31
0.9668666168091323
  0
LINE
  5
DC
330
17
100
AcDbEntity
  8
0
100
AcDbLine
 10
0.4628369602
 20
0.67085464795
 30
0.9668666168091323
 11
0.38057249409999994
 21
0.68031303065
 31
1.0607588531833327
  0
LINE
  5
DD
330
17
100
AcDbEntity
  8
0
100
AcDbLine
 10
0.38057249409999994
 20
0.68031303065
 30
1.0607588531833327
 11
0.3413874884
 21
0.68507816555
 31
1.1084943960837819
  0
LINE
  5
DE
330
17
100
AcDbEntity
  8
0
100
AcDbLine
 10
0.3413874884
 20
0.68507816555
 30
1.1084943960837819
 11
0.2624531926999999
 21
0.69252908665
 31
1.208542784747194
  0
LINE
  5
DF
330
17
100
AcDbEntity
  8
0
100
AcDbLine
 10
0.2624531926999999
 20
0.69252908665
 30
1.208542784747194
 11
0.2095973822999999
 21
0.69772500495
 31
1.278971560650372
  0
LINE
  5
E0
330
17
100
AcDbEntity
  8
0
100
AcDbLine
 10
0.2095973822999999
 20
0.69772500495
 30
1.278971560650372
 11
0.1367777067999999
 21
0.70331154245
 31
1.378717230731134
  0
LINE
  5
E1
330
17
100
AcDbEntity
  8
0
100
AcDbLine
 10
0.1367777067999999
 20
0.70331154245
 30
1.378717230731134
 11
0.0709521274999999
 21
0.70847755575
 31
1.4709818164275628
  0
LINE
  5
E2
330
17
100
AcDbEntity
  8
0
100
AcDbLine
 10
0.0709521274999999
 20
0.70847755575
 30
1.4709818164275628
 11
0.006018653699999932
 21
0.71238898335
 31
1.562347978144098
  0
LINE
  5
E3
330
17
100
AcDbEntity
  8
0
100
AcDbLine
 10
0.006018653699999932
 20
0.71238898335
 30
1.562347978144098
 11
-0.07104418220000008
 21
0.71702576695
 31
1.6695557583654896
  0
LINE
  5
E4
330
17
100
AcDbEntity
  8
0
100
AcDbLine
 10
-0.07104418220000008
 20
0.71702576695
 30
1.6695557583654896
 11
-0.12723269120000008
 21
0.71948034715
 31
1.7458264705780964
  0
LINE
  5
E5
330
17
100
AcDbEntity
  8
0
100
AcDbLine
 10
-0.12723269120000008
 20
0.71948034715
 30
1.7458264705780964
 11
-0.21287118330000004
 21
0.72307065745
 31
1.8571065798772028
  0
LINE
  5
E6
330
17
100
AcDbEntity
  8
0
100
AcDbLine
 10
-0.21287118330000004
 20
0.72307065745
 30
1.8571065798772028
 11
-0.26024062570000006
 21
0.72429527865
 31
1.9157337096546663
  0
LINE
  5
E7
330
17
100
AcDbEntity
  8
0
100
AcDbLine
 10
-0.26024062570000006
 20
0.72429527865
 30
1.9157337096546663
 11
-0.3509956597000001
 21
0.72632721105
 31
2.020952175239545
  0
LINE
  5
E8
330
17
100
AcDbEntity
  8
0
100
AcDbLine
 10
-0.3509956597000001
 20
0.72632721105
 30
2.020952175239545
 11
-0.39010000806000006
 21
0.72653342115
 31
2.0635522267788473
  0
LINE
  5
E9
330
17
100
AcDbEntity
  8
0
100
AcDbLine
 10
-0.39010000806000006
 20
0.72653342115
 30
2.0635522267788473
 11
-0.4818758817570001
 21
0.7265270351500001
 31
2.156436338940001
  0
LINE
  5
EA
330
17
100
AcDbEntity
  8
0
100
AcDbLine
 10
-0.4818758817570001
 20
0.7265270351500001
 30
2.156436338940001
 11
-0.51370735007
 21
0.72588247215
 31
2.1866717019787267
  0
LINE
  5
EB
330
17
100
AcDbEntity
  8
0
100
AcDbLine
 10
-0.51370735007
 20
0.72588247215
 30
2.1866717019787267
 11
-0.6019668786000001
 21
0.72342117935
 31
2.264812920901355
  0
LINE
  5
EC
330
17
100
AcDbEntity
  8
0
100
AcDbLine
 10
-0.6019668786000001
 20
0.72342117935
 30
2.264812920901355
 11
-0.627722293
 21
0.7220146389500001
 31
2.2864480108371934
  0
LINE
  5
ED
330
17
100
AcDbEntity
  8
0
100
AcDbLine
 10
-0.627722293
 20
0.7220146389500001
 30
2.2864480108371934
 11
-0.7077268496000001
 21
0.71678356055
 31
2.3498368048707325
  0
LINE
  5
EE
330
17
100
AcDbEntity
  8
0
100
AcDbLine
 10
-0.7077268496000001
 20
0.71678356055
 30
2.3498368048707325
 11
-0.7285113801
 21
0.71458082175
 31
2.3658474601461053
  0
LINE
  5
EF
330
17
100
AcDbEntity
  8
0
100
AcDbLine
 10
-0.7285113801
 20
0.71458082175
 30
2.3658474601461053
 11
-0.7956251537000001
 21
0.70641555015
 31
2.4155170710540097
  0
LINE
  5
F0
330
17
100
AcDbEntity
  8
0
100
AcDbLine
 10
-0.7956251537000001
 20
0.70641555015
 30
2.4155170710540097
 11
-0.8120613914000001
 21
0.70320131055
 31
2.4279136521917217
  0
LINE
  5
F1
330
17
100
AcDbEntity
  8
0
100
AcDbLine
 10
-0.8120613914000001
 20
0.70320131055
 30
2.4279136521917217
 11
-0.8621526573
 21
0.69215249375
 31
2.465135199583862
  0
LINE
  5
F2
330
17
100
AcDbEntity
  8
0
100
AcDbLine
 10
-0.8621526573
 20
0.69215249375
 30
2.465135199583862
 11
-0.8738405041000001
 21
0.68745080295
 31
2.4750139061188086
  0
LINE
  5
F3
330
17
100
AcDbEntity
  8
0
100
AcDbLine
 10
-0.8738405041000001
 20
0.68745080295
 30
2.4750139061188086
 11
-0.903835744
 21
0.67387331435
 31
2.500932424140435
  0
LINE
  5
F4
330
17
100
AcDbEntity
  8
0
100
AcDbLine
 10
-0.903835744
 20
0.67387331435
 30
2.500932424140435
 11
-0.9720935421000001
 21
0.60814184385
 31
2.5825619023024107
  0
LINE
  5
F5
330
17
100
AcDbEntity
  8
0
100
AcDbLine
 10
-0.9720935421000001
 20
0.60814184385
 30
2.5825619023024107
 11
-1.0207895363000001
 21
0.5596847607500001
 31
2.640066213647788
  0
LINE
  5
F6
330
17
100
AcDbEntity
  8
0
100
AcDbLine
 10
-1.0207895363000001
 20
0.5596847607500001
 30
2.640066213647788
 11
-1.0609744319
 21
0.51087093835
 31
2.6928452864099004
  0
LINE
  5
F7
330
17
100
AcDbEntity
  8
0
100
AcDbLine
 10
-1.0609744319
 20
0.51087093835
 30
2.6928452864099004
 11
-1.1426992739
 21
0.40815832075
 31
2.7985287920144204
  0
LINE
  5
F8
330
17
100
AcDbEntity
  8
0
100
AcDbLine
 10
-1.1426992739
 20
0.40815832075
 30
2.7985287920144204
 11
-1.1845842026
 21
0.36016117595
 31
2.846433420022401
  0
LINE
  5
F9
330
17
100
AcDbEntity
  8
0
100
AcDbLine
 10
-1.1845842026
 20
0.36016117595
 30
2.846433420022401
 11
-1.2612815592
 21
0.26615922245
 31
2.9336210188176763
  0
LINE
  5
FA
330
17
100
AcDbEntity
  8
0
100
AcDbLine
 10
-1.2612815592
 20
0.26615922245
 30
2.9336210188176763
 11
-1.3615555398
 21
0.20860816645000002
 31
2.9895617853821523
  0
LINE
  5
FB
330
17
100
AcDbEntity
  8
0
100
AcDbLine
 10
-1.3615555398
 20
0.20860816645000002
 30
2.9895617853821523
 11
-1.373835744
 21
0.20120584175
 31
2.9961709699985364
  0
LINE
  5
FC
330
17
100
AcDbEntity
  8
0
100
AcDbLine
 10
-1.373835744
 20
0.20120584175
 30
2.9961709699985364
 11
-1.3792764622
 21
0.20070017995
 31
2.997095590094426
  0
LINE
  5
FD
330
17
100
AcDbEntity
  8
0
100
AcDbLine
 10
-1.3792764622
 20
0.20070017995
 30
2.997095590094426
 11
-1.484311301
 21
0.19194771995000004
 31
3.012988671105408
  0
LINE
  5
FE
330
17
100
AcDbEntity
  8
0
100
AcDbLine
 10
-1.484311301
 20
0.19194771995000004
 30
3.012988671105408
 11
-1.5029643910000001
 21
0.18879270005000004
 31
3.016633589133186
  0
LINE
  5
FF
330
17
100
AcDbEntity
  8
0
100
AcDbLine
 10
-1.5029643910000001
 20
0.18879270005000004
 30
3.016633589133186
 11
-1.5947075320000001
 21
0.17412455125000004
 31
3.0328344825749505
  0
LINE
  5
100
330
17
100
AcDbEntity
  8
0
100
AcDbLine
 10
-1.5947075320000001
 20
0.17412455125000004
 30
3.0328344825749505
 11
-1.641455944
 21
0.16444653425
 31
3.041742482467682
  0
LINE
  5
101
330
17
100
AcDbEntity
  8
0
100
AcDbLine
 10
-1.641455944
 20
0.16444653425
 30
3.041742482467682
 11
-1.704673598
 21
0.15173402295
 31
3.052816014181886
  0
LINE
  5
102
330
17
100
AcDbEntity
  8
0
100
AcDbLine
 10
-1.704673598
 20
0.15173402295
 30
3.052816014181886
 11
-1.78815261
 21
0.13470441615
 31
3.0664030582998345
  0
LINE
  5
103
330
17
100
AcDbEntity
  8
0
100
AcDbLine
 10
-1.78815261
 20
0.13470441615
 30
3.0664030582998345
 11
-1.8138357440000001
 21
0.12945555355000005
 31
3.070342313178156
  0
LINE
  5
104
330
17
100
AcDbEntity
  8
0
100
AcDbLine
 10
-1.8138357440000001
 20
0.12945555355000005
 30
3.070342313178156
 11
-1.878368091
 21
0.11662034695000001
 31
3.0795862509139593
  0
LINE
  5
105
330
17
100
AcDbEntity
  8
0
100
AcDbLine
 10
-1.878368091
 20
0.11662034695000001
 30
3.0795862509139593
 11
-1.897438884
 21
0.11243466805000002
 31
3.0824058470024784
  0
LINE
  5
106
330
17
100
AcDbEntity
  8
0
100
AcDbLine
 10
-1.897438884
 20
0.11243466805000002
 30
3.0824058470024784
 11
-1.9067979720000001
 21
0.11034628325000001
 31
3.0837871853984
  0
LINE
  5
107
330
17
100
AcDbEntity
  8
0
100
AcDbLine
 10
-1.9067979720000001
 20
0.11034628325000001
 30
3.0837871853984
 11
-1.9967983900000001
 21
0.08941876705000001
 31
3.0968414821588044
  0
LINE
  5
108
330
17
100
AcDbEntity
  8
0
100
AcDbLine
 10
-1.9967983900000001
 20
0.08941876705000001
 30
3.0968414821588044
 11
-2.077209958
 21
0.07102878695
 31
3.1074116491264827
  0
LINE
  5
109
330
17
100
AcDbEntity
  8
0
100
AcDbLine
 10
-2.077209958
 20
0.07102878695
 30
3.1074116491264827
 11
-2.102000814
 21
0.06511203025000001
 31
3.1106263398579257
  0
LINE
  5
10A
330
17
100
AcDbEntity
  8
0
100
AcDbLine
 10
-2.102000814
 20
0.06511203025000001
 30
3.1106263398579257
 11
-2.130271007
 21
0.05853512085000001
 31
3.1141217846563336
  0
LINE
  5
10B
330
17
100
AcDbEntity
  8
0
100
AcDbLine
 10
-2.130271007
 20
0.05853512085000001
 30
3.1141217846563336
 11
-2.203166996
 21
0.04017586605000001
 31
3.1233591680052593
  0
LINE
  5
10C
330
17
100
AcDbEntity
  8
0
100
AcDbLine
 10
-2.203166996
 20
0.04017586605000001
 30
3.1233591680052593
 11
-2.2750984670000003
 21
0.023022041350000022
 31
3.1314738583217423
  0
LINE
  5
10D
330
17
100
AcDbEntity
  8
0
100
AcDbLine
 10
-2.2750984670000003
 20
0.023022041350000022
 30
3.1314738583217423
 11
-2.290408133
 21
0.019127858350000027
 31
3.1332415595605325
  0
LINE
  5
10E
330
17
100
AcDbEntity
  8
0
100
AcDbLine
 10
-2.290408133
 20
0.019127858350000027
 30
3.1332415595605325
 11
-2.303044023
 21
0.01583159765000003
 31
3.134718556470285
  0
LINE
  5
10F
330
17
100
AcDbEntity
  8
0
100
AcDbLine
 10
-2.303044023
 20
0.01583159765000003
 30
3.134718556470285
 11
-2.353835744
 21
0.0013239514500000271
 31
3.1410301881273
  0
LINE
  5
110
330
17
100
AcDbEntity
  8
0
100
AcDbLine
 10
-2.353835744
 20
0.0013239514500000271
 30
3.1410301881273
 11
-2.365761416
 21
-0.018611112749999978
 31
-3.1337259563367343
  0
ENDSEC
  0
SECTION
  2
OBJECTS
  0
DICTIONARY
  5
A
330
0
100
AcDbDictionary
281
1
  3
ACAD_COLOR
350
B
  3
ACAD_GROUP
350
C
  3
ACAD_LAYOUT
350
D
  3
ACAD_MATERIAL
350
E
  3
ACAD_MLEADERSTYLE
350
F
  3
ACAD_MLINESTYLE
350
10
  3
ACAD_PLOTSETTINGS
350
11
  3
ACAD_PLOTSTYLENAME
350
12
  3
ACAD_SCALELIST
350
14
  3
ACAD_TABLESTYLE
350
15
  3
ACAD_VISUALSTYLE
350
16
  0
DICTIONARY
  5
B
330
A
100
AcDbDictionary
281
1
  0
DICTIONARY
  5
C
330
A
100
AcDbDictionary
281
1
  0
DICTIONARY
  5
D
330
A
100
AcDbDictionary
281
1
  3
Model
350
1A
  3
Layout1
350
1E
  0
DICTIONARY
  5
E
330
A
100
AcDbDictionary
281
1
  3
ByBlock
350
1F
  3
ByLayer
350
20
  3
Global
350
21
  0
DICTIONARY
  5
F
330
A
100
AcDbDictionary
281
1
  3
Standard
350
2C
  0
DICTIONARY
  5
10
330
A
100
AcDbDictionary
281
1
  3
Standard
350
22
  0
DICTIONARY
  5
11
330
A
100
AcDbDictionary
281
1
  0
ACDBDICTIONARYWDFLT
  5
12
330
A
100
AcDbDictionary
281
1
  3
Normal
350
13
100
AcDbDictionaryWithDefault
340
13
  0
ACDBPLACEHOLDER
  5
13
330
12
  0
DICTIONARY
  5
14
330
A
100
AcDbDictionary
281
1
  0
DICTIONARY
  5
15
330
A
100
AcDbDictionary
281
1
  0
DICTIONARY
  5
16
330
A
100
AcDbDictionary
281
1
  0
LAYOUT
  5
1A
330
D
100
AcDbPlotSettings
  1

  2
Adobe PDF
  4
A4
  6

 40
3.175
 41
3.175
 42
3.175
 43
3.175
 44
209.91
 45
297.03
 46
0.0
 47
0.0
 48
0.0
 49
0.0
140
0.0
141
0.0
142
1.0
143
1.0
 70
1024
 72
0
 73
1
 74
5
  7

 75
16
 76
0
 77
2
 78
300
147
1.0
148
0.0
149
0.0
100
AcDbLayout
  1
Model
 70
1
 71
0
 10
-3.175
 20
-3.175
 11
293.857
 21
206.735
 12
0.0
 22
0.0
 32
0.0
 14
29.068
 24
20.356
 34
0.0
 15
261.614
 25
183.204
 35
0.0
146
0.0
 13
0.0
 23
0.0
 33
0.0
 16
1.0
 26
0.0
 36
0.0
 17
0.0
 27
1.0
 37
0.0
 76
1
330
17
  0
LAYOUT
  5
1E
330
D
100
AcDbPlotSettings
  1

  2
Adobe PDF
  4
A4
  6

 40
3.175
 41
3.175
 42
3.175
 43
3.175
 44
209.91
 45
297.03
 46
0.0
 47
0.0
 48
0.0
 49
0.0
140
0.0
141
0.0
142
1.0
143
1.0
 70
0
 72
0
 73
1
 74
5
  7

 75
16
 76
0
 77
2
 78
300
147
1.0
148
0.0
149
0.0
100
AcDbLayout
  1
Layout1
 70
1
 71
1
 10
-3.175
 20
-3.175
 11
293.857
 21
206.735
 12
0.0
 22
0.0
 32
0.0
 14
29.068
 24
20.356
 34
0.0
 15
261.614
 25
183.204
 35
0.0
146
0.0
 13
0.0
 23
0.0
 33
0.0
 16
1.0
 26
0.0
 36
0.0
 17
0.0
 27
1.0
 37
0.0
 76
1
330
1B
  0
MATERIAL
  5
1F
102
{ACAD_REACTORS
330
E
102
}
330
E
100
AcDbMaterial
  1
ByBlock
  2

 70
0
 40
1.0
 71
1
 41
1.0
 91
-1023410177
 42
1.0
 72
1
  3

 73
1
 74
1
 75
1
 44
0.5
 73
0
 45
1.0
 46
1.0
 77
1
  4

 78
1
 79
1
170
1
 48
1.0
171
1
  6

172
1
173
1
174
1
140
1.0
141
1.0
175
1
  7

176
1
177
1
178
1
143
1.0
179
1
  8

270
1
271
1
272
1
145
1.0
146
1.0
273
1
  9

274
1
275
1
276
1
 42
1.0
 72
1
  3

 73
1
 74
1
 75
1
 94
63
  0
MATERIAL
  5
20
102
{ACAD_REACTORS
330
E
102
}
330
E
100
AcDbMaterial
  1
ByLayer
  2

 70
0
 40
1.0
 71
1
 41
1.0
 91
-1023410177
 42
1.0
 72
1
  3

 73
1
 74
1
 75
1
 44
0.5
 73
0
 45
1.0
 46
1.0
 77
1
  4

 78
1
 79
1
170
1
 48
1.0
171
1
  6

172
1
173
1
174
1
140
1.0
141
1.0
175
1
  7

176
1
177
1
178
1
143
1.0
179
1
  8

270
1
271
1
272
1
145
1.0
146
1.0
273
1
  9

274
1
275
1
276
1
 42
1.0
 72
1
  3

 73
1
 74
1
 75
1
 94
63
  0
MATERIAL
  5
21
102
{ACAD_REACTORS
330
E
102
}
330
E
100
AcDbMaterial
  1
Global
  2

 70
0
 40
1.0
 71
1
 41
1.0
 91
-1023410177
 42
1.0
 72
1
  3

 73
1
 74
1
 75
1
 44
0.5
 73
0
 45
1.0
 46
1.0
 77
1
  4

 78
1
 79
1
170
1
 48
1.0
171
1
  6

172
1
173
1
174
1
140
1.0
141
1.0
175
1
  7

176
1
177
1
178
1
143
1.0
179
1
  8

270
1
271
1
272
1
145
1.0
146
1.0
273
1
  9

274
1
275
1
276
1
 42
1.0
 72
1
  3

 73
1
 74
1
 75
1
 94
63
  0
MLINESTYLE
  5
22
102
{ACAD_REACTORS
330
10
102
}
330
10
100
AcDbMlineStyle
  2
Standard
 70
0
  3

 62
256
 51
90.0
 52
90.0
 71
2
 49
0.5
 62
256
  6
BYLAYER
 49
-0.5
 62
256
  6
BYLAYER
  0
MLEADERSTYLE
  5
2C
102
{ACAD_REACTORS
330
F
102
}
330
F
100
AcDbMLeaderStyle
179
2
170
2
171
1
172
0
 90
2
 40
0.0
 41
0.0
173
1
 91
-1056964608
 92
-2
290
1
 42
2.0
291
1
 43
8.0
  3
Standard
 44
4.0
300

342
29
174
1
175
1
176
0
178
1
 93
-1056964608
 45
4.0
292
0
297
0
 46
4.0
 94
-1056964608
 47
1.0
 49
0.0
140
1.0
294
1
141
0.0
177
0
142
1.0
295
0
296
0
143
3.75
271
0
272
9
272
9
  0
ENDSEC
  0
EOF
