  0
SECTION
  2
HEADER
  9
$ACADVER
  1
AC1009
  9
$DWGCODEPAGE
  3
ANSI_1252
  9
$INSBASE
 10
0.0
 20
0.0
 30
0.0
  9
$EXTMIN
 10
-100
 20
-100
 30
-100
  9
$EXTMAX
 10
100
 20
100
 30
100
  9
$LIMMIN
 10
0.0
 20
0.0
  9
$LIMMAX
 10
420.0
 20
297.0
  9
$ORTHOMODE
 70
0
  9
$REGENMODE
 70
1
  9
$DRAGMODE
 70
2
  9
$FILLMODE
 70
1
  9
$QTEXTMODE
 70
0
  9
$MIRRTEXT
 70
1
  9
$OSMODE
 70
20583
  9
$LTSCALE
 40
1.0
  9
$ATTMODE
 70
1
  9
$TEXTSIZE
 40
2.5
  9
$TRACEWID
 40
1.0
  9
$TEXTSTYLE
  7
Standard
  9
$CLAYER
  8
0
  9
$CELTYPE
  6
ByLayer
  9
$CECOLOR
 62
256
  9
$DIMSCALE
 40
1.0
  9
$DIMASZ
 40
2.5
  9
$DIMEXO
 40
0.625
  9
$DIMDLI
 40
3.75
  9
$DIMRND
 40
0.0
  9
$DIMDLE
 40
0.0
  9
$DIMEXE
 40
1.25
  9
$DIMTP
 40
0.0
  9
$DIMTM
 40
0.0
  9
$DIMTXT
 40
2.5
  9
$DIMCEN
 40
2.5
  9
$DIMTSZ
 40
0.0
  9
$DIMTOL
 70
0
  9
$DIMLIM
 70
0
  9
$DIMTIH
 70
0
  9
$DIMTOH
 70
0
  9
$DIMSE1
 70
0
  9
$DIMSE2
 70
0
  9
$DIMTAD
 70
1
  9
$DIMZIN
 70
8
  9
$DIMBLK
  1

  9
$DIMASO
 70
1
  9
$DIMSHO
 70
1
  9
$DIMPOST
  1

  9
$DIMAPOST
  1

  9
$DIMALT
 70
0
  9
$DIMALTD
 70
3
  9
$DIMALTF
 40
0.03937007874
  9
$DIMLFAC
 40
1.0
  9
$DIMTOFL
 70
1
  9
$DIMTVP
 40
0.0
  9
$DIMTIX
 70
0
  9
$DIMSOXD
 70
0
  9
$DIMSAH
 70
0
  9
$DIMBLK1
  1

  9
$DIMBLK2
  1

  9
$DIMSTYLE
  2
ISO-25
  9
$DIMCLRD
 70
0
  9
$DIMCLRE
 70
0
  9
$DIMCLRT
 70
0
  9
$DIMTFAC
 40
1.0
  9
$DIMGAP
 40
0.625
  9
$COORDS
 70
1
  9
$ATTDIA
 70
0
  9
$ATTREQ
 70
1
  9
$HANDLING
 70
1
  9
$LUNITS
 70
2
  9
$LUPREC
 70
4
  9
$SKETCHINC
 40
1.0
  9
$FILLETRAD
 40
10.0
  9
$AUNITS
 70
0
  9
$AUPREC
 70
2
  9
$MENU
  1
.
  9
$ELEVATION
 40
0.0
  9
$PELEVATION
 40
0.0
  9
$THICKNESS
 40
0.0
  9
$LIMCHECK
 70
0
  9
$CHAMFERA
 40
0.0
  9
$CHAMFERB
 40
0.0
  9
$SKPOLY
 70
0
  9
$TDCREATE
 40
2459746.820277778
  9
$TDUPDATE
 40
2459746.820277778
  9
$TDINDWG
 40
0.0
  9
$TDUSRTIMER
 40
0.0
  9
$USRTIMER
 70
1
  9
$ANGBASE
 50
0.0
  9
$ANGDIR
 70
0
  9
$PDMODE
 70
0
  9
$PDSIZE
 40
0.0
  9
$PLINEWID
 40
0.0
  9
$SPLFRAME
 70
0
  9
$SPLINETYPE
 70
6
  9
$SPLINESEGS
 70
8
  9
$HANDSEED
  5
92
  9
$SURFTAB1
 70
6
  9
$SURFTAB2
 70
6
  9
$SURFTYPE
 70
6
  9
$SURFU
 70
6
  9
$SURFV
 70
6
  9
$UCSNAME
  2

  9
$UCSORG
 10
0.0
 20
0.0
 30
0.0
  9
$UCSXDIR
 10
1.0
 20
0.0
 30
0.0
  9
$UCSYDIR
 10
0.0
 20
1.0
 30
0.0
  9
$PUCSNAME
  2

  9
$PUCSORG
 10
0.0
 20
0.0
 30
0.0
  9
$PUCSXDIR
 10
1.0
 20
0.0
 30
0.0
  9
$PUCSYDIR
 10
0.0
 20
1.0
 30
0.0
  9
$USERI1
 70
0
  9
$USERI2
 70
0
  9
$USERI3
 70
0
  9
$USERI4
 70
0
  9
$USERI5
 70
0
  9
$USERR1
 40
0.0
  9
$USERR2
 40
0.0
  9
$USERR3
 40
0.0
  9
$USERR4
 40
0.0
  9
$USERR5
 40
0.0
  9
$WORLDVIEW
 70
1
  9
$SHADEDGE
 70
3
  9
$SHADEDIF
 70
70
  9
$TILEMODE
 70
1
  9
$MAXACTVP
 70
64
  9
$PLIMCHECK
 70
0
  9
$PEXTMIN
 10
1e+20
 20
1e+20
 30
1e+20
  9
$PEXTMAX
 10
-1e+20
 20
-1e+20
 30
-1e+20
  9
$PLIMMIN
 10
0.0
 20
0.0
  9
$PLIMMAX
 10
420.0
 20
297.0
  9
$UNITMODE
 70
0
  9
$VISRETAIN
 70
1
  9
$PLINEGEN
 70
0
  9
$PSLTSCALE
 70
1
  0
ENDSEC
  0
SECTION
  2
TABLES
  0
TABLE
  2
VPORT
 70
1
  0
VPORT
  5
23
  2
*Active
 70
0
 10
0.0
 20
0.0
 11
1.0
 21
1.0
 12
70.0
 22
50.0
 13
0.0
 23
0.0
 14
0.5
 24
0.5
 15
0.5
 25
0.5
 16
0.0
 26
0.0
 36
1.0
 17
0.0
 27
0.0
 37
0.0
 40
1.0
 41
1.34
 42
50.0
 43
0.0
 44
0.0
 50
0.0
 51
0.0
 71
0
 72
1000
 73
1
 74
3
 75
0
 76
0
 77
0
 78
0
  0
ENDTAB
  0
TABLE
  2
LTYPE
 70
3
  0
LTYPE
  5
24
  2
ByBlock
 70
0
  3

 72
65
 73
0
 40
0.0
  0
LTYPE
  5
25
  2
ByLayer
 70
0
  3

 72
65
 73
0
 40
0.0
  0
LTYPE
  5
26
  2
Continuous
 70
0
  3

 72
65
 73
0
 40
0.0
  0
ENDTAB
  0
TABLE
  2
LAYER
 70
2
  0
LAYER
  5
27
  2
0
 70
0
 62
7
  6
Continuous
  0
LAYER
  5
28
  2
Defpoints
 70
0
 62
7
  6
Continuous
  0
ENDTAB
  0
TABLE
  2
STYLE
 70
1
  0
STYLE
  5
29
  2
Standard
 70
0
 40
0.0
 41
1.0
 50
0.0
 71
0
 42
2.5
  3
txt
  4

  0
ENDTAB
  0
TABLE
  2
VIEW
 70
0
  0
ENDTAB
  0
TABLE
  2
UCS
 70
0
  0
ENDTAB
  0
TABLE
  2
APPID
 70
2
  0
APPID
  5
2A
  2
ACAD
 70
0
  0
APPID
  5
91
  2
HATCHBACKGROUNDCOLOR
 70
0
  0
ENDTAB
  0
TABLE
  2
DIMSTYLE
 70
1
  0
DIMSTYLE
105
2B
  2
Standard
 70
0
  3

  4

  5

  6

  7

 40
1.0
 41
2.5
 42
0.625
 43
3.75
 44
1.25
 45
0.0
 46
0.0
 47
0.0
 48
0.0
140
2.5
141
2.5
142
0.0
143
0.03937007874
144
1.0
145
0.0
146
1.0
147
0.625
 71
0
 72
0
 73
0
 74
0
 75
0
 76
0
 77
1
 78
8
170
0
171
3
172
1
173
0
174
0
175
0
176
0
177
0
178
0
  0
ENDTAB
  0
ENDSEC
  0
SECTION
  2
BLOCKS
  0
BLOCK
  5
18
  8
0
  2
$Model_Space
 70
0
 10
0.0
 20
0.0
 30
0.0
  3
$Model_Space
  1

  0
ENDBLK
  5
19
  8
0
  0
BLOCK
  5
1C
  8
0
  2
$Paper_Space
 70
0
 10
0.0
 20
0.0
 30
0.0
  3
$Paper_Space
  1

  0
ENDBLK
  5
1D
  8
0
  0
ENDSEC
  0
SECTION
  2
ENTITIES
  0
LINE
  5
2D
  8
0
 10
-0.275322036
 20
-0.03666856700000001
 30
-3.0091875744073757
 11
-0.2753154935
 21
-0.03927216010000001
 31
-2.999904282860261
  0
LINE
  5
2E
  8
0
 10
-0.2753154935
 20
-0.03927216010000001
 30
-2.999904282860261
 11
-0.2735377989
 21
-0.0780357577
 31
-2.8636915262952494
  0
LINE
  5
2F
  8
0
 10
-0.2735377989
 20
-0.0780357577
 30
-2.8636915262952494
 11
-0.2734153343
 21
-0.08064457000000001
 31
-2.854772888789661
  0
LINE
  5
30
  8
0
 10
-0.2734153343
 20
-0.08064457000000001
 30
-2.854772888789661
 11
-0.2683007747
 21
-0.11908607992
 31
-2.72386239321222
  0
LINE
  5
31
  8
0
 10
-0.2683007747
 20
-0.11908607992
 30
-2.72386239321222
 11
-0.2679468192
 21
-0.12167598800000001
 31
-2.7153302624893647
  0
LINE
  5
32
  8
0
 10
-0.2679468192
 20
-0.12167598800000001
 30
-2.7153302624893647
 11
-0.2577880872
 21
-0.15895432285
 31
-2.589050453866458
  0
LINE
  5
33
  8
0
 10
-0.2577880872
 20
-0.15895432285
 30
-2.589050453866458
 11
-0.2570817771
 21
-0.16146370227
 31
-2.5807933443590887
  0
LINE
  5
34
  8
0
 10
-0.2570817771
 20
-0.16146370227
 30
-2.5807933443590887
 11
-0.2405317909
 21
-0.19597045904000002
 31
-2.4579293366925374
  0
LINE
  5
35
  8
0
 10
-0.2405317909
 20
-0.19597045904000002
 30
-2.4579293366925374
 11
-0.2393783303
 21
-0.19828389822
 31
-2.449815316694983
  0
LINE
  5
36
  8
0
 10
-0.2393783303
 20
-0.19828389822
 30
-2.449815316694983
 11
-0.2162947188
 21
-0.22801859773
 31
-2.329814098876687
  0
LINE
  5
37
  8
0
 10
-0.2162947188
 20
-0.22801859773
 30
-2.329814098876687
 11
-0.2146854348
 21
-0.22999391072
 31
-2.3217822045673
  0
LINE
  5
38
  8
0
 10
-0.2146854348
 20
-0.22999391072
 30
-2.3217822045673
 11
-0.1864325568
 21
-0.2536818514
 31
-2.2045677025988435
  0
LINE
  5
39
  8
0
 10
-0.1864325568
 20
-0.2536818514
 30
-2.2045677025988435
 11
-0.18446581
 21
-0.25522936744
 31
-2.1966250083250243
  0
LINE
  5
3A
  8
0
 10
-0.18446581
 20
-0.25522936744
 30
-2.1966250083250243
 11
-0.1529893584
 21
-0.2730582943
 31
-2.0814984950348085
  0
LINE
  5
3B
  8
0
 10
-0.1529893584
 20
-0.2730582943
 30
-2.0814984950348085
 11
-0.1508045504
 21
-0.27419258018000003
 31
-2.0736357052821335
  0
LINE
  5
3C
  8
0
 10
-0.1508045504
 20
-0.27419258018000003
 30
-2.0736357052821335
 11
-0.1175409529
 21
-0.2872604958
 31
-1.959190476223854
  0
LINE
  5
3D
  8
0
 10
-0.1175409529
 20
-0.2872604958
 30
-1.959190476223854
 11
-0.1152414107
 21
-0.2880608123
 31
-1.9513538348449053
  0
LINE
  5
3E
  8
0
 10
-0.1152414107
 20
-0.2880608123
 30
-1.9513538348449053
 11
-0.08081527273
 21
-0.297524504
 31
-1.8360226889439935
  0
LINE
  5
3F
  8
0
 10
-0.08081527273
 20
-0.297524504
 30
-1.8360226889439935
 11
-0.07844859121
 21
-0.2980753177
 31
-1.8281442578136384
  0
LINE
  5
40
  8
0
 10
-0.07844859121
 20
-0.2980753177
 30
-1.8281442578136384
 11
-0.04280408523
 21
-0.3048794809
 31
-1.7102813604992952
  0
LINE
  5
41
  8
0
 10
-0.04280408523
 20
-0.3048794809
 30
-1.7102813604992952
 11
-0.04037336156
 21
-0.3052542392
 31
-1.7022945294086993
  0
LINE
  5
42
  8
0
 10
-0.04037336156
 20
-0.3052542392
 30
-1.7022945294086993
 11
-0.002544703198
 21
-0.3086352718
 31
-1.5790411574076506
  0
LINE
  5
43
  8
0
 10
-0.002544703198
 20
-0.3086352718
 30
-1.5790411574076506
 11
1.387778781e-17
 21
-0.3088164571
 31
-1.5707963267948966
  0
LINE
  5
44
  8
0
 10
1.387778781e-17
 20
-0.3088164571
 30
-1.5707963267948966
 11
0.002544703198
 21
-0.3086352718
 31
-1.5625514961821427
  0
LINE
  5
45
  8
0
 10
0.002544703198
 20
-0.3086352718
 30
-1.5625514961821427
 11
0.04037336156
 21
-0.3052542392
 31
-1.439298124181094
  0
LINE
  5
46
  8
0
 10
0.04037336156
 20
-0.3052542392
 30
-1.439298124181094
 11
0.04280408523
 21
-0.3048794809
 31
-1.4313112930904979
  0
LINE
  5
47
  8
0
 10
0.04280408523
 20
-0.3048794809
 30
-1.4313112930904979
 11
0.07844859121
 21
-0.2980753177
 31
-1.3134483957761547
  0
LINE
  5
48
  8
0
 10
0.07844859121
 20
-0.2980753177
 30
-1.3134483957761547
 11
0.08081527273
 21
-0.297524504
 31
-1.3055699646457999
  0
LINE
  5
49
  8
0
 10
0.08081527273
 20
-0.297524504
 30
-1.3055699646457999
 11
0.1152414107
 21
-0.2880608123
 31
-1.190238818744888
  0
LINE
  5
4A
  8
0
 10
0.1152414107
 20
-0.2880608123
 30
-1.190238818744888
 11
0.1175409529
 21
-0.2872604958
 31
-1.1824021773659394
  0
LINE
  5
4B
  8
0
 10
0.1175409529
 20
-0.2872604958
 30
-1.1824021773659394
 11
0.1508045504
 21
-0.27419258018000003
 31
-1.0679569483076599
  0
LINE
  5
4C
  8
0
 10
0.1508045504
 20
-0.27419258018000003
 30
-1.0679569483076599
 11
0.1529893584
 21
-0.2730582943
 31
-1.0600941585549848
  0
LINE
  5
4D
  8
0
 10
0.1529893584
 20
-0.2730582943
 30
-1.0600941585549848
 11
0.18446581
 21
-0.25522936744
 31
-0.9449676452647688
  0
LINE
  5
4E
  8
0
 10
0.18446581
 20
-0.25522936744
 30
-0.9449676452647688
 11
0.1864325568
 21
-0.25368185141
 31
-0.9370249510097602
  0
LINE
  5
4F
  8
0
 10
0.1864325568
 20
-0.25368185141
 30
-0.9370249510097602
 11
0.2146854348
 21
-0.22999391072
 31
-0.8198104490224933
  0
LINE
  5
50
  8
0
 10
0.2146854348
 20
-0.22999391072
 30
-0.8198104490224933
 11
0.2162947188
 21
-0.22801859773
 31
-0.8117785547131062
  0
LINE
  5
51
  8
0
 10
0.2162947188
 20
-0.22801859773
 30
-0.8117785547131062
 11
0.2393783303
 21
-0.19828389816
 31
-0.691777336746156
  0
LINE
  5
52
  8
0
 10
0.2393783303
 20
-0.19828389816
 30
-0.691777336746156
 11
0.2405317908
 21
-0.19597045902000002
 31
-0.683663317050865
  0
LINE
  5
53
  8
0
 10
0.2405317908
 20
-0.19597045902000002
 30
-0.683663317050865
 11
0.2570817776
 21
-0.16146370297
 31
-0.5607993103073505
  0
LINE
  5
54
  8
0
 10
0.2570817776
 20
-0.16146370297
 30
-0.5607993103073505
 11
0.2577880877
 21
-0.1589543235
 31
-0.5525422006836925
  0
LINE
  5
55
  8
0
 10
0.2577880877
 20
-0.1589543235
 30
-0.5525422006836925
 11
0.2679468192
 21
-0.12167598800000001
 31
-0.4262623911004284
  0
LINE
  5
56
  8
0
 10
0.2679468192
 20
-0.12167598800000001
 30
-0.4262623911004284
 11
0.2683007746
 21
-0.11908607969000001
 31
-0.4177302597996176
  0
LINE
  5
57
  8
0
 10
0.2683007746
 20
-0.11908607969000001
 30
-0.4177302597996176
 11
0.273415331
 21
-0.08064456552
 31
-0.2868197530012197
  0
LINE
  5
58
  8
0
 10
0.273415331
 20
-0.08064456552
 30
-0.2868197530012197
 11
0.2735377961
 21
-0.0780357539
 31
-0.2779011171484791
  0
LINE
  5
59
  8
0
 10
0.2735377961
 20
-0.0780357539
 30
-0.2779011171484791
 11
0.2753154984
 21
-0.0392721667
 31
-0.141688391735858
  0
LINE
  5
5A
  8
0
 10
0.2753154984
 20
-0.0392721667
 30
-0.141688391735858
 11
0.2753220406
 21
-0.03666857310000002
 31
-0.13240509876571657
  0
LINE
  5
5B
  8
0
 10
0.2753220406
 20
-0.03666857310000002
 30
-0.13240509876571657
 11
0.2753939521
 21
0.002109522099999983
 31
0.0076598662608066736
  0
LINE
  5
5C
  8
0
 10
0.2753939521
 20
0.002109522099999983
 30
0.0076598662608066736
 11
0.2748194238
 21
0.040842210200000006
 31
0.14753487058926368
  0
LINE
  5
5D
  8
0
 10
0.2748194238
 20
0.040842210200000006
 30
0.14753487058926368
 11
0.274785516
 21
0.0434227264
 31
0.15672806446927956
  0
LINE
  5
5E
  8
0
 10
0.274785516
 20
0.0434227264
 30
0.15672806446927956
 11
0.2725354919
 21
0.08203367010000001
 31
0.29237561158189035
  0
LINE
  5
5F
  8
0
 10
0.2725354919
 20
0.08203367010000001
 30
0.29237561158189035
 11
0.2723893145
 21
0.08459338449999998
 31
0.30111702372374677
  0
LINE
  5
60
  8
0
 10
0.2723893145
 20
0.08459338449999998
 30
0.30111702372374677
 11
0.2668594599
 21
0.12278374860000002
 31
0.43122656482749044
  0
LINE
  5
61
  8
0
 10
0.2668594599
 20
0.12278374860000002
 30
0.43122656482749044
 11
0.2664910108
 21
0.1253021318
 31
0.4395187219642206
  0
LINE
  5
62
  8
0
 10
0.2664910108
 20
0.1253021318
 30
0.4395187219642206
 11
0.2559964245
 21
0.1622441844
 31
0.5648846973821622
  0
LINE
  5
63
  8
0
 10
0.2559964245
 20
0.1622441844
 30
0.5648846973821622
 11
0.2552917272
 21
0.1646656428
 31
0.5728591045156333
  0
LINE
  5
64
  8
0
 10
0.2552917272
 20
0.1646656428
 30
0.5728591045156333
 11
0.2385022989
 21
0.19876926559999997
 31
0.6947812061368747
  0
LINE
  5
65
  8
0
 10
0.2385022989
 20
0.19876926559999997
 30
0.6947812061368747
 11
0.2373727722
 21
0.20098737909999997
 31
0.702584575452597
  0
LINE
  5
66
  8
0
 10
0.2373727722
 20
0.20098737909999997
 30
0.702584575452597
 11
0.2141601442
 21
0.23027372410000002
 31
0.8216387067705319
  0
LINE
  5
67
  8
0
 10
0.2141601442
 20
0.23027372410000002
 30
0.8216387067705319
 11
0.2125994446
 21
0.23215695660000002
 31
0.8293433896272008
  0
LINE
  5
68
  8
0
 10
0.2125994446
 20
0.23215695660000002
 30
0.8293433896272008
 11
0.1843381864
 21
0.2553787346
 31
0.9455738546181853
  0
LINE
  5
69
  8
0
 10
0.1843381864
 20
0.2553787346
 30
0.9455738546181853
 11
0.1824413748
 21
0.2568459603
 31
0.9531814616893779
  0
LINE
  5
6A
  8
0
 10
0.1824413748
 20
0.2568459603
 30
0.9531814616893779
 11
0.1510804468
 21
0.27422416099999997
 31
1.0672334266465795
  0
LINE
  5
6B
  8
0
 10
0.1510804468
 20
0.27422416099999997
 30
1.0672334266465795
 11
0.1489805582
 21
0.2752934793
 31
1.0747576925744442
  0
LINE
  5
6C
  8
0
 10
0.1489805582
 20
0.2752934793
 30
1.0747576925744442
 11
0.1159503825
 21
0.2879619344
 31
1.1880000572918685
  0
LINE
  5
6D
  8
0
 10
0.1159503825
 20
0.2879619344
 30
1.1880000572918685
 11
0.1137451188
 21
0.2887124189
 31
1.1954957502721
  0
LINE
  5
6E
  8
0
 10
0.1137451188
 20
0.2887124189
 30
1.1954957502721
 11
0.07965272036
 21
0.2978617979
 31
1.3094953898023352
  0
LINE
  5
6F
  8
0
 10
0.07965272036
 20
0.2978617979
 30
1.3094953898023352
 11
0.07738617053
 21
0.2983766199
 31
1.3170303166321655
  0
LINE
  5
70
  8
0
 10
0.07738617053
 20
0.2983766199
 30
1.3170303166321655
 11
0.04214809448
 21
0.3049804591
 31
1.433466877581662
  0
LINE
  5
71
  8
0
 10
0.04214809448
 20
0.3049804591
 30
1.433466877581662
 11
0.03982182947
 21
0.305331684
 31
1.4411068074160014
  0
LINE
  5
72
  8
0
 10
0.03982182947
 20
0.305331684
 30
1.4411068074160014
 11
0.002435242065
 21
0.3086450541
 31
1.5629063849338212
  0
LINE
  5
73
  8
0
 10
0.002435242065
 20
0.3086450541
 30
1.5629063849338212
 11
-3.330669074e-16
 21
0.3088164571
 31
1.5707963267948977
  0
LINE
  5
74
  8
0
 10
-3.330669074e-16
 20
0.3088164571
 30
1.5707963267948977
 11
-0.002435242065
 21
0.3086450541
 31
1.5786862686559722
  0
LINE
  5
75
  8
0
 10
-0.002435242065
 20
0.3086450541
 30
1.5786862686559722
 11
-0.03982182947
 21
0.305331684
 31
1.700485846173792
  0
LINE
  5
76
  8
0
 10
-0.03982182947
 20
0.305331684
 30
1.700485846173792
 11
-0.04214809448
 21
0.3049804591
 31
1.7081257760081314
  0
LINE
  5
77
  8
0
 10
-0.04214809448
 20
0.3049804591
 30
1.7081257760081314
 11
-0.07738617053
 21
0.2983766199
 31
1.8245623369576276
  0
LINE
  5
78
  8
0
 10
-0.07738617053
 20
0.2983766199
 30
1.8245623369576276
 11
-0.07965272036
 21
0.2978617979
 31
1.8320972637874582
  0
LINE
  5
79
  8
0
 10
-0.07965272036
 20
0.2978617979
 30
1.8320972637874582
 11
-0.1137451188
 21
0.2887124189
 31
1.9460969033176931
  0
LINE
  5
7A
  8
0
 10
-0.1137451188
 20
0.2887124189
 30
1.9460969033176931
 11
-0.1159503825
 21
0.2879619344
 31
1.9535925962979248
  0
LINE
  5
7B
  8
0
 10
-0.1159503825
 20
0.2879619344
 30
1.9535925962979248
 11
-0.1489805582
 21
0.2752934793
 31
2.066834961015349
  0
LINE
  5
7C
  8
0
 10
-0.1489805582
 20
0.2752934793
 30
2.066834961015349
 11
-0.1510804468
 21
0.27422416099999997
 31
2.074359226943214
  0
LINE
  5
7D
  8
0
 10
-0.1510804468
 20
0.27422416099999997
 30
2.074359226943214
 11
-0.1824413748
 21
0.2568459603
 31
2.1884111919004154
  0
LINE
  5
7E
  8
0
 10
-0.1824413748
 20
0.2568459603
 30
2.1884111919004154
 11
-0.1843381864
 21
0.2553787346
 31
2.196018798971608
  0
LINE
  5
7F
  8
0
 10
-0.1843381864
 20
0.2553787346
 30
2.196018798971608
 11
-0.2125994446
 21
0.23215695660000002
 31
2.3122492639625922
  0
LINE
  5
80
  8
0
 10
-0.2125994446
 20
0.23215695660000002
 30
2.3122492639625922
 11
-0.2141601442
 21
0.23027372410000002
 31
2.3199539468192616
  0
LINE
  5
81
  8
0
 10
-0.2141601442
 20
0.23027372410000002
 30
2.3199539468192616
 11
-0.2373727722
 21
0.20098737919999998
 31
2.439008077891829
  0
LINE
  5
82
  8
0
 10
-0.2373727722
 20
0.20098737919999998
 30
2.439008077891829
 11
-0.2385022989
 21
0.19876926569999998
 31
2.4468114472054903
  0
LINE
  5
83
  8
0
 10
-0.2385022989
 20
0.19876926569999998
 30
2.4468114472054903
 11
-0.2552917268
 21
0.16466564169999998
 31
2.5687335514033163
  0
LINE
  5
84
  8
0
 10
-0.2552917268
 20
0.16466564169999998
 30
2.5687335514033163
 11
-0.2559964242
 21
0.1622441833
 31
2.5767079587433326
  0
LINE
  5
85
  8
0
 10
-0.2559964242
 20
0.1622441833
 30
2.5767079587433326
 11
-0.2664910108
 21
0.1253021318
 31
2.7020739316255726
  0
LINE
  5
86
  8
0
 10
-0.2664910108
 20
0.1253021318
 30
2.7020739316255726
 11
-0.2668594601
 21
0.122783749
 31
2.7103660878098497
  0
LINE
  5
87
  8
0
 10
-0.2668594601
 20
0.122783749
 30
2.7103660878098497
 11
-0.2723893171
 21
0.08459339170000002
 31
2.840475608462016
  0
LINE
  5
88
  8
0
 10
-0.2723893171
 20
0.08459339170000002
 30
2.840475608462016
 11
-0.2725354941
 21
0.08203367649999999
 31
2.849217022703529
  0
LINE
  5
89
  8
0
 10
-0.2725354941
 20
0.08203367649999999
 30
2.849217022703529
 11
-0.2747855122
 21
0.0434227157
 31
2.984864624979217
  0
LINE
  5
8A
  8
0
 10
-0.2747855122
 20
0.0434227157
 30
2.984864624979217
 11
-0.2748194202
 21
0.04084219989999999
 31
2.9940578177650843
  0
LINE
  5
8B
  8
0
 10
-0.2748194202
 20
0.04084219989999999
 30
2.9940578177650843
 11
-0.2753939521
 21
0.002109522099999983
 31
3.1339327873289866
  0
LINE
  5
8C
  8
0
 10
-0.2753939521
 20
0.002109522099999983
 30
3.1339327873289866
 11
-0.275322036
 21
-0.03666856700000001
 31
-3.0091875744073757
  0
LINE
  5
8D
  8
0
 10
0.2
 20
0.2
 30
0.0
 11
0.2
 21
-0.2
 31
0.0
  0
LINE
  5
8E
  8
0
 10
0.2
 20
-0.2
 30
0.0
 11
-0.2
 21
-0.2
 31
0.0
  0
LINE
  5
8F
  8
0
 10
-0.2
 20
-0.2
 30
0.0
 11
-0.2
 21
0.2
 31
0.0
  0
LINE
  5
90
  8
0
 10
-0.2
 20
0.2
 30
0.0
 11
0.2
 21
0.2
 31
0.0
  0
ENDSEC
  0
EOF
