  0
SECTION
  2
HEADER
  9
$ACADVER
  1
AC1009
  9
$DWGCODEPAGE
  3
ANSI_1252
  9
$INSBASE
 10
0.0
 20
0.0
 30
0.0
  9
$EXTMIN
 10
-100
 20
-100
 30
-100
  9
$EXTMAX
 10
100
 20
100
 30
100
  9
$LIMMIN
 10
0.0
 20
0.0
  9
$LIMMAX
 10
420.0
 20
297.0
  9
$ORTHOMODE
 70
0
  9
$REGENMODE
 70
1
  9
$DRAGMODE
 70
2
  9
$FILLMODE
 70
1
  9
$QTEXTMODE
 70
0
  9
$MIRRTEXT
 70
1
  9
$OSMODE
 70
20583
  9
$LTSCALE
 40
1.0
  9
$ATTMODE
 70
1
  9
$TEXTSIZE
 40
2.5
  9
$TRACEWID
 40
1.0
  9
$TEXTSTYLE
  7
Standard
  9
$CLAYER
  8
0
  9
$CELTYPE
  6
ByLayer
  9
$CECOLOR
 62
256
  9
$DIMSCALE
 40
1.0
  9
$DIMASZ
 40
2.5
  9
$DIMEXO
 40
0.625
  9
$DIMDLI
 40
3.75
  9
$DIMRND
 40
0.0
  9
$DIMDLE
 40
0.0
  9
$DIMEXE
 40
1.25
  9
$DIMTP
 40
0.0
  9
$DIMTM
 40
0.0
  9
$DIMTXT
 40
2.5
  9
$DIMCEN
 40
2.5
  9
$DIMTSZ
 40
0.0
  9
$DIMTOL
 70
0
  9
$DIMLIM
 70
0
  9
$DIMTIH
 70
0
  9
$DIMTOH
 70
0
  9
$DIMSE1
 70
0
  9
$DIMSE2
 70
0
  9
$DIMTAD
 70
1
  9
$DIMZIN
 70
8
  9
$DIMBLK
  1

  9
$DIMASO
 70
1
  9
$DIMSHO
 70
1
  9
$DIMPOST
  1

  9
$DIMAPOST
  1

  9
$DIMALT
 70
0
  9
$DIMALTD
 70
3
  9
$DIMALTF
 40
0.03937007874
  9
$DIMLFAC
 40
1.0
  9
$DIMTOFL
 70
1
  9
$DIMTVP
 40
0.0
  9
$DIMTIX
 70
0
  9
$DIMSOXD
 70
0
  9
$DIMSAH
 70
0
  9
$DIMBLK1
  1

  9
$DIMBLK2
  1

  9
$DIMSTYLE
  2
ISO-25
  9
$DIMCLRD
 70
0
  9
$DIMCLRE
 70
0
  9
$DIMCLRT
 70
0
  9
$DIMTFAC
 40
1.0
  9
$DIMGAP
 40
0.625
  9
$COORDS
 70
1
  9
$ATTDIA
 70
0
  9
$ATTREQ
 70
1
  9
$HANDLING
 70
1
  9
$LUNITS
 70
2
  9
$LUPREC
 70
4
  9
$SKETCHINC
 40
1.0
  9
$FILLETRAD
 40
10.0
  9
$AUNITS
 70
0
  9
$AUPREC
 70
2
  9
$MENU
  1
.
  9
$ELEVATION
 40
0.0
  9
$PELEVATION
 40
0.0
  9
$THICKNESS
 40
0.0
  9
$LIMCHECK
 70
0
  9
$CHAMFERA
 40
0.0
  9
$CHAMFERB
 40
0.0
  9
$SKPOLY
 70
0
  9
$TDCREATE
 40
2459751.94568287
  9
$TDUPDATE
 40
2459751.94568287
  9
$TDINDWG
 40
0.0
  9
$TDUSRTIMER
 40
0.0
  9
$USRTIMER
 70
1
  9
$ANGBASE
 50
0.0
  9
$ANGDIR
 70
0
  9
$PDMODE
 70
0
  9
$PDSIZE
 40
0.0
  9
$PLINEWID
 40
0.0
  9
$SPLFRAME
 70
0
  9
$SPLINETYPE
 70
6
  9
$SPLINESEGS
 70
8
  9
$HANDSEED
  5
72
  9
$SURFTAB1
 70
6
  9
$SURFTAB2
 70
6
  9
$SURFTYPE
 70
6
  9
$SURFU
 70
6
  9
$SURFV
 70
6
  9
$UCSNAME
  2

  9
$UCSORG
 10
0.0
 20
0.0
 30
0.0
  9
$UCSXDIR
 10
1.0
 20
0.0
 30
0.0
  9
$UCSYDIR
 10
0.0
 20
1.0
 30
0.0
  9
$PUCSNAME
  2

  9
$PUCSORG
 10
0.0
 20
0.0
 30
0.0
  9
$PUCSXDIR
 10
1.0
 20
0.0
 30
0.0
  9
$PUCSYDIR
 10
0.0
 20
1.0
 30
0.0
  9
$USERI1
 70
0
  9
$USERI2
 70
0
  9
$USERI3
 70
0
  9
$USERI4
 70
0
  9
$USERI5
 70
0
  9
$USERR1
 40
0.0
  9
$USERR2
 40
0.0
  9
$USERR3
 40
0.0
  9
$USERR4
 40
0.0
  9
$USERR5
 40
0.0
  9
$WORLDVIEW
 70
1
  9
$SHADEDGE
 70
3
  9
$SHADEDIF
 70
70
  9
$TILEMODE
 70
1
  9
$MAXACTVP
 70
64
  9
$PLIMCHECK
 70
0
  9
$PEXTMIN
 10
1e+20
 20
1e+20
 30
1e+20
  9
$PEXTMAX
 10
-1e+20
 20
-1e+20
 30
-1e+20
  9
$PLIMMIN
 10
0.0
 20
0.0
  9
$PLIMMAX
 10
420.0
 20
297.0
  9
$UNITMODE
 70
0
  9
$VISRETAIN
 70
1
  9
$PLINEGEN
 70
0
  9
$PSLTSCALE
 70
1
  0
ENDSEC
  0
SECTION
  2
TABLES
  0
TABLE
  2
VPORT
 70
1
  0
VPORT
  5
23
  2
*Active
 70
0
 10
0.0
 20
0.0
 11
1.0
 21
1.0
 12
70.0
 22
50.0
 13
0.0
 23
0.0
 14
0.5
 24
0.5
 15
0.5
 25
0.5
 16
0.0
 26
0.0
 36
1.0
 17
0.0
 27
0.0
 37
0.0
 40
1.0
 41
1.34
 42
50.0
 43
0.0
 44
0.0
 50
0.0
 51
0.0
 71
0
 72
1000
 73
1
 74
3
 75
0
 76
0
 77
0
 78
0
  0
ENDTAB
  0
TABLE
  2
LTYPE
 70
3
  0
LTYPE
  5
24
  2
ByBlock
 70
0
  3

 72
65
 73
0
 40
0.0
  0
LTYPE
  5
25
  2
ByLayer
 70
0
  3

 72
65
 73
0
 40
0.0
  0
LTYPE
  5
26
  2
Continuous
 70
0
  3

 72
65
 73
0
 40
0.0
  0
ENDTAB
  0
TABLE
  2
LAYER
 70
2
  0
LAYER
  5
27
  2
0
 70
0
 62
7
  6
Continuous
  0
LAYER
  5
28
  2
Defpoints
 70
0
 62
7
  6
Continuous
  0
ENDTAB
  0
TABLE
  2
STYLE
 70
1
  0
STYLE
  5
29
  2
Standard
 70
0
 40
0.0
 41
1.0
 50
0.0
 71
0
 42
2.5
  3
txt
  4

  0
ENDTAB
  0
TABLE
  2
VIEW
 70
0
  0
ENDTAB
  0
TABLE
  2
UCS
 70
0
  0
ENDTAB
  0
TABLE
  2
APPID
 70
2
  0
APPID
  5
2A
  2
ACAD
 70
0
  0
APPID
  5
71
  2
HATCHBACKGROUNDCOLOR
 70
0
  0
ENDTAB
  0
TABLE
  2
DIMSTYLE
 70
1
  0
DIMSTYLE
105
2B
  2
Standard
 70
0
  3

  4

  5

  6

  7

 40
1.0
 41
2.5
 42
0.625
 43
3.75
 44
1.25
 45
0.0
 46
0.0
 47
0.0
 48
0.0
140
2.5
141
2.5
142
0.0
143
0.03937007874
144
1.0
145
0.0
146
1.0
147
0.625
 71
0
 72
0
 73
0
 74
0
 75
0
 76
0
 77
1
 78
8
170
0
171
3
172
1
173
0
174
0
175
0
176
0
177
0
178
0
  0
ENDTAB
  0
ENDSEC
  0
SECTION
  2
BLOCKS
  0
BLOCK
  5
18
  8
0
  2
$Model_Space
 70
0
 10
0.0
 20
0.0
 30
0.0
  3
$Model_Space
  1

  0
ENDBLK
  5
19
  8
0
  0
BLOCK
  5
1C
  8
0
  2
$Paper_Space
 70
0
 10
0.0
 20
0.0
 30
0.0
  3
$Paper_Space
  1

  0
ENDBLK
  5
1D
  8
0
  0
ENDSEC
  0
SECTION
  2
ENTITIES
  0
LINE
  5
2D
  8
0
 10
-1.8007356394999996
 20
-0.019130690095000014
 30
0.0
 11
-1.8122355104999999
 21
-0.03860300949500001
 31
0.0
  0
LINE
  5
2E
  8
0
 10
-1.8122355104999999
 20
-0.03860300949500001
 30
0.0
 11
-1.7990738634999999
 21
-0.05698837269500001
 31
0.0
  0
LINE
  5
2F
  8
0
 10
-1.7990738634999999
 20
-0.05698837269500001
 30
0.0
 11
-1.7733460324999997
 21
-0.09335963269500003
 31
0.0
  0
LINE
  5
30
  8
0
 10
-1.7733460324999997
 20
-0.09335963269500003
 30
0.0
 11
-1.7425436584999998
 21
-0.10681040809500003
 31
0.0
  0
LINE
  5
31
  8
0
 10
-1.7425436584999998
 20
-0.10681040809500003
 30
0.0
 11
-1.6820298594999996
 21
-0.133353349595
 31
0.0
  0
LINE
  5
32
  8
0
 10
-1.6820298594999996
 20
-0.133353349595
 30
0.0
 11
-1.6357795894999998
 21
-0.143823938995
 31
0.0
  0
LINE
  5
33
  8
0
 10
-1.6357795894999998
 20
-0.143823938995
 30
0.0
 11
-1.5447228984999999
 21
-0.163922588795
 31
0.0
  0
LINE
  5
34
  8
0
 10
-1.5447228984999999
 20
-0.163922588795
 30
0.0
 11
-1.4803870034999997
 21
-0.171868892095
 31
0.0
  0
LINE
  5
35
  8
0
 10
-1.4803870034999997
 20
-0.171868892095
 30
0.0
 11
-1.3537505264999998
 21
-0.186493178295
 31
0.0
  0
LINE
  5
36
  8
0
 10
-1.3537505264999998
 20
-0.186493178295
 30
0.0
 11
-1.2687572544999997
 21
-0.191411512495
 31
0.0
  0
LINE
  5
37
  8
0
 10
-1.2687572544999997
 20
-0.191411512495
 30
0.0
 11
-1.1015431314999997
 21
-0.199731856295
 31
0.0
  0
LINE
  5
38
  8
0
 10
-1.1015431314999997
 20
-0.199731856295
 30
0.0
 11
-0.9954086644999998
 21
-0.200992332195
 31
0.0
  0
LINE
  5
39
  8
0
 10
-0.9954086644999998
 20
-0.200992332195
 30
0.0
 11
-0.7866813534999997
 21
-0.202096587795
 31
0.0
  0
LINE
  5
3A
  8
0
 10
-0.7866813534999997
 20
-0.202096587795
 30
0.0
 11
-0.6626360985000002
 21
-0.199607073995
 31
0.0
  0
LINE
  5
3B
  8
0
 10
-0.6626360985000002
 20
-0.199607073995
 30
0.0
 11
-0.4187204184999995
 21
-0.19380252069500004
 31
0.0
  0
LINE
  5
3C
  8
0
 10
-0.4187204184999995
 20
-0.19380252069500004
 30
0.0
 11
-0.2842968824999996
 21
-0.18804750929500003
 31
0.0
  0
LINE
  5
3D
  8
0
 10
-0.2842968824999996
 20
-0.18804750929500003
 30
0.0
 11
-0.019964001499999995
 21
-0.17650872879500001
 31
0.0
  0
LINE
  5
3E
  8
0
 10
-0.019964001499999995
 20
-0.17650872879500001
 30
0.0
 11
0.24414909149999975
 21
-0.160677456095
 31
0.0
  0
LINE
  5
3F
  8
0
 10
0.24414909149999975
 20
-0.160677456095
 30
0.0
 11
0.37845003950000056
 21
-0.15252664129500004
 31
0.0
  0
LINE
  5
40
  8
0
 10
0.37845003950000056
 20
-0.15252664129500004
 30
0.0
 11
0.6218549045000001
 21
-0.135565350995
 31
0.0
  0
LINE
  5
41
  8
0
 10
0.6218549045000001
 20
-0.135565350995
 30
0.0
 11
0.7456095554999997
 21
-0.12663460709500002
 31
0.0
  0
LINE
  5
42
  8
0
 10
0.7456095554999997
 20
-0.12663460709500002
 30
0.0
 11
0.9537745885
 21
-0.11092482789500002
 31
0.0
  0
LINE
  5
43
  8
0
 10
0.9537745885
 20
-0.11092482789500002
 30
0.0
 11
1.0595966895000002
 21
-0.10250008379500003
 31
0.0
  0
LINE
  5
44
  8
0
 10
1.0595966895000002
 20
-0.10250008379500003
 30
0.0
 11
1.2265300715
 21
-0.08926624369500002
 31
0.0
  0
LINE
  5
45
  8
0
 10
1.2265300715
 20
-0.08926624369500002
 30
0.0
 11
1.3113800945000005
 21
-0.082067362295
 31
0.0
  0
LINE
  5
46
  8
0
 10
1.3113800945000005
 20
-0.082067362295
 30
0.0
 11
1.4384698895000003
 21
-0.07163509679500002
 31
0.0
  0
LINE
  5
47
  8
0
 10
1.4384698895000003
 20
-0.07163509679500002
 30
0.0
 11
1.5030603605000001
 21
-0.065900766695
 31
0.0
  0
LINE
  5
48
  8
0
 10
1.5030603605000001
 20
-0.065900766695
 30
0.0
 11
1.5960389954999998
 21
-0.058059515895000025
 31
0.0
  0
LINE
  5
49
  8
0
 10
1.5960389954999998
 20
-0.058059515895000025
 30
0.0
 11
1.6432887925
 21
-0.05371860309500004
 31
0.0
  0
LINE
  5
4A
  8
0
 10
1.6432887925
 20
-0.05371860309500004
 30
0.0
 11
1.7093485005
 21
-0.048029691794999996
 31
0.0
  0
LINE
  5
4B
  8
0
 10
1.7093485005
 20
-0.048029691794999996
 30
0.0
 11
1.7429162385000003
 21
-0.044865509095000033
 31
0.0
  0
LINE
  5
4C
  8
0
 10
1.7429162385000003
 20
-0.044865509095000033
 30
0.0
 11
1.7888804045000004
 21
-0.040845715795000015
 31
0.0
  0
LINE
  5
4D
  8
0
 10
1.7888804045000004
 20
-0.040845715795000015
 30
0.0
 11
1.8122355104999999
 21
-0.03860300949500001
 31
0.0
  0
LINE
  5
4E
  8
0
 10
1.8122355104999999
 20
-0.03860300949500001
 30
0.0
 11
1.7889218735000005
 21
-0.034947365195000024
 31
0.0
  0
LINE
  5
4F
  8
0
 10
1.7889218735000005
 20
-0.034947365195000024
 30
0.0
 11
1.7430747325000002
 21
-0.026940165195000032
 31
0.0
  0
LINE
  5
50
  8
0
 10
1.7430747325000002
 20
-0.026940165195000032
 30
0.0
 11
1.7095490825000006
 21
-0.02182613459499999
 31
0.0
  0
LINE
  5
51
  8
0
 10
1.7095490825000006
 20
-0.02182613459499999
 30
0.0
 11
1.6436081475000002
 21
-0.010634621195000027
 31
0.0
  0
LINE
  5
52
  8
0
 10
1.6436081475000002
 20
-0.010634621195000027
 30
0.0
 11
1.5963841675000001
 21
-0.0037107696950000046
 31
0.0
  0
LINE
  5
53
  8
0
 10
1.5963841675000001
 20
-0.0037107696950000046
 30
0.0
 11
1.5034783904999998
 21
0.011419708604999995
 31
0.0
  0
LINE
  5
54
  8
0
 10
1.5034783904999998
 20
0.011419708604999995
 30
0.0
 11
1.4388641245000002
 21
0.020379296904999983
 31
0.0
  0
LINE
  5
55
  8
0
 10
1.4388641245000002
 20
0.020379296904999983
 30
0.0
 11
1.3117071795
 21
0.03991345860499998
 31
0.0
  0
LINE
  5
56
  8
0
 10
1.3117071795
 20
0.03991345860499998
 30
0.0
 11
1.2267307225000001
 21
0.05081287200499998
 31
0.0
  0
LINE
  5
57
  8
0
 10
1.2267307225000001
 20
0.05081287200499998
 30
0.0
 11
1.0594405375000004
 21
0.07448986370499999
 31
0.0
  0
LINE
  5
58
  8
0
 10
1.0594405375000004
 20
0.07448986370499999
 30
0.0
 11
0.9533235055000002
 21
0.08667570220499998
 31
0.0
  0
LINE
  5
59
  8
0
 10
0.9533235055000002
 20
0.08667570220499998
 30
0.0
 11
0.7443261594999999
 21
0.11299954400499998
 31
0.0
  0
LINE
  5
5A
  8
0
 10
0.7443261594999999
 20
0.11299954400499998
 30
0.0
 11
0.6200566864999999
 21
0.125123421705
 31
0.0
  0
LINE
  5
5B
  8
0
 10
0.6200566864999999
 20
0.125123421705
 30
0.0
 11
0.37519895550000015
 21
0.15109595140499998
 31
0.0
  0
LINE
  5
5C
  8
0
 10
0.37519895550000015
 20
0.15109595140499998
 30
0.0
 11
0.24016750350000038
 21
0.161237786605
 31
0.0
  0
LINE
  5
5D
  8
0
 10
0.24016750350000038
 20
0.161237786605
 30
0.0
 11
-0.026007121500000174
 21
0.18268785364499998
 31
0.0
  0
LINE
  5
5E
  8
0
 10
-0.026007121500000174
 20
0.18268785364499998
 30
0.0
 11
-0.2927546364999998
 21
0.19540570389499998
 31
0.0
  0
LINE
  5
5F
  8
0
 10
-0.2927546364999998
 20
0.19540570389499998
 30
0.0
 11
-0.42803379849999956
 21
0.20157851887499997
 31
0.0
  0
LINE
  5
60
  8
0
 10
-0.42803379849999956
 20
0.20157851887499997
 30
0.0
 11
-0.6742817765
 21
0.20164157449499998
 31
0.0
  0
LINE
  5
61
  8
0
 10
-0.6742817765
 20
0.20164157449499998
 30
0.0
 11
-0.7991534825
 21
0.20209658779499998
 31
0.0
  0
LINE
  5
62
  8
0
 10
-0.7991534825
 20
0.20209658779499998
 30
0.0
 11
-1.0094232074999998
 21
0.18972844711499998
 31
0.0
  0
LINE
  5
63
  8
0
 10
-1.0094232074999998
 20
0.18972844711499998
 30
0.0
 11
-1.1161042305
 21
0.184476612125
 31
0.0
  0
LINE
  5
64
  8
0
 10
-1.1161042305
 20
0.184476612125
 30
0.0
 11
-1.2836197764999997
 21
0.162999126715
 31
0.0
  0
LINE
  5
65
  8
0
 10
-1.2836197764999997
 20
0.162999126715
 30
0.0
 11
-1.3687198585
 21
0.15341855760499998
 31
0.0
  0
LINE
  5
66
  8
0
 10
-1.3687198585
 20
0.15341855760499998
 30
0.0
 11
-1.4943748584999996
 21
0.126460363605
 31
0.0
  0
LINE
  5
67
  8
0
 10
-1.4943748584999996
 20
0.126460363605
 30
0.0
 11
-1.5583629664999998
 21
0.114143538405
 31
0.0
  0
LINE
  5
68
  8
0
 10
-1.5583629664999998
 20
0.114143538405
 30
0.0
 11
-1.6472998015
 21
0.08398993620499998
 31
0.0
  0
LINE
  5
69
  8
0
 10
-1.6472998015
 20
0.08398993620499998
 30
0.0
 11
-1.6927988994999996
 21
0.06995637320499998
 31
0.0
  0
LINE
  5
6A
  8
0
 10
-1.6927988994999996
 20
0.06995637320499998
 30
0.0
 11
-1.7500508994999997
 21
0.03628482990499998
 31
0.0
  0
LINE
  5
6B
  8
0
 10
-1.7500508994999997
 20
0.03628482990499998
 30
0.0
 11
-1.7796974545
 21
0.020308033704999978
 31
0.0
  0
LINE
  5
6C
  8
0
 10
-1.7796974545
 20
0.020308033704999978
 30
0.0
 11
-1.8007356394999996
 21
-0.019130690095000014
 31
0.0
  0
LINE
  5
6D
  8
0
 10
0.2
 20
0.2
 30
0.0
 11
0.2
 21
-0.2
 31
0.0
  0
LINE
  5
6E
  8
0
 10
0.2
 20
-0.2
 30
0.0
 11
-0.2
 21
-0.2
 31
0.0
  0
LINE
  5
6F
  8
0
 10
-0.2
 20
-0.2
 30
0.0
 11
-0.2
 21
0.2
 31
0.0
  0
LINE
  5
70
  8
0
 10
-0.2
 20
0.2
 30
0.0
 11
0.2
 21
0.2
 31
0.0
  0
ENDSEC
  0
EOF
