  0
SECTION
  2
HEADER
  9
$ACADVER
  1
AC1009
  9
$DWGCODEPAGE
  3
ANSI_1252
  9
$INSBASE
 10
0.0
 20
0.0
 30
0.0
  9
$EXTMIN
 10
-100
 20
-100
 30
-100
  9
$EXTMAX
 10
100
 20
100
 30
100
  9
$LIMMIN
 10
0.0
 20
0.0
  9
$LIMMAX
 10
420.0
 20
297.0
  9
$ORTHOMODE
 70
0
  9
$REGENMODE
 70
1
  9
$DRAGMODE
 70
2
  9
$FILLMODE
 70
1
  9
$QTEXTMODE
 70
0
  9
$MIRRTEXT
 70
1
  9
$OSMODE
 70
20583
  9
$LTSCALE
 40
1.0
  9
$ATTMODE
 70
1
  9
$TEXTSIZE
 40
2.5
  9
$TRACEWID
 40
1.0
  9
$TEXTSTYLE
  7
Standard
  9
$CLAYER
  8
0
  9
$CELTYPE
  6
ByLayer
  9
$CECOLOR
 62
256
  9
$DIMSCALE
 40
1.0
  9
$DIMASZ
 40
2.5
  9
$DIMEXO
 40
0.625
  9
$DIMDLI
 40
3.75
  9
$DIMRND
 40
0.0
  9
$DIMDLE
 40
0.0
  9
$DIMEXE
 40
1.25
  9
$DIMTP
 40
0.0
  9
$DIMTM
 40
0.0
  9
$DIMTXT
 40
2.5
  9
$DIMCEN
 40
2.5
  9
$DIMTSZ
 40
0.0
  9
$DIMTOL
 70
0
  9
$DIMLIM
 70
0
  9
$DIMTIH
 70
0
  9
$DIMTOH
 70
0
  9
$DIMSE1
 70
0
  9
$DIMSE2
 70
0
  9
$DIMTAD
 70
1
  9
$DIMZIN
 70
8
  9
$DIMBLK
  1

  9
$DIMASO
 70
1
  9
$DIMSHO
 70
1
  9
$DIMPOST
  1

  9
$DIMAPOST
  1

  9
$DIMALT
 70
0
  9
$DIMALTD
 70
3
  9
$DIMALTF
 40
0.03937007874
  9
$DIMLFAC
 40
1.0
  9
$DIMTOFL
 70
1
  9
$DIMTVP
 40
0.0
  9
$DIMTIX
 70
0
  9
$DIMSOXD
 70
0
  9
$DIMSAH
 70
0
  9
$DIMBLK1
  1

  9
$DIMBLK2
  1

  9
$DIMSTYLE
  2
ISO-25
  9
$DIMCLRD
 70
0
  9
$DIMCLRE
 70
0
  9
$DIMCLRT
 70
0
  9
$DIMTFAC
 40
1.0
  9
$DIMGAP
 40
0.625
  9
$COORDS
 70
1
  9
$ATTDIA
 70
0
  9
$ATTREQ
 70
1
  9
$HANDLING
 70
1
  9
$LUNITS
 70
2
  9
$LUPREC
 70
4
  9
$SKETCHINC
 40
1.0
  9
$FILLETRAD
 40
10.0
  9
$AUNITS
 70
0
  9
$AUPREC
 70
2
  9
$MENU
  1
.
  9
$ELEVATION
 40
0.0
  9
$PELEVATION
 40
0.0
  9
$THICKNESS
 40
0.0
  9
$LIMCHECK
 70
0
  9
$CHAMFERA
 40
0.0
  9
$CHAMFERB
 40
0.0
  9
$SKPOLY
 70
0
  9
$TDCREATE
 40
2459751.945671296
  9
$TDUPDATE
 40
2459751.945671296
  9
$TDINDWG
 40
0.0
  9
$TDUSRTIMER
 40
0.0
  9
$USRTIMER
 70
1
  9
$ANGBASE
 50
0.0
  9
$ANGDIR
 70
0
  9
$PDMODE
 70
0
  9
$PDSIZE
 40
0.0
  9
$PLINEWID
 40
0.0
  9
$SPLFRAME
 70
0
  9
$SPLINETYPE
 70
6
  9
$SPLINESEGS
 70
8
  9
$HANDSEED
  5
C6
  9
$SURFTAB1
 70
6
  9
$SURFTAB2
 70
6
  9
$SURFTYPE
 70
6
  9
$SURFU
 70
6
  9
$SURFV
 70
6
  9
$UCSNAME
  2

  9
$UCSORG
 10
0.0
 20
0.0
 30
0.0
  9
$UCSXDIR
 10
1.0
 20
0.0
 30
0.0
  9
$UCSYDIR
 10
0.0
 20
1.0
 30
0.0
  9
$PUCSNAME
  2

  9
$PUCSORG
 10
0.0
 20
0.0
 30
0.0
  9
$PUCSXDIR
 10
1.0
 20
0.0
 30
0.0
  9
$PUCSYDIR
 10
0.0
 20
1.0
 30
0.0
  9
$USERI1
 70
0
  9
$USERI2
 70
0
  9
$USERI3
 70
0
  9
$USERI4
 70
0
  9
$USERI5
 70
0
  9
$USERR1
 40
0.0
  9
$USERR2
 40
0.0
  9
$USERR3
 40
0.0
  9
$USERR4
 40
0.0
  9
$USERR5
 40
0.0
  9
$WORLDVIEW
 70
1
  9
$SHADEDGE
 70
3
  9
$SHADEDIF
 70
70
  9
$TILEMODE
 70
1
  9
$MAXACTVP
 70
64
  9
$PLIMCHECK
 70
0
  9
$PEXTMIN
 10
1e+20
 20
1e+20
 30
1e+20
  9
$PEXTMAX
 10
-1e+20
 20
-1e+20
 30
-1e+20
  9
$PLIMMIN
 10
0.0
 20
0.0
  9
$PLIMMAX
 10
420.0
 20
297.0
  9
$UNITMODE
 70
0
  9
$VISRETAIN
 70
1
  9
$PLINEGEN
 70
0
  9
$PSLTSCALE
 70
1
  0
ENDSEC
  0
SECTION
  2
TABLES
  0
TABLE
  2
VPORT
 70
1
  0
VPORT
  5
23
  2
*Active
 70
0
 10
0.0
 20
0.0
 11
1.0
 21
1.0
 12
70.0
 22
50.0
 13
0.0
 23
0.0
 14
0.5
 24
0.5
 15
0.5
 25
0.5
 16
0.0
 26
0.0
 36
1.0
 17
0.0
 27
0.0
 37
0.0
 40
1.0
 41
1.34
 42
50.0
 43
0.0
 44
0.0
 50
0.0
 51
0.0
 71
0
 72
1000
 73
1
 74
3
 75
0
 76
0
 77
0
 78
0
  0
ENDTAB
  0
TABLE
  2
LTYPE
 70
3
  0
LTYPE
  5
24
  2
ByBlock
 70
0
  3

 72
65
 73
0
 40
0.0
  0
LTYPE
  5
25
  2
ByLayer
 70
0
  3

 72
65
 73
0
 40
0.0
  0
LTYPE
  5
26
  2
Continuous
 70
0
  3

 72
65
 73
0
 40
0.0
  0
ENDTAB
  0
TABLE
  2
LAYER
 70
2
  0
LAYER
  5
27
  2
0
 70
0
 62
7
  6
Continuous
  0
LAYER
  5
28
  2
Defpoints
 70
0
 62
7
  6
Continuous
  0
ENDTAB
  0
TABLE
  2
STYLE
 70
1
  0
STYLE
  5
29
  2
Standard
 70
0
 40
0.0
 41
1.0
 50
0.0
 71
0
 42
2.5
  3
txt
  4

  0
ENDTAB
  0
TABLE
  2
VIEW
 70
0
  0
ENDTAB
  0
TABLE
  2
UCS
 70
0
  0
ENDTAB
  0
TABLE
  2
APPID
 70
2
  0
APPID
  5
2A
  2
ACAD
 70
0
  0
APPID
  5
C5
  2
HATCHBACKGROUNDCOLOR
 70
0
  0
ENDTAB
  0
TABLE
  2
DIMSTYLE
 70
1
  0
DIMSTYLE
105
2B
  2
Standard
 70
0
  3

  4

  5

  6

  7

 40
1.0
 41
2.5
 42
0.625
 43
3.75
 44
1.25
 45
0.0
 46
0.0
 47
0.0
 48
0.0
140
2.5
141
2.5
142
0.0
143
0.03937007874
144
1.0
145
0.0
146
1.0
147
0.625
 71
0
 72
0
 73
0
 74
0
 75
0
 76
0
 77
1
 78
8
170
0
171
3
172
1
173
0
174
0
175
0
176
0
177
0
178
0
  0
ENDTAB
  0
ENDSEC
  0
SECTION
  2
BLOCKS
  0
BLOCK
  5
18
  8
0
  2
$Model_Space
 70
0
 10
0.0
 20
0.0
 30
0.0
  3
$Model_Space
  1

  0
ENDBLK
  5
19
  8
0
  0
BLOCK
  5
1C
  8
0
  2
$Paper_Space
 70
0
 10
0.0
 20
0.0
 30
0.0
  3
$Paper_Space
  1

  0
ENDBLK
  5
1D
  8
0
  0
ENDSEC
  0
SECTION
  2
ENTITIES
  0
LINE
  5
2D
  8
0
 10
-1.8432977819999996
 20
-0.04154967241999996
 30
0.0
 11
-1.8448902039999995
 21
-0.044534867519999966
 31
0.0
  0
LINE
  5
2E
  8
0
 10
-1.8448902039999995
 20
-0.044534867519999966
 30
0.0
 11
-1.8433867579999998
 21
-0.046660278720000004
 31
0.0
  0
LINE
  5
2F
  8
0
 10
-1.8433867579999998
 20
-0.046660278720000004
 30
0.0
 11
-1.8078959819999998
 21
-0.09683335001999999
 31
0.0
  0
LINE
  5
30
  8
0
 10
-1.8078959819999998
 20
-0.09683335001999999
 30
0.0
 11
-1.8053969679999997
 21
-0.10040514371999998
 31
0.0
  0
LINE
  5
31
  8
0
 10
-1.8053969679999997
 20
-0.10040514371999998
 30
0.0
 11
-1.8026688229999999
 21
-0.10160177991999997
 31
0.0
  0
LINE
  5
32
  8
0
 10
-1.8026688229999999
 20
-0.10160177991999997
 30
0.0
 11
-1.7183837639999995
 21
-0.13857142021999996
 31
0.0
  0
LINE
  5
33
  8
0
 10
-1.7183837639999995
 20
-0.13857142021999996
 30
0.0
 11
-1.7167487569999995
 21
-0.13929150061999995
 31
0.0
  0
LINE
  5
34
  8
0
 10
-1.7167487569999995
 20
-0.13929150061999995
 30
0.0
 11
-1.7162505369999996
 21
-0.13951092401999998
 31
0.0
  0
LINE
  5
35
  8
0
 10
-1.7162505369999996
 20
-0.13951092401999998
 30
0.0
 11
-1.7156942239999995
 21
-0.13975593251999996
 31
0.0
  0
LINE
  5
36
  8
0
 10
-1.7156942239999995
 20
-0.13975593251999996
 30
0.0
 11
-1.7124786269999999
 21
-0.14117212821999997
 31
0.0
  0
LINE
  5
37
  8
0
 10
-1.7124786269999999
 20
-0.14117212821999997
 30
0.0
 11
-1.7095544749999996
 21
-0.14181756691999997
 31
0.0
  0
LINE
  5
38
  8
0
 10
-1.7095544749999996
 20
-0.14181756691999997
 30
0.0
 11
-1.5815475909999996
 21
-0.17007211361999997
 31
0.0
  0
LINE
  5
39
  8
0
 10
-1.5815475909999996
 20
-0.17007211361999997
 30
0.0
 11
-1.5726445639999995
 21
-0.17199111821999996
 31
0.0
  0
LINE
  5
3A
  8
0
 10
-1.5726445639999995
 20
-0.17199111821999996
 30
0.0
 11
-1.5697605799999996
 21
-0.17232416761999997
 31
0.0
  0
LINE
  5
3B
  8
0
 10
-1.5697605799999996
 20
-0.17232416761999997
 30
0.0
 11
-1.3905531109999996
 21
-0.19301947892
 31
0.0
  0
LINE
  5
3C
  8
0
 10
-1.3905531109999996
 20
-0.19301947892
 30
0.0
 11
-1.3898927169999995
 21
-0.19309088852
 31
0.0
  0
LINE
  5
3D
  8
0
 10
-1.3898927169999995
 20
-0.19309088852
 30
0.0
 11
-1.3798689799999995
 21
-0.19417477321999999
 31
0.0
  0
LINE
  5
3E
  8
0
 10
-1.3798689799999995
 20
-0.19417477321999999
 30
0.0
 11
-1.3781736899999997
 21
-0.19435808791999998
 31
0.0
  0
LINE
  5
3F
  8
0
 10
-1.3781736899999997
 20
-0.19435808791999998
 30
0.0
 11
-1.3752138689999995
 21
-0.19450536452
 31
0.0
  0
LINE
  5
40
  8
0
 10
-1.3752138689999995
 20
-0.19450536452
 30
0.0
 11
-1.1377353639999996
 21
-0.20632196702
 31
0.0
  0
LINE
  5
41
  8
0
 10
-1.1377353639999996
 20
-0.20632196702
 30
0.0
 11
-1.1282701819999996
 21
-0.20672262001999997
 31
0.0
  0
LINE
  5
42
  8
0
 10
-1.1282701819999996
 20
-0.20672262001999997
 30
0.0
 11
-1.1213967329999996
 21
-0.20701356721999997
 31
0.0
  0
LINE
  5
43
  8
0
 10
-1.1213967329999996
 20
-0.20701356721999997
 30
0.0
 11
-1.1180377399999997
 21
-0.20703133771999999
 31
0.0
  0
LINE
  5
44
  8
0
 10
-1.1180377399999997
 20
-0.20703133771999999
 30
0.0
 11
-0.8212663119999997
 21
-0.20860138381999999
 31
0.0
  0
LINE
  5
45
  8
0
 10
-0.8212663119999997
 20
-0.20860138381999999
 30
0.0
 11
-0.8174587109999996
 21
-0.20859853532
 31
0.0
  0
LINE
  5
46
  8
0
 10
-0.8174587109999996
 20
-0.20859853532
 30
0.0
 11
-0.8030138939999998
 21
-0.20858772892
 31
0.0
  0
LINE
  5
47
  8
0
 10
-0.8030138939999998
 20
-0.20858772892
 30
0.0
 11
-0.8008785179999998
 21
-0.20858613142
 31
0.0
  0
LINE
  5
48
  8
0
 10
-0.8008785179999998
 20
-0.20858613142
 30
0.0
 11
-0.7965124449999998
 21
-0.20848223031999996
 31
0.0
  0
LINE
  5
49
  8
0
 10
-0.7965124449999998
 20
-0.20848223031999996
 30
0.0
 11
-0.45015050099999954
 21
-0.20023972471999996
 31
0.0
  0
LINE
  5
4A
  8
0
 10
-0.45015050099999954
 20
-0.20023972471999996
 30
0.0
 11
-0.44144063799999955
 21
-0.20000267251999998
 31
0.0
  0
LINE
  5
4B
  8
0
 10
-0.44144063799999955
 20
-0.20000267251999998
 30
0.0
 11
-0.4263288059999999
 21
-0.19959138091999995
 31
0.0
  0
LINE
  5
4C
  8
0
 10
-0.4263288059999999
 20
-0.19959138091999995
 30
0.0
 11
-0.4223610509999993
 21
-0.19941817862
 31
0.0
  0
LINE
  5
4D
  8
0
 10
-0.4223610509999993
 20
-0.19941817862
 30
0.0
 11
-0.4202297019999994
 21
-0.19932514001999996
 31
0.0
  0
LINE
  5
4E
  8
0
 10
-0.4202297019999994
 20
-0.19932514001999996
 30
0.0
 11
-0.04624275699999991
 21
-0.18299968991999999
 31
0.0
  0
LINE
  5
4F
  8
0
 10
-0.04624275699999991
 20
-0.18299968991999999
 30
0.0
 11
-0.034881992999999945
 21
-0.18249501351999997
 31
0.0
  0
LINE
  5
50
  8
0
 10
-0.034881992999999945
 20
-0.18249501351999997
 30
0.0
 11
-0.020426155
 21
-0.18185284531999996
 31
0.0
  0
LINE
  5
51
  8
0
 10
-0.020426155
 20
-0.18185284531999996
 30
0.0
 11
-0.005955546000000034
 21
-0.18099540261999997
 31
0.0
  0
LINE
  5
52
  8
0
 10
-0.005955546000000034
 20
-0.18099540261999997
 30
0.0
 11
0.003217657000000429
 21
-0.18045185271999997
 31
0.0
  0
LINE
  5
53
  8
0
 10
0.003217657000000429
 20
-0.18045185271999997
 30
0.0
 11
0.005370886000000574
 21
-0.18032426512
 31
0.0
  0
LINE
  5
54
  8
0
 10
0.005370886000000574
 20
-0.18032426512
 30
0.0
 11
0.375469925
 21
-0.15814006071999998
 31
0.0
  0
LINE
  5
55
  8
0
 10
0.375469925
 20
-0.15814006071999998
 30
0.0
 11
0.38514090200000073
 21
-0.15756037021999997
 31
0.0
  0
LINE
  5
56
  8
0
 10
0.38514090200000073
 20
-0.15756037021999997
 30
0.0
 11
0.38661668900000024
 21
-0.15746088941999997
 31
0.0
  0
LINE
  5
57
  8
0
 10
0.38661668900000024
 20
-0.15746088941999997
 30
0.0
 11
0.38863390900000017
 21
-0.15732491131999998
 31
0.0
  0
LINE
  5
58
  8
0
 10
0.38863390900000017
 20
-0.15732491131999998
 30
0.0
 11
0.40584777800000005
 21
-0.15616454801999996
 31
0.0
  0
LINE
  5
59
  8
0
 10
0.40584777800000005
 20
-0.15616454801999996
 30
0.0
 11
0.40713602100000035
 21
-0.15607770921999997
 31
0.0
  0
LINE
  5
5A
  8
0
 10
0.40713602100000035
 20
-0.15607770921999997
 30
0.0
 11
0.40891813700000057
 21
-0.15595757921999998
 31
0.0
  0
LINE
  5
5B
  8
0
 10
0.40891813700000057
 20
-0.15595757921999998
 30
0.0
 11
0.7496023740000002
 21
-0.13221752692
 31
0.0
  0
LINE
  5
5C
  8
0
 10
0.7496023740000002
 20
-0.13221752692
 30
0.0
 11
0.758911651
 21
-0.13156882441999995
 31
0.0
  0
LINE
  5
5D
  8
0
 10
0.758911651
 20
-0.13156882441999995
 30
0.0
 11
0.7683001060000008
 21
-0.13089595682
 31
0.0
  0
LINE
  5
5E
  8
0
 10
0.7683001060000008
 20
-0.13089595682
 30
0.0
 11
0.768666144
 21
-0.13086972292
 31
0.0
  0
LINE
  5
5F
  8
0
 10
0.768666144
 20
-0.13086972292
 30
0.0
 11
0.7777247680000006
 21
-0.13022049421999998
 31
0.0
  0
LINE
  5
60
  8
0
 10
0.7777247680000006
 20
-0.13022049421999998
 30
0.0
 11
0.7792491830000001
 21
-0.13011123982
 31
0.0
  0
LINE
  5
61
  8
0
 10
0.7792491830000001
 20
-0.13011123982
 30
0.0
 11
1.071785717
 21
-0.10803412011999997
 31
0.0
  0
LINE
  5
62
  8
0
 10
1.071785717
 20
-0.10803412011999997
 30
0.0
 11
1.0785711030000007
 21
-0.10752204121999998
 31
0.0
  0
LINE
  5
63
  8
0
 10
1.0785711030000007
 20
-0.10752204121999998
 30
0.0
 11
1.0831693500000004
 21
-0.10718096041999997
 31
0.0
  0
LINE
  5
64
  8
0
 10
1.0831693500000004
 20
-0.10718096041999997
 30
0.0
 11
1.0837406070000002
 21
-0.10713858671999998
 31
0.0
  0
LINE
  5
65
  8
0
 10
1.0837406070000002
 20
-0.10713858671999998
 30
0.0
 11
1.0948823990000003
 21
-0.10631213031999998
 31
0.0
  0
LINE
  5
66
  8
0
 10
1.0948823990000003
 20
-0.10631213031999998
 30
0.0
 11
1.3307172190000003
 21
-0.08761604751999996
 31
0.0
  0
LINE
  5
67
  8
0
 10
1.3307172190000003
 20
-0.08761604751999996
 30
0.0
 11
1.3349170460000002
 21
-0.08728310132
 31
0.0
  0
LINE
  5
68
  8
0
 10
1.3349170460000002
 20
-0.08728310132
 30
0.0
 11
1.3412347980000003
 21
-0.08680324311999998
 31
0.0
  0
LINE
  5
69
  8
0
 10
1.3412347980000003
 20
-0.08680324311999998
 30
0.0
 11
1.3426467200000003
 21
-0.08669600212
 31
0.0
  0
LINE
  5
6A
  8
0
 10
1.3426467200000003
 20
-0.08669600212
 30
0.0
 11
1.3473365050000004
 21
-0.08633979441999995
 31
0.0
  0
LINE
  5
6B
  8
0
 10
1.3473365050000004
 20
-0.08633979441999995
 30
0.0
 11
1.527619422
 21
-0.07154112982
 31
0.0
  0
LINE
  5
6C
  8
0
 10
1.527619422
 20
-0.07154112982
 30
0.0
 11
1.530079787
 21
-0.07133916881999997
 31
0.0
  0
LINE
  5
6D
  8
0
 10
1.530079787
 20
-0.07133916881999997
 30
0.0
 11
1.539166624
 21
-0.07063557031999995
 31
0.0
  0
LINE
  5
6E
  8
0
 10
1.539166624
 20
-0.07063557031999995
 30
0.0
 11
1.6714487840000007
 21
-0.05947969991999996
 31
0.0
  0
LINE
  5
6F
  8
0
 10
1.6714487840000007
 20
-0.05947969991999996
 30
0.0
 11
1.672861235
 21
-0.059360582419999974
 31
0.0
  0
LINE
  5
70
  8
0
 10
1.672861235
 20
-0.059360582419999974
 30
0.0
 11
1.6757493750000005
 21
-0.05913340351999996
 31
0.0
  0
LINE
  5
71
  8
0
 10
1.6757493750000005
 20
-0.05913340351999996
 30
0.0
 11
1.6779452530000007
 21
-0.058960677419999996
 31
0.0
  0
LINE
  5
72
  8
0
 10
1.6779452530000007
 20
-0.058960677419999996
 30
0.0
 11
1.6793177020000005
 21
-0.05885272161999999
 31
0.0
  0
LINE
  5
73
  8
0
 10
1.6793177020000005
 20
-0.05885272161999999
 30
0.0
 11
1.7734919520000005
 21
-0.050742650119999955
 31
0.0
  0
LINE
  5
74
  8
0
 10
1.7734919520000005
 20
-0.050742650119999955
 30
0.0
 11
1.7743054050000007
 21
-0.05067259731999996
 31
0.0
  0
LINE
  5
75
  8
0
 10
1.7743054050000007
 20
-0.05067259731999996
 30
0.0
 11
1.7787980150000005
 21
-0.05031495572
 31
0.0
  0
LINE
  5
76
  8
0
 10
1.7787980150000005
 20
-0.05031495572
 30
0.0
 11
1.8444161390000007
 21
-0.044576326919999965
 31
0.0
  0
LINE
  5
77
  8
0
 10
1.8444161390000007
 20
-0.044576326919999965
 30
0.0
 11
1.8448902040000004
 21
-0.044534867519999966
 31
0.0
  0
LINE
  5
78
  8
0
 10
1.8448902040000004
 20
-0.044534867519999966
 30
0.0
 11
1.844403785
 21
-0.04444991441999996
 31
0.0
  0
LINE
  5
79
  8
0
 10
1.844403785
 20
-0.04444991441999996
 30
0.0
 11
1.7789662880000003
 21
-0.03302126011999995
 31
0.0
  0
LINE
  5
7A
  8
0
 10
1.7789662880000003
 20
-0.03302126011999995
 30
0.0
 11
1.7752070610000006
 21
-0.03230318952
 31
0.0
  0
LINE
  5
7B
  8
0
 10
1.7752070610000006
 20
-0.03230318952
 30
0.0
 11
1.7744882860000004
 21
-0.03216589241999995
 31
0.0
  0
LINE
  5
7C
  8
0
 10
1.7744882860000004
 20
-0.03216589241999995
 30
0.0
 11
1.7734125270000005
 21
-0.031983314319999956
 31
0.0
  0
LINE
  5
7D
  8
0
 10
1.7734125270000005
 20
-0.031983314319999956
 30
0.0
 11
1.679671367
 21
-0.01607353901999997
 31
0.0
  0
LINE
  5
7E
  8
0
 10
1.679671367
 20
-0.01607353901999997
 30
0.0
 11
1.676639583
 21
-0.015511239019999956
 31
0.0
  0
LINE
  5
7F
  8
0
 10
1.676639583
 20
-0.015511239019999956
 30
0.0
 11
1.6732297260000006
 21
-0.014878818520000003
 31
0.0
  0
LINE
  5
80
  8
0
 10
1.6732297260000006
 20
-0.014878818520000003
 30
0.0
 11
1.670855586
 21
-0.014492170019999973
 31
0.0
  0
LINE
  5
81
  8
0
 10
1.670855586
 20
-0.014492170019999973
 30
0.0
 11
1.539639877
 21
0.006877399280000029
 31
0.0
  0
LINE
  5
82
  8
0
 10
1.539639877
 20
0.006877399280000029
 30
0.0
 11
1.535233538
 21
0.007660579480000013
 31
0.0
  0
LINE
  5
83
  8
0
 10
1.535233538
 20
0.007660579480000013
 30
0.0
 11
1.5305621350000003
 21
0.008490872080000017
 31
0.0
  0
LINE
  5
84
  8
0
 10
1.5305621350000003
 20
0.008490872080000017
 30
0.0
 11
1.525293649
 21
0.00930022978000003
 31
0.0
  0
LINE
  5
85
  8
0
 10
1.525293649
 20
0.00930022978000003
 30
0.0
 11
1.3477222970000007
 21
0.036579176180000034
 31
0.0
  0
LINE
  5
86
  8
0
 10
1.3477222970000007
 20
0.036579176180000034
 30
0.0
 11
1.3442139550000007
 21
0.03716619778000002
 31
0.0
  0
LINE
  5
87
  8
0
 10
1.3442139550000007
 20
0.03716619778000002
 30
0.0
 11
1.3395314760000003
 21
0.037949677780000024
 31
0.0
  0
LINE
  5
88
  8
0
 10
1.3395314760000003
 20
0.037949677780000024
 30
0.0
 11
1.3352944560000006
 21
0.03865862288000002
 31
0.0
  0
LINE
  5
89
  8
0
 10
1.3352944560000006
 20
0.03865862288000002
 30
0.0
 11
1.3236366000000004
 21
0.040308587880000024
 31
0.0
  0
LINE
  5
8A
  8
0
 10
1.3236366000000004
 20
0.040308587880000024
 30
0.0
 11
1.0947467590000004
 21
0.07270393048000001
 31
0.0
  0
LINE
  5
8B
  8
0
 10
1.0947467590000004
 20
0.07270393048000001
 30
0.0
 11
1.0922422130000005
 21
0.07308881478000001
 31
0.0
  0
LINE
  5
8C
  8
0
 10
1.0922422130000005
 20
0.07308881478000001
 30
0.0
 11
1.0882074270000004
 21
0.07370885798000001
 31
0.0
  0
LINE
  5
8D
  8
0
 10
1.0882074270000004
 20
0.07370885798000001
 30
0.0
 11
1.0870417790000007
 21
0.07388798828000001
 31
0.0
  0
LINE
  5
8E
  8
0
 10
1.0870417790000007
 20
0.07388798828000001
 30
0.0
 11
1.0783909240000007
 21
0.07521740268000002
 31
0.0
  0
LINE
  5
8F
  8
0
 10
1.0783909240000007
 20
0.07521740268000002
 30
0.0
 11
1.0619654160000005
 21
0.07728624478000001
 31
0.0
  0
LINE
  5
90
  8
0
 10
1.0619654160000005
 20
0.07728624478000001
 30
0.0
 11
1.057194022
 21
0.07788721598000004
 31
0.0
  0
LINE
  5
91
  8
0
 10
1.057194022
 20
0.07788721598000004
 30
0.0
 11
0.7778722170000005
 21
0.11306863408000004
 31
0.0
  0
LINE
  5
92
  8
0
 10
0.7778722170000005
 20
0.11306863408000004
 30
0.0
 11
0.7751142180000006
 21
0.11344405198000002
 31
0.0
  0
LINE
  5
93
  8
0
 10
0.7751142180000006
 20
0.11344405198000002
 30
0.0
 11
0.757430791
 21
0.11585111388000002
 31
0.0
  0
LINE
  5
94
  8
0
 10
0.757430791
 20
0.11585111388000002
 30
0.0
 11
0.7552498330000006
 21
0.11608245228000003
 31
0.0
  0
LINE
  5
95
  8
0
 10
0.7552498330000006
 20
0.11608245228000003
 30
0.0
 11
0.7420629390000002
 21
0.11748121148000001
 31
0.0
  0
LINE
  5
96
  8
0
 10
0.7420629390000002
 20
0.11748121148000001
 30
0.0
 11
0.7244247640000001
 21
0.11935212658000002
 31
0.0
  0
LINE
  5
97
  8
0
 10
0.7244247640000001
 20
0.11935212658000002
 30
0.0
 11
0.7227986380000004
 21
0.11952461298000003
 31
0.0
  0
LINE
  5
98
  8
0
 10
0.7227986380000004
 20
0.11952461298000003
 30
0.0
 11
0.405348193
 21
0.15319719118000003
 31
0.0
  0
LINE
  5
99
  8
0
 10
0.405348193
 20
0.15319719118000003
 30
0.0
 11
0.3916819130000002
 21
0.15475305668000003
 31
0.0
  0
LINE
  5
9A
  8
0
 10
0.3916819130000002
 20
0.15475305668000003
 30
0.0
 11
0.38138960400000066
 21
0.15592480572
 31
0.0
  0
LINE
  5
9B
  8
0
 10
0.38138960400000066
 20
0.15592480572
 30
0.0
 11
0.37952416800000055
 21
0.15607513452000002
 31
0.0
  0
LINE
  5
9C
  8
0
 10
0.37952416800000055
 20
0.15607513452000002
 30
0.0
 11
0.3626293660000002
 21
0.15743662664000002
 31
0.0
  0
LINE
  5
9D
  8
0
 10
0.3626293660000002
 20
0.15743662664000002
 30
0.0
 11
0.33749892300000006
 21
0.15946179970000002
 31
0.0
  0
LINE
  5
9E
  8
0
 10
0.33749892300000006
 20
0.15946179970000002
 30
0.0
 11
-0.00134470199999992
 21
0.18676800316000003
 31
0.0
  0
LINE
  5
9F
  8
0
 10
-0.00134470199999992
 20
0.18676800316000003
 30
0.0
 11
-0.0023321809999998777
 21
0.18685251960000002
 31
0.0
  0
LINE
  5
A0
  8
0
 10
-0.0023321809999998777
 20
0.18685251960000002
 30
0.0
 11
-0.027399072999999774
 21
0.18899794670000003
 31
0.0
  0
LINE
  5
A1
  8
0
 10
-0.027399072999999774
 20
0.18899794670000003
 30
0.0
 11
-0.05351707999999977
 21
0.19029196810000004
 31
0.0
  0
LINE
  5
A2
  8
0
 10
-0.05351707999999977
 20
0.19029196810000004
 30
0.0
 11
-0.05479886100000009
 21
0.19035308019000002
 31
0.0
  0
LINE
  5
A3
  8
0
 10
-0.05479886100000009
 20
0.19035308019000002
 30
0.0
 11
-0.0711893589999999
 21
0.19113453789
 31
0.0
  0
LINE
  5
A4
  8
0
 10
-0.0711893589999999
 20
0.19113453789
 30
0.0
 11
-0.40903697599999944
 21
0.20724226204
 31
0.0
  0
LINE
  5
A5
  8
0
 10
-0.40903697599999944
 20
0.20724226204
 30
0.0
 11
-0.4370751500000001
 21
0.2085790516
 31
0.0
  0
LINE
  5
A6
  8
0
 10
-0.4370751500000001
 20
0.2085790516
 30
0.0
 11
-0.4611879719999994
 21
0.20851071571000002
 31
0.0
  0
LINE
  5
A7
  8
0
 10
-0.4611879719999994
 20
0.20851071571000002
 30
0.0
 11
-0.46831023799999993
 21
0.20851253948000004
 31
0.0
  0
LINE
  5
A8
  8
0
 10
-0.46831023799999993
 20
0.20851253948000004
 30
0.0
 11
-0.7801575419999995
 21
0.20859239282000003
 31
0.0
  0
LINE
  5
A9
  8
0
 10
-0.7801575419999995
 20
0.20859239282000003
 30
0.0
 11
-0.7932106209999996
 21
0.20859573527000003
 31
0.0
  0
LINE
  5
AA
  8
0
 10
-0.7932106209999996
 20
0.20859573527000003
 30
0.0
 11
-0.8152696169999998
 21
0.20860138382
 31
0.0
  0
LINE
  5
AB
  8
0
 10
-0.8152696169999998
 20
0.20860138382
 30
0.0
 11
-0.8358499419999998
 21
0.20721062723000003
 31
0.0
  0
LINE
  5
AC
  8
0
 10
-0.8358499419999998
 20
0.20721062723000003
 30
0.0
 11
-1.1035209429999995
 21
0.19146612286000003
 31
0.0
  0
LINE
  5
AD
  8
0
 10
-1.1035209429999995
 20
0.19146612286000003
 30
0.0
 11
-1.1185760209999995
 21
0.19058057779000004
 31
0.0
  0
LINE
  5
AE
  8
0
 10
-1.1185760209999995
 20
0.19058057779000004
 30
0.0
 11
-1.1365037289999997
 21
0.18952606357000001
 31
0.0
  0
LINE
  5
AF
  8
0
 10
-1.1365037289999997
 20
0.18952606357000001
 30
0.0
 11
-1.1381982119999998
 21
0.1894263935
 31
0.0
  0
LINE
  5
B0
  8
0
 10
-1.1381982119999998
 20
0.1894263935
 30
0.0
 11
-1.1545744679999999
 21
0.18709245951000003
 31
0.0
  0
LINE
  5
B1
  8
0
 10
-1.1545744679999999
 20
0.18709245951000003
 30
0.0
 11
-1.3699979819999997
 21
0.15947260283000003
 31
0.0
  0
LINE
  5
B2
  8
0
 10
-1.3699979819999997
 20
0.15947260283000003
 30
0.0
 11
-1.3954462129999996
 21
0.15620983695000001
 31
0.0
  0
LINE
  5
B3
  8
0
 10
-1.3954462129999996
 20
0.15620983695000001
 30
0.0
 11
-1.3970524999999996
 21
0.1558326465
 31
0.0
  0
LINE
  5
B4
  8
0
 10
-1.3970524999999996
 20
0.1558326465
 30
0.0
 11
-1.4077031209999995
 21
0.15333165398000004
 31
0.0
  0
LINE
  5
B5
  8
0
 10
-1.4077031209999995
 20
0.15333165398000004
 30
0.0
 11
-1.5711803369999995
 21
0.11825903048000003
 31
0.0
  0
LINE
  5
B6
  8
0
 10
-1.5711803369999995
 20
0.11825903048000003
 30
0.0
 11
-1.5883833019999996
 21
0.11456828308000003
 31
0.0
  0
LINE
  5
B7
  8
0
 10
-1.5883833019999996
 20
0.11456828308000003
 30
0.0
 11
-1.5970217179999997
 21
0.11139417398000001
 31
0.0
  0
LINE
  5
B8
  8
0
 10
-1.5970217179999997
 20
0.11139417398000001
 30
0.0
 11
-1.7140465289999995
 21
0.07171747968000003
 31
0.0
  0
LINE
  5
B9
  8
0
 10
-1.7140465289999995
 20
0.07171747968000003
 30
0.0
 11
-1.7249045979999997
 21
0.06803610398000001
 31
0.0
  0
LINE
  5
BA
  8
0
 10
-1.7249045979999997
 20
0.06803610398000001
 30
0.0
 11
-1.7294554379999996
 21
0.06514689028000004
 31
0.0
  0
LINE
  5
BB
  8
0
 10
-1.7294554379999996
 20
0.06514689028000004
 30
0.0
 11
-1.7301945899999995
 21
0.06467762088000004
 31
0.0
  0
LINE
  5
BC
  8
0
 10
-1.7301945899999995
 20
0.06467762088000004
 30
0.0
 11
-1.7304025829999996
 21
0.06454557168000002
 31
0.0
  0
LINE
  5
BD
  8
0
 10
-1.7304025829999996
 20
0.06454557168000002
 30
0.0
 11
-1.8065774429999997
 21
0.01974495178000002
 31
0.0
  0
LINE
  5
BE
  8
0
 10
-1.8065774429999997
 20
0.01974495178000002
 30
0.0
 11
-1.8127256239999996
 21
0.01612903038000002
 31
0.0
  0
LINE
  5
BF
  8
0
 10
-1.8127256239999996
 20
0.01612903038000002
 30
0.0
 11
-1.814639255
 21
0.01217434198000003
 31
0.0
  0
LINE
  5
C0
  8
0
 10
-1.814639255
 20
0.01217434198000003
 30
0.0
 11
-1.8432977819999996
 21
-0.04154967241999996
 31
0.0
  0
LINE
  5
C1
  8
0
 10
0.2
 20
0.2
 30
0.0
 11
0.2
 21
-0.2
 31
0.0
  0
LINE
  5
C2
  8
0
 10
0.2
 20
-0.2
 30
0.0
 11
-0.2
 21
-0.2
 31
0.0
  0
LINE
  5
C3
  8
0
 10
-0.2
 20
-0.2
 30
0.0
 11
-0.2
 21
0.2
 31
0.0
  0
LINE
  5
C4
  8
0
 10
-0.2
 20
0.2
 30
0.0
 11
0.2
 21
0.2
 31
0.0
  0
ENDSEC
  0
EOF
