  0
SECTION
  2
HEADER
  9
$ACADVER
  1
AC1009
  9
$DWGCODEPAGE
  3
ANSI_1252
  9
$INSBASE
 10
0.0
 20
0.0
 30
0.0
  9
$EXTMIN
 10
-100
 20
-100
 30
-100
  9
$EXTMAX
 10
100
 20
100
 30
100
  9
$LIMMIN
 10
0.0
 20
0.0
  9
$LIMMAX
 10
420.0
 20
297.0
  9
$ORTHOMODE
 70
0
  9
$REGENMODE
 70
1
  9
$DRAGMODE
 70
2
  9
$FILLMODE
 70
1
  9
$QTEXTMODE
 70
0
  9
$MIRRTEXT
 70
1
  9
$OSMODE
 70
20583
  9
$LTSCALE
 40
1.0
  9
$ATTMODE
 70
1
  9
$TEXTSIZE
 40
2.5
  9
$TRACEWID
 40
1.0
  9
$TEXTSTYLE
  7
Standard
  9
$CLAYER
  8
0
  9
$CELTYPE
  6
ByLayer
  9
$CECOLOR
 62
256
  9
$DIMSCALE
 40
1.0
  9
$DIMASZ
 40
2.5
  9
$DIMEXO
 40
0.625
  9
$DIMDLI
 40
3.75
  9
$DIMRND
 40
0.0
  9
$DIMDLE
 40
0.0
  9
$DIMEXE
 40
1.25
  9
$DIMTP
 40
0.0
  9
$DIMTM
 40
0.0
  9
$DIMTXT
 40
2.5
  9
$DIMCEN
 40
2.5
  9
$DIMTSZ
 40
0.0
  9
$DIMTOL
 70
0
  9
$DIMLIM
 70
0
  9
$DIMTIH
 70
0
  9
$DIMTOH
 70
0
  9
$DIMSE1
 70
0
  9
$DIMSE2
 70
0
  9
$DIMTAD
 70
1
  9
$DIMZIN
 70
8
  9
$DIMBLK
  1

  9
$DIMASO
 70
1
  9
$DIMSHO
 70
1
  9
$DIMPOST
  1

  9
$DIMAPOST
  1

  9
$DIMALT
 70
0
  9
$DIMALTD
 70
3
  9
$DIMALTF
 40
0.03937007874
  9
$DIMLFAC
 40
1.0
  9
$DIMTOFL
 70
1
  9
$DIMTVP
 40
0.0
  9
$DIMTIX
 70
0
  9
$DIMSOXD
 70
0
  9
$DIMSAH
 70
0
  9
$DIMBLK1
  1

  9
$DIMBLK2
  1

  9
$DIMSTYLE
  2
ISO-25
  9
$DIMCLRD
 70
0
  9
$DIMCLRE
 70
0
  9
$DIMCLRT
 70
0
  9
$DIMTFAC
 40
1.0
  9
$DIMGAP
 40
0.625
  9
$COORDS
 70
1
  9
$ATTDIA
 70
0
  9
$ATTREQ
 70
1
  9
$HANDLING
 70
1
  9
$LUNITS
 70
2
  9
$LUPREC
 70
4
  9
$SKETCHINC
 40
1.0
  9
$FILLETRAD
 40
10.0
  9
$AUNITS
 70
0
  9
$AUPREC
 70
2
  9
$MENU
  1
.
  9
$ELEVATION
 40
0.0
  9
$PELEVATION
 40
0.0
  9
$THICKNESS
 40
0.0
  9
$LIMCHECK
 70
0
  9
$CHAMFERA
 40
0.0
  9
$CHAMFERB
 40
0.0
  9
$SKPOLY
 70
0
  9
$TDCREATE
 40
2459867.7772800927
  9
$TDUPDATE
 40
2459867.7772800927
  9
$TDINDWG
 40
0.0
  9
$TDUSRTIMER
 40
0.0
  9
$USRTIMER
 70
1
  9
$ANGBASE
 50
0.0
  9
$ANGDIR
 70
0
  9
$PDMODE
 70
0
  9
$PDSIZE
 40
0.0
  9
$PLINEWID
 40
0.0
  9
$SPLFRAME
 70
0
  9
$SPLINETYPE
 70
6
  9
$SPLINESEGS
 70
8
  9
$HANDSEED
  5
82
  9
$SURFTAB1
 70
6
  9
$SURFTAB2
 70
6
  9
$SURFTYPE
 70
6
  9
$SURFU
 70
6
  9
$SURFV
 70
6
  9
$UCSNAME
  2

  9
$UCSORG
 10
0.0
 20
0.0
 30
0.0
  9
$UCSXDIR
 10
1.0
 20
0.0
 30
0.0
  9
$UCSYDIR
 10
0.0
 20
1.0
 30
0.0
  9
$PUCSNAME
  2

  9
$PUCSORG
 10
0.0
 20
0.0
 30
0.0
  9
$PUCSXDIR
 10
1.0
 20
0.0
 30
0.0
  9
$PUCSYDIR
 10
0.0
 20
1.0
 30
0.0
  9
$USERI1
 70
0
  9
$USERI2
 70
0
  9
$USERI3
 70
0
  9
$USERI4
 70
0
  9
$USERI5
 70
0
  9
$USERR1
 40
0.0
  9
$USERR2
 40
0.0
  9
$USERR3
 40
0.0
  9
$USERR4
 40
0.0
  9
$USERR5
 40
0.0
  9
$WORLDVIEW
 70
1
  9
$SHADEDGE
 70
3
  9
$SHADEDIF
 70
70
  9
$TILEMODE
 70
1
  9
$MAXACTVP
 70
64
  9
$PLIMCHECK
 70
0
  9
$PEXTMIN
 10
1e+20
 20
1e+20
 30
1e+20
  9
$PEXTMAX
 10
-1e+20
 20
-1e+20
 30
-1e+20
  9
$PLIMMIN
 10
0.0
 20
0.0
  9
$PLIMMAX
 10
420.0
 20
297.0
  9
$UNITMODE
 70
0
  9
$VISRETAIN
 70
1
  9
$PLINEGEN
 70
0
  9
$PSLTSCALE
 70
1
  0
ENDSEC
  0
SECTION
  2
TABLES
  0
TABLE
  2
VPORT
 70
1
  0
VPORT
  5
23
  2
*Active
 70
0
 10
0.0
 20
0.0
 11
1.0
 21
1.0
 12
70.0
 22
50.0
 13
0.0
 23
0.0
 14
0.5
 24
0.5
 15
0.5
 25
0.5
 16
0.0
 26
0.0
 36
1.0
 17
0.0
 27
0.0
 37
0.0
 40
1.0
 41
1.34
 42
50.0
 43
0.0
 44
0.0
 50
0.0
 51
0.0
 71
0
 72
1000
 73
1
 74
3
 75
0
 76
0
 77
0
 78
0
  0
ENDTAB
  0
TABLE
  2
LTYPE
 70
3
  0
LTYPE
  5
24
  2
ByBlock
 70
0
  3

 72
65
 73
0
 40
0.0
  0
LTYPE
  5
25
  2
ByLayer
 70
0
  3

 72
65
 73
0
 40
0.0
  0
LTYPE
  5
26
  2
Continuous
 70
0
  3

 72
65
 73
0
 40
0.0
  0
ENDTAB
  0
TABLE
  2
LAYER
 70
2
  0
LAYER
  5
27
  2
0
 70
0
 62
7
  6
Continuous
  0
LAYER
  5
28
  2
Defpoints
 70
0
 62
7
  6
Continuous
  0
ENDTAB
  0
TABLE
  2
STYLE
 70
1
  0
STYLE
  5
29
  2
Standard
 70
0
 40
0.0
 41
1.0
 50
0.0
 71
0
 42
2.5
  3
txt
  4

  0
ENDTAB
  0
TABLE
  2
VIEW
 70
0
  0
ENDTAB
  0
TABLE
  2
UCS
 70
0
  0
ENDTAB
  0
TABLE
  2
APPID
 70
2
  0
APPID
  5
2A
  2
ACAD
 70
0
  0
APPID
  5
81
  2
HATCHBACKGROUNDCOLOR
 70
0
  0
ENDTAB
  0
TABLE
  2
DIMSTYLE
 70
1
  0
DIMSTYLE
105
2B
  2
Standard
 70
0
  3

  4

  5

  6

  7

 40
1.0
 41
2.5
 42
0.625
 43
3.75
 44
1.25
 45
0.0
 46
0.0
 47
0.0
 48
0.0
140
2.5
141
2.5
142
0.0
143
0.03937007874
144
1.0
145
0.0
146
1.0
147
0.625
 71
0
 72
0
 73
0
 74
0
 75
0
 76
0
 77
1
 78
8
170
0
171
3
172
1
173
0
174
0
175
0
176
0
177
0
178
0
  0
ENDTAB
  0
ENDSEC
  0
SECTION
  2
BLOCKS
  0
BLOCK
  5
18
  8
0
  2
$Model_Space
 70
0
 10
0.0
 20
0.0
 30
0.0
  3
$Model_Space
  1

  0
ENDBLK
  5
19
  8
0
  0
BLOCK
  5
1C
  8
0
  2
$Paper_Space
 70
0
 10
0.0
 20
0.0
 30
0.0
  3
$Paper_Space
  1

  0
ENDBLK
  5
1D
  8
0
  0
ENDSEC
  0
SECTION
  2
ENTITIES
  0
LINE
  5
2D
  8
0
 10
-7.531055079
 20
-0.0839479935000007
 30
0.0
 11
-7.510479149
 21
-0.5248428705000006
 31
0.0
  0
LINE
  5
2E
  8
0
 10
-7.510479149
 20
-0.5248428705000006
 30
0.0
 11
-7.465599579
 21
-1.5661261824999997
 31
0.0
  0
LINE
  5
2F
  8
0
 10
-7.465599579
 20
-1.5661261824999997
 30
0.0
 11
-7.403433121
 21
-2.0430344875
 31
0.0
  0
LINE
  5
30
  8
0
 10
-7.403433121
 20
-2.0430344875
 30
0.0
 11
-7.289600276
 21
-2.9852534664999997
 31
0.0
  0
LINE
  5
31
  8
0
 10
-7.289600276
 20
-2.9852534664999997
 30
0.0
 11
-7.139448524
 21
-3.4589019145
 31
0.0
  0
LINE
  5
32
  8
0
 10
-7.139448524
 20
-3.4589019145
 30
0.0
 11
-6.93216372
 21
-4.1309245985
 31
0.0
  0
LINE
  5
33
  8
0
 10
-6.93216372
 20
-4.1309245985
 30
0.0
 11
-6.602609846
 21
-4.6031167465000005
 31
0.0
  0
LINE
  5
34
  8
0
 10
-6.602609846
 20
-4.6031167465000005
 30
0.0
 11
-6.288953074
 21
-5.0651838775
 31
0.0
  0
LINE
  5
35
  8
0
 10
-6.288953074
 20
-5.0651838775
 30
0.0
 11
-5.757836113
 21
-5.4978871225
 31
0.0
  0
LINE
  5
36
  8
0
 10
-5.757836113
 20
-5.4978871225
 30
0.0
 11
-5.407285895
 21
-5.7929823775
 31
0.0
  0
LINE
  5
37
  8
0
 10
-5.407285895
 20
-5.7929823775
 30
0.0
 11
-4.751885707
 21
-6.0721472384999995
 31
0.0
  0
LINE
  5
38
  8
0
 10
-4.751885707
 20
-6.0721472384999995
 30
0.0
 11
-4.41967525
 21
-6.2232211115
 31
0.0
  0
LINE
  5
39
  8
0
 10
-4.41967525
 20
-6.2232211115
 30
0.0
 11
-3.687877797
 21
-6.3335051925000005
 31
0.0
  0
LINE
  5
3A
  8
0
 10
-3.687877797
 20
-6.3335051925000005
 30
0.0
 11
-3.385022297
 21
-6.3836775525
 31
0.0
  0
LINE
  5
3B
  8
0
 10
-3.385022297
 20
-6.3836775525
 30
0.0
 11
-2.568662964
 21
-6.3476421174999995
 31
0.0
  0
LINE
  5
3C
  8
0
 10
-2.568662964
 20
-6.3476421174999995
 30
0.0
 11
-2.262943187
 21
-6.3358546475
 31
0.0
  0
LINE
  5
3D
  8
0
 10
-2.262943187
 20
-6.3358546475
 30
0.0
 11
-1.426647732
 21
-6.2908578975000005
 31
0.0
  0
LINE
  5
3E
  8
0
 10
-1.426647732
 20
-6.2908578975000005
 30
0.0
 11
-1.123793984
 21
-6.2763184745
 31
0.0
  0
LINE
  5
3F
  8
0
 10
-1.123793984
 20
-6.2763184745
 30
0.0
 11
-0.2982161614
 21
-6.2571031755
 31
0.0
  0
LINE
  5
40
  8
0
 10
-0.2982161614
 20
-6.2571031755
 30
0.0
 11
0.0
 21
-6.2509780845
 31
0.0
  0
LINE
  5
41
  8
0
 10
0.0
 20
-6.2509780845
 30
0.0
 11
0.3019799814
 21
-6.2577302674999995
 31
0.0
  0
LINE
  5
42
  8
0
 10
0.3019799814
 20
-6.2577302674999995
 30
0.0
 11
1.137248126
 21
-6.278918318500001
 31
0.0
  0
LINE
  5
43
  8
0
 10
1.137248126
 20
-6.278918318500001
 30
0.0
 11
1.448278394
 21
-6.2939142385
 31
0.0
  0
LINE
  5
44
  8
0
 10
1.448278394
 20
-6.2939142385
 30
0.0
 11
2.297358643
 21
-6.3397032735
 31
0.0
  0
LINE
  5
45
  8
0
 10
2.297358643
 20
-6.3397032735
 30
0.0
 11
2.607858824
 21
-6.3513503055000005
 31
0.0
  0
LINE
  5
46
  8
0
 10
2.607858824
 20
-6.3513503055000005
 30
0.0
 11
3.419766354
 21
-6.386206249500001
 31
0.0
  0
LINE
  5
47
  8
0
 10
3.419766354
 20
-6.386206249500001
 30
0.0
 11
3.721092585
 21
-6.3347687845
 31
0.0
  0
LINE
  5
48
  8
0
 10
3.721092585
 20
-6.3347687845
 30
0.0
 11
4.433870434
 21
-6.2235183415
 31
0.0
  0
LINE
  5
49
  8
0
 10
4.433870434
 20
-6.2235183415
 30
0.0
 11
4.763299287
 21
-6.0715891775
 31
0.0
  0
LINE
  5
4A
  8
0
 10
4.763299287
 20
-6.0715891775
 30
0.0
 11
5.407285895
 21
-5.7929823775
 31
0.0
  0
LINE
  5
4B
  8
0
 10
5.407285895
 20
-5.7929823775
 30
0.0
 11
5.757814003
 21
-5.4979197225
 31
0.0
  0
LINE
  5
4C
  8
0
 10
5.757814003
 20
-5.4979197225
 30
0.0
 11
6.288921835
 21
-5.0652474115
 31
0.0
  0
LINE
  5
4D
  8
0
 10
6.288921835
 20
-5.0652474115
 30
0.0
 11
6.602589738
 21
-4.6031068595
 31
0.0
  0
LINE
  5
4E
  8
0
 10
6.602589738
 20
-4.6031068595
 30
0.0
 11
6.932160017
 21
-4.1308265045
 31
0.0
  0
LINE
  5
4F
  8
0
 10
6.932160017
 20
-4.1308265045
 30
0.0
 11
7.139695354
 21
-3.4591252245
 31
0.0
  0
LINE
  5
50
  8
0
 10
7.139695354
 20
-3.4591252245
 30
0.0
 11
7.289986538
 21
-2.9858792865000003
 31
0.0
  0
LINE
  5
51
  8
0
 10
7.289986538
 20
-2.9858792865000003
 30
0.0
 11
7.404298722
 21
-2.0438366665
 31
0.0
  0
LINE
  5
52
  8
0
 10
7.404298722
 20
-2.0438366665
 30
0.0
 11
7.466646719
 21
-1.5676467254999995
 31
0.0
  0
LINE
  5
53
  8
0
 10
7.466646719
 20
-1.5676467254999995
 30
0.0
 11
7.51081552
 21
-0.5251508405000003
 31
0.0
  0
LINE
  5
54
  8
0
 10
7.51081552
 20
-0.5251508405000003
 30
0.0
 11
7.531055079
 21
-0.0839479935000007
 31
0.0
  0
LINE
  5
55
  8
0
 10
7.531055079
 20
-0.0839479935000007
 30
0.0
 11
7.510479149
 21
0.35993472949999905
 31
0.0
  0
LINE
  5
56
  8
0
 10
7.510479149
 20
0.35993472949999905
 30
0.0
 11
7.465599579
 21
1.4077350294999995
 31
0.0
  0
LINE
  5
57
  8
0
 10
7.465599579
 20
1.4077350294999995
 30
0.0
 11
7.403433121
 21
1.8932083795000008
 31
0.0
  0
LINE
  5
58
  8
0
 10
7.403433121
 20
1.8932083795000008
 30
0.0
 11
7.289600276
 21
2.8510914095000004
 31
0.0
  0
LINE
  5
59
  8
0
 10
7.289600276
 20
2.8510914095000004
 30
0.0
 11
7.139448524
 21
3.3388588395000003
 31
0.0
  0
LINE
  5
5A
  8
0
 10
7.139448524
 20
3.3388588395000003
 30
0.0
 11
6.93216372
 21
4.0295231995
 31
0.0
  0
LINE
  5
5B
  8
0
 10
6.93216372
 20
4.0295231995
 30
0.0
 11
6.602609846
 21
4.519939519499999
 31
0.0
  0
LINE
  5
5C
  8
0
 10
6.602609846
 20
4.519939519499999
 30
0.0
 11
6.288953074
 21
4.9984148295
 31
0.0
  0
LINE
  5
5D
  8
0
 10
6.288953074
 20
4.9984148295
 30
0.0
 11
5.757836113
 21
5.450133599499999
 31
0.0
  0
LINE
  5
5E
  8
0
 10
5.757836113
 20
5.450133599499999
 30
0.0
 11
5.407285895
 21
5.757034669499999
 31
0.0
  0
LINE
  5
5F
  8
0
 10
5.407285895
 20
5.757034669499999
 30
0.0
 11
4.751885707
 21
6.0521747994999995
 31
0.0
  0
LINE
  5
60
  8
0
 10
4.751885707
 20
6.0521747994999995
 30
0.0
 11
4.41967525
 21
6.2105072795
 31
0.0
  0
LINE
  5
61
  8
0
 10
4.41967525
 20
6.2105072795
 30
0.0
 11
3.687877797
 21
6.3312853895
 31
0.0
  0
LINE
  5
62
  8
0
 10
3.687877797
 20
6.3312853895
 30
0.0
 11
3.385022297
 21
6.385290109500001
 31
0.0
  0
LINE
  5
63
  8
0
 10
3.385022297
 20
6.385290109500001
 30
0.0
 11
2.568662964
 21
6.354474829499999
 31
0.0
  0
LINE
  5
64
  8
0
 10
2.568662964
 20
6.354474829499999
 30
0.0
 11
2.262943187
 21
6.344377979499999
 31
0.0
  0
LINE
  5
65
  8
0
 10
2.262943187
 20
6.344377979499999
 30
0.0
 11
1.426647732
 21
6.3009689595000005
 31
0.0
  0
LINE
  5
66
  8
0
 10
1.426647732
 20
6.3009689595000005
 30
0.0
 11
1.123793984
 21
6.286920839499999
 31
0.0
  0
LINE
  5
67
  8
0
 10
1.123793984
 20
6.286920839499999
 30
0.0
 11
0.2982161614
 21
6.2675618795000005
 31
0.0
  0
LINE
  5
68
  8
0
 10
0.2982161614
 20
6.2675618795000005
 30
0.0
 11
-3.552713679e-15
 21
6.2613925695
 31
0.0
  0
LINE
  5
69
  8
0
 10
-3.552713679e-15
 20
6.2613925695
 30
0.0
 11
-0.3019799814
 21
6.267980319500001
 31
0.0
  0
LINE
  5
6A
  8
0
 10
-0.3019799814
 20
6.267980319500001
 30
0.0
 11
-1.137248126
 21
6.288635829499999
 31
0.0
  0
LINE
  5
6B
  8
0
 10
-1.137248126
 20
6.288635829499999
 30
0.0
 11
-1.448278394
 21
6.302985659499999
 31
0.0
  0
LINE
  5
6C
  8
0
 10
-1.448278394
 20
6.302985659499999
 30
0.0
 11
-2.297358643
 21
6.346716599499999
 31
0.0
  0
LINE
  5
6D
  8
0
 10
-2.297358643
 20
6.346716599499999
 30
0.0
 11
-2.607858824
 21
6.3566205395
 31
0.0
  0
LINE
  5
6E
  8
0
 10
-2.607858824
 20
6.3566205395
 30
0.0
 11
-3.419766354
 21
6.386206249499999
 31
0.0
  0
LINE
  5
6F
  8
0
 10
-3.419766354
 20
6.386206249499999
 30
0.0
 11
-3.721092585
 21
6.331083939500001
 31
0.0
  0
LINE
  5
70
  8
0
 10
-3.721092585
 20
6.331083939500001
 30
0.0
 11
-4.433870434
 21
6.2099286695
 31
0.0
  0
LINE
  5
71
  8
0
 10
-4.433870434
 20
6.2099286695
 30
0.0
 11
-4.763299287
 21
6.0509792995
 31
0.0
  0
LINE
  5
72
  8
0
 10
-4.763299287
 20
6.0509792995
 30
0.0
 11
-5.407285895
 21
5.757034669499999
 31
0.0
  0
LINE
  5
73
  8
0
 10
-5.407285895
 20
5.757034669499999
 30
0.0
 11
-5.757814003
 21
5.4501706695
 31
0.0
  0
LINE
  5
74
  8
0
 10
-5.757814003
 20
5.4501706695
 30
0.0
 11
-6.288921835
 21
4.9984890895
 31
0.0
  0
LINE
  5
75
  8
0
 10
-6.288921835
 20
4.9984890895
 30
0.0
 11
-6.602589738
 21
4.5199308095
 31
0.0
  0
LINE
  5
76
  8
0
 10
-6.602589738
 20
4.5199308095
 30
0.0
 11
-6.932160017
 21
4.0294155295
 31
0.0
  0
LINE
  5
77
  8
0
 10
-6.932160017
 20
4.0294155295
 30
0.0
 11
-7.139695354
 21
3.3390512895000004
 31
0.0
  0
LINE
  5
78
  8
0
 10
-7.139695354
 20
3.3390512895000004
 30
0.0
 11
-7.289986538
 21
2.8516749595000004
 31
0.0
  0
LINE
  5
79
  8
0
 10
-7.289986538
 20
2.8516749595000004
 30
0.0
 11
-7.404298722
 21
1.8938995794999993
 31
0.0
  0
LINE
  5
7A
  8
0
 10
-7.404298722
 20
1.8938995794999993
 30
0.0
 11
-7.466646719
 21
1.4091181195000004
 31
0.0
  0
LINE
  5
7B
  8
0
 10
-7.466646719
 20
1.4091181195000004
 30
0.0
 11
-7.51081552
 21
0.3601984394999995
 31
0.0
  0
LINE
  5
7C
  8
0
 10
-7.51081552
 20
0.3601984394999995
 30
0.0
 11
-7.531055079
 21
-0.0839479935000007
 31
0.0
  0
LINE
  5
7D
  8
0
 10
0.2
 20
0.2
 30
0.0
 11
0.2
 21
-0.2
 31
0.0
  0
LINE
  5
7E
  8
0
 10
0.2
 20
-0.2
 30
0.0
 11
-0.2
 21
-0.2
 31
0.0
  0
LINE
  5
7F
  8
0
 10
-0.2
 20
-0.2
 30
0.0
 11
-0.2
 21
0.2
 31
0.0
  0
LINE
  5
80
  8
0
 10
-0.2
 20
0.2
 30
0.0
 11
0.2
 21
0.2
 31
0.0
  0
ENDSEC
  0
EOF
