  0
SECTION
  2
HEADER
  9
$ACADVER
  1
AC1009
  9
$DWGCODEPAGE
  3
ANSI_1252
  9
$INSBASE
 10
0.0
 20
0.0
 30
0.0
  9
$EXTMIN
 10
-100
 20
-100
 30
-100
  9
$EXTMAX
 10
100
 20
100
 30
100
  9
$LIMMIN
 10
0.0
 20
0.0
  9
$LIMMAX
 10
420.0
 20
297.0
  9
$ORTHOMODE
 70
0
  9
$REGENMODE
 70
1
  9
$DRAGMODE
 70
2
  9
$FILLMODE
 70
1
  9
$QTEXTMODE
 70
0
  9
$MIRRTEXT
 70
1
  9
$OSMODE
 70
20583
  9
$LTSCALE
 40
1.0
  9
$ATTMODE
 70
1
  9
$TEXTSIZE
 40
2.5
  9
$TRACEWID
 40
1.0
  9
$TEXTSTYLE
  7
Standard
  9
$CLAYER
  8
0
  9
$CELTYPE
  6
ByLayer
  9
$CECOLOR
 62
256
  9
$DIMSCALE
 40
1.0
  9
$DIMASZ
 40
2.5
  9
$DIMEXO
 40
0.625
  9
$DIMDLI
 40
3.75
  9
$DIMRND
 40
0.0
  9
$DIMDLE
 40
0.0
  9
$DIMEXE
 40
1.25
  9
$DIMTP
 40
0.0
  9
$DIMTM
 40
0.0
  9
$DIMTXT
 40
2.5
  9
$DIMCEN
 40
2.5
  9
$DIMTSZ
 40
0.0
  9
$DIMTOL
 70
0
  9
$DIMLIM
 70
0
  9
$DIMTIH
 70
0
  9
$DIMTOH
 70
0
  9
$DIMSE1
 70
0
  9
$DIMSE2
 70
0
  9
$DIMTAD
 70
1
  9
$DIMZIN
 70
8
  9
$DIMBLK
  1

  9
$DIMASO
 70
1
  9
$DIMSHO
 70
1
  9
$DIMPOST
  1

  9
$DIMAPOST
  1

  9
$DIMALT
 70
0
  9
$DIMALTD
 70
3
  9
$DIMALTF
 40
0.03937007874
  9
$DIMLFAC
 40
1.0
  9
$DIMTOFL
 70
1
  9
$DIMTVP
 40
0.0
  9
$DIMTIX
 70
0
  9
$DIMSOXD
 70
0
  9
$DIMSAH
 70
0
  9
$DIMBLK1
  1

  9
$DIMBLK2
  1

  9
$DIMSTYLE
  2
ISO-25
  9
$DIMCLRD
 70
0
  9
$DIMCLRE
 70
0
  9
$DIMCLRT
 70
0
  9
$DIMTFAC
 40
1.0
  9
$DIMGAP
 40
0.625
  9
$COORDS
 70
1
  9
$ATTDIA
 70
0
  9
$ATTREQ
 70
1
  9
$HANDLING
 70
1
  9
$LUNITS
 70
2
  9
$LUPREC
 70
4
  9
$SKETCHINC
 40
1.0
  9
$FILLETRAD
 40
10.0
  9
$AUNITS
 70
0
  9
$AUPREC
 70
2
  9
$MENU
  1
.
  9
$ELEVATION
 40
0.0
  9
$PELEVATION
 40
0.0
  9
$THICKNESS
 40
0.0
  9
$LIMCHECK
 70
0
  9
$CHAMFERA
 40
0.0
  9
$CHAMFERB
 40
0.0
  9
$SKPOLY
 70
0
  9
$TDCREATE
 40
2459751.945671296
  9
$TDUPDATE
 40
2459751.945671296
  9
$TDINDWG
 40
0.0
  9
$TDUSRTIMER
 40
0.0
  9
$USRTIMER
 70
1
  9
$ANGBASE
 50
0.0
  9
$ANGDIR
 70
0
  9
$PDMODE
 70
0
  9
$PDSIZE
 40
0.0
  9
$PLINEWID
 40
0.0
  9
$SPLFRAME
 70
0
  9
$SPLINETYPE
 70
6
  9
$SPLINESEGS
 70
8
  9
$HANDSEED
  5
C7
  9
$SURFTAB1
 70
6
  9
$SURFTAB2
 70
6
  9
$SURFTYPE
 70
6
  9
$SURFU
 70
6
  9
$SURFV
 70
6
  9
$UCSNAME
  2

  9
$UCSORG
 10
0.0
 20
0.0
 30
0.0
  9
$UCSXDIR
 10
1.0
 20
0.0
 30
0.0
  9
$UCSYDIR
 10
0.0
 20
1.0
 30
0.0
  9
$PUCSNAME
  2

  9
$PUCSORG
 10
0.0
 20
0.0
 30
0.0
  9
$PUCSXDIR
 10
1.0
 20
0.0
 30
0.0
  9
$PUCSYDIR
 10
0.0
 20
1.0
 30
0.0
  9
$USERI1
 70
0
  9
$USERI2
 70
0
  9
$USERI3
 70
0
  9
$USERI4
 70
0
  9
$USERI5
 70
0
  9
$USERR1
 40
0.0
  9
$USERR2
 40
0.0
  9
$USERR3
 40
0.0
  9
$USERR4
 40
0.0
  9
$USERR5
 40
0.0
  9
$WORLDVIEW
 70
1
  9
$SHADEDGE
 70
3
  9
$SHADEDIF
 70
70
  9
$TILEMODE
 70
1
  9
$MAXACTVP
 70
64
  9
$PLIMCHECK
 70
0
  9
$PEXTMIN
 10
1e+20
 20
1e+20
 30
1e+20
  9
$PEXTMAX
 10
-1e+20
 20
-1e+20
 30
-1e+20
  9
$PLIMMIN
 10
0.0
 20
0.0
  9
$PLIMMAX
 10
420.0
 20
297.0
  9
$UNITMODE
 70
0
  9
$VISRETAIN
 70
1
  9
$PLINEGEN
 70
0
  9
$PSLTSCALE
 70
1
  0
ENDSEC
  0
SECTION
  2
TABLES
  0
TABLE
  2
VPORT
 70
1
  0
VPORT
  5
23
  2
*Active
 70
0
 10
0.0
 20
0.0
 11
1.0
 21
1.0
 12
70.0
 22
50.0
 13
0.0
 23
0.0
 14
0.5
 24
0.5
 15
0.5
 25
0.5
 16
0.0
 26
0.0
 36
1.0
 17
0.0
 27
0.0
 37
0.0
 40
1.0
 41
1.34
 42
50.0
 43
0.0
 44
0.0
 50
0.0
 51
0.0
 71
0
 72
1000
 73
1
 74
3
 75
0
 76
0
 77
0
 78
0
  0
ENDTAB
  0
TABLE
  2
LTYPE
 70
3
  0
LTYPE
  5
24
  2
ByBlock
 70
0
  3

 72
65
 73
0
 40
0.0
  0
LTYPE
  5
25
  2
ByLayer
 70
0
  3

 72
65
 73
0
 40
0.0
  0
LTYPE
  5
26
  2
Continuous
 70
0
  3

 72
65
 73
0
 40
0.0
  0
ENDTAB
  0
TABLE
  2
LAYER
 70
2
  0
LAYER
  5
27
  2
0
 70
0
 62
7
  6
Continuous
  0
LAYER
  5
28
  2
Defpoints
 70
0
 62
7
  6
Continuous
  0
ENDTAB
  0
TABLE
  2
STYLE
 70
1
  0
STYLE
  5
29
  2
Standard
 70
0
 40
0.0
 41
1.0
 50
0.0
 71
0
 42
2.5
  3
txt
  4

  0
ENDTAB
  0
TABLE
  2
VIEW
 70
0
  0
ENDTAB
  0
TABLE
  2
UCS
 70
0
  0
ENDTAB
  0
TABLE
  2
APPID
 70
2
  0
APPID
  5
2A
  2
ACAD
 70
0
  0
APPID
  5
C6
  2
HATCHBACKGROUNDCOLOR
 70
0
  0
ENDTAB
  0
TABLE
  2
DIMSTYLE
 70
1
  0
DIMSTYLE
105
2B
  2
Standard
 70
0
  3

  4

  5

  6

  7

 40
1.0
 41
2.5
 42
0.625
 43
3.75
 44
1.25
 45
0.0
 46
0.0
 47
0.0
 48
0.0
140
2.5
141
2.5
142
0.0
143
0.03937007874
144
1.0
145
0.0
146
1.0
147
0.625
 71
0
 72
0
 73
0
 74
0
 75
0
 76
0
 77
1
 78
8
170
0
171
3
172
1
173
0
174
0
175
0
176
0
177
0
178
0
  0
ENDTAB
  0
ENDSEC
  0
SECTION
  2
BLOCKS
  0
BLOCK
  5
18
  8
0
  2
$Model_Space
 70
0
 10
0.0
 20
0.0
 30
0.0
  3
$Model_Space
  1

  0
ENDBLK
  5
19
  8
0
  0
BLOCK
  5
1C
  8
0
  2
$Paper_Space
 70
0
 10
0.0
 20
0.0
 30
0.0
  3
$Paper_Space
  1

  0
ENDBLK
  5
1D
  8
0
  0
ENDSEC
  0
SECTION
  2
ENTITIES
  0
LINE
  5
2D
  8
0
 10
-2.63890281
 20
-0.038947747309999975
 30
0.0
 11
-2.537511009
 21
-0.12716717919999998
 31
0.0
  0
LINE
  5
2E
  8
0
 10
-2.537511009
 20
-0.12716717919999998
 30
0.0
 11
-2.5252741309999998
 21
-0.13533374479999996
 31
0.0
  0
LINE
  5
2F
  8
0
 10
-2.5252741309999998
 20
-0.13533374479999996
 30
0.0
 11
-2.5113808979999996
 21
-0.14460571819999998
 31
0.0
  0
LINE
  5
30
  8
0
 10
-2.5113808979999996
 20
-0.14460571819999998
 30
0.0
 11
-2.33836912
 21
-0.18469063879999997
 31
0.0
  0
LINE
  5
31
  8
0
 10
-2.33836912
 20
-0.18469063879999997
 30
0.0
 11
-2.280913837
 21
-0.19800239409999998
 31
0.0
  0
LINE
  5
32
  8
0
 10
-2.280913837
 20
-0.19800239409999998
 30
0.0
 11
-2.123076904
 21
-0.22567480079999996
 31
0.0
  0
LINE
  5
33
  8
0
 10
-2.123076904
 20
-0.22567480079999996
 30
0.0
 11
-2.0033223519999996
 21
-0.24667049959999998
 31
0.0
  0
LINE
  5
34
  8
0
 10
-2.0033223519999996
 20
-0.24667049959999998
 30
0.0
 11
-1.884381963
 21
-0.26216385039999995
 31
0.0
  0
LINE
  5
35
  8
0
 10
-1.884381963
 20
-0.26216385039999995
 30
0.0
 11
-1.70429917
 21
-0.28562170119999997
 31
0.0
  0
LINE
  5
36
  8
0
 10
-1.70429917
 20
-0.28562170119999997
 30
0.0
 11
-1.621047721
 21
-0.29348265999999995
 31
0.0
  0
LINE
  5
37
  8
0
 10
-1.621047721
 20
-0.29348265999999995
 30
0.0
 11
-1.3834069119999999
 21
-0.31592172399999996
 31
0.0
  0
LINE
  5
38
  8
0
 10
-1.3834069119999999
 20
-0.31592172399999996
 30
0.0
 11
-1.3319137419999998
 21
-0.31932979359999997
 31
0.0
  0
LINE
  5
39
  8
0
 10
-1.3319137419999998
 20
-0.31932979359999997
 30
0.0
 11
-1.329592011
 21
-0.3194834572
 31
0.0
  0
LINE
  5
3A
  8
0
 10
-1.329592011
 20
-0.3194834572
 30
0.0
 11
-1.3179352779999998
 21
-0.3202549568
 31
0.0
  0
LINE
  5
3B
  8
0
 10
-1.3179352779999998
 20
-0.3202549568
 30
0.0
 11
-1.30332356
 21
-0.32122203169999997
 31
0.0
  0
LINE
  5
3C
  8
0
 10
-1.30332356
 20
-0.32122203169999997
 30
0.0
 11
-1.275498877
 21
-0.3230636052
 31
0.0
  0
LINE
  5
3D
  8
0
 10
-1.275498877
 20
-0.3230636052
 30
0.0
 11
-1.1630951069999997
 21
-0.3305030362
 31
0.0
  0
LINE
  5
3E
  8
0
 10
-1.1630951069999997
 20
-0.3305030362
 30
0.0
 11
-1.06635327
 21
-0.3369058839
 31
0.0
  0
LINE
  5
3F
  8
0
 10
-1.06635327
 20
-0.3369058839
 30
0.0
 11
-1.0605797959999999
 21
-0.33728800059999997
 31
0.0
  0
LINE
  5
40
  8
0
 10
-1.0605797959999999
 20
-0.33728800059999997
 30
0.0
 11
-1.0574313959999997
 21
-0.3386689718
 31
0.0
  0
LINE
  5
41
  8
0
 10
-1.0574313959999997
 20
-0.3386689718
 30
0.0
 11
-1.057217139
 21
-0.33876295019999997
 31
0.0
  0
LINE
  5
42
  8
0
 10
-1.057217139
 20
-0.33876295019999997
 30
0.0
 11
-1.0392053249999997
 21
-0.3466956152
 31
0.0
  0
LINE
  5
43
  8
0
 10
-1.0392053249999997
 20
-0.3466956152
 30
0.0
 11
-1.0337167539999998
 21
-0.3491128614
 31
0.0
  0
LINE
  5
44
  8
0
 10
-1.0337167539999998
 20
-0.3491128614
 30
0.0
 11
-1.0275882049999998
 21
-0.35181196319999997
 31
0.0
  0
LINE
  5
45
  8
0
 10
-1.0275882049999998
 20
-0.35181196319999997
 30
0.0
 11
-0.9921640319999998
 21
-0.3674132839
 31
0.0
  0
LINE
  5
46
  8
0
 10
-0.9921640319999998
 20
-0.3674132839
 30
0.0
 11
-0.959950519
 21
-0.37452366859999997
 31
0.0
  0
LINE
  5
47
  8
0
 10
-0.959950519
 20
-0.37452366859999997
 30
0.0
 11
-0.9466182540000001
 21
-0.3774664565
 31
0.0
  0
LINE
  5
48
  8
0
 10
-0.9466182540000001
 20
-0.3774664565
 30
0.0
 11
-0.8485393160000001
 21
-0.39860690019999995
 31
0.0
  0
LINE
  5
49
  8
0
 10
-0.8485393160000001
 20
-0.39860690019999995
 30
0.0
 11
-0.816768315
 21
-0.40227589199999997
 31
0.0
  0
LINE
  5
4A
  8
0
 10
-0.816768315
 20
-0.40227589199999997
 30
0.0
 11
-0.7851968339999997
 21
-0.4059218429
 31
0.0
  0
LINE
  5
4B
  8
0
 10
-0.7851968339999997
 20
-0.4059218429
 30
0.0
 11
-0.7779216989999997
 21
-0.4067085163
 31
0.0
  0
LINE
  5
4C
  8
0
 10
-0.7779216989999997
 20
-0.4067085163
 30
0.0
 11
-0.6674966090000001
 21
-0.41864897949999996
 31
0.0
  0
LINE
  5
4D
  8
0
 10
-0.6674966090000001
 20
-0.41864897949999996
 30
0.0
 11
-0.6488206889999999
 21
-0.4206684402
 31
0.0
  0
LINE
  5
4E
  8
0
 10
-0.6488206889999999
 20
-0.4206684402
 30
0.0
 11
-0.6162142340000001
 21
-0.42229089239999995
 31
0.0
  0
LINE
  5
4F
  8
0
 10
-0.6162142340000001
 20
-0.42229089239999995
 30
0.0
 11
-0.5651816159999998
 21
-0.42483020499999996
 31
0.0
  0
LINE
  5
50
  8
0
 10
-0.5651816159999998
 20
-0.42483020499999996
 30
0.0
 11
-0.4609097699999998
 21
-0.4292439426
 31
0.0
  0
LINE
  5
51
  8
0
 10
-0.4609097699999998
 20
-0.4292439426
 30
0.0
 11
-0.38518938899999977
 21
-0.43244912129999996
 31
0.0
  0
LINE
  5
52
  8
0
 10
-0.38518938899999977
 20
-0.43244912129999996
 30
0.0
 11
-0.3481855089999999
 21
-0.43264488749999996
 31
0.0
  0
LINE
  5
53
  8
0
 10
-0.3481855089999999
 20
-0.43264488749999996
 30
0.0
 11
-0.28078577399999993
 21
-0.4330014605
 31
0.0
  0
LINE
  5
54
  8
0
 10
-0.28078577399999993
 20
-0.4330014605
 30
0.0
 11
-0.23883988
 21
-0.4329700802
 31
0.0
  0
LINE
  5
55
  8
0
 10
-0.23883988
 20
-0.4329700802
 30
0.0
 11
-0.07971058499999994
 21
-0.4328510335
 31
0.0
  0
LINE
  5
56
  8
0
 10
-0.07971058499999994
 20
-0.4328510335
 30
0.0
 11
-0.05618651899999971
 21
-0.43283343479999997
 31
0.0
  0
LINE
  5
57
  8
0
 10
-0.05618651899999971
 20
-0.43283343479999997
 30
0.0
 11
-0.008088284999999917
 21
-0.431688823
 31
0.0
  0
LINE
  5
58
  8
0
 10
-0.008088284999999917
 20
-0.431688823
 30
0.0
 11
0.06581801699999978
 21
-0.4299300469
 31
0.0
  0
LINE
  5
59
  8
0
 10
0.06581801699999978
 20
-0.4299300469
 30
0.0
 11
0.16176899600000016
 21
-0.4273185946
 31
0.0
  0
LINE
  5
5A
  8
0
 10
0.16176899600000016
 20
-0.4273185946
 30
0.0
 11
0.32824635800000035
 21
-0.4227876591
 31
0.0
  0
LINE
  5
5B
  8
0
 10
0.32824635800000035
 20
-0.4227876591
 30
0.0
 11
0.37195658100000006
 21
-0.4208796004
 31
0.0
  0
LINE
  5
5C
  8
0
 10
0.37195658100000006
 20
-0.4208796004
 30
0.0
 11
0.3954362810000003
 21
-0.41985465369999997
 31
0.0
  0
LINE
  5
5D
  8
0
 10
0.3954362810000003
 20
-0.41985465369999997
 30
0.0
 11
0.46046340200000024
 21
-0.41701605989999996
 31
0.0
  0
LINE
  5
5E
  8
0
 10
0.46046340200000024
 20
-0.41701605989999996
 30
0.0
 11
0.5856176600000005
 21
-0.411456363
 31
0.0
  0
LINE
  5
5F
  8
0
 10
0.5856176600000005
 20
-0.411456363
 30
0.0
 11
0.7448683620000001
 21
-0.40438200799999996
 31
0.0
  0
LINE
  5
60
  8
0
 10
0.7448683620000001
 20
-0.40438200799999996
 30
0.0
 11
0.9042817840000001
 21
-0.39493611019999997
 31
0.0
  0
LINE
  5
61
  8
0
 10
0.9042817840000001
 20
-0.39493611019999997
 30
0.0
 11
1.0053370829999997
 21
-0.3889481701
 31
0.0
  0
LINE
  5
62
  8
0
 10
1.0053370829999997
 20
-0.3889481701
 30
0.0
 11
1.0290578330000004
 21
-0.3875426185
 31
0.0
  0
LINE
  5
63
  8
0
 10
1.0290578330000004
 20
-0.3875426185
 30
0.0
 11
1.0546259950000003
 21
-0.3860100305
 31
0.0
  0
LINE
  5
64
  8
0
 10
1.0546259950000003
 20
-0.3860100305
 30
0.0
 11
1.161164942
 21
-0.3796239514
 31
0.0
  0
LINE
  5
65
  8
0
 10
1.161164942
 20
-0.3796239514
 30
0.0
 11
1.1774227479999997
 21
-0.3785280349
 31
0.0
  0
LINE
  5
66
  8
0
 10
1.1774227479999997
 20
-0.3785280349
 30
0.0
 11
1.199645168
 21
-0.3770300519
 31
0.0
  0
LINE
  5
67
  8
0
 10
1.199645168
 20
-0.3770300519
 30
0.0
 11
1.3892793289999998
 21
-0.3642470723
 31
0.0
  0
LINE
  5
68
  8
0
 10
1.3892793289999998
 20
-0.3642470723
 30
0.0
 11
1.4034710830000003
 21
-0.36329042559999997
 31
0.0
  0
LINE
  5
69
  8
0
 10
1.4034710830000003
 20
-0.36329042559999997
 30
0.0
 11
1.423103512
 21
-0.36196703039999995
 31
0.0
  0
LINE
  5
6A
  8
0
 10
1.423103512
 20
-0.36196703039999995
 30
0.0
 11
1.442298203
 21
-0.36062947819999996
 31
0.0
  0
LINE
  5
6B
  8
0
 10
1.442298203
 20
-0.36062947819999996
 30
0.0
 11
1.544852542
 21
-0.3534831382
 31
0.0
  0
LINE
  5
6C
  8
0
 10
1.544852542
 20
-0.3534831382
 30
0.0
 11
1.6482791319999999
 21
-0.3460705865
 31
0.0
  0
LINE
  5
6D
  8
0
 10
1.6482791319999999
 20
-0.3460705865
 30
0.0
 11
1.6523115380000002
 21
-0.34578158519999996
 31
0.0
  0
LINE
  5
6E
  8
0
 10
1.6523115380000002
 20
-0.34578158519999996
 30
0.0
 11
1.75210459
 21
-0.33862944809999995
 31
0.0
  0
LINE
  5
6F
  8
0
 10
1.75210459
 20
-0.33862944809999995
 30
0.0
 11
1.7688981010000004
 21
-0.3374258623
 31
0.0
  0
LINE
  5
70
  8
0
 10
1.7688981010000004
 20
-0.3374258623
 30
0.0
 11
1.7982702250000004
 21
-0.33520920959999995
 31
0.0
  0
LINE
  5
71
  8
0
 10
1.7982702250000004
 20
-0.33520920959999995
 30
0.0
 11
1.873020469
 21
-0.3295679652
 31
0.0
  0
LINE
  5
72
  8
0
 10
1.873020469
 20
-0.3295679652
 30
0.0
 11
1.923676414
 21
-0.32581049669999995
 31
0.0
  0
LINE
  5
73
  8
0
 10
1.923676414
 20
-0.32581049669999995
 30
0.0
 11
1.9299695860000003
 21
-0.32534369269999996
 31
0.0
  0
LINE
  5
74
  8
0
 10
1.9299695860000003
 20
-0.32534369269999996
 30
0.0
 11
2.0527115700000005
 21
-0.3162391514
 31
0.0
  0
LINE
  5
75
  8
0
 10
2.0527115700000005
 20
-0.3162391514
 30
0.0
 11
2.089943421
 21
-0.31328755259999996
 31
0.0
  0
LINE
  5
76
  8
0
 10
2.089943421
 20
-0.31328755259999996
 30
0.0
 11
2.1362102190000005
 21
-0.3096196978
 31
0.0
  0
LINE
  5
77
  8
0
 10
2.1362102190000005
 20
-0.3096196978
 30
0.0
 11
2.2058088490000003
 21
-0.3043334074
 31
0.0
  0
LINE
  5
78
  8
0
 10
2.2058088490000003
 20
-0.3043334074
 30
0.0
 11
2.221363084
 21
-0.30315200189999997
 31
0.0
  0
LINE
  5
79
  8
0
 10
2.221363084
 20
-0.30315200189999997
 30
0.0
 11
2.2730274460000004
 21
-0.2992278898
 31
0.0
  0
LINE
  5
7A
  8
0
 10
2.2730274460000004
 20
-0.2992278898
 30
0.0
 11
2.3094924060000004
 21
-0.29623463499999997
 31
0.0
  0
LINE
  5
7B
  8
0
 10
2.3094924060000004
 20
-0.29623463499999997
 30
0.0
 11
2.336596673
 21
-0.29400975989999995
 31
0.0
  0
LINE
  5
7C
  8
0
 10
2.336596673
 20
-0.29400975989999995
 30
0.0
 11
2.4367005280000003
 21
-0.28625866569999997
 31
0.0
  0
LINE
  5
7D
  8
0
 10
2.4367005280000003
 20
-0.28625866569999997
 30
0.0
 11
2.467647573
 21
-0.2836487807
 31
0.0
  0
LINE
  5
7E
  8
0
 10
2.467647573
 20
-0.2836487807
 30
0.0
 11
2.4832076450000002
 21
-0.28233653919999996
 31
0.0
  0
LINE
  5
7F
  8
0
 10
2.4832076450000002
 20
-0.28233653919999996
 30
0.0
 11
2.5150244290000003
 21
-0.2798338551
 31
0.0
  0
LINE
  5
80
  8
0
 10
2.5150244290000003
 20
-0.2798338551
 30
0.0
 11
2.539215018
 21
-0.2779310417
 31
0.0
  0
LINE
  5
81
  8
0
 10
2.539215018
 20
-0.2779310417
 30
0.0
 11
2.5543344030000004
 21
-0.2767417624
 31
0.0
  0
LINE
  5
82
  8
0
 10
2.5543344030000004
 20
-0.2767417624
 30
0.0
 11
2.5784156129999998
 21
-0.27466794349999996
 31
0.0
  0
LINE
  5
83
  8
0
 10
2.5784156129999998
 20
-0.27466794349999996
 30
0.0
 11
2.587376903
 21
-0.2738962176
 31
0.0
  0
LINE
  5
84
  8
0
 10
2.587376903
 20
-0.2738962176
 30
0.0
 11
2.636869108
 21
-0.2699563086
 31
0.0
  0
LINE
  5
85
  8
0
 10
2.636869108
 20
-0.2699563086
 30
0.0
 11
2.6546375170000003
 21
-0.26840237349999996
 31
0.0
  0
LINE
  5
86
  8
0
 10
2.6546375170000003
 20
-0.26840237349999996
 30
0.0
 11
2.6598599910000003
 21
-0.26794564239999996
 31
0.0
  0
LINE
  5
87
  8
0
 10
2.6598599910000003
 20
-0.26794564239999996
 30
0.0
 11
2.654501421
 21
-0.26700976849999997
 31
0.0
  0
LINE
  5
88
  8
0
 10
2.654501421
 20
-0.26700976849999997
 30
0.0
 11
2.636927644
 21
-0.2639405095
 31
0.0
  0
LINE
  5
89
  8
0
 10
2.636927644
 20
-0.2639405095
 30
0.0
 11
2.5955146440000005
 21
-0.2560299852
 31
0.0
  0
LINE
  5
8A
  8
0
 10
2.5955146440000005
 20
-0.2560299852
 30
0.0
 11
2.5875963630000003
 21
-0.254517471
 31
0.0
  0
LINE
  5
8B
  8
0
 10
2.5875963630000003
 20
-0.254517471
 30
0.0
 11
2.5757454190000004
 21
-0.25250612559999996
 31
0.0
  0
LINE
  5
8C
  8
0
 10
2.5757454190000004
 20
-0.25250612559999996
 30
0.0
 11
2.554613272
 21
-0.24891957179999996
 31
0.0
  0
LINE
  5
8D
  8
0
 10
2.554613272
 20
-0.24891957179999996
 30
0.0
 11
2.521214048
 21
-0.2427250734
 31
0.0
  0
LINE
  5
8E
  8
0
 10
2.521214048
 20
-0.2427250734
 30
0.0
 11
2.483649841
 21
-0.23575810249999996
 31
0.0
  0
LINE
  5
8F
  8
0
 10
2.483649841
 20
-0.23575810249999996
 30
0.0
 11
2.457495455
 21
-0.23149864339999998
 31
0.0
  0
LINE
  5
90
  8
0
 10
2.457495455
 20
-0.23149864339999998
 30
0.0
 11
2.437179166
 21
-0.22818996669999997
 31
0.0
  0
LINE
  5
91
  8
0
 10
2.437179166
 20
-0.22818996669999997
 30
0.0
 11
2.388637353
 21
-0.21956217179999998
 31
0.0
  0
LINE
  5
92
  8
0
 10
2.388637353
 20
-0.21956217179999998
 30
0.0
 11
2.3371754989999998
 21
-0.21041537059999998
 31
0.0
  0
LINE
  5
93
  8
0
 10
2.3371754989999998
 20
-0.21041537059999998
 30
0.0
 11
2.279135962
 21
-0.20149919469999997
 31
0.0
  0
LINE
  5
94
  8
0
 10
2.279135962
 20
-0.20149919469999997
 30
0.0
 11
2.2735726830000003
 21
-0.20064455019999997
 31
0.0
  0
LINE
  5
95
  8
0
 10
2.2735726830000003
 20
-0.20064455019999997
 30
0.0
 11
2.2392562820000004
 21
-0.19490267389999996
 31
0.0
  0
LINE
  5
96
  8
0
 10
2.2392562820000004
 20
-0.19490267389999996
 30
0.0
 11
2.267910067
 21
-0.18843090949999997
 31
0.0
  0
LINE
  5
97
  8
0
 10
2.267910067
 20
-0.18843090949999997
 30
0.0
 11
2.461946429
 21
-0.14460571819999998
 31
0.0
  0
LINE
  5
98
  8
0
 10
2.461946429
 20
-0.14460571819999998
 30
0.0
 11
2.5477783919999997
 21
-0.08876471269999997
 31
0.0
  0
LINE
  5
99
  8
0
 10
2.5477783919999997
 20
-0.08876471269999997
 30
0.0
 11
2.720506502
 21
0.03205435759999914
 31
0.0
  0
LINE
  5
9A
  8
0
 10
2.720506502
 20
0.03205435759999914
 30
0.0
 11
2.5477783919999997
 21
0.15287342790000003
 31
0.0
  0
LINE
  5
9B
  8
0
 10
2.5477783919999997
 20
0.15287342790000003
 30
0.0
 11
2.461946429
 21
0.20871443340000004
 31
0.0
  0
LINE
  5
9C
  8
0
 10
2.461946429
 20
0.20871443340000004
 30
0.0
 11
2.2343216200000002
 21
0.26012593540000006
 31
0.0
  0
LINE
  5
9D
  8
0
 10
2.2343216200000002
 20
0.26012593540000006
 30
0.0
 11
2.122222745
 21
0.2832372059
 31
0.0
  0
LINE
  5
9E
  8
0
 10
2.122222745
 20
0.2832372059
 30
0.0
 11
1.9383601090000004
 21
0.32114391220000005
 31
0.0
  0
LINE
  5
9F
  8
0
 10
1.9383601090000004
 20
0.32114391220000005
 30
0.0
 11
1.7390369420000003
 21
0.3574600538
 31
0.0
  0
LINE
  5
A0
  8
0
 10
1.7390369420000003
 20
0.3574600538
 30
0.0
 11
1.664705058
 21
0.371003122
 31
0.0
  0
LINE
  5
A1
  8
0
 10
1.664705058
 20
0.371003122
 30
0.0
 11
1.4327355700000002
 21
0.40611907550000004
 31
0.0
  0
LINE
  5
A2
  8
0
 10
1.4327355700000002
 20
0.40611907550000004
 30
0.0
 11
1.418167661
 21
0.40832439140000004
 31
0.0
  0
LINE
  5
A3
  8
0
 10
1.418167661
 20
0.40832439140000004
 30
0.0
 11
1.3082620150000004
 21
0.4203101623
 31
0.0
  0
LINE
  5
A4
  8
0
 10
1.3082620150000004
 20
0.4203101623
 30
0.0
 11
1.2035591180000003
 21
0.42773166430000004
 31
0.0
  0
LINE
  5
A5
  8
0
 10
1.2035591180000003
 20
0.42773166430000004
 30
0.0
 11
1.1981644769999997
 21
0.42789149400000004
 31
0.0
  0
LINE
  5
A6
  8
0
 10
1.1981644769999997
 20
0.42789149400000004
 30
0.0
 11
1.025690624
 21
0.43300146050000005
 31
0.0
  0
LINE
  5
A7
  8
0
 10
1.025690624
 20
0.43300146050000005
 30
0.0
 11
1.0023043310000004
 21
0.43297598340000004
 31
0.0
  0
LINE
  5
A8
  8
0
 10
1.0023043310000004
 20
0.43297598340000004
 30
0.0
 11
0.5643988909999997
 21
0.43249892840000004
 31
0.0
  0
LINE
  5
A9
  8
0
 10
0.5643988909999997
 20
0.43249892840000004
 30
0.0
 11
0.5432106230000002
 21
0.4324033974
 31
0.0
  0
LINE
  5
AA
  8
0
 10
0.5432106230000002
 20
0.4324033974
 30
0.0
 11
0.1276005229999999
 21
0.4305295458
 31
0.0
  0
LINE
  5
AB
  8
0
 10
0.1276005229999999
 20
0.4305295458
 30
0.0
 11
0.11088405200000029
 21
0.43036232080000003
 31
0.0
  0
LINE
  5
AC
  8
0
 10
0.11088405200000029
 20
0.43036232080000003
 30
0.0
 11
-0.2851418589999999
 21
0.42640063330000005
 31
0.0
  0
LINE
  5
AD
  8
0
 10
-0.2851418589999999
 20
0.42640063330000005
 30
0.0
 11
-0.2944980199999998
 21
0.42623277800000003
 31
0.0
  0
LINE
  5
AE
  8
0
 10
-0.2944980199999998
 20
0.42623277800000003
 30
0.0
 11
-0.6246212689999999
 21
0.4203101623
 31
0.0
  0
LINE
  5
AF
  8
0
 10
-0.6246212689999999
 20
0.4203101623
 30
0.0
 11
-0.6722244329999998
 21
0.4189961903
 31
0.0
  0
LINE
  5
B0
  8
0
 10
-0.6722244329999998
 20
0.4189961903
 30
0.0
 11
-0.6742656380000001
 21
0.41893984770000003
 31
0.0
  0
LINE
  5
B1
  8
0
 10
-0.6742656380000001
 20
0.41893984770000003
 30
0.0
 11
-1.0159332009999997
 21
0.40381930120000004
 31
0.0
  0
LINE
  5
B2
  8
0
 10
-1.0159332009999997
 20
0.40381930120000004
 30
0.0
 11
-1.040208195
 21
0.4027450079
 31
0.0
  0
LINE
  5
B3
  8
0
 10
-1.040208195
 20
0.4027450079
 30
0.0
 11
-1.3319137419999998
 21
0.3834385088
 31
0.0
  0
LINE
  5
B4
  8
0
 10
-1.3319137419999998
 20
0.3834385088
 30
0.0
 11
-1.3834069119999999
 21
0.3800304392
 31
0.0
  0
LINE
  5
B5
  8
0
 10
-1.3834069119999999
 20
0.3800304392
 30
0.0
 11
-1.621047721
 21
0.3575913752
 31
0.0
  0
LINE
  5
B6
  8
0
 10
-1.621047721
 20
0.3575913752
 30
0.0
 11
-1.70429917
 21
0.3497304164
 31
0.0
  0
LINE
  5
B7
  8
0
 10
-1.70429917
 20
0.3497304164
 30
0.0
 11
-1.884381963
 21
0.3262725656
 31
0.0
  0
LINE
  5
B8
  8
0
 10
-1.884381963
 20
0.3262725656
 30
0.0
 11
-2.0033223519999996
 21
0.31077921480000004
 31
0.0
  0
LINE
  5
B9
  8
0
 10
-2.0033223519999996
 20
0.31077921480000004
 30
0.0
 11
-2.123076904
 21
0.289783516
 31
0.0
  0
LINE
  5
BA
  8
0
 10
-2.123076904
 20
0.289783516
 30
0.0
 11
-2.280913837
 21
0.26211110930000003
 31
0.0
  0
LINE
  5
BB
  8
0
 10
-2.280913837
 20
0.26211110930000003
 30
0.0
 11
-2.33836912
 21
0.24879935400000003
 31
0.0
  0
LINE
  5
BC
  8
0
 10
-2.33836912
 20
0.24879935400000003
 30
0.0
 11
-2.5113808979999996
 21
0.20871443340000004
 31
0.0
  0
LINE
  5
BD
  8
0
 10
-2.5113808979999996
 20
0.20871443340000004
 30
0.0
 11
-2.5252741309999998
 21
0.19944246000000002
 31
0.0
  0
LINE
  5
BE
  8
0
 10
-2.5252741309999998
 20
0.19944246000000002
 30
0.0
 11
-2.537511009
 21
0.19127589440000003
 31
0.0
  0
LINE
  5
BF
  8
0
 10
-2.537511009
 20
0.19127589440000003
 30
0.0
 11
-2.63890281
 21
0.10305646251000003
 31
0.0
  0
LINE
  5
C0
  8
0
 10
-2.63890281
 20
0.10305646251000003
 30
0.0
 11
-2.720506502
 21
0.032054357599999916
 31
0.0
  0
LINE
  5
C1
  8
0
 10
-2.720506502
 20
0.032054357599999916
 30
0.0
 11
-2.63890281
 21
-0.038947747309999975
 31
0.0
  0
LINE
  5
C2
  8
0
 10
0.2
 20
0.2
 30
0.0
 11
0.2
 21
-0.2
 31
0.0
  0
LINE
  5
C3
  8
0
 10
0.2
 20
-0.2
 30
0.0
 11
-0.2
 21
-0.2
 31
0.0
  0
LINE
  5
C4
  8
0
 10
-0.2
 20
-0.2
 30
0.0
 11
-0.2
 21
0.2
 31
0.0
  0
LINE
  5
C5
  8
0
 10
-0.2
 20
0.2
 30
0.0
 11
0.2
 21
0.2
 31
0.0
  0
ENDSEC
  0
EOF
