  0
SECTION
  2
HEADER
  9
$ACADVER
  1
AC1009
  9
$DWGCODEPAGE
  3
ANSI_1252
  9
$INSBASE
 10
0.0
 20
0.0
 30
0.0
  9
$EXTMIN
 10
-100
 20
-100
 30
-100
  9
$EXTMAX
 10
100
 20
100
 30
100
  9
$LIMMIN
 10
0.0
 20
0.0
  9
$LIMMAX
 10
420.0
 20
297.0
  9
$ORTHOMODE
 70
0
  9
$REGENMODE
 70
1
  9
$DRAGMODE
 70
2
  9
$FILLMODE
 70
1
  9
$QTEXTMODE
 70
0
  9
$MIRRTEXT
 70
1
  9
$OSMODE
 70
20583
  9
$LTSCALE
 40
1.0
  9
$ATTMODE
 70
1
  9
$TEXTSIZE
 40
2.5
  9
$TRACEWID
 40
1.0
  9
$TEXTSTYLE
  7
Standard
  9
$CLAYER
  8
0
  9
$CELTYPE
  6
ByLayer
  9
$CECOLOR
 62
256
  9
$DIMSCALE
 40
1.0
  9
$DIMASZ
 40
2.5
  9
$DIMEXO
 40
0.625
  9
$DIMDLI
 40
3.75
  9
$DIMRND
 40
0.0
  9
$DIMDLE
 40
0.0
  9
$DIMEXE
 40
1.25
  9
$DIMTP
 40
0.0
  9
$DIMTM
 40
0.0
  9
$DIMTXT
 40
2.5
  9
$DIMCEN
 40
2.5
  9
$DIMTSZ
 40
0.0
  9
$DIMTOL
 70
0
  9
$DIMLIM
 70
0
  9
$DIMTIH
 70
0
  9
$DIMTOH
 70
0
  9
$DIMSE1
 70
0
  9
$DIMSE2
 70
0
  9
$DIMTAD
 70
1
  9
$DIMZIN
 70
8
  9
$DIMBLK
  1

  9
$DIMASO
 70
1
  9
$DIMSHO
 70
1
  9
$DIMPOST
  1

  9
$DIMAPOST
  1

  9
$DIMALT
 70
0
  9
$DIMALTD
 70
3
  9
$DIMALTF
 40
0.03937007874
  9
$DIMLFAC
 40
1.0
  9
$DIMTOFL
 70
1
  9
$DIMTVP
 40
0.0
  9
$DIMTIX
 70
0
  9
$DIMSOXD
 70
0
  9
$DIMSAH
 70
0
  9
$DIMBLK1
  1

  9
$DIMBLK2
  1

  9
$DIMSTYLE
  2
ISO-25
  9
$DIMCLRD
 70
0
  9
$DIMCLRE
 70
0
  9
$DIMCLRT
 70
0
  9
$DIMTFAC
 40
1.0
  9
$DIMGAP
 40
0.625
  9
$COORDS
 70
1
  9
$ATTDIA
 70
0
  9
$ATTREQ
 70
1
  9
$HANDLING
 70
1
  9
$LUNITS
 70
2
  9
$LUPREC
 70
4
  9
$SKETCHINC
 40
1.0
  9
$FILLETRAD
 40
10.0
  9
$AUNITS
 70
0
  9
$AUPREC
 70
2
  9
$MENU
  1
.
  9
$ELEVATION
 40
0.0
  9
$PELEVATION
 40
0.0
  9
$THICKNESS
 40
0.0
  9
$LIMCHECK
 70
0
  9
$CHAMFERA
 40
0.0
  9
$CHAMFERB
 40
0.0
  9
$SKPOLY
 70
0
  9
$TDCREATE
 40
2459751.945671296
  9
$TDUPDATE
 40
2459751.945671296
  9
$TDINDWG
 40
0.0
  9
$TDUSRTIMER
 40
0.0
  9
$USRTIMER
 70
1
  9
$ANGBASE
 50
0.0
  9
$ANGDIR
 70
0
  9
$PDMODE
 70
0
  9
$PDSIZE
 40
0.0
  9
$PLINEWID
 40
0.0
  9
$SPLFRAME
 70
0
  9
$SPLINETYPE
 70
6
  9
$SPLINESEGS
 70
8
  9
$HANDSEED
  5
C0
  9
$SURFTAB1
 70
6
  9
$SURFTAB2
 70
6
  9
$SURFTYPE
 70
6
  9
$SURFU
 70
6
  9
$SURFV
 70
6
  9
$UCSNAME
  2

  9
$UCSORG
 10
0.0
 20
0.0
 30
0.0
  9
$UCSXDIR
 10
1.0
 20
0.0
 30
0.0
  9
$UCSYDIR
 10
0.0
 20
1.0
 30
0.0
  9
$PUCSNAME
  2

  9
$PUCSORG
 10
0.0
 20
0.0
 30
0.0
  9
$PUCSXDIR
 10
1.0
 20
0.0
 30
0.0
  9
$PUCSYDIR
 10
0.0
 20
1.0
 30
0.0
  9
$USERI1
 70
0
  9
$USERI2
 70
0
  9
$USERI3
 70
0
  9
$USERI4
 70
0
  9
$USERI5
 70
0
  9
$USERR1
 40
0.0
  9
$USERR2
 40
0.0
  9
$USERR3
 40
0.0
  9
$USERR4
 40
0.0
  9
$USERR5
 40
0.0
  9
$WORLDVIEW
 70
1
  9
$SHADEDGE
 70
3
  9
$SHADEDIF
 70
70
  9
$TILEMODE
 70
1
  9
$MAXACTVP
 70
64
  9
$PLIMCHECK
 70
0
  9
$PEXTMIN
 10
1e+20
 20
1e+20
 30
1e+20
  9
$PEXTMAX
 10
-1e+20
 20
-1e+20
 30
-1e+20
  9
$PLIMMIN
 10
0.0
 20
0.0
  9
$PLIMMAX
 10
420.0
 20
297.0
  9
$UNITMODE
 70
0
  9
$VISRETAIN
 70
1
  9
$PLINEGEN
 70
0
  9
$PSLTSCALE
 70
1
  0
ENDSEC
  0
SECTION
  2
TABLES
  0
TABLE
  2
VPORT
 70
1
  0
VPORT
  5
23
  2
*Active
 70
0
 10
0.0
 20
0.0
 11
1.0
 21
1.0
 12
70.0
 22
50.0
 13
0.0
 23
0.0
 14
0.5
 24
0.5
 15
0.5
 25
0.5
 16
0.0
 26
0.0
 36
1.0
 17
0.0
 27
0.0
 37
0.0
 40
1.0
 41
1.34
 42
50.0
 43
0.0
 44
0.0
 50
0.0
 51
0.0
 71
0
 72
1000
 73
1
 74
3
 75
0
 76
0
 77
0
 78
0
  0
ENDTAB
  0
TABLE
  2
LTYPE
 70
3
  0
LTYPE
  5
24
  2
ByBlock
 70
0
  3

 72
65
 73
0
 40
0.0
  0
LTYPE
  5
25
  2
ByLayer
 70
0
  3

 72
65
 73
0
 40
0.0
  0
LTYPE
  5
26
  2
Continuous
 70
0
  3

 72
65
 73
0
 40
0.0
  0
ENDTAB
  0
TABLE
  2
LAYER
 70
2
  0
LAYER
  5
27
  2
0
 70
0
 62
7
  6
Continuous
  0
LAYER
  5
28
  2
Defpoints
 70
0
 62
7
  6
Continuous
  0
ENDTAB
  0
TABLE
  2
STYLE
 70
1
  0
STYLE
  5
29
  2
Standard
 70
0
 40
0.0
 41
1.0
 50
0.0
 71
0
 42
2.5
  3
txt
  4

  0
ENDTAB
  0
TABLE
  2
VIEW
 70
0
  0
ENDTAB
  0
TABLE
  2
UCS
 70
0
  0
ENDTAB
  0
TABLE
  2
APPID
 70
2
  0
APPID
  5
2A
  2
ACAD
 70
0
  0
APPID
  5
BF
  2
HATCHBACKGROUNDCOLOR
 70
0
  0
ENDTAB
  0
TABLE
  2
DIMSTYLE
 70
1
  0
DIMSTYLE
105
2B
  2
Standard
 70
0
  3

  4

  5

  6

  7

 40
1.0
 41
2.5
 42
0.625
 43
3.75
 44
1.25
 45
0.0
 46
0.0
 47
0.0
 48
0.0
140
2.5
141
2.5
142
0.0
143
0.03937007874
144
1.0
145
0.0
146
1.0
147
0.625
 71
0
 72
0
 73
0
 74
0
 75
0
 76
0
 77
1
 78
8
170
0
171
3
172
1
173
0
174
0
175
0
176
0
177
0
178
0
  0
ENDTAB
  0
ENDSEC
  0
SECTION
  2
BLOCKS
  0
BLOCK
  5
18
  8
0
  2
$Model_Space
 70
0
 10
0.0
 20
0.0
 30
0.0
  3
$Model_Space
  1

  0
ENDBLK
  5
19
  8
0
  0
BLOCK
  5
1C
  8
0
  2
$Paper_Space
 70
0
 10
0.0
 20
0.0
 30
0.0
  3
$Paper_Space
  1

  0
ENDBLK
  5
1D
  8
0
  0
ENDSEC
  0
SECTION
  2
ENTITIES
  0
LINE
  5
2D
  8
0
 10
-4.4140584644
 20
-4.163336342e-17
 30
0.0
 11
-4.4049625262
 21
-0.03541947894
 31
0.0
  0
LINE
  5
2E
  8
0
 10
-4.4049625262
 20
-0.03541947894
 30
0.0
 11
-4.3966094701000005
 21
-0.06794618302
 31
0.0
  0
LINE
  5
2F
  8
0
 10
-4.3966094701000005
 20
-0.06794618302
 30
0.0
 11
-4.379064384
 21
-0.0916646535
 31
0.0
  0
LINE
  5
30
  8
0
 10
-4.379064384
 20
-0.0916646535
 30
0.0
 11
-4.3364086547000005
 21
-0.1493291557
 31
0.0
  0
LINE
  5
31
  8
0
 10
-4.3364086547000005
 20
-0.1493291557
 30
0.0
 11
-4.3336733858
 21
-0.151732513
 31
0.0
  0
LINE
  5
32
  8
0
 10
-4.3336733858
 20
-0.151732513
 30
0.0
 11
-4.3293503066
 21
-0.1555310075
 31
0.0
  0
LINE
  5
33
  8
0
 10
-4.3293503066
 20
-0.1555310075
 30
0.0
 11
-4.2635057756000005
 21
-0.2003813647
 31
0.0
  0
LINE
  5
34
  8
0
 10
-4.2635057756000005
 20
-0.2003813647
 30
0.0
 11
-4.189534006900001
 21
-0.2507676336
 31
0.0
  0
LINE
  5
35
  8
0
 10
-4.189534006900001
 20
-0.2507676336
 30
0.0
 11
-4.1737162011
 21
-0.2591744206
 31
0.0
  0
LINE
  5
36
  8
0
 10
-4.1737162011
 20
-0.2591744206
 30
0.0
 11
-4.1365312389
 21
-0.2789373424
 31
0.0
  0
LINE
  5
37
  8
0
 10
-4.1365312389
 20
-0.2789373424
 30
0.0
 11
-4.0612694327000005
 21
-0.3107814368
 31
0.0
  0
LINE
  5
38
  8
0
 10
-4.0612694327000005
 20
-0.3107814368
 30
0.0
 11
-4.031347682300001
 21
-0.323441657
 31
0.0
  0
LINE
  5
39
  8
0
 10
-4.031347682300001
 20
-0.323441657
 30
0.0
 11
-3.9250653519000007
 21
-0.3586264409
 31
0.0
  0
LINE
  5
3A
  8
0
 10
-3.9250653519000007
 20
-0.3586264409
 30
0.0
 11
-3.8543539515000003
 21
-0.3820354622
 31
0.0
  0
LINE
  5
3B
  8
0
 10
-3.8543539515000003
 20
-0.3820354622
 30
0.0
 11
-3.7669473921000005
 21
-0.4046661507
 31
0.0
  0
LINE
  5
3C
  8
0
 10
-3.7669473921000005
 20
-0.4046661507
 30
0.0
 11
-3.6581154327000007
 21
-0.4328441522
 31
0.0
  0
LINE
  5
3D
  8
0
 10
-3.6581154327000007
 20
-0.4328441522
 30
0.0
 11
-3.5872785406000007
 21
-0.447139767
 31
0.0
  0
LINE
  5
3E
  8
0
 10
-3.5872785406000007
 20
-0.447139767
 30
0.0
 11
-3.4421947446000005
 21
-0.4764191725
 31
0.0
  0
LINE
  5
3F
  8
0
 10
-3.4421947446000005
 20
-0.4764191725
 30
0.0
 11
-3.3860758486000004
 21
-0.4851904863
 31
0.0
  0
LINE
  5
40
  8
0
 10
-3.3860758486000004
 20
-0.4851904863
 30
0.0
 11
-3.2061545056000007
 21
-0.5133119688
 31
0.0
  0
LINE
  5
41
  8
0
 10
-3.2061545056000007
 20
-0.5133119688
 30
0.0
 11
-3.1631635446000006
 21
-0.5184659178
 31
0.0
  0
LINE
  5
42
  8
0
 10
-3.1631635446000006
 20
-0.5184659178
 30
0.0
 11
-2.9495573336000005
 21
-0.5440739869
 31
0.0
  0
LINE
  5
43
  8
0
 10
-2.9495573336000005
 20
-0.5440739869
 30
0.0
 11
-2.9182526746000006
 21
-0.5469138989
 31
0.0
  0
LINE
  5
44
  8
0
 10
-2.9182526746000006
 20
-0.5469138989
 30
0.0
 11
-2.6719658486
 21
-0.5692566723
 31
0.0
  0
LINE
  5
45
  8
0
 10
-2.6719658486
 20
-0.5692566723
 30
0.0
 11
-2.6509865036000004
 21
-0.5706707248
 31
0.0
  0
LINE
  5
46
  8
0
 10
-2.6509865036000004
 20
-0.5706707248
 30
0.0
 11
-2.3729426666000006
 21
-0.5894114708
 31
0.0
  0
LINE
  5
47
  8
0
 10
-2.3729426666000006
 20
-0.5894114708
 30
0.0
 11
-2.3609690796000002
 21
-0.5899964839
 31
0.0
  0
LINE
  5
48
  8
0
 10
-2.3609690796000002
 20
-0.5899964839
 30
0.0
 11
-2.0520504086000004
 21
-0.605089828
 31
0.0
  0
LINE
  5
49
  8
0
 10
-2.0520504086000004
 20
-0.605089828
 30
0.0
 11
-2.0477853396000003
 21
-0.6052358918
 31
0.0
  0
LINE
  5
4A
  8
0
 10
-2.0477853396000003
 20
-0.6052358918
 30
0.0
 11
-1.8200125376000003
 21
-0.6130363175
 31
0.0
  0
LINE
  5
4B
  8
0
 10
-1.8200125376000003
 20
-0.6130363175
 30
0.0
 11
-1.7106601456000003
 21
-0.616402674
 31
0.0
  0
LINE
  5
4C
  8
0
 10
-1.7106601456000003
 20
-0.616402674
 30
0.0
 11
-1.7088516916000005
 21
-0.6164583463
 31
0.0
  0
LINE
  5
4D
  8
0
 10
-1.7088516916000005
 20
-0.6164583463
 30
0.0
 11
-1.3490112926000006
 21
-0.6238654196
 31
0.0
  0
LINE
  5
4E
  8
0
 10
-1.3490112926000006
 20
-0.6238654196
 30
0.0
 11
-1.3429091346000006
 21
-0.6239910285
 31
0.0
  0
LINE
  5
4F
  8
0
 10
-1.3429091346000006
 20
-0.6239910285
 30
0.0
 11
-0.9631619186000004
 21
-0.6288665141
 31
0.0
  0
LINE
  5
50
  8
0
 10
-0.9631619186000004
 20
-0.6288665141
 30
0.0
 11
-0.9537853556000004
 21
-0.6289868976
 31
0.0
  0
LINE
  5
51
  8
0
 10
-0.9537853556000004
 20
-0.6289868976
 30
0.0
 11
-0.5527786626000006
 21
-0.6318576391
 31
0.0
  0
LINE
  5
52
  8
0
 10
-0.5527786626000006
 20
-0.6318576391
 30
0.0
 11
-0.5410429736000006
 21
-0.6319416529
 31
0.0
  0
LINE
  5
53
  8
0
 10
-0.5410429736000006
 20
-0.6319416529
 30
0.0
 11
-0.11756191560000051
 21
-0.6333080248
 31
0.0
  0
LINE
  5
54
  8
0
 10
-0.11756191560000051
 20
-0.6333080248
 30
0.0
 11
-0.10424460560000082
 21
-0.6333509935
 31
0.0
  0
LINE
  5
55
  8
0
 10
-0.10424460560000082
 20
-0.6333509935
 30
0.0
 11
0.3427418013999999
 21
-0.6336994658
 31
0.0
  0
LINE
  5
56
  8
0
 10
0.3427418013999999
 20
-0.6336994658
 30
0.0
 11
0.35704712739999955
 21
-0.6337106183
 31
0.0
  0
LINE
  5
57
  8
0
 10
0.35704712739999955
 20
-0.6337106183
 30
0.0
 11
0.5303801713999992
 21
-0.6300355789
 31
0.0
  0
LINE
  5
58
  8
0
 10
0.5303801713999992
 20
-0.6300355789
 30
0.0
 11
0.5349156213999997
 21
-0.6299394174
 31
0.0
  0
LINE
  5
59
  8
0
 10
0.5349156213999997
 20
-0.6299394174
 30
0.0
 11
0.7475436203999992
 21
-0.6191539392
 31
0.0
  0
LINE
  5
5A
  8
0
 10
0.7475436203999992
 20
-0.6191539392
 30
0.0
 11
0.7495241643999995
 21
-0.6190534768
 31
0.0
  0
LINE
  5
5B
  8
0
 10
0.7495241643999995
 20
-0.6190534768
 30
0.0
 11
0.8349806303999996
 21
-0.6130363175
 31
0.0
  0
LINE
  5
5C
  8
0
 10
0.8349806303999996
 20
-0.6130363175
 30
0.0
 11
0.9960615613999995
 21
-0.6004187588
 31
0.0
  0
LINE
  5
5D
  8
0
 10
0.9960615613999995
 20
-0.6004187588
 30
0.0
 11
1.0021706993999997
 21
-0.5998428158
 31
0.0
  0
LINE
  5
5E
  8
0
 10
1.0021706993999997
 20
-0.5998428158
 30
0.0
 11
1.2697166123999999
 21
-0.5746197517
 31
0.0
  0
LINE
  5
5F
  8
0
 10
1.2697166123999999
 20
-0.5746197517
 30
0.0
 11
1.2910888503999995
 21
-0.5723397763
 31
0.0
  0
LINE
  5
60
  8
0
 10
1.2910888503999995
 20
-0.5723397763
 30
0.0
 11
1.5656781233999997
 21
-0.5430467842
 31
0.0
  0
LINE
  5
61
  8
0
 10
1.5656781233999997
 20
-0.5430467842
 30
0.0
 11
1.6099895673999995
 21
-0.5378681624
 31
0.0
  0
LINE
  5
62
  8
0
 10
1.6099895673999995
 20
-0.5378681624
 30
0.0
 11
1.8791348953999991
 21
-0.5064134917
 31
0.0
  0
LINE
  5
63
  8
0
 10
1.8791348953999991
 20
-0.5064134917
 30
0.0
 11
1.9555360143999998
 21
-0.4968136007
 31
0.0
  0
LINE
  5
64
  8
0
 10
1.9555360143999998
 20
-0.4968136007
 30
0.0
 11
2.2052757323999996
 21
-0.4654335098
 31
0.0
  0
LINE
  5
65
  8
0
 10
2.2052757323999996
 20
-0.4654335098
 30
0.0
 11
2.3247196864
 21
-0.4494798009
 31
0.0
  0
LINE
  5
66
  8
0
 10
2.3247196864
 20
-0.4494798009
 30
0.0
 11
2.5392894364
 21
-0.4208204741
 31
0.0
  0
LINE
  5
67
  8
0
 10
2.5392894364
 20
-0.4208204741
 30
0.0
 11
2.7150943123999998
 21
-0.3960294696
 31
0.0
  0
LINE
  5
68
  8
0
 10
2.7150943123999998
 20
-0.3960294696
 30
0.0
 11
2.8763648123999994
 21
-0.3732880202
 31
0.0
  0
LINE
  5
69
  8
0
 10
2.8763648123999994
 20
-0.3732880202
 30
0.0
 11
3.1251687833999995
 21
-0.336383407
 31
0.0
  0
LINE
  5
6A
  8
0
 10
3.1251687833999995
 20
-0.336383407
 30
0.0
 11
3.2116906613999996
 21
-0.3235497836
 31
0.0
  0
LINE
  5
6B
  8
0
 10
3.2116906613999996
 20
-0.3235497836
 30
0.0
 11
3.4979858993999997
 21
-0.2789373424
 31
0.0
  0
LINE
  5
6C
  8
0
 10
3.4979858993999997
 20
-0.2789373424
 30
0.0
 11
3.540455787399999
 21
-0.2706244429
 31
0.0
  0
LINE
  5
6D
  8
0
 10
3.540455787399999
 20
-0.2706244429
 30
0.0
 11
3.571568515399999
 21
-0.2642204973
 31
0.0
  0
LINE
  5
6E
  8
0
 10
3.571568515399999
 20
-0.2642204973
 30
0.0
 11
3.8578489933999993
 21
-0.2052952685
 31
0.0
  0
LINE
  5
6F
  8
0
 10
3.8578489933999993
 20
-0.2052952685
 30
0.0
 11
4.1155677854
 21
-0.1493291557
 31
0.0
  0
LINE
  5
70
  8
0
 10
4.1155677854
 20
-0.1493291557
 30
0.0
 11
4.159059082399999
 21
-0.1347981965
 31
0.0
  0
LINE
  5
71
  8
0
 10
4.159059082399999
 20
-0.1347981965
 30
0.0
 11
4.3475499334
 21
-0.06794618302
 31
0.0
  0
LINE
  5
72
  8
0
 10
4.3475499334
 20
-0.06794618302
 30
0.0
 11
4.4046529224
 21
-0.00960885288
 31
0.0
  0
LINE
  5
73
  8
0
 10
4.4046529224
 20
-0.00960885288
 30
0.0
 11
4.4140584644
 21
-8.881784197e-16
 31
0.0
  0
LINE
  5
74
  8
0
 10
4.4140584644
 20
-8.881784197e-16
 30
0.0
 11
4.4046529224
 21
0.00960885288
 31
0.0
  0
LINE
  5
75
  8
0
 10
4.4046529224
 20
0.00960885288
 30
0.0
 11
4.3475499334
 21
0.06794618302
 31
0.0
  0
LINE
  5
76
  8
0
 10
4.3475499334
 20
0.06794618302
 30
0.0
 11
4.159059082399999
 21
0.1347981965
 31
0.0
  0
LINE
  5
77
  8
0
 10
4.159059082399999
 20
0.1347981965
 30
0.0
 11
4.1155677854
 21
0.1493291557
 31
0.0
  0
LINE
  5
78
  8
0
 10
4.1155677854
 20
0.1493291557
 30
0.0
 11
3.8578489933999993
 21
0.2052952685
 31
0.0
  0
LINE
  5
79
  8
0
 10
3.8578489933999993
 20
0.2052952685
 30
0.0
 11
3.571568515399999
 21
0.2642204973
 31
0.0
  0
LINE
  5
7A
  8
0
 10
3.571568515399999
 20
0.2642204973
 30
0.0
 11
3.540455787399999
 21
0.2706244429
 31
0.0
  0
LINE
  5
7B
  8
0
 10
3.540455787399999
 20
0.2706244429
 30
0.0
 11
3.4979858993999997
 21
0.2789373424
 31
0.0
  0
LINE
  5
7C
  8
0
 10
3.4979858993999997
 20
0.2789373424
 30
0.0
 11
3.2116906613999996
 21
0.3235497836
 31
0.0
  0
LINE
  5
7D
  8
0
 10
3.2116906613999996
 20
0.3235497836
 30
0.0
 11
3.1251687833999995
 21
0.336383407
 31
0.0
  0
LINE
  5
7E
  8
0
 10
3.1251687833999995
 20
0.336383407
 30
0.0
 11
2.8763648123999994
 21
0.3732880202
 31
0.0
  0
LINE
  5
7F
  8
0
 10
2.8763648123999994
 20
0.3732880202
 30
0.0
 11
2.7150943123999998
 21
0.3960294696
 31
0.0
  0
LINE
  5
80
  8
0
 10
2.7150943123999998
 20
0.3960294696
 30
0.0
 11
2.5392894364
 21
0.4208204741
 31
0.0
  0
LINE
  5
81
  8
0
 10
2.5392894364
 20
0.4208204741
 30
0.0
 11
2.3247196864
 21
0.4494798009
 31
0.0
  0
LINE
  5
82
  8
0
 10
2.3247196864
 20
0.4494798009
 30
0.0
 11
2.2052757323999996
 21
0.4654335098
 31
0.0
  0
LINE
  5
83
  8
0
 10
2.2052757323999996
 20
0.4654335098
 30
0.0
 11
1.9555360143999998
 21
0.4968136007
 31
0.0
  0
LINE
  5
84
  8
0
 10
1.9555360143999998
 20
0.4968136007
 30
0.0
 11
1.8791348953999991
 21
0.5064134917
 31
0.0
  0
LINE
  5
85
  8
0
 10
1.8791348953999991
 20
0.5064134917
 30
0.0
 11
1.6099895673999995
 21
0.5378681624
 31
0.0
  0
LINE
  5
86
  8
0
 10
1.6099895673999995
 20
0.5378681624
 30
0.0
 11
1.5656781233999997
 21
0.5430467842
 31
0.0
  0
LINE
  5
87
  8
0
 10
1.5656781233999997
 20
0.5430467842
 30
0.0
 11
1.2910888503999995
 21
0.5723397763
 31
0.0
  0
LINE
  5
88
  8
0
 10
1.2910888503999995
 20
0.5723397763
 30
0.0
 11
1.2697166123999999
 21
0.5746197517
 31
0.0
  0
LINE
  5
89
  8
0
 10
1.2697166123999999
 20
0.5746197517
 30
0.0
 11
1.0021706993999997
 21
0.5998428158
 31
0.0
  0
LINE
  5
8A
  8
0
 10
1.0021706993999997
 20
0.5998428158
 30
0.0
 11
0.9960615613999995
 21
0.6004187588
 31
0.0
  0
LINE
  5
8B
  8
0
 10
0.9960615613999995
 20
0.6004187588
 30
0.0
 11
0.8349806303999996
 21
0.6130363175
 31
0.0
  0
LINE
  5
8C
  8
0
 10
0.8349806303999996
 20
0.6130363175
 30
0.0
 11
0.7495241643999995
 21
0.6190534768
 31
0.0
  0
LINE
  5
8D
  8
0
 10
0.7495241643999995
 20
0.6190534768
 30
0.0
 11
0.7475436203999992
 21
0.6191539392
 31
0.0
  0
LINE
  5
8E
  8
0
 10
0.7475436203999992
 20
0.6191539392
 30
0.0
 11
0.5349156213999997
 21
0.6299394174
 31
0.0
  0
LINE
  5
8F
  8
0
 10
0.5349156213999997
 20
0.6299394174
 30
0.0
 11
0.5303801713999992
 21
0.6300355789
 31
0.0
  0
LINE
  5
90
  8
0
 10
0.5303801713999992
 20
0.6300355789
 30
0.0
 11
0.35704712739999955
 21
0.6337106183
 31
0.0
  0
LINE
  5
91
  8
0
 10
0.35704712739999955
 20
0.6337106183
 30
0.0
 11
0.3427418013999999
 21
0.6336994658
 31
0.0
  0
LINE
  5
92
  8
0
 10
0.3427418013999999
 20
0.6336994658
 30
0.0
 11
-0.10424460560000082
 21
0.6333509935
 31
0.0
  0
LINE
  5
93
  8
0
 10
-0.10424460560000082
 20
0.6333509935
 30
0.0
 11
-0.11756191560000051
 21
0.6333080248
 31
0.0
  0
LINE
  5
94
  8
0
 10
-0.11756191560000051
 20
0.6333080248
 30
0.0
 11
-0.5410429736000006
 21
0.6319416529
 31
0.0
  0
LINE
  5
95
  8
0
 10
-0.5410429736000006
 20
0.6319416529
 30
0.0
 11
-0.5527786626000006
 21
0.6318576391
 31
0.0
  0
LINE
  5
96
  8
0
 10
-0.5527786626000006
 20
0.6318576391
 30
0.0
 11
-0.9537853556000004
 21
0.6289868976
 31
0.0
  0
LINE
  5
97
  8
0
 10
-0.9537853556000004
 20
0.6289868976
 30
0.0
 11
-0.9631619186000004
 21
0.6288665141
 31
0.0
  0
LINE
  5
98
  8
0
 10
-0.9631619186000004
 20
0.6288665141
 30
0.0
 11
-1.3429091346000006
 21
0.6239910285
 31
0.0
  0
LINE
  5
99
  8
0
 10
-1.3429091346000006
 20
0.6239910285
 30
0.0
 11
-1.3490112926000006
 21
0.6238654196
 31
0.0
  0
LINE
  5
9A
  8
0
 10
-1.3490112926000006
 20
0.6238654196
 30
0.0
 11
-1.7088516916000005
 21
0.6164583463
 31
0.0
  0
LINE
  5
9B
  8
0
 10
-1.7088516916000005
 20
0.6164583463
 30
0.0
 11
-1.7106601456000003
 21
0.616402674
 31
0.0
  0
LINE
  5
9C
  8
0
 10
-1.7106601456000003
 20
0.616402674
 30
0.0
 11
-1.8200125376000003
 21
0.6130363175
 31
0.0
  0
LINE
  5
9D
  8
0
 10
-1.8200125376000003
 20
0.6130363175
 30
0.0
 11
-2.0477853396000003
 21
0.6052358918
 31
0.0
  0
LINE
  5
9E
  8
0
 10
-2.0477853396000003
 20
0.6052358918
 30
0.0
 11
-2.0520504086000004
 21
0.605089828
 31
0.0
  0
LINE
  5
9F
  8
0
 10
-2.0520504086000004
 20
0.605089828
 30
0.0
 11
-2.3609690796000002
 21
0.5899964839
 31
0.0
  0
LINE
  5
A0
  8
0
 10
-2.3609690796000002
 20
0.5899964839
 30
0.0
 11
-2.3729426666000006
 21
0.5894114708
 31
0.0
  0
LINE
  5
A1
  8
0
 10
-2.3729426666000006
 20
0.5894114708
 30
0.0
 11
-2.6509865036000004
 21
0.5706707248
 31
0.0
  0
LINE
  5
A2
  8
0
 10
-2.6509865036000004
 20
0.5706707248
 30
0.0
 11
-2.6719658486
 21
0.5692566723
 31
0.0
  0
LINE
  5
A3
  8
0
 10
-2.6719658486
 20
0.5692566723
 30
0.0
 11
-2.9182526746000006
 21
0.5469138989
 31
0.0
  0
LINE
  5
A4
  8
0
 10
-2.9182526746000006
 20
0.5469138989
 30
0.0
 11
-2.9495573336000005
 21
0.5440739869
 31
0.0
  0
LINE
  5
A5
  8
0
 10
-2.9495573336000005
 20
0.5440739869
 30
0.0
 11
-3.1631635446000006
 21
0.5184659178
 31
0.0
  0
LINE
  5
A6
  8
0
 10
-3.1631635446000006
 20
0.5184659178
 30
0.0
 11
-3.2061545056000007
 21
0.5133119688
 31
0.0
  0
LINE
  5
A7
  8
0
 10
-3.2061545056000007
 20
0.5133119688
 30
0.0
 11
-3.3860758486000004
 21
0.4851904863
 31
0.0
  0
LINE
  5
A8
  8
0
 10
-3.3860758486000004
 20
0.4851904863
 30
0.0
 11
-3.4421947446000005
 21
0.4764191725
 31
0.0
  0
LINE
  5
A9
  8
0
 10
-3.4421947446000005
 20
0.4764191725
 30
0.0
 11
-3.5872785406000007
 21
0.447139767
 31
0.0
  0
LINE
  5
AA
  8
0
 10
-3.5872785406000007
 20
0.447139767
 30
0.0
 11
-3.6581154327000007
 21
0.4328441522
 31
0.0
  0
LINE
  5
AB
  8
0
 10
-3.6581154327000007
 20
0.4328441522
 30
0.0
 11
-3.7669473921000005
 21
0.4046661507
 31
0.0
  0
LINE
  5
AC
  8
0
 10
-3.7669473921000005
 20
0.4046661507
 30
0.0
 11
-3.8543539515000003
 21
0.3820354622
 31
0.0
  0
LINE
  5
AD
  8
0
 10
-3.8543539515000003
 20
0.3820354622
 30
0.0
 11
-3.9250653519000007
 21
0.3586264409
 31
0.0
  0
LINE
  5
AE
  8
0
 10
-3.9250653519000007
 20
0.3586264409
 30
0.0
 11
-4.031347682300001
 21
0.323441657
 31
0.0
  0
LINE
  5
AF
  8
0
 10
-4.031347682300001
 20
0.323441657
 30
0.0
 11
-4.0612694327000005
 21
0.3107814368
 31
0.0
  0
LINE
  5
B0
  8
0
 10
-4.0612694327000005
 20
0.3107814368
 30
0.0
 11
-4.1365312389
 21
0.2789373424
 31
0.0
  0
LINE
  5
B1
  8
0
 10
-4.1365312389
 20
0.2789373424
 30
0.0
 11
-4.1737162011
 21
0.2591744206
 31
0.0
  0
LINE
  5
B2
  8
0
 10
-4.1737162011
 20
0.2591744206
 30
0.0
 11
-4.189534006900001
 21
0.2507676336
 31
0.0
  0
LINE
  5
B3
  8
0
 10
-4.189534006900001
 20
0.2507676336
 30
0.0
 11
-4.2635057756000005
 21
0.2003813647
 31
0.0
  0
LINE
  5
B4
  8
0
 10
-4.2635057756000005
 20
0.2003813647
 30
0.0
 11
-4.3293503066
 21
0.1555310075
 31
0.0
  0
LINE
  5
B5
  8
0
 10
-4.3293503066
 20
0.1555310075
 30
0.0
 11
-4.3336733858
 21
0.151732513
 31
0.0
  0
LINE
  5
B6
  8
0
 10
-4.3336733858
 20
0.151732513
 30
0.0
 11
-4.3364086547000005
 21
0.1493291557
 31
0.0
  0
LINE
  5
B7
  8
0
 10
-4.3364086547000005
 20
0.1493291557
 30
0.0
 11
-4.379064384
 21
0.0916646535
 31
0.0
  0
LINE
  5
B8
  8
0
 10
-4.379064384
 20
0.0916646535
 30
0.0
 11
-4.3966094701000005
 21
0.06794618302
 31
0.0
  0
LINE
  5
B9
  8
0
 10
-4.3966094701000005
 20
0.06794618302
 30
0.0
 11
-4.4049625262
 21
0.03541947894
 31
0.0
  0
LINE
  5
BA
  8
0
 10
-4.4049625262
 20
0.03541947894
 30
0.0
 11
-4.4140584644
 21
-4.163336342e-17
 31
0.0
  0
LINE
  5
BB
  8
0
 10
0.2
 20
0.2
 30
0.0
 11
0.2
 21
-0.2
 31
0.0
  0
LINE
  5
BC
  8
0
 10
0.2
 20
-0.2
 30
0.0
 11
-0.2
 21
-0.2
 31
0.0
  0
LINE
  5
BD
  8
0
 10
-0.2
 20
-0.2
 30
0.0
 11
-0.2
 21
0.2
 31
0.0
  0
LINE
  5
BE
  8
0
 10
-0.2
 20
0.2
 30
0.0
 11
0.2
 21
0.2
 31
0.0
  0
ENDSEC
  0
EOF
