  0
SECTION
  2
HEADER
  9
$ACADVER
  1
AC1009
  9
$DWGCODEPAGE
  3
ANSI_1252
  9
$INSBASE
 10
0.0
 20
0.0
 30
0.0
  9
$EXTMIN
 10
-100
 20
-100
 30
-100
  9
$EXTMAX
 10
100
 20
100
 30
100
  9
$LIMMIN
 10
0.0
 20
0.0
  9
$LIMMAX
 10
420.0
 20
297.0
  9
$ORTHOMODE
 70
0
  9
$REGENMODE
 70
1
  9
$DRAGMODE
 70
2
  9
$FILLMODE
 70
1
  9
$QTEXTMODE
 70
0
  9
$MIRRTEXT
 70
1
  9
$OSMODE
 70
20583
  9
$LTSCALE
 40
1.0
  9
$ATTMODE
 70
1
  9
$TEXTSIZE
 40
2.5
  9
$TRACEWID
 40
1.0
  9
$TEXTSTYLE
  7
Standard
  9
$CLAYER
  8
0
  9
$CELTYPE
  6
ByLayer
  9
$CECOLOR
 62
256
  9
$DIMSCALE
 40
1.0
  9
$DIMASZ
 40
2.5
  9
$DIMEXO
 40
0.625
  9
$DIMDLI
 40
3.75
  9
$DIMRND
 40
0.0
  9
$DIMDLE
 40
0.0
  9
$DIMEXE
 40
1.25
  9
$DIMTP
 40
0.0
  9
$DIMTM
 40
0.0
  9
$DIMTXT
 40
2.5
  9
$DIMCEN
 40
2.5
  9
$DIMTSZ
 40
0.0
  9
$DIMTOL
 70
0
  9
$DIMLIM
 70
0
  9
$DIMTIH
 70
0
  9
$DIMTOH
 70
0
  9
$DIMSE1
 70
0
  9
$DIMSE2
 70
0
  9
$DIMTAD
 70
1
  9
$DIMZIN
 70
8
  9
$DIMBLK
  1

  9
$DIMASO
 70
1
  9
$DIMSHO
 70
1
  9
$DIMPOST
  1

  9
$DIMAPOST
  1

  9
$DIMALT
 70
0
  9
$DIMALTD
 70
3
  9
$DIMALTF
 40
0.03937007874
  9
$DIMLFAC
 40
1.0
  9
$DIMTOFL
 70
1
  9
$DIMTVP
 40
0.0
  9
$DIMTIX
 70
0
  9
$DIMSOXD
 70
0
  9
$DIMSAH
 70
0
  9
$DIMBLK1
  1

  9
$DIMBLK2
  1

  9
$DIMSTYLE
  2
ISO-25
  9
$DIMCLRD
 70
0
  9
$DIMCLRE
 70
0
  9
$DIMCLRT
 70
0
  9
$DIMTFAC
 40
1.0
  9
$DIMGAP
 40
0.625
  9
$COORDS
 70
1
  9
$ATTDIA
 70
0
  9
$ATTREQ
 70
1
  9
$HANDLING
 70
1
  9
$LUNITS
 70
2
  9
$LUPREC
 70
4
  9
$SKETCHINC
 40
1.0
  9
$FILLETRAD
 40
10.0
  9
$AUNITS
 70
0
  9
$AUPREC
 70
2
  9
$MENU
  1
.
  9
$ELEVATION
 40
0.0
  9
$PELEVATION
 40
0.0
  9
$THICKNESS
 40
0.0
  9
$LIMCHECK
 70
0
  9
$CHAMFERA
 40
0.0
  9
$CHAMFERB
 40
0.0
  9
$SKPOLY
 70
0
  9
$TDCREATE
 40
2459867.7772685187
  9
$TDUPDATE
 40
2459867.7772685187
  9
$TDINDWG
 40
0.0
  9
$TDUSRTIMER
 40
0.0
  9
$USRTIMER
 70
1
  9
$ANGBASE
 50
0.0
  9
$ANGDIR
 70
0
  9
$PDMODE
 70
0
  9
$PDSIZE
 40
0.0
  9
$PLINEWID
 40
0.0
  9
$SPLFRAME
 70
0
  9
$SPLINETYPE
 70
6
  9
$SPLINESEGS
 70
8
  9
$HANDSEED
  5
86
  9
$SURFTAB1
 70
6
  9
$SURFTAB2
 70
6
  9
$SURFTYPE
 70
6
  9
$SURFU
 70
6
  9
$SURFV
 70
6
  9
$UCSNAME
  2

  9
$UCSORG
 10
0.0
 20
0.0
 30
0.0
  9
$UCSXDIR
 10
1.0
 20
0.0
 30
0.0
  9
$UCSYDIR
 10
0.0
 20
1.0
 30
0.0
  9
$PUCSNAME
  2

  9
$PUCSORG
 10
0.0
 20
0.0
 30
0.0
  9
$PUCSXDIR
 10
1.0
 20
0.0
 30
0.0
  9
$PUCSYDIR
 10
0.0
 20
1.0
 30
0.0
  9
$USERI1
 70
0
  9
$USERI2
 70
0
  9
$USERI3
 70
0
  9
$USERI4
 70
0
  9
$USERI5
 70
0
  9
$USERR1
 40
0.0
  9
$USERR2
 40
0.0
  9
$USERR3
 40
0.0
  9
$USERR4
 40
0.0
  9
$USERR5
 40
0.0
  9
$WORLDVIEW
 70
1
  9
$SHADEDGE
 70
3
  9
$SHADEDIF
 70
70
  9
$TILEMODE
 70
1
  9
$MAXACTVP
 70
64
  9
$PLIMCHECK
 70
0
  9
$PEXTMIN
 10
1e+20
 20
1e+20
 30
1e+20
  9
$PEXTMAX
 10
-1e+20
 20
-1e+20
 30
-1e+20
  9
$PLIMMIN
 10
0.0
 20
0.0
  9
$PLIMMAX
 10
420.0
 20
297.0
  9
$UNITMODE
 70
0
  9
$VISRETAIN
 70
1
  9
$PLINEGEN
 70
0
  9
$PSLTSCALE
 70
1
  0
ENDSEC
  0
SECTION
  2
TABLES
  0
TABLE
  2
VPORT
 70
1
  0
VPORT
  5
23
  2
*Active
 70
0
 10
0.0
 20
0.0
 11
1.0
 21
1.0
 12
70.0
 22
50.0
 13
0.0
 23
0.0
 14
0.5
 24
0.5
 15
0.5
 25
0.5
 16
0.0
 26
0.0
 36
1.0
 17
0.0
 27
0.0
 37
0.0
 40
1.0
 41
1.34
 42
50.0
 43
0.0
 44
0.0
 50
0.0
 51
0.0
 71
0
 72
1000
 73
1
 74
3
 75
0
 76
0
 77
0
 78
0
  0
ENDTAB
  0
TABLE
  2
LTYPE
 70
3
  0
LTYPE
  5
24
  2
ByBlock
 70
0
  3

 72
65
 73
0
 40
0.0
  0
LTYPE
  5
25
  2
ByLayer
 70
0
  3

 72
65
 73
0
 40
0.0
  0
LTYPE
  5
26
  2
Continuous
 70
0
  3

 72
65
 73
0
 40
0.0
  0
ENDTAB
  0
TABLE
  2
LAYER
 70
2
  0
LAYER
  5
27
  2
0
 70
0
 62
7
  6
Continuous
  0
LAYER
  5
28
  2
Defpoints
 70
0
 62
7
  6
Continuous
  0
ENDTAB
  0
TABLE
  2
STYLE
 70
1
  0
STYLE
  5
29
  2
Standard
 70
0
 40
0.0
 41
1.0
 50
0.0
 71
0
 42
2.5
  3
txt
  4

  0
ENDTAB
  0
TABLE
  2
VIEW
 70
0
  0
ENDTAB
  0
TABLE
  2
UCS
 70
0
  0
ENDTAB
  0
TABLE
  2
APPID
 70
2
  0
APPID
  5
2A
  2
ACAD
 70
0
  0
APPID
  5
85
  2
HATCHBACKGROUNDCOLOR
 70
0
  0
ENDTAB
  0
TABLE
  2
DIMSTYLE
 70
1
  0
DIMSTYLE
105
2B
  2
Standard
 70
0
  3

  4

  5

  6

  7

 40
1.0
 41
2.5
 42
0.625
 43
3.75
 44
1.25
 45
0.0
 46
0.0
 47
0.0
 48
0.0
140
2.5
141
2.5
142
0.0
143
0.03937007874
144
1.0
145
0.0
146
1.0
147
0.625
 71
0
 72
0
 73
0
 74
0
 75
0
 76
0
 77
1
 78
8
170
0
171
3
172
1
173
0
174
0
175
0
176
0
177
0
178
0
  0
ENDTAB
  0
ENDSEC
  0
SECTION
  2
BLOCKS
  0
BLOCK
  5
18
  8
0
  2
$Model_Space
 70
0
 10
0.0
 20
0.0
 30
0.0
  3
$Model_Space
  1

  0
ENDBLK
  5
19
  8
0
  0
BLOCK
  5
1C
  8
0
  2
$Paper_Space
 70
0
 10
0.0
 20
0.0
 30
0.0
  3
$Paper_Space
  1

  0
ENDBLK
  5
1D
  8
0
  0
ENDSEC
  0
SECTION
  2
ENTITIES
  0
LINE
  5
2D
  8
0
 10
-9.787954968
 20
-0.0442082819999996
 30
0.0
 11
-9.795984317
 21
-1.0788068369999992
 31
0.0
  0
LINE
  5
2E
  8
0
 10
-9.795984317
 20
-1.0788068369999992
 30
0.0
 11
-9.753093766
 21
-1.8336819999999996
 31
0.0
  0
LINE
  5
2F
  8
0
 10
-9.753093766
 20
-1.8336819999999996
 30
0.0
 11
-9.714022349
 21
-2.390504857
 31
0.0
  0
LINE
  5
30
  8
0
 10
-9.714022349
 20
-2.390504857
 30
0.0
 11
-9.646155599
 21
-2.9260079999999995
 31
0.0
  0
LINE
  5
31
  8
0
 10
-9.646155599
 20
-2.9260079999999995
 30
0.0
 11
-9.538615062
 21
-3.6079807669999995
 31
0.0
  0
LINE
  5
32
  8
0
 10
-9.538615062
 20
-3.6079807669999995
 30
0.0
 11
-9.437146174
 21
-3.8878384329999998
 31
0.0
  0
LINE
  5
33
  8
0
 10
-9.437146174
 20
-3.8878384329999998
 30
0.0
 11
-9.158136254
 21
-4.562954957
 31
0.0
  0
LINE
  5
34
  8
0
 10
-9.158136254
 20
-4.562954957
 30
0.0
 11
-9.076386773
 21
-4.68000878
 31
0.0
  0
LINE
  5
35
  8
0
 10
-9.076386773
 20
-4.68000878
 30
0.0
 11
-8.602768739
 21
-5.297241629
 31
0.0
  0
LINE
  5
36
  8
0
 10
-8.602768739
 20
-5.297241629
 30
0.0
 11
-8.534254838
 21
-5.386900406
 31
0.0
  0
LINE
  5
37
  8
0
 10
-8.534254838
 20
-5.386900406
 30
0.0
 11
-8.522402359
 21
-5.4009616309999995
 31
0.0
  0
LINE
  5
38
  8
0
 10
-8.522402359
 20
-5.4009616309999995
 30
0.0
 11
-7.794371643
 21
-5.993649317999999
 31
0.0
  0
LINE
  5
39
  8
0
 10
-7.794371643
 20
-5.993649317999999
 30
0.0
 11
-7.658345395
 21
-6.0951639589
 31
0.0
  0
LINE
  5
3A
  8
0
 10
-7.658345395
 20
-6.0951639589
 30
0.0
 11
-6.773585438
 21
-6.550053109499999
 31
0.0
  0
LINE
  5
3B
  8
0
 10
-6.773585438
 20
-6.550053109499999
 30
0.0
 11
-6.42165271
 21
-6.718766050999999
 31
0.0
  0
LINE
  5
3C
  8
0
 10
-6.42165271
 20
-6.718766050999999
 30
0.0
 11
-5.592565736
 21
-6.906102521799999
 31
0.0
  0
LINE
  5
3D
  8
0
 10
-5.592565736
 20
-6.906102521799999
 30
0.0
 11
-5.028885902
 21
-7.02614184513
 31
0.0
  0
LINE
  5
3E
  8
0
 10
-5.028885902
 20
-7.02614184513
 30
0.0
 11
-4.237258237
 21
-7.04647435064
 31
0.0
  0
LINE
  5
3F
  8
0
 10
-4.237258237
 20
-7.04647435064
 30
0.0
 11
-3.418005303
 21
-7.068260508432999
 31
0.0
  0
LINE
  5
40
  8
0
 10
-3.418005303
 20
-7.068260508432999
 30
0.0
 11
-2.720252713
 21
-7.070943263598999
 31
0.0
  0
LINE
  5
41
  8
0
 10
-2.720252713
 20
-7.070943263598999
 30
0.0
 11
-1.709127724
 21
-7.075533164985
 31
0.0
  0
LINE
  5
42
  8
0
 10
-1.709127724
 20
-7.075533164985
 30
0.0
 11
-1.100753731
 21
-7.0758689264973995
 31
0.0
  0
LINE
  5
43
  8
0
 10
-1.100753731
 20
-7.0758689264973995
 30
0.0
 11
-9.860761315e-32
 21
-7.076581059999999
 31
0.0
  0
LINE
  5
44
  8
0
 10
-9.860761315e-32
 20
-7.076581059999999
 30
0.0
 11
1.100753731
 21
-7.0758689264973995
 31
0.0
  0
LINE
  5
45
  8
0
 10
1.100753731
 20
-7.0758689264973995
 30
0.0
 11
1.709127724
 21
-7.075533164985
 31
0.0
  0
LINE
  5
46
  8
0
 10
1.709127724
 20
-7.075533164985
 30
0.0
 11
2.720252713
 21
-7.070943263598999
 31
0.0
  0
LINE
  5
47
  8
0
 10
2.720252713
 20
-7.070943263598999
 30
0.0
 11
3.418005303
 21
-7.068260508432999
 31
0.0
  0
LINE
  5
48
  8
0
 10
3.418005303
 20
-7.068260508432999
 30
0.0
 11
4.237258237
 21
-7.04647435064
 31
0.0
  0
LINE
  5
49
  8
0
 10
4.237258237
 20
-7.04647435064
 30
0.0
 11
5.028885902
 21
-7.02614184513
 31
0.0
  0
LINE
  5
4A
  8
0
 10
5.028885902
 20
-7.02614184513
 30
0.0
 11
5.592565736
 21
-6.906102521799999
 31
0.0
  0
LINE
  5
4B
  8
0
 10
5.592565736
 20
-6.906102521799999
 30
0.0
 11
6.42165271
 21
-6.718766050999999
 31
0.0
  0
LINE
  5
4C
  8
0
 10
6.42165271
 20
-6.718766050999999
 30
0.0
 11
6.773585438
 21
-6.550053109499999
 31
0.0
  0
LINE
  5
4D
  8
0
 10
6.773585438
 20
-6.550053109499999
 30
0.0
 11
7.658345395
 21
-6.0951639589
 31
0.0
  0
LINE
  5
4E
  8
0
 10
7.658345395
 20
-6.0951639589
 30
0.0
 11
7.794371643
 21
-5.993649317999999
 31
0.0
  0
LINE
  5
4F
  8
0
 10
7.794371643
 20
-5.993649317999999
 30
0.0
 11
8.522402359
 21
-5.4009616309999995
 31
0.0
  0
LINE
  5
50
  8
0
 10
8.522402359
 20
-5.4009616309999995
 30
0.0
 11
8.534254838
 21
-5.386900406
 31
0.0
  0
LINE
  5
51
  8
0
 10
8.534254838
 20
-5.386900406
 30
0.0
 11
8.602768739
 21
-5.297241629
 31
0.0
  0
LINE
  5
52
  8
0
 10
8.602768739
 20
-5.297241629
 30
0.0
 11
9.076386773
 21
-4.68000878
 31
0.0
  0
LINE
  5
53
  8
0
 10
9.076386773
 20
-4.68000878
 30
0.0
 11
9.158136254
 21
-4.562954957
 31
0.0
  0
LINE
  5
54
  8
0
 10
9.158136254
 20
-4.562954957
 30
0.0
 11
9.437146174
 21
-3.8878384329999998
 31
0.0
  0
LINE
  5
55
  8
0
 10
9.437146174
 20
-3.8878384329999998
 30
0.0
 11
9.538615062
 21
-3.6079807669999995
 31
0.0
  0
LINE
  5
56
  8
0
 10
9.538615062
 20
-3.6079807669999995
 30
0.0
 11
9.646155599
 21
-2.9260079999999995
 31
0.0
  0
LINE
  5
57
  8
0
 10
9.646155599
 20
-2.9260079999999995
 30
0.0
 11
9.714022349
 21
-2.390504857
 31
0.0
  0
LINE
  5
58
  8
0
 10
9.714022349
 20
-2.390504857
 30
0.0
 11
9.753093766
 21
-1.8336819999999996
 31
0.0
  0
LINE
  5
59
  8
0
 10
9.753093766
 20
-1.8336819999999996
 30
0.0
 11
9.795984317
 21
-1.0788068369999992
 31
0.0
  0
LINE
  5
5A
  8
0
 10
9.795984317
 20
-1.0788068369999992
 30
0.0
 11
9.787954968
 21
-0.0442082819999996
 31
0.0
  0
LINE
  5
5B
  8
0
 10
9.787954968
 20
-0.0442082819999996
 30
0.0
 11
9.784881786
 21
0.2968064790000007
 31
0.0
  0
LINE
  5
5C
  8
0
 10
9.784881786
 20
0.2968064790000007
 30
0.0
 11
9.700655654
 21
1.5529237940000007
 31
0.0
  0
LINE
  5
5D
  8
0
 10
9.700655654
 20
1.5529237940000007
 30
0.0
 11
9.689931622
 21
1.6915806729999998
 31
0.0
  0
LINE
  5
5E
  8
0
 10
9.689931622
 20
1.6915806729999998
 30
0.0
 11
9.463889992
 21
2.6214410599999995
 31
0.0
  0
LINE
  5
5F
  8
0
 10
9.463889992
 20
2.6214410599999995
 30
0.0
 11
9.395395015
 21
2.899694344000001
 31
0.0
  0
LINE
  5
60
  8
0
 10
9.395395015
 20
2.899694344000001
 30
0.0
 11
9.37959151
 21
2.932681680000001
 31
0.0
  0
LINE
  5
61
  8
0
 10
9.37959151
 20
2.932681680000001
 30
0.0
 11
8.837863505
 21
4.04490012
 31
0.0
  0
LINE
  5
62
  8
0
 10
8.837863505
 20
4.04490012
 30
0.0
 11
8.728875171
 21
4.18591834
 31
0.0
  0
LINE
  5
63
  8
0
 10
8.728875171
 20
4.18591834
 30
0.0
 11
8.042211643
 21
5.0747699200000005
 31
0.0
  0
LINE
  5
64
  8
0
 10
8.042211643
 20
5.0747699200000005
 30
0.0
 11
7.759953131
 21
5.2959693
 31
0.0
  0
LINE
  5
65
  8
0
 10
7.759953131
 20
5.2959693
 30
0.0
 11
6.816189348
 21
6.0483451
 31
0.0
  0
LINE
  5
66
  8
0
 10
6.816189348
 20
6.0483451
 30
0.0
 11
6.384933065
 21
6.223183680000001
 31
0.0
  0
LINE
  5
67
  8
0
 10
6.384933065
 20
6.223183680000001
 30
0.0
 11
5.393778299
 21
6.64602297
 31
0.0
  0
LINE
  5
68
  8
0
 10
5.393778299
 20
6.64602297
 30
0.0
 11
4.782467664
 21
6.72429738
 31
0.0
  0
LINE
  5
69
  8
0
 10
4.782467664
 20
6.72429738
 30
0.0
 11
3.691524449
 21
6.888584370000001
 31
0.0
  0
LINE
  5
6A
  8
0
 10
3.691524449
 20
6.888584370000001
 30
0.0
 11
2.961821209
 21
6.9372644800000005
 31
0.0
  0
LINE
  5
6B
  8
0
 10
2.961821209
 20
6.9372644800000005
 30
0.0
 11
1.851424804
 21
7.0272996
 31
0.0
  0
LINE
  5
6C
  8
0
 10
1.851424804
 20
7.0272996
 30
0.0
 11
1.081283031
 21
7.045483680000001
 31
0.0
  0
LINE
  5
6D
  8
0
 10
1.081283031
 20
7.045483680000001
 30
0.0
 11
-3.552713679e-15
 21
7.07658106
 31
0.0
  0
LINE
  5
6E
  8
0
 10
-3.552713679e-15
 20
7.07658106
 30
0.0
 11
-1.081283031
 21
7.045483680000001
 31
0.0
  0
LINE
  5
6F
  8
0
 10
-1.081283031
 20
7.045483680000001
 30
0.0
 11
-1.851424804
 21
7.0272996
 31
0.0
  0
LINE
  5
70
  8
0
 10
-1.851424804
 20
7.0272996
 30
0.0
 11
-2.961821209
 21
6.9372644800000005
 31
0.0
  0
LINE
  5
71
  8
0
 10
-2.961821209
 20
6.9372644800000005
 30
0.0
 11
-3.691524449
 21
6.888584370000001
 31
0.0
  0
LINE
  5
72
  8
0
 10
-3.691524449
 20
6.888584370000001
 30
0.0
 11
-4.782467664
 21
6.72429738
 31
0.0
  0
LINE
  5
73
  8
0
 10
-4.782467664
 20
6.72429738
 30
0.0
 11
-5.393778299
 21
6.64602297
 31
0.0
  0
LINE
  5
74
  8
0
 10
-5.393778299
 20
6.64602297
 30
0.0
 11
-6.384933065
 21
6.223183680000001
 31
0.0
  0
LINE
  5
75
  8
0
 10
-6.384933065
 20
6.223183680000001
 30
0.0
 11
-6.816189348
 21
6.0483451
 31
0.0
  0
LINE
  5
76
  8
0
 10
-6.816189348
 20
6.0483451
 30
0.0
 11
-7.759953131
 21
5.2959693
 31
0.0
  0
LINE
  5
77
  8
0
 10
-7.759953131
 20
5.2959693
 30
0.0
 11
-8.042211643
 21
5.0747699200000005
 31
0.0
  0
LINE
  5
78
  8
0
 10
-8.042211643
 20
5.0747699200000005
 30
0.0
 11
-8.728875171
 21
4.18591834
 31
0.0
  0
LINE
  5
79
  8
0
 10
-8.728875171
 20
4.18591834
 30
0.0
 11
-8.837863505
 21
4.04490012
 31
0.0
  0
LINE
  5
7A
  8
0
 10
-8.837863505
 20
4.04490012
 30
0.0
 11
-9.37959151
 21
2.932681680000001
 31
0.0
  0
LINE
  5
7B
  8
0
 10
-9.37959151
 20
2.932681680000001
 30
0.0
 11
-9.395395015
 21
2.899694344000001
 31
0.0
  0
LINE
  5
7C
  8
0
 10
-9.395395015
 20
2.899694344000001
 30
0.0
 11
-9.463889992
 21
2.6214410599999995
 31
0.0
  0
LINE
  5
7D
  8
0
 10
-9.463889992
 20
2.6214410599999995
 30
0.0
 11
-9.689931622
 21
1.6915806729999998
 31
0.0
  0
LINE
  5
7E
  8
0
 10
-9.689931622
 20
1.6915806729999998
 30
0.0
 11
-9.700655654
 21
1.5529237940000007
 31
0.0
  0
LINE
  5
7F
  8
0
 10
-9.700655654
 20
1.5529237940000007
 30
0.0
 11
-9.784881786
 21
0.2968064790000007
 31
0.0
  0
LINE
  5
80
  8
0
 10
-9.784881786
 20
0.2968064790000007
 30
0.0
 11
-9.787954968
 21
-0.0442082819999996
 31
0.0
  0
LINE
  5
81
  8
0
 10
0.2
 20
0.2
 30
0.0
 11
0.2
 21
-0.2
 31
0.0
  0
LINE
  5
82
  8
0
 10
0.2
 20
-0.2
 30
0.0
 11
-0.2
 21
-0.2
 31
0.0
  0
LINE
  5
83
  8
0
 10
-0.2
 20
-0.2
 30
0.0
 11
-0.2
 21
0.2
 31
0.0
  0
LINE
  5
84
  8
0
 10
-0.2
 20
0.2
 30
0.0
 11
0.2
 21
0.2
 31
0.0
  0
ENDSEC
  0
EOF
