  0
SECTION
  2
HEADER
  9
$ACADVER
  1
AC1009
  9
$DWGCODEPAGE
  3
ANSI_1252
  9
$INSBASE
 10
0.0
 20
0.0
 30
0.0
  9
$EXTMIN
 10
-100
 20
-100
 30
-100
  9
$EXTMAX
 10
100
 20
100
 30
100
  9
$LIMMIN
 10
0.0
 20
0.0
  9
$LIMMAX
 10
420.0
 20
297.0
  9
$ORTHOMODE
 70
0
  9
$REGENMODE
 70
1
  9
$DRAGMODE
 70
2
  9
$FILLMODE
 70
1
  9
$QTEXTMODE
 70
0
  9
$MIRRTEXT
 70
1
  9
$OSMODE
 70
20583
  9
$LTSCALE
 40
1.0
  9
$ATTMODE
 70
1
  9
$TEXTSIZE
 40
2.5
  9
$TRACEWID
 40
1.0
  9
$TEXTSTYLE
  7
Standard
  9
$CLAYER
  8
0
  9
$CELTYPE
  6
ByLayer
  9
$CECOLOR
 62
256
  9
$DIMSCALE
 40
1.0
  9
$DIMASZ
 40
2.5
  9
$DIMEXO
 40
0.625
  9
$DIMDLI
 40
3.75
  9
$DIMRND
 40
0.0
  9
$DIMDLE
 40
0.0
  9
$DIMEXE
 40
1.25
  9
$DIMTP
 40
0.0
  9
$DIMTM
 40
0.0
  9
$DIMTXT
 40
2.5
  9
$DIMCEN
 40
2.5
  9
$DIMTSZ
 40
0.0
  9
$DIMTOL
 70
0
  9
$DIMLIM
 70
0
  9
$DIMTIH
 70
0
  9
$DIMTOH
 70
0
  9
$DIMSE1
 70
0
  9
$DIMSE2
 70
0
  9
$DIMTAD
 70
1
  9
$DIMZIN
 70
8
  9
$DIMBLK
  1

  9
$DIMASO
 70
1
  9
$DIMSHO
 70
1
  9
$DIMPOST
  1

  9
$DIMAPOST
  1

  9
$DIMALT
 70
0
  9
$DIMALTD
 70
3
  9
$DIMALTF
 40
0.03937007874
  9
$DIMLFAC
 40
1.0
  9
$DIMTOFL
 70
1
  9
$DIMTVP
 40
0.0
  9
$DIMTIX
 70
0
  9
$DIMSOXD
 70
0
  9
$DIMSAH
 70
0
  9
$DIMBLK1
  1

  9
$DIMBLK2
  1

  9
$DIMSTYLE
  2
ISO-25
  9
$DIMCLRD
 70
0
  9
$DIMCLRE
 70
0
  9
$DIMCLRT
 70
0
  9
$DIMTFAC
 40
1.0
  9
$DIMGAP
 40
0.625
  9
$COORDS
 70
1
  9
$ATTDIA
 70
0
  9
$ATTREQ
 70
1
  9
$HANDLING
 70
1
  9
$LUNITS
 70
2
  9
$LUPREC
 70
4
  9
$SKETCHINC
 40
1.0
  9
$FILLETRAD
 40
10.0
  9
$AUNITS
 70
0
  9
$AUPREC
 70
2
  9
$MENU
  1
.
  9
$ELEVATION
 40
0.0
  9
$PELEVATION
 40
0.0
  9
$THICKNESS
 40
0.0
  9
$LIMCHECK
 70
0
  9
$CHAMFERA
 40
0.0
  9
$CHAMFERB
 40
0.0
  9
$SKPOLY
 70
0
  9
$TDCREATE
 40
2459746.820277778
  9
$TDUPDATE
 40
2459746.820277778
  9
$TDINDWG
 40
0.0
  9
$TDUSRTIMER
 40
0.0
  9
$USRTIMER
 70
1
  9
$ANGBASE
 50
0.0
  9
$ANGDIR
 70
0
  9
$PDMODE
 70
0
  9
$PDSIZE
 40
0.0
  9
$PLINEWID
 40
0.0
  9
$SPLFRAME
 70
0
  9
$SPLINETYPE
 70
6
  9
$SPLINESEGS
 70
8
  9
$HANDSEED
  5
92
  9
$SURFTAB1
 70
6
  9
$SURFTAB2
 70
6
  9
$SURFTYPE
 70
6
  9
$SURFU
 70
6
  9
$SURFV
 70
6
  9
$UCSNAME
  2

  9
$UCSORG
 10
0.0
 20
0.0
 30
0.0
  9
$UCSXDIR
 10
1.0
 20
0.0
 30
0.0
  9
$UCSYDIR
 10
0.0
 20
1.0
 30
0.0
  9
$PUCSNAME
  2

  9
$PUCSORG
 10
0.0
 20
0.0
 30
0.0
  9
$PUCSXDIR
 10
1.0
 20
0.0
 30
0.0
  9
$PUCSYDIR
 10
0.0
 20
1.0
 30
0.0
  9
$USERI1
 70
0
  9
$USERI2
 70
0
  9
$USERI3
 70
0
  9
$USERI4
 70
0
  9
$USERI5
 70
0
  9
$USERR1
 40
0.0
  9
$USERR2
 40
0.0
  9
$USERR3
 40
0.0
  9
$USERR4
 40
0.0
  9
$USERR5
 40
0.0
  9
$WORLDVIEW
 70
1
  9
$SHADEDGE
 70
3
  9
$SHADEDIF
 70
70
  9
$TILEMODE
 70
1
  9
$MAXACTVP
 70
64
  9
$PLIMCHECK
 70
0
  9
$PEXTMIN
 10
1e+20
 20
1e+20
 30
1e+20
  9
$PEXTMAX
 10
-1e+20
 20
-1e+20
 30
-1e+20
  9
$PLIMMIN
 10
0.0
 20
0.0
  9
$PLIMMAX
 10
420.0
 20
297.0
  9
$UNITMODE
 70
0
  9
$VISRETAIN
 70
1
  9
$PLINEGEN
 70
0
  9
$PSLTSCALE
 70
1
  0
ENDSEC
  0
SECTION
  2
TABLES
  0
TABLE
  2
VPORT
 70
1
  0
VPORT
  5
23
  2
*Active
 70
0
 10
0.0
 20
0.0
 11
1.0
 21
1.0
 12
70.0
 22
50.0
 13
0.0
 23
0.0
 14
0.5
 24
0.5
 15
0.5
 25
0.5
 16
0.0
 26
0.0
 36
1.0
 17
0.0
 27
0.0
 37
0.0
 40
1.0
 41
1.34
 42
50.0
 43
0.0
 44
0.0
 50
0.0
 51
0.0
 71
0
 72
1000
 73
1
 74
3
 75
0
 76
0
 77
0
 78
0
  0
ENDTAB
  0
TABLE
  2
LTYPE
 70
3
  0
LTYPE
  5
24
  2
ByBlock
 70
0
  3

 72
65
 73
0
 40
0.0
  0
LTYPE
  5
25
  2
ByLayer
 70
0
  3

 72
65
 73
0
 40
0.0
  0
LTYPE
  5
26
  2
Continuous
 70
0
  3

 72
65
 73
0
 40
0.0
  0
ENDTAB
  0
TABLE
  2
LAYER
 70
2
  0
LAYER
  5
27
  2
0
 70
0
 62
7
  6
Continuous
  0
LAYER
  5
28
  2
Defpoints
 70
0
 62
7
  6
Continuous
  0
ENDTAB
  0
TABLE
  2
STYLE
 70
1
  0
STYLE
  5
29
  2
Standard
 70
0
 40
0.0
 41
1.0
 50
0.0
 71
0
 42
2.5
  3
txt
  4

  0
ENDTAB
  0
TABLE
  2
VIEW
 70
0
  0
ENDTAB
  0
TABLE
  2
UCS
 70
0
  0
ENDTAB
  0
TABLE
  2
APPID
 70
2
  0
APPID
  5
2A
  2
ACAD
 70
0
  0
APPID
  5
91
  2
HATCHBACKGROUNDCOLOR
 70
0
  0
ENDTAB
  0
TABLE
  2
DIMSTYLE
 70
1
  0
DIMSTYLE
105
2B
  2
Standard
 70
0
  3

  4

  5

  6

  7

 40
1.0
 41
2.5
 42
0.625
 43
3.75
 44
1.25
 45
0.0
 46
0.0
 47
0.0
 48
0.0
140
2.5
141
2.5
142
0.0
143
0.03937007874
144
1.0
145
0.0
146
1.0
147
0.625
 71
0
 72
0
 73
0
 74
0
 75
0
 76
0
 77
1
 78
8
170
0
171
3
172
1
173
0
174
0
175
0
176
0
177
0
178
0
  0
ENDTAB
  0
ENDSEC
  0
SECTION
  2
BLOCKS
  0
BLOCK
  5
18
  8
0
  2
$Model_Space
 70
0
 10
0.0
 20
0.0
 30
0.0
  3
$Model_Space
  1

  0
ENDBLK
  5
19
  8
0
  0
BLOCK
  5
1C
  8
0
  2
$Paper_Space
 70
0
 10
0.0
 20
0.0
 30
0.0
  3
$Paper_Space
  1

  0
ENDBLK
  5
1D
  8
0
  0
ENDSEC
  0
SECTION
  2
ENTITIES
  0
LINE
  5
2D
  8
0
 10
-0.4514342767
 20
-0.0065166304999999675
 30
-3.1271582646950895
 11
-0.4499781638
 21
-0.014817426799999978
 31
-3.108675334932975
  0
LINE
  5
2E
  8
0
 10
-0.4499781638
 20
-0.014817426799999978
 30
-3.108675334932975
 11
-0.437575356
 21
-0.06884825169999997
 31
-2.9855317422732592
  0
LINE
  5
2F
  8
0
 10
-0.437575356
 20
-0.06884825169999997
 30
-2.9855317422732592
 11
-0.435048908
 21
-0.07730890389999998
 31
-2.9657268354604662
  0
LINE
  5
30
  8
0
 10
-0.435048908
 20
-0.07730890389999998
 30
-2.9657268354604662
 11
-0.4160746217
 21
-0.12904843749999997
 31
-2.8408437963335667
  0
LINE
  5
31
  8
0
 10
-0.4160746217
 20
-0.12904843749999997
 30
-2.8408437963335667
 11
-0.4122044229
 21
-0.1375040219
 31
-2.8196182152518277
  0
LINE
  5
32
  8
0
 10
-0.4122044229
 20
-0.1375040219
 30
-2.8196182152518277
 11
-0.3863219489
 21
-0.18588687899999995
 31
-2.6931214732467823
  0
LINE
  5
33
  8
0
 10
-0.3863219489
 20
-0.18588687899999995
 30
-2.6931214732467823
 11
-0.3809361326
 21
-0.19409641899999996
 31
-2.6703542457043303
  0
LINE
  5
34
  8
0
 10
-0.3809361326
 20
-0.19409641899999996
 30
-2.6703542457043303
 11
-0.3483741009
 21
-0.23803273949999998
 31
-2.542184972621931
  0
LINE
  5
35
  8
0
 10
-0.3483741009
 20
-0.23803273949999998
 30
-2.542184972621931
 11
-0.3413849062
 21
-0.24568582239999998
 31
-2.517784369351647
  0
LINE
  5
36
  8
0
 10
-0.3413849062
 20
-0.24568582239999998
 30
-2.517784369351647
 11
-0.3027090207
 21
-0.28412122459999994
 31
-2.3878588149430624
  0
LINE
  5
37
  8
0
 10
-0.3027090207
 20
-0.28412122459999994
 30
-2.3878588149430624
 11
-0.2941562897
 21
-0.2908911273
 31
-2.361775454067882
  0
LINE
  5
38
  8
0
 10
-0.2941562897
 20
-0.2908911273
 30
-2.361775454067882
 11
-0.2502903075
 21
-0.3229868907
 31
-2.2300589394187793
  0
LINE
  5
39
  8
0
 10
-0.2502903075
 20
-0.3229868907
 30
-2.2300589394187793
 11
-0.2403362097
 21
-0.328578239
 31
-2.202314704691835
  0
LINE
  5
3A
  8
0
 10
-0.2403362097
 20
-0.328578239
 30
-2.202314704691835
 11
-0.1924090922
 21
-0.3537998402
 31
-2.068894790810619
  0
LINE
  5
3B
  8
0
 10
-0.1924090922
 20
-0.3537998402
 30
-2.068894790810619
 11
-0.1813085954
 21
-0.35797715259999996
 31
-2.0396152148437126
  0
LINE
  5
3C
  8
0
 10
-0.1813085954
 20
-0.35797715259999996
 30
-2.0396152148437126
 11
-0.1304789807
 21
-0.3760694662
 31
-1.9047554030595701
  0
LINE
  5
3D
  8
0
 10
-0.1304789807
 20
-0.3760694662
 30
-1.9047554030595701
 11
-0.1185508905
 21
-0.37865808279999996
 31
-1.8742109926929162
  0
LINE
  5
3E
  8
0
 10
-0.1185508905
 20
-0.37865808279999996
 30
-1.8742109926929162
 11
-0.06589692391
 21
-0.38953406589999995
 31
-1.73837830403427
  0
LINE
  5
3F
  8
0
 10
-0.06589692391
 20
-0.38953406589999995
 30
-1.73837830403427
 11
-0.05350459827
 21
-0.3904136711999999
 31
-1.706993801422167
  0
LINE
  5
40
  8
0
 10
-0.05350459827
 20
-0.3904136711999999
 30
-1.706993801422167
 11
2.220446049e-16
 21
-0.3940454499
 31
-1.5707963267948961
  0
LINE
  5
41
  8
0
 10
2.220446049e-16
 20
-0.3940454499
 30
-1.5707963267948961
 11
0.05350459827
 21
-0.3904136711999999
 31
-1.4345988521676263
  0
LINE
  5
42
  8
0
 10
0.05350459827
 20
-0.3904136711999999
 30
-1.4345988521676263
 11
0.06589692391
 21
-0.38953406589999995
 31
-1.4032143495555232
  0
LINE
  5
43
  8
0
 10
0.06589692391
 20
-0.38953406589999995
 30
-1.4032143495555232
 11
0.1185508905
 21
-0.37865808279999996
 31
-1.267381660896877
  0
LINE
  5
44
  8
0
 10
0.1185508905
 20
-0.37865808279999996
 30
-1.267381660896877
 11
0.1304789807
 21
-0.3760694662
 31
-1.2368372505302232
  0
LINE
  5
45
  8
0
 10
0.1304789807
 20
-0.3760694662
 30
-1.2368372505302232
 11
0.1813085954
 21
-0.35797715259999996
 31
-1.1019774387460806
  0
LINE
  5
46
  8
0
 10
0.1813085954
 20
-0.35797715259999996
 30
-1.1019774387460806
 11
0.1924090922
 21
-0.3537998402
 31
-1.0726978627791741
  0
LINE
  5
47
  8
0
 10
0.1924090922
 20
-0.3537998402
 30
-1.0726978627791741
 11
0.2403362097
 21
-0.328578239
 31
-0.9392779488979585
  0
LINE
  5
48
  8
0
 10
0.2403362097
 20
-0.328578239
 30
-0.9392779488979585
 11
0.2502903075
 21
-0.3229868907
 31
-0.9115337141710137
  0
LINE
  5
49
  8
0
 10
0.2502903075
 20
-0.3229868907
 30
-0.9115337141710137
 11
0.2941562897
 21
-0.2908911273
 31
-0.7798171995219109
  0
LINE
  5
4A
  8
0
 10
0.2941562897
 20
-0.2908911273
 30
-0.7798171995219109
 11
0.3027090207
 21
-0.28412122459999994
 31
-0.7537338386467307
  0
LINE
  5
4B
  8
0
 10
0.3027090207
 20
-0.28412122459999994
 30
-0.7537338386467307
 11
0.3413849062
 21
-0.24568582239999998
 31
-0.6238082842381463
  0
LINE
  5
4C
  8
0
 10
0.3413849062
 20
-0.24568582239999998
 30
-0.6238082842381463
 11
0.3483741009
 21
-0.23803273949999998
 31
-0.599407680967862
  0
LINE
  5
4D
  8
0
 10
0.3483741009
 20
-0.23803273949999998
 30
-0.599407680967862
 11
0.3809361326
 21
-0.19409641899999996
 31
-0.47123840788546273
  0
LINE
  5
4E
  8
0
 10
0.3809361326
 20
-0.19409641899999996
 30
-0.47123840788546273
 11
0.3863219489
 21
-0.18588687899999995
 31
-0.4484711803430108
  0
LINE
  5
4F
  8
0
 10
0.3863219489
 20
-0.18588687899999995
 30
-0.4484711803430108
 11
0.4122044229
 21
-0.1375040219
 31
-0.3219744383379654
  0
LINE
  5
50
  8
0
 10
0.4122044229
 20
-0.1375040219
 30
-0.3219744383379654
 11
0.4160746217
 21
-0.12904843749999997
 31
-0.3007488572562265
  0
LINE
  5
51
  8
0
 10
0.4160746217
 20
-0.12904843749999997
 30
-0.3007488572562265
 11
0.435048908
 21
-0.07730890389999998
 31
-0.17586581812932695
  0
LINE
  5
52
  8
0
 10
0.435048908
 20
-0.07730890389999998
 30
-0.17586581812932695
 11
0.437575356
 21
-0.06884825169999997
 31
-0.15606091131653388
  0
LINE
  5
53
  8
0
 10
0.437575356
 20
-0.06884825169999997
 30
-0.15606091131653388
 11
0.4499781638
 21
-0.014817426599999961
 31
-0.03291731821283361
  0
LINE
  5
54
  8
0
 10
0.4499781638
 20
-0.014817426599999961
 30
-0.03291731821283361
 11
0.4514342766
 21
-0.006516630299999965
 31
-0.014434388454960655
  0
LINE
  5
55
  8
0
 10
0.4514342766
 20
-0.006516630299999965
 30
-0.014434388454960655
 11
0.4579409888
 21
0.04886898968000003
 31
0.10631225725616585
  0
LINE
  5
56
  8
0
 10
0.4579409888
 20
0.04886898968000003
 30
0.10631225725616585
 11
0.4586063162
 21
0.05693694805000003
 31
0.12352007546030247
  0
LINE
  5
57
  8
0
 10
0.4586063162
 20
0.05693694805000003
 30
0.12352007546030247
 11
0.4599432037
 21
0.11290651034300003
 31
0.24071932984852423
  0
LINE
  5
58
  8
0
 10
0.4599432037
 20
0.11290651034300003
 30
0.24071932984852423
 11
0.4600548421
 21
0.12073787227700003
 31
0.25665439275505336
  0
LINE
  5
59
  8
0
 10
0.4600548421
 20
0.12073787227700003
 30
0.25665439275505336
 11
0.4594659449
 21
0.12664132249000004
 31
0.2689492416446839
  0
LINE
  5
5A
  8
0
 10
0.4594659449
 20
0.12664132249000004
 30
0.2689492416446839
 11
0.4532382273
 21
0.16968264691000004
 31
0.3582256807669008
  0
LINE
  5
5B
  8
0
 10
0.4532382273
 20
0.16968264691000004
 30
0.3582256807669008
 11
0.4516512321
 21
0.17519021091000003
 31
0.3700218168567756
  0
LINE
  5
5C
  8
0
 10
0.4516512321
 20
0.17519021091000003
 30
0.3700218168567756
 11
0.4359992265
 21
0.21506938259000002
 31
0.45825658890653326
  0
LINE
  5
5D
  8
0
 10
0.4359992265
 20
0.21506938259000002
 30
0.45825658890653326
 11
0.4333263804
 21
0.22002382410000004
 31
0.4698326894426934
  0
LINE
  5
5E
  8
0
 10
0.4333263804
 20
0.22002382410000004
 30
0.4698326894426934
 11
0.4094714271
 21
0.2554115525
 31
0.5577065266488923
  0
LINE
  5
5F
  8
0
 10
0.4094714271
 20
0.2554115525
 30
0.5577065266488923
 11
0.4057000457
 21
0.25958241400000004
 31
0.5691984455862673
  0
LINE
  5
60
  8
0
 10
0.4057000457
 20
0.25958241400000004
 30
0.5691984455862673
 11
0.3745398985
 21
0.2893382004
 31
0.6577565347415066
  0
LINE
  5
61
  8
0
 10
0.3745398985
 20
0.2893382004
 30
0.6577565347415066
 11
0.3700340751
 21
0.2927294427
 31
0.6692830004590836
  0
LINE
  5
62
  8
0
 10
0.3700340751
 20
0.2927294427
 30
0.6692830004590836
 11
0.3341098255
 21
0.31703289700000004
 31
0.7591780824386107
  0
LINE
  5
63
  8
0
 10
0.3341098255
 20
0.31703289700000004
 30
0.7591780824386107
 11
0.329130553
 21
0.3197412048
 31
0.7709289052914133
  0
LINE
  5
64
  8
0
 10
0.329130553
 20
0.3197412048
 30
0.7709289052914133
 11
0.2902319565
 21
0.33927081300000006
 31
0.8631420910732995
  0
LINE
  5
65
  8
0
 10
0.2902319565
 20
0.33927081300000006
 30
0.8631420910732995
 11
0.2849397576
 21
0.34141120080000004
 31
0.8753144808611308
  0
LINE
  5
66
  8
0
 10
0.2849397576
 20
0.34141120080000004
 30
0.8753144808611308
 11
0.2441857502
 21
0.35691615390000003
 31
0.9707843570371314
  0
LINE
  5
67
  8
0
 10
0.2441857502
 20
0.35691615390000003
 30
0.9707843570371314
 11
0.2386722108
 21
0.35858204460000004
 31
0.9835325446812937
  0
LINE
  5
68
  8
0
 10
0.2386722108
 20
0.35858204460000004
 30
0.9835325446812937
 11
0.196726149
 21
0.37067971200000005
 31
1.0828778890905162
  0
LINE
  5
69
  8
0
 10
0.196726149
 20
0.37067971200000005
 30
1.0828778890905162
 11
0.1910462963
 21
0.37193546130000005
 31
1.096284941296628
  0
LINE
  5
6A
  8
0
 10
0.1910462963
 20
0.37193546130000005
 30
1.096284941296628
 11
0.1483093635
 21
0.38105487740000005
 31
1.1996284318368449
  0
LINE
  5
6B
  8
0
 10
0.1483093635
 20
0.38105487740000005
 30
1.1996284318368449
 11
0.1425005918
 21
0.3819296441
 31
1.213686378317511
  0
LINE
  5
6C
  8
0
 10
0.1425005918
 20
0.3819296441
 30
1.213686378317511
 11
0.09922616541
 21
0.38827886990000005
 31
1.3205973671206062
  0
LINE
  5
6D
  8
0
 10
0.09922616541
 20
0.38827886990000005
 30
1.3205973671206062
 11
0.09332447448
 21
0.38879560710000005
 31
1.3352184448325957
  0
LINE
  5
6E
  8
0
 10
0.09332447448
 20
0.38879560710000005
 30
1.3352184448325957
 11
0.04971765007
 21
0.3925444173
 31
1.4448122853010221
  0
LINE
  5
6F
  8
0
 10
0.04971765007
 20
0.3925444173
 30
1.4448122853010221
 11
0.0437618526
 21
0.3927275577
 31
1.4598235612151371
  0
LINE
  5
70
  8
0
 10
0.0437618526
 20
0.3927275577
 30
1.4598235612151371
 11
-2.775557562e-16
 21
0.3940454499
 31
1.5707963267948972
  0
LINE
  5
71
  8
0
 10
-2.775557562e-16
 20
0.3940454499
 30
1.5707963267948972
 11
-0.0437618526
 21
0.3927275577
 31
1.681769092374656
  0
LINE
  5
72
  8
0
 10
-0.0437618526
 20
0.3927275577
 30
1.681769092374656
 11
-0.04971765007
 21
0.3925444173
 31
1.6967803682887712
  0
LINE
  5
73
  8
0
 10
-0.04971765007
 20
0.3925444173
 30
1.6967803682887712
 11
-0.09332447448
 21
0.38879560710000005
 31
1.8063742087571975
  0
LINE
  5
74
  8
0
 10
-0.09332447448
 20
0.38879560710000005
 30
1.8063742087571975
 11
-0.09922616541
 21
0.38827886990000005
 31
1.8209952864691872
  0
LINE
  5
75
  8
0
 10
-0.09922616541
 20
0.38827886990000005
 30
1.8209952864691872
 11
-0.1425005918
 21
0.3819296441
 31
1.9279062752722824
  0
LINE
  5
76
  8
0
 10
-0.1425005918
 20
0.3819296441
 30
1.9279062752722824
 11
-0.1483093635
 21
0.38105487740000005
 31
1.9419642217529482
  0
LINE
  5
77
  8
0
 10
-0.1483093635
 20
0.38105487740000005
 30
1.9419642217529482
 11
-0.1910462963
 21
0.37193546130000005
 31
2.045307712293165
  0
LINE
  5
78
  8
0
 10
-0.1910462963
 20
0.37193546130000005
 30
2.045307712293165
 11
-0.196726149
 21
0.37067971200000005
 31
2.0587147644992774
  0
LINE
  5
79
  8
0
 10
-0.196726149
 20
0.37067971200000005
 30
2.0587147644992774
 11
-0.2386722108
 21
0.35858204460000004
 31
2.1580601089084994
  0
LINE
  5
7A
  8
0
 10
-0.2386722108
 20
0.35858204460000004
 30
2.1580601089084994
 11
-0.2441857502
 21
0.35691615390000003
 31
2.170808296552662
  0
LINE
  5
7B
  8
0
 10
-0.2441857502
 20
0.35691615390000003
 30
2.170808296552662
 11
-0.2849397576
 21
0.34141120080000004
 31
2.2662781727286623
  0
LINE
  5
7C
  8
0
 10
-0.2849397576
 20
0.34141120080000004
 30
2.2662781727286623
 11
-0.2902319565
 21
0.33927081300000006
 31
2.2784505625164937
  0
LINE
  5
7D
  8
0
 10
-0.2902319565
 20
0.33927081300000006
 30
2.2784505625164937
 11
-0.329130553
 21
0.3197412048
 31
2.3706637482983797
  0
LINE
  5
7E
  8
0
 10
-0.329130553
 20
0.3197412048
 30
2.3706637482983797
 11
-0.3341098255
 21
0.31703289700000004
 31
2.3824145711511826
  0
LINE
  5
7F
  8
0
 10
-0.3341098255
 20
0.31703289700000004
 30
2.3824145711511826
 11
-0.3700340751
 21
0.2927294427
 31
2.4723096531307096
  0
LINE
  5
80
  8
0
 10
-0.3700340751
 20
0.2927294427
 30
2.4723096531307096
 11
-0.3745398985
 21
0.2893382004
 31
2.4838361188482865
  0
LINE
  5
81
  8
0
 10
-0.3745398985
 20
0.2893382004
 30
2.4838361188482865
 11
-0.4057000457
 21
0.25958241400000004
 31
2.572394208003526
  0
LINE
  5
82
  8
0
 10
-0.4057000457
 20
0.25958241400000004
 30
2.572394208003526
 11
-0.4094714271
 21
0.2554115525
 31
2.583886126940901
  0
LINE
  5
83
  8
0
 10
-0.4094714271
 20
0.2554115525
 30
2.583886126940901
 11
-0.4333263804
 21
0.22002382410000004
 31
2.6717599641470997
  0
LINE
  5
84
  8
0
 10
-0.4333263804
 20
0.22002382410000004
 30
2.6717599641470997
 11
-0.4359992265
 21
0.21506938259000002
 31
2.68333606468326
  0
LINE
  5
85
  8
0
 10
-0.4359992265
 20
0.21506938259000002
 30
2.68333606468326
 11
-0.4516512321
 21
0.17519021092000003
 31
2.771570836713772
  0
LINE
  5
86
  8
0
 10
-0.4516512321
 20
0.17519021092000003
 30
2.771570836713772
 11
-0.4532382273
 21
0.16968264692
 31
2.7833669728035413
  0
LINE
  5
87
  8
0
 10
-0.4532382273
 20
0.16968264692
 30
2.7833669728035413
 11
-0.4594659449
 21
0.12664132249200002
 31
2.872643411941064
  0
LINE
  5
88
  8
0
 10
-0.4594659449
 20
0.12664132249200002
 30
2.872643411941064
 11
-0.4600548421
 21
0.12073787227700003
 31
2.88493826083474
  0
LINE
  5
89
  8
0
 10
-0.4600548421
 20
0.12073787227700003
 30
2.88493826083474
 11
-0.4599432037
 21
0.11290651043500002
 31
2.900873323552613
  0
LINE
  5
8A
  8
0
 10
-0.4599432037
 20
0.11290651043500002
 30
2.900873323552613
 11
-0.4586063156
 21
0.05693694931000003
 31
3.018072575263778
  0
LINE
  5
8B
  8
0
 10
-0.4586063156
 20
0.05693694931000003
 30
3.018072575263778
 11
-0.4579409883
 21
0.04886899086000003
 31
3.035280393670686
  0
LINE
  5
8C
  8
0
 10
-0.4579409883
 20
0.04886899086000003
 30
3.035280393670686
 11
-0.4514342767
 21
-0.0065166304999999675
 31
-3.1271582646950895
  0
LINE
  5
8D
  8
0
 10
0.2
 20
0.2
 30
0.0
 11
0.2
 21
-0.2
 31
0.0
  0
LINE
  5
8E
  8
0
 10
0.2
 20
-0.2
 30
0.0
 11
-0.2
 21
-0.2
 31
0.0
  0
LINE
  5
8F
  8
0
 10
-0.2
 20
-0.2
 30
0.0
 11
-0.2
 21
0.2
 31
0.0
  0
LINE
  5
90
  8
0
 10
-0.2
 20
0.2
 30
0.0
 11
0.2
 21
0.2
 31
0.0
  0
ENDSEC
  0
EOF
