  0
SECTION
  2
HEADER
  9
$ACADVER
  1
AC1009
  9
$DWGCODEPAGE
  3
ANSI_1252
  9
$INSBASE
 10
0.0
 20
0.0
 30
0.0
  9
$EXTMIN
 10
-100
 20
-100
 30
-100
  9
$EXTMAX
 10
100
 20
100
 30
100
  9
$LIMMIN
 10
0.0
 20
0.0
  9
$LIMMAX
 10
420.0
 20
297.0
  9
$ORTHOMODE
 70
0
  9
$REGENMODE
 70
1
  9
$DRAGMODE
 70
2
  9
$FILLMODE
 70
1
  9
$QTEXTMODE
 70
0
  9
$MIRRTEXT
 70
1
  9
$OSMODE
 70
20583
  9
$LTSCALE
 40
1.0
  9
$ATTMODE
 70
1
  9
$TEXTSIZE
 40
2.5
  9
$TRACEWID
 40
1.0
  9
$TEXTSTYLE
  7
Standard
  9
$CLAYER
  8
0
  9
$CELTYPE
  6
ByLayer
  9
$CECOLOR
 62
256
  9
$DIMSCALE
 40
1.0
  9
$DIMASZ
 40
2.5
  9
$DIMEXO
 40
0.625
  9
$DIMDLI
 40
3.75
  9
$DIMRND
 40
0.0
  9
$DIMDLE
 40
0.0
  9
$DIMEXE
 40
1.25
  9
$DIMTP
 40
0.0
  9
$DIMTM
 40
0.0
  9
$DIMTXT
 40
2.5
  9
$DIMCEN
 40
2.5
  9
$DIMTSZ
 40
0.0
  9
$DIMTOL
 70
0
  9
$DIMLIM
 70
0
  9
$DIMTIH
 70
0
  9
$DIMTOH
 70
0
  9
$DIMSE1
 70
0
  9
$DIMSE2
 70
0
  9
$DIMTAD
 70
1
  9
$DIMZIN
 70
8
  9
$DIMBLK
  1

  9
$DIMASO
 70
1
  9
$DIMSHO
 70
1
  9
$DIMPOST
  1

  9
$DIMAPOST
  1

  9
$DIMALT
 70
0
  9
$DIMALTD
 70
3
  9
$DIMALTF
 40
0.03937007874
  9
$DIMLFAC
 40
1.0
  9
$DIMTOFL
 70
1
  9
$DIMTVP
 40
0.0
  9
$DIMTIX
 70
0
  9
$DIMSOXD
 70
0
  9
$DIMSAH
 70
0
  9
$DIMBLK1
  1

  9
$DIMBLK2
  1

  9
$DIMSTYLE
  2
ISO-25
  9
$DIMCLRD
 70
0
  9
$DIMCLRE
 70
0
  9
$DIMCLRT
 70
0
  9
$DIMTFAC
 40
1.0
  9
$DIMGAP
 40
0.625
  9
$COORDS
 70
1
  9
$ATTDIA
 70
0
  9
$ATTREQ
 70
1
  9
$HANDLING
 70
1
  9
$LUNITS
 70
2
  9
$LUPREC
 70
4
  9
$SKETCHINC
 40
1.0
  9
$FILLETRAD
 40
10.0
  9
$AUNITS
 70
0
  9
$AUPREC
 70
2
  9
$MENU
  1
.
  9
$ELEVATION
 40
0.0
  9
$PELEVATION
 40
0.0
  9
$THICKNESS
 40
0.0
  9
$LIMCHECK
 70
0
  9
$CHAMFERA
 40
0.0
  9
$CHAMFERB
 40
0.0
  9
$SKPOLY
 70
0
  9
$TDCREATE
 40
2459751.945671296
  9
$TDUPDATE
 40
2459751.945671296
  9
$TDINDWG
 40
0.0
  9
$TDUSRTIMER
 40
0.0
  9
$USRTIMER
 70
1
  9
$ANGBASE
 50
0.0
  9
$ANGDIR
 70
0
  9
$PDMODE
 70
0
  9
$PDSIZE
 40
0.0
  9
$PLINEWID
 40
0.0
  9
$SPLFRAME
 70
0
  9
$SPLINETYPE
 70
6
  9
$SPLINESEGS
 70
8
  9
$HANDSEED
  5
C6
  9
$SURFTAB1
 70
6
  9
$SURFTAB2
 70
6
  9
$SURFTYPE
 70
6
  9
$SURFU
 70
6
  9
$SURFV
 70
6
  9
$UCSNAME
  2

  9
$UCSORG
 10
0.0
 20
0.0
 30
0.0
  9
$UCSXDIR
 10
1.0
 20
0.0
 30
0.0
  9
$UCSYDIR
 10
0.0
 20
1.0
 30
0.0
  9
$PUCSNAME
  2

  9
$PUCSORG
 10
0.0
 20
0.0
 30
0.0
  9
$PUCSXDIR
 10
1.0
 20
0.0
 30
0.0
  9
$PUCSYDIR
 10
0.0
 20
1.0
 30
0.0
  9
$USERI1
 70
0
  9
$USERI2
 70
0
  9
$USERI3
 70
0
  9
$USERI4
 70
0
  9
$USERI5
 70
0
  9
$USERR1
 40
0.0
  9
$USERR2
 40
0.0
  9
$USERR3
 40
0.0
  9
$USERR4
 40
0.0
  9
$USERR5
 40
0.0
  9
$WORLDVIEW
 70
1
  9
$SHADEDGE
 70
3
  9
$SHADEDIF
 70
70
  9
$TILEMODE
 70
1
  9
$MAXACTVP
 70
64
  9
$PLIMCHECK
 70
0
  9
$PEXTMIN
 10
1e+20
 20
1e+20
 30
1e+20
  9
$PEXTMAX
 10
-1e+20
 20
-1e+20
 30
-1e+20
  9
$PLIMMIN
 10
0.0
 20
0.0
  9
$PLIMMAX
 10
420.0
 20
297.0
  9
$UNITMODE
 70
0
  9
$VISRETAIN
 70
1
  9
$PLINEGEN
 70
0
  9
$PSLTSCALE
 70
1
  0
ENDSEC
  0
SECTION
  2
TABLES
  0
TABLE
  2
VPORT
 70
1
  0
VPORT
  5
23
  2
*Active
 70
0
 10
0.0
 20
0.0
 11
1.0
 21
1.0
 12
70.0
 22
50.0
 13
0.0
 23
0.0
 14
0.5
 24
0.5
 15
0.5
 25
0.5
 16
0.0
 26
0.0
 36
1.0
 17
0.0
 27
0.0
 37
0.0
 40
1.0
 41
1.34
 42
50.0
 43
0.0
 44
0.0
 50
0.0
 51
0.0
 71
0
 72
1000
 73
1
 74
3
 75
0
 76
0
 77
0
 78
0
  0
ENDTAB
  0
TABLE
  2
LTYPE
 70
3
  0
LTYPE
  5
24
  2
ByBlock
 70
0
  3

 72
65
 73
0
 40
0.0
  0
LTYPE
  5
25
  2
ByLayer
 70
0
  3

 72
65
 73
0
 40
0.0
  0
LTYPE
  5
26
  2
Continuous
 70
0
  3

 72
65
 73
0
 40
0.0
  0
ENDTAB
  0
TABLE
  2
LAYER
 70
2
  0
LAYER
  5
27
  2
0
 70
0
 62
7
  6
Continuous
  0
LAYER
  5
28
  2
Defpoints
 70
0
 62
7
  6
Continuous
  0
ENDTAB
  0
TABLE
  2
STYLE
 70
1
  0
STYLE
  5
29
  2
Standard
 70
0
 40
0.0
 41
1.0
 50
0.0
 71
0
 42
2.5
  3
txt
  4

  0
ENDTAB
  0
TABLE
  2
VIEW
 70
0
  0
ENDTAB
  0
TABLE
  2
UCS
 70
0
  0
ENDTAB
  0
TABLE
  2
APPID
 70
2
  0
APPID
  5
2A
  2
ACAD
 70
0
  0
APPID
  5
C5
  2
HATCHBACKGROUNDCOLOR
 70
0
  0
ENDTAB
  0
TABLE
  2
DIMSTYLE
 70
1
  0
DIMSTYLE
105
2B
  2
Standard
 70
0
  3

  4

  5

  6

  7

 40
1.0
 41
2.5
 42
0.625
 43
3.75
 44
1.25
 45
0.0
 46
0.0
 47
0.0
 48
0.0
140
2.5
141
2.5
142
0.0
143
0.03937007874
144
1.0
145
0.0
146
1.0
147
0.625
 71
0
 72
0
 73
0
 74
0
 75
0
 76
0
 77
1
 78
8
170
0
171
3
172
1
173
0
174
0
175
0
176
0
177
0
178
0
  0
ENDTAB
  0
ENDSEC
  0
SECTION
  2
BLOCKS
  0
BLOCK
  5
18
  8
0
  2
$Model_Space
 70
0
 10
0.0
 20
0.0
 30
0.0
  3
$Model_Space
  1

  0
ENDBLK
  5
19
  8
0
  0
BLOCK
  5
1C
  8
0
  2
$Paper_Space
 70
0
 10
0.0
 20
0.0
 30
0.0
  3
$Paper_Space
  1

  0
ENDBLK
  5
1D
  8
0
  0
ENDSEC
  0
SECTION
  2
ENTITIES
  0
LINE
  5
2D
  8
0
 10
-1.8375425449999998
 20
-0.0032101384499999552
 30
0.0
 11
-1.8543083729999994
 21
-0.03463979144999996
 31
0.0
  0
LINE
  5
2E
  8
0
 10
-1.8543083729999994
 20
-0.03463979144999996
 30
0.0
 11
-1.8612175509999997
 21
-0.047591915449999966
 31
0.0
  0
LINE
  5
2F
  8
0
 10
-1.8612175509999997
 20
-0.047591915449999966
 30
0.0
 11
-1.8546944209999996
 21
-0.05681362074999996
 31
0.0
  0
LINE
  5
30
  8
0
 10
-1.8546944209999996
 20
-0.05681362074999996
 30
0.0
 11
-1.8322651229999996
 21
-0.08852176805
 31
0.0
  0
LINE
  5
31
  8
0
 10
-1.8322651229999996
 20
-0.08852176805
 30
0.0
 11
-1.8214224349999997
 21
-0.10401901814999998
 31
0.0
  0
LINE
  5
32
  8
0
 10
-1.8214224349999997
 20
-0.10401901814999998
 30
0.0
 11
-1.8095855959999998
 21
-0.10921096684999998
 31
0.0
  0
LINE
  5
33
  8
0
 10
-1.8095855959999998
 20
-0.10921096684999998
 30
0.0
 11
-1.7533241379999995
 21
-0.13388871985
 31
0.0
  0
LINE
  5
34
  8
0
 10
-1.7533241379999995
 20
-0.13388871985
 30
0.0
 11
-1.7462301949999994
 21
-0.13701299514999998
 31
0.0
  0
LINE
  5
35
  8
0
 10
-1.7462301949999994
 20
-0.13701299514999998
 30
0.0
 11
-1.7440685249999994
 21
-0.13796502605
 31
0.0
  0
LINE
  5
36
  8
0
 10
-1.7440685249999994
 20
-0.13796502605
 30
0.0
 11
-1.7416547999999996
 21
-0.13902806564999998
 31
0.0
  0
LINE
  5
37
  8
0
 10
-1.7416547999999996
 20
-0.13902806564999998
 30
0.0
 11
-1.7277030099999995
 21
-0.14517263635
 31
0.0
  0
LINE
  5
38
  8
0
 10
-1.7277030099999995
 20
-0.14517263635
 30
0.0
 11
-1.7150157379999995
 21
-0.14797305714999998
 31
0.0
  0
LINE
  5
39
  8
0
 10
-1.7150157379999995
 20
-0.14797305714999998
 30
0.0
 11
-1.6252337269999995
 21
-0.16779035085
 31
0.0
  0
LINE
  5
3A
  8
0
 10
-1.6252337269999995
 20
-0.16779035085
 30
0.0
 11
-1.5866053969999996
 21
-0.17611650185
 31
0.0
  0
LINE
  5
3B
  8
0
 10
-1.5866053969999996
 20
-0.17611650185
 30
0.0
 11
-1.5740924069999997
 21
-0.17756153204999997
 31
0.0
  0
LINE
  5
3C
  8
0
 10
-1.5740924069999997
 20
-0.17756153204999997
 30
0.0
 11
-1.4440969339999996
 21
-0.19257372325
 31
0.0
  0
LINE
  5
3D
  8
0
 10
-1.4440969339999996
 20
-0.19257372325
 30
0.0
 11
-1.4412316259999995
 21
-0.19288355404999996
 31
0.0
  0
LINE
  5
3E
  8
0
 10
-1.4412316259999995
 20
-0.19288355404999996
 30
0.0
 11
-1.3977407719999997
 21
-0.19758629824999996
 31
0.0
  0
LINE
  5
3F
  8
0
 10
-1.3977407719999997
 20
-0.19758629824999996
 30
0.0
 11
-1.3903852719999996
 21
-0.19838166164999999
 31
0.0
  0
LINE
  5
40
  8
0
 10
-1.3903852719999996
 20
-0.19838166164999999
 30
0.0
 11
-1.3775432389999995
 21
-0.19902066344999997
 31
0.0
  0
LINE
  5
41
  8
0
 10
-1.3775432389999995
 20
-0.19902066344999997
 30
0.0
 11
-1.2022133629999998
 21
-0.20774483594999998
 31
0.0
  0
LINE
  5
42
  8
0
 10
-1.2022133629999998
 20
-0.20774483594999998
 30
0.0
 11
-1.1611459599999998
 21
-0.20948318384999998
 31
0.0
  0
LINE
  5
43
  8
0
 10
-1.1611459599999998
 20
-0.20948318384999998
 30
0.0
 11
-1.1313235339999994
 21
-0.21074554154999997
 31
0.0
  0
LINE
  5
44
  8
0
 10
-1.1313235339999994
 20
-0.21074554154999997
 30
0.0
 11
-1.1167495779999994
 21
-0.21082264395
 31
0.0
  0
LINE
  5
45
  8
0
 10
-1.1167495779999994
 20
-0.21082264395
 30
0.0
 11
-0.8964353809999994
 21
-0.21198819905
 31
0.0
  0
LINE
  5
46
  8
0
 10
-0.8964353809999994
 20
-0.21198819905
 30
0.0
 11
-0.8799150159999996
 21
-0.21197583994999997
 31
0.0
  0
LINE
  5
47
  8
0
 10
-0.8799150159999996
 20
-0.21197583994999997
 30
0.0
 11
-0.8172420399999996
 21
-0.21192895344999996
 31
0.0
  0
LINE
  5
48
  8
0
 10
-0.8172420399999996
 20
-0.21192895344999996
 30
0.0
 11
-0.8079771009999996
 21
-0.21192202215
 31
0.0
  0
LINE
  5
49
  8
0
 10
-0.8079771009999996
 20
-0.21192202215
 30
0.0
 11
-0.7890336399999995
 21
-0.21147121754999998
 31
0.0
  0
LINE
  5
4A
  8
0
 10
-0.7890336399999995
 20
-0.21147121754999998
 30
0.0
 11
-0.5334902439999993
 21
-0.20538995504999996
 31
0.0
  0
LINE
  5
4B
  8
0
 10
-0.5334902439999993
 20
-0.20538995504999996
 30
0.0
 11
-0.4957000089999992
 21
-0.20436143614999996
 31
0.0
  0
LINE
  5
4C
  8
0
 10
-0.4957000089999992
 20
-0.20436143614999996
 30
0.0
 11
-0.43013299999999965
 21
-0.20257692994999998
 31
0.0
  0
LINE
  5
4D
  8
0
 10
-0.43013299999999965
 20
-0.20257692994999998
 30
0.0
 11
-0.4129177549999996
 21
-0.20182544214999998
 31
0.0
  0
LINE
  5
4E
  8
0
 10
-0.4129177549999996
 20
-0.20182544214999998
 30
0.0
 11
-0.40367029
 21
-0.20142176754999996
 31
0.0
  0
LINE
  5
4F
  8
0
 10
-0.40367029
 20
-0.20142176754999996
 30
0.0
 11
-0.13266995199999965
 21
-0.18959193624999998
 31
0.0
  0
LINE
  5
50
  8
0
 10
-0.13266995199999965
 20
-0.18959193624999998
 30
0.0
 11
-0.08337802399999994
 21
-0.18740225294999996
 31
0.0
  0
LINE
  5
51
  8
0
 10
-0.08337802399999994
 20
-0.18740225294999996
 30
0.0
 11
-0.0206572309999995
 21
-0.18461602254999998
 31
0.0
  0
LINE
  5
52
  8
0
 10
-0.0206572309999995
 20
-0.18461602254999998
 30
0.0
 11
0.04212764800000013
 21
-0.18089576144999997
 31
0.0
  0
LINE
  5
53
  8
0
 10
0.04212764800000013
 20
-0.18089576144999997
 30
0.0
 11
0.08192821700000064
 21
-0.17853741484999996
 31
0.0
  0
LINE
  5
54
  8
0
 10
0.08192821700000064
 20
-0.17853741484999996
 30
0.0
 11
0.09127062000000041
 21
-0.17798383915
 31
0.0
  0
LINE
  5
55
  8
0
 10
0.09127062000000041
 20
-0.17798383915
 30
0.0
 11
0.34652603300000084
 21
-0.16268350695
 31
0.0
  0
LINE
  5
56
  8
0
 10
0.34652603300000084
 20
-0.16268350695
 30
0.0
 11
0.38848633300000035
 21
-0.16016835354999998
 31
0.0
  0
LINE
  5
57
  8
0
 10
0.38848633300000035
 20
-0.16016835354999998
 30
0.0
 11
0.3948894600000008
 21
-0.15973672754999996
 31
0.0
  0
LINE
  5
58
  8
0
 10
0.3948894600000008
 20
-0.15973672754999996
 30
0.0
 11
0.403641747
 21
-0.15914674785
 31
0.0
  0
LINE
  5
59
  8
0
 10
0.403641747
 20
-0.15914674785
 30
0.0
 11
0.4783290460000007
 21
-0.15411217904999996
 31
0.0
  0
LINE
  5
5A
  8
0
 10
0.4783290460000007
 20
-0.15411217904999996
 30
0.0
 11
0.4839184600000008
 21
-0.15373540435
 31
0.0
  0
LINE
  5
5B
  8
0
 10
0.4839184600000008
 20
-0.15373540435
 30
0.0
 11
0.49165068000000023
 21
-0.15321418594999997
 31
0.0
  0
LINE
  5
5C
  8
0
 10
0.49165068000000023
 20
-0.15321418594999997
 30
0.0
 11
0.725171735
 21
-0.13694163364999995
 31
0.0
  0
LINE
  5
5D
  8
0
 10
0.725171735
 20
-0.13694163364999995
 30
0.0
 11
0.7655627000000003
 21
-0.13412705194999996
 31
0.0
  0
LINE
  5
5E
  8
0
 10
0.7655627000000003
 20
-0.13412705194999996
 30
0.0
 11
0.8062972000000004
 21
-0.13120762295
 31
0.0
  0
LINE
  5
5F
  8
0
 10
0.8062972000000004
 20
-0.13120762295
 30
0.0
 11
0.8078853600000002
 21
-0.13109380005
 31
0.0
  0
LINE
  5
60
  8
0
 10
0.8078853600000002
 20
-0.13109380005
 30
0.0
 11
0.8471887930000008
 21
-0.12827693515
 31
0.0
  0
LINE
  5
61
  8
0
 10
0.8471887930000008
 20
-0.12827693515
 30
0.0
 11
0.8538029070000004
 21
-0.12780290364999997
 31
0.0
  0
LINE
  5
62
  8
0
 10
0.8538029070000004
 20
-0.12780290364999997
 30
0.0
 11
1.0586179710000003
 21
-0.11234593955
 31
0.0
  0
LINE
  5
63
  8
0
 10
1.0586179710000003
 20
-0.11234593955
 30
0.0
 11
1.088058309
 21
-0.11012413885
 31
0.0
  0
LINE
  5
64
  8
0
 10
1.088058309
 20
-0.11012413885
 30
0.0
 11
1.1080091230000004
 21
-0.10864426215
 31
0.0
  0
LINE
  5
65
  8
0
 10
1.1080091230000004
 20
-0.10864426215
 30
0.0
 11
1.1104876850000007
 21
-0.10846041174999999
 31
0.0
  0
LINE
  5
66
  8
0
 10
1.1104876850000007
 20
-0.10846041174999999
 30
0.0
 11
1.1588295410000002
 21
-0.10487459364999996
 31
0.0
  0
LINE
  5
67
  8
0
 10
1.1588295410000002
 20
-0.10487459364999996
 30
0.0
 11
1.3284633710000007
 21
-0.09142667215
 31
0.0
  0
LINE
  5
68
  8
0
 10
1.3284633710000007
 20
-0.09142667215
 30
0.0
 11
1.3466855210000004
 21
-0.08998208985
 31
0.0
  0
LINE
  5
69
  8
0
 10
1.3466855210000004
 20
-0.08998208985
 30
0.0
 11
1.3740969000000005
 21
-0.08790008754999995
 31
0.0
  0
LINE
  5
6A
  8
0
 10
1.3740969000000005
 20
-0.08790008754999995
 30
0.0
 11
1.380222926
 21
-0.08743479164999995
 31
0.0
  0
LINE
  5
6B
  8
0
 10
1.380222926
 20
-0.08743479164999995
 30
0.0
 11
1.4005709030000002
 21
-0.08588928255
 31
0.0
  0
LINE
  5
6C
  8
0
 10
1.4005709030000002
 20
-0.08588928255
 30
0.0
 11
1.5329145010000005
 21
-0.07502575454999999
 31
0.0
  0
LINE
  5
6D
  8
0
 10
1.5329145010000005
 20
-0.07502575454999999
 30
0.0
 11
1.5435895010000005
 21
-0.07414948885
 31
0.0
  0
LINE
  5
6E
  8
0
 10
1.5435895010000005
 20
-0.07414948885
 30
0.0
 11
1.5830153430000005
 21
-0.07109672504999998
 31
0.0
  0
LINE
  5
6F
  8
0
 10
1.5830153430000005
 20
-0.07109672504999998
 30
0.0
 11
1.681519132
 21
-0.06278951654999998
 31
0.0
  0
LINE
  5
70
  8
0
 10
1.681519132
 20
-0.06278951654999998
 30
0.0
 11
1.6876474560000005
 21
-0.06227269094999999
 31
0.0
  0
LINE
  5
71
  8
0
 10
1.6876474560000005
 20
-0.06227269094999999
 30
0.0
 11
1.7001784780000007
 21
-0.061287010350000004
 31
0.0
  0
LINE
  5
72
  8
0
 10
1.7001784780000007
 20
-0.061287010350000004
 30
0.0
 11
1.7097059260000007
 21
-0.06053758844999996
 31
0.0
  0
LINE
  5
73
  8
0
 10
1.7097059260000007
 20
-0.06053758844999996
 30
0.0
 11
1.7156606870000006
 21
-0.060069191549999956
 31
0.0
  0
LINE
  5
74
  8
0
 10
1.7156606870000006
 20
-0.060069191549999956
 30
0.0
 11
1.7864705910000005
 21
-0.05397120414999995
 31
0.0
  0
LINE
  5
75
  8
0
 10
1.7864705910000005
 20
-0.05397120414999995
 30
0.0
 11
1.789999989
 21
-0.053667260449999976
 31
0.0
  0
LINE
  5
76
  8
0
 10
1.789999989
 20
-0.053667260449999976
 30
0.0
 11
1.8094924640000007
 21
-0.05211552964999999
 31
0.0
  0
LINE
  5
77
  8
0
 10
1.8094924640000007
 20
-0.05211552964999999
 30
0.0
 11
1.8591606830000007
 21
-0.04777179874999998
 31
0.0
  0
LINE
  5
78
  8
0
 10
1.8591606830000007
 20
-0.04777179874999998
 30
0.0
 11
1.8612175510000002
 21
-0.047591915449999966
 31
0.0
  0
LINE
  5
79
  8
0
 10
1.8612175510000002
 20
-0.047591915449999966
 30
0.0
 11
1.8591070810000003
 21
-0.04722332204999996
 31
0.0
  0
LINE
  5
7A
  8
0
 10
1.8591070810000003
 20
-0.04722332204999996
 30
0.0
 11
1.809624158
 21
-0.038581132949999986
 31
0.0
  0
LINE
  5
7B
  8
0
 10
1.809624158
 20
-0.038581132949999986
 30
0.0
 11
1.793313673
 21
-0.03546557774999998
 31
0.0
  0
LINE
  5
7C
  8
0
 10
1.793313673
 20
-0.03546557774999998
 30
0.0
 11
1.7901950630000005
 21
-0.03486987494999999
 31
0.0
  0
LINE
  5
7D
  8
0
 10
1.7901950630000005
 20
-0.03486987494999999
 30
0.0
 11
1.7855275760000007
 21
-0.034077707749999964
 31
0.0
  0
LINE
  5
7E
  8
0
 10
1.7855275760000007
 20
-0.034077707749999964
 30
0.0
 11
1.7159894200000005
 21
-0.022275672849999983
 31
0.0
  0
LINE
  5
7F
  8
0
 10
1.7159894200000005
 20
-0.022275672849999983
 30
0.0
 11
1.7028351560000008
 21
-0.01983597344999999
 31
0.0
  0
LINE
  5
80
  8
0
 10
1.7028351560000008
 20
-0.01983597344999999
 30
0.0
 11
1.688040516
 21
-0.01709203614999999
 31
0.0
  0
LINE
  5
81
  8
0
 10
1.688040516
 20
-0.01709203614999999
 30
0.0
 11
1.6777396270000002
 21
-0.015414450749999975
 31
0.0
  0
LINE
  5
82
  8
0
 10
1.6777396270000002
 20
-0.015414450749999975
 30
0.0
 11
1.5834903910000007
 21
-6.517904999997493e-05
 31
0.0
  0
LINE
  5
83
  8
0
 10
1.5834903910000007
 20
-6.517904999997493e-05
 30
0.0
 11
1.5643722280000008
 21
0.003332872750000021
 31
0.0
  0
LINE
  5
84
  8
0
 10
1.5643722280000008
 20
0.003332872750000021
 30
0.0
 11
1.5441040080000006
 21
0.00693533485000003
 31
0.0
  0
LINE
  5
85
  8
0
 10
1.5441040080000006
 20
0.00693533485000003
 30
0.0
 11
1.5212451710000003
 21
0.010446965350000031
 31
0.0
  0
LINE
  5
86
  8
0
 10
1.5212451710000003
 20
0.010446965350000031
 30
0.0
 11
1.4010098440000007
 21
0.028917811150000028
 31
0.0
  0
LINE
  5
87
  8
0
 10
1.4010098440000007
 20
0.028917811150000028
 30
0.0
 11
1.385787896
 21
0.031464772150000014
 31
0.0
  0
LINE
  5
88
  8
0
 10
1.385787896
 20
0.031464772150000014
 30
0.0
 11
1.3654716210000002
 21
0.034864124450000034
 31
0.0
  0
LINE
  5
89
  8
0
 10
1.3654716210000002
 20
0.034864124450000034
 30
0.0
 11
1.347088094
 21
0.037940086150000024
 31
0.0
  0
LINE
  5
8A
  8
0
 10
1.347088094
 20
0.037940086150000024
 30
0.0
 11
1.296507149
 21
0.045098931750000015
 31
0.0
  0
LINE
  5
8B
  8
0
 10
1.296507149
 20
0.045098931750000015
 30
0.0
 11
1.15883059
 21
0.06458463405000003
 31
0.0
  0
LINE
  5
8C
  8
0
 10
1.15883059
 20
0.06458463405000003
 30
0.0
 11
1.1479639030000008
 21
0.06625456515000003
 31
0.0
  0
LINE
  5
8D
  8
0
 10
1.1479639030000008
 20
0.06625456515000003
 30
0.0
 11
1.1304578260000007
 21
0.06894480005000003
 31
0.0
  0
LINE
  5
8E
  8
0
 10
1.1304578260000007
 20
0.06894480005000003
 30
0.0
 11
1.1254003270000004
 21
0.06972200805000003
 31
0.0
  0
LINE
  5
8F
  8
0
 10
1.1254003270000004
 20
0.06972200805000003
 30
0.0
 11
1.087866118
 21
0.07549005325000002
 31
0.0
  0
LINE
  5
90
  8
0
 10
1.087866118
 20
0.07549005325000002
 30
0.0
 11
1.0165993430000002
 21
0.08446631705000002
 31
0.0
  0
LINE
  5
91
  8
0
 10
1.0165993430000002
 20
0.08446631705000002
 30
0.0
 11
0.9958972880000001
 21
0.08707380295000003
 31
0.0
  0
LINE
  5
92
  8
0
 10
0.9958972880000001
 20
0.08707380295000003
 30
0.0
 11
0.8526740850000003
 21
0.10511319435000002
 31
0.0
  0
LINE
  5
93
  8
0
 10
0.8526740850000003
 20
0.10511319435000002
 30
0.0
 11
0.8407077170000008
 21
0.10674205225000002
 31
0.0
  0
LINE
  5
94
  8
0
 10
0.8407077170000008
 20
0.10674205225000002
 30
0.0
 11
0.7639831080000006
 21
0.11718577995000001
 31
0.0
  0
LINE
  5
95
  8
0
 10
0.7639831080000006
 20
0.11718577995000001
 30
0.0
 11
0.7545203970000003
 21
0.11818950785000001
 31
0.0
  0
LINE
  5
96
  8
0
 10
0.7545203970000003
 20
0.11818950785000001
 30
0.0
 11
0.6973052800000001
 21
0.12425842515000002
 31
0.0
  0
LINE
  5
97
  8
0
 10
0.6973052800000001
 20
0.12425842515000002
 30
0.0
 11
0.620777006
 21
0.13237592615000002
 31
0.0
  0
LINE
  5
98
  8
0
 10
0.620777006
 20
0.13237592615000002
 30
0.0
 11
0.613721591
 21
0.13312430755000004
 31
0.0
  0
LINE
  5
99
  8
0
 10
0.613721591
 20
0.13312430755000004
 30
0.0
 11
0.488436128
 21
0.14641357715000003
 31
0.0
  0
LINE
  5
9A
  8
0
 10
0.488436128
 20
0.14641357715000003
 30
0.0
 11
0.4291410600000001
 21
0.15316414537
 31
0.0
  0
LINE
  5
9B
  8
0
 10
0.4291410600000001
 20
0.15316414537
 30
0.0
 11
0.384484928
 21
0.15824811397000002
 31
0.0
  0
LINE
  5
9C
  8
0
 10
0.384484928
 20
0.15824811397000002
 30
0.0
 11
0.37639120300000073
 21
0.15890035854
 31
0.0
  0
LINE
  5
9D
  8
0
 10
0.37639120300000073
 20
0.15890035854
 30
0.0
 11
0.30308826200000016
 21
0.16480758206
 31
0.0
  0
LINE
  5
9E
  8
0
 10
0.30308826200000016
 20
0.16480758206
 30
0.0
 11
0.1940526380000005
 21
0.17359437541000003
 31
0.0
  0
LINE
  5
9F
  8
0
 10
0.1940526380000005
 20
0.17359437541000003
 30
0.0
 11
0.08494930099999998
 21
0.18238662557000002
 31
0.0
  0
LINE
  5
A0
  8
0
 10
0.08494930099999998
 20
0.18238662557000002
 30
0.0
 11
0.08066484000000074
 21
0.18275332436000002
 31
0.0
  0
LINE
  5
A1
  8
0
 10
0.08066484000000074
 20
0.18275332436000002
 30
0.0
 11
-0.028095047999999956
 21
0.19206187431000002
 31
0.0
  0
LINE
  5
A2
  8
0
 10
-0.028095047999999956
 20
0.19206187431000002
 30
0.0
 11
-0.14141550399999936
 21
0.19767635677
 31
0.0
  0
LINE
  5
A3
  8
0
 10
-0.14141550399999936
 20
0.19767635677
 30
0.0
 11
-0.14697687799999937
 21
0.19794150909000002
 31
0.0
  0
LINE
  5
A4
  8
0
 10
-0.14697687799999937
 20
0.19794150909000002
 30
0.0
 11
-0.21809174799999997
 21
0.20133208712000003
 31
0.0
  0
LINE
  5
A5
  8
0
 10
-0.21809174799999997
 20
0.20133208712000003
 30
0.0
 11
-0.3199441779999992
 21
0.20618815465
 31
0.0
  0
LINE
  5
A6
  8
0
 10
-0.3199441779999992
 20
0.20618815465
 30
0.0
 11
-0.4415958249999994
 21
0.21198819905000002
 31
0.0
  0
LINE
  5
A7
  8
0
 10
-0.4415958249999994
 20
0.21198819905000002
 30
0.0
 11
-0.5462162099999999
 21
0.21169170421000003
 31
0.0
  0
LINE
  5
A8
  8
0
 10
-0.5462162099999999
 20
0.21169170421000003
 30
0.0
 11
-0.5771182009999993
 21
0.21169961715000002
 31
0.0
  0
LINE
  5
A9
  8
0
 10
-0.5771182009999993
 20
0.21169961715000002
 30
0.0
 11
-0.6709838899999996
 21
0.21172365292000003
 31
0.0
  0
LINE
  5
AA
  8
0
 10
-0.6709838899999996
 20
0.21172365292000003
 30
0.0
 11
-0.7276184099999994
 21
0.21173815506000002
 31
0.0
  0
LINE
  5
AB
  8
0
 10
-0.7276184099999994
 20
0.21173815506000002
 30
0.0
 11
-0.8233276839999997
 21
0.21176266291
 31
0.0
  0
LINE
  5
AC
  8
0
 10
-0.8233276839999997
 20
0.21176266291
 30
0.0
 11
-0.9126213169999997
 21
0.20572846712000004
 31
0.0
  0
LINE
  5
AD
  8
0
 10
-0.9126213169999997
 20
0.20572846712000004
 30
0.0
 11
-0.9987879419999994
 21
0.20066011530000002
 31
0.0
  0
LINE
  5
AE
  8
0
 10
-0.9987879419999994
 20
0.20066011530000002
 30
0.0
 11
-1.0641087079999996
 21
0.19681792437
 31
0.0
  0
LINE
  5
AF
  8
0
 10
-1.0641087079999996
 20
0.19681792437
 30
0.0
 11
-1.1418932039999996
 21
0.19224261243000001
 31
0.0
  0
LINE
  5
B0
  8
0
 10
-1.1418932039999996
 20
0.19224261243000001
 30
0.0
 11
-1.1492452019999995
 21
0.19181016527000003
 31
0.0
  0
LINE
  5
B1
  8
0
 10
-1.1492452019999995
 20
0.19181016527000003
 30
0.0
 11
-1.2202982789999997
 21
0.18168372418
 31
0.0
  0
LINE
  5
B2
  8
0
 10
-1.2202982789999997
 20
0.18168372418
 30
0.0
 11
-1.2983949509999997
 21
0.17167080198
 31
0.0
  0
LINE
  5
B3
  8
0
 10
-1.2983949509999997
 20
0.17167080198
 30
0.0
 11
-1.4088093899999996
 21
0.15751435768000002
 31
0.0
  0
LINE
  5
B4
  8
0
 10
-1.4088093899999996
 20
0.15751435768000002
 30
0.0
 11
-1.4157787269999997
 21
0.15587780888000002
 31
0.0
  0
LINE
  5
B5
  8
0
 10
-1.4157787269999997
 20
0.15587780888000002
 30
0.0
 11
-1.4619894969999998
 21
0.14502653635
 31
0.0
  0
LINE
  5
B6
  8
0
 10
-1.4619894969999998
 20
0.14502653635
 30
0.0
 11
-1.5287534789999997
 21
0.13070290115000002
 31
0.0
  0
LINE
  5
B7
  8
0
 10
-1.5287534789999997
 20
0.13070290115000002
 30
0.0
 11
-1.6033934689999998
 21
0.11468953645000002
 31
0.0
  0
LINE
  5
B8
  8
0
 10
-1.6033934689999998
 20
0.11468953645000002
 30
0.0
 11
-1.6408737129999995
 21
0.10091775505000003
 31
0.0
  0
LINE
  5
B9
  8
0
 10
-1.6408737129999995
 20
0.10091775505000003
 30
0.0
 11
-1.6938466049999996
 21
0.08295755315000003
 31
0.0
  0
LINE
  5
BA
  8
0
 10
-1.6938466049999996
 20
0.08295755315000003
 30
0.0
 11
-1.7409574479999996
 21
0.06698485045000002
 31
0.0
  0
LINE
  5
BB
  8
0
 10
-1.7409574479999996
 20
0.06698485045000002
 30
0.0
 11
-1.7607025679999997
 21
0.05444916935000002
 31
0.0
  0
LINE
  5
BC
  8
0
 10
-1.7607025679999997
 20
0.05444916935000002
 30
0.0
 11
-1.7639095929999997
 21
0.05241310955000003
 31
0.0
  0
LINE
  5
BD
  8
0
 10
-1.7639095929999997
 20
0.05241310955000003
 30
0.0
 11
-1.7648120269999996
 21
0.051840176650000014
 31
0.0
  0
LINE
  5
BE
  8
0
 10
-1.7648120269999996
 20
0.051840176650000014
 30
0.0
 11
-1.8025640649999994
 21
0.029637120350000018
 31
0.0
  0
LINE
  5
BF
  8
0
 10
-1.8025640649999994
 20
0.029637120350000018
 30
0.0
 11
-1.8292397079999998
 21
0.01394840975000003
 31
0.0
  0
LINE
  5
C0
  8
0
 10
-1.8292397079999998
 20
0.01394840975000003
 30
0.0
 11
-1.8375425449999998
 21
-0.0032101384499999552
 31
0.0
  0
LINE
  5
C1
  8
0
 10
0.2
 20
0.2
 30
0.0
 11
0.2
 21
-0.2
 31
0.0
  0
LINE
  5
C2
  8
0
 10
0.2
 20
-0.2
 30
0.0
 11
-0.2
 21
-0.2
 31
0.0
  0
LINE
  5
C3
  8
0
 10
-0.2
 20
-0.2
 30
0.0
 11
-0.2
 21
0.2
 31
0.0
  0
LINE
  5
C4
  8
0
 10
-0.2
 20
0.2
 30
0.0
 11
0.2
 21
0.2
 31
0.0
  0
ENDSEC
  0
EOF
