  0
SECTION
  2
HEADER
  9
$ACADVER
  1
AC1009
  9
$DWGCODEPAGE
  3
ANSI_1252
  9
$INSBASE
 10
0.0
 20
0.0
 30
0.0
  9
$EXTMIN
 10
-100
 20
-100
 30
-100
  9
$EXTMAX
 10
100
 20
100
 30
100
  9
$LIMMIN
 10
0.0
 20
0.0
  9
$LIMMAX
 10
420.0
 20
297.0
  9
$ORTHOMODE
 70
0
  9
$REGENMODE
 70
1
  9
$DRAGMODE
 70
2
  9
$FILLMODE
 70
1
  9
$QTEXTMODE
 70
0
  9
$MIRRTEXT
 70
1
  9
$OSMODE
 70
20583
  9
$LTSCALE
 40
1.0
  9
$ATTMODE
 70
1
  9
$TEXTSIZE
 40
2.5
  9
$TRACEWID
 40
1.0
  9
$TEXTSTYLE
  7
Standard
  9
$CLAYER
  8
0
  9
$CELTYPE
  6
ByLayer
  9
$CECOLOR
 62
256
  9
$DIMSCALE
 40
1.0
  9
$DIMASZ
 40
2.5
  9
$DIMEXO
 40
0.625
  9
$DIMDLI
 40
3.75
  9
$DIMRND
 40
0.0
  9
$DIMDLE
 40
0.0
  9
$DIMEXE
 40
1.25
  9
$DIMTP
 40
0.0
  9
$DIMTM
 40
0.0
  9
$DIMTXT
 40
2.5
  9
$DIMCEN
 40
2.5
  9
$DIMTSZ
 40
0.0
  9
$DIMTOL
 70
0
  9
$DIMLIM
 70
0
  9
$DIMTIH
 70
0
  9
$DIMTOH
 70
0
  9
$DIMSE1
 70
0
  9
$DIMSE2
 70
0
  9
$DIMTAD
 70
1
  9
$DIMZIN
 70
8
  9
$DIMBLK
  1

  9
$DIMASO
 70
1
  9
$DIMSHO
 70
1
  9
$DIMPOST
  1

  9
$DIMAPOST
  1

  9
$DIMALT
 70
0
  9
$DIMALTD
 70
3
  9
$DIMALTF
 40
0.03937007874
  9
$DIMLFAC
 40
1.0
  9
$DIMTOFL
 70
1
  9
$DIMTVP
 40
0.0
  9
$DIMTIX
 70
0
  9
$DIMSOXD
 70
0
  9
$DIMSAH
 70
0
  9
$DIMBLK1
  1

  9
$DIMBLK2
  1

  9
$DIMSTYLE
  2
ISO-25
  9
$DIMCLRD
 70
0
  9
$DIMCLRE
 70
0
  9
$DIMCLRT
 70
0
  9
$DIMTFAC
 40
1.0
  9
$DIMGAP
 40
0.625
  9
$COORDS
 70
1
  9
$ATTDIA
 70
0
  9
$ATTREQ
 70
1
  9
$HANDLING
 70
1
  9
$LUNITS
 70
2
  9
$LUPREC
 70
4
  9
$SKETCHINC
 40
1.0
  9
$FILLETRAD
 40
10.0
  9
$AUNITS
 70
0
  9
$AUPREC
 70
2
  9
$MENU
  1
.
  9
$ELEVATION
 40
0.0
  9
$PELEVATION
 40
0.0
  9
$THICKNESS
 40
0.0
  9
$LIMCHECK
 70
0
  9
$CHAMFERA
 40
0.0
  9
$CHAMFERB
 40
0.0
  9
$SKPOLY
 70
0
  9
$TDCREATE
 40
2459751.945671296
  9
$TDUPDATE
 40
2459751.945671296
  9
$TDINDWG
 40
0.0
  9
$TDUSRTIMER
 40
0.0
  9
$USRTIMER
 70
1
  9
$ANGBASE
 50
0.0
  9
$ANGDIR
 70
0
  9
$PDMODE
 70
0
  9
$PDSIZE
 40
0.0
  9
$PLINEWID
 40
0.0
  9
$SPLFRAME
 70
0
  9
$SPLINETYPE
 70
6
  9
$SPLINESEGS
 70
8
  9
$HANDSEED
  5
72
  9
$SURFTAB1
 70
6
  9
$SURFTAB2
 70
6
  9
$SURFTYPE
 70
6
  9
$SURFU
 70
6
  9
$SURFV
 70
6
  9
$UCSNAME
  2

  9
$UCSORG
 10
0.0
 20
0.0
 30
0.0
  9
$UCSXDIR
 10
1.0
 20
0.0
 30
0.0
  9
$UCSYDIR
 10
0.0
 20
1.0
 30
0.0
  9
$PUCSNAME
  2

  9
$PUCSORG
 10
0.0
 20
0.0
 30
0.0
  9
$PUCSXDIR
 10
1.0
 20
0.0
 30
0.0
  9
$PUCSYDIR
 10
0.0
 20
1.0
 30
0.0
  9
$USERI1
 70
0
  9
$USERI2
 70
0
  9
$USERI3
 70
0
  9
$USERI4
 70
0
  9
$USERI5
 70
0
  9
$USERR1
 40
0.0
  9
$USERR2
 40
0.0
  9
$USERR3
 40
0.0
  9
$USERR4
 40
0.0
  9
$USERR5
 40
0.0
  9
$WORLDVIEW
 70
1
  9
$SHADEDGE
 70
3
  9
$SHADEDIF
 70
70
  9
$TILEMODE
 70
1
  9
$MAXACTVP
 70
64
  9
$PLIMCHECK
 70
0
  9
$PEXTMIN
 10
1e+20
 20
1e+20
 30
1e+20
  9
$PEXTMAX
 10
-1e+20
 20
-1e+20
 30
-1e+20
  9
$PLIMMIN
 10
0.0
 20
0.0
  9
$PLIMMAX
 10
420.0
 20
297.0
  9
$UNITMODE
 70
0
  9
$VISRETAIN
 70
1
  9
$PLINEGEN
 70
0
  9
$PSLTSCALE
 70
1
  0
ENDSEC
  0
SECTION
  2
TABLES
  0
TABLE
  2
VPORT
 70
1
  0
VPORT
  5
23
  2
*Active
 70
0
 10
0.0
 20
0.0
 11
1.0
 21
1.0
 12
70.0
 22
50.0
 13
0.0
 23
0.0
 14
0.5
 24
0.5
 15
0.5
 25
0.5
 16
0.0
 26
0.0
 36
1.0
 17
0.0
 27
0.0
 37
0.0
 40
1.0
 41
1.34
 42
50.0
 43
0.0
 44
0.0
 50
0.0
 51
0.0
 71
0
 72
1000
 73
1
 74
3
 75
0
 76
0
 77
0
 78
0
  0
ENDTAB
  0
TABLE
  2
LTYPE
 70
3
  0
LTYPE
  5
24
  2
ByBlock
 70
0
  3

 72
65
 73
0
 40
0.0
  0
LTYPE
  5
25
  2
ByLayer
 70
0
  3

 72
65
 73
0
 40
0.0
  0
LTYPE
  5
26
  2
Continuous
 70
0
  3

 72
65
 73
0
 40
0.0
  0
ENDTAB
  0
TABLE
  2
LAYER
 70
2
  0
LAYER
  5
27
  2
0
 70
0
 62
7
  6
Continuous
  0
LAYER
  5
28
  2
Defpoints
 70
0
 62
7
  6
Continuous
  0
ENDTAB
  0
TABLE
  2
STYLE
 70
1
  0
STYLE
  5
29
  2
Standard
 70
0
 40
0.0
 41
1.0
 50
0.0
 71
0
 42
2.5
  3
txt
  4

  0
ENDTAB
  0
TABLE
  2
VIEW
 70
0
  0
ENDTAB
  0
TABLE
  2
UCS
 70
0
  0
ENDTAB
  0
TABLE
  2
APPID
 70
2
  0
APPID
  5
2A
  2
ACAD
 70
0
  0
APPID
  5
71
  2
HATCHBACKGROUNDCOLOR
 70
0
  0
ENDTAB
  0
TABLE
  2
DIMSTYLE
 70
1
  0
DIMSTYLE
105
2B
  2
Standard
 70
0
  3

  4

  5

  6

  7

 40
1.0
 41
2.5
 42
0.625
 43
3.75
 44
1.25
 45
0.0
 46
0.0
 47
0.0
 48
0.0
140
2.5
141
2.5
142
0.0
143
0.03937007874
144
1.0
145
0.0
146
1.0
147
0.625
 71
0
 72
0
 73
0
 74
0
 75
0
 76
0
 77
1
 78
8
170
0
171
3
172
1
173
0
174
0
175
0
176
0
177
0
178
0
  0
ENDTAB
  0
ENDSEC
  0
SECTION
  2
BLOCKS
  0
BLOCK
  5
18
  8
0
  2
$Model_Space
 70
0
 10
0.0
 20
0.0
 30
0.0
  3
$Model_Space
  1

  0
ENDBLK
  5
19
  8
0
  0
BLOCK
  5
1C
  8
0
  2
$Paper_Space
 70
0
 10
0.0
 20
0.0
 30
0.0
  3
$Paper_Space
  1

  0
ENDBLK
  5
1D
  8
0
  0
ENDSEC
  0
SECTION
  2
ENTITIES
  0
LINE
  5
2D
  8
0
 10
-1.6816167345000004
 20
-0.014845072749999966
 30
0.0
 11
-1.6459086995000005
 21
-0.06407649885
 31
0.0
  0
LINE
  5
2E
  8
0
 10
-1.6459086995000005
 20
-0.06407649885
 30
0.0
 11
-1.6451422925000005
 21
-0.06514708404999997
 31
0.0
  0
LINE
  5
2F
  8
0
 10
-1.6451422925000005
 20
-0.06514708404999997
 30
0.0
 11
-1.5620284205000003
 21
-0.10126448794999998
 31
0.0
  0
LINE
  5
30
  8
0
 10
-1.5620284205000003
 20
-0.10126448794999998
 30
0.0
 11
-1.5602347895000004
 21
-0.10204773074999995
 31
0.0
  0
LINE
  5
31
  8
0
 10
-1.5602347895000004
 20
-0.10204773074999995
 30
0.0
 11
-1.4357294045000004
 21
-0.13100826085
 31
0.0
  0
LINE
  5
32
  8
0
 10
-1.4357294045000004
 20
-0.13100826085
 30
0.0
 11
-1.4330362375000005
 21
-0.13161796644999996
 31
0.0
  0
LINE
  5
33
  8
0
 10
-1.4330362375000005
 20
-0.13161796644999996
 30
0.0
 11
-1.2598041715000003
 21
-0.15454031934999996
 31
0.0
  0
LINE
  5
34
  8
0
 10
-1.2598041715000003
 20
-0.15454031934999996
 30
0.0
 11
-1.2560578735000005
 21
-0.15500303494999995
 31
0.0
  0
LINE
  5
35
  8
0
 10
-1.2560578735000005
 20
-0.15500303494999995
 30
0.0
 11
-1.0270779115000006
 21
-0.17028811215
 31
0.0
  0
LINE
  5
36
  8
0
 10
-1.0270779115000006
 20
-0.17028811215
 30
0.0
 11
-1.0221287265000005
 21
-0.17057450824999998
 31
0.0
  0
LINE
  5
37
  8
0
 10
-1.0221287265000005
 20
-0.17057450824999998
 30
0.0
 11
-0.7360729375000004
 21
-0.17603451044999996
 31
0.0
  0
LINE
  5
38
  8
0
 10
-0.7360729375000004
 20
-0.17603451044999996
 30
0.0
 11
-0.7298926955000002
 21
-0.17610790834999995
 31
0.0
  0
LINE
  5
39
  8
0
 10
-0.7298926955000002
 20
-0.17610790834999995
 30
0.0
 11
-0.3955100585000002
 21
-0.17076154015
 31
0.0
  0
LINE
  5
3A
  8
0
 10
-0.3955100585000002
 20
-0.17076154015
 30
0.0
 11
-0.38828686550000047
 21
-0.17061657505
 31
0.0
  0
LINE
  5
3B
  8
0
 10
-0.38828686550000047
 20
-0.17061657505
 30
0.0
 11
-0.025942913500000664
 21
-0.15543687404999995
 31
0.0
  0
LINE
  5
3C
  8
0
 10
-0.025942913500000664
 20
-0.15543687404999995
 30
0.0
 11
-0.018115389500000134
 21
-0.15510175794999997
 31
0.0
  0
LINE
  5
3D
  8
0
 10
-0.018115389500000134
 20
-0.15510175794999997
 30
0.0
 11
-0.010295004500000537
 21
-0.15462713354999996
 31
0.0
  0
LINE
  5
3E
  8
0
 10
-0.010295004500000537
 20
-0.15462713354999996
 30
0.0
 11
0.3516865884999998
 21
-0.13236122114999999
 31
0.0
  0
LINE
  5
3F
  8
0
 10
0.3516865884999998
 20
-0.13236122114999999
 30
0.0
 11
0.35889285949999916
 21
-0.13184118115
 31
0.0
  0
LINE
  5
40
  8
0
 10
0.35889285949999916
 20
-0.13184118115
 30
0.0
 11
0.6924011704999993
 21
-0.10686723334999998
 31
0.0
  0
LINE
  5
41
  8
0
 10
0.6924011704999993
 20
-0.10686723334999998
 30
0.0
 11
0.6985632234999999
 21
-0.10637665785
 31
0.0
  0
LINE
  5
42
  8
0
 10
0.6985632234999999
 20
-0.10637665785
 30
0.0
 11
0.9836990374999992
 21
-0.08238174944999999
 31
0.0
  0
LINE
  5
43
  8
0
 10
0.9836990374999992
 20
-0.08238174944999999
 30
0.0
 11
0.9886398804999992
 21
-0.08196255645
 31
0.0
  0
LINE
  5
44
  8
0
 10
0.9886398804999992
 20
-0.08196255645
 30
0.0
 11
1.2172322904999993
 21
-0.061173901350000004
 31
0.0
  0
LINE
  5
45
  8
0
 10
1.2172322904999993
 20
-0.061173901350000004
 30
0.0
 11
1.2209934124999995
 21
-0.06083998954999997
 31
0.0
  0
LINE
  5
46
  8
0
 10
1.2209934124999995
 20
-0.06083998954999997
 30
0.0
 11
1.3949826544999997
 21
-0.04411665334999998
 31
0.0
  0
LINE
  5
47
  8
0
 10
1.3949826544999997
 20
-0.04411665334999998
 30
0.0
 11
1.3977340244999992
 21
-0.043863880649999965
 31
0.0
  0
LINE
  5
48
  8
0
 10
1.3977340244999992
 20
-0.043863880649999965
 30
0.0
 11
1.5249990234999995
 21
-0.03112018124999999
 31
0.0
  0
LINE
  5
49
  8
0
 10
1.5249990234999995
 20
-0.03112018124999999
 30
0.0
 11
1.5269536824999994
 21
-0.030935929949999996
 31
0.0
  0
LINE
  5
4A
  8
0
 10
1.5269536824999994
 20
-0.030935929949999996
 30
0.0
 11
1.6173595674999994
 21
-0.021606651249999997
 31
0.0
  0
LINE
  5
4B
  8
0
 10
1.6173595674999994
 20
-0.021606651249999997
 30
0.0
 11
1.6187195424999992
 21
-0.02147605775
 31
0.0
  0
LINE
  5
4C
  8
0
 10
1.6187195424999992
 20
-0.02147605775
 30
0.0
 11
1.6816167344999995
 21
-0.014845072749999966
 31
0.0
  0
LINE
  5
4D
  8
0
 10
1.6816167344999995
 20
-0.014845072749999966
 30
0.0
 11
1.6187780784999992
 21
-0.006219621049999957
 31
0.0
  0
LINE
  5
4E
  8
0
 10
1.6187780784999992
 20
-0.006219621049999957
 30
0.0
 11
1.6174205184999995
 21
-0.006006751749999983
 31
0.0
  0
LINE
  5
4F
  8
0
 10
1.6174205184999995
 20
-0.006006751749999983
 30
0.0
 11
1.5270740424999998
 21
0.006074881450000014
 31
0.0
  0
LINE
  5
50
  8
0
 10
1.5270740424999998
 20
0.006074881450000014
 30
0.0
 11
1.5251218334999992
 21
0.006372672950000047
 31
0.0
  0
LINE
  5
51
  8
0
 10
1.5251218334999992
 20
0.006372672950000047
 30
0.0
 11
1.3978932774999997
 21
0.022762381550000044
 31
0.0
  0
LINE
  5
52
  8
0
 10
1.3978932774999997
 20
0.022762381550000044
 30
0.0
 11
1.3951434104999993
 21
0.023165559550000048
 31
0.0
  0
LINE
  5
53
  8
0
 10
1.3951434104999993
 20
0.023165559550000048
 30
0.0
 11
1.2211205814999992
 21
0.044441586350000034
 31
0.0
  0
LINE
  5
54
  8
0
 10
1.2211205814999992
 20
0.044441586350000034
 30
0.0
 11
1.2173580734999998
 21
0.04496330595000003
 31
0.0
  0
LINE
  5
55
  8
0
 10
1.2173580734999998
 20
0.04496330595000003
 30
0.0
 11
0.9885871934999999
 21
0.07097553605000001
 31
0.0
  0
LINE
  5
56
  8
0
 10
0.9885871934999999
 20
0.07097553605000001
 30
0.0
 11
0.9836389884999992
 21
0.07161021215000002
 31
0.0
  0
LINE
  5
57
  8
0
 10
0.9836389884999992
 20
0.07161021215000002
 30
0.0
 11
0.6980868574999999
 21
0.10091418385000003
 31
0.0
  0
LINE
  5
58
  8
0
 10
0.6980868574999999
 20
0.10091418385000003
 30
0.0
 11
0.6919076304999994
 21
0.10162376895000003
 31
0.0
  0
LINE
  5
59
  8
0
 10
0.6919076304999994
 20
0.10162376895000003
 30
0.0
 11
0.3576726094999998
 21
0.13110506155
 31
0.0
  0
LINE
  5
5A
  8
0
 10
0.3576726094999998
 20
0.13110506155
 30
0.0
 11
0.3504363604999998
 21
0.13181103865000002
 31
0.0
  0
LINE
  5
5B
  8
0
 10
0.3504363604999998
 20
0.13181103865000002
 30
0.0
 11
-0.012576393500000727
 21
0.15688742395000002
 31
0.0
  0
LINE
  5
5C
  8
0
 10
-0.012576393500000727
 20
0.15688742395000002
 30
0.0
 11
-0.020439316500000082
 21
0.15747798605000002
 31
0.0
  0
LINE
  5
5D
  8
0
 10
-0.020439316500000082
 20
0.15747798605000002
 30
0.0
 11
-0.028316662500000866
 21
0.15783743095000002
 31
0.0
  0
LINE
  5
5E
  8
0
 10
-0.028316662500000866
 20
0.15783743095000002
 30
0.0
 11
-0.3918683945000003
 21
0.17360689255
 31
0.0
  0
LINE
  5
5F
  8
0
 10
-0.3918683945000003
 20
0.17360689255
 30
0.0
 11
-0.39913971250000024
 21
0.17363338815
 31
0.0
  0
LINE
  5
60
  8
0
 10
-0.39913971250000024
 20
0.17363338815
 30
0.0
 11
-0.7346889445000002
 21
0.17610790835
 31
0.0
  0
LINE
  5
61
  8
0
 10
-0.7346889445000002
 20
0.17610790835
 30
0.0
 11
-0.7409010135000003
 21
0.17580209235000002
 31
0.0
  0
LINE
  5
62
  8
0
 10
-0.7409010135000003
 20
0.17580209235000002
 30
0.0
 11
-1.0277283045000005
 21
0.16470799125000002
 31
0.0
  0
LINE
  5
63
  8
0
 10
-1.0277283045000005
 20
0.16470799125000002
 30
0.0
 11
-1.0326837085000005
 21
0.16415011185000003
 31
0.0
  0
LINE
  5
64
  8
0
 10
-1.0326837085000005
 20
0.16415011185000003
 30
0.0
 11
-1.2618144405000002
 21
0.14228394505000003
 31
0.0
  0
LINE
  5
65
  8
0
 10
-1.2618144405000002
 20
0.14228394505000003
 30
0.0
 11
-1.2655404875000005
 21
0.14156673255000002
 31
0.0
  0
LINE
  5
66
  8
0
 10
-1.2655404875000005
 20
0.14156673255000002
 30
0.0
 11
-1.4382816265000002
 21
0.11247506455000003
 31
0.0
  0
LINE
  5
67
  8
0
 10
-1.4382816265000002
 20
0.11247506455000003
 30
0.0
 11
-1.4409310525000003
 21
0.11165788585000003
 31
0.0
  0
LINE
  5
68
  8
0
 10
-1.4409310525000003
 20
0.11165788585000003
 30
0.0
 11
-1.5643761035000003
 21
0.07766795465000001
 31
0.0
  0
LINE
  5
69
  8
0
 10
-1.5643761035000003
 20
0.07766795465000001
 30
0.0
 11
-1.5661024315000005
 21
0.07673762095000003
 31
0.0
  0
LINE
  5
6A
  8
0
 10
-1.5661024315000005
 20
0.07673762095000003
 30
0.0
 11
-1.6475847795000003
 21
0.03705455155000004
 31
0.0
  0
LINE
  5
6B
  8
0
 10
-1.6475847795000003
 20
0.03705455155000004
 30
0.0
 11
-1.6482544205000003
 21
0.035920672450000024
 31
0.0
  0
LINE
  5
6C
  8
0
 10
-1.6482544205000003
 20
0.035920672450000024
 30
0.0
 11
-1.6816167345000004
 21
-0.014845072749999966
 31
0.0
  0
LINE
  5
6D
  8
0
 10
0.2
 20
0.2
 30
0.0
 11
0.2
 21
-0.2
 31
0.0
  0
LINE
  5
6E
  8
0
 10
0.2
 20
-0.2
 30
0.0
 11
-0.2
 21
-0.2
 31
0.0
  0
LINE
  5
6F
  8
0
 10
-0.2
 20
-0.2
 30
0.0
 11
-0.2
 21
0.2
 31
0.0
  0
LINE
  5
70
  8
0
 10
-0.2
 20
0.2
 30
0.0
 11
0.2
 21
0.2
 31
0.0
  0
ENDSEC
  0
EOF
