  0
SECTION
  2
HEADER
  9
$ACADVER
  1
AC1009
  9
$DWGCODEPAGE
  3
ANSI_1252
  9
$INSBASE
 10
0.0
 20
0.0
 30
0.0
  9
$EXTMIN
 10
-100
 20
-100
 30
-100
  9
$EXTMAX
 10
100
 20
100
 30
100
  9
$LIMMIN
 10
0.0
 20
0.0
  9
$LIMMAX
 10
420.0
 20
297.0
  9
$ORTHOMODE
 70
0
  9
$REGENMODE
 70
1
  9
$DRAGMODE
 70
2
  9
$FILLMODE
 70
1
  9
$QTEXTMODE
 70
0
  9
$MIRRTEXT
 70
1
  9
$OSMODE
 70
20583
  9
$LTSCALE
 40
1.0
  9
$ATTMODE
 70
1
  9
$TEXTSIZE
 40
2.5
  9
$TRACEWID
 40
1.0
  9
$TEXTSTYLE
  7
Standard
  9
$CLAYER
  8
0
  9
$CELTYPE
  6
ByLayer
  9
$CECOLOR
 62
256
  9
$DIMSCALE
 40
1.0
  9
$DIMASZ
 40
2.5
  9
$DIMEXO
 40
0.625
  9
$DIMDLI
 40
3.75
  9
$DIMRND
 40
0.0
  9
$DIMDLE
 40
0.0
  9
$DIMEXE
 40
1.25
  9
$DIMTP
 40
0.0
  9
$DIMTM
 40
0.0
  9
$DIMTXT
 40
2.5
  9
$DIMCEN
 40
2.5
  9
$DIMTSZ
 40
0.0
  9
$DIMTOL
 70
0
  9
$DIMLIM
 70
0
  9
$DIMTIH
 70
0
  9
$DIMTOH
 70
0
  9
$DIMSE1
 70
0
  9
$DIMSE2
 70
0
  9
$DIMTAD
 70
1
  9
$DIMZIN
 70
8
  9
$DIMBLK
  1

  9
$DIMASO
 70
1
  9
$DIMSHO
 70
1
  9
$DIMPOST
  1

  9
$DIMAPOST
  1

  9
$DIMALT
 70
0
  9
$DIMALTD
 70
3
  9
$DIMALTF
 40
0.03937007874
  9
$DIMLFAC
 40
1.0
  9
$DIMTOFL
 70
1
  9
$DIMTVP
 40
0.0
  9
$DIMTIX
 70
0
  9
$DIMSOXD
 70
0
  9
$DIMSAH
 70
0
  9
$DIMBLK1
  1

  9
$DIMBLK2
  1

  9
$DIMSTYLE
  2
ISO-25
  9
$DIMCLRD
 70
0
  9
$DIMCLRE
 70
0
  9
$DIMCLRT
 70
0
  9
$DIMTFAC
 40
1.0
  9
$DIMGAP
 40
0.625
  9
$COORDS
 70
1
  9
$ATTDIA
 70
0
  9
$ATTREQ
 70
1
  9
$HANDLING
 70
1
  9
$LUNITS
 70
2
  9
$LUPREC
 70
4
  9
$SKETCHINC
 40
1.0
  9
$FILLETRAD
 40
10.0
  9
$AUNITS
 70
0
  9
$AUPREC
 70
2
  9
$MENU
  1
.
  9
$ELEVATION
 40
0.0
  9
$PELEVATION
 40
0.0
  9
$THICKNESS
 40
0.0
  9
$LIMCHECK
 70
0
  9
$CHAMFERA
 40
0.0
  9
$CHAMFERB
 40
0.0
  9
$SKPOLY
 70
0
  9
$TDCREATE
 40
2459751.94568287
  9
$TDUPDATE
 40
2459751.94568287
  9
$TDINDWG
 40
0.0
  9
$TDUSRTIMER
 40
0.0
  9
$USRTIMER
 70
1
  9
$ANGBASE
 50
0.0
  9
$ANGDIR
 70
0
  9
$PDMODE
 70
0
  9
$PDSIZE
 40
0.0
  9
$PLINEWID
 40
0.0
  9
$SPLFRAME
 70
0
  9
$SPLINETYPE
 70
6
  9
$SPLINESEGS
 70
8
  9
$HANDSEED
  5
72
  9
$SURFTAB1
 70
6
  9
$SURFTAB2
 70
6
  9
$SURFTYPE
 70
6
  9
$SURFU
 70
6
  9
$SURFV
 70
6
  9
$UCSNAME
  2

  9
$UCSORG
 10
0.0
 20
0.0
 30
0.0
  9
$UCSXDIR
 10
1.0
 20
0.0
 30
0.0
  9
$UCSYDIR
 10
0.0
 20
1.0
 30
0.0
  9
$PUCSNAME
  2

  9
$PUCSORG
 10
0.0
 20
0.0
 30
0.0
  9
$PUCSXDIR
 10
1.0
 20
0.0
 30
0.0
  9
$PUCSYDIR
 10
0.0
 20
1.0
 30
0.0
  9
$USERI1
 70
0
  9
$USERI2
 70
0
  9
$USERI3
 70
0
  9
$USERI4
 70
0
  9
$USERI5
 70
0
  9
$USERR1
 40
0.0
  9
$USERR2
 40
0.0
  9
$USERR3
 40
0.0
  9
$USERR4
 40
0.0
  9
$USERR5
 40
0.0
  9
$WORLDVIEW
 70
1
  9
$SHADEDGE
 70
3
  9
$SHADEDIF
 70
70
  9
$TILEMODE
 70
1
  9
$MAXACTVP
 70
64
  9
$PLIMCHECK
 70
0
  9
$PEXTMIN
 10
1e+20
 20
1e+20
 30
1e+20
  9
$PEXTMAX
 10
-1e+20
 20
-1e+20
 30
-1e+20
  9
$PLIMMIN
 10
0.0
 20
0.0
  9
$PLIMMAX
 10
420.0
 20
297.0
  9
$UNITMODE
 70
0
  9
$VISRETAIN
 70
1
  9
$PLINEGEN
 70
0
  9
$PSLTSCALE
 70
1
  0
ENDSEC
  0
SECTION
  2
TABLES
  0
TABLE
  2
VPORT
 70
1
  0
VPORT
  5
23
  2
*Active
 70
0
 10
0.0
 20
0.0
 11
1.0
 21
1.0
 12
70.0
 22
50.0
 13
0.0
 23
0.0
 14
0.5
 24
0.5
 15
0.5
 25
0.5
 16
0.0
 26
0.0
 36
1.0
 17
0.0
 27
0.0
 37
0.0
 40
1.0
 41
1.34
 42
50.0
 43
0.0
 44
0.0
 50
0.0
 51
0.0
 71
0
 72
1000
 73
1
 74
3
 75
0
 76
0
 77
0
 78
0
  0
ENDTAB
  0
TABLE
  2
LTYPE
 70
3
  0
LTYPE
  5
24
  2
ByBlock
 70
0
  3

 72
65
 73
0
 40
0.0
  0
LTYPE
  5
25
  2
ByLayer
 70
0
  3

 72
65
 73
0
 40
0.0
  0
LTYPE
  5
26
  2
Continuous
 70
0
  3

 72
65
 73
0
 40
0.0
  0
ENDTAB
  0
TABLE
  2
LAYER
 70
2
  0
LAYER
  5
27
  2
0
 70
0
 62
7
  6
Continuous
  0
LAYER
  5
28
  2
Defpoints
 70
0
 62
7
  6
Continuous
  0
ENDTAB
  0
TABLE
  2
STYLE
 70
1
  0
STYLE
  5
29
  2
Standard
 70
0
 40
0.0
 41
1.0
 50
0.0
 71
0
 42
2.5
  3
txt
  4

  0
ENDTAB
  0
TABLE
  2
VIEW
 70
0
  0
ENDTAB
  0
TABLE
  2
UCS
 70
0
  0
ENDTAB
  0
TABLE
  2
APPID
 70
2
  0
APPID
  5
2A
  2
ACAD
 70
0
  0
APPID
  5
71
  2
HATCHBACKGROUNDCOLOR
 70
0
  0
ENDTAB
  0
TABLE
  2
DIMSTYLE
 70
1
  0
DIMSTYLE
105
2B
  2
Standard
 70
0
  3

  4

  5

  6

  7

 40
1.0
 41
2.5
 42
0.625
 43
3.75
 44
1.25
 45
0.0
 46
0.0
 47
0.0
 48
0.0
140
2.5
141
2.5
142
0.0
143
0.03937007874
144
1.0
145
0.0
146
1.0
147
0.625
 71
0
 72
0
 73
0
 74
0
 75
0
 76
0
 77
1
 78
8
170
0
171
3
172
1
173
0
174
0
175
0
176
0
177
0
178
0
  0
ENDTAB
  0
ENDSEC
  0
SECTION
  2
BLOCKS
  0
BLOCK
  5
18
  8
0
  2
$Model_Space
 70
0
 10
0.0
 20
0.0
 30
0.0
  3
$Model_Space
  1

  0
ENDBLK
  5
19
  8
0
  0
BLOCK
  5
1C
  8
0
  2
$Paper_Space
 70
0
 10
0.0
 20
0.0
 30
0.0
  3
$Paper_Space
  1

  0
ENDBLK
  5
1D
  8
0
  0
ENDSEC
  0
SECTION
  2
ENTITIES
  0
LINE
  5
2D
  8
0
 10
-1.7795808164999998
 20
-0.03266352532
 30
0.0
 11
-1.7509393405
 21
-0.07267249532000003
 31
0.0
  0
LINE
  5
2E
  8
0
 10
-1.7509393405
 20
-0.07267249532000003
 30
0.0
 11
-1.7412950975
 21
-0.08630649562000003
 31
0.0
  0
LINE
  5
2F
  8
0
 10
-1.7412950975
 20
-0.08630649562000003
 30
0.0
 11
-1.6742650785
 21
-0.11557715282000003
 31
0.0
  0
LINE
  5
30
  8
0
 10
-1.6742650785
 20
-0.11557715282000003
 30
0.0
 11
-1.6515810915000002
 21
-0.12552694492
 31
0.0
  0
LINE
  5
31
  8
0
 10
-1.6515810915000002
 20
-0.12552694492
 30
0.0
 11
-1.5509344184999998
 21
-0.14831232532
 31
0.0
  0
LINE
  5
32
  8
0
 10
-1.5509344184999998
 20
-0.14831232532
 30
0.0
 11
-1.5168012334999998
 21
-0.15584643322000002
 31
0.0
  0
LINE
  5
33
  8
0
 10
-1.5168012334999998
 20
-0.15584643322000002
 30
0.0
 11
-1.3767978594999999
 21
-0.17313863492000003
 31
0.0
  0
LINE
  5
34
  8
0
 10
-1.3767978594999999
 20
-0.17313863492000003
 30
0.0
 11
-1.3293273635
 21
-0.17862064242000003
 31
0.0
  0
LINE
  5
35
  8
0
 10
-1.3293273635
 20
-0.17862064242000003
 30
0.0
 11
-1.1443708185
 21
-0.18932358502000002
 31
0.0
  0
LINE
  5
36
  8
0
 10
-1.1443708185
 20
-0.18932358502000002
 30
0.0
 11
-1.0816895304999998
 21
-0.19244251932
 31
0.0
  0
LINE
  5
37
  8
0
 10
-1.0816895304999998
 20
-0.19244251932
 30
0.0
 11
-0.8507269614999999
 21
-0.19518548062000002
 31
0.0
  0
LINE
  5
38
  8
0
 10
-0.8507269614999999
 20
-0.19518548062000002
 30
0.0
 11
-0.7724841895000001
 21
-0.19559941792000002
 31
0.0
  0
LINE
  5
39
  8
0
 10
-0.7724841895000001
 20
-0.19559941792000002
 30
0.0
 11
-0.5025453884999997
 21
-0.19018190831999998
 31
0.0
  0
LINE
  5
3A
  8
0
 10
-0.5025453884999997
 20
-0.19018190831999998
 30
0.0
 11
-0.4111120305
 21
-0.18800603432000002
 31
0.0
  0
LINE
  5
3B
  8
0
 10
-0.4111120305
 20
-0.18800603432000002
 30
0.0
 11
-0.11858872649999963
 21
-0.17548237202
 31
0.0
  0
LINE
  5
3C
  8
0
 10
-0.11858872649999963
 20
-0.17548237202
 30
0.0
 11
-0.01950184850000003
 21
-0.17115698612000002
 31
0.0
  0
LINE
  5
3D
  8
0
 10
-0.01950184850000003
 20
-0.17115698612000002
 30
0.0
 11
0.07950263950000025
 21
-0.16522253192000003
 31
0.0
  0
LINE
  5
3E
  8
0
 10
0.07950263950000025
 20
-0.16522253192000003
 30
0.0
 11
0.37175917650000034
 21
-0.14748528632000002
 31
0.0
  0
LINE
  5
3F
  8
0
 10
0.37175917650000034
 20
-0.14748528632000002
 30
0.0
 11
0.4630010525000001
 21
-0.14112723772000002
 31
0.0
  0
LINE
  5
40
  8
0
 10
0.4630010525000001
 20
-0.14112723772000002
 30
0.0
 11
0.7323074585000002
 21
-0.12169276371999999
 31
0.0
  0
LINE
  5
41
  8
0
 10
0.7323074585000002
 20
-0.12169276371999999
 30
0.0
 11
0.8103394574999996
 21
-0.11580385212
 31
0.0
  0
LINE
  5
42
  8
0
 10
0.8103394574999996
 20
-0.11580385212
 30
0.0
 11
1.0406222764999997
 21
-0.09747050022000003
 31
0.0
  0
LINE
  5
43
  8
0
 10
1.0406222764999997
 20
-0.09747050022000003
 30
0.0
 11
1.1031983265000003
 21
-0.09250971032
 31
0.0
  0
LINE
  5
44
  8
0
 10
1.1031983265000003
 20
-0.09250971032
 30
0.0
 11
1.2878431435
 21
-0.07684399702
 31
0.0
  0
LINE
  5
45
  8
0
 10
1.2878431435
 20
-0.07684399702
 30
0.0
 11
1.3354835685
 21
-0.07293339541999999
 31
0.0
  0
LINE
  5
46
  8
0
 10
1.3354835685
 20
-0.07293339541999999
 30
0.0
 11
1.4760409335000002
 21
-0.060454738320000034
 31
0.0
  0
LINE
  5
47
  8
0
 10
1.4760409335000002
 20
-0.060454738320000034
 30
0.0
 11
1.5108945714999997
 21
-0.057515395120000035
 31
0.0
  0
LINE
  5
48
  8
0
 10
1.5108945714999997
 20
-0.057515395120000035
 30
0.0
 11
1.6137163504999998
 21
-0.04806899762
 31
0.0
  0
LINE
  5
49
  8
0
 10
1.6137163504999998
 20
-0.04806899762
 30
0.0
 11
1.6384792555
 21
-0.04593647272000001
 31
0.0
  0
LINE
  5
4A
  8
0
 10
1.6384792555
 20
-0.04593647272000001
 30
0.0
 11
1.7115270704999999
 21
-0.039050794619999996
 31
0.0
  0
LINE
  5
4B
  8
0
 10
1.7115270704999999
 20
-0.039050794619999996
 30
0.0
 11
1.7287570335
 21
-0.03754394931999999
 31
0.0
  0
LINE
  5
4C
  8
0
 10
1.7287570335
 20
-0.03754394931999999
 30
0.0
 11
1.7795808165000002
 21
-0.03266352532
 31
0.0
  0
LINE
  5
4D
  8
0
 10
1.7795808165000002
 20
-0.03266352532
 30
0.0
 11
1.7288472735000004
 21
-0.024708362119999994
 31
0.0
  0
LINE
  5
4E
  8
0
 10
1.7288472735000004
 20
-0.024708362119999994
 30
0.0
 11
1.7116611785
 21
-0.021706811820000005
 31
0.0
  0
LINE
  5
4F
  8
0
 10
1.7116611785
 20
-0.021706811820000005
 30
0.0
 11
1.6387049515000003
 21
-0.010578008319999999
 31
0.0
  0
LINE
  5
50
  8
0
 10
1.6387049515000003
 20
-0.010578008319999999
 30
0.0
 11
1.6139865694999997
 21
-0.006382797619999991
 31
0.0
  0
LINE
  5
51
  8
0
 10
1.6139865694999997
 20
-0.006382797619999991
 30
0.0
 11
1.5112209725000003
 21
0.008684414480000013
 31
0.0
  0
LINE
  5
52
  8
0
 10
1.5112209725000003
 20
0.008684414480000013
 30
0.0
 11
1.4763946455
 21
0.014356171380000005
 31
0.0
  0
LINE
  5
53
  8
0
 10
1.4763946455
 20
0.014356171380000005
 30
0.0
 11
1.3357854995
 21
0.03385341447999998
 31
0.0
  0
LINE
  5
54
  8
0
 10
1.3357854995
 20
0.03385341447999998
 30
0.0
 11
1.2881199025
 21
0.04117592037999998
 31
0.0
  0
LINE
  5
55
  8
0
 10
1.2881199025
 20
0.04117592037999998
 30
0.0
 11
1.1031999495000004
 21
0.06489447847999999
 31
0.0
  0
LINE
  5
56
  8
0
 10
1.1031999495000004
 20
0.06489447847999999
 30
0.0
 11
1.0404901495
 21
0.07376995077999998
 31
0.0
  0
LINE
  5
57
  8
0
 10
1.0404901495
 20
0.07376995077999998
 30
0.0
 11
0.8095655245
 21
0.10028793917999998
 31
0.0
  0
LINE
  5
58
  8
0
 10
0.8095655245
 20
0.10028793917999998
 30
0.0
 11
0.7312215274999998
 21
0.11015560017999998
 31
0.0
  0
LINE
  5
59
  8
0
 10
0.7312215274999998
 20
0.11015560017999998
 30
0.0
 11
0.46079479850000027
 21
0.13653875367999999
 31
0.0
  0
LINE
  5
5A
  8
0
 10
0.46079479850000027
 20
0.13653875367999999
 30
0.0
 11
0.3690083064999996
 21
0.14627472318
 31
0.0
  0
LINE
  5
5B
  8
0
 10
0.3690083064999996
 20
0.14627472318
 30
0.0
 11
0.07516209649999972
 21
0.16834469142999997
 31
0.0
  0
LINE
  5
5C
  8
0
 10
0.07516209649999972
 20
0.16834469142999997
 30
0.0
 11
-0.024615170499999728
 21
0.17638538673999998
 31
0.0
  0
LINE
  5
5D
  8
0
 10
-0.024615170499999728
 20
0.17638538673999998
 30
0.0
 11
-0.12460718849999974
 21
0.18115275455
 31
0.0
  0
LINE
  5
5E
  8
0
 10
-0.12460718849999974
 20
0.18115275455
 30
0.0
 11
-0.4189924475
 21
0.19458561229
 31
0.0
  0
LINE
  5
5F
  8
0
 10
-0.4189924475
 20
0.19458561229
 30
0.0
 11
-0.5113000835000001
 21
0.1946092491
 31
0.0
  0
LINE
  5
60
  8
0
 10
-0.5113000835000001
 20
0.1946092491
 30
0.0
 11
-0.7830373485000002
 21
0.19559941792
 31
0.0
  0
LINE
  5
61
  8
0
 10
-0.7830373485000002
 20
0.19559941792
 30
0.0
 11
-0.8618583045000001
 21
0.19096314099
 31
0.0
  0
LINE
  5
62
  8
0
 10
-0.8618583045000001
 20
0.19096314099
 30
0.0
 11
-1.0940102495000001
 21
0.17953445689999997
 31
0.0
  0
LINE
  5
63
  8
0
 10
-1.0940102495000001
 20
0.17953445689999997
 30
0.0
 11
-1.1568045265000002
 21
0.17148348362
 31
0.0
  0
LINE
  5
64
  8
0
 10
-1.1568045265000002
 20
0.17148348362
 30
0.0
 11
-1.3419935035
 21
0.15063490448
 31
0.0
  0
LINE
  5
65
  8
0
 10
-1.3419935035
 20
0.15063490448
 30
0.0
 11
-1.3890960875
 21
0.14052945238
 31
0.0
  0
LINE
  5
66
  8
0
 10
-1.3890960875
 20
0.14052945238
 30
0.0
 11
-1.5283426315000002
 21
0.11372641998
 31
0.0
  0
LINE
  5
67
  8
0
 10
-1.5283426315000002
 20
0.11372641998
 30
0.0
 11
-1.5616811755
 21
0.10242314857999998
 31
0.0
  0
LINE
  5
68
  8
0
 10
-1.5616811755
 20
0.10242314857999998
 30
0.0
 11
-1.6606932005
 21
0.07188426847999999
 31
0.0
  0
LINE
  5
69
  8
0
 10
-1.6606932005
 20
0.07188426847999999
 30
0.0
 11
-1.6821544805
 21
0.05926227437999998
 31
0.0
  0
LINE
  5
6A
  8
0
 10
-1.6821544805
 20
0.05926227437999998
 30
0.0
 11
-1.7466692865
 21
0.02449466307999998
 31
0.0
  0
LINE
  5
6B
  8
0
 10
-1.7466692865
 20
0.02449466307999998
 30
0.0
 11
-1.7545555844999998
 21
0.009710804379999993
 31
0.0
  0
LINE
  5
6C
  8
0
 10
-1.7545555844999998
 20
0.009710804379999993
 30
0.0
 11
-1.7795808164999998
 21
-0.03266352532
 31
0.0
  0
LINE
  5
6D
  8
0
 10
0.2
 20
0.2
 30
0.0
 11
0.2
 21
-0.2
 31
0.0
  0
LINE
  5
6E
  8
0
 10
0.2
 20
-0.2
 30
0.0
 11
-0.2
 21
-0.2
 31
0.0
  0
LINE
  5
6F
  8
0
 10
-0.2
 20
-0.2
 30
0.0
 11
-0.2
 21
0.2
 31
0.0
  0
LINE
  5
70
  8
0
 10
-0.2
 20
0.2
 30
0.0
 11
0.2
 21
0.2
 31
0.0
  0
ENDSEC
  0
EOF
