  0
SECTION
  2
HEADER
  9
$ACADVER
  1
AC1009
  9
$DWGCODEPAGE
  3
ANSI_1252
  9
$INSBASE
 10
0.0
 20
0.0
 30
0.0
  9
$EXTMIN
 10
-100
 20
-100
 30
-100
  9
$EXTMAX
 10
100
 20
100
 30
100
  9
$LIMMIN
 10
0.0
 20
0.0
  9
$LIMMAX
 10
420.0
 20
297.0
  9
$ORTHOMODE
 70
0
  9
$REGENMODE
 70
1
  9
$DRAGMODE
 70
2
  9
$FILLMODE
 70
1
  9
$QTEXTMODE
 70
0
  9
$MIRRTEXT
 70
1
  9
$OSMODE
 70
20583
  9
$LTSCALE
 40
1.0
  9
$ATTMODE
 70
1
  9
$TEXTSIZE
 40
2.5
  9
$TRACEWID
 40
1.0
  9
$TEXTSTYLE
  7
Standard
  9
$CLAYER
  8
0
  9
$CELTYPE
  6
ByLayer
  9
$CECOLOR
 62
256
  9
$DIMSCALE
 40
1.0
  9
$DIMASZ
 40
2.5
  9
$DIMEXO
 40
0.625
  9
$DIMDLI
 40
3.75
  9
$DIMRND
 40
0.0
  9
$DIMDLE
 40
0.0
  9
$DIMEXE
 40
1.25
  9
$DIMTP
 40
0.0
  9
$DIMTM
 40
0.0
  9
$DIMTXT
 40
2.5
  9
$DIMCEN
 40
2.5
  9
$DIMTSZ
 40
0.0
  9
$DIMTOL
 70
0
  9
$DIMLIM
 70
0
  9
$DIMTIH
 70
0
  9
$DIMTOH
 70
0
  9
$DIMSE1
 70
0
  9
$DIMSE2
 70
0
  9
$DIMTAD
 70
1
  9
$DIMZIN
 70
8
  9
$DIMBLK
  1

  9
$DIMASO
 70
1
  9
$DIMSHO
 70
1
  9
$DIMPOST
  1

  9
$DIMAPOST
  1

  9
$DIMALT
 70
0
  9
$DIMALTD
 70
3
  9
$DIMALTF
 40
0.03937007874
  9
$DIMLFAC
 40
1.0
  9
$DIMTOFL
 70
1
  9
$DIMTVP
 40
0.0
  9
$DIMTIX
 70
0
  9
$DIMSOXD
 70
0
  9
$DIMSAH
 70
0
  9
$DIMBLK1
  1

  9
$DIMBLK2
  1

  9
$DIMSTYLE
  2
ISO-25
  9
$DIMCLRD
 70
0
  9
$DIMCLRE
 70
0
  9
$DIMCLRT
 70
0
  9
$DIMTFAC
 40
1.0
  9
$DIMGAP
 40
0.625
  9
$COORDS
 70
1
  9
$ATTDIA
 70
0
  9
$ATTREQ
 70
1
  9
$HANDLING
 70
1
  9
$LUNITS
 70
2
  9
$LUPREC
 70
4
  9
$SKETCHINC
 40
1.0
  9
$FILLETRAD
 40
10.0
  9
$AUNITS
 70
0
  9
$AUPREC
 70
2
  9
$MENU
  1
.
  9
$ELEVATION
 40
0.0
  9
$PELEVATION
 40
0.0
  9
$THICKNESS
 40
0.0
  9
$LIMCHECK
 70
0
  9
$CHAMFERA
 40
0.0
  9
$CHAMFERB
 40
0.0
  9
$SKPOLY
 70
0
  9
$TDCREATE
 40
2459751.945671296
  9
$TDUPDATE
 40
2459751.945671296
  9
$TDINDWG
 40
0.0
  9
$TDUSRTIMER
 40
0.0
  9
$USRTIMER
 70
1
  9
$ANGBASE
 50
0.0
  9
$ANGDIR
 70
0
  9
$PDMODE
 70
0
  9
$PDSIZE
 40
0.0
  9
$PLINEWID
 40
0.0
  9
$SPLFRAME
 70
0
  9
$SPLINETYPE
 70
6
  9
$SPLINESEGS
 70
8
  9
$HANDSEED
  5
C2
  9
$SURFTAB1
 70
6
  9
$SURFTAB2
 70
6
  9
$SURFTYPE
 70
6
  9
$SURFU
 70
6
  9
$SURFV
 70
6
  9
$UCSNAME
  2

  9
$UCSORG
 10
0.0
 20
0.0
 30
0.0
  9
$UCSXDIR
 10
1.0
 20
0.0
 30
0.0
  9
$UCSYDIR
 10
0.0
 20
1.0
 30
0.0
  9
$PUCSNAME
  2

  9
$PUCSORG
 10
0.0
 20
0.0
 30
0.0
  9
$PUCSXDIR
 10
1.0
 20
0.0
 30
0.0
  9
$PUCSYDIR
 10
0.0
 20
1.0
 30
0.0
  9
$USERI1
 70
0
  9
$USERI2
 70
0
  9
$USERI3
 70
0
  9
$USERI4
 70
0
  9
$USERI5
 70
0
  9
$USERR1
 40
0.0
  9
$USERR2
 40
0.0
  9
$USERR3
 40
0.0
  9
$USERR4
 40
0.0
  9
$USERR5
 40
0.0
  9
$WORLDVIEW
 70
1
  9
$SHADEDGE
 70
3
  9
$SHADEDIF
 70
70
  9
$TILEMODE
 70
1
  9
$MAXACTVP
 70
64
  9
$PLIMCHECK
 70
0
  9
$PEXTMIN
 10
1e+20
 20
1e+20
 30
1e+20
  9
$PEXTMAX
 10
-1e+20
 20
-1e+20
 30
-1e+20
  9
$PLIMMIN
 10
0.0
 20
0.0
  9
$PLIMMAX
 10
420.0
 20
297.0
  9
$UNITMODE
 70
0
  9
$VISRETAIN
 70
1
  9
$PLINEGEN
 70
0
  9
$PSLTSCALE
 70
1
  0
ENDSEC
  0
SECTION
  2
TABLES
  0
TABLE
  2
VPORT
 70
1
  0
VPORT
  5
23
  2
*Active
 70
0
 10
0.0
 20
0.0
 11
1.0
 21
1.0
 12
70.0
 22
50.0
 13
0.0
 23
0.0
 14
0.5
 24
0.5
 15
0.5
 25
0.5
 16
0.0
 26
0.0
 36
1.0
 17
0.0
 27
0.0
 37
0.0
 40
1.0
 41
1.34
 42
50.0
 43
0.0
 44
0.0
 50
0.0
 51
0.0
 71
0
 72
1000
 73
1
 74
3
 75
0
 76
0
 77
0
 78
0
  0
ENDTAB
  0
TABLE
  2
LTYPE
 70
3
  0
LTYPE
  5
24
  2
ByBlock
 70
0
  3

 72
65
 73
0
 40
0.0
  0
LTYPE
  5
25
  2
ByLayer
 70
0
  3

 72
65
 73
0
 40
0.0
  0
LTYPE
  5
26
  2
Continuous
 70
0
  3

 72
65
 73
0
 40
0.0
  0
ENDTAB
  0
TABLE
  2
LAYER
 70
2
  0
LAYER
  5
27
  2
0
 70
0
 62
7
  6
Continuous
  0
LAYER
  5
28
  2
Defpoints
 70
0
 62
7
  6
Continuous
  0
ENDTAB
  0
TABLE
  2
STYLE
 70
1
  0
STYLE
  5
29
  2
Standard
 70
0
 40
0.0
 41
1.0
 50
0.0
 71
0
 42
2.5
  3
txt
  4

  0
ENDTAB
  0
TABLE
  2
VIEW
 70
0
  0
ENDTAB
  0
TABLE
  2
UCS
 70
0
  0
ENDTAB
  0
TABLE
  2
APPID
 70
2
  0
APPID
  5
2A
  2
ACAD
 70
0
  0
APPID
  5
C1
  2
HATCHBACKGROUNDCOLOR
 70
0
  0
ENDTAB
  0
TABLE
  2
DIMSTYLE
 70
1
  0
DIMSTYLE
105
2B
  2
Standard
 70
0
  3

  4

  5

  6

  7

 40
1.0
 41
2.5
 42
0.625
 43
3.75
 44
1.25
 45
0.0
 46
0.0
 47
0.0
 48
0.0
140
2.5
141
2.5
142
0.0
143
0.03937007874
144
1.0
145
0.0
146
1.0
147
0.625
 71
0
 72
0
 73
0
 74
0
 75
0
 76
0
 77
1
 78
8
170
0
171
3
172
1
173
0
174
0
175
0
176
0
177
0
178
0
  0
ENDTAB
  0
ENDSEC
  0
SECTION
  2
BLOCKS
  0
BLOCK
  5
18
  8
0
  2
$Model_Space
 70
0
 10
0.0
 20
0.0
 30
0.0
  3
$Model_Space
  1

  0
ENDBLK
  5
19
  8
0
  0
BLOCK
  5
1C
  8
0
  2
$Paper_Space
 70
0
 10
0.0
 20
0.0
 30
0.0
  3
$Paper_Space
  1

  0
ENDBLK
  5
1D
  8
0
  0
ENDSEC
  0
SECTION
  2
ENTITIES
  0
LINE
  5
2D
  8
0
 10
-1.9309514765000007
 20
-0.006752235100000031
 30
0.0
 11
-1.7454386385000005
 21
-0.057209205600000035
 31
0.0
  0
LINE
  5
2E
  8
0
 10
-1.7454386385000005
 20
-0.057209205600000035
 30
0.0
 11
-1.6975817895000005
 21
-0.06633280970000002
 31
0.0
  0
LINE
  5
2F
  8
0
 10
-1.6975817895000005
 20
-0.06633280970000002
 30
0.0
 11
-1.5394433475000007
 21
-0.09648089840000004
 31
0.0
  0
LINE
  5
30
  8
0
 10
-1.5394433475000007
 20
-0.09648089840000004
 30
0.0
 11
-1.4158919855000005
 21
-0.10465813150000003
 31
0.0
  0
LINE
  5
31
  8
0
 10
-1.4158919855000005
 20
-0.10465813150000003
 30
0.0
 11
-1.4131373355000005
 21
-0.10484044770000003
 31
0.0
  0
LINE
  5
32
  8
0
 10
-1.4131373355000005
 20
-0.10484044770000003
 30
0.0
 11
-1.4083580855000006
 21
-0.10515676180000003
 31
0.0
  0
LINE
  5
33
  8
0
 10
-1.4083580855000006
 20
-0.10515676180000003
 30
0.0
 11
-1.4509828315000006
 21
-0.13022559680000004
 31
0.0
  0
LINE
  5
34
  8
0
 10
-1.4509828315000006
 20
-0.13022559680000004
 30
0.0
 11
-1.4656748735000007
 21
-0.16058800490000003
 31
0.0
  0
LINE
  5
35
  8
0
 10
-1.4656748735000007
 20
-0.16058800490000003
 30
0.0
 11
-1.4705480015000005
 21
-0.16972329660000002
 31
0.0
  0
LINE
  5
36
  8
0
 10
-1.4705480015000005
 20
-0.16972329660000002
 30
0.0
 11
-1.4827739365000006
 21
-0.19264234940000002
 31
0.0
  0
LINE
  5
37
  8
0
 10
-1.4827739365000006
 20
-0.19264234940000002
 30
0.0
 11
-1.4712311215000007
 21
-0.20896034880000003
 31
0.0
  0
LINE
  5
38
  8
0
 10
-1.4712311215000007
 20
-0.20896034880000003
 30
0.0
 11
-1.4618633015000007
 21
-0.22220357220000003
 31
0.0
  0
LINE
  5
39
  8
0
 10
-1.4618633015000007
 20
-0.22220357220000003
 30
0.0
 11
-1.4426769415000007
 21
-0.24962627860000003
 31
0.0
  0
LINE
  5
3A
  8
0
 10
-1.4426769415000007
 20
-0.24962627860000003
 30
0.0
 11
-1.4217314075000007
 21
-0.25881353980000005
 31
0.0
  0
LINE
  5
3B
  8
0
 10
-1.4217314075000007
 20
-0.25881353980000005
 30
0.0
 11
-1.3934935505000006
 21
-0.27119940550000005
 31
0.0
  0
LINE
  5
3C
  8
0
 10
-1.3934935505000006
 20
-0.27119940550000005
 30
0.0
 11
-1.3809406715000003
 21
-0.27672787560000006
 31
0.0
  0
LINE
  5
3D
  8
0
 10
-1.3809406715000003
 20
-0.27672787560000006
 30
0.0
 11
-1.3771155505000006
 21
-0.2784125142
 31
0.0
  0
LINE
  5
3E
  8
0
 10
-1.3771155505000006
 20
-0.2784125142
 30
0.0
 11
-1.3728444145000003
 21
-0.28029358490000006
 31
0.0
  0
LINE
  5
3F
  8
0
 10
-1.3728444145000003
 20
-0.28029358490000006
 30
0.0
 11
-1.3481564325000006
 21
-0.29116653060000003
 31
0.0
  0
LINE
  5
40
  8
0
 10
-1.3481564325000006
 20
-0.29116653060000003
 30
0.0
 11
-1.3257060405000005
 21
-0.29612193340000004
 31
0.0
  0
LINE
  5
41
  8
0
 10
-1.3257060405000005
 20
-0.29612193340000004
 30
0.0
 11
-1.2741489025000003
 21
-0.30750197420000003
 31
0.0
  0
LINE
  5
42
  8
0
 10
-1.2741489025000003
 20
-0.30750197420000003
 30
0.0
 11
-1.2057952675000005
 21
-0.32223527150000003
 31
0.0
  0
LINE
  5
43
  8
0
 10
-1.2057952675000005
 20
-0.32223527150000003
 30
0.0
 11
-1.1836532725000004
 21
-0.32479228250000003
 31
0.0
  0
LINE
  5
44
  8
0
 10
-1.1836532725000004
 20
-0.32479228250000003
 30
0.0
 11
-1.1028697955000006
 21
-0.33412135360000006
 31
0.0
  0
LINE
  5
45
  8
0
 10
-1.1028697955000006
 20
-0.33412135360000006
 30
0.0
 11
-1.0977995745000007
 21
-0.33466960570000004
 31
0.0
  0
LINE
  5
46
  8
0
 10
-1.0977995745000007
 20
-0.33466960570000004
 30
0.0
 11
-1.0208416015000004
 21
-0.34299120930000004
 31
0.0
  0
LINE
  5
47
  8
0
 10
-1.0208416015000004
 20
-0.34299120930000004
 30
0.0
 11
-1.0078258915000005
 21
-0.34439862140000005
 31
0.0
  0
LINE
  5
48
  8
0
 10
-1.0078258915000005
 20
-0.34439862140000005
 30
0.0
 11
-0.9851016485000006
 21
-0.34552934840000005
 31
0.0
  0
LINE
  5
49
  8
0
 10
-0.9851016485000006
 20
-0.34552934840000005
 30
0.0
 11
-0.8719204015000006
 21
-0.35116109100000004
 31
0.0
  0
LINE
  5
4A
  8
0
 10
-0.8719204015000006
 20
-0.35116109100000004
 30
0.0
 11
-0.7992507765000005
 21
-0.35423713370000004
 31
0.0
  0
LINE
  5
4B
  8
0
 10
-0.7992507765000005
 20
-0.35423713370000004
 30
0.0
 11
-0.7464793725000005
 21
-0.3564709019
 31
0.0
  0
LINE
  5
4C
  8
0
 10
-0.7464793725000005
 20
-0.3564709019
 30
0.0
 11
-0.7206904555000007
 21
-0.3566073362
 31
0.0
  0
LINE
  5
4D
  8
0
 10
-0.7206904555000007
 20
-0.3566073362
 30
0.0
 11
-0.5768334895000007
 21
-0.35736840020000005
 31
0.0
  0
LINE
  5
4E
  8
0
 10
-0.5768334895000007
 20
-0.35736840020000005
 30
0.0
 11
-0.5476003595000005
 21
-0.35734653050000004
 31
0.0
  0
LINE
  5
4F
  8
0
 10
-0.5476003595000005
 20
-0.35734653050000004
 30
0.0
 11
-0.4366992245000003
 21
-0.3572635639
 31
0.0
  0
LINE
  5
50
  8
0
 10
-0.4366992245000003
 20
-0.3572635639
 30
0.0
 11
-0.4203047215000004
 21
-0.357251299
 31
0.0
  0
LINE
  5
51
  8
0
 10
-0.4203047215000004
 20
-0.357251299
 30
0.0
 11
-0.3867838745000003
 21
-0.35645359070000004
 31
0.0
  0
LINE
  5
52
  8
0
 10
-0.3867838745000003
 20
-0.35645359070000004
 30
0.0
 11
-0.22205902550000012
 21
-0.35253357150000003
 31
0.0
  0
LINE
  5
53
  8
0
 10
-0.22205902550000012
 20
-0.35253357150000003
 30
0.0
 11
-0.15518841750000067
 21
-0.3507135859
 31
0.0
  0
LINE
  5
54
  8
0
 10
-0.15518841750000067
 20
-0.3507135859
 30
0.0
 11
-0.0391662325000004
 21
-0.347555865
 31
0.0
  0
LINE
  5
55
  8
0
 10
-0.0391662325000004
 20
-0.347555865
 30
0.0
 11
-0.008703498500000073
 21
-0.3462260918
 31
0.0
  0
LINE
  5
56
  8
0
 10
-0.008703498500000073
 20
-0.3462260918
 30
0.0
 11
0.007660084499999442
 21
-0.3455117811
 31
0.0
  0
LINE
  5
57
  8
0
 10
0.007660084499999442
 20
-0.3455117811
 30
0.0
 11
0.17567381349999955
 21
-0.33817756860000003
 31
0.0
  0
LINE
  5
58
  8
0
 10
0.17567381349999955
 20
-0.33817756860000003
 30
0.0
 11
0.2628969064999991
 21
-0.3343028785
 31
0.0
  0
LINE
  5
59
  8
0
 10
0.2628969064999991
 20
-0.3343028785
 30
0.0
 11
0.37388265449999913
 21
-0.32937258580000006
 31
0.0
  0
LINE
  5
5A
  8
0
 10
0.37388265449999913
 20
-0.32937258580000006
 30
0.0
 11
0.4849818044999994
 21
-0.32278950630000003
 31
0.0
  0
LINE
  5
5B
  8
0
 10
0.4849818044999994
 20
-0.32278950630000003
 30
0.0
 11
0.5554097384999999
 21
-0.31861636290000006
 31
0.0
  0
LINE
  5
5C
  8
0
 10
0.5554097384999999
 20
-0.31861636290000006
 30
0.0
 11
0.5719413154999993
 21
-0.31763679930000005
 31
0.0
  0
LINE
  5
5D
  8
0
 10
0.5719413154999993
 20
-0.31763679930000005
 30
0.0
 11
0.7123531024999998
 21
-0.3092203392
 31
0.0
  0
LINE
  5
5E
  8
0
 10
0.7123531024999998
 20
-0.3092203392
 30
0.0
 11
0.7866027254999999
 21
-0.30476972300000005
 31
0.0
  0
LINE
  5
5F
  8
0
 10
0.7866027254999999
 20
-0.30476972300000005
 30
0.0
 11
0.7979331924999995
 21
-0.30400595170000005
 31
0.0
  0
LINE
  5
60
  8
0
 10
0.7979331924999995
 20
-0.30400595170000005
 30
0.0
 11
0.8134205454999996
 21
-0.30296197040000006
 31
0.0
  0
LINE
  5
61
  8
0
 10
0.8134205454999996
 20
-0.30296197040000006
 30
0.0
 11
0.9455812764999996
 21
-0.29405319620000003
 31
0.0
  0
LINE
  5
62
  8
0
 10
0.9455812764999996
 20
-0.29405319620000003
 30
0.0
 11
0.9554718604999994
 21
-0.2933864854
 31
0.0
  0
LINE
  5
63
  8
0
 10
0.9554718604999994
 20
-0.2933864854
 30
0.0
 11
0.9691541844999998
 21
-0.2924641787
 31
0.0
  0
LINE
  5
64
  8
0
 10
0.9691541844999998
 20
-0.2924641787
 30
0.0
 11
1.0955120574999997
 21
-0.2836591264
 31
0.0
  0
LINE
  5
65
  8
0
 10
1.0955120574999997
 20
-0.2836591264
 30
0.0
 11
1.1669847094999994
 21
-0.27867866560000004
 31
0.0
  0
LINE
  5
66
  8
0
 10
1.1669847094999994
 20
-0.27867866560000004
 30
0.0
 11
1.2390652544999998
 21
-0.27351267520000005
 31
0.0
  0
LINE
  5
67
  8
0
 10
1.2390652544999998
 20
-0.27351267520000005
 30
0.0
 11
1.2418755374999995
 21
-0.27331126310000003
 31
0.0
  0
LINE
  5
68
  8
0
 10
1.2418755374999995
 20
-0.27331126310000003
 30
0.0
 11
1.3114237794999992
 21
-0.26832676210000006
 31
0.0
  0
LINE
  5
69
  8
0
 10
1.3114237794999992
 20
-0.26832676210000006
 30
0.0
 11
1.3231275924999997
 21
-0.26748795350000004
 31
0.0
  0
LINE
  5
6A
  8
0
 10
1.3231275924999997
 20
-0.26748795350000004
 30
0.0
 11
1.4402211864999996
 21
-0.258651145
 31
0.0
  0
LINE
  5
6B
  8
0
 10
1.4402211864999996
 20
-0.258651145
 30
0.0
 11
1.4923164774999993
 21
-0.2547196225
 31
0.0
  0
LINE
  5
6C
  8
0
 10
1.4923164774999993
 20
-0.2547196225
 30
0.0
 11
1.5276198564999994
 21
-0.25210094990000004
 31
0.0
  0
LINE
  5
6D
  8
0
 10
1.5276198564999994
 20
-0.25210094990000004
 30
0.0
 11
1.5320057244999994
 21
-0.25177562270000003
 31
0.0
  0
LINE
  5
6E
  8
0
 10
1.5320057244999994
 20
-0.25177562270000003
 30
0.0
 11
1.6175476434999991
 21
-0.24543044300000005
 31
0.0
  0
LINE
  5
6F
  8
0
 10
1.6175476434999991
 20
-0.24543044300000005
 30
0.0
 11
1.7209804844999992
 21
-0.23723068290000004
 31
0.0
  0
LINE
  5
70
  8
0
 10
1.7209804844999992
 20
-0.23723068290000004
 30
0.0
 11
1.7532249584999997
 21
-0.23467446430000005
 31
0.0
  0
LINE
  5
71
  8
0
 10
1.7532249584999997
 20
-0.23467446430000005
 30
0.0
 11
1.8017299624999996
 21
-0.23099031790000002
 31
0.0
  0
LINE
  5
72
  8
0
 10
1.8017299624999996
 20
-0.23099031790000002
 30
0.0
 11
1.8125700934999998
 21
-0.23016696730000002
 31
0.0
  0
LINE
  5
73
  8
0
 10
1.8125700934999998
 20
-0.23016696730000002
 30
0.0
 11
1.8485762634999992
 21
-0.22743215670000005
 31
0.0
  0
LINE
  5
74
  8
0
 10
1.8485762634999992
 20
-0.22743215670000005
 30
0.0
 11
1.9329805424999993
 21
-0.22050376520000003
 31
0.0
  0
LINE
  5
75
  8
0
 10
1.9329805424999993
 20
-0.22050376520000003
 30
0.0
 11
1.9518701754999999
 21
-0.21895319490000004
 31
0.0
  0
LINE
  5
76
  8
0
 10
1.9518701754999999
 20
-0.21895319490000004
 30
0.0
 11
2.021635024499999
 21
-0.2135512659
 31
0.0
  0
LINE
  5
77
  8
0
 10
2.021635024499999
 20
-0.2135512659
 30
0.0
 11
2.086360441499999
 21
-0.20809271910000005
 31
0.0
  0
LINE
  5
78
  8
0
 10
2.086360441499999
 20
-0.20809271910000005
 30
0.0
 11
2.0972046394999992
 21
-0.2071781856
 31
0.0
  0
LINE
  5
79
  8
0
 10
2.0972046394999992
 20
-0.2071781856
 30
0.0
 11
2.1193785425
 21
-0.20543400320000005
 31
0.0
  0
LINE
  5
7A
  8
0
 10
2.1193785425
 20
-0.20543400320000005
 30
0.0
 11
2.1362375604999997
 21
-0.20410788560000004
 31
0.0
  0
LINE
  5
7B
  8
0
 10
2.1362375604999997
 20
-0.20410788560000004
 30
0.0
 11
2.1467746334999998
 21
-0.20327904740000002
 31
0.0
  0
LINE
  5
7C
  8
0
 10
2.1467746334999998
 20
-0.20327904740000002
 30
0.0
 11
2.1942201904999994
 21
-0.1991931443
 31
0.0
  0
LINE
  5
7D
  8
0
 10
2.1942201904999994
 20
-0.1991931443
 30
0.0
 11
2.2004655344999993
 21
-0.19865530950000004
 31
0.0
  0
LINE
  5
7E
  8
0
 10
2.2004655344999993
 20
-0.19865530950000004
 30
0.0
 11
2.234957874499999
 21
-0.19590948960000004
 31
0.0
  0
LINE
  5
7F
  8
0
 10
2.234957874499999
 20
-0.19590948960000004
 30
0.0
 11
2.2686761884999997
 21
-0.19296065660000006
 31
0.0
  0
LINE
  5
80
  8
0
 10
2.2686761884999997
 20
-0.19296065660000006
 30
0.0
 11
2.2723158595
 21
-0.19264234940000002
 31
0.0
  0
LINE
  5
81
  8
0
 10
2.2723158595
 20
-0.19264234940000002
 30
0.0
 11
2.2685813395
 21
-0.19199011570000002
 31
0.0
  0
LINE
  5
82
  8
0
 10
2.2685813395
 20
-0.19199011570000002
 30
0.0
 11
2.2350529894999998
 21
-0.1861343917
 31
0.0
  0
LINE
  5
83
  8
0
 10
2.2350529894999998
 20
-0.1861343917
 30
0.0
 11
2.2061912464999995
 21
-0.18062135190000006
 31
0.0
  0
LINE
  5
84
  8
0
 10
2.2061912464999995
 20
-0.18062135190000006
 30
0.0
 11
2.2006728014999997
 21
-0.17956724350000003
 31
0.0
  0
LINE
  5
85
  8
0
 10
2.2006728014999997
 20
-0.17956724350000003
 30
0.0
 11
2.1924135865
 21
-0.17816548720000003
 31
0.0
  0
LINE
  5
86
  8
0
 10
2.1924135865
 20
-0.17816548720000003
 30
0.0
 11
2.147078434499999
 21
-0.17047119280000006
 31
0.0
  0
LINE
  5
87
  8
0
 10
2.147078434499999
 20
-0.17047119280000006
 30
0.0
 11
2.1238016904999997
 21
-0.16615409390000002
 31
0.0
  0
LINE
  5
88
  8
0
 10
2.1238016904999997
 20
-0.16615409390000002
 30
0.0
 11
2.0976222664999993
 21
-0.16129863980000003
 31
0.0
  0
LINE
  5
89
  8
0
 10
2.0976222664999993
 20
-0.16129863980000003
 30
0.0
 11
2.0793946294999994
 21
-0.15833011760000004
 31
0.0
  0
LINE
  5
8A
  8
0
 10
2.0793946294999994
 20
-0.15833011760000004
 30
0.0
 11
2.0221118674999996
 21
-0.14900114340000004
 31
0.0
  0
LINE
  5
8B
  8
0
 10
2.0221118674999996
 20
-0.14900114340000004
 30
0.0
 11
1.9882818784999996
 21
-0.14298822000000005
 31
0.0
  0
LINE
  5
8C
  8
0
 10
1.9882818784999996
 20
-0.14298822000000005
 30
0.0
 11
1.9524168414999998
 21
-0.13661358840000004
 31
0.0
  0
LINE
  5
8D
  8
0
 10
1.9524168414999998
 20
-0.13661358840000004
 30
0.0
 11
1.9119676554999998
 21
-0.13039968520000003
 31
0.0
  0
LINE
  5
8E
  8
0
 10
1.9119676554999998
 20
-0.13039968520000003
 30
0.0
 11
1.8490683514999997
 21
-0.12073694000000004
 31
0.0
  0
LINE
  5
8F
  8
0
 10
1.8490683514999997
 20
-0.12073694000000004
 30
0.0
 11
1.8221327994999994
 21
-0.11623003940000004
 31
0.0
  0
LINE
  5
90
  8
0
 10
1.8221327994999994
 20
-0.11623003940000004
 30
0.0
 11
1.786182727499999
 21
-0.11021481480000003
 31
0.0
  0
LINE
  5
91
  8
0
 10
1.786182727499999
 20
-0.11021481480000003
 30
0.0
 11
1.7536526944999995
 21
-0.10477183660000003
 31
0.0
  0
LINE
  5
92
  8
0
 10
1.7536526944999995
 20
-0.10477183660000003
 30
0.0
 11
1.6641486594999995
 21
-0.09210411040000002
 31
0.0
  0
LINE
  5
93
  8
0
 10
1.6641486594999995
 20
-0.09210411040000002
 30
0.0
 11
1.6176853824999995
 21
-0.08552804840000003
 31
0.0
  0
LINE
  5
94
  8
0
 10
1.6176853824999995
 20
-0.08552804840000003
 30
0.0
 11
1.5984565534999993
 21
-0.08257307060000005
 31
0.0
  0
LINE
  5
95
  8
0
 10
1.5984565534999993
 20
-0.08257307060000005
 30
0.0
 11
1.5674791874999991
 21
-0.07781264380000003
 31
0.0
  0
LINE
  5
96
  8
0
 10
1.5674791874999991
 20
-0.07781264380000003
 30
0.0
 11
1.5585298374999992
 21
-0.07643735820000003
 31
0.0
  0
LINE
  5
97
  8
0
 10
1.5585298374999992
 20
-0.07643735820000003
 30
0.0
 11
1.4921122734999992
 21
-0.06623068210000002
 31
0.0
  0
LINE
  5
98
  8
0
 10
1.4921122734999992
 20
-0.06623068210000002
 30
0.0
 11
1.3660042325
 21
-0.05034699660000003
 31
0.0
  0
LINE
  5
99
  8
0
 10
1.3660042325
 20
-0.05034699660000003
 30
0.0
 11
1.3293715144999991
 21
-0.045732996100000034
 31
0.0
  0
LINE
  5
9A
  8
0
 10
1.3293715144999991
 20
-0.045732996100000034
 30
0.0
 11
1.322246914499999
 21
-0.04483563140000005
 31
0.0
  0
LINE
  5
9B
  8
0
 10
1.322246914499999
 20
-0.04483563140000005
 30
0.0
 11
1.3010721784999992
 21
-0.04195333350000002
 31
0.0
  0
LINE
  5
9C
  8
0
 10
1.3010721784999992
 20
-0.04195333350000002
 30
0.0
 11
1.2835094614999996
 21
-0.03956270240000004
 31
0.0
  0
LINE
  5
9D
  8
0
 10
1.2835094614999996
 20
-0.03956270240000004
 30
0.0
 11
1.3026733314999994
 21
-0.031206281600000024
 31
0.0
  0
LINE
  5
9E
  8
0
 10
1.3026733314999994
 20
-0.031206281600000024
 30
0.0
 11
1.3227994474999996
 21
-0.02064381380000002
 31
0.0
  0
LINE
  5
9F
  8
0
 10
1.3227994474999996
 20
-0.02064381380000002
 30
0.0
 11
1.3467205354999994
 21
-0.008089692300000034
 31
0.0
  0
LINE
  5
A0
  8
0
 10
1.3467205354999994
 20
-0.008089692300000034
 30
0.0
 11
1.5666981714999997
 21
0.10735765059999952
 31
0.0
  0
LINE
  5
A1
  8
0
 10
1.5666981714999997
 20
0.10735765059999952
 30
0.0
 11
1.3026733314999994
 21
0.24592158279999995
 31
0.0
  0
LINE
  5
A2
  8
0
 10
1.3026733314999994
 20
0.24592158279999995
 30
0.0
 11
1.1529783494999997
 21
0.3111961996
 31
0.0
  0
LINE
  5
A3
  8
0
 10
1.1529783494999997
 20
0.3111961996
 30
0.0
 11
1.0561359344999994
 21
0.3258563766
 31
0.0
  0
LINE
  5
A4
  8
0
 10
1.0561359344999994
 20
0.3258563766
 30
0.0
 11
1.0395683184999998
 21
0.32766315949999997
 31
0.0
  0
LINE
  5
A5
  8
0
 10
1.0395683184999998
 20
0.32766315949999997
 30
0.0
 11
0.8415273914999997
 21
0.34926053209999997
 31
0.0
  0
LINE
  5
A6
  8
0
 10
0.8415273914999997
 20
0.34926053209999997
 30
0.0
 11
0.8087264844999993
 21
0.3507557121
 31
0.0
  0
LINE
  5
A7
  8
0
 10
0.8087264844999993
 20
0.3507557121
 30
0.0
 11
0.6636588974999995
 21
0.3573684002
 31
0.0
  0
LINE
  5
A8
  8
0
 10
0.6636588974999995
 20
0.3573684002
 30
0.0
 11
0.5646753184999991
 21
0.3572024934
 31
0.0
  0
LINE
  5
A9
  8
0
 10
0.5646753184999991
 20
0.3572024934
 30
0.0
 11
0.20236716449999914
 21
0.3565952272
 31
0.0
  0
LINE
  5
AA
  8
0
 10
0.20236716449999914
 20
0.3565952272
 30
0.0
 11
0.11097479949999922
 21
0.3559612526
 31
0.0
  0
LINE
  5
AB
  8
0
 10
0.11097479949999922
 20
0.3559612526
 30
0.0
 11
-0.23443120350000068
 21
0.3535652249
 31
0.0
  0
LINE
  5
AC
  8
0
 10
-0.23443120350000068
 20
0.3535652249
 30
0.0
 11
-0.31415508050000085
 21
0.3523381873
 31
0.0
  0
LINE
  5
AD
  8
0
 10
-0.31415508050000085
 20
0.3523381873
 30
0.0
 11
-0.6471735855000005
 21
0.3472126685
 31
0.0
  0
LINE
  5
AE
  8
0
 10
-0.6471735855000005
 20
0.3472126685
 30
0.0
 11
-0.7102662405000006
 21
0.34547114589999994
 31
0.0
  0
LINE
  5
AF
  8
0
 10
-0.7102662405000006
 20
0.34547114589999994
 30
0.0
 11
-1.0362973645000007
 21
0.3364718327999999
 31
0.0
  0
LINE
  5
B0
  8
0
 10
-1.0362973645000007
 20
0.3364718327999999
 30
0.0
 11
-1.0773764315000003
 21
0.3346538728
 31
0.0
  0
LINE
  5
B1
  8
0
 10
-1.0773764315000003
 20
0.3346538728
 30
0.0
 11
-1.4022399215000005
 21
0.32027699309999996
 31
0.0
  0
LINE
  5
B2
  8
0
 10
-1.4022399215000005
 20
0.32027699309999996
 30
0.0
 11
-1.4158919855000005
 21
0.31937343269999996
 31
0.0
  0
LINE
  5
B3
  8
0
 10
-1.4158919855000005
 20
0.31937343269999996
 30
0.0
 11
-1.5394433475000007
 21
0.3111961996
 31
0.0
  0
LINE
  5
B4
  8
0
 10
-1.5394433475000007
 20
0.3111961996
 30
0.0
 11
-1.6975817895000005
 21
0.2810481108999999
 31
0.0
  0
LINE
  5
B5
  8
0
 10
-1.6975817895000005
 20
0.2810481108999999
 30
0.0
 11
-1.7454386385000005
 21
0.27192450679999997
 31
0.0
  0
LINE
  5
B6
  8
0
 10
-1.7454386385000005
 20
0.27192450679999997
 30
0.0
 11
-1.9309514765000007
 21
0.22146753629999996
 31
0.0
  0
LINE
  5
B7
  8
0
 10
-1.9309514765000007
 20
0.22146753629999996
 30
0.0
 11
-2.0663308965000007
 21
0.18464617379999998
 31
0.0
  0
LINE
  5
B8
  8
0
 10
-2.0663308965000007
 20
0.18464617379999998
 30
0.0
 11
-2.1423900605000004
 21
0.15610768086999996
 31
0.0
  0
LINE
  5
B9
  8
0
 10
-2.1423900605000004
 20
0.15610768086999996
 30
0.0
 11
-2.2723158595000004
 21
0.10735765059999974
 31
0.0
  0
LINE
  5
BA
  8
0
 10
-2.2723158595000004
 20
0.10735765059999974
 30
0.0
 11
-2.1423900605000004
 21
0.058607620329999964
 31
0.0
  0
LINE
  5
BB
  8
0
 10
-2.1423900605000004
 20
0.058607620329999964
 30
0.0
 11
-2.0663308965000007
 21
0.030069127399999965
 31
0.0
  0
LINE
  5
BC
  8
0
 10
-2.0663308965000007
 20
0.030069127399999965
 30
0.0
 11
-1.9309514765000007
 21
-0.006752235100000031
 31
0.0
  0
LINE
  5
BD
  8
0
 10
0.2
 20
0.2
 30
0.0
 11
0.2
 21
-0.2
 31
0.0
  0
LINE
  5
BE
  8
0
 10
0.2
 20
-0.2
 30
0.0
 11
-0.2
 21
-0.2
 31
0.0
  0
LINE
  5
BF
  8
0
 10
-0.2
 20
-0.2
 30
0.0
 11
-0.2
 21
0.2
 31
0.0
  0
LINE
  5
C0
  8
0
 10
-0.2
 20
0.2
 30
0.0
 11
0.2
 21
0.2
 31
0.0
  0
ENDSEC
  0
EOF
