  0
SECTION
  2
HEADER
  9
$ACADVER
  1
AC1024
  9
$ACADMAINTVER
 70
6
  9
$DWGCODEPAGE
  3
ANSI_1252
  9
$LASTSAVEDBY
  1
ezdxf
  9
$INSBASE
 10
0.0
 20
0.0
 30
0.0
  9
$EXTMIN
 10
-100
 20
-100
 30
-100
  9
$EXTMAX
 10
100
 20
100
 30
100
  9
$LIMMIN
 10
0.0
 20
0.0
  9
$LIMMAX
 10
420.0
 20
297.0
  9
$ORTHOMODE
 70
0
  9
$REGENMODE
 70
1
  9
$FILLMODE
 70
1
  9
$QTEXTMODE
 70
0
  9
$MIRRTEXT
 70
1
  9
$LTSCALE
 40
1.0
  9
$ATTMODE
 70
1
  9
$TEXTSIZE
 40
2.5
  9
$TRACEWID
 40
1.0
  9
$TEXTSTYLE
  7
Standard
  9
$CLAYER
  8
0
  9
$CELTYPE
  6
ByLayer
  9
$CECOLOR
 62
256
  9
$CELTSCALE
 40
1.0
  9
$DISPSILH
 70
0
  9
$DIMSCALE
 40
1.0
  9
$DIMASZ
 40
2.5
  9
$DIMEXO
 40
0.625
  9
$DIMDLI
 40
3.75
  9
$DIMRND
 40
0.0
  9
$DIMDLE
 40
0.0
  9
$DIMEXE
 40
1.25
  9
$DIMTP
 40
0.0
  9
$DIMTM
 40
0.0
  9
$DIMTXT
 40
2.5
  9
$DIMCEN
 40
2.5
  9
$DIMTSZ
 40
0.0
  9
$DIMTOL
 70
0
  9
$DIMLIM
 70
0
  9
$DIMTIH
 70
0
  9
$DIMTOH
 70
0
  9
$DIMSE1
 70
0
  9
$DIMSE2
 70
0
  9
$DIMTAD
 70
1
  9
$DIMZIN
 70
8
  9
$DIMBLK
  1

  9
$DIMASO
 70
1
  9
$DIMSHO
 70
1
  9
$DIMPOST
  1

  9
$DIMAPOST
  1

  9
$DIMALT
 70
0
  9
$DIMALTD
 70
3
  9
$DIMALTF
 40
0.03937007874
  9
$DIMLFAC
 40
1.0
  9
$DIMTOFL
 70
1
  9
$DIMTVP
 40
0.0
  9
$DIMTIX
 70
0
  9
$DIMSOXD
 70
0
  9
$DIMSAH
 70
0
  9
$DIMBLK1
  1

  9
$DIMBLK2
  1

  9
$DIMSTYLE
  2
ISO-25
  9
$DIMCLRD
 70
0
  9
$DIMCLRE
 70
0
  9
$DIMCLRT
 70
0
  9
$DIMTFAC
 40
1.0
  9
$DIMGAP
 40
0.625
  9
$DIMJUST
 70
0
  9
$DIMSD1
 70
0
  9
$DIMSD2
 70
0
  9
$DIMTOLJ
 70
0
  9
$DIMTZIN
 70
8
  9
$DIMALTZ
 70
0
  9
$DIMALTTZ
 70
0
  9
$DIMUPT
 70
0
  9
$DIMDEC
 70
2
  9
$DIMTDEC
 70
2
  9
$DIMALTU
 70
2
  9
$DIMALTTD
 70
3
  9
$DIMTXSTY
  7
Standard
  9
$DIMAUNIT
 70
0
  9
$DIMADEC
 70
0
  9
$DIMALTRND
 40
0.0
  9
$DIMAZIN
 70
0
  9
$DIMDSEP
 70
44
  9
$DIMATFIT
 70
3
  9
$DIMFRAC
 70
0
  9
$DIMLDRBLK
  1

  9
$DIMLUNIT
 70
2
  9
$DIMLWD
 70
-2
  9
$DIMLWE
 70
-2
  9
$DIMTMOVE
 70
0
  9
$DIMFXL
 40
1.0
  9
$DIMFXLON
 70
0
  9
$DIMJOGANG
 40
0.785398163397
  9
$DIMTFILL
 70
0
  9
$DIMTFILLCLR
 70
0
  9
$DIMARCSYM
 70
0
  9
$DIMLTYPE
  6

  9
$DIMLTEX1
  6

  9
$DIMLTEX2
  6

  9
$DIMTXTDIRECTION
 70
0
  9
$LUNITS
 70
2
  9
$LUPREC
 70
4
  9
$SKETCHINC
 40
1.0
  9
$FILLETRAD
 40
10.0
  9
$AUNITS
 70
0
  9
$AUPREC
 70
2
  9
$MENU
  1
.
  9
$ELEVATION
 40
0.0
  9
$PELEVATION
 40
0.0
  9
$THICKNESS
 40
0.0
  9
$LIMCHECK
 70
0
  9
$CHAMFERA
 40
0.0
  9
$CHAMFERB
 40
0.0
  9
$CHAMFERC
 40
0.0
  9
$CHAMFERD
 40
0.0
  9
$SKPOLY
 70
0
  9
$TDCREATE
 40
2459744.44125
  9
$TDUCREATE
 40
2458532.153996898
  9
$TDUPDATE
 40
2459744.44125
  9
$TDUUPDATE
 40
2458532.1544311
  9
$TDINDWG
 40
0.0
  9
$TDUSRTIMER
 40
0.0
  9
$USRTIMER
 70
1
  9
$ANGBASE
 50
0.0
  9
$ANGDIR
 70
0
  9
$PDMODE
 70
0
  9
$PDSIZE
 40
0.0
  9
$PLINEWID
 40
0.0
  9
$SPLFRAME
 70
0
  9
$SPLINETYPE
 70
6
  9
$SPLINESEGS
 70
8
  9
$HANDSEED
  5
136
  9
$SURFTAB1
 70
6
  9
$SURFTAB2
 70
6
  9
$SURFTYPE
 70
6
  9
$SURFU
 70
6
  9
$SURFV
 70
6
  9
$UCSBASE
  2

  9
$UCSNAME
  2

  9
$UCSORG
 10
0.0
 20
0.0
 30
0.0
  9
$UCSXDIR
 10
1.0
 20
0.0
 30
0.0
  9
$UCSYDIR
 10
0.0
 20
1.0
 30
0.0
  9
$UCSORTHOREF
  2

  9
$UCSORTHOVIEW
 70
0
  9
$UCSORGTOP
 10
0.0
 20
0.0
 30
0.0
  9
$UCSORGBOTTOM
 10
0.0
 20
0.0
 30
0.0
  9
$UCSORGLEFT
 10
0.0
 20
0.0
 30
0.0
  9
$UCSORGRIGHT
 10
0.0
 20
0.0
 30
0.0
  9
$UCSORGFRONT
 10
0.0
 20
0.0
 30
0.0
  9
$UCSORGBACK
 10
0.0
 20
0.0
 30
0.0
  9
$PUCSBASE
  2

  9
$PUCSNAME
  2

  9
$PUCSORG
 10
0.0
 20
0.0
 30
0.0
  9
$PUCSXDIR
 10
1.0
 20
0.0
 30
0.0
  9
$PUCSYDIR
 10
0.0
 20
1.0
 30
0.0
  9
$PUCSORTHOREF
  2

  9
$PUCSORTHOVIEW
 70
0
  9
$PUCSORGTOP
 10
0.0
 20
0.0
 30
0.0
  9
$PUCSORGBOTTOM
 10
0.0
 20
0.0
 30
0.0
  9
$PUCSORGLEFT
 10
0.0
 20
0.0
 30
0.0
  9
$PUCSORGRIGHT
 10
0.0
 20
0.0
 30
0.0
  9
$PUCSORGFRONT
 10
0.0
 20
0.0
 30
0.0
  9
$PUCSORGBACK
 10
0.0
 20
0.0
 30
0.0
  9
$USERI1
 70
0
  9
$USERI2
 70
0
  9
$USERI3
 70
0
  9
$USERI4
 70
0
  9
$USERI5
 70
0
  9
$USERR1
 40
0.0
  9
$USERR2
 40
0.0
  9
$USERR3
 40
0.0
  9
$USERR4
 40
0.0
  9
$USERR5
 40
0.0
  9
$WORLDVIEW
 70
1
  9
$SHADEDGE
 70
3
  9
$SHADEDIF
 70
70
  9
$TILEMODE
 70
1
  9
$MAXACTVP
 70
64
  9
$PINSBASE
 10
0.0
 20
0.0
 30
0.0
  9
$PLIMCHECK
 70
0
  9
$PEXTMIN
 10
1e+20
 20
1e+20
 30
1e+20
  9
$PEXTMAX
 10
-1e+20
 20
-1e+20
 30
-1e+20
  9
$PLIMMIN
 10
0.0
 20
0.0
  9
$PLIMMAX
 10
420.0
 20
297.0
  9
$UNITMODE
 70
0
  9
$VISRETAIN
 70
1
  9
$PLINEGEN
 70
0
  9
$PSLTSCALE
 70
1
  9
$TREEDEPTH
 70
3020
  9
$CMLSTYLE
  2
Standard
  9
$CMLJUST
 70
0
  9
$CMLSCALE
 40
20.0
  9
$PROXYGRAPHICS
 70
1
  9
$MEASUREMENT
 70
1
  9
$CELWEIGHT
370
-1
  9
$ENDCAPS
280
0
  9
$JOINSTYLE
280
0
  9
$LWDISPLAY
290
0
  9
$INSUNITS
 70
6
  9
$HYPERLINKBASE
  1

  9
$STYLESHEET
  1

  9
$XEDIT
290
1
  9
$CEPSNTYPE
380
0
  9
$PSTYLEMODE
290
1
  9
$FINGERPRINTGUID
  2
C513275C-EAF3-11EC-AD39-088FC3043410
  9
$VERSIONGUID
  2
C514AE0C-EAF3-11EC-974F-088FC3043410
  9
$EXTNAMES
290
1
  9
$PSVPSCALE
 40
0.0
  9
$OLESTARTUP
290
0
  9
$SORTENTS
280
127
  9
$INDEXCTL
280
0
  9
$HIDETEXT
280
1
  9
$XCLIPFRAME
280
2
  9
$HALOGAP
280
0
  9
$OBSCOLOR
 70
257
  9
$OBSLTYPE
280
0
  9
$INTERSECTIONDISPLAY
280
0
  9
$INTERSECTIONCOLOR
 70
257
  9
$DIMASSOC
280
2
  9
$PROJECTNAME
  1

  9
$CAMERADISPLAY
290
0
  9
$LENSLENGTH
 40
50.0
  9
$CAMERAHEIGHT
 40
0.0
  9
$STEPSPERSEC
 40
24.0
  9
$STEPSIZE
 40
100.0
  9
$3DDWFPREC
 40
2.0
  9
$PSOLWIDTH
 40
0.005
  9
$PSOLHEIGHT
 40
0.08
  9
$LOFTANG1
 40
1.570796326795
  9
$LOFTANG2
 40
1.570796326795
  9
$LOFTMAG1
 40
0.0
  9
$LOFTMAG2
 40
0.0
  9
$LOFTPARAM
 70
7
  9
$LOFTNORMALS
280
1
  9
$LATITUDE
 40
37.795
  9
$LONGITUDE
 40
-122.394
  9
$NORTHDIRECTION
 40
0.0
  9
$TIMEZONE
 70
-8000
  9
$LIGHTGLYPHDISPLAY
280
1
  9
$TILEMODELIGHTSYNCH
280
1
  9
$CMATERIAL
347
20
  9
$SOLIDHIST
280
0
  9
$SHOWHIST
280
1
  9
$DWFFRAME
280
2
  9
$DGNFRAME
280
2
  9
$REALWORLDSCALE
290
1
  9
$INTERFERECOLOR
 62
256
  9
$CSHADOW
280
0
  9
$SHADOWPLANELOCATION
 40
0.0
  0
ENDSEC
  0
SECTION
  2
CLASSES
  0
CLASS
  1
ACDBDICTIONARYWDFLT
  2
AcDbDictionaryWithDefault
  3
ObjectDBX Classes
 90
0
 91
0
280
0
281
0
  0
CLASS
  1
SUN
  2
AcDbSun
  3
SCENEOE
 90
1153
 91
0
280
0
281
0
  0
CLASS
  1
VISUALSTYLE
  2
AcDbVisualStyle
  3
ObjectDBX Classes
 90
4095
 91
0
280
0
281
0
  0
CLASS
  1
MATERIAL
  2
AcDbMaterial
  3
ObjectDBX Classes
 90
1153
 91
0
280
0
281
0
  0
CLASS
  1
SCALE
  2
AcDbScale
  3
ObjectDBX Classes
 90
1153
 91
0
280
0
281
0
  0
CLASS
  1
TABLESTYLE
  2
AcDbTableStyle
  3
ObjectDBX Classes
 90
4095
 91
0
280
0
281
0
  0
CLASS
  1
MLEADERSTYLE
  2
AcDbMLeaderStyle
  3
ACDB_MLEADERSTYLE_CLASS
 90
4095
 91
0
280
0
281
0
  0
CLASS
  1
DICTIONARYVAR
  2
AcDbDictionaryVar
  3
ObjectDBX Classes
 90
0
 91
0
280
0
281
0
  0
CLASS
  1
CELLSTYLEMAP
  2
AcDbCellStyleMap
  3
ObjectDBX Classes
 90
1152
 91
0
280
0
281
0
  0
CLASS
  1
MENTALRAYRENDERSETTINGS
  2
AcDbMentalRayRenderSettings
  3
SCENEOE
 90
1024
 91
0
280
0
281
0
  0
CLASS
  1
ACDBDETAILVIEWSTYLE
  2
AcDbDetailViewStyle
  3
ObjectDBX Classes
 90
1025
 91
0
280
0
281
0
  0
CLASS
  1
ACDBSECTIONVIEWSTYLE
  2
AcDbSectionViewStyle
  3
ObjectDBX Classes
 90
1025
 91
0
280
0
281
0
  0
CLASS
  1
RASTERVARIABLES
  2
AcDbRasterVariables
  3
ISM
 90
0
 91
0
280
0
281
0
  0
CLASS
  1
ACDBPLACEHOLDER
  2
AcDbPlaceHolder
  3
ObjectDBX Classes
 90
0
 91
0
280
0
281
0
  0
CLASS
  1
LAYOUT
  2
AcDbLayout
  3
ObjectDBX Classes
 90
0
 91
0
280
0
281
0
  0
ENDSEC
  0
SECTION
  2
TABLES
  0
TABLE
  2
VPORT
  5
8
330
0
100
AcDbSymbolTable
 70
1
  0
VPORT
  5
23
330
8
100
AcDbSymbolTableRecord
100
AcDbViewportTableRecord
  2
*Active
 70
0
 10
0.0
 20
0.0
 11
1.0
 21
1.0
 12
70.0
 22
50.0
 13
0.0
 23
0.0
 14
0.5
 24
0.5
 15
0.5
 25
0.5
 16
0.0
 26
0.0
 36
1.0
 17
0.0
 27
0.0
 37
0.0
 40
1.0
 41
1.34
 42
50.0
 43
0.0
 44
0.0
 50
0.0
 51
0.0
 71
0
 72
1000
 73
1
 74
3
 75
0
 76
0
 77
0
 78
0
281
0
 65
0
146
0.0
  0
ENDTAB
  0
TABLE
  2
LTYPE
  5
2
330
0
100
AcDbSymbolTable
 70
3
  0
LTYPE
  5
24
330
2
100
AcDbSymbolTableRecord
100
AcDbLinetypeTableRecord
  2
ByBlock
 70
0
  3

 72
65
 73
0
 40
0.0
  0
LTYPE
  5
25
330
2
100
AcDbSymbolTableRecord
100
AcDbLinetypeTableRecord
  2
ByLayer
 70
0
  3

 72
65
 73
0
 40
0.0
  0
LTYPE
  5
26
330
2
100
AcDbSymbolTableRecord
100
AcDbLinetypeTableRecord
  2
Continuous
 70
0
  3

 72
65
 73
0
 40
0.0
  0
ENDTAB
  0
TABLE
  2
LAYER
  5
1
330
0
100
AcDbSymbolTable
 70
2
  0
LAYER
  5
27
330
1
100
AcDbSymbolTableRecord
100
AcDbLayerTableRecord
  2
0
 70
0
 62
7
  6
Continuous
370
-3
390
13
347
21
  0
LAYER
  5
28
330
1
100
AcDbSymbolTableRecord
100
AcDbLayerTableRecord
  2
Defpoints
 70
0
 62
7
  6
Continuous
290
0
370
-3
390
13
347
21
  0
ENDTAB
  0
TABLE
  2
STYLE
  5
5
330
0
100
AcDbSymbolTable
 70
1
  0
STYLE
  5
29
330
5
100
AcDbSymbolTableRecord
100
AcDbTextStyleTableRecord
  2
Standard
 70
0
 40
0.0
 41
1.0
 50
0.0
 71
0
 42
2.5
  3
txt
  4

  0
ENDTAB
  0
TABLE
  2
VIEW
  5
7
330
0
100
AcDbSymbolTable
 70
0
  0
ENDTAB
  0
TABLE
  2
UCS
  5
6
330
0
100
AcDbSymbolTable
 70
0
  0
ENDTAB
  0
TABLE
  2
APPID
  5
3
330
0
100
AcDbSymbolTable
 70
2
  0
APPID
  5
2A
330
3
100
AcDbSymbolTableRecord
100
AcDbRegAppTableRecord
  2
ACAD
 70
0
  0
APPID
  5
135
330
3
100
AcDbSymbolTableRecord
100
AcDbRegAppTableRecord
  2
HATCHBACKGROUNDCOLOR
 70
0
  0
ENDTAB
  0
TABLE
  2
DIMSTYLE
  5
4
330
0
100
AcDbSymbolTable
 70
1
100
AcDbDimStyleTable
  0
DIMSTYLE
105
2B
330
4
100
AcDbSymbolTableRecord
100
AcDbDimStyleTableRecord
  2
Standard
 70
0
 40
1.0
 41
2.5
 42
0.625
 43
3.75
 44
1.25
 45
0.0
 46
0.0
 47
0.0
 48
0.0
 49
2.5
140
2.5
141
2.5
142
0.0
143
0.03937007874
144
1.0
145
0.0
146
1.0
147
0.625
148
0.0
 69
0
 70
0
 71
0
 72
0
 73
0
 74
0
 75
0
 76
0
 77
1
 78
8
 79
0
170
0
171
3
172
1
173
0
174
0
175
0
176
0
177
0
178
0
179
0
271
0
272
2
273
2
274
3
275
0
276
0
277
2
278
44
279
0
280
0
281
0
282
0
283
0
284
8
285
0
286
0
288
0
289
3
290
0
371
-2
372
-2
  0
ENDTAB
  0
TABLE
  2
BLOCK_RECORD
  5
9
330
0
100
AcDbSymbolTable
 70
2
  0
BLOCK_RECORD
  5
17
330
9
100
AcDbSymbolTableRecord
100
AcDbBlockTableRecord
  2
*Model_Space
340
1A
 70
0
280
1
281
0
  0
BLOCK_RECORD
  5
1B
330
9
100
AcDbSymbolTableRecord
100
AcDbBlockTableRecord
  2
*Paper_Space
340
1E
 70
0
280
1
281
0
  0
ENDTAB
  0
ENDSEC
  0
SECTION
  2
BLOCKS
  0
BLOCK
  5
18
330
17
100
AcDbEntity
  8
0
100
AcDbBlockBegin
  2
*Model_Space
 70
0
 10
0.0
 20
0.0
 30
0.0
  3
*Model_Space
  1

  0
ENDBLK
  5
19
330
17
100
AcDbEntity
  8
0
100
AcDbBlockEnd
  0
BLOCK
  5
1C
330
1B
100
AcDbEntity
  8
0
100
AcDbBlockBegin
  2
*Paper_Space
 70
0
 10
0.0
 20
0.0
 30
0.0
  3
*Paper_Space
  1

  0
ENDBLK
  5
1D
330
1B
100
AcDbEntity
  8
0
100
AcDbBlockEnd
  0
ENDSEC
  0
SECTION
  2
ENTITIES
  0
LINE
  5
2D
330
17
100
AcDbEntity
  8
0
100
AcDbLine
 10
-2.8223454325
 20
-0.0018675144000000754
 30
-3.1409309648730463
 11
-2.8346381635
 21
-0.019659961880000076
 31
-3.1346571487661543
  0
LINE
  5
2E
330
17
100
AcDbEntity
  8
0
100
AcDbLine
 10
-2.8346381635
 20
-0.019659961880000076
 30
-3.1346571487661543
 11
-2.8358306085000002
 21
-0.02356890881000008
 31
-3.133281731882812
  0
LINE
  5
2F
330
17
100
AcDbEntity
  8
0
100
AcDbLine
 10
-2.8358306085000002
 20
-0.02356890881000008
 30
-3.133281731882812
 11
-2.8463551655000003
 21
-0.043163050930000085
 31
-3.1264294921666758
  0
LINE
  5
30
330
17
100
AcDbEntity
  8
0
100
AcDbLine
 10
-2.8463551655000003
 20
-0.043163050930000085
 30
-3.1264294921666758
 11
-2.8478204185000005
 21
-0.050527014480000076
 31
-3.1238521692041545
  0
LINE
  5
31
330
17
100
AcDbEntity
  8
0
100
AcDbLine
 10
-2.8478204185000005
 20
-0.050527014480000076
 30
-3.1238521692041545
 11
-2.8540231855
 21
-0.06629232441000008
 31
-3.118369154045527
  0
LINE
  5
32
330
17
100
AcDbEntity
  8
0
100
AcDbLine
 10
-2.8540231855
 20
-0.06629232441000008
 30
-3.118369154045527
 11
-2.8550750815000003
 21
-0.07575601875000008
 31
-3.115065068291785
  0
LINE
  5
33
330
17
100
AcDbEntity
  8
0
100
AcDbLine
 10
-2.8550750815000003
 20
-0.07575601875000008
 30
-3.115065068291785
 11
-2.8584431625000004
 21
-0.08948515235000008
 31
-3.1102973185080094
  0
LINE
  5
34
330
17
100
AcDbEntity
  8
0
100
AcDbLine
 10
-2.8584431625000004
 20
-0.08948515235000008
 30
-3.1102973185080094
 11
-2.8588010305000005
 21
-0.09961828568000008
 31
-3.1067605707457187
  0
LINE
  5
35
330
17
100
AcDbEntity
  8
0
100
AcDbLine
 10
-2.8588010305000005
 20
-0.09961828568000008
 30
-3.1067605707457187
 11
-2.8588177085
 21
-0.10009052060000008
 31
-3.1065957896787024
  0
LINE
  5
36
330
17
100
AcDbEntity
  8
0
100
AcDbLine
 10
-2.8588177085
 20
-0.10009052060000008
 30
-3.1065957896787024
 11
-2.8597710415
 21
-0.11292642970200008
 31
-3.1021252320165975
  0
LINE
  5
37
330
17
100
AcDbEntity
  8
0
100
AcDbLine
 10
-2.8597710415
 20
-0.11292642970200008
 30
-3.1021252320165975
 11
-2.8587733115000002
 21
-0.12738171461900008
 31
-3.097063934972394
  0
LINE
  5
38
330
17
100
AcDbEntity
  8
0
100
AcDbLine
 10
-2.8587733115000002
 20
-0.12738171461900008
 30
-3.097063934972394
 11
-2.8583960395000005
 21
-0.1379300182200001
 31
-3.093375713108636
  0
LINE
  5
39
330
17
100
AcDbEntity
  8
0
100
AcDbLine
 10
-2.8583960395000005
 20
-0.1379300182200001
 30
-3.093375713108636
 11
-2.8558297785000004
 21
-0.15324603148000007
 31
-3.0879832974980306
  0
LINE
  5
3A
330
17
100
AcDbEntity
  8
0
100
AcDbLine
 10
-2.8558297785000004
 20
-0.15324603148000007
 30
-3.0879832974980306
 11
-2.8547588855
 21
-0.1628467861700001
 31
-3.0846104349584644
  0
LINE
  5
3B
330
17
100
AcDbEntity
  8
0
100
AcDbLine
 10
-2.8547588855
 20
-0.1628467861700001
 30
-3.0846104349584644
 11
-2.8500246075
 21
-0.18041894267000008
 31
-3.078372668052403
  0
LINE
  5
3C
330
17
100
AcDbEntity
  8
0
100
AcDbLine
 10
-2.8500246075
 20
-0.18041894267000008
 30
-3.078372668052403
 11
-2.8484564465
 21
-0.1885113428900001
 31
-3.0755088455894692
  0
LINE
  5
3D
330
17
100
AcDbEntity
  8
0
100
AcDbLine
 10
-2.8484564465
 20
-0.1885113428900001
 30
-3.0755088455894692
 11
-2.8402927855
 21
-0.2102375249700001
 31
-3.0677077267404567
  0
LINE
  5
3E
330
17
100
AcDbEntity
  8
0
100
AcDbLine
 10
-2.8402927855
 20
-0.2102375249700001
 30
-3.0677077267404567
 11
-2.8386833175
 21
-0.21590023034000008
 31
-3.065682329221568
  0
LINE
  5
3F
330
17
100
AcDbEntity
  8
0
100
AcDbLine
 10
-2.8386833175
 20
-0.21590023034000008
 30
-3.065682329221568
 11
-2.8247073265000004
 21
-0.24478851780000008
 31
-3.0551488364166475
  0
LINE
  5
40
330
17
100
AcDbEntity
  8
0
100
AcDbLine
 10
-2.8247073265000004
 20
-0.24478851780000008
 30
-3.0551488364166475
 11
-2.8240998085
 21
-0.24636970040000009
 31
-3.054574646144645
  0
LINE
  5
41
330
17
100
AcDbEntity
  8
0
100
AcDbLine
 10
-2.8240998085
 20
-0.24636970040000009
 30
-3.054574646144645
 11
-2.8190020005000003
 21
-0.2549675356000001
 31
-3.051392052235196
  0
LINE
  5
42
330
17
100
AcDbEntity
  8
0
100
AcDbLine
 10
-2.8190020005000003
 20
-0.2549675356000001
 30
-3.051392052235196
 11
-2.8074181965000005
 21
-0.28318825700000005
 31
-3.0410612847311036
  0
LINE
  5
43
330
17
100
AcDbEntity
  8
0
100
AcDbLine
 10
-2.8074181965000005
 20
-0.28318825700000005
 30
-3.0410612847311036
 11
-2.7994464105000003
 21
-0.3011929485000001
 31
-3.0344147540012663
  0
LINE
  5
44
330
17
100
AcDbEntity
  8
0
100
AcDbLine
 10
-2.7994464105000003
 20
-0.3011929485000001
 30
-3.0344147540012663
 11
-2.7860420085
 21
-0.3305901913000001
 31
-3.0234854639855415
  0
LINE
  5
45
330
17
100
AcDbEntity
  8
0
100
AcDbLine
 10
-2.7860420085
 20
-0.3305901913000001
 30
-3.0234854639855415
 11
-2.7585962665
 21
-0.3874919815000001
 31
-3.002038633531066
  0
LINE
  5
46
330
17
100
AcDbEntity
  8
0
100
AcDbLine
 10
-2.7585962665
 20
-0.3874919815000001
 30
-3.002038633531066
 11
-2.7410931005000005
 21
-0.4015722829000001
 31
-2.9961266682809065
  0
LINE
  5
47
330
17
100
AcDbEntity
  8
0
100
AcDbLine
 10
-2.7410931005000005
 20
-0.4015722829000001
 30
-2.9961266682809065
 11
-2.7004414215000003
 21
-0.43340245950000006
 31
-2.982456548462348
  0
LINE
  5
48
330
17
100
AcDbEntity
  8
0
100
AcDbLine
 10
-2.7004414215000003
 20
-0.43340245950000006
 30
-2.982456548462348
 11
-2.6702965825000002
 21
-0.45739594940000006
 31
-2.9719486896748064
  0
LINE
  5
49
330
17
100
AcDbEntity
  8
0
100
AcDbLine
 10
-2.6702965825000002
 20
-0.45739594940000006
 30
-2.9719486896748064
 11
-2.6151723885000004
 21
-0.5000478943000001
 31
-2.9526628373008625
  0
LINE
  5
4A
330
17
100
AcDbEntity
  8
0
100
AcDbLine
 10
-2.6151723885000004
 20
-0.5000478943000001
 30
-2.9526628373008625
 11
-2.5287442605
 21
-0.5651490941000001
 31
-2.92171590010325
  0
LINE
  5
4B
330
17
100
AcDbEntity
  8
0
100
AcDbLine
 10
-2.5287442605
 20
-0.5651490941000001
 30
-2.92171590010325
 11
-2.5133974625000004
 21
-0.5764380063000001
 31
-2.916145362875254
  0
LINE
  5
4C
330
17
100
AcDbEntity
  8
0
100
AcDbLine
 10
-2.5133974625000004
 20
-0.5764380063000001
 30
-2.916145362875254
 11
-2.4720399625000002
 21
-0.6045744978
 31
-2.9017357727921396
  0
LINE
  5
4D
330
17
100
AcDbEntity
  8
0
100
AcDbLine
 10
-2.4720399625000002
 20
-0.6045744978
 30
-2.9017357727921396
 11
-2.4059536535
 21
-0.6481914903000001
 31
-2.8784294495071268
  0
LINE
  5
4E
330
17
100
AcDbEntity
  8
0
100
AcDbLine
 10
-2.4059536535
 20
-0.6481914903000001
 30
-2.8784294495071268
 11
-2.3901606315
 21
-0.6567612036000001
 31
-2.8734337619161168
  0
LINE
  5
4F
330
17
100
AcDbEntity
  8
0
100
AcDbLine
 10
-2.3901606315
 20
-0.6567612036000001
 30
-2.8734337619161168
 11
-2.3039538725
 21
-0.7030060551
 31
-2.8454358652443483
  0
LINE
  5
50
330
17
100
AcDbEntity
  8
0
100
AcDbLine
 10
-2.3039538725
 20
-0.7030060551
 30
-2.8454358652443483
 11
-2.2775051285000005
 21
-0.7110880756000001
 31
-2.8389607243457196
  0
LINE
  5
51
330
17
100
AcDbEntity
  8
0
100
AcDbLine
 10
-2.2775051285000005
 20
-0.7110880756000001
 30
-2.8389607243457196
 11
-2.2185962665000005
 21
-0.7290970523000001
 31
-2.824081152133831
  0
LINE
  5
52
330
17
100
AcDbEntity
  8
0
100
AcDbLine
 10
-2.2185962665000005
 20
-0.7290970523000001
 30
-2.824081152133831
 11
-2.1760977405000004
 21
-0.7326900986000001
 31
-2.8168159955290166
  0
LINE
  5
53
330
17
100
AcDbEntity
  8
0
100
AcDbLine
 10
-2.1760977405000004
 20
-0.7326900986000001
 30
-2.8168159955290166
 11
-2.1087049915000002
 21
-0.739423228
 31
-2.804336428076283
  0
LINE
  5
54
330
17
100
AcDbEntity
  8
0
100
AcDbLine
 10
-2.1087049915000002
 20
-0.739423228
 30
-2.804336428076283
 11
-2.0581002995000004
 21
-0.7423336272000001
 31
-2.795427476580312
  0
LINE
  5
55
330
17
100
AcDbEntity
  8
0
100
AcDbLine
 10
-2.0581002995000004
 20
-0.7423336272000001
 30
-2.795427476580312
 11
-1.9988422425000003
 21
-0.7472574114000001
 31
-2.783834867985572
  0
LINE
  5
56
330
17
100
AcDbEntity
  8
0
100
AcDbLine
 10
-1.9988422425000003
 20
-0.7472574114000001
 30
-2.783834867985572
 11
-1.9398394825000003
 21
-0.7492226476000001
 31
-2.7730137326887077
  0
LINE
  5
57
330
17
100
AcDbEntity
  8
0
100
AcDbLine
 10
-1.9398394825000003
 20
-0.7492226476000001
 30
-2.7730137326887077
 11
-1.8888585285000001
 21
-0.7522180905000001
 31
-2.7626048629715436
  0
LINE
  5
58
330
17
100
AcDbEntity
  8
0
100
AcDbLine
 10
-1.8888585285000001
 20
-0.7522180905000001
 30
-2.7626048629715436
 11
-1.8243373084
 21
-0.7531298058000001
 31
-2.750080416316383
  0
LINE
  5
59
330
17
100
AcDbEntity
  8
0
100
AcDbLine
 10
-1.8243373084
 20
-0.7531298058000001
 30
-2.750080416316383
 11
-1.7785962665000001
 21
-0.7544919828000001
 31
-2.7403943542005833
  0
LINE
  5
5A
330
17
100
AcDbEntity
  8
0
100
AcDbLine
 10
-1.7785962665000001
 20
-0.7544919828000001
 30
-2.7403943542005833
 11
-1.7023609319000004
 21
-0.7538022562000001
 31
-2.7247439117439956
  0
LINE
  5
5B
330
17
100
AcDbEntity
  8
0
100
AcDbLine
 10
-1.7023609319000004
 20
-0.7538022562000001
 30
-2.7247439117439956
 11
-1.6693401143000002
 21
-0.7535998382000001
 31
-2.71754538251707
  0
LINE
  5
5C
330
17
100
AcDbEntity
  8
0
100
AcDbLine
 10
-1.6693401143000002
 20
-0.7535998382000001
 30
-2.71754538251707
 11
-1.5736910790000003
 21
-0.7505917586
 31
-2.6965442456879667
  0
LINE
  5
5D
330
17
100
AcDbEntity
  8
0
100
AcDbLine
 10
-1.5736910790000003
 20
-0.7505917586
 30
-2.6965442456879667
 11
-1.5585507230000002
 21
-0.7497155654000001
 31
-2.6932328087184247
  0
LINE
  5
5E
330
17
100
AcDbEntity
  8
0
100
AcDbLine
 10
-1.5585507230000002
 20
-0.7497155654000001
 30
-2.6932328087184247
 11
-1.5536279824
 21
-0.7494265391000001
 31
-2.6921466859323075
  0
LINE
  5
5F
330
17
100
AcDbEntity
  8
0
100
AcDbLine
 10
-1.5536279824
 20
-0.7494265391000001
 30
-2.6921466859323075
 11
-1.4402911523000004
 21
-0.7426398143
 31
-2.6655289787195056
  0
LINE
  5
60
330
17
100
AcDbEntity
  8
0
100
AcDbLine
 10
-1.4402911523000004
 20
-0.7426398143
 30
-2.6655289787195056
 11
-1.4035991250000002
 21
-0.7416508546000001
 31
-2.655490106267058
  0
LINE
  5
61
330
17
100
AcDbEntity
  8
0
100
AcDbLine
 10
-1.4035991250000002
 20
-0.7416508546000001
 30
-2.655490106267058
 11
-1.3085962665000002
 21
-0.7384569771000001
 31
-2.6278275520220897
  0
LINE
  5
62
330
17
100
AcDbEntity
  8
0
100
AcDbLine
 10
-1.3085962665000002
 20
-0.7384569771000001
 30
-2.6278275520220897
 11
-1.2923068555000001
 21
-0.7379000193
 31
-2.622773874668052
  0
LINE
  5
63
330
17
100
AcDbEntity
  8
0
100
AcDbLine
 10
-1.2923068555000001
 20
-0.7379000193
 30
-2.622773874668052
 11
-1.2610446175000003
 21
-0.7366078289000001
 31
-2.612927651326475
  0
LINE
  5
64
330
17
100
AcDbEntity
  8
0
100
AcDbLine
 10
-1.2610446175000003
 20
-0.7366078289000001
 30
-2.612927651326475
 11
-1.2371606933000003
 21
-0.7351411751000001
 31
-2.605436652288028
  0
LINE
  5
65
330
17
100
AcDbEntity
  8
0
100
AcDbLine
 10
-1.2371606933000003
 20
-0.7351411751000001
 30
-2.605436652288028
 11
-1.1907432646000002
 21
-0.7321067923000001
 31
-2.590338758855007
  0
LINE
  5
66
330
17
100
AcDbEntity
  8
0
100
AcDbLine
 10
-1.1907432646000002
 20
-0.7321067923000001
 30
-2.590338758855007
 11
-1.1603380600000002
 21
-0.7298461743000001
 31
-2.5801260958898427
  0
LINE
  5
67
330
17
100
AcDbEntity
  8
0
100
AcDbLine
 10
-1.1603380600000002
 20
-0.7298461743000001
 30
-2.5801260958898427
 11
-1.1009256753000003
 21
-0.7252858064000001
 31
-2.55905854694068
  0
LINE
  5
68
330
17
100
AcDbEntity
  8
0
100
AcDbLine
 10
-1.1009256753000003
 20
-0.7252858064000001
 30
-2.55905854694068
 11
-1.0649943450000001
 21
-0.7223365788000001
 31
-2.5456109543507264
  0
LINE
  5
69
330
17
100
AcDbEntity
  8
0
100
AcDbLine
 10
-1.0649943450000001
 20
-0.7223365788000001
 30
-2.5456109543507264
 11
-0.9948253357000002
 21
-0.7164760322000001
 31
-2.5174360253915062
  0
LINE
  5
6A
330
17
100
AcDbEntity
  8
0
100
AcDbLine
 10
-0.9948253357000002
 20
-0.7164760322000001
 30
-2.5174360253915062
 11
-0.9543303583800002
 21
-0.7129381859000001
 31
-2.4999783919436678
  0
LINE
  5
6B
330
17
100
AcDbEntity
  8
0
100
AcDbLine
 10
-0.9543303583800002
 20
-0.7129381859000001
 30
-2.4999783919436678
 11
-0.8756757647470003
 21
-0.7060080039000001
 31
-2.4630562004115792
  0
LINE
  5
6C
330
17
100
AcDbEntity
  8
0
100
AcDbLine
 10
-0.8756757647470003
 20
-0.7060080039000001
 30
-2.4630562004115792
 11
-0.8315840506700002
 21
-0.7019803555
 31
-2.440505562651378
  0
LINE
  5
6D
330
17
100
AcDbEntity
  8
0
100
AcDbLine
 10
-0.8315840506700002
 20
-0.7019803555
 30
-2.440505562651378
 11
-0.7467105226000003
 21
-0.6942117923000001
 31
-2.3926124972699174
  0
LINE
  5
6E
330
17
100
AcDbEntity
  8
0
100
AcDbLine
 10
-0.7467105226000003
 20
-0.6942117923000001
 30
-2.3926124972699174
 11
-0.7000216884000002
 21
-0.6897952850000001
 31
-2.3635524510202583
  0
LINE
  5
6F
330
17
100
AcDbEntity
  8
0
100
AcDbLine
 10
-0.7000216884000002
 20
-0.6897952850000001
 30
-2.3635524510202583
 11
-0.6111632131000002
 21
-0.6814171741000001
 31
-2.3018962006855235
  0
LINE
  5
70
330
17
100
AcDbEntity
  8
0
100
AcDbLine
 10
-0.6111632131000002
 20
-0.6814171741000001
 30
-2.3018962006855235
 11
-0.5629288012000002
 21
-0.6767172611000001
 31
-2.264659905882587
  0
LINE
  5
71
330
17
100
AcDbEntity
  8
0
100
AcDbLine
 10
-0.5629288012000002
 20
-0.6767172611000001
 30
-2.264659905882587
 11
-0.4722674795000002
 21
-0.6679538049000001
 31
-2.1862289393586027
  0
LINE
  5
72
330
17
100
AcDbEntity
  8
0
100
AcDbLine
 10
-0.4722674795000002
 20
-0.6679538049000001
 30
-2.1862289393586027
 11
-0.4236011442000002
 21
-0.6630819120000001
 31
-2.1392839020408787
  0
LINE
  5
73
330
17
100
AcDbEntity
  8
0
100
AcDbLine
 10
-0.4236011442000002
 20
-0.6630819120000001
 30
-2.1392839020408787
 11
-0.3332569957000002
 21
-0.6541513928000001
 31
-2.0419748006654714
  0
LINE
  5
74
330
17
100
AcDbEntity
  8
0
100
AcDbLine
 10
-0.3332569957000002
 20
-0.6541513928000001
 30
-2.0419748006654714
 11
-0.2853358371000002
 21
-0.6492254744000001
 31
-1.9848858255600357
  0
LINE
  5
75
330
17
100
AcDbEntity
  8
0
100
AcDbLine
 10
-0.2853358371000002
 20
-0.6492254744000001
 30
-1.9848858255600357
 11
-0.19736545090000024
 21
-0.6403398714
 31
-1.8697770922099894
  0
LINE
  5
76
330
17
100
AcDbEntity
  8
0
100
AcDbLine
 10
-0.19736545090000024
 20
-0.6403398714
 30
-1.8697770922099894
 11
-0.15142276590000026
 21
-0.6354840867000001
 31
-1.8047137809328073
  0
LINE
  5
77
330
17
100
AcDbEntity
  8
0
100
AcDbLine
 10
-0.15142276590000026
 20
-0.6354840867000001
 30
-1.8047137809328073
 11
-0.06782652970000025
 21
-0.6268495751000001
 31
-1.6785792435535074
  0
LINE
  5
78
330
17
100
AcDbEntity
  8
0
100
AcDbLine
 10
-0.06782652970000025
 20
-0.6268495751000001
 30
-1.6785792435535074
 11
-0.025136252000000248
 21
-0.6221931106
 31
-1.6111738074625013
  0
LINE
  5
79
330
17
100
AcDbEntity
  8
0
100
AcDbLine
 10
-0.025136252000000248
 20
-0.6221931106
 30
-1.6111738074625013
 11
0.05212611279999979
 21
-0.6140114166000001
 31
-1.4861050248328718
  0
LINE
  5
7A
330
17
100
AcDbEntity
  8
0
100
AcDbLine
 10
0.05212611279999979
 20
-0.6140114166000001
 30
-1.4861050248328718
 11
0.09027307769999982
 21
-0.6096864778000001
 31
-1.423799576573137
  0
LINE
  5
7B
330
17
100
AcDbEntity
  8
0
100
AcDbLine
 10
0.09027307769999982
 20
-0.6096864778000001
 30
-1.423799576573137
 11
0.15925888249999987
 21
-0.6021570722
 31
-1.3122359480971697
  0
LINE
  5
7C
330
17
100
AcDbEntity
  8
0
100
AcDbLine
 10
0.15925888249999987
 20
-0.6021570722
 30
-1.3122359480971697
 11
0.1915863554999997
 21
-0.5982960549
 31
-1.2608938413273127
  0
LINE
  5
7D
330
17
100
AcDbEntity
  8
0
100
AcDbLine
 10
0.1915863554999997
 20
-0.5982960549
 30
-1.2608938413273127
 11
0.2503382814999997
 21
-0.5916191791000001
 31
-1.1705013932566108
  0
LINE
  5
7E
330
17
100
AcDbEntity
  8
0
100
AcDbLine
 10
0.2503382814999997
 20
-0.5916191791000001
 30
-1.1705013932566108
 11
0.27562467749999975
 21
-0.5883510108000001
 31
-1.1326895192769737
  0
LINE
  5
7F
330
17
100
AcDbEntity
  8
0
100
AcDbLine
 10
0.27562467749999975
 20
-0.5883510108000001
 30
-1.1326895192769737
 11
0.3221309524999998
 21
-0.5827315537000001
 31
-1.0658099551824423
  0
LINE
  5
80
330
17
100
AcDbEntity
  8
0
100
AcDbLine
 10
0.3221309524999998
 20
-0.5827315537000001
 30
-1.0658099551824423
 11
0.33925771349999967
 21
-0.5801771688000001
 31
-1.0416666732077349
  0
LINE
  5
81
330
17
100
AcDbEntity
  8
0
100
AcDbLine
 10
0.33925771349999967
 20
-0.5801771688000001
 30
-1.0416666732077349
 11
0.3714037334999998
 21
-0.5758294381000001
 31
-0.9979517492112957
  0
LINE
  5
82
330
17
100
AcDbEntity
  8
0
100
AcDbLine
 10
0.3714037334999998
 20
-0.5758294381000001
 30
-0.9979517492112957
 11
0.40873098249999984
 21
-0.5693061712
 31
-0.9481274542656603
  0
LINE
  5
83
330
17
100
AcDbEntity
  8
0
100
AcDbLine
 10
0.40873098249999984
 20
-0.5693061712
 30
-0.9481274542656603
 11
0.48746690749999977
 21
-0.5570683881
 31
-0.8519337246422687
  0
LINE
  5
84
330
17
100
AcDbEntity
  8
0
100
AcDbLine
 10
0.48746690749999977
 20
-0.5570683881
 30
-0.8519337246422687
 11
0.5115740714999997
 21
-0.5527327047000001
 31
-0.8240506786744226
  0
LINE
  5
85
330
17
100
AcDbEntity
  8
0
100
AcDbLine
 10
0.5115740714999997
 20
-0.5527327047000001
 30
-0.8240506786744226
 11
0.6005732864999997
 21
-0.5383629847000001
 31
-0.7308309801582004
  0
LINE
  5
86
330
17
100
AcDbEntity
  8
0
100
AcDbLine
 10
0.6005732864999997
 20
-0.5383629847000001
 30
-0.7308309801582004
 11
0.6014067794999998
 21
-0.5382126884
 31
-0.7300029723284098
  0
LINE
  5
87
330
17
100
AcDbEntity
  8
0
100
AcDbLine
 10
0.6014067794999998
 20
-0.5382126884
 30
-0.7300029723284098
 11
0.6037896954999997
 21
-0.5378237674000002
 31
-0.7276792773932121
  0
LINE
  5
88
330
17
100
AcDbEntity
  8
0
100
AcDbLine
 10
0.6037896954999997
 20
-0.5378237674000002
 30
-0.7276792773932121
 11
0.6841192474999997
 21
-0.5224436768
 31
-0.6521948102442521
  0
LINE
  5
89
330
17
100
AcDbEntity
  8
0
100
AcDbLine
 10
0.6841192474999997
 20
-0.5224436768
 30
-0.6521948102442521
 11
0.7126552504999997
 21
-0.5178194804
 31
-0.6283599800883041
  0
LINE
  5
8A
330
17
100
AcDbEntity
  8
0
100
AcDbLine
 10
0.7126552504999997
 20
-0.5178194804
 30
-0.6283599800883041
 11
0.7658381744999998
 21
-0.5079346708000001
 31
-0.5856266875331689
  0
LINE
  5
8B
330
17
100
AcDbEntity
  8
0
100
AcDbLine
 10
0.7658381744999998
 20
-0.5079346708000001
 30
-0.5856266875331689
 11
0.8255885854999998
 21
-0.4981891024000001
 31
-0.5429414566291778
  0
LINE
  5
8C
330
17
100
AcDbEntity
  8
0
100
AcDbLine
 10
0.8255885854999998
 20
-0.4981891024000001
 30
-0.5429414566291778
 11
0.8486730714999997
 21
-0.49407397250000007
 31
-0.527207763764868
  0
LINE
  5
8D
330
17
100
AcDbEntity
  8
0
100
AcDbLine
 10
0.8486730714999997
 20
-0.49407397250000007
 30
-0.527207763764868
 11
0.9349727164999997
 21
-0.4796940773000001
 31
-0.4740383771551545
  0
LINE
  5
8E
330
17
100
AcDbEntity
  8
0
100
AcDbLine
 10
0.9349727164999997
 20
-0.4796940773000001
 30
-0.4740383771551545
 11
0.9400628394999997
 21
-0.4787459006000001
 31
-0.47103616066954646
  0
LINE
  5
8F
330
17
100
AcDbEntity
  8
0
100
AcDbLine
 10
0.9400628394999997
 20
-0.4787459006000001
 30
-0.47103616066954646
 11
0.9414037334999998
 21
-0.4785164256000001
 31
-0.4702663068956111
  0
LINE
  5
90
330
17
100
AcDbEntity
  8
0
100
AcDbLine
 10
0.9414037334999998
 20
-0.4785164256000001
 30
-0.4702663068956111
 11
0.9829954474999998
 21
-0.4708388576000001
 31
-0.44669370671773406
  0
LINE
  5
91
330
17
100
AcDbEntity
  8
0
100
AcDbLine
 10
0.9829954474999998
 20
-0.4708388576000001
 30
-0.44669370671773406
 11
0.9854773394999998
 21
-0.4703837513000001
 31
-0.44533599806680346
  0
LINE
  5
92
330
17
100
AcDbEntity
  8
0
100
AcDbLine
 10
0.9854773394999998
 20
-0.4703837513000001
 30
-0.44533599806680346
 11
1.0503925284999998
 21
-0.45807131340000007
 31
-0.41123086162078065
  0
LINE
  5
93
330
17
100
AcDbEntity
  8
0
100
AcDbLine
 10
1.0503925284999998
 20
-0.45807131340000007
 30
-0.41123086162078065
 11
1.0593709554999997
 21
-0.4563476564000001
 31
-0.4067496552652561
  0
LINE
  5
94
330
17
100
AcDbEntity
  8
0
100
AcDbLine
 10
1.0593709554999997
 20
-0.4563476564000001
 30
-0.4067496552652561
 11
1.1388309144999997
 21
-0.44110367820000007
 31
-0.36953670345487954
  0
LINE
  5
95
330
17
100
AcDbEntity
  8
0
100
AcDbLine
 10
1.1388309144999997
 20
-0.44110367820000007
 30
-0.36953670345487954
 11
1.1598533774999997
 21
-0.4369883823000001
 31
-0.360314318404386
  0
LINE
  5
96
330
17
100
AcDbEntity
  8
0
100
AcDbLine
 10
1.1598533774999997
 20
-0.4369883823000001
 30
-0.360314318404386
 11
1.2441182254999998
 21
-0.4207030510000001
 31
-0.3260824987476756
  0
LINE
  5
97
330
17
100
AcDbEntity
  8
0
100
AcDbLine
 10
1.2441182254999998
 20
-0.4207030510000001
 30
-0.3260824987476756
 11
1.2836934584999997
 21
-0.4128572402000001
 31
-0.31116877347045097
  0
LINE
  5
98
330
17
100
AcDbEntity
  8
0
100
AcDbLine
 10
1.2836934584999997
 20
-0.4128572402000001
 30
-0.31116877347045097
 11
1.3623304314999998
 21
-0.39756515830000005
 31
-0.28394210648741325
  0
LINE
  5
99
330
17
100
AcDbEntity
  8
0
100
AcDbLine
 10
1.3623304314999998
 20
-0.39756515830000005
 30
-0.28394210648741325
 11
1.4276601034999996
 21
-0.38447611960000005
 31
-0.2630640195674176
  0
LINE
  5
9A
330
17
100
AcDbEntity
  8
0
100
AcDbLine
 10
1.4276601034999996
 20
-0.38447611960000005
 30
-0.2630640195674176
 11
1.4897305084999997
 21
-0.37233155140000007
 31
-0.2449148048570924
  0
LINE
  5
9B
330
17
100
AcDbEntity
  8
0
100
AcDbLine
 10
1.4897305084999997
 20
-0.37233155140000007
 30
-0.2449148048570924
 11
1.5885222604999996
 21
-0.3523338021000001
 31
-0.2182662958093464
  0
LINE
  5
9C
330
17
100
AcDbEntity
  8
0
100
AcDbLine
 10
1.5885222604999996
 20
-0.3523338021000001
 30
-0.2182662958093464
 11
1.6227220635
 21
-0.3455978088000001
 31
-0.20983898785533192
  0
LINE
  5
9D
330
17
100
AcDbEntity
  8
0
100
AcDbLine
 10
1.6227220635
 20
-0.3455978088000001
 30
-0.20983898785533192
 11
1.7420153495
 21
-0.3211834387000001
 31
-0.18232702542728205
  0
LINE
  5
9E
330
17
100
AcDbEntity
  8
0
100
AcDbLine
 10
1.7420153495
 20
-0.3211834387000001
 30
-0.18232702542728205
 11
1.7584518344999998
 21
-0.3176361187000001
 31
-0.1787069348052116
  0
LINE
  5
9F
330
17
100
AcDbEntity
  8
0
100
AcDbLine
 10
1.7584518344999998
 20
-0.3176361187000001
 30
-0.1787069348052116
 11
1.7630489514999996
 21
-0.3166063371000001
 31
-0.1776849939513478
  0
LINE
  5
A0
330
17
100
AcDbEntity
  8
0
100
AcDbLine
 10
1.7630489514999996
 20
-0.3166063371000001
 30
-0.1776849939513478
 11
1.8982435824999997
 21
-0.28713837650000007
 31
-0.1501271701711737
  0
LINE
  5
A1
330
17
100
AcDbEntity
  8
0
100
AcDbLine
 10
1.8982435824999997
 20
-0.28713837650000007
 30
-0.1501271701711737
 11
1.9480094675
 21
-0.2758236262000001
 31
-0.14065753392119237
  0
LINE
  5
A2
330
17
100
AcDbEntity
  8
0
100
AcDbLine
 10
1.9480094675
 20
-0.2758236262000001
 30
-0.14065753392119237
 11
2.0347883505
 21
-0.2566884192000001
 31
-0.12548707803698805
  0
LINE
  5
A3
330
17
100
AcDbEntity
  8
0
100
AcDbLine
 10
2.0347883505
 20
-0.2566884192000001
 30
-0.12548707803698805
 11
2.1401728364999997
 21
-0.2323089214000001
 31
-0.10812347839912262
  0
LINE
  5
A4
330
17
100
AcDbEntity
  8
0
100
AcDbLine
 10
2.1401728364999997
 20
-0.2323089214000001
 30
-0.10812347839912262
 11
2.1652060184999997
 21
-0.22671210650000007
 31
-0.10432678906370366
  0
LINE
  5
A5
330
17
100
AcDbEntity
  8
0
100
AcDbLine
 10
2.1652060184999997
 20
-0.22671210650000007
 30
-0.10432678906370366
 11
2.2095185484999997
 21
-0.21624625384000007
 31
-0.09755960180894165
  0
LINE
  5
A6
330
17
100
AcDbEntity
  8
0
100
AcDbLine
 10
2.2095185484999997
 20
-0.21624625384000007
 30
-0.09755960180894165
 11
2.2906026985
 21
-0.1953743285700001
 31
-0.08508791186808273
  0
LINE
  5
A7
330
17
100
AcDbEntity
  8
0
100
AcDbLine
 10
2.2906026985
 20
-0.1953743285700001
 30
-0.08508791186808273
 11
2.3363082205
 21
-0.1829792929900001
 31
-0.07816029186959633
  0
LINE
  5
A8
330
17
100
AcDbEntity
  8
0
100
AcDbLine
 10
2.3363082205
 20
-0.1829792929900001
 30
-0.07816029186959633
 11
2.4078882845
 21
-0.1641829431800001
 31
-0.06808007200983143
  0
LINE
  5
A9
330
17
100
AcDbEntity
  8
0
100
AcDbLine
 10
2.4078882845
 20
-0.1641829431800001
 30
-0.06808007200983143
 11
2.4923336154999998
 21
-0.14062368591000007
 31
-0.05636273745313331
  0
LINE
  5
AA
330
17
100
AcDbEntity
  8
0
100
AcDbLine
 10
2.4923336154999998
 20
-0.14062368591000007
 30
-0.05636273745313331
 11
2.5136542305
 21
-0.13374180092000007
 31
-0.053156003070616395
  0
LINE
  5
AB
330
17
100
AcDbEntity
  8
0
100
AcDbLine
 10
2.5136542305
 20
-0.13374180092000007
 30
-0.053156003070616395
 11
2.5331846084999996
 21
-0.12707681796800008
 31
-0.05012283014479442
  0
LINE
  5
AC
330
17
100
AcDbEntity
  8
0
100
AcDbLine
 10
2.5331846084999996
 20
-0.12707681796800008
 30
-0.05012283014479442
 11
2.6085308704999997
 21
-0.10207517466000009
 31
-0.03911133369947442
  0
LINE
  5
AD
330
17
100
AcDbEntity
  8
0
100
AcDbLine
 10
2.6085308704999997
 20
-0.10207517466000009
 30
-0.03911133369947442
 11
2.6651860115
 21
-0.08199800930000009
 31
-0.03075663440174129
  0
LINE
  5
AE
330
17
100
AcDbEntity
  8
0
100
AcDbLine
 10
2.6651860115
 20
-0.08199800930000009
 30
-0.03075663440174129
 11
2.6890966955
 21
-0.07130893594000008
 31
-0.026511589724222424
  0
LINE
  5
AF
330
17
100
AcDbEntity
  8
0
100
AcDbLine
 10
2.6890966955
 20
-0.07130893594000008
 30
-0.026511589724222424
 11
2.7275676515
 21
-0.05307455556000008
 31
-0.019456110798941186
  0
LINE
  5
B0
330
17
100
AcDbEntity
  8
0
100
AcDbLine
 10
2.7275676515
 20
-0.05307455556000008
 30
-0.019456110798941186
 11
2.7550575635
 21
-0.04032281569000008
 31
-0.014634880013653144
  0
LINE
  5
B1
330
17
100
AcDbEntity
  8
0
100
AcDbLine
 10
2.7550575635
 20
-0.04032281569000008
 30
-0.014634880013653144
 11
2.7672031044999996
 21
-0.034279243860000086
 31
-0.012387052662614072
  0
LINE
  5
B2
330
17
100
AcDbEntity
  8
0
100
AcDbLine
 10
2.7672031044999996
 20
-0.034279243860000086
 30
-0.012387052662614072
 11
2.8032971785
 21
-0.00870585900000008
 31
-0.0031055683566861966
  0
LINE
  5
B3
330
17
100
AcDbEntity
  8
0
100
AcDbLine
 10
2.8032971785
 20
-0.00870585900000008
 30
-0.0031055683566861966
 11
2.8232795485
 21
0.0063185645999999235
 31
0.002238019275854146
  0
LINE
  5
B4
330
17
100
AcDbEntity
  8
0
100
AcDbLine
 10
2.8232795485
 20
0.0063185645999999235
 30
0.002238019275854146
 11
2.8358423784999998
 21
0.022720471099999917
 31
0.008011723481228937
  0
LINE
  5
B5
330
17
100
AcDbEntity
  8
0
100
AcDbLine
 10
2.8358423784999998
 20
0.022720471099999917
 30
0.008011723481228937
 11
2.8503061484999996
 21
0.04248598859999991
 31
0.014904659453603438
  0
LINE
  5
B6
330
17
100
AcDbEntity
  8
0
100
AcDbLine
 10
2.8503061484999996
 20
0.04248598859999991
 30
0.014904659453603438
 11
2.8536906464999996
 21
0.054396456999999926
 31
0.019059483602590088
  0
LINE
  5
B7
330
17
100
AcDbEntity
  8
0
100
AcDbLine
 10
2.8536906464999996
 20
0.054396456999999926
 30
0.019059483602590088
 11
2.8597025484999996
 21
0.0761622100999999
 31
0.02662661898461282
  0
LINE
  5
B8
330
17
100
AcDbEntity
  8
0
100
AcDbLine
 10
2.8597025484999996
 20
0.0761622100999999
 30
0.02662661898461282
 11
2.8597471834999997
 21
0.08654661509999992
 31
0.030254495089951657
  0
LINE
  5
B9
330
17
100
AcDbEntity
  8
0
100
AcDbLine
 10
2.8597471834999997
 20
0.08654661509999992
 30
0.030254495089951657
 11
2.8597710414999997
 21
0.10870347799999991
 31
0.037992961032286256
  0
LINE
  5
BA
330
17
100
AcDbEntity
  8
0
100
AcDbLine
 10
2.8597710414999997
 20
0.10870347799999991
 30
0.037992961032286256
 11
2.8567332445
 21
0.1300437426999999
 31
0.0454904311751086
  0
LINE
  5
BB
330
17
100
AcDbEntity
  8
0
100
AcDbLine
 10
2.8567332445
 20
0.1300437426999999
 30
0.0454904311751086
 11
2.8553609685
 21
0.14084096569999993
 31
0.049285156341412194
  0
LINE
  5
BC
330
17
100
AcDbEntity
  8
0
100
AcDbLine
 10
2.8553609685
 20
0.14084096569999993
 30
0.049285156341412194
 11
2.8537778974999997
 21
0.14451996789999993
 31
0.0505984063062053
  0
LINE
  5
BD
330
17
100
AcDbEntity
  8
0
100
AcDbLine
 10
2.8537778974999997
 20
0.14451996789999993
 30
0.0505984063062053
 11
2.8470511314999998
 21
0.16015274829999993
 31
0.056192929767449794
  0
LINE
  5
BE
330
17
100
AcDbEntity
  8
0
100
AcDbLine
 10
2.8470511314999998
 20
0.16015274829999993
 30
0.056192929767449794
 11
2.8418743175
 21
0.17247609749999993
 31
0.060616613989981374
  0
LINE
  5
BF
330
17
100
AcDbEntity
  8
0
100
AcDbLine
 10
2.8418743175
 20
0.17247609749999993
 30
0.060616613989981374
 11
2.8267261214999997
 21
0.18799259629999993
 31
0.0664076247752238
  0
LINE
  5
C0
330
17
100
AcDbEntity
  8
0
100
AcDbLine
 10
2.8267261214999997
 20
0.18799259629999993
 30
0.0664076247752238
 11
2.8111592004999997
 21
0.2035219740999999
 31
0.07227178898657449
  0
LINE
  5
C1
330
17
100
AcDbEntity
  8
0
100
AcDbLine
 10
2.8111592004999997
 20
0.2035219740999999
 30
0.07227178898657449
 11
2.7928898605
 21
0.2133008066999999
 31
0.07622482401870682
  0
LINE
  5
C2
330
17
100
AcDbEntity
  8
0
100
AcDbLine
 10
2.7928898605
 20
0.2133008066999999
 30
0.07622482401870682
 11
2.7518496514999997
 21
0.2339234477999999
 31
0.08480202913533676
  0
LINE
  5
C3
330
17
100
AcDbEntity
  8
0
100
AcDbLine
 10
2.7518496514999997
 20
0.2339234477999999
 30
0.08480202913533676
 11
2.7441916894999996
 21
0.23628942009999993
 31
0.08589343288553575
  0
LINE
  5
C4
330
17
100
AcDbEntity
  8
0
100
AcDbLine
 10
2.7441916894999996
 20
0.23628942009999993
 30
0.08589343288553575
 11
2.7271891714999996
 21
0.2410400647999999
 31
0.08815499311007124
  0
LINE
  5
C5
330
17
100
AcDbEntity
  8
0
100
AcDbLine
 10
2.7271891714999996
 20
0.2410400647999999
 30
0.08815499311007124
 11
2.6780308644999997
 21
0.2552655479999999
 31
0.0950312630702738
  0
LINE
  5
C6
330
17
100
AcDbEntity
  8
0
100
AcDbLine
 10
2.6780308644999997
 20
0.2552655479999999
 30
0.0950312630702738
 11
2.6472087524999997
 21
0.2634622522999999
 31
0.09919788496720816
  0
LINE
  5
C7
330
17
100
AcDbEntity
  8
0
100
AcDbLine
 10
2.6472087524999997
 20
0.2634622522999999
 30
0.09919788496720816
 11
2.5981185045
 21
0.27210869209999994
 31
0.104352541624066
  0
LINE
  5
C8
330
17
100
AcDbEntity
  8
0
100
AcDbLine
 10
2.5981185045
 20
0.27210869209999994
 30
0.104352541624066
 11
2.5327744634999996
 21
0.28225782599999993
 31
0.11098420889667919
  0
LINE
  5
C9
330
17
100
AcDbEntity
  8
0
100
AcDbLine
 10
2.5327744634999996
 20
0.28225782599999993
 30
0.11098420889667919
 11
2.5039438914999996
 21
0.28701733919999994
 31
0.11412799783380007
  0
LINE
  5
CA
330
17
100
AcDbEntity
  8
0
100
AcDbLine
 10
2.5039438914999996
 20
0.28701733919999994
 30
0.11412799783380007
 11
2.4726527175
 21
0.2916523634999999
 31
0.11740872635499264
  0
LINE
  5
CB
330
17
100
AcDbEntity
  8
0
100
AcDbLine
 10
2.4726527175
 20
0.2916523634999999
 30
0.11740872635499264
 11
2.3990369694999996
 21
0.29935151819999994
 31
0.12413824407029296
  0
LINE
  5
CC
330
17
100
AcDbEntity
  8
0
100
AcDbLine
 10
2.3990369694999996
 20
0.29935151819999994
 30
0.12413824407029296
 11
2.3359192194999996
 21
0.3049771632999999
 31
0.12982546844058832
  0
LINE
  5
CD
330
17
100
AcDbEntity
  8
0
100
AcDbLine
 10
2.3359192194999996
 20
0.3049771632999999
 30
0.12982546844058832
 11
2.2829225104999997
 21
0.3101937575999999
 31
0.1350486812109072
  0
LINE
  5
CE
330
17
100
AcDbEntity
  8
0
100
AcDbLine
 10
2.2829225104999997
 20
0.3101937575999999
 30
0.1350486812109072
 11
2.1901882355
 21
0.31812402919999994
 31
0.14424090191110248
  0
LINE
  5
CF
330
17
100
AcDbEntity
  8
0
100
AcDbLine
 10
2.1901882355
 20
0.31812402919999994
 30
0.14424090191110248
 11
2.1582147954999997
 21
0.32017423779999993
 31
0.14727725953439025
  0
LINE
  5
D0
330
17
100
AcDbEntity
  8
0
100
AcDbLine
 10
2.1582147954999997
 20
0.32017423779999993
 30
0.14727725953439025
 11
2.1398229874999997
 21
0.32113297649999994
 31
0.14896285843669424
  0
LINE
  5
D1
330
17
100
AcDbEntity
  8
0
100
AcDbLine
 10
2.1398229874999997
 20
0.32113297649999994
 30
0.14896285843669424
 11
2.0291367964999996
 21
0.3278827287999999
 31
0.16020255361271019
  0
LINE
  5
D2
330
17
100
AcDbEntity
  8
0
100
AcDbLine
 10
2.0291367964999996
 20
0.3278827287999999
 30
0.16020255361271019
 11
1.9477091794999999
 21
0.3320140226999999
 31
0.168840952456786
  0
LINE
  5
D3
330
17
100
AcDbEntity
  8
0
100
AcDbLine
 10
1.9477091794999999
 20
0.3320140226999999
 30
0.168840952456786
 11
1.8937773475
 21
0.33519983759999994
 31
0.1751862137849797
  0
LINE
  5
D4
330
17
100
AcDbEntity
  8
0
100
AcDbLine
 10
1.8937773475
 20
0.33519983759999994
 30
0.1751862137849797
 11
1.7628008114999996
 21
0.34178017739999994
 31
0.1915086472197375
  0
LINE
  5
D5
330
17
100
AcDbEntity
  8
0
100
AcDbLine
 10
1.7628008114999996
 20
0.34178017739999994
 30
0.1915086472197375
 11
1.7550299464999997
 21
0.3422332986999999
 31
0.19258462732222592
  0
LINE
  5
D6
330
17
100
AcDbEntity
  8
0
100
AcDbLine
 10
1.7550299464999997
 20
0.3422332986999999
 30
0.19258462732222592
 11
1.7277867864999998
 21
0.3436134387999999
 31
0.19631350725334235
  0
LINE
  5
D7
330
17
100
AcDbEntity
  8
0
100
AcDbLine
 10
1.7277867864999998
 20
0.3436134387999999
 30
0.19631350725334235
 11
1.6199338454999999
 21
0.3478485033999999
 31
0.21151813919995802
  0
LINE
  5
D8
330
17
100
AcDbEntity
  8
0
100
AcDbLine
 10
1.6199338454999999
 20
0.3478485033999999
 30
0.21151813919995802
 11
1.5883274214999998
 21
0.3488594572999999
 31
0.21620643164251746
  0
LINE
  5
D9
330
17
100
AcDbEntity
  8
0
100
AcDbLine
 10
1.5883274214999998
 20
0.3488594572999999
 30
0.21620643164251746
 11
1.4878182834999998
 21
0.3529154984999999
 31
0.2328989825058142
  0
LINE
  5
DA
330
17
100
AcDbEntity
  8
0
100
AcDbLine
 10
1.4878182834999998
 20
0.3529154984999999
 30
0.2328989825058142
 11
1.4275162154999999
 21
0.3549654092999999
 31
0.2437165796922585
  0
LINE
  5
DB
330
17
100
AcDbEntity
  8
0
100
AcDbLine
 10
1.4275162154999999
 20
0.3549654092999999
 30
0.2437165796922585
 11
1.3611053295
 21
0.35781076519999994
 31
0.2570661347051467
  0
LINE
  5
DC
330
17
100
AcDbEntity
  8
0
100
AcDbLine
 10
1.3611053295
 20
0.35781076519999994
 30
0.2570661347051467
 11
1.2835958544999997
 21
0.3607052772999999
 31
0.2739464785542293
  0
LINE
  5
DD
330
17
100
AcDbEntity
  8
0
100
AcDbLine
 10
1.2835958544999997
 20
0.3607052772999999
 30
0.2739464785542293
 11
1.2434088785
 21
0.3626101015999999
 31
0.28375644064924876
  0
LINE
  5
DE
330
17
100
AcDbEntity
  8
0
100
AcDbLine
 10
1.2434088785
 20
0.3626101015999999
 30
0.28375644064924876
 11
1.1597953584999998
 21
0.3661871271999999
 31
0.3058286620861074
  0
LINE
  5
DF
330
17
100
AcDbEntity
  8
0
100
AcDbLine
 10
1.1597953584999998
 20
0.3661871271999999
 30
0.3058286620861074
 11
1.1384815654999998
 21
0.3673714108999999
 31
0.312137025373547
  0
LINE
  5
E0
330
17
100
AcDbEntity
  8
0
100
AcDbLine
 10
1.1384815654999998
 20
0.3673714108999999
 30
0.312137025373547
 11
1.0593437764999998
 21
0.37148587999999994
 31
0.3372764503745791
  0
LINE
  5
E1
330
17
100
AcDbEntity
  8
0
100
AcDbLine
 10
1.0593437764999998
 20
0.37148587999999994
 30
0.3372764503745791
 11
1.0502642654999998
 21
0.37213632569999994
 31
0.34052383609731346
  0
LINE
  5
E2
330
17
100
AcDbEntity
  8
0
100
AcDbLine
 10
1.0502642654999998
 20
0.37213632569999994
 30
0.34052383609731346
 11
0.9854701944999997
 21
0.3766473147999999
 31
0.36506854598415833
  0
LINE
  5
E3
330
17
100
AcDbEntity
  8
0
100
AcDbLine
 10
0.9854701944999997
 20
0.3766473147999999
 30
0.36506854598415833
 11
0.9829717934999997
 21
0.3769298693999999
 31
0.3661665109257917
  0
LINE
  5
E4
330
17
100
AcDbEntity
  8
0
100
AcDbLine
 10
0.9829717934999997
 20
0.3769298693999999
 30
0.3661665109257917
 11
0.9414037334999998
 21
0.3816888319999999
 31
0.3851927844154129
  0
LINE
  5
E5
330
17
100
AcDbEntity
  8
0
100
AcDbLine
 10
0.9414037334999998
 20
0.3816888319999999
 30
0.3851927844154129
 11
0.9399817864999997
 21
0.38208209669999993
 31
0.38607851984997604
  0
LINE
  5
E6
330
17
100
AcDbEntity
  8
0
100
AcDbLine
 10
0.9399817864999997
 20
0.38208209669999993
 30
0.38607851984997604
 11
0.9336057194999998
 21
0.38377413719999987
 31
0.39001000348708387
  0
LINE
  5
E7
330
17
100
AcDbEntity
  8
0
100
AcDbLine
 10
0.9336057194999998
 20
0.38377413719999987
 30
0.39001000348708387
 11
0.8434653044999998
 21
0.40665295449999994
 31
0.4492429728367804
  0
LINE
  5
E8
330
17
100
AcDbEntity
  8
0
100
AcDbLine
 10
0.8434653044999998
 20
0.40665295449999994
 30
0.4492429728367804
 11
0.8230873694999998
 21
0.4116254922999999
 31
0.463727118710819
  0
LINE
  5
E9
330
17
100
AcDbEntity
  8
0
100
AcDbLine
 10
0.8230873694999998
 20
0.4116254922999999
 30
0.463727118710819
 11
0.7539900974999998
 21
0.43845412649999993
 31
0.5267142872766325
  0
LINE
  5
EA
330
17
100
AcDbEntity
  8
0
100
AcDbLine
 10
0.7539900974999998
 20
0.43845412649999993
 30
0.5267142872766325
 11
0.7047780934999999
 21
0.45602907009999993
 31
0.574301015694964
  0
LINE
  5
EB
330
17
100
AcDbEntity
  8
0
100
AcDbLine
 10
0.7047780934999999
 20
0.45602907009999993
 30
0.574301015694964
 11
0.6666521404999999
 21
0.47406626369999993
 31
0.6181467358275576
  0
LINE
  5
EC
330
17
100
AcDbEntity
  8
0
100
AcDbLine
 10
0.6666521404999999
 20
0.47406626369999993
 30
0.6181467358275576
 11
0.5881416234999999
 21
0.5090300469999999
 31
0.7134177241724831
  0
LINE
  5
ED
330
17
100
AcDbEntity
  8
0
100
AcDbLine
 10
0.5881416234999999
 20
0.5090300469999999
 30
0.7134177241724831
 11
0.5797861134999998
 21
0.5133763557
 31
0.7247226066477872
  0
LINE
  5
EE
330
17
100
AcDbEntity
  8
0
100
AcDbLine
 10
0.5797861134999998
 20
0.5133763557
 30
0.7247226066477872
 11
0.5526805754999997
 21
0.5275791892999999
 31
0.7621659087113045
  0
LINE
  5
EF
330
17
100
AcDbEntity
  8
0
100
AcDbLine
 10
0.5526805754999997
 20
0.5275791892999999
 30
0.7621659087113045
 11
0.49292685349999976
 21
0.5584294072999999
 31
0.8476206472160585
  0
LINE
  5
F0
330
17
100
AcDbEntity
  8
0
100
AcDbLine
 10
0.49292685349999976
 20
0.5584294072999999
 30
0.8476206472160585
 11
0.4760606184999998
 21
0.5672219399999999
 31
0.8725561129515016
  0
LINE
  5
F1
330
17
100
AcDbEntity
  8
0
100
AcDbLine
 10
0.4760606184999998
 20
0.5672219399999999
 30
0.8725561129515016
 11
0.40364241349999985
 21
0.6094739652
 31
0.9858368027649117
  0
LINE
  5
F2
330
17
100
AcDbEntity
  8
0
100
AcDbLine
 10
0.40364241349999985
 20
0.6094739652
 30
0.9858368027649117
 11
0.3714037334999998
 21
0.6296099235999999
 31
1.0378401221831075
  0
LINE
  5
F3
330
17
100
AcDbEntity
  8
0
100
AcDbLine
 10
0.3714037334999998
 20
0.6296099235999999
 30
1.0378401221831075
 11
0.3432696884999997
 21
0.6415621018
 31
1.0795011627859872
  0
LINE
  5
F4
330
17
100
AcDbEntity
  8
0
100
AcDbLine
 10
0.3432696884999997
 20
0.6415621018
 30
1.0795011627859872
 11
0.32668646449999983
 21
0.6492129386
 31
1.104588906261711
  0
LINE
  5
F5
330
17
100
AcDbEntity
  8
0
100
AcDbLine
 10
0.32668646449999983
 20
0.6492129386
 30
1.104588906261711
 11
0.28607979949999973
 21
0.6598580083
 31
1.1617081909272524
  0
LINE
  5
F6
330
17
100
AcDbEntity
  8
0
100
AcDbLine
 10
0.28607979949999973
 20
0.6598580083
 30
1.1617081909272524
 11
0.2574291794999999
 21
0.6678911435999999
 31
1.2029079687376478
  0
LINE
  5
F7
330
17
100
AcDbEntity
  8
0
100
AcDbLine
 10
0.2574291794999999
 20
0.6678911435999999
 30
1.2029079687376478
 11
0.20850368149999987
 21
0.6771408804999999
 31
1.2720914837065065
  0
LINE
  5
F8
330
17
100
AcDbEntity
  8
0
100
AcDbLine
 10
0.20850368149999987
 20
0.6771408804999999
 30
1.2720914837065065
 11
0.16715321149999984
 21
0.6854075012999999
 31
1.3315913729573767
  0
LINE
  5
F9
330
17
100
AcDbEntity
  8
0
100
AcDbLine
 10
0.16715321149999984
 20
0.6854075012999999
 30
1.3315913729573767
 11
0.11358334599999975
 21
0.6932307272999999
 31
1.408392959578341
  0
LINE
  5
FA
330
17
100
AcDbEntity
  8
0
100
AcDbLine
 10
0.11358334599999975
 20
0.6932307272999999
 30
1.408392959578341
 11
0.059381462799999785
 21
0.7015151315999999
 31
1.4863501897507823
  0
LINE
  5
FB
330
17
100
AcDbEntity
  8
0
100
AcDbLine
 10
0.059381462799999785
 20
0.7015151315999999
 30
1.4863501897507823
 11
0.004259067299999808
 21
0.7079303257999999
 31
1.5647801755433906
  0
LINE
  5
FC
330
17
100
AcDbEntity
  8
0
100
AcDbLine
 10
0.004259067299999808
 20
0.7079303257999999
 30
1.5647801755433906
 11
-0.06235829670000026
 21
0.7159619857999999
 31
1.657674303519972
  0
LINE
  5
FD
330
17
100
AcDbEntity
  8
0
100
AcDbLine
 10
-0.06235829670000026
 20
0.7159619857999999
 30
1.657674303519972
 11
-0.1165638521000002
 21
0.7210283972999999
 31
1.7310729789457158
  0
LINE
  5
FE
330
17
100
AcDbEntity
  8
0
100
AcDbLine
 10
-0.1165638521000002
 20
0.7210283972999999
 30
1.7310729789457158
 11
-0.19453167500000024
 21
0.7284945321999999
 31
1.831740180315517
  0
LINE
  5
FF
330
17
100
AcDbEntity
  8
0
100
AcDbLine
 10
-0.19453167500000024
 20
0.7284945321999999
 30
1.831740180315517
 11
-0.2459665644000002
 21
0.7323023329999999
 31
1.8948381788208533
  0
LINE
  5
100
330
17
100
AcDbEntity
  8
0
100
AcDbLine
 10
-0.2459665644000002
 20
0.7323023329999999
 30
1.8948381788208533
 11
-0.3335971014000002
 21
0.7388604972999999
 31
1.9948987377598404
  0
LINE
  5
101
330
17
100
AcDbEntity
  8
0
100
AcDbLine
 10
-0.3335971014000002
 20
0.7388604972999999
 30
1.9948987377598404
 11
-0.3809826831000002
 21
0.741520334
 31
2.045411723504793
  0
LINE
  5
102
330
17
100
AcDbEntity
  8
0
100
AcDbLine
 10
-0.3809826831000002
 20
0.741520334
 30
2.045411723504793
 11
-0.4760061310000002
 21
0.7468108146999999
 31
2.138252292766242
  0
LINE
  5
103
330
17
100
AcDbEntity
  8
0
100
AcDbLine
 10
-0.4760061310000002
 20
0.7468108146999999
 30
2.138252292766242
 11
-0.5185749040000003
 21
0.7484429112
 31
2.176722151534841
  0
LINE
  5
104
330
17
100
AcDbEntity
  8
0
100
AcDbLine
 10
-0.5185749040000003
 20
0.7484429112
 30
2.176722151534841
 11
-0.6182043377000002
 21
0.7521009752
 31
2.2587907071155464
  0
LINE
  5
105
330
17
100
AcDbEntity
  8
0
100
AcDbLine
 10
-0.6182043377000002
 20
0.7521009752
 30
2.2587907071155464
 11
-0.6556185609000003
 21
0.7528237251
 31
2.287287678566418
  0
LINE
  5
106
330
17
100
AcDbEntity
  8
0
100
AcDbLine
 10
-0.6556185609000003
 20
0.7528237251
 30
2.287287678566418
 11
-0.7566326069000002
 21
0.7544919828
 31
2.357611066087368
  0
LINE
  5
107
330
17
100
AcDbEntity
  8
0
100
AcDbLine
 10
-0.7566326069000002
 20
0.7544919828
 30
2.357611066087368
 11
-0.7888887711500002
 21
0.7544097433999999
 31
2.3785319010582295
  0
LINE
  5
108
330
17
100
AcDbEntity
  8
0
100
AcDbLine
 10
-0.7888887711500002
 20
0.7544097433999999
 30
2.3785319010582295
 11
-0.8877287172140003
 21
0.7537511063
 31
2.437633981959246
  0
LINE
  5
109
330
17
100
AcDbEntity
  8
0
100
AcDbLine
 10
-0.8877287172140003
 20
0.7537511063
 30
2.437633981959246
 11
-0.9150480400600002
 21
0.7529406485999999
 31
2.453077566822278
  0
LINE
  5
10A
330
17
100
AcDbEntity
  8
0
100
AcDbLine
 10
-0.9150480400600002
 20
0.7529406485999999
 30
2.453077566822278
 11
-1.0079291832000001
 21
0.7496526123999999
 31
2.502100185088353
  0
LINE
  5
10B
330
17
100
AcDbEntity
  8
0
100
AcDbLine
 10
-1.0079291832000001
 20
0.7496526123999999
 30
2.502100185088353
 11
-1.0306311045000003
 21
0.7481473592999999
 31
2.51368701327938
  0
LINE
  5
10C
330
17
100
AcDbEntity
  8
0
100
AcDbLine
 10
-1.0306311045000003
 20
0.7481473592999999
 30
2.51368701327938
 11
-1.1136714096000002
 21
0.7419786622999999
 31
2.5538816232141217
  0
LINE
  5
10D
330
17
100
AcDbEntity
  8
0
100
AcDbLine
 10
-1.1136714096000002
 20
0.7419786622999999
 30
2.5538816232141217
 11
-1.1320232009000002
 21
0.7397493876999999
 31
2.5627781025095207
  0
LINE
  5
10E
330
17
100
AcDbEntity
  8
0
100
AcDbLine
 10
-1.1320232009000002
 20
0.7397493876999999
 30
2.5627781025095207
 11
-1.2013962986000002
 21
0.7305205853
 31
2.5952680227993903
  0
LINE
  5
10F
330
17
100
AcDbEntity
  8
0
100
AcDbLine
 10
-1.2013962986000002
 20
0.7305205853
 30
2.5952680227993903
 11
-1.2154265011000003
 21
0.7274505403999999
 31
2.602266054227736
  0
LINE
  5
110
330
17
100
AcDbEntity
  8
0
100
AcDbLine
 10
-1.2154265011000003
 20
0.7274505403999999
 30
2.602266054227736
 11
-1.2675515731000002
 21
0.7150808067
 31
2.6279556995353075
  0
LINE
  5
111
330
17
100
AcDbEntity
  8
0
100
AcDbLine
 10
-1.2675515731000002
 20
0.7150808067
 30
2.6279556995353075
 11
-1.2768065284000003
 21
0.7109320729999999
 31
2.633540002725687
  0
LINE
  5
112
330
17
100
AcDbEntity
  8
0
100
AcDbLine
 10
-1.2768065284000003
 20
0.7109320729999999
 30
2.633540002725687
 11
-1.3085962665000002
 21
0.6954758388
 31
2.653089417229082
  0
LINE
  5
113
330
17
100
AcDbEntity
  8
0
100
AcDbLine
 10
-1.3085962665000002
 20
0.6954758388
 30
2.653089417229082
 11
-1.3465102839000003
 21
0.6575718663999999
 31
2.6873062651695365
  0
LINE
  5
114
330
17
100
AcDbEntity
  8
0
100
AcDbLine
 10
-1.3465102839000003
 20
0.6575718663999999
 30
2.6873062651695365
 11
-1.4231051963000003
 21
0.5786077301999999
 31
2.755425787921808
  0
LINE
  5
115
330
17
100
AcDbEntity
  8
0
100
AcDbLine
 10
-1.4231051963000003
 20
0.5786077301999999
 30
2.755425787921808
 11
-1.5289043881000002
 21
0.4516281135999999
 31
2.8543675288807124
  0
LINE
  5
116
330
17
100
AcDbEntity
  8
0
100
AcDbLine
 10
-1.5289043881000002
 20
0.4516281135999999
 30
2.8543675288807124
 11
-1.5439063667000004
 21
0.4336644465999999
 31
2.8677608934336205
  0
LINE
  5
117
330
17
100
AcDbEntity
  8
0
100
AcDbLine
 10
-1.5439063667000004
 20
0.4336644465999999
 30
2.8677608934336205
 11
-1.5616621478000003
 21
0.4152590638999999
 31
2.8816983321627547
  0
LINE
  5
118
330
17
100
AcDbEntity
  8
0
100
AcDbLine
 10
-1.5616621478000003
 20
0.4152590638999999
 30
2.8816983321627547
 11
-1.6643412514000002
 21
0.30527100039999994
 31
2.960190468940145
  0
LINE
  5
119
330
17
100
AcDbEntity
  8
0
100
AcDbLine
 10
-1.6643412514000002
 20
0.30527100039999994
 30
2.960190468940145
 11
-1.7783202172
 21
0.24782509429999994
 31
3.0031253530724697
  0
LINE
  5
11A
330
17
100
AcDbEntity
  8
0
100
AcDbLine
 10
-1.7783202172
 20
0.24782509429999994
 30
3.0031253530724697
 11
-1.7785962665000001
 21
0.2476902500999999
 31
3.0032209422990537
  0
LINE
  5
11B
330
17
100
AcDbEntity
  8
0
100
AcDbLine
 10
-1.7785962665000001
 20
0.2476902500999999
 30
3.0032209422990537
 11
-1.7828787226000002
 21
0.24746403929999994
 31
3.0036735775816066
  0
LINE
  5
11C
330
17
100
AcDbEntity
  8
0
100
AcDbLine
 10
-1.7828787226000002
 20
0.24746403929999994
 30
3.0036735775816066
 11
-1.8890888835000001
 21
0.24164710799999994
 31
3.0143663010331063
  0
LINE
  5
11D
330
17
100
AcDbEntity
  8
0
100
AcDbLine
 10
-1.8890888835000001
 20
0.24164710799999994
 30
3.0143663010331063
 11
-1.8942149365000003
 21
0.24098014689999991
 31
3.0150533887414745
  0
LINE
  5
11E
330
17
100
AcDbEntity
  8
0
100
AcDbLine
 10
-1.8942149365000003
 20
0.24098014689999991
 30
3.0150533887414745
 11
-1.9994610515000002
 21
0.22819469059999992
 31
3.027956231517429
  0
LINE
  5
11F
330
17
100
AcDbEntity
  8
0
100
AcDbLine
 10
-1.9994610515000002
 20
0.22819469059999992
 30
3.027956231517429
 11
-2.0176338515000003
 21
0.22510501339999994
 31
3.0304833352347464
  0
LINE
  5
120
330
17
100
AcDbEntity
  8
0
100
AcDbLine
 10
-2.0176338515000003
 20
0.22510501339999994
 30
3.0304833352347464
 11
-2.1094033785
 21
0.21004701479999993
 31
3.0423433212307867
  0
LINE
  5
121
330
17
100
AcDbEntity
  8
0
100
AcDbLine
 10
-2.1094033785
 20
0.21004701479999993
 30
3.0423433212307867
 11
-2.1456575845000003
 21
0.20344883339999992
 31
3.0470564178903836
  0
LINE
  5
122
330
17
100
AcDbEntity
  8
0
100
AcDbLine
 10
-2.1456575845000003
 20
0.20344883339999992
 30
3.0470564178903836
 11
-2.2185962665000005
 21
0.19021612729999993
 31
3.0560646595594134
  0
LINE
  5
123
330
17
100
AcDbEntity
  8
0
100
AcDbLine
 10
-2.2185962665000005
 20
0.19021612729999993
 30
3.0560646595594134
 11
-2.2604727315
 21
0.18234650359999993
 31
3.061099527318955
  0
LINE
  5
124
330
17
100
AcDbEntity
  8
0
100
AcDbLine
 10
-2.2604727315
 20
0.18234650359999993
 30
3.061099527318955
 11
-2.3022753515000005
 21
0.1743749967999999
 31
3.065996700076115
  0
LINE
  5
125
330
17
100
AcDbEntity
  8
0
100
AcDbLine
 10
-2.3022753515000005
 20
0.1743749967999999
 30
3.065996700076115
 11
-2.3725338995000005
 21
0.16022129039999994
 31
3.0741633157341175
  0
LINE
  5
126
330
17
100
AcDbEntity
  8
0
100
AcDbLine
 10
-2.3725338995000005
 20
0.16022129039999994
 30
3.0741633157341175
 11
-2.4017295605
 21
0.15426812449999994
 31
3.0774486746784655
  0
LINE
  5
127
330
17
100
AcDbEntity
  8
0
100
AcDbLine
 10
-2.4017295605
 20
0.15426812449999994
 30
3.0774486746784655
 11
-2.5048661945
 21
0.13232446679999993
 31
3.0888147524392866
  0
LINE
  5
128
330
17
100
AcDbEntity
  8
0
100
AcDbLine
 10
-2.5048661945
 20
0.13232446679999993
 30
3.0888147524392866
 11
-2.5070087785000004
 21
0.13185105959999993
 31
3.089048085549708
  0
LINE
  5
129
330
17
100
AcDbEntity
  8
0
100
AcDbLine
 10
-2.5070087785000004
 20
0.13185105959999993
 30
3.089048085549708
 11
-2.5078587515
 21
0.1316577196999999
 31
3.0891427428259366
  0
LINE
  5
12A
330
17
100
AcDbEntity
  8
0
100
AcDbLine
 10
-2.5078587515
 20
0.1316577196999999
 30
3.0891427428259366
 11
-2.6081810375000005
 21
0.10828484009999992
 31
3.100099104555963
  0
LINE
  5
12B
330
17
100
AcDbEntity
  8
0
100
AcDbLine
 10
-2.6081810375000005
 20
0.10828484009999992
 30
3.100099104555963
 11
-2.6478193995000003
 21
0.09863898339999991
 31
3.1043569600764944
  0
LINE
  5
12C
330
17
100
AcDbEntity
  8
0
100
AcDbLine
 10
-2.6478193995000003
 20
0.09863898339999991
 30
3.1043569600764944
 11
-2.6953392735
 21
0.08671152649999991
 31
3.1094328318661946
  0
LINE
  5
12D
330
17
100
AcDbEntity
  8
0
100
AcDbLine
 10
-2.6953392735
 20
0.08671152649999991
 30
3.1094328318661946
 11
-2.7496371995000004
 21
0.07170503349999993
 31
3.1155205646902426
  0
LINE
  5
12E
330
17
100
AcDbEntity
  8
0
100
AcDbLine
 10
-2.7496371995000004
 20
0.07170503349999993
 30
3.1155205646902426
 11
-2.7585962665
 21
0.06911450109999992
 31
3.116543665452273
  0
LINE
  5
12F
330
17
100
AcDbEntity
  8
0
100
AcDbLine
 10
-2.7585962665
 20
0.06911450109999992
 30
3.116543665452273
 11
-2.7630134315
 21
0.06525800099999993
 31
3.1179786276734696
  0
LINE
  5
130
330
17
100
AcDbEntity
  8
0
100
AcDbLine
 10
-2.7630134315
 20
0.06525800099999993
 30
3.1179786276734696
 11
-2.7662981185
 21
0.06177620019999991
 31
3.1192646429261823
  0
LINE
  5
131
330
17
100
AcDbEntity
  8
0
100
AcDbLine
 10
-2.7662981185
 20
0.06177620019999991
 30
3.1192646429261823
 11
-2.7958450535
 21
0.032582718199999916
 31
3.12993920262222
  0
LINE
  5
132
330
17
100
AcDbEntity
  8
0
100
AcDbLine
 10
-2.7958450535
 20
0.032582718199999916
 30
3.12993920262222
 11
-2.8145599625
 21
0.008849484799999918
 31
3.138448483361958
  0
LINE
  5
133
330
17
100
AcDbEntity
  8
0
100
AcDbLine
 10
-2.8145599625
 20
0.008849484799999918
 30
3.138448483361958
 11
-2.8179543585
 21
0.0049709329999999136
 31
3.1398286335910743
  0
LINE
  5
134
330
17
100
AcDbEntity
  8
0
100
AcDbLine
 10
-2.8179543585
 20
0.0049709329999999136
 30
3.1398286335910743
 11
-2.8223454325
 21
-0.0018675144000000754
 31
-3.1409309648730463
  0
ENDSEC
  0
SECTION
  2
OBJECTS
  0
DICTIONARY
  5
A
330
0
100
AcDbDictionary
281
1
  3
ACAD_COLOR
350
B
  3
ACAD_GROUP
350
C
  3
ACAD_LAYOUT
350
D
  3
ACAD_MATERIAL
350
E
  3
ACAD_MLEADERSTYLE
350
F
  3
ACAD_MLINESTYLE
350
10
  3
ACAD_PLOTSETTINGS
350
11
  3
ACAD_PLOTSTYLENAME
350
12
  3
ACAD_SCALELIST
350
14
  3
ACAD_TABLESTYLE
350
15
  3
ACAD_VISUALSTYLE
350
16
  0
DICTIONARY
  5
B
330
A
100
AcDbDictionary
281
1
  0
DICTIONARY
  5
C
330
A
100
AcDbDictionary
281
1
  0
DICTIONARY
  5
D
330
A
100
AcDbDictionary
281
1
  3
Model
350
1A
  3
Layout1
350
1E
  0
DICTIONARY
  5
E
330
A
100
AcDbDictionary
281
1
  3
ByBlock
350
1F
  3
ByLayer
350
20
  3
Global
350
21
  0
DICTIONARY
  5
F
330
A
100
AcDbDictionary
281
1
  3
Standard
350
2C
  0
DICTIONARY
  5
10
330
A
100
AcDbDictionary
281
1
  3
Standard
350
22
  0
DICTIONARY
  5
11
330
A
100
AcDbDictionary
281
1
  0
ACDBDICTIONARYWDFLT
  5
12
330
A
100
AcDbDictionary
281
1
  3
Normal
350
13
100
AcDbDictionaryWithDefault
340
13
  0
ACDBPLACEHOLDER
  5
13
330
12
  0
DICTIONARY
  5
14
330
A
100
AcDbDictionary
281
1
  0
DICTIONARY
  5
15
330
A
100
AcDbDictionary
281
1
  0
DICTIONARY
  5
16
330
A
100
AcDbDictionary
281
1
  0
LAYOUT
  5
1A
330
D
100
AcDbPlotSettings
  1

  2
Adobe PDF
  4
A4
  6

 40
3.175
 41
3.175
 42
3.175
 43
3.175
 44
209.91
 45
297.03
 46
0.0
 47
0.0
 48
0.0
 49
0.0
140
0.0
141
0.0
142
1.0
143
1.0
 70
1024
 72
0
 73
1
 74
5
  7

 75
16
 76
0
 77
2
 78
300
147
1.0
148
0.0
149
0.0
100
AcDbLayout
  1
Model
 70
1
 71
0
 10
-3.175
 20
-3.175
 11
293.857
 21
206.735
 12
0.0
 22
0.0
 32
0.0
 14
29.068
 24
20.356
 34
0.0
 15
261.614
 25
183.204
 35
0.0
146
0.0
 13
0.0
 23
0.0
 33
0.0
 16
1.0
 26
0.0
 36
0.0
 17
0.0
 27
1.0
 37
0.0
 76
1
330
17
  0
LAYOUT
  5
1E
330
D
100
AcDbPlotSettings
  1

  2
Adobe PDF
  4
A4
  6

 40
3.175
 41
3.175
 42
3.175
 43
3.175
 44
209.91
 45
297.03
 46
0.0
 47
0.0
 48
0.0
 49
0.0
140
0.0
141
0.0
142
1.0
143
1.0
 70
0
 72
0
 73
1
 74
5
  7

 75
16
 76
0
 77
2
 78
300
147
1.0
148
0.0
149
0.0
100
AcDbLayout
  1
Layout1
 70
1
 71
1
 10
-3.175
 20
-3.175
 11
293.857
 21
206.735
 12
0.0
 22
0.0
 32
0.0
 14
29.068
 24
20.356
 34
0.0
 15
261.614
 25
183.204
 35
0.0
146
0.0
 13
0.0
 23
0.0
 33
0.0
 16
1.0
 26
0.0
 36
0.0
 17
0.0
 27
1.0
 37
0.0
 76
1
330
1B
  0
MATERIAL
  5
1F
102
{ACAD_REACTORS
330
E
102
}
330
E
100
AcDbMaterial
  1
ByBlock
  2

 70
0
 40
1.0
 71
1
 41
1.0
 91
-1023410177
 42
1.0
 72
1
  3

 73
1
 74
1
 75
1
 44
0.5
 73
0
 45
1.0
 46
1.0
 77
1
  4

 78
1
 79
1
170
1
 48
1.0
171
1
  6

172
1
173
1
174
1
140
1.0
141
1.0
175
1
  7

176
1
177
1
178
1
143
1.0
179
1
  8

270
1
271
1
272
1
145
1.0
146
1.0
273
1
  9

274
1
275
1
276
1
 42
1.0
 72
1
  3

 73
1
 74
1
 75
1
 94
63
  0
MATERIAL
  5
20
102
{ACAD_REACTORS
330
E
102
}
330
E
100
AcDbMaterial
  1
ByLayer
  2

 70
0
 40
1.0
 71
1
 41
1.0
 91
-1023410177
 42
1.0
 72
1
  3

 73
1
 74
1
 75
1
 44
0.5
 73
0
 45
1.0
 46
1.0
 77
1
  4

 78
1
 79
1
170
1
 48
1.0
171
1
  6

172
1
173
1
174
1
140
1.0
141
1.0
175
1
  7

176
1
177
1
178
1
143
1.0
179
1
  8

270
1
271
1
272
1
145
1.0
146
1.0
273
1
  9

274
1
275
1
276
1
 42
1.0
 72
1
  3

 73
1
 74
1
 75
1
 94
63
  0
MATERIAL
  5
21
102
{ACAD_REACTORS
330
E
102
}
330
E
100
AcDbMaterial
  1
Global
  2

 70
0
 40
1.0
 71
1
 41
1.0
 91
-1023410177
 42
1.0
 72
1
  3

 73
1
 74
1
 75
1
 44
0.5
 73
0
 45
1.0
 46
1.0
 77
1
  4

 78
1
 79
1
170
1
 48
1.0
171
1
  6

172
1
173
1
174
1
140
1.0
141
1.0
175
1
  7

176
1
177
1
178
1
143
1.0
179
1
  8

270
1
271
1
272
1
145
1.0
146
1.0
273
1
  9

274
1
275
1
276
1
 42
1.0
 72
1
  3

 73
1
 74
1
 75
1
 94
63
  0
MLINESTYLE
  5
22
102
{ACAD_REACTORS
330
10
102
}
330
10
100
AcDbMlineStyle
  2
Standard
 70
0
  3

 62
256
 51
90.0
 52
90.0
 71
2
 49
0.5
 62
256
  6
BYLAYER
 49
-0.5
 62
256
  6
BYLAYER
  0
MLEADERSTYLE
  5
2C
102
{ACAD_REACTORS
330
F
102
}
330
F
100
AcDbMLeaderStyle
179
2
170
2
171
1
172
0
 90
2
 40
0.0
 41
0.0
173
1
 91
-1056964608
 92
-2
290
1
 42
2.0
291
1
 43
8.0
  3
Standard
 44
4.0
300

342
29
174
1
175
1
176
0
178
1
 93
-1056964608
 45
4.0
292
0
297
0
 46
4.0
 94
-1056964608
 47
1.0
 49
0.0
140
1.0
294
1
141
0.0
177
0
142
1.0
295
0
296
0
143
3.75
271
0
272
9
272
9
  0
ENDSEC
  0
EOF
