  0
SECTION
  2
HEADER
  9
$ACADVER
  1
AC1009
  9
$DWGCODEPAGE
  3
ANSI_1252
  9
$INSBASE
 10
0.0
 20
0.0
 30
0.0
  9
$EXTMIN
 10
-100
 20
-100
 30
-100
  9
$EXTMAX
 10
100
 20
100
 30
100
  9
$LIMMIN
 10
0.0
 20
0.0
  9
$LIMMAX
 10
420.0
 20
297.0
  9
$ORTHOMODE
 70
0
  9
$REGENMODE
 70
1
  9
$DRAGMODE
 70
2
  9
$FILLMODE
 70
1
  9
$QTEXTMODE
 70
0
  9
$MIRRTEXT
 70
1
  9
$OSMODE
 70
20583
  9
$LTSCALE
 40
1.0
  9
$ATTMODE
 70
1
  9
$TEXTSIZE
 40
2.5
  9
$TRACEWID
 40
1.0
  9
$TEXTSTYLE
  7
Standard
  9
$CLAYER
  8
0
  9
$CELTYPE
  6
ByLayer
  9
$CECOLOR
 62
256
  9
$DIMSCALE
 40
1.0
  9
$DIMASZ
 40
2.5
  9
$DIMEXO
 40
0.625
  9
$DIMDLI
 40
3.75
  9
$DIMRND
 40
0.0
  9
$DIMDLE
 40
0.0
  9
$DIMEXE
 40
1.25
  9
$DIMTP
 40
0.0
  9
$DIMTM
 40
0.0
  9
$DIMTXT
 40
2.5
  9
$DIMCEN
 40
2.5
  9
$DIMTSZ
 40
0.0
  9
$DIMTOL
 70
0
  9
$DIMLIM
 70
0
  9
$DIMTIH
 70
0
  9
$DIMTOH
 70
0
  9
$DIMSE1
 70
0
  9
$DIMSE2
 70
0
  9
$DIMTAD
 70
1
  9
$DIMZIN
 70
8
  9
$DIMBLK
  1

  9
$DIMASO
 70
1
  9
$DIMSHO
 70
1
  9
$DIMPOST
  1

  9
$DIMAPOST
  1

  9
$DIMALT
 70
0
  9
$DIMALTD
 70
3
  9
$DIMALTF
 40
0.03937007874
  9
$DIMLFAC
 40
1.0
  9
$DIMTOFL
 70
1
  9
$DIMTVP
 40
0.0
  9
$DIMTIX
 70
0
  9
$DIMSOXD
 70
0
  9
$DIMSAH
 70
0
  9
$DIMBLK1
  1

  9
$DIMBLK2
  1

  9
$DIMSTYLE
  2
ISO-25
  9
$DIMCLRD
 70
0
  9
$DIMCLRE
 70
0
  9
$DIMCLRT
 70
0
  9
$DIMTFAC
 40
1.0
  9
$DIMGAP
 40
0.625
  9
$COORDS
 70
1
  9
$ATTDIA
 70
0
  9
$ATTREQ
 70
1
  9
$HANDLING
 70
1
  9
$LUNITS
 70
2
  9
$LUPREC
 70
4
  9
$SKETCHINC
 40
1.0
  9
$FILLETRAD
 40
10.0
  9
$AUNITS
 70
0
  9
$AUPREC
 70
2
  9
$MENU
  1
.
  9
$ELEVATION
 40
0.0
  9
$PELEVATION
 40
0.0
  9
$THICKNESS
 40
0.0
  9
$LIMCHECK
 70
0
  9
$CHAMFERA
 40
0.0
  9
$CHAMFERB
 40
0.0
  9
$SKPOLY
 70
0
  9
$TDCREATE
 40
2459751.945671296
  9
$TDUPDATE
 40
2459751.945671296
  9
$TDINDWG
 40
0.0
  9
$TDUSRTIMER
 40
0.0
  9
$USRTIMER
 70
1
  9
$ANGBASE
 50
0.0
  9
$ANGDIR
 70
0
  9
$PDMODE
 70
0
  9
$PDSIZE
 40
0.0
  9
$PLINEWID
 40
0.0
  9
$SPLFRAME
 70
0
  9
$SPLINETYPE
 70
6
  9
$SPLINESEGS
 70
8
  9
$HANDSEED
  5
D8
  9
$SURFTAB1
 70
6
  9
$SURFTAB2
 70
6
  9
$SURFTYPE
 70
6
  9
$SURFU
 70
6
  9
$SURFV
 70
6
  9
$UCSNAME
  2

  9
$UCSORG
 10
0.0
 20
0.0
 30
0.0
  9
$UCSXDIR
 10
1.0
 20
0.0
 30
0.0
  9
$UCSYDIR
 10
0.0
 20
1.0
 30
0.0
  9
$PUCSNAME
  2

  9
$PUCSORG
 10
0.0
 20
0.0
 30
0.0
  9
$PUCSXDIR
 10
1.0
 20
0.0
 30
0.0
  9
$PUCSYDIR
 10
0.0
 20
1.0
 30
0.0
  9
$USERI1
 70
0
  9
$USERI2
 70
0
  9
$USERI3
 70
0
  9
$USERI4
 70
0
  9
$USERI5
 70
0
  9
$USERR1
 40
0.0
  9
$USERR2
 40
0.0
  9
$USERR3
 40
0.0
  9
$USERR4
 40
0.0
  9
$USERR5
 40
0.0
  9
$WORLDVIEW
 70
1
  9
$SHADEDGE
 70
3
  9
$SHADEDIF
 70
70
  9
$TILEMODE
 70
1
  9
$MAXACTVP
 70
64
  9
$PLIMCHECK
 70
0
  9
$PEXTMIN
 10
1e+20
 20
1e+20
 30
1e+20
  9
$PEXTMAX
 10
-1e+20
 20
-1e+20
 30
-1e+20
  9
$PLIMMIN
 10
0.0
 20
0.0
  9
$PLIMMAX
 10
420.0
 20
297.0
  9
$UNITMODE
 70
0
  9
$VISRETAIN
 70
1
  9
$PLINEGEN
 70
0
  9
$PSLTSCALE
 70
1
  0
ENDSEC
  0
SECTION
  2
TABLES
  0
TABLE
  2
VPORT
 70
1
  0
VPORT
  5
23
  2
*Active
 70
0
 10
0.0
 20
0.0
 11
1.0
 21
1.0
 12
70.0
 22
50.0
 13
0.0
 23
0.0
 14
0.5
 24
0.5
 15
0.5
 25
0.5
 16
0.0
 26
0.0
 36
1.0
 17
0.0
 27
0.0
 37
0.0
 40
1.0
 41
1.34
 42
50.0
 43
0.0
 44
0.0
 50
0.0
 51
0.0
 71
0
 72
1000
 73
1
 74
3
 75
0
 76
0
 77
0
 78
0
  0
ENDTAB
  0
TABLE
  2
LTYPE
 70
3
  0
LTYPE
  5
24
  2
ByBlock
 70
0
  3

 72
65
 73
0
 40
0.0
  0
LTYPE
  5
25
  2
ByLayer
 70
0
  3

 72
65
 73
0
 40
0.0
  0
LTYPE
  5
26
  2
Continuous
 70
0
  3

 72
65
 73
0
 40
0.0
  0
ENDTAB
  0
TABLE
  2
LAYER
 70
2
  0
LAYER
  5
27
  2
0
 70
0
 62
7
  6
Continuous
  0
LAYER
  5
28
  2
Defpoints
 70
0
 62
7
  6
Continuous
  0
ENDTAB
  0
TABLE
  2
STYLE
 70
1
  0
STYLE
  5
29
  2
Standard
 70
0
 40
0.0
 41
1.0
 50
0.0
 71
0
 42
2.5
  3
txt
  4

  0
ENDTAB
  0
TABLE
  2
VIEW
 70
0
  0
ENDTAB
  0
TABLE
  2
UCS
 70
0
  0
ENDTAB
  0
TABLE
  2
APPID
 70
2
  0
APPID
  5
2A
  2
ACAD
 70
0
  0
APPID
  5
D7
  2
HATCHBACKGROUNDCOLOR
 70
0
  0
ENDTAB
  0
TABLE
  2
DIMSTYLE
 70
1
  0
DIMSTYLE
105
2B
  2
Standard
 70
0
  3

  4

  5

  6

  7

 40
1.0
 41
2.5
 42
0.625
 43
3.75
 44
1.25
 45
0.0
 46
0.0
 47
0.0
 48
0.0
140
2.5
141
2.5
142
0.0
143
0.03937007874
144
1.0
145
0.0
146
1.0
147
0.625
 71
0
 72
0
 73
0
 74
0
 75
0
 76
0
 77
1
 78
8
170
0
171
3
172
1
173
0
174
0
175
0
176
0
177
0
178
0
  0
ENDTAB
  0
ENDSEC
  0
SECTION
  2
BLOCKS
  0
BLOCK
  5
18
  8
0
  2
$Model_Space
 70
0
 10
0.0
 20
0.0
 30
0.0
  3
$Model_Space
  1

  0
ENDBLK
  5
19
  8
0
  0
BLOCK
  5
1C
  8
0
  2
$Paper_Space
 70
0
 10
0.0
 20
0.0
 30
0.0
  3
$Paper_Space
  1

  0
ENDBLK
  5
1D
  8
0
  0
ENDSEC
  0
SECTION
  2
ENTITIES
  0
LINE
  5
2D
  8
0
 10
-4.9156289682
 20
-6.938893904e-18
 30
0.0
 11
-4.91361382369
 21
-0.0135892366
 31
0.0
  0
LINE
  5
2E
  8
0
 10
-4.91361382369
 20
-0.0135892366
 30
0.0
 11
-4.90666136899
 21
-0.02986583113
 31
0.0
  0
LINE
  5
2F
  8
0
 10
-4.90666136899
 20
-0.02986583113
 30
0.0
 11
-4.889626064050001
 21
-0.05578746848
 31
0.0
  0
LINE
  5
30
  8
0
 10
-4.889626064050001
 20
-0.05578746848
 30
0.0
 11
-4.865783432150001
 21
-0.08467012732
 31
0.0
  0
LINE
  5
31
  8
0
 10
-4.865783432150001
 20
-0.08467012732
 30
0.0
 11
-4.8511115113
 21
-0.09805745574
 31
0.0
  0
LINE
  5
32
  8
0
 10
-4.8511115113
 20
-0.09805745574
 30
0.0
 11
-4.824206006000001
 21
-0.1226072635
 31
0.0
  0
LINE
  5
33
  8
0
 10
-4.824206006000001
 20
-0.1226072635
 30
0.0
 11
-4.791153646600001
 21
-0.1497169687
 31
0.0
  0
LINE
  5
34
  8
0
 10
-4.791153646600001
 20
-0.1497169687
 30
0.0
 11
-4.761395037300001
 21
-0.1741251241
 31
0.0
  0
LINE
  5
35
  8
0
 10
-4.761395037300001
 20
-0.1741251241
 30
0.0
 11
-4.7002065468000005
 21
-0.2125997053
 31
0.0
  0
LINE
  5
36
  8
0
 10
-4.7002065468000005
 20
-0.2125997053
 30
0.0
 11
-4.6395113808
 21
-0.2507640899
 31
0.0
  0
LINE
  5
37
  8
0
 10
-4.6395113808
 20
-0.2507640899
 30
0.0
 11
-4.5840166052
 21
-0.2778151408
 31
0.0
  0
LINE
  5
38
  8
0
 10
-4.5840166052
 20
-0.2778151408
 30
0.0
 11
-4.4996950811000005
 21
-0.3189178538
 31
0.0
  0
LINE
  5
39
  8
0
 10
-4.4996950811000005
 20
-0.3189178538
 30
0.0
 11
-4.4467035198
 21
-0.3390725552
 31
0.0
  0
LINE
  5
3A
  8
0
 10
-4.4467035198
 20
-0.3390725552
 30
0.0
 11
-4.341508756500001
 21
-0.3790821149
 31
0.0
  0
LINE
  5
3B
  8
0
 10
-4.341508756500001
 20
-0.3790821149
 30
0.0
 11
-4.2893412097
 21
-0.3946063289
 31
0.0
  0
LINE
  5
3C
  8
0
 10
-4.2893412097
 20
-0.3946063289
 30
0.0
 11
-4.1645150257
 21
-0.4317525722
 31
0.0
  0
LINE
  5
3D
  8
0
 10
-4.1645150257
 20
-0.4317525722
 30
0.0
 11
-4.1121330591000005
 21
-0.4439438977
 31
0.0
  0
LINE
  5
3E
  8
0
 10
-4.1121330591000005
 20
-0.4439438977
 30
0.0
 11
-3.9682765069000006
 21
-0.4774249248
 31
0.0
  0
LINE
  5
3F
  8
0
 10
-3.9682765069000006
 20
-0.4774249248
 30
0.0
 11
-3.9149558548000005
 21
-0.4870977688
 31
0.0
  0
LINE
  5
40
  8
0
 10
-3.9149558548000005
 20
-0.4870977688
 30
0.0
 11
-3.7523558188000004
 21
-0.5165948719
 31
0.0
  0
LINE
  5
41
  8
0
 10
-3.7523558188000004
 20
-0.5165948719
 30
0.0
 11
-3.6975412678
 21
-0.5242962204
 31
0.0
  0
LINE
  5
42
  8
0
 10
-3.6975412678
 20
-0.5242962204
 30
0.0
 11
-3.5163155798000005
 21
-0.5497581124
 31
0.0
  0
LINE
  5
43
  8
0
 10
-3.5163155798000005
 20
-0.5497581124
 30
0.0
 11
-3.4595486708000003
 21
-0.5558756069
 31
0.0
  0
LINE
  5
44
  8
0
 10
-3.4595486708000003
 20
-0.5558756069
 30
0.0
 11
-3.2597184078000003
 21
-0.5774103455
 31
0.0
  0
LINE
  5
45
  8
0
 10
-3.2597184078000003
 20
-0.5774103455
 30
0.0
 11
-3.2005985248
 21
-0.5822314312
 31
0.0
  0
LINE
  5
46
  8
0
 10
-3.2005985248
 20
-0.5822314312
 30
0.0
 11
-2.9821269228
 21
-0.6000472702
 31
0.0
  0
LINE
  5
47
  8
0
 10
-2.9821269228
 20
-0.6000472702
 30
0.0
 11
-2.9202894198000005
 21
-0.6037939013
 31
0.0
  0
LINE
  5
48
  8
0
 10
-2.9202894198000005
 20
-0.6037939013
 30
0.0
 11
-2.6831037408000005
 21
-0.6181645856
 31
0.0
  0
LINE
  5
49
  8
0
 10
-2.6831037408000005
 20
-0.6181645856
 30
0.0
 11
-2.6182076908000003
 21
-0.6210147832
 31
0.0
  0
LINE
  5
4A
  8
0
 10
-2.6182076908000003
 20
-0.6210147832
 30
0.0
 11
-2.3622114828000003
 21
-0.6322579909
 31
0.0
  0
LINE
  5
4B
  8
0
 10
-2.3622114828000003
 20
-0.6322579909
 30
0.0
 11
-2.2939334298000005
 21
-0.6343598953
 31
0.0
  0
LINE
  5
4C
  8
0
 10
-2.2939334298000005
 20
-0.6343598953
 30
0.0
 11
-2.0190127658000003
 21
-0.642823185
 31
0.0
  0
LINE
  5
4D
  8
0
 10
-2.0190127658000003
 20
-0.642823185
 30
0.0
 11
-1.9470446858000003
 21
-0.6443045997
 31
0.0
  0
LINE
  5
4E
  8
0
 10
-1.9470446858000003
 20
-0.6443045997
 30
0.0
 11
-1.6530702088000004
 21
-0.6503558672
 31
0.0
  0
LINE
  5
4F
  8
0
 10
-1.6530702088000004
 20
-0.6503558672
 30
0.0
 11
-1.5771207658000002
 21
-0.6513309643
 31
0.0
  0
LINE
  5
50
  8
0
 10
-1.5771207658000002
 20
-0.6513309643
 30
0.0
 11
-1.2639464298000003
 21
-0.6553517363
 31
0.0
  0
LINE
  5
51
  8
0
 10
-1.2639464298000003
 20
-0.6553517363
 30
0.0
 11
-1.1837450908000005
 21
-0.6559258846
 31
0.0
  0
LINE
  5
52
  8
0
 10
-1.1837450908000005
 20
-0.6559258846
 30
0.0
 11
-0.8512040478000005
 21
-0.6583064916
 31
0.0
  0
LINE
  5
53
  8
0
 10
-0.8512040478000005
 20
-0.6583064916
 30
0.0
 11
-0.7665078358000006
 21
-0.658579766
 31
0.0
  0
LINE
  5
54
  8
0
 10
-0.7665078358000006
 20
-0.658579766
 30
0.0
 11
-0.41440567980000065
 21
-0.6597158322
 31
0.0
  0
LINE
  5
55
  8
0
 10
-0.41440567980000065
 20
-0.6597158322
 30
0.0
 11
-0.32500839880000054
 21
-0.6597855266
 31
0.0
  0
LINE
  5
56
  8
0
 10
-0.32500839880000054
 20
-0.6597855266
 30
0.0
 11
0.04688605319999972
 21
-0.660075457
 31
0.0
  0
LINE
  5
57
  8
0
 10
0.04688605319999972
 20
-0.660075457
 30
0.0
 11
0.08155266220000001
 21
-0.6593404491
 31
0.0
  0
LINE
  5
58
  8
0
 10
0.08155266220000001
 20
-0.6593404491
 30
0.0
 11
0.22475454719999988
 21
-0.6563042561
 31
0.0
  0
LINE
  5
59
  8
0
 10
0.22475454719999988
 20
-0.6563042561
 30
0.0
 11
0.26728014720000015
 21
-0.6541471605
 31
0.0
  0
LINE
  5
5A
  8
0
 10
0.26728014720000015
 20
-0.6541471605
 30
0.0
 11
0.43936309019999964
 21
-0.6454183155
 31
0.0
  0
LINE
  5
5B
  8
0
 10
0.43936309019999964
 20
-0.6454183155
 30
0.0
 11
0.4895517591999994
 21
-0.6418844318
 31
0.0
  0
LINE
  5
5C
  8
0
 10
0.4895517591999994
 20
-0.6418844318
 30
0.0
 11
0.6859004871999996
 21
-0.6280591281
 31
0.0
  0
LINE
  5
5D
  8
0
 10
0.6859004871999996
 20
-0.6280591281
 30
0.0
 11
0.7437225021999998
 21
-0.6231589921
 31
0.0
  0
LINE
  5
5E
  8
0
 10
0.7437225021999998
 20
-0.6231589921
 30
0.0
 11
0.9595555382000001
 21
-0.6048681867
 31
0.0
  0
LINE
  5
5F
  8
0
 10
0.9595555382000001
 20
-0.6048681867
 30
0.0
 11
1.0251346932
 21
-0.5985794796
 31
0.0
  0
LINE
  5
60
  8
0
 10
1.0251346932
 20
-0.5985794796
 30
0.0
 11
1.2555170491999998
 21
-0.5764869844
 31
0.0
  0
LINE
  5
61
  8
0
 10
1.2555170491999998
 20
-0.5764869844
 30
0.0
 11
1.3291301851999995
 21
-0.5687536106
 31
0.0
  0
LINE
  5
62
  8
0
 10
1.3291301851999995
 20
-0.5687536106
 30
0.0
 11
1.5689738211999993
 21
-0.5435570141
 31
0.0
  0
LINE
  5
63
  8
0
 10
1.5689738211999993
 20
-0.5435570141
 30
0.0
 11
1.6510622622
 21
-0.5342852157
 31
0.0
  0
LINE
  5
64
  8
0
 10
1.6510622622
 20
-0.5342852157
 30
0.0
 11
1.8951146581999998
 21
-0.5067197686
 31
0.0
  0
LINE
  5
65
  8
0
 10
1.8951146581999998
 20
-0.5067197686
 30
0.0
 11
1.9863093651999995
 21
-0.4957705655
 31
0.0
  0
LINE
  5
66
  8
0
 10
1.9863093651999995
 20
-0.4957705655
 30
0.0
 11
2.2291283622
 21
-0.4666167409
 31
0.0
  0
LINE
  5
67
  8
0
 10
2.2291283622
 20
-0.4666167409
 30
0.0
 11
2.3302934802
 21
-0.453793158
 31
0.0
  0
LINE
  5
68
  8
0
 10
2.3302934802
 20
-0.453793158
 30
0.0
 11
2.5662037381999996
 21
-0.423889424
 31
0.0
  0
LINE
  5
69
  8
0
 10
2.5662037381999996
 20
-0.423889424
 30
0.0
 11
2.6785077772
 21
-0.4089155521
 31
0.0
  0
LINE
  5
6A
  8
0
 10
2.6785077772
 20
-0.4089155521
 30
0.0
 11
2.9015295871999998
 21
-0.3791793108
 31
0.0
  0
LINE
  5
6B
  8
0
 10
2.9015295871999998
 20
-0.3791793108
 30
0.0
 11
3.0265621562
 21
-0.36166551
 31
0.0
  0
LINE
  5
6C
  8
0
 10
3.0265621562
 20
-0.36166551
 30
0.0
 11
3.2302947131999993
 21
-0.3331278942
 31
0.0
  0
LINE
  5
6D
  8
0
 10
3.2302947131999993
 20
-0.3331278942
 30
0.0
 11
3.3702647262000003
 21
-0.3125106606
 31
0.0
  0
LINE
  5
6E
  8
0
 10
3.3702647262000003
 20
-0.3125106606
 30
0.0
 11
3.5476879191999995
 21
-0.2863766671
 31
0.0
  0
LINE
  5
6F
  8
0
 10
3.5476879191999995
 20
-0.2863766671
 30
0.0
 11
3.705780815199999
 21
-0.2618082454
 31
0.0
  0
LINE
  5
70
  8
0
 10
3.705780815199999
 20
-0.2618082454
 30
0.0
 11
3.848898008199999
 21
-0.2395671224
 31
0.0
  0
LINE
  5
71
  8
0
 10
3.848898008199999
 20
-0.2395671224
 30
0.0
 11
4.0299768602
 21
-0.2096950788
 31
0.0
  0
LINE
  5
72
  8
0
 10
4.0299768602
 20
-0.2096950788
 30
0.0
 11
4.129113783199999
 21
-0.1933407532
 31
0.0
  0
LINE
  5
73
  8
0
 10
4.129113783199999
 20
-0.1933407532
 30
0.0
 11
4.341269996199999
 21
-0.1558132168
 31
0.0
  0
LINE
  5
74
  8
0
 10
4.341269996199999
 20
-0.1558132168
 30
0.0
 11
4.3835240472
 21
-0.1483390523
 31
0.0
  0
LINE
  5
75
  8
0
 10
4.3835240472
 20
-0.1483390523
 30
0.0
 11
4.5170243712
 21
-0.1226072635
 31
0.0
  0
LINE
  5
76
  8
0
 10
4.5170243712
 20
-0.1226072635
 30
0.0
 11
4.6073176032
 21
-0.1032462774
 31
0.0
  0
LINE
  5
77
  8
0
 10
4.6073176032
 20
-0.1032462774
 30
0.0
 11
4.761927399199999
 21
-0.06614882129
 31
0.0
  0
LINE
  5
78
  8
0
 10
4.761927399199999
 20
-0.06614882129
 30
0.0
 11
4.7956832542
 21
-0.05804935809
 31
0.0
  0
LINE
  5
79
  8
0
 10
4.7956832542
 20
-0.05804935809
 30
0.0
 11
4.8037191582
 21
-0.05578746848
 31
0.0
  0
LINE
  5
7A
  8
0
 10
4.8037191582
 20
-0.05578746848
 30
0.0
 11
4.8076705872000005
 21
-0.05439039127
 31
0.0
  0
LINE
  5
7B
  8
0
 10
4.8076705872000005
 20
-0.05439039127
 30
0.0
 11
4.8770347282
 21
-0.02986583113
 31
0.0
  0
LINE
  5
7C
  8
0
 10
4.8770347282
 20
-0.02986583113
 30
0.0
 11
4.892324197199999
 21
-0.02154873952
 31
0.0
  0
LINE
  5
7D
  8
0
 10
4.892324197199999
 20
-0.02154873952
 30
0.0
 11
4.9069563041999995
 21
-0.0135892366
 31
0.0
  0
LINE
  5
7E
  8
0
 10
4.9069563041999995
 20
-0.0135892366
 30
0.0
 11
4.912606197200001
 21
-0.004736393627
 31
0.0
  0
LINE
  5
7F
  8
0
 10
4.912606197200001
 20
-0.004736393627
 30
0.0
 11
4.9156289682
 21
-1.776356839e-15
 31
0.0
  0
LINE
  5
80
  8
0
 10
4.9156289682
 20
-1.776356839e-15
 30
0.0
 11
4.912606197200001
 21
0.004736393627
 31
0.0
  0
LINE
  5
81
  8
0
 10
4.912606197200001
 20
0.004736393627
 30
0.0
 11
4.9069563041999995
 21
0.0135892366
 31
0.0
  0
LINE
  5
82
  8
0
 10
4.9069563041999995
 20
0.0135892366
 30
0.0
 11
4.892324197199999
 21
0.02154873952
 31
0.0
  0
LINE
  5
83
  8
0
 10
4.892324197199999
 20
0.02154873952
 30
0.0
 11
4.8770347282
 21
0.02986583113
 31
0.0
  0
LINE
  5
84
  8
0
 10
4.8770347282
 20
0.02986583113
 30
0.0
 11
4.8076705872000005
 21
0.05439039127
 31
0.0
  0
LINE
  5
85
  8
0
 10
4.8076705872000005
 20
0.05439039127
 30
0.0
 11
4.8037191582
 21
0.05578746848
 31
0.0
  0
LINE
  5
86
  8
0
 10
4.8037191582
 20
0.05578746848
 30
0.0
 11
4.7956832542
 21
0.05804935809
 31
0.0
  0
LINE
  5
87
  8
0
 10
4.7956832542
 20
0.05804935809
 30
0.0
 11
4.761927399199999
 21
0.06614882129
 31
0.0
  0
LINE
  5
88
  8
0
 10
4.761927399199999
 20
0.06614882129
 30
0.0
 11
4.6073176032
 21
0.1032462774
 31
0.0
  0
LINE
  5
89
  8
0
 10
4.6073176032
 20
0.1032462774
 30
0.0
 11
4.5170243712
 21
0.1226072635
 31
0.0
  0
LINE
  5
8A
  8
0
 10
4.5170243712
 20
0.1226072635
 30
0.0
 11
4.3835240472
 21
0.1483390523
 31
0.0
  0
LINE
  5
8B
  8
0
 10
4.3835240472
 20
0.1483390523
 30
0.0
 11
4.341269996199999
 21
0.1558132168
 31
0.0
  0
LINE
  5
8C
  8
0
 10
4.341269996199999
 20
0.1558132168
 30
0.0
 11
4.129113783199999
 21
0.1933407532
 31
0.0
  0
LINE
  5
8D
  8
0
 10
4.129113783199999
 20
0.1933407532
 30
0.0
 11
4.0299768602
 21
0.2096950788
 31
0.0
  0
LINE
  5
8E
  8
0
 10
4.0299768602
 20
0.2096950788
 30
0.0
 11
3.848898008199999
 21
0.2395671224
 31
0.0
  0
LINE
  5
8F
  8
0
 10
3.848898008199999
 20
0.2395671224
 30
0.0
 11
3.705780815199999
 21
0.2618082454
 31
0.0
  0
LINE
  5
90
  8
0
 10
3.705780815199999
 20
0.2618082454
 30
0.0
 11
3.5476879191999995
 21
0.2863766671
 31
0.0
  0
LINE
  5
91
  8
0
 10
3.5476879191999995
 20
0.2863766671
 30
0.0
 11
3.3702647262000003
 21
0.3125106606
 31
0.0
  0
LINE
  5
92
  8
0
 10
3.3702647262000003
 20
0.3125106606
 30
0.0
 11
3.2302947131999993
 21
0.3331278942
 31
0.0
  0
LINE
  5
93
  8
0
 10
3.2302947131999993
 20
0.3331278942
 30
0.0
 11
3.0265621562
 21
0.36166551
 31
0.0
  0
LINE
  5
94
  8
0
 10
3.0265621562
 20
0.36166551
 30
0.0
 11
2.9015295871999998
 21
0.3791793108
 31
0.0
  0
LINE
  5
95
  8
0
 10
2.9015295871999998
 20
0.3791793108
 30
0.0
 11
2.6785077772
 21
0.4089155521
 31
0.0
  0
LINE
  5
96
  8
0
 10
2.6785077772
 20
0.4089155521
 30
0.0
 11
2.5662037381999996
 21
0.423889424
 31
0.0
  0
LINE
  5
97
  8
0
 10
2.5662037381999996
 20
0.423889424
 30
0.0
 11
2.3302934802
 21
0.453793158
 31
0.0
  0
LINE
  5
98
  8
0
 10
2.3302934802
 20
0.453793158
 30
0.0
 11
2.2291283622
 21
0.4666167409
 31
0.0
  0
LINE
  5
99
  8
0
 10
2.2291283622
 20
0.4666167409
 30
0.0
 11
1.9863093651999995
 21
0.4957705655
 31
0.0
  0
LINE
  5
9A
  8
0
 10
1.9863093651999995
 20
0.4957705655
 30
0.0
 11
1.8951146581999998
 21
0.5067197686
 31
0.0
  0
LINE
  5
9B
  8
0
 10
1.8951146581999998
 20
0.5067197686
 30
0.0
 11
1.6510622622
 21
0.5342852157
 31
0.0
  0
LINE
  5
9C
  8
0
 10
1.6510622622
 20
0.5342852157
 30
0.0
 11
1.5689738211999993
 21
0.5435570141
 31
0.0
  0
LINE
  5
9D
  8
0
 10
1.5689738211999993
 20
0.5435570141
 30
0.0
 11
1.3291301851999995
 21
0.5687536106
 31
0.0
  0
LINE
  5
9E
  8
0
 10
1.3291301851999995
 20
0.5687536106
 30
0.0
 11
1.2555170491999998
 21
0.5764869844
 31
0.0
  0
LINE
  5
9F
  8
0
 10
1.2555170491999998
 20
0.5764869844
 30
0.0
 11
1.0251346932
 21
0.5985794796
 31
0.0
  0
LINE
  5
A0
  8
0
 10
1.0251346932
 20
0.5985794796
 30
0.0
 11
0.9595555382000001
 21
0.6048681867
 31
0.0
  0
LINE
  5
A1
  8
0
 10
0.9595555382000001
 20
0.6048681867
 30
0.0
 11
0.7437225021999998
 21
0.6231589921
 31
0.0
  0
LINE
  5
A2
  8
0
 10
0.7437225021999998
 20
0.6231589921
 30
0.0
 11
0.6859004871999996
 21
0.6280591281
 31
0.0
  0
LINE
  5
A3
  8
0
 10
0.6859004871999996
 20
0.6280591281
 30
0.0
 11
0.4895517591999994
 21
0.6418844318
 31
0.0
  0
LINE
  5
A4
  8
0
 10
0.4895517591999994
 20
0.6418844318
 30
0.0
 11
0.43936309019999964
 21
0.6454183155
 31
0.0
  0
LINE
  5
A5
  8
0
 10
0.43936309019999964
 20
0.6454183155
 30
0.0
 11
0.26728014720000015
 21
0.6541471605
 31
0.0
  0
LINE
  5
A6
  8
0
 10
0.26728014720000015
 20
0.6541471605
 30
0.0
 11
0.22475454719999988
 21
0.6563042561
 31
0.0
  0
LINE
  5
A7
  8
0
 10
0.22475454719999988
 20
0.6563042561
 30
0.0
 11
0.08155266220000001
 21
0.6593404491
 31
0.0
  0
LINE
  5
A8
  8
0
 10
0.08155266220000001
 20
0.6593404491
 30
0.0
 11
0.04688605319999972
 21
0.660075457
 31
0.0
  0
LINE
  5
A9
  8
0
 10
0.04688605319999972
 20
0.660075457
 30
0.0
 11
-0.32500839880000054
 21
0.6597855266
 31
0.0
  0
LINE
  5
AA
  8
0
 10
-0.32500839880000054
 20
0.6597855266
 30
0.0
 11
-0.41440567980000065
 21
0.6597158322
 31
0.0
  0
LINE
  5
AB
  8
0
 10
-0.41440567980000065
 20
0.6597158322
 30
0.0
 11
-0.7665078358000006
 21
0.658579766
 31
0.0
  0
LINE
  5
AC
  8
0
 10
-0.7665078358000006
 20
0.658579766
 30
0.0
 11
-0.8512040478000005
 21
0.6583064916
 31
0.0
  0
LINE
  5
AD
  8
0
 10
-0.8512040478000005
 20
0.6583064916
 30
0.0
 11
-1.1837450908000005
 21
0.6559258846
 31
0.0
  0
LINE
  5
AE
  8
0
 10
-1.1837450908000005
 20
0.6559258846
 30
0.0
 11
-1.2639464298000003
 21
0.6553517363
 31
0.0
  0
LINE
  5
AF
  8
0
 10
-1.2639464298000003
 20
0.6553517363
 30
0.0
 11
-1.5771207658000002
 21
0.6513309643
 31
0.0
  0
LINE
  5
B0
  8
0
 10
-1.5771207658000002
 20
0.6513309643
 30
0.0
 11
-1.6530702088000004
 21
0.6503558672
 31
0.0
  0
LINE
  5
B1
  8
0
 10
-1.6530702088000004
 20
0.6503558672
 30
0.0
 11
-1.9470446858000003
 21
0.6443045997
 31
0.0
  0
LINE
  5
B2
  8
0
 10
-1.9470446858000003
 20
0.6443045997
 30
0.0
 11
-2.0190127658000003
 21
0.642823185
 31
0.0
  0
LINE
  5
B3
  8
0
 10
-2.0190127658000003
 20
0.642823185
 30
0.0
 11
-2.2939334298000005
 21
0.6343598953
 31
0.0
  0
LINE
  5
B4
  8
0
 10
-2.2939334298000005
 20
0.6343598953
 30
0.0
 11
-2.3622114828000003
 21
0.6322579909
 31
0.0
  0
LINE
  5
B5
  8
0
 10
-2.3622114828000003
 20
0.6322579909
 30
0.0
 11
-2.6182076908000003
 21
0.6210147832
 31
0.0
  0
LINE
  5
B6
  8
0
 10
-2.6182076908000003
 20
0.6210147832
 30
0.0
 11
-2.6831037408000005
 21
0.6181645856
 31
0.0
  0
LINE
  5
B7
  8
0
 10
-2.6831037408000005
 20
0.6181645856
 30
0.0
 11
-2.9202894198000005
 21
0.6037939013
 31
0.0
  0
LINE
  5
B8
  8
0
 10
-2.9202894198000005
 20
0.6037939013
 30
0.0
 11
-2.9821269228
 21
0.6000472702
 31
0.0
  0
LINE
  5
B9
  8
0
 10
-2.9821269228
 20
0.6000472702
 30
0.0
 11
-3.2005985248
 21
0.5822314312
 31
0.0
  0
LINE
  5
BA
  8
0
 10
-3.2005985248
 20
0.5822314312
 30
0.0
 11
-3.2597184078000003
 21
0.5774103455
 31
0.0
  0
LINE
  5
BB
  8
0
 10
-3.2597184078000003
 20
0.5774103455
 30
0.0
 11
-3.4595486708000003
 21
0.5558756069
 31
0.0
  0
LINE
  5
BC
  8
0
 10
-3.4595486708000003
 20
0.5558756069
 30
0.0
 11
-3.5163155798000005
 21
0.5497581124
 31
0.0
  0
LINE
  5
BD
  8
0
 10
-3.5163155798000005
 20
0.5497581124
 30
0.0
 11
-3.6975412678
 21
0.5242962204
 31
0.0
  0
LINE
  5
BE
  8
0
 10
-3.6975412678
 20
0.5242962204
 30
0.0
 11
-3.7523558188000004
 21
0.5165948719
 31
0.0
  0
LINE
  5
BF
  8
0
 10
-3.7523558188000004
 20
0.5165948719
 30
0.0
 11
-3.9149558548000005
 21
0.4870977688
 31
0.0
  0
LINE
  5
C0
  8
0
 10
-3.9149558548000005
 20
0.4870977688
 30
0.0
 11
-3.9682765069000006
 21
0.4774249248
 31
0.0
  0
LINE
  5
C1
  8
0
 10
-3.9682765069000006
 20
0.4774249248
 30
0.0
 11
-4.1121330591000005
 21
0.4439438977
 31
0.0
  0
LINE
  5
C2
  8
0
 10
-4.1121330591000005
 20
0.4439438977
 30
0.0
 11
-4.1645150257
 21
0.4317525722
 31
0.0
  0
LINE
  5
C3
  8
0
 10
-4.1645150257
 20
0.4317525722
 30
0.0
 11
-4.2893412097
 21
0.3946063289
 31
0.0
  0
LINE
  5
C4
  8
0
 10
-4.2893412097
 20
0.3946063289
 30
0.0
 11
-4.341508756500001
 21
0.3790821149
 31
0.0
  0
LINE
  5
C5
  8
0
 10
-4.341508756500001
 20
0.3790821149
 30
0.0
 11
-4.4467035198
 21
0.3390725552
 31
0.0
  0
LINE
  5
C6
  8
0
 10
-4.4467035198
 20
0.3390725552
 30
0.0
 11
-4.4996950811000005
 21
0.3189178538
 31
0.0
  0
LINE
  5
C7
  8
0
 10
-4.4996950811000005
 20
0.3189178538
 30
0.0
 11
-4.5840166052
 21
0.2778151408
 31
0.0
  0
LINE
  5
C8
  8
0
 10
-4.5840166052
 20
0.2778151408
 30
0.0
 11
-4.6395113808
 21
0.2507640899
 31
0.0
  0
LINE
  5
C9
  8
0
 10
-4.6395113808
 20
0.2507640899
 30
0.0
 11
-4.7002065468000005
 21
0.2125997053
 31
0.0
  0
LINE
  5
CA
  8
0
 10
-4.7002065468000005
 20
0.2125997053
 30
0.0
 11
-4.761395037300001
 21
0.1741251241
 31
0.0
  0
LINE
  5
CB
  8
0
 10
-4.761395037300001
 20
0.1741251241
 30
0.0
 11
-4.791153646600001
 21
0.1497169687
 31
0.0
  0
LINE
  5
CC
  8
0
 10
-4.791153646600001
 20
0.1497169687
 30
0.0
 11
-4.824206006000001
 21
0.1226072635
 31
0.0
  0
LINE
  5
CD
  8
0
 10
-4.824206006000001
 20
0.1226072635
 30
0.0
 11
-4.8511115113
 21
0.09805745574
 31
0.0
  0
LINE
  5
CE
  8
0
 10
-4.8511115113
 20
0.09805745574
 30
0.0
 11
-4.865783432150001
 21
0.08467012732
 31
0.0
  0
LINE
  5
CF
  8
0
 10
-4.865783432150001
 20
0.08467012732
 30
0.0
 11
-4.889626064050001
 21
0.05578746848
 31
0.0
  0
LINE
  5
D0
  8
0
 10
-4.889626064050001
 20
0.05578746848
 30
0.0
 11
-4.90666136899
 21
0.02986583113
 31
0.0
  0
LINE
  5
D1
  8
0
 10
-4.90666136899
 20
0.02986583113
 30
0.0
 11
-4.91361382369
 21
0.0135892366
 31
0.0
  0
LINE
  5
D2
  8
0
 10
-4.91361382369
 20
0.0135892366
 30
0.0
 11
-4.9156289682
 21
-6.938893904e-18
 31
0.0
  0
LINE
  5
D3
  8
0
 10
0.2
 20
0.2
 30
0.0
 11
0.2
 21
-0.2
 31
0.0
  0
LINE
  5
D4
  8
0
 10
0.2
 20
-0.2
 30
0.0
 11
-0.2
 21
-0.2
 31
0.0
  0
LINE
  5
D5
  8
0
 10
-0.2
 20
-0.2
 30
0.0
 11
-0.2
 21
0.2
 31
0.0
  0
LINE
  5
D6
  8
0
 10
-0.2
 20
0.2
 30
0.0
 11
0.2
 21
0.2
 31
0.0
  0
ENDSEC
  0
EOF
