  0
SECTION
  2
HEADER
  9
$ACADVER
  1
AC1009
  9
$DWGCODEPAGE
  3
ANSI_1252
  9
$INSBASE
 10
0.0
 20
0.0
 30
0.0
  9
$EXTMIN
 10
-100
 20
-100
 30
-100
  9
$EXTMAX
 10
100
 20
100
 30
100
  9
$LIMMIN
 10
0.0
 20
0.0
  9
$LIMMAX
 10
420.0
 20
297.0
  9
$ORTHOMODE
 70
0
  9
$REGENMODE
 70
1
  9
$DRAGMODE
 70
2
  9
$FILLMODE
 70
1
  9
$QTEXTMODE
 70
0
  9
$MIRRTEXT
 70
1
  9
$OSMODE
 70
20583
  9
$LTSCALE
 40
1.0
  9
$ATTMODE
 70
1
  9
$TEXTSIZE
 40
2.5
  9
$TRACEWID
 40
1.0
  9
$TEXTSTYLE
  7
Standard
  9
$CLAYER
  8
0
  9
$CELTYPE
  6
ByLayer
  9
$CECOLOR
 62
256
  9
$DIMSCALE
 40
1.0
  9
$DIMASZ
 40
2.5
  9
$DIMEXO
 40
0.625
  9
$DIMDLI
 40
3.75
  9
$DIMRND
 40
0.0
  9
$DIMDLE
 40
0.0
  9
$DIMEXE
 40
1.25
  9
$DIMTP
 40
0.0
  9
$DIMTM
 40
0.0
  9
$DIMTXT
 40
2.5
  9
$DIMCEN
 40
2.5
  9
$DIMTSZ
 40
0.0
  9
$DIMTOL
 70
0
  9
$DIMLIM
 70
0
  9
$DIMTIH
 70
0
  9
$DIMTOH
 70
0
  9
$DIMSE1
 70
0
  9
$DIMSE2
 70
0
  9
$DIMTAD
 70
1
  9
$DIMZIN
 70
8
  9
$DIMBLK
  1

  9
$DIMASO
 70
1
  9
$DIMSHO
 70
1
  9
$DIMPOST
  1

  9
$DIMAPOST
  1

  9
$DIMALT
 70
0
  9
$DIMALTD
 70
3
  9
$DIMALTF
 40
0.03937007874
  9
$DIMLFAC
 40
1.0
  9
$DIMTOFL
 70
1
  9
$DIMTVP
 40
0.0
  9
$DIMTIX
 70
0
  9
$DIMSOXD
 70
0
  9
$DIMSAH
 70
0
  9
$DIMBLK1
  1

  9
$DIMBLK2
  1

  9
$DIMSTYLE
  2
ISO-25
  9
$DIMCLRD
 70
0
  9
$DIMCLRE
 70
0
  9
$DIMCLRT
 70
0
  9
$DIMTFAC
 40
1.0
  9
$DIMGAP
 40
0.625
  9
$COORDS
 70
1
  9
$ATTDIA
 70
0
  9
$ATTREQ
 70
1
  9
$HANDLING
 70
1
  9
$LUNITS
 70
2
  9
$LUPREC
 70
4
  9
$SKETCHINC
 40
1.0
  9
$FILLETRAD
 40
10.0
  9
$AUNITS
 70
0
  9
$AUPREC
 70
2
  9
$MENU
  1
.
  9
$ELEVATION
 40
0.0
  9
$PELEVATION
 40
0.0
  9
$THICKNESS
 40
0.0
  9
$LIMCHECK
 70
0
  9
$CHAMFERA
 40
0.0
  9
$CHAMFERB
 40
0.0
  9
$SKPOLY
 70
0
  9
$TDCREATE
 40
2459751.94568287
  9
$TDUPDATE
 40
2459751.94568287
  9
$TDINDWG
 40
0.0
  9
$TDUSRTIMER
 40
0.0
  9
$USRTIMER
 70
1
  9
$ANGBASE
 50
0.0
  9
$ANGDIR
 70
0
  9
$PDMODE
 70
0
  9
$PDSIZE
 40
0.0
  9
$PLINEWID
 40
0.0
  9
$SPLFRAME
 70
0
  9
$SPLINETYPE
 70
6
  9
$SPLINESEGS
 70
8
  9
$HANDSEED
  5
72
  9
$SURFTAB1
 70
6
  9
$SURFTAB2
 70
6
  9
$SURFTYPE
 70
6
  9
$SURFU
 70
6
  9
$SURFV
 70
6
  9
$UCSNAME
  2

  9
$UCSORG
 10
0.0
 20
0.0
 30
0.0
  9
$UCSXDIR
 10
1.0
 20
0.0
 30
0.0
  9
$UCSYDIR
 10
0.0
 20
1.0
 30
0.0
  9
$PUCSNAME
  2

  9
$PUCSORG
 10
0.0
 20
0.0
 30
0.0
  9
$PUCSXDIR
 10
1.0
 20
0.0
 30
0.0
  9
$PUCSYDIR
 10
0.0
 20
1.0
 30
0.0
  9
$USERI1
 70
0
  9
$USERI2
 70
0
  9
$USERI3
 70
0
  9
$USERI4
 70
0
  9
$USERI5
 70
0
  9
$USERR1
 40
0.0
  9
$USERR2
 40
0.0
  9
$USERR3
 40
0.0
  9
$USERR4
 40
0.0
  9
$USERR5
 40
0.0
  9
$WORLDVIEW
 70
1
  9
$SHADEDGE
 70
3
  9
$SHADEDIF
 70
70
  9
$TILEMODE
 70
1
  9
$MAXACTVP
 70
64
  9
$PLIMCHECK
 70
0
  9
$PEXTMIN
 10
1e+20
 20
1e+20
 30
1e+20
  9
$PEXTMAX
 10
-1e+20
 20
-1e+20
 30
-1e+20
  9
$PLIMMIN
 10
0.0
 20
0.0
  9
$PLIMMAX
 10
420.0
 20
297.0
  9
$UNITMODE
 70
0
  9
$VISRETAIN
 70
1
  9
$PLINEGEN
 70
0
  9
$PSLTSCALE
 70
1
  0
ENDSEC
  0
SECTION
  2
TABLES
  0
TABLE
  2
VPORT
 70
1
  0
VPORT
  5
23
  2
*Active
 70
0
 10
0.0
 20
0.0
 11
1.0
 21
1.0
 12
70.0
 22
50.0
 13
0.0
 23
0.0
 14
0.5
 24
0.5
 15
0.5
 25
0.5
 16
0.0
 26
0.0
 36
1.0
 17
0.0
 27
0.0
 37
0.0
 40
1.0
 41
1.34
 42
50.0
 43
0.0
 44
0.0
 50
0.0
 51
0.0
 71
0
 72
1000
 73
1
 74
3
 75
0
 76
0
 77
0
 78
0
  0
ENDTAB
  0
TABLE
  2
LTYPE
 70
3
  0
LTYPE
  5
24
  2
ByBlock
 70
0
  3

 72
65
 73
0
 40
0.0
  0
LTYPE
  5
25
  2
ByLayer
 70
0
  3

 72
65
 73
0
 40
0.0
  0
LTYPE
  5
26
  2
Continuous
 70
0
  3

 72
65
 73
0
 40
0.0
  0
ENDTAB
  0
TABLE
  2
LAYER
 70
2
  0
LAYER
  5
27
  2
0
 70
0
 62
7
  6
Continuous
  0
LAYER
  5
28
  2
Defpoints
 70
0
 62
7
  6
Continuous
  0
ENDTAB
  0
TABLE
  2
STYLE
 70
1
  0
STYLE
  5
29
  2
Standard
 70
0
 40
0.0
 41
1.0
 50
0.0
 71
0
 42
2.5
  3
txt
  4

  0
ENDTAB
  0
TABLE
  2
VIEW
 70
0
  0
ENDTAB
  0
TABLE
  2
UCS
 70
0
  0
ENDTAB
  0
TABLE
  2
APPID
 70
2
  0
APPID
  5
2A
  2
ACAD
 70
0
  0
APPID
  5
71
  2
HATCHBACKGROUNDCOLOR
 70
0
  0
ENDTAB
  0
TABLE
  2
DIMSTYLE
 70
1
  0
DIMSTYLE
105
2B
  2
Standard
 70
0
  3

  4

  5

  6

  7

 40
1.0
 41
2.5
 42
0.625
 43
3.75
 44
1.25
 45
0.0
 46
0.0
 47
0.0
 48
0.0
140
2.5
141
2.5
142
0.0
143
0.03937007874
144
1.0
145
0.0
146
1.0
147
0.625
 71
0
 72
0
 73
0
 74
0
 75
0
 76
0
 77
1
 78
8
170
0
171
3
172
1
173
0
174
0
175
0
176
0
177
0
178
0
  0
ENDTAB
  0
ENDSEC
  0
SECTION
  2
BLOCKS
  0
BLOCK
  5
18
  8
0
  2
$Model_Space
 70
0
 10
0.0
 20
0.0
 30
0.0
  3
$Model_Space
  1

  0
ENDBLK
  5
19
  8
0
  0
BLOCK
  5
1C
  8
0
  2
$Paper_Space
 70
0
 10
0.0
 20
0.0
 30
0.0
  3
$Paper_Space
  1

  0
ENDBLK
  5
1D
  8
0
  0
ENDSEC
  0
SECTION
  2
ENTITIES
  0
LINE
  5
2D
  8
0
 10
-1.6588598545000006
 20
-0.0031374915499999823
 30
0.0
 11
-1.6652893875000006
 21
-0.01187533064999996
 31
0.0
  0
LINE
  5
2E
  8
0
 10
-1.6652893875000006
 20
-0.01187533064999996
 30
0.0
 11
-1.6588598545000006
 21
-0.020613169749999993
 31
0.0
  0
LINE
  5
2F
  8
0
 10
-1.6588598545000006
 20
-0.020613169749999993
 30
0.0
 11
-1.6291168255000006
 21
-0.06162051554999998
 31
0.0
  0
LINE
  5
30
  8
0
 10
-1.6291168255000006
 20
-0.06162051554999998
 30
0.0
 11
-1.6142401545000005
 21
-0.06805051514999999
 31
0.0
  0
LINE
  5
31
  8
0
 10
-1.6142401545000005
 20
-0.06805051514999999
 30
0.0
 11
-1.5450104055000007
 21
-0.09813452834999997
 31
0.0
  0
LINE
  5
32
  8
0
 10
-1.5450104055000007
 20
-0.09813452834999997
 30
0.0
 11
-1.5227822395000006
 21
-0.10345719774999995
 31
0.0
  0
LINE
  5
33
  8
0
 10
-1.5227822395000006
 20
-0.10345719774999995
 30
0.0
 11
-1.4190754045000005
 21
-0.12757988864999997
 31
0.0
  0
LINE
  5
34
  8
0
 10
-1.4190754045000005
 20
-0.12757988864999997
 30
0.0
 11
-1.3881400445000005
 21
-0.13197357955
 31
0.0
  0
LINE
  5
35
  8
0
 10
-1.3881400445000005
 20
-0.13197357955
 30
0.0
 11
-1.2438462915000006
 21
-0.15106676705
 31
0.0
  0
LINE
  5
36
  8
0
 10
-1.2438462915000006
 20
-0.15106676705
 30
0.0
 11
-1.2029309225000007
 21
-0.15419812554999995
 31
0.0
  0
LINE
  5
37
  8
0
 10
-1.2029309225000007
 20
-0.15419812554999995
 30
0.0
 11
-1.0122019265000004
 21
-0.16692983974999998
 31
0.0
  0
LINE
  5
38
  8
0
 10
-1.0122019265000004
 20
-0.16692983974999998
 30
0.0
 11
-0.9610644545000007
 21
-0.16831141135
 31
0.0
  0
LINE
  5
39
  8
0
 10
-0.9610644545000007
 20
-0.16831141135
 30
0.0
 11
-0.7227941125000004
 21
-0.17285932345
 31
0.0
  0
LINE
  5
3A
  8
0
 10
-0.7227941125000004
 20
-0.17285932345
 30
0.0
 11
-0.6630068885000004
 21
-0.17217159244999997
 31
0.0
  0
LINE
  5
3B
  8
0
 10
-0.6630068885000004
 20
-0.17217159244999997
 30
0.0
 11
-0.3844826715000007
 21
-0.16771833184999996
 31
0.0
  0
LINE
  5
3C
  8
0
 10
-0.3844826715000007
 20
-0.16771833184999996
 30
0.0
 11
-0.3196989255000009
 21
-0.16506982764999995
 31
0.0
  0
LINE
  5
3D
  8
0
 10
-0.3196989255000009
 20
-0.16506982764999995
 30
0.0
 11
-0.017884313500000637
 21
-0.15242588664999995
 31
0.0
  0
LINE
  5
3E
  8
0
 10
-0.017884313500000637
 20
-0.15242588664999995
 30
0.0
 11
0.28362847149999926
 21
-0.13387948154999996
 31
0.0
  0
LINE
  5
3F
  8
0
 10
0.28362847149999926
 20
-0.13387948154999996
 30
0.0
 11
0.3483411574999993
 21
-0.12984054354999996
 31
0.0
  0
LINE
  5
40
  8
0
 10
0.3483411574999993
 20
-0.12984054354999996
 30
0.0
 11
0.6261371044999997
 21
-0.10903847874999995
 31
0.0
  0
LINE
  5
41
  8
0
 10
0.6261371044999997
 20
-0.10903847874999995
 30
0.0
 11
0.6857501214999999
 21
-0.10439631154999995
 31
0.0
  0
LINE
  5
42
  8
0
 10
0.6857501214999999
 20
-0.10439631154999995
 30
0.0
 11
0.9232541694999998
 21
-0.08440973824999998
 31
0.0
  0
LINE
  5
43
  8
0
 10
0.9232541694999998
 20
-0.08440973824999998
 30
0.0
 11
0.9742118314999999
 21
-0.07986695764999996
 31
0.0
  0
LINE
  5
44
  8
0
 10
0.9742118314999999
 20
-0.07986695764999996
 30
0.0
 11
1.1646180154999994
 21
-0.06255103494999997
 31
0.0
  0
LINE
  5
45
  8
0
 10
1.1646180154999994
 20
-0.06255103494999997
 30
0.0
 11
1.2054638144999998
 21
-0.05856221874999995
 31
0.0
  0
LINE
  5
46
  8
0
 10
1.2054638144999998
 20
-0.05856221874999995
 30
0.0
 11
1.3503882574999997
 21
-0.044632505749999996
 31
0.0
  0
LINE
  5
47
  8
0
 10
1.3503882574999997
 20
-0.044632505749999996
 30
0.0
 11
1.3814729414999993
 21
-0.041393639149999994
 31
0.0
  0
LINE
  5
48
  8
0
 10
1.3814729414999993
 20
-0.041393639149999994
 30
0.0
 11
1.4874783974999994
 21
-0.03077876704999999
 31
0.0
  0
LINE
  5
49
  8
0
 10
1.4874783974999994
 20
-0.03077876704999999
 30
0.0
 11
1.5102128014999998
 21
-0.028295378449999964
 31
0.0
  0
LINE
  5
4A
  8
0
 10
1.5102128014999998
 20
-0.028295378449999964
 30
0.0
 11
1.585516437499999
 21
-0.020524550249999995
 31
0.0
  0
LINE
  5
4B
  8
0
 10
1.585516437499999
 20
-0.020524550249999995
 30
0.0
 11
1.6016649834999992
 21
-0.01869929404999998
 31
0.0
  0
LINE
  5
4C
  8
0
 10
1.6016649834999992
 20
-0.01869929404999998
 30
0.0
 11
1.6540552374999997
 21
-0.013176011049999992
 31
0.0
  0
LINE
  5
4D
  8
0
 10
1.6540552374999997
 20
-0.013176011049999992
 30
0.0
 11
1.6652893874999997
 21
-0.01187533064999996
 31
0.0
  0
LINE
  5
4E
  8
0
 10
1.6652893874999997
 20
-0.01187533064999996
 30
0.0
 11
1.6540552374999997
 21
-0.010574650249999984
 31
0.0
  0
LINE
  5
4F
  8
0
 10
1.6540552374999997
 20
-0.010574650249999984
 30
0.0
 11
1.6017137414999993
 21
-0.0033900750499999965
 31
0.0
  0
LINE
  5
50
  8
0
 10
1.6017137414999993
 20
-0.0033900750499999965
 30
0.0
 11
1.5855651954999992
 21
-0.0015648188499999827
 31
0.0
  0
LINE
  5
51
  8
0
 10
1.5855651954999992
 20
-0.0015648188499999827
 30
0.0
 11
1.5103110444999999
 21
0.008498584750000038
 31
0.0
  0
LINE
  5
52
  8
0
 10
1.5103110444999999
 20
0.008498584750000038
 30
0.0
 11
1.4875766404999995
 21
0.010981973350000007
 31
0.0
  0
LINE
  5
53
  8
0
 10
1.4875766404999995
 20
0.010981973350000007
 30
0.0
 11
1.3816015384999991
 21
0.024633790950000012
 31
0.0
  0
LINE
  5
54
  8
0
 10
1.3816015384999991
 20
0.024633790950000012
 30
0.0
 11
1.3505168544999995
 21
0.02787265765000002
 31
0.0
  0
LINE
  5
55
  8
0
 10
1.3505168544999995
 20
0.02787265765000002
 30
0.0
 11
1.2055644344999994
 21
0.045594536850000034
 31
0.0
  0
LINE
  5
56
  8
0
 10
1.2055644344999994
 20
0.045594536850000034
 30
0.0
 11
1.1647186354999999
 21
0.04958335315000004
 31
0.0
  0
LINE
  5
57
  8
0
 10
1.1647186354999999
 20
0.04958335315000004
 30
0.0
 11
0.9741637944999999
 21
0.07125025575000002
 31
0.0
  0
LINE
  5
58
  8
0
 10
0.9741637944999999
 20
0.07125025575000002
 30
0.0
 11
0.9232061324999998
 21
0.07579303635000004
 31
0.0
  0
LINE
  5
59
  8
0
 10
0.9232061324999998
 20
0.07579303635000004
 30
0.0
 11
0.6853553144999998
 21
0.10020179705000004
 31
0.0
  0
LINE
  5
5A
  8
0
 10
0.6853553144999998
 20
0.10020179705000004
 30
0.0
 11
0.6257422964999995
 21
0.10484396425000003
 31
0.0
  0
LINE
  5
5B
  8
0
 10
0.6257422964999995
 20
0.10484396425000003
 30
0.0
 11
0.3473410364999996
 21
0.12940042455000003
 31
0.0
  0
LINE
  5
5C
  8
0
 10
0.3473410364999996
 20
0.12940042455000003
 30
0.0
 11
0.28262835049999957
 21
0.13343936255000002
 31
0.0
  0
LINE
  5
5D
  8
0
 10
0.28262835049999957
 20
0.13343936255000002
 30
0.0
 11
-0.019743340500000706
 21
0.15432675265000004
 31
0.0
  0
LINE
  5
5E
  8
0
 10
-0.019743340500000706
 20
0.15432675265000004
 30
0.0
 11
-0.3225639735000003
 21
0.16746193515000002
 31
0.0
  0
LINE
  5
5F
  8
0
 10
-0.3225639735000003
 20
0.16746193515000002
 30
0.0
 11
-0.38734771950000013
 21
0.17011043935000003
 31
0.0
  0
LINE
  5
60
  8
0
 10
-0.38734771950000013
 20
0.17011043935000003
 30
0.0
 11
-0.6668436535000004
 21
0.17217159235
 31
0.0
  0
LINE
  5
61
  8
0
 10
-0.6668436535000004
 20
0.17217159235
 30
0.0
 11
-0.7266308775000003
 21
0.17285932345000005
 31
0.0
  0
LINE
  5
62
  8
0
 10
-0.7266308775000003
 20
0.17285932345000005
 30
0.0
 11
-0.9655438425000007
 21
0.16361848525000003
 31
0.0
  0
LINE
  5
63
  8
0
 10
-0.9655438425000007
 20
0.16361848525000003
 30
0.0
 11
-1.0166813145000004
 21
0.16223691365000004
 31
0.0
  0
LINE
  5
64
  8
0
 10
-1.0166813145000004
 20
0.16223691365000004
 30
0.0
 11
-1.2075358945000003
 21
0.14402347695000003
 31
0.0
  0
LINE
  5
65
  8
0
 10
-1.2075358945000003
 20
0.14402347695000003
 30
0.0
 11
-1.2484512635000007
 21
0.14089211845000002
 31
0.0
  0
LINE
  5
66
  8
0
 10
-1.2484512635000007
 20
0.14089211845000002
 30
0.0
 11
-1.3923360985000004
 21
0.11666019615000003
 31
0.0
  0
LINE
  5
67
  8
0
 10
-1.3923360985000004
 20
0.11666019615000003
 30
0.0
 11
-1.4232714595000004
 21
0.11226650535000002
 31
0.0
  0
LINE
  5
68
  8
0
 10
-1.4232714595000004
 20
0.11226650535000002
 30
0.0
 11
-1.5260950875000003
 21
0.08395457175000004
 31
0.0
  0
LINE
  5
69
  8
0
 10
-1.5260950875000003
 20
0.08395457175000004
 30
0.0
 11
-1.5483232535000004
 21
0.07863190235000003
 31
0.0
  0
LINE
  5
6A
  8
0
 10
-1.5483232535000004
 20
0.07863190235000003
 30
0.0
 11
-1.6161940245000004
 21
0.04557786585000004
 31
0.0
  0
LINE
  5
6B
  8
0
 10
-1.6161940245000004
 20
0.04557786585000004
 30
0.0
 11
-1.6310706945000004
 21
0.039147866250000024
 31
0.0
  0
LINE
  5
6C
  8
0
 10
-1.6310706945000004
 20
0.039147866250000024
 30
0.0
 11
-1.6588598545000006
 21
-0.0031374915499999823
 31
0.0
  0
LINE
  5
6D
  8
0
 10
0.2
 20
0.2
 30
0.0
 11
0.2
 21
-0.2
 31
0.0
  0
LINE
  5
6E
  8
0
 10
0.2
 20
-0.2
 30
0.0
 11
-0.2
 21
-0.2
 31
0.0
  0
LINE
  5
6F
  8
0
 10
-0.2
 20
-0.2
 30
0.0
 11
-0.2
 21
0.2
 31
0.0
  0
LINE
  5
70
  8
0
 10
-0.2
 20
0.2
 30
0.0
 11
0.2
 21
0.2
 31
0.0
  0
ENDSEC
  0
EOF
