  0
SECTION
  2
HEADER
  9
$ACADVER
  1
AC1009
  9
$DWGCODEPAGE
  3
ANSI_1252
  9
$INSBASE
 10
0.0
 20
0.0
 30
0.0
  9
$EXTMIN
 10
-100
 20
-100
 30
-100
  9
$EXTMAX
 10
100
 20
100
 30
100
  9
$LIMMIN
 10
0.0
 20
0.0
  9
$LIMMAX
 10
420.0
 20
297.0
  9
$ORTHOMODE
 70
0
  9
$REGENMODE
 70
1
  9
$DRAGMODE
 70
2
  9
$FILLMODE
 70
1
  9
$QTEXTMODE
 70
0
  9
$MIRRTEXT
 70
1
  9
$OSMODE
 70
20583
  9
$LTSCALE
 40
1.0
  9
$ATTMODE
 70
1
  9
$TEXTSIZE
 40
2.5
  9
$TRACEWID
 40
1.0
  9
$TEXTSTYLE
  7
Standard
  9
$CLAYER
  8
0
  9
$CELTYPE
  6
ByLayer
  9
$CECOLOR
 62
256
  9
$DIMSCALE
 40
1.0
  9
$DIMASZ
 40
2.5
  9
$DIMEXO
 40
0.625
  9
$DIMDLI
 40
3.75
  9
$DIMRND
 40
0.0
  9
$DIMDLE
 40
0.0
  9
$DIMEXE
 40
1.25
  9
$DIMTP
 40
0.0
  9
$DIMTM
 40
0.0
  9
$DIMTXT
 40
2.5
  9
$DIMCEN
 40
2.5
  9
$DIMTSZ
 40
0.0
  9
$DIMTOL
 70
0
  9
$DIMLIM
 70
0
  9
$DIMTIH
 70
0
  9
$DIMTOH
 70
0
  9
$DIMSE1
 70
0
  9
$DIMSE2
 70
0
  9
$DIMTAD
 70
1
  9
$DIMZIN
 70
8
  9
$DIMBLK
  1

  9
$DIMASO
 70
1
  9
$DIMSHO
 70
1
  9
$DIMPOST
  1

  9
$DIMAPOST
  1

  9
$DIMALT
 70
0
  9
$DIMALTD
 70
3
  9
$DIMALTF
 40
0.03937007874
  9
$DIMLFAC
 40
1.0
  9
$DIMTOFL
 70
1
  9
$DIMTVP
 40
0.0
  9
$DIMTIX
 70
0
  9
$DIMSOXD
 70
0
  9
$DIMSAH
 70
0
  9
$DIMBLK1
  1

  9
$DIMBLK2
  1

  9
$DIMSTYLE
  2
ISO-25
  9
$DIMCLRD
 70
0
  9
$DIMCLRE
 70
0
  9
$DIMCLRT
 70
0
  9
$DIMTFAC
 40
1.0
  9
$DIMGAP
 40
0.625
  9
$COORDS
 70
1
  9
$ATTDIA
 70
0
  9
$ATTREQ
 70
1
  9
$HANDLING
 70
1
  9
$LUNITS
 70
2
  9
$LUPREC
 70
4
  9
$SKETCHINC
 40
1.0
  9
$FILLETRAD
 40
10.0
  9
$AUNITS
 70
0
  9
$AUPREC
 70
2
  9
$MENU
  1
.
  9
$ELEVATION
 40
0.0
  9
$PELEVATION
 40
0.0
  9
$THICKNESS
 40
0.0
  9
$LIMCHECK
 70
0
  9
$CHAMFERA
 40
0.0
  9
$CHAMFERB
 40
0.0
  9
$SKPOLY
 70
0
  9
$TDCREATE
 40
2459746.820277778
  9
$TDUPDATE
 40
2459746.820277778
  9
$TDINDWG
 40
0.0
  9
$TDUSRTIMER
 40
0.0
  9
$USRTIMER
 70
1
  9
$ANGBASE
 50
0.0
  9
$ANGDIR
 70
0
  9
$PDMODE
 70
0
  9
$PDSIZE
 40
0.0
  9
$PLINEWID
 40
0.0
  9
$SPLFRAME
 70
0
  9
$SPLINETYPE
 70
6
  9
$SPLINESEGS
 70
8
  9
$HANDSEED
  5
92
  9
$SURFTAB1
 70
6
  9
$SURFTAB2
 70
6
  9
$SURFTYPE
 70
6
  9
$SURFU
 70
6
  9
$SURFV
 70
6
  9
$UCSNAME
  2

  9
$UCSORG
 10
0.0
 20
0.0
 30
0.0
  9
$UCSXDIR
 10
1.0
 20
0.0
 30
0.0
  9
$UCSYDIR
 10
0.0
 20
1.0
 30
0.0
  9
$PUCSNAME
  2

  9
$PUCSORG
 10
0.0
 20
0.0
 30
0.0
  9
$PUCSXDIR
 10
1.0
 20
0.0
 30
0.0
  9
$PUCSYDIR
 10
0.0
 20
1.0
 30
0.0
  9
$USERI1
 70
0
  9
$USERI2
 70
0
  9
$USERI3
 70
0
  9
$USERI4
 70
0
  9
$USERI5
 70
0
  9
$USERR1
 40
0.0
  9
$USERR2
 40
0.0
  9
$USERR3
 40
0.0
  9
$USERR4
 40
0.0
  9
$USERR5
 40
0.0
  9
$WORLDVIEW
 70
1
  9
$SHADEDGE
 70
3
  9
$SHADEDIF
 70
70
  9
$TILEMODE
 70
1
  9
$MAXACTVP
 70
64
  9
$PLIMCHECK
 70
0
  9
$PEXTMIN
 10
1e+20
 20
1e+20
 30
1e+20
  9
$PEXTMAX
 10
-1e+20
 20
-1e+20
 30
-1e+20
  9
$PLIMMIN
 10
0.0
 20
0.0
  9
$PLIMMAX
 10
420.0
 20
297.0
  9
$UNITMODE
 70
0
  9
$VISRETAIN
 70
1
  9
$PLINEGEN
 70
0
  9
$PSLTSCALE
 70
1
  0
ENDSEC
  0
SECTION
  2
TABLES
  0
TABLE
  2
VPORT
 70
1
  0
VPORT
  5
23
  2
*Active
 70
0
 10
0.0
 20
0.0
 11
1.0
 21
1.0
 12
70.0
 22
50.0
 13
0.0
 23
0.0
 14
0.5
 24
0.5
 15
0.5
 25
0.5
 16
0.0
 26
0.0
 36
1.0
 17
0.0
 27
0.0
 37
0.0
 40
1.0
 41
1.34
 42
50.0
 43
0.0
 44
0.0
 50
0.0
 51
0.0
 71
0
 72
1000
 73
1
 74
3
 75
0
 76
0
 77
0
 78
0
  0
ENDTAB
  0
TABLE
  2
LTYPE
 70
3
  0
LTYPE
  5
24
  2
ByBlock
 70
0
  3

 72
65
 73
0
 40
0.0
  0
LTYPE
  5
25
  2
ByLayer
 70
0
  3

 72
65
 73
0
 40
0.0
  0
LTYPE
  5
26
  2
Continuous
 70
0
  3

 72
65
 73
0
 40
0.0
  0
ENDTAB
  0
TABLE
  2
LAYER
 70
2
  0
LAYER
  5
27
  2
0
 70
0
 62
7
  6
Continuous
  0
LAYER
  5
28
  2
Defpoints
 70
0
 62
7
  6
Continuous
  0
ENDTAB
  0
TABLE
  2
STYLE
 70
1
  0
STYLE
  5
29
  2
Standard
 70
0
 40
0.0
 41
1.0
 50
0.0
 71
0
 42
2.5
  3
txt
  4

  0
ENDTAB
  0
TABLE
  2
VIEW
 70
0
  0
ENDTAB
  0
TABLE
  2
UCS
 70
0
  0
ENDTAB
  0
TABLE
  2
APPID
 70
2
  0
APPID
  5
2A
  2
ACAD
 70
0
  0
APPID
  5
91
  2
HATCHBACKGROUNDCOLOR
 70
0
  0
ENDTAB
  0
TABLE
  2
DIMSTYLE
 70
1
  0
DIMSTYLE
105
2B
  2
Standard
 70
0
  3

  4

  5

  6

  7

 40
1.0
 41
2.5
 42
0.625
 43
3.75
 44
1.25
 45
0.0
 46
0.0
 47
0.0
 48
0.0
140
2.5
141
2.5
142
0.0
143
0.03937007874
144
1.0
145
0.0
146
1.0
147
0.625
 71
0
 72
0
 73
0
 74
0
 75
0
 76
0
 77
1
 78
8
170
0
171
3
172
1
173
0
174
0
175
0
176
0
177
0
178
0
  0
ENDTAB
  0
ENDSEC
  0
SECTION
  2
BLOCKS
  0
BLOCK
  5
18
  8
0
  2
$Model_Space
 70
0
 10
0.0
 20
0.0
 30
0.0
  3
$Model_Space
  1

  0
ENDBLK
  5
19
  8
0
  0
BLOCK
  5
1C
  8
0
  2
$Paper_Space
 70
0
 10
0.0
 20
0.0
 30
0.0
  3
$Paper_Space
  1

  0
ENDBLK
  5
1D
  8
0
  0
ENDSEC
  0
SECTION
  2
ENTITIES
  0
LINE
  5
2D
  8
0
 10
-0.5224866206
 20
-0.06495363233999997
 30
-3.017910842721864
 11
-0.5223278716
 21
-0.06780598972999997
 31
-3.0124995848030824
  0
LINE
  5
2E
  8
0
 10
-0.5223278716
 20
-0.06780598972999997
 30
-3.0124995848030824
 11
-0.519030142
 21
-0.13982610974999998
 31
-2.8784412321608652
  0
LINE
  5
2F
  8
0
 10
-0.519030142
 20
-0.13982610974999998
 30
-2.8784412321608652
 11
-0.5186062752
 21
-0.14258097906999997
 31
-2.873290525835146
  0
LINE
  5
30
  8
0
 10
-0.5186062752
 20
-0.14258097906999997
 30
-2.873290525835146
 11
-0.5092234503
 21
-0.21140304454999997
 31
-2.7480963308377024
  0
LINE
  5
31
  8
0
 10
-0.5092234503
 20
-0.21140304454999997
 30
-2.7480963308377024
 11
-0.5084066551
 21
-0.21402604174999998
 31
-2.7431369026031693
  0
LINE
  5
32
  8
0
 10
-0.5084066551
 20
-0.21402604174999998
 30
-2.7431369026031693
 11
-0.4904574706
 21
-0.27836981634999997
 31
-2.6253588019115677
  0
LINE
  5
33
  8
0
 10
-0.4904574706
 20
-0.27836981634999997
 30
-2.6253588019115677
 11
-0.4891353227
 21
-0.28076540504999997
 31
-2.6205075650119105
  0
LINE
  5
34
  8
0
 10
-0.4891353227
 20
-0.28076540504999997
 30
-2.6205075650119105
 11
-0.4605948972
 21
-0.33840963965
 31
-2.5079407675966325
  0
LINE
  5
35
  8
0
 10
-0.4605948972
 20
-0.33840963965
 30
-2.5079407675966325
 11
-0.4587292145
 21
-0.34044179184999995
 31
-2.50314025999535
  0
LINE
  5
36
  8
0
 10
-0.4587292145
 20
-0.34044179184999995
 30
-2.50314025999535
 11
-0.4190894142
 21
-0.38869551555
 31
-2.3938029754318073
  0
LINE
  5
37
  8
0
 10
-0.4190894142
 20
-0.38869551555
 30
-2.3938029754318073
 11
-0.416743779
 21
-0.39026494334999995
 31
-2.3889938131294706
  0
LINE
  5
38
  8
0
 10
-0.416743779
 20
-0.39026494334999995
 30
-2.3889938131294706
 11
-0.3673381896
 21
-0.42742603924999995
 31
-2.280733428953213
  0
LINE
  5
39
  8
0
 10
-0.3673381896
 20
-0.42742603924999995
 30
-2.280733428953213
 11
-0.3646211236
 21
-0.42853207704999996
 31
-2.275789887368378
  0
LINE
  5
3A
  8
0
 10
-0.3646211236
 20
-0.42853207704999996
 30
-2.275789887368378
 11
-0.307334965
 21
-0.45502435775
 31
-2.1648381152900744
  0
LINE
  5
3B
  8
0
 10
-0.307334965
 20
-0.45502435775
 30
-2.1648381152900744
 11
-0.3043343466
 21
-0.45573206115
 31
-2.1595777878478573
  0
LINE
  5
3C
  8
0
 10
-0.3043343466
 20
-0.45573206115
 30
-2.1595777878478573
 11
-0.2404217325
 21
-0.47321111995
 31
-2.0408746377397233
  0
LINE
  5
3D
  8
0
 10
-0.2404217325
 20
-0.47321111995
 30
-2.0408746377397233
 11
-0.2371901196
 21
-0.47360093914999996
 31
-2.035101910468717
  0
LINE
  5
3E
  8
0
 10
-0.2371901196
 20
-0.47360093914999996
 30
-2.035101910468717
 11
-0.1670520581
 21
-0.48389305005
 31
-1.9032110790151968
  0
LINE
  5
3F
  8
0
 10
-0.1670520581
 20
-0.48389305005
 30
-1.9032110790151968
 11
-0.1636215301
 21
-0.48405897634999995
 31
-1.8967587763492622
  0
LINE
  5
40
  8
0
 10
-0.1636215301
 20
-0.48405897634999995
 30
-1.8967587763492622
 11
-0.08708012963
 21
-0.48902689234999996
 31
-1.7470174452778344
  0
LINE
  5
41
  8
0
 10
-0.08708012963
 20
-0.48902689234999996
 30
-1.7470174452778344
 11
-0.08347582405
 21
-0.48907138665
 31
-1.7398495343756164
  0
LINE
  5
42
  8
0
 10
-0.08347582405
 20
-0.48907138665
 30
-1.7398495343756164
 11
2.775557562e-17
 21
-0.49051727354999997
 31
-1.5707963267948966
  0
LINE
  5
43
  8
0
 10
2.775557562e-17
 20
-0.49051727354999997
 30
-1.5707963267948966
 11
0.08347582405
 21
-0.48907138665
 31
-1.401743119214177
  0
LINE
  5
44
  8
0
 10
0.08347582405
 20
-0.48907138665
 30
-1.401743119214177
 11
0.08708012963
 21
-0.48902689234999996
 31
-1.394575208311959
  0
LINE
  5
45
  8
0
 10
0.08708012963
 20
-0.48902689234999996
 30
-1.394575208311959
 11
0.1636215301
 21
-0.48405897634999995
 31
-1.2448338772405312
  0
LINE
  5
46
  8
0
 10
0.1636215301
 20
-0.48405897634999995
 30
-1.2448338772405312
 11
0.1670520581
 21
-0.48389305005
 31
-1.2383815745745965
  0
LINE
  5
47
  8
0
 10
0.1670520581
 20
-0.48389305005
 30
-1.2383815745745965
 11
0.2371901196
 21
-0.47360093914999996
 31
-1.1064907431210762
  0
LINE
  5
48
  8
0
 10
0.2371901196
 20
-0.47360093914999996
 30
-1.1064907431210762
 11
0.2404217325
 21
-0.47321111995
 31
-1.1007180158500698
  0
LINE
  5
49
  8
0
 10
0.2404217325
 20
-0.47321111995
 30
-1.1007180158500698
 11
0.3043343466
 21
-0.45573206115
 31
-0.9820148657419361
  0
LINE
  5
4A
  8
0
 10
0.3043343466
 20
-0.45573206115
 30
-0.9820148657419361
 11
0.307334965
 21
-0.45502435775
 31
-0.9767545382997188
  0
LINE
  5
4B
  8
0
 10
0.307334965
 20
-0.45502435775
 30
-0.9767545382997188
 11
0.3646211236
 21
-0.42853207704999996
 31
-0.8658027662214153
  0
LINE
  5
4C
  8
0
 10
0.3646211236
 20
-0.42853207704999996
 30
-0.8658027662214153
 11
0.3673381896
 21
-0.42742603924999995
 31
-0.86085922463658
  0
LINE
  5
4D
  8
0
 10
0.3673381896
 20
-0.42742603924999995
 30
-0.86085922463658
 11
0.416743779
 21
-0.39026494334999995
 31
-0.7525988404603225
  0
LINE
  5
4E
  8
0
 10
0.416743779
 20
-0.39026494334999995
 30
-0.7525988404603225
 11
0.4190894142
 21
-0.38869551555
 31
-0.7477896781579858
  0
LINE
  5
4F
  8
0
 10
0.4190894142
 20
-0.38869551555
 30
-0.7477896781579858
 11
0.4587292145
 21
-0.34044179184999995
 31
-0.6384523935944433
  0
LINE
  5
50
  8
0
 10
0.4587292145
 20
-0.34044179184999995
 30
-0.6384523935944433
 11
0.4605948972
 21
-0.33840963965
 31
-0.6336518859931606
  0
LINE
  5
51
  8
0
 10
0.4605948972
 20
-0.33840963965
 30
-0.6336518859931606
 11
0.4891353227
 21
-0.28076540504999997
 31
-0.5210850885778828
  0
LINE
  5
52
  8
0
 10
0.4891353227
 20
-0.28076540504999997
 30
-0.5210850885778828
 11
0.4904574706
 21
-0.27836981634999997
 31
-0.5162338516782256
  0
LINE
  5
53
  8
0
 10
0.4904574706
 20
-0.27836981634999997
 30
-0.5162338516782256
 11
0.5084066551
 21
-0.21402604174999998
 31
-0.39845575098662395
  0
LINE
  5
54
  8
0
 10
0.5084066551
 20
-0.21402604174999998
 30
-0.39845575098662395
 11
0.5092234503
 21
-0.21140304454999997
 31
-0.3934963227520907
  0
LINE
  5
55
  8
0
 10
0.5092234503
 20
-0.21140304454999997
 30
-0.3934963227520907
 11
0.5186062752
 21
-0.14258097906999997
 31
-0.26830212775464735
  0
LINE
  5
56
  8
0
 10
0.5186062752
 20
-0.14258097906999997
 30
-0.26830212775464735
 11
0.519030142
 21
-0.13982610974999998
 31
-0.26315142142892795
  0
LINE
  5
57
  8
0
 10
0.519030142
 20
-0.13982610974999998
 30
-0.26315142142892795
 11
0.5223278716
 21
-0.06780598972999997
 31
-0.12909306878671067
  0
LINE
  5
58
  8
0
 10
0.5223278716
 20
-0.06780598972999997
 30
-0.12909306878671067
 11
0.5224866206
 21
-0.06495363233999997
 31
-0.12368181086792938
  0
LINE
  5
59
  8
0
 10
0.5224866206
 20
-0.06495363233999997
 30
-0.12368181086792938
 11
0.5220920496
 21
0.009637688450000029
 31
0.018457653129735668
  0
LINE
  5
5A
  8
0
 10
0.5220920496
 20
0.009637688450000029
 30
0.018457653129735668
 11
0.5221041161
 21
0.012594423070000027
 31
0.024117758642245427
  0
LINE
  5
5B
  8
0
 10
0.5221041161
 20
0.012594423070000027
 30
0.024117758642245427
 11
0.5220497805
 21
0.015734637960000034
 31
0.030130988570041938
  0
LINE
  5
5C
  8
0
 10
0.5220497805
 20
0.015734637960000034
 30
0.030130988570041938
 11
0.5195756695
 21
0.10421587745000002
 31
0.19795206064873708
  0
LINE
  5
5D
  8
0
 10
0.5195756695
 20
0.10421587745000002
 30
0.19795206064873708
 11
0.5193658686
 21
0.10734781145000002
 31
0.203820046352279
  0
LINE
  5
5E
  8
0
 10
0.5193658686
 20
0.10734781145000002
 30
0.203820046352279
 11
0.5133684328
 21
0.18718711105000002
 31
0.34964415281913475
  0
LINE
  5
5F
  8
0
 10
0.5133684328
 20
0.18718711105000002
 30
0.34964415281913475
 11
0.5128499549
 21
0.19034508625000002
 31
0.35539247763396825
  0
LINE
  5
60
  8
0
 10
0.5128499549
 20
0.19034508625000002
 30
0.35539247763396825
 11
0.50112732
 21
0.26178769735
 31
0.48140470034780647
  0
LINE
  5
61
  8
0
 10
0.50112732
 20
0.26178769735
 30
0.48140470034780647
 11
0.5000951042
 21
0.26497242865000004
 31
0.48723684201312145
  0
LINE
  5
62
  8
0
 10
0.5000951042
 20
0.26497242865000004
 30
0.48723684201312145
 11
0.480389954
 21
0.32761194945000005
 31
0.5985231112070721
  0
LINE
  5
63
  8
0
 10
0.480389954
 20
0.32761194945000005
 30
0.5985231112070721
 11
0.4785938564
 21
0.33073983265
 31
0.6047046371562
  0
LINE
  5
64
  8
0
 10
0.4785938564
 20
0.33073983265
 30
0.6047046371562
 11
0.4491503081
 21
0.38326099785
 31
0.7064081070163026
  0
LINE
  5
65
  8
0
 10
0.4491503081
 20
0.38326099785
 30
0.7064081070163026
 11
0.4463634295
 21
0.38614630175000003
 31
0.713191873447777
  0
LINE
  5
66
  8
0
 10
0.4463634295
 20
0.38614630175000003
 30
0.713191873447777
 11
0.4069832231
 21
0.4268240743500001
 31
0.8091891613720652
  0
LINE
  5
67
  8
0
 10
0.4069832231
 20
0.4268240743500001
 30
0.8091891613720652
 11
0.4030754351
 21
0.42925341255
 31
0.8168392830075865
  0
LINE
  5
68
  8
0
 10
0.4030754351
 20
0.42925341255
 30
0.8168392830075865
 11
0.3553753058
 21
0.45741487165
 31
0.9102871004441208
  0
LINE
  5
69
  8
0
 10
0.3553753058
 20
0.45741487165
 30
0.9102871004441208
 11
0.3503008281
 21
0.45925896355
 31
0.9191835808428768
  0
LINE
  5
6A
  8
0
 10
0.3503008281
 20
0.45925896355
 30
0.9191835808428768
 11
0.2962799395
 21
0.47638352935
 31
1.0144035646031437
  0
LINE
  5
6B
  8
0
 10
0.2962799395
 20
0.47638352935
 30
1.0144035646031437
 11
0.2900666776
 21
0.47760607195
 31
1.0250012080670823
  0
LINE
  5
6C
  8
0
 10
0.2900666776
 20
0.47760607195
 30
1.0250012080670823
 11
0.2310204516
 21
0.4863569582500001
 31
1.1273464865271918
  0
LINE
  5
6D
  8
0
 10
0.2310204516
 20
0.4863569582500001
 30
1.1273464865271918
 11
0.2237474896
 21
0.48700147675
 31
1.1401206780562327
  0
LINE
  5
6E
  8
0
 10
0.2237474896
 20
0.48700147675
 30
1.1401206780562327
 11
0.1600632814
 21
0.49011754565000004
 31
1.2551347578194956
  0
LINE
  5
6F
  8
0
 10
0.1600632814
 20
0.49011754565000004
 30
1.2551347578194956
 11
0.1518598278
 21
0.49033644565000006
 31
1.270459482311426
  0
LINE
  5
70
  8
0
 10
0.1518598278
 20
0.49033644565000006
 30
1.270459482311426
 11
0.08325495785
 21
0.49047750935000006
 31
1.4026562905750142
  0
LINE
  5
71
  8
0
 10
0.08325495785
 20
0.49047750935000006
 30
1.4026562905750142
 11
0.07430895837
 21
0.49051727355
 31
1.4204484962652202
  0
LINE
  5
72
  8
0
 10
0.07430895837
 20
0.49051727355
 30
1.4204484962652202
 11
-4.440892099e-16
 21
0.4901913673500001
 31
1.5707963267948974
  0
LINE
  5
73
  8
0
 10
-4.440892099e-16
 20
0.4901913673500001
 30
1.5707963267948974
 11
-0.07430895837
 21
0.49051727355
 31
1.7211441573245732
  0
LINE
  5
74
  8
0
 10
-0.07430895837
 20
0.49051727355
 30
1.7211441573245732
 11
-0.08325495785
 21
0.49047750935000006
 31
1.7389363630147792
  0
LINE
  5
75
  8
0
 10
-0.08325495785
 20
0.49047750935000006
 30
1.7389363630147792
 11
-0.1518598278
 21
0.49033644565000006
 31
1.8711331712783672
  0
LINE
  5
76
  8
0
 10
-0.1518598278
 20
0.49033644565000006
 30
1.8711331712783672
 11
-0.1600632814
 21
0.49011754565000004
 31
1.8864578957702975
  0
LINE
  5
77
  8
0
 10
-0.1600632814
 20
0.49011754565000004
 30
1.8864578957702975
 11
-0.2237474896
 21
0.48700147675
 31
2.0014719755335606
  0
LINE
  5
78
  8
0
 10
-0.2237474896
 20
0.48700147675
 30
2.0014719755335606
 11
-0.2310204516
 21
0.4863569582500001
 31
2.0142461670626015
  0
LINE
  5
79
  8
0
 10
-0.2310204516
 20
0.4863569582500001
 30
2.0142461670626015
 11
-0.2900666776
 21
0.47760607195
 31
2.116591445522711
  0
LINE
  5
7A
  8
0
 10
-0.2900666776
 20
0.47760607195
 30
2.116591445522711
 11
-0.2962799395
 21
0.47638352935
 31
2.1271890889866496
  0
LINE
  5
7B
  8
0
 10
-0.2962799395
 20
0.47638352935
 30
2.1271890889866496
 11
-0.3503008281
 21
0.45925896355
 31
2.2224090727469163
  0
LINE
  5
7C
  8
0
 10
-0.3503008281
 20
0.45925896355
 30
2.2224090727469163
 11
-0.3553753058
 21
0.45741487165
 31
2.2313055531456727
  0
LINE
  5
7D
  8
0
 10
-0.3553753058
 20
0.45741487165
 30
2.2313055531456727
 11
-0.4030754351
 21
0.42925341255
 31
2.324753370582207
  0
LINE
  5
7E
  8
0
 10
-0.4030754351
 20
0.42925341255
 30
2.324753370582207
 11
-0.4069832231
 21
0.4268240743500001
 31
2.332403492217728
  0
LINE
  5
7F
  8
0
 10
-0.4069832231
 20
0.4268240743500001
 30
2.332403492217728
 11
-0.4463634295
 21
0.38614630175000003
 31
2.428400780142016
  0
LINE
  5
80
  8
0
 10
-0.4463634295
 20
0.38614630175000003
 30
2.428400780142016
 11
-0.4491503081
 21
0.38326099785
 31
2.4351845465734905
  0
LINE
  5
81
  8
0
 10
-0.4491503081
 20
0.38326099785
 30
2.4351845465734905
 11
-0.4785938564
 21
0.33073983265
 31
2.5368880164335934
  0
LINE
  5
82
  8
0
 10
-0.4785938564
 20
0.33073983265
 30
2.5368880164335934
 11
-0.480389954
 21
0.32761194945000005
 31
2.543069542382721
  0
LINE
  5
83
  8
0
 10
-0.480389954
 20
0.32761194945000005
 30
2.543069542382721
 11
-0.5000951042
 21
0.26497242865000004
 31
2.654355811576672
  0
LINE
  5
84
  8
0
 10
-0.5000951042
 20
0.26497242865000004
 30
2.654355811576672
 11
-0.50112732
 21
0.26178769735
 31
2.6601879532419868
  0
LINE
  5
85
  8
0
 10
-0.50112732
 20
0.26178769735
 30
2.6601879532419868
 11
-0.5128499549
 21
0.19034508625000002
 31
2.786200175955825
  0
LINE
  5
86
  8
0
 10
-0.5128499549
 20
0.19034508625000002
 30
2.786200175955825
 11
-0.5133684328
 21
0.18718711105000002
 31
2.7919485007706584
  0
LINE
  5
87
  8
0
 10
-0.5133684328
 20
0.18718711105000002
 30
2.7919485007706584
 11
-0.5193658686
 21
0.10734781145000002
 31
2.9377726072375143
  0
LINE
  5
88
  8
0
 10
-0.5193658686
 20
0.10734781145000002
 30
2.9377726072375143
 11
-0.5195756695
 21
0.10421587745000002
 31
2.943640592941056
  0
LINE
  5
89
  8
0
 10
-0.5195756695
 20
0.10421587745000002
 30
2.943640592941056
 11
-0.5220497805
 21
0.015734637960000034
 31
3.1114616650197515
  0
LINE
  5
8A
  8
0
 10
-0.5220497805
 20
0.015734637960000034
 30
3.1114616650197515
 11
-0.5221041161
 21
0.012594423070000027
 31
3.1174748949475477
  0
LINE
  5
8B
  8
0
 10
-0.5221041161
 20
0.012594423070000027
 30
3.1174748949475477
 11
-0.5220920496
 21
0.009637688450000029
 31
3.1231350004600578
  0
LINE
  5
8C
  8
0
 10
-0.5220920496
 20
0.009637688450000029
 30
3.1231350004600578
 11
-0.5224866206
 21
-0.06495363233999997
 31
-3.017910842721864
  0
LINE
  5
8D
  8
0
 10
0.2
 20
0.2
 30
0.0
 11
0.2
 21
-0.2
 31
0.0
  0
LINE
  5
8E
  8
0
 10
0.2
 20
-0.2
 30
0.0
 11
-0.2
 21
-0.2
 31
0.0
  0
LINE
  5
8F
  8
0
 10
-0.2
 20
-0.2
 30
0.0
 11
-0.2
 21
0.2
 31
0.0
  0
LINE
  5
90
  8
0
 10
-0.2
 20
0.2
 30
0.0
 11
0.2
 21
0.2
 31
0.0
  0
ENDSEC
  0
EOF
