  0
SECTION
  2
HEADER
  9
$ACADVER
  1
AC1009
  9
$DWGCODEPAGE
  3
ANSI_1252
  9
$INSBASE
 10
0.0
 20
0.0
 30
0.0
  9
$EXTMIN
 10
-100
 20
-100
 30
-100
  9
$EXTMAX
 10
100
 20
100
 30
100
  9
$LIMMIN
 10
0.0
 20
0.0
  9
$LIMMAX
 10
420.0
 20
297.0
  9
$ORTHOMODE
 70
0
  9
$REGENMODE
 70
1
  9
$DRAGMODE
 70
2
  9
$FILLMODE
 70
1
  9
$QTEXTMODE
 70
0
  9
$MIRRTEXT
 70
1
  9
$OSMODE
 70
20583
  9
$LTSCALE
 40
1.0
  9
$ATTMODE
 70
1
  9
$TEXTSIZE
 40
2.5
  9
$TRACEWID
 40
1.0
  9
$TEXTSTYLE
  7
Standard
  9
$CLAYER
  8
0
  9
$CELTYPE
  6
ByLayer
  9
$CECOLOR
 62
256
  9
$DIMSCALE
 40
1.0
  9
$DIMASZ
 40
2.5
  9
$DIMEXO
 40
0.625
  9
$DIMDLI
 40
3.75
  9
$DIMRND
 40
0.0
  9
$DIMDLE
 40
0.0
  9
$DIMEXE
 40
1.25
  9
$DIMTP
 40
0.0
  9
$DIMTM
 40
0.0
  9
$DIMTXT
 40
2.5
  9
$DIMCEN
 40
2.5
  9
$DIMTSZ
 40
0.0
  9
$DIMTOL
 70
0
  9
$DIMLIM
 70
0
  9
$DIMTIH
 70
0
  9
$DIMTOH
 70
0
  9
$DIMSE1
 70
0
  9
$DIMSE2
 70
0
  9
$DIMTAD
 70
1
  9
$DIMZIN
 70
8
  9
$DIMBLK
  1

  9
$DIMASO
 70
1
  9
$DIMSHO
 70
1
  9
$DIMPOST
  1

  9
$DIMAPOST
  1

  9
$DIMALT
 70
0
  9
$DIMALTD
 70
3
  9
$DIMALTF
 40
0.03937007874
  9
$DIMLFAC
 40
1.0
  9
$DIMTOFL
 70
1
  9
$DIMTVP
 40
0.0
  9
$DIMTIX
 70
0
  9
$DIMSOXD
 70
0
  9
$DIMSAH
 70
0
  9
$DIMBLK1
  1

  9
$DIMBLK2
  1

  9
$DIMSTYLE
  2
ISO-25
  9
$DIMCLRD
 70
0
  9
$DIMCLRE
 70
0
  9
$DIMCLRT
 70
0
  9
$DIMTFAC
 40
1.0
  9
$DIMGAP
 40
0.625
  9
$COORDS
 70
1
  9
$ATTDIA
 70
0
  9
$ATTREQ
 70
1
  9
$HANDLING
 70
1
  9
$LUNITS
 70
2
  9
$LUPREC
 70
4
  9
$SKETCHINC
 40
1.0
  9
$FILLETRAD
 40
10.0
  9
$AUNITS
 70
0
  9
$AUPREC
 70
2
  9
$MENU
  1
.
  9
$ELEVATION
 40
0.0
  9
$PELEVATION
 40
0.0
  9
$THICKNESS
 40
0.0
  9
$LIMCHECK
 70
0
  9
$CHAMFERA
 40
0.0
  9
$CHAMFERB
 40
0.0
  9
$SKPOLY
 70
0
  9
$TDCREATE
 40
2459751.945671296
  9
$TDUPDATE
 40
2459751.945671296
  9
$TDINDWG
 40
0.0
  9
$TDUSRTIMER
 40
0.0
  9
$USRTIMER
 70
1
  9
$ANGBASE
 50
0.0
  9
$ANGDIR
 70
0
  9
$PDMODE
 70
0
  9
$PDSIZE
 40
0.0
  9
$PLINEWID
 40
0.0
  9
$SPLFRAME
 70
0
  9
$SPLINETYPE
 70
6
  9
$SPLINESEGS
 70
8
  9
$HANDSEED
  5
B0
  9
$SURFTAB1
 70
6
  9
$SURFTAB2
 70
6
  9
$SURFTYPE
 70
6
  9
$SURFU
 70
6
  9
$SURFV
 70
6
  9
$UCSNAME
  2

  9
$UCSORG
 10
0.0
 20
0.0
 30
0.0
  9
$UCSXDIR
 10
1.0
 20
0.0
 30
0.0
  9
$UCSYDIR
 10
0.0
 20
1.0
 30
0.0
  9
$PUCSNAME
  2

  9
$PUCSORG
 10
0.0
 20
0.0
 30
0.0
  9
$PUCSXDIR
 10
1.0
 20
0.0
 30
0.0
  9
$PUCSYDIR
 10
0.0
 20
1.0
 30
0.0
  9
$USERI1
 70
0
  9
$USERI2
 70
0
  9
$USERI3
 70
0
  9
$USERI4
 70
0
  9
$USERI5
 70
0
  9
$USERR1
 40
0.0
  9
$USERR2
 40
0.0
  9
$USERR3
 40
0.0
  9
$USERR4
 40
0.0
  9
$USERR5
 40
0.0
  9
$WORLDVIEW
 70
1
  9
$SHADEDGE
 70
3
  9
$SHADEDIF
 70
70
  9
$TILEMODE
 70
1
  9
$MAXACTVP
 70
64
  9
$PLIMCHECK
 70
0
  9
$PEXTMIN
 10
1e+20
 20
1e+20
 30
1e+20
  9
$PEXTMAX
 10
-1e+20
 20
-1e+20
 30
-1e+20
  9
$PLIMMIN
 10
0.0
 20
0.0
  9
$PLIMMAX
 10
420.0
 20
297.0
  9
$UNITMODE
 70
0
  9
$VISRETAIN
 70
1
  9
$PLINEGEN
 70
0
  9
$PSLTSCALE
 70
1
  0
ENDSEC
  0
SECTION
  2
TABLES
  0
TABLE
  2
VPORT
 70
1
  0
VPORT
  5
23
  2
*Active
 70
0
 10
0.0
 20
0.0
 11
1.0
 21
1.0
 12
70.0
 22
50.0
 13
0.0
 23
0.0
 14
0.5
 24
0.5
 15
0.5
 25
0.5
 16
0.0
 26
0.0
 36
1.0
 17
0.0
 27
0.0
 37
0.0
 40
1.0
 41
1.34
 42
50.0
 43
0.0
 44
0.0
 50
0.0
 51
0.0
 71
0
 72
1000
 73
1
 74
3
 75
0
 76
0
 77
0
 78
0
  0
ENDTAB
  0
TABLE
  2
LTYPE
 70
3
  0
LTYPE
  5
24
  2
ByBlock
 70
0
  3

 72
65
 73
0
 40
0.0
  0
LTYPE
  5
25
  2
ByLayer
 70
0
  3

 72
65
 73
0
 40
0.0
  0
LTYPE
  5
26
  2
Continuous
 70
0
  3

 72
65
 73
0
 40
0.0
  0
ENDTAB
  0
TABLE
  2
LAYER
 70
2
  0
LAYER
  5
27
  2
0
 70
0
 62
7
  6
Continuous
  0
LAYER
  5
28
  2
Defpoints
 70
0
 62
7
  6
Continuous
  0
ENDTAB
  0
TABLE
  2
STYLE
 70
1
  0
STYLE
  5
29
  2
Standard
 70
0
 40
0.0
 41
1.0
 50
0.0
 71
0
 42
2.5
  3
txt
  4

  0
ENDTAB
  0
TABLE
  2
VIEW
 70
0
  0
ENDTAB
  0
TABLE
  2
UCS
 70
0
  0
ENDTAB
  0
TABLE
  2
APPID
 70
2
  0
APPID
  5
2A
  2
ACAD
 70
0
  0
APPID
  5
AF
  2
HATCHBACKGROUNDCOLOR
 70
0
  0
ENDTAB
  0
TABLE
  2
DIMSTYLE
 70
1
  0
DIMSTYLE
105
2B
  2
Standard
 70
0
  3

  4

  5

  6

  7

 40
1.0
 41
2.5
 42
0.625
 43
3.75
 44
1.25
 45
0.0
 46
0.0
 47
0.0
 48
0.0
140
2.5
141
2.5
142
0.0
143
0.03937007874
144
1.0
145
0.0
146
1.0
147
0.625
 71
0
 72
0
 73
0
 74
0
 75
0
 76
0
 77
1
 78
8
170
0
171
3
172
1
173
0
174
0
175
0
176
0
177
0
178
0
  0
ENDTAB
  0
ENDSEC
  0
SECTION
  2
BLOCKS
  0
BLOCK
  5
18
  8
0
  2
$Model_Space
 70
0
 10
0.0
 20
0.0
 30
0.0
  3
$Model_Space
  1

  0
ENDBLK
  5
19
  8
0
  0
BLOCK
  5
1C
  8
0
  2
$Paper_Space
 70
0
 10
0.0
 20
0.0
 30
0.0
  3
$Paper_Space
  1

  0
ENDBLK
  5
1D
  8
0
  0
ENDSEC
  0
SECTION
  2
ENTITIES
  0
LINE
  5
2D
  8
0
 10
-4.0877877486999985
 20
-2.775557562e-17
 30
0.0
 11
-4.074605818099999
 21
-0.03979253111
 31
0.0
  0
LINE
  5
2E
  8
0
 10
-4.074605818099999
 20
-0.03979253111
 30
0.0
 11
-4.056276141299999
 21
-0.09512465622
 31
0.0
  0
LINE
  5
2F
  8
0
 10
-4.056276141299999
 20
-0.09512465622
 30
0.0
 11
-4.038186580799999
 21
-0.1140824184
 31
0.0
  0
LINE
  5
30
  8
0
 10
-4.038186580799999
 20
-0.1140824184
 30
0.0
 11
-4.006178738599999
 21
-0.147626465
 31
0.0
  0
LINE
  5
31
  8
0
 10
-4.006178738599999
 20
-0.147626465
 30
0.0
 11
-3.970877997699999
 21
-0.1764920582
 31
0.0
  0
LINE
  5
32
  8
0
 10
-3.970877997699999
 20
-0.1764920582
 30
0.0
 11
-3.9310485251999987
 21
-0.2090608179
 31
0.0
  0
LINE
  5
33
  8
0
 10
-3.9310485251999987
 20
-0.2090608179
 30
0.0
 11
-3.881869052099999
 21
-0.2351985366
 31
0.0
  0
LINE
  5
34
  8
0
 10
-3.881869052099999
 20
-0.2351985366
 30
0.0
 11
-3.847992413999999
 21
-0.2532031629
 31
0.0
  0
LINE
  5
35
  8
0
 10
-3.847992413999999
 20
-0.2532031629
 30
0.0
 11
-3.766502460299999
 21
-0.2870897188
 31
0.0
  0
LINE
  5
36
  8
0
 10
-3.766502460299999
 20
-0.2870897188
 30
0.0
 11
-3.670998683199999
 21
-0.3268037442
 31
0.0
  0
LINE
  5
37
  8
0
 10
-3.670998683199999
 20
-0.3268037442
 30
0.0
 11
-3.630909604399999
 21
-0.3398416957
 31
0.0
  0
LINE
  5
38
  8
0
 10
-3.630909604399999
 20
-0.3398416957
 30
0.0
 11
-3.475107748899999
 21
-0.3905122794
 31
0.0
  0
LINE
  5
39
  8
0
 10
-3.475107748899999
 20
-0.3905122794
 30
0.0
 11
-3.474823801899999
 21
-0.3905857969
 31
0.0
  0
LINE
  5
3A
  8
0
 10
-3.474823801899999
 20
-0.3905857969
 30
0.0
 11
-3.4747601643999992
 21
-0.3906022735
 31
0.0
  0
LINE
  5
3B
  8
0
 10
-3.4747601643999992
 20
-0.3906022735
 30
0.0
 11
-3.2909188122999993
 21
-0.4277033531
 31
0.0
  0
LINE
  5
3C
  8
0
 10
-3.2909188122999993
 20
-0.4277033531
 30
0.0
 11
-3.258839476299999
 21
-0.4341772938
 31
0.0
  0
LINE
  5
3D
  8
0
 10
-3.258839476299999
 20
-0.4341772938
 30
0.0
 11
-3.084640699299999
 21
-0.4614043464
 31
0.0
  0
LINE
  5
3E
  8
0
 10
-3.084640699299999
 20
-0.4614043464
 30
0.0
 11
-3.022799237299999
 21
-0.4710700901
 31
0.0
  0
LINE
  5
3F
  8
0
 10
-3.022799237299999
 20
-0.4710700901
 30
0.0
 11
-2.855886412299999
 21
-0.491080347
 31
0.0
  0
LINE
  5
40
  8
0
 10
-2.855886412299999
 20
-0.491080347
 30
0.0
 11
-2.766202065299999
 21
-0.5018321082
 31
0.0
  0
LINE
  5
41
  8
0
 10
-2.766202065299999
 20
-0.5018321082
 30
0.0
 11
-2.604409865299999
 21
-0.5165096552
 31
0.0
  0
LINE
  5
42
  8
0
 10
-2.604409865299999
 20
-0.5165096552
 30
0.0
 11
-2.4886105802999987
 21
-0.5270147936
 31
0.0
  0
LINE
  5
43
  8
0
 10
-2.4886105802999987
 20
-0.5270147936
 30
0.0
 11
-2.329881214299999
 21
-0.5377134905
 31
0.0
  0
LINE
  5
44
  8
0
 10
-2.329881214299999
 20
-0.5377134905
 30
0.0
 11
-2.189587398299999
 21
-0.5471695921
 31
0.0
  0
LINE
  5
45
  8
0
 10
-2.189587398299999
 20
-0.5471695921
 30
0.0
 11
-2.031924637299999
 21
-0.5548727791
 31
0.0
  0
LINE
  5
46
  8
0
 10
-2.031924637299999
 20
-0.5548727791
 30
0.0
 11
-1.868695140299999
 21
-0.5628479493
 31
0.0
  0
LINE
  5
47
  8
0
 10
-1.868695140299999
 20
-0.5628479493
 30
0.0
 11
-1.7101453942999991
 21
-0.5682777262
 31
0.0
  0
LINE
  5
48
  8
0
 10
-1.7101453942999991
 20
-0.5682777262
 30
0.0
 11
-1.525496423299999
 21
-0.5746013108
 31
0.0
  0
LINE
  5
49
  8
0
 10
-1.525496423299999
 20
-0.5746013108
 30
0.0
 11
-1.3641517562999987
 21
-0.5782959834
 31
0.0
  0
LINE
  5
4A
  8
0
 10
-1.3641517562999987
 20
-0.5782959834
 30
0.0
 11
-1.1595538662999991
 21
-0.5829811224
 31
0.0
  0
LINE
  5
4B
  8
0
 10
-1.1595538662999991
 20
-0.5829811224
 30
0.0
 11
-0.9935747712999992
 21
-0.5853517389
 31
0.0
  0
LINE
  5
4C
  8
0
 10
-0.9935747712999992
 20
-0.5853517389
 30
0.0
 11
-0.770430087299999
 21
-0.5885388297
 31
0.0
  0
LINE
  5
4D
  8
0
 10
-0.770430087299999
 20
-0.5885388297
 30
0.0
 11
-0.5980873862999991
 21
-0.5899113538
 31
0.0
  0
LINE
  5
4E
  8
0
 10
-0.5980873862999991
 20
-0.5899113538
 30
0.0
 11
-0.35768770529999916
 21
-0.5918258784
 31
0.0
  0
LINE
  5
4F
  8
0
 10
-0.35768770529999916
 20
-0.5918258784
 30
0.0
 11
-0.17742346429999856
 21
-0.5924729154
 31
0.0
  0
LINE
  5
50
  8
0
 10
-0.17742346429999856
 20
-0.5924729154
 30
0.0
 11
0.07911066270000067
 21
-0.5933937141
 31
0.0
  0
LINE
  5
51
  8
0
 10
0.07911066270000067
 20
-0.5933937141
 30
0.0
 11
0.2686036337000006
 21
-0.5935580573
 31
0.0
  0
LINE
  5
52
  8
0
 10
0.2686036337000006
 20
-0.5935580573
 30
0.0
 11
0.540402395700001
 21
-0.5937937826
 31
0.0
  0
LINE
  5
53
  8
0
 10
0.540402395700001
 20
-0.5937937826
 30
0.0
 11
0.6143027107000014
 21
-0.5920507257
 31
0.0
  0
LINE
  5
54
  8
0
 10
0.6143027107000014
 20
-0.5920507257
 30
0.0
 11
0.7182708897000012
 21
-0.5895984704
 31
0.0
  0
LINE
  5
55
  8
0
 10
0.7182708897000012
 20
-0.5895984704
 30
0.0
 11
0.8115522327000013
 21
-0.5843346828
 31
0.0
  0
LINE
  5
56
  8
0
 10
0.8115522327000013
 20
-0.5843346828
 30
0.0
 11
0.932879432700001
 21
-0.5774882911
 31
0.0
  0
LINE
  5
57
  8
0
 10
0.932879432700001
 20
-0.5774882911
 30
0.0
 11
1.0493896157000009
 21
-0.5683619838
 31
0.0
  0
LINE
  5
58
  8
0
 10
1.0493896157000009
 20
-0.5683619838
 30
0.0
 11
1.179416829700001
 21
-0.5581768801
 31
0.0
  0
LINE
  5
59
  8
0
 10
1.179416829700001
 20
-0.5581768801
 30
0.0
 11
1.3247059097000013
 21
-0.5444796581
 31
0.0
  0
LINE
  5
5A
  8
0
 10
1.3247059097000013
 20
-0.5444796581
 30
0.0
 11
1.4530718807000014
 21
-0.532377873
 31
0.0
  0
LINE
  5
5B
  8
0
 10
1.4530718807000014
 20
-0.532377873
 30
0.0
 11
1.6343643677000008
 21
-0.513037717
 31
0.0
  0
LINE
  5
5C
  8
0
 10
1.6343643677000008
 20
-0.513037717
 30
0.0
 11
1.7490333917000012
 21
-0.5008049055
 31
0.0
  0
LINE
  5
5D
  8
0
 10
1.7490333917000012
 20
-0.5008049055
 30
0.0
 11
1.9753378817000007
 21
-0.4743569888
 31
0.0
  0
LINE
  5
5E
  8
0
 10
1.9753378817000007
 20
-0.4743569888
 30
0.0
 11
2.0624901637000006
 21
-0.464171613
 31
0.0
  0
LINE
  5
5F
  8
0
 10
2.0624901637000006
 20
-0.464171613
 30
0.0
 11
2.3448696077000006
 21
-0.4286903019
 31
0.0
  0
LINE
  5
60
  8
0
 10
2.3448696077000006
 20
-0.4286903019
 30
0.0
 11
2.388631000700001
 21
-0.4231916311
 31
0.0
  0
LINE
  5
61
  8
0
 10
2.388631000700001
 20
-0.4231916311
 30
0.0
 11
2.6332983087000015
 21
-0.3905122794
 31
0.0
  0
LINE
  5
62
  8
0
 10
2.6332983087000015
 20
-0.3905122794
 30
0.0
 11
2.7226447047000013
 21
-0.3755221951
 31
0.0
  0
LINE
  5
63
  8
0
 10
2.7226447047000013
 20
-0.3755221951
 30
0.0
 11
2.7540489737000007
 21
-0.3699595489
 31
0.0
  0
LINE
  5
64
  8
0
 10
2.7540489737000007
 20
-0.3699595489
 30
0.0
 11
3.059720080700001
 21
-0.3158159475
 31
0.0
  0
LINE
  5
65
  8
0
 10
3.059720080700001
 20
-0.3158159475
 30
0.0
 11
3.244966497700001
 21
-0.2813013582
 31
0.0
  0
LINE
  5
66
  8
0
 10
3.244966497700001
 20
-0.2813013582
 30
0.0
 11
3.395045929700001
 21
-0.2533389824
 31
0.0
  0
LINE
  5
67
  8
0
 10
3.395045929700001
 20
-0.2533389824
 30
0.0
 11
3.621259264700001
 21
-0.2090608179
 31
0.0
  0
LINE
  5
68
  8
0
 10
3.621259264700001
 20
-0.2090608179
 30
0.0
 11
3.7238110557000006
 21
-0.1781772466
 31
0.0
  0
LINE
  5
69
  8
0
 10
3.7238110557000006
 20
-0.1781772466
 30
0.0
 11
3.9860702847000002
 21
-0.09512465622
 31
0.0
  0
LINE
  5
6A
  8
0
 10
3.9860702847000002
 20
-0.09512465622
 30
0.0
 11
4.041204261700001
 21
-0.04483192597
 31
0.0
  0
LINE
  5
6B
  8
0
 10
4.041204261700001
 20
-0.04483192597
 30
0.0
 11
4.0877877487
 21
-1.776356839e-15
 31
0.0
  0
LINE
  5
6C
  8
0
 10
4.0877877487
 20
-1.776356839e-15
 30
0.0
 11
4.041204261700001
 21
0.04483192597
 31
0.0
  0
LINE
  5
6D
  8
0
 10
4.041204261700001
 20
0.04483192597
 30
0.0
 11
3.9860702847000002
 21
0.09512465622
 31
0.0
  0
LINE
  5
6E
  8
0
 10
3.9860702847000002
 20
0.09512465622
 30
0.0
 11
3.7238110557000006
 21
0.1781772466
 31
0.0
  0
LINE
  5
6F
  8
0
 10
3.7238110557000006
 20
0.1781772466
 30
0.0
 11
3.621259264700001
 21
0.2090608179
 31
0.0
  0
LINE
  5
70
  8
0
 10
3.621259264700001
 20
0.2090608179
 30
0.0
 11
3.395045929700001
 21
0.2533389824
 31
0.0
  0
LINE
  5
71
  8
0
 10
3.395045929700001
 20
0.2533389824
 30
0.0
 11
3.244966497700001
 21
0.2813013582
 31
0.0
  0
LINE
  5
72
  8
0
 10
3.244966497700001
 20
0.2813013582
 30
0.0
 11
3.059720080700001
 21
0.3158159475
 31
0.0
  0
LINE
  5
73
  8
0
 10
3.059720080700001
 20
0.3158159475
 30
0.0
 11
2.7540489737000007
 21
0.3699595489
 31
0.0
  0
LINE
  5
74
  8
0
 10
2.7540489737000007
 20
0.3699595489
 30
0.0
 11
2.7226447047000013
 21
0.3755221951
 31
0.0
  0
LINE
  5
75
  8
0
 10
2.7226447047000013
 20
0.3755221951
 30
0.0
 11
2.6332983087000015
 21
0.3905122794
 31
0.0
  0
LINE
  5
76
  8
0
 10
2.6332983087000015
 20
0.3905122794
 30
0.0
 11
2.388631000700001
 21
0.4231916311
 31
0.0
  0
LINE
  5
77
  8
0
 10
2.388631000700001
 20
0.4231916311
 30
0.0
 11
2.3448696077000006
 21
0.4286903019
 31
0.0
  0
LINE
  5
78
  8
0
 10
2.3448696077000006
 20
0.4286903019
 30
0.0
 11
2.0624901637000006
 21
0.464171613
 31
0.0
  0
LINE
  5
79
  8
0
 10
2.0624901637000006
 20
0.464171613
 30
0.0
 11
1.9753378817000007
 21
0.4743569888
 31
0.0
  0
LINE
  5
7A
  8
0
 10
1.9753378817000007
 20
0.4743569888
 30
0.0
 11
1.7490333917000012
 21
0.5008049055
 31
0.0
  0
LINE
  5
7B
  8
0
 10
1.7490333917000012
 20
0.5008049055
 30
0.0
 11
1.6343643677000008
 21
0.513037717
 31
0.0
  0
LINE
  5
7C
  8
0
 10
1.6343643677000008
 20
0.513037717
 30
0.0
 11
1.4530718807000014
 21
0.532377873
 31
0.0
  0
LINE
  5
7D
  8
0
 10
1.4530718807000014
 20
0.532377873
 30
0.0
 11
1.3247059097000013
 21
0.5444796581
 31
0.0
  0
LINE
  5
7E
  8
0
 10
1.3247059097000013
 20
0.5444796581
 30
0.0
 11
1.179416829700001
 21
0.5581768801
 31
0.0
  0
LINE
  5
7F
  8
0
 10
1.179416829700001
 20
0.5581768801
 30
0.0
 11
1.0493896157000009
 21
0.5683619838
 31
0.0
  0
LINE
  5
80
  8
0
 10
1.0493896157000009
 20
0.5683619838
 30
0.0
 11
0.932879432700001
 21
0.5774882911
 31
0.0
  0
LINE
  5
81
  8
0
 10
0.932879432700001
 20
0.5774882911
 30
0.0
 11
0.8115522327000013
 21
0.5843346828
 31
0.0
  0
LINE
  5
82
  8
0
 10
0.8115522327000013
 20
0.5843346828
 30
0.0
 11
0.7182708897000012
 21
0.5895984704
 31
0.0
  0
LINE
  5
83
  8
0
 10
0.7182708897000012
 20
0.5895984704
 30
0.0
 11
0.6143027107000014
 21
0.5920507257
 31
0.0
  0
LINE
  5
84
  8
0
 10
0.6143027107000014
 20
0.5920507257
 30
0.0
 11
0.540402395700001
 21
0.5937937826
 31
0.0
  0
LINE
  5
85
  8
0
 10
0.540402395700001
 20
0.5937937826
 30
0.0
 11
0.2686036337000006
 21
0.5935580573
 31
0.0
  0
LINE
  5
86
  8
0
 10
0.2686036337000006
 20
0.5935580573
 30
0.0
 11
0.07911066270000067
 21
0.5933937141
 31
0.0
  0
LINE
  5
87
  8
0
 10
0.07911066270000067
 20
0.5933937141
 30
0.0
 11
-0.17742346429999856
 21
0.5924729154
 31
0.0
  0
LINE
  5
88
  8
0
 10
-0.17742346429999856
 20
0.5924729154
 30
0.0
 11
-0.35768770529999916
 21
0.5918258784
 31
0.0
  0
LINE
  5
89
  8
0
 10
-0.35768770529999916
 20
0.5918258784
 30
0.0
 11
-0.5980873862999991
 21
0.5899113538
 31
0.0
  0
LINE
  5
8A
  8
0
 10
-0.5980873862999991
 20
0.5899113538
 30
0.0
 11
-0.770430087299999
 21
0.5885388297
 31
0.0
  0
LINE
  5
8B
  8
0
 10
-0.770430087299999
 20
0.5885388297
 30
0.0
 11
-0.9935747712999992
 21
0.5853517389
 31
0.0
  0
LINE
  5
8C
  8
0
 10
-0.9935747712999992
 20
0.5853517389
 30
0.0
 11
-1.1595538662999991
 21
0.5829811224
 31
0.0
  0
LINE
  5
8D
  8
0
 10
-1.1595538662999991
 20
0.5829811224
 30
0.0
 11
-1.3641517562999987
 21
0.5782959834
 31
0.0
  0
LINE
  5
8E
  8
0
 10
-1.3641517562999987
 20
0.5782959834
 30
0.0
 11
-1.525496423299999
 21
0.5746013108
 31
0.0
  0
LINE
  5
8F
  8
0
 10
-1.525496423299999
 20
0.5746013108
 30
0.0
 11
-1.7101453942999991
 21
0.5682777262
 31
0.0
  0
LINE
  5
90
  8
0
 10
-1.7101453942999991
 20
0.5682777262
 30
0.0
 11
-1.868695140299999
 21
0.5628479493
 31
0.0
  0
LINE
  5
91
  8
0
 10
-1.868695140299999
 20
0.5628479493
 30
0.0
 11
-2.031924637299999
 21
0.5548727791
 31
0.0
  0
LINE
  5
92
  8
0
 10
-2.031924637299999
 20
0.5548727791
 30
0.0
 11
-2.189587398299999
 21
0.5471695921
 31
0.0
  0
LINE
  5
93
  8
0
 10
-2.189587398299999
 20
0.5471695921
 30
0.0
 11
-2.329881214299999
 21
0.5377134905
 31
0.0
  0
LINE
  5
94
  8
0
 10
-2.329881214299999
 20
0.5377134905
 30
0.0
 11
-2.4886105802999987
 21
0.5270147936
 31
0.0
  0
LINE
  5
95
  8
0
 10
-2.4886105802999987
 20
0.5270147936
 30
0.0
 11
-2.604409865299999
 21
0.5165096552
 31
0.0
  0
LINE
  5
96
  8
0
 10
-2.604409865299999
 20
0.5165096552
 30
0.0
 11
-2.766202065299999
 21
0.5018321082
 31
0.0
  0
LINE
  5
97
  8
0
 10
-2.766202065299999
 20
0.5018321082
 30
0.0
 11
-2.855886412299999
 21
0.491080347
 31
0.0
  0
LINE
  5
98
  8
0
 10
-2.855886412299999
 20
0.491080347
 30
0.0
 11
-3.022799237299999
 21
0.4710700901
 31
0.0
  0
LINE
  5
99
  8
0
 10
-3.022799237299999
 20
0.4710700901
 30
0.0
 11
-3.084640699299999
 21
0.4614043464
 31
0.0
  0
LINE
  5
9A
  8
0
 10
-3.084640699299999
 20
0.4614043464
 30
0.0
 11
-3.258839476299999
 21
0.4341772938
 31
0.0
  0
LINE
  5
9B
  8
0
 10
-3.258839476299999
 20
0.4341772938
 30
0.0
 11
-3.2909188122999993
 21
0.4277033531
 31
0.0
  0
LINE
  5
9C
  8
0
 10
-3.2909188122999993
 20
0.4277033531
 30
0.0
 11
-3.4747601643999992
 21
0.3906022735
 31
0.0
  0
LINE
  5
9D
  8
0
 10
-3.4747601643999992
 20
0.3906022735
 30
0.0
 11
-3.474823801899999
 21
0.3905857969
 31
0.0
  0
LINE
  5
9E
  8
0
 10
-3.474823801899999
 20
0.3905857969
 30
0.0
 11
-3.475107748899999
 21
0.3905122794
 31
0.0
  0
LINE
  5
9F
  8
0
 10
-3.475107748899999
 20
0.3905122794
 30
0.0
 11
-3.630909604399999
 21
0.3398416957
 31
0.0
  0
LINE
  5
A0
  8
0
 10
-3.630909604399999
 20
0.3398416957
 30
0.0
 11
-3.670998683199999
 21
0.3268037442
 31
0.0
  0
LINE
  5
A1
  8
0
 10
-3.670998683199999
 20
0.3268037442
 30
0.0
 11
-3.766502460299999
 21
0.2870897188
 31
0.0
  0
LINE
  5
A2
  8
0
 10
-3.766502460299999
 20
0.2870897188
 30
0.0
 11
-3.847992413999999
 21
0.2532031629
 31
0.0
  0
LINE
  5
A3
  8
0
 10
-3.847992413999999
 20
0.2532031629
 30
0.0
 11
-3.881869052099999
 21
0.2351985366
 31
0.0
  0
LINE
  5
A4
  8
0
 10
-3.881869052099999
 20
0.2351985366
 30
0.0
 11
-3.9310485251999987
 21
0.2090608179
 31
0.0
  0
LINE
  5
A5
  8
0
 10
-3.9310485251999987
 20
0.2090608179
 30
0.0
 11
-3.970877997699999
 21
0.1764920582
 31
0.0
  0
LINE
  5
A6
  8
0
 10
-3.970877997699999
 20
0.1764920582
 30
0.0
 11
-4.006178738599999
 21
0.147626465
 31
0.0
  0
LINE
  5
A7
  8
0
 10
-4.006178738599999
 20
0.147626465
 30
0.0
 11
-4.038186580799999
 21
0.1140824184
 31
0.0
  0
LINE
  5
A8
  8
0
 10
-4.038186580799999
 20
0.1140824184
 30
0.0
 11
-4.056276141299999
 21
0.09512465622
 31
0.0
  0
LINE
  5
A9
  8
0
 10
-4.056276141299999
 20
0.09512465622
 30
0.0
 11
-4.074605818099999
 21
0.03979253111
 31
0.0
  0
LINE
  5
AA
  8
0
 10
-4.074605818099999
 20
0.03979253111
 30
0.0
 11
-4.0877877486999985
 21
-2.775557562e-17
 31
0.0
  0
LINE
  5
AB
  8
0
 10
0.2
 20
0.2
 30
0.0
 11
0.2
 21
-0.2
 31
0.0
  0
LINE
  5
AC
  8
0
 10
0.2
 20
-0.2
 30
0.0
 11
-0.2
 21
-0.2
 31
0.0
  0
LINE
  5
AD
  8
0
 10
-0.2
 20
-0.2
 30
0.0
 11
-0.2
 21
0.2
 31
0.0
  0
LINE
  5
AE
  8
0
 10
-0.2
 20
0.2
 30
0.0
 11
0.2
 21
0.2
 31
0.0
  0
ENDSEC
  0
EOF
