  0
SECTION
  2
HEADER
  9
$ACADVER
  1
AC1009
  9
$DWGCODEPAGE
  3
ANSI_1252
  9
$INSBASE
 10
0.0
 20
0.0
 30
0.0
  9
$EXTMIN
 10
-100
 20
-100
 30
-100
  9
$EXTMAX
 10
100
 20
100
 30
100
  9
$LIMMIN
 10
0.0
 20
0.0
  9
$LIMMAX
 10
420.0
 20
297.0
  9
$ORTHOMODE
 70
0
  9
$REGENMODE
 70
1
  9
$DRAGMODE
 70
2
  9
$FILLMODE
 70
1
  9
$QTEXTMODE
 70
0
  9
$MIRRTEXT
 70
1
  9
$OSMODE
 70
20583
  9
$LTSCALE
 40
1.0
  9
$ATTMODE
 70
1
  9
$TEXTSIZE
 40
2.5
  9
$TRACEWID
 40
1.0
  9
$TEXTSTYLE
  7
Standard
  9
$CLAYER
  8
0
  9
$CELTYPE
  6
ByLayer
  9
$CECOLOR
 62
256
  9
$DIMSCALE
 40
1.0
  9
$DIMASZ
 40
2.5
  9
$DIMEXO
 40
0.625
  9
$DIMDLI
 40
3.75
  9
$DIMRND
 40
0.0
  9
$DIMDLE
 40
0.0
  9
$DIMEXE
 40
1.25
  9
$DIMTP
 40
0.0
  9
$DIMTM
 40
0.0
  9
$DIMTXT
 40
2.5
  9
$DIMCEN
 40
2.5
  9
$DIMTSZ
 40
0.0
  9
$DIMTOL
 70
0
  9
$DIMLIM
 70
0
  9
$DIMTIH
 70
0
  9
$DIMTOH
 70
0
  9
$DIMSE1
 70
0
  9
$DIMSE2
 70
0
  9
$DIMTAD
 70
1
  9
$DIMZIN
 70
8
  9
$DIMBLK
  1

  9
$DIMASO
 70
1
  9
$DIMSHO
 70
1
  9
$DIMPOST
  1

  9
$DIMAPOST
  1

  9
$DIMALT
 70
0
  9
$DIMALTD
 70
3
  9
$DIMALTF
 40
0.03937007874
  9
$DIMLFAC
 40
1.0
  9
$DIMTOFL
 70
1
  9
$DIMTVP
 40
0.0
  9
$DIMTIX
 70
0
  9
$DIMSOXD
 70
0
  9
$DIMSAH
 70
0
  9
$DIMBLK1
  1

  9
$DIMBLK2
  1

  9
$DIMSTYLE
  2
ISO-25
  9
$DIMCLRD
 70
0
  9
$DIMCLRE
 70
0
  9
$DIMCLRT
 70
0
  9
$DIMTFAC
 40
1.0
  9
$DIMGAP
 40
0.625
  9
$COORDS
 70
1
  9
$ATTDIA
 70
0
  9
$ATTREQ
 70
1
  9
$HANDLING
 70
1
  9
$LUNITS
 70
2
  9
$LUPREC
 70
4
  9
$SKETCHINC
 40
1.0
  9
$FILLETRAD
 40
10.0
  9
$AUNITS
 70
0
  9
$AUPREC
 70
2
  9
$MENU
  1
.
  9
$ELEVATION
 40
0.0
  9
$PELEVATION
 40
0.0
  9
$THICKNESS
 40
0.0
  9
$LIMCHECK
 70
0
  9
$CHAMFERA
 40
0.0
  9
$CHAMFERB
 40
0.0
  9
$SKPOLY
 70
0
  9
$TDCREATE
 40
2459751.94568287
  9
$TDUPDATE
 40
2459751.94568287
  9
$TDINDWG
 40
0.0
  9
$TDUSRTIMER
 40
0.0
  9
$USRTIMER
 70
1
  9
$ANGBASE
 50
0.0
  9
$ANGDIR
 70
0
  9
$PDMODE
 70
0
  9
$PDSIZE
 40
0.0
  9
$PLINEWID
 40
0.0
  9
$SPLFRAME
 70
0
  9
$SPLINETYPE
 70
6
  9
$SPLINESEGS
 70
8
  9
$HANDSEED
  5
72
  9
$SURFTAB1
 70
6
  9
$SURFTAB2
 70
6
  9
$SURFTYPE
 70
6
  9
$SURFU
 70
6
  9
$SURFV
 70
6
  9
$UCSNAME
  2

  9
$UCSORG
 10
0.0
 20
0.0
 30
0.0
  9
$UCSXDIR
 10
1.0
 20
0.0
 30
0.0
  9
$UCSYDIR
 10
0.0
 20
1.0
 30
0.0
  9
$PUCSNAME
  2

  9
$PUCSORG
 10
0.0
 20
0.0
 30
0.0
  9
$PUCSXDIR
 10
1.0
 20
0.0
 30
0.0
  9
$PUCSYDIR
 10
0.0
 20
1.0
 30
0.0
  9
$USERI1
 70
0
  9
$USERI2
 70
0
  9
$USERI3
 70
0
  9
$USERI4
 70
0
  9
$USERI5
 70
0
  9
$USERR1
 40
0.0
  9
$USERR2
 40
0.0
  9
$USERR3
 40
0.0
  9
$USERR4
 40
0.0
  9
$USERR5
 40
0.0
  9
$WORLDVIEW
 70
1
  9
$SHADEDGE
 70
3
  9
$SHADEDIF
 70
70
  9
$TILEMODE
 70
1
  9
$MAXACTVP
 70
64
  9
$PLIMCHECK
 70
0
  9
$PEXTMIN
 10
1e+20
 20
1e+20
 30
1e+20
  9
$PEXTMAX
 10
-1e+20
 20
-1e+20
 30
-1e+20
  9
$PLIMMIN
 10
0.0
 20
0.0
  9
$PLIMMAX
 10
420.0
 20
297.0
  9
$UNITMODE
 70
0
  9
$VISRETAIN
 70
1
  9
$PLINEGEN
 70
0
  9
$PSLTSCALE
 70
1
  0
ENDSEC
  0
SECTION
  2
TABLES
  0
TABLE
  2
VPORT
 70
1
  0
VPORT
  5
23
  2
*Active
 70
0
 10
0.0
 20
0.0
 11
1.0
 21
1.0
 12
70.0
 22
50.0
 13
0.0
 23
0.0
 14
0.5
 24
0.5
 15
0.5
 25
0.5
 16
0.0
 26
0.0
 36
1.0
 17
0.0
 27
0.0
 37
0.0
 40
1.0
 41
1.34
 42
50.0
 43
0.0
 44
0.0
 50
0.0
 51
0.0
 71
0
 72
1000
 73
1
 74
3
 75
0
 76
0
 77
0
 78
0
  0
ENDTAB
  0
TABLE
  2
LTYPE
 70
3
  0
LTYPE
  5
24
  2
ByBlock
 70
0
  3

 72
65
 73
0
 40
0.0
  0
LTYPE
  5
25
  2
ByLayer
 70
0
  3

 72
65
 73
0
 40
0.0
  0
LTYPE
  5
26
  2
Continuous
 70
0
  3

 72
65
 73
0
 40
0.0
  0
ENDTAB
  0
TABLE
  2
LAYER
 70
2
  0
LAYER
  5
27
  2
0
 70
0
 62
7
  6
Continuous
  0
LAYER
  5
28
  2
Defpoints
 70
0
 62
7
  6
Continuous
  0
ENDTAB
  0
TABLE
  2
STYLE
 70
1
  0
STYLE
  5
29
  2
Standard
 70
0
 40
0.0
 41
1.0
 50
0.0
 71
0
 42
2.5
  3
txt
  4

  0
ENDTAB
  0
TABLE
  2
VIEW
 70
0
  0
ENDTAB
  0
TABLE
  2
UCS
 70
0
  0
ENDTAB
  0
TABLE
  2
APPID
 70
2
  0
APPID
  5
2A
  2
ACAD
 70
0
  0
APPID
  5
71
  2
HATCHBACKGROUNDCOLOR
 70
0
  0
ENDTAB
  0
TABLE
  2
DIMSTYLE
 70
1
  0
DIMSTYLE
105
2B
  2
Standard
 70
0
  3

  4

  5

  6

  7

 40
1.0
 41
2.5
 42
0.625
 43
3.75
 44
1.25
 45
0.0
 46
0.0
 47
0.0
 48
0.0
140
2.5
141
2.5
142
0.0
143
0.03937007874
144
1.0
145
0.0
146
1.0
147
0.625
 71
0
 72
0
 73
0
 74
0
 75
0
 76
0
 77
1
 78
8
170
0
171
3
172
1
173
0
174
0
175
0
176
0
177
0
178
0
  0
ENDTAB
  0
ENDSEC
  0
SECTION
  2
BLOCKS
  0
BLOCK
  5
18
  8
0
  2
$Model_Space
 70
0
 10
0.0
 20
0.0
 30
0.0
  3
$Model_Space
  1

  0
ENDBLK
  5
19
  8
0
  0
BLOCK
  5
1C
  8
0
  2
$Paper_Space
 70
0
 10
0.0
 20
0.0
 30
0.0
  3
$Paper_Space
  1

  0
ENDBLK
  5
1D
  8
0
  0
ENDSEC
  0
SECTION
  2
ENTITIES
  0
LINE
  5
2D
  8
0
 10
-1.7632534695
 20
-0.02969378320499999
 30
0.0
 11
-1.7268720785
 21
-0.080514556505
 31
0.0
  0
LINE
  5
2E
  8
0
 10
-1.7268720785
 20
-0.080514556505
 30
0.0
 11
-1.7252696305000002
 21
-0.08277992700499998
 31
0.0
  0
LINE
  5
2F
  8
0
 10
-1.7252696305000002
 20
-0.08277992700499998
 30
0.0
 11
-1.6401257875000002
 21
-0.119960525205
 31
0.0
  0
LINE
  5
30
  8
0
 10
-1.6401257875000002
 20
-0.119960525205
 30
0.0
 11
-1.6363567085000001
 21
-0.12161374250500001
 31
0.0
  0
LINE
  5
31
  8
0
 10
-1.6363567085000001
 20
-0.12161374250500001
 30
0.0
 11
-1.5085118335
 21
-0.150556518405
 31
0.0
  0
LINE
  5
32
  8
0
 10
-1.5085118335
 20
-0.150556518405
 30
0.0
 11
-1.5028404014999999
 21
-0.15180835540499998
 31
0.0
  0
LINE
  5
33
  8
0
 10
-1.5028404014999999
 20
-0.15180835540499998
 30
0.0
 11
-1.3250032885
 21
-0.173773506305
 31
0.0
  0
LINE
  5
34
  8
0
 10
-1.3250032885
 20
-0.173773506305
 30
0.0
 11
-1.3171157815
 21
-0.17468437450500002
 31
0.0
  0
LINE
  5
35
  8
0
 10
-1.3171157815
 20
-0.17468437450500002
 30
0.0
 11
-1.0821775995
 21
-0.18827962130499998
 31
0.0
  0
LINE
  5
36
  8
0
 10
-1.0821775995
 20
-0.18827962130499998
 30
0.0
 11
-1.0717627305000001
 21
-0.188797850805
 31
0.0
  0
LINE
  5
37
  8
0
 10
-1.0717627305000001
 20
-0.188797850805
 30
0.0
 11
-0.7783861105000001
 21
-0.192282054805
 31
0.0
  0
LINE
  5
38
  8
0
 10
-0.7783861105000001
 20
-0.192282054805
 30
0.0
 11
-0.7653856075000003
 21
-0.192350833005
 31
0.0
  0
LINE
  5
39
  8
0
 10
-0.7653856075000003
 20
-0.192350833005
 30
0.0
 11
-0.4225000335000004
 21
-0.185469325505
 31
0.0
  0
LINE
  5
3A
  8
0
 10
-0.4225000335000004
 20
-0.185469325505
 30
0.0
 11
-0.40730783650000024
 21
-0.18510779100500002
 31
0.0
  0
LINE
  5
3B
  8
0
 10
-0.40730783650000024
 20
-0.18510779100500002
 30
0.0
 11
-0.03573464850000008
 21
-0.16919980340500002
 31
0.0
  0
LINE
  5
3C
  8
0
 10
-0.03573464850000008
 20
-0.16919980340500002
 30
0.0
 11
-0.019270772499999644
 21
-0.168481114705
 31
0.0
  0
LINE
  5
3D
  8
0
 10
-0.019270772499999644
 20
-0.168481114705
 30
0.0
 11
-0.0028205865000003882
 21
-0.167495069805
 31
0.0
  0
LINE
  5
3E
  8
0
 10
-0.0028205865000003882
 20
-0.167495069805
 30
0.0
 11
0.36841374549999983
 21
-0.144964608705
 31
0.0
  0
LINE
  5
3F
  8
0
 10
0.36841374549999983
 20
-0.144964608705
 30
0.0
 11
0.3835741265000001
 21
-0.14390818100500002
 31
0.0
  0
LINE
  5
40
  8
0
 10
0.3835741265000001
 20
-0.14390818100500002
 30
0.0
 11
0.7256564105000001
 21
-0.11922184190500001
 31
0.0
  0
LINE
  5
41
  8
0
 10
0.7256564105000001
 20
-0.11922184190500001
 30
0.0
 11
0.7386218925000003
 21
-0.11824336420499998
 31
0.0
  0
LINE
  5
42
  8
0
 10
0.7386218925000003
 20
-0.11824336420499998
 30
0.0
 11
1.0311350704999995
 21
-0.094955708405
 31
0.0
  0
LINE
  5
43
  8
0
 10
1.0311350704999995
 20
-0.094955708405
 30
0.0
 11
1.0415324535000003
 21
-0.09413144360499998
 31
0.0
  0
LINE
  5
44
  8
0
 10
1.0415324535000003
 20
-0.09413144360499998
 30
0.0
 11
1.2760746674999996
 21
-0.074232314405
 31
0.0
  0
LINE
  5
45
  8
0
 10
1.2760746674999996
 20
-0.074232314405
 30
0.0
 11
1.2839904085000002
 21
-0.07358254460500002
 31
0.0
  0
LINE
  5
46
  8
0
 10
1.2839904085000002
 20
-0.07358254460500002
 30
0.0
 11
1.4625312204999998
 21
-0.05773172410499999
 31
0.0
  0
LINE
  5
47
  8
0
 10
1.4625312204999998
 20
-0.05773172410499999
 30
0.0
 11
1.4683223605000002
 21
-0.05724333470499998
 31
0.0
  0
LINE
  5
48
  8
0
 10
1.4683223605000002
 20
-0.05724333470499998
 30
0.0
 11
1.5989301285000002
 21
-0.04524419490499998
 31
0.0
  0
LINE
  5
49
  8
0
 10
1.5989301285000002
 20
-0.04524419490499998
 30
0.0
 11
1.6030446334999997
 21
-0.04488986320499999
 31
0.0
  0
LINE
  5
4A
  8
0
 10
1.6030446334999997
 20
-0.04488986320499999
 30
0.0
 11
1.6958324864999996
 21
-0.03614343740499998
 31
0.0
  0
LINE
  5
4B
  8
0
 10
1.6958324864999996
 20
-0.03614343740499998
 30
0.0
 11
1.6986953475000002
 21
-0.03589306600500003
 31
0.0
  0
LINE
  5
4C
  8
0
 10
1.6986953475000002
 20
-0.03589306600500003
 30
0.0
 11
1.7632534694999995
 21
-0.02969378320499999
 31
0.0
  0
LINE
  5
4D
  8
0
 10
1.7632534694999995
 20
-0.02969378320499999
 30
0.0
 11
1.6988099734999995
 21
-0.01958886060499998
 31
0.0
  0
LINE
  5
4E
  8
0
 10
1.6988099734999995
 20
-0.01958886060499998
 30
0.0
 11
1.6959544014999999
 21
-0.019090135105000017
 31
0.0
  0
LINE
  5
4F
  8
0
 10
1.6959544014999999
 20
-0.019090135105000017
 30
0.0
 11
1.6032828864999997
 21
-0.004953945105000024
 31
0.0
  0
LINE
  5
50
  8
0
 10
1.6032828864999997
 20
-0.004953945105000024
 30
0.0
 11
1.5991757795000003
 21
-0.004256885905000007
 31
0.0
  0
LINE
  5
51
  8
0
 10
1.5991757795000003
 20
-0.004256885905000007
 30
0.0
 11
1.4686393744999995
 21
0.014882006494999989
 31
0.0
  0
LINE
  5
52
  8
0
 10
1.4686393744999995
 20
0.014882006494999989
 30
0.0
 11
1.4628527724999998
 21
0.015824402795000025
 31
0.0
  0
LINE
  5
53
  8
0
 10
1.4628527724999998
 20
0.015824402795000025
 30
0.0
 11
1.2842461875
 21
0.040590473294999985
 31
0.0
  0
LINE
  5
54
  8
0
 10
1.2842461875
 20
0.040590473294999985
 30
0.0
 11
1.2763262644999998
 21
0.04180715139499999
 31
0.0
  0
LINE
  5
55
  8
0
 10
1.2763262644999998
 20
0.04180715139499999
 30
0.0
 11
1.0414345635000002
 21
0.07193528169499999
 31
0.0
  0
LINE
  5
56
  8
0
 10
1.0414345635000002
 20
0.07193528169499999
 30
0.0
 11
1.0310149565
 21
0.07340999439500001
 31
0.0
  0
LINE
  5
57
  8
0
 10
1.0310149565
 20
0.07340999439500001
 30
0.0
 11
0.7376865334999998
 21
0.10709405759499999
 31
0.0
  0
LINE
  5
58
  8
0
 10
0.7376865334999998
 20
0.10709405759499999
 30
0.0
 11
0.7246692105000001
 21
0.108733628395
 31
0.0
  0
LINE
  5
59
  8
0
 10
0.7246692105000001
 20
0.108733628395
 30
0.0
 11
0.38116385449999957
 21
0.142246419695
 31
0.0
  0
LINE
  5
5A
  8
0
 10
0.38116385449999957
 20
0.142246419695
 30
0.0
 11
0.3659129815000002
 21
0.143864109095
 31
0.0
  0
LINE
  5
5B
  8
0
 10
0.3659129815000002
 20
0.143864109095
 30
0.0
 11
-0.00734060649999968
 21
0.17189814384500002
 31
0.0
  0
LINE
  5
5C
  8
0
 10
-0.00734060649999968
 20
0.17189814384500002
 30
0.0
 11
-0.02391919450000035
 21
0.173234153315
 31
0.0
  0
LINE
  5
5D
  8
0
 10
-0.02391919450000035
 20
0.173234153315
 30
0.0
 11
-0.04053346450000017
 21
0.174026279905
 31
0.0
  0
LINE
  5
5E
  8
0
 10
-0.04053346450000017
 20
0.174026279905
 30
0.0
 11
-0.4144717724999998
 21
0.191089159025
 31
0.0
  0
LINE
  5
5F
  8
0
 10
-0.4144717724999998
 20
0.191089159025
 30
0.0
 11
-0.4298092364999997
 21
0.191093086425
 31
0.0
  0
LINE
  5
60
  8
0
 10
-0.4298092364999997
 20
0.191093086425
 30
0.0
 11
-0.7749792815000003
 21
0.192350833005
 31
0.0
  0
LINE
  5
61
  8
0
 10
-0.7749792815000003
 20
0.192350833005
 30
0.0
 11
-0.7880758535000001
 21
0.191580487955
 31
0.0
  0
LINE
  5
62
  8
0
 10
-0.7880758535000001
 20
0.191580487955
 30
0.0
 11
-1.0829632585
 21
0.177063379315
 31
0.0
  0
LINE
  5
63
  8
0
 10
-1.0829632585
 20
0.177063379315
 30
0.0
 11
-1.0933969024999999
 21
0.175725662105
 31
0.0
  0
LINE
  5
64
  8
0
 10
-1.0933969024999999
 20
0.175725662105
 30
0.0
 11
-1.3286303265
 21
0.149243077895
 31
0.0
  0
LINE
  5
65
  8
0
 10
-1.3286303265
 20
0.149243077895
 30
0.0
 11
-1.3364567015
 21
0.14756399679499999
 31
0.0
  0
LINE
  5
66
  8
0
 10
-1.3364567015
 20
0.14756399679499999
 30
0.0
 11
-1.5133324645
 21
0.113517860695
 31
0.0
  0
LINE
  5
67
  8
0
 10
-1.5133324645
 20
0.113517860695
 30
0.0
 11
-1.5188718625000002
 21
0.11163975479499999
 31
0.0
  0
LINE
  5
68
  8
0
 10
-1.5188718625000002
 20
0.11163975479499999
 30
0.0
 11
-1.6446403515
 21
0.07284821619500001
 31
0.0
  0
LINE
  5
69
  8
0
 10
-1.6446403515
 20
0.07284821619500001
 30
0.0
 11
-1.6482062705000002
 21
0.070750996595
 31
0.0
  0
LINE
  5
6A
  8
0
 10
-1.6482062705000002
 20
0.070750996595
 30
0.0
 11
-1.7301552015000001
 21
0.026587977895000003
 31
0.0
  0
LINE
  5
6B
  8
0
 10
-1.7301552015000001
 20
0.026587977895000003
 30
0.0
 11
-1.7314655575
 21
0.024131551594999995
 31
0.0
  0
LINE
  5
6C
  8
0
 10
-1.7314655575
 20
0.024131551594999995
 30
0.0
 11
-1.7632534695
 21
-0.02969378320499999
 31
0.0
  0
LINE
  5
6D
  8
0
 10
0.2
 20
0.2
 30
0.0
 11
0.2
 21
-0.2
 31
0.0
  0
LINE
  5
6E
  8
0
 10
0.2
 20
-0.2
 30
0.0
 11
-0.2
 21
-0.2
 31
0.0
  0
LINE
  5
6F
  8
0
 10
-0.2
 20
-0.2
 30
0.0
 11
-0.2
 21
0.2
 31
0.0
  0
LINE
  5
70
  8
0
 10
-0.2
 20
0.2
 30
0.0
 11
0.2
 21
0.2
 31
0.0
  0
ENDSEC
  0
EOF
