  0
SECTION
  2
HEADER
  9
$ACADVER
  1
AC1024
  9
$ACADMAINTVER
 70
6
  9
$DWGCODEPAGE
  3
ANSI_1252
  9
$LASTSAVEDBY
  1
ezdxf
  9
$INSBASE
 10
0.0
 20
0.0
 30
0.0
  9
$EXTMIN
 10
-100
 20
-100
 30
-100
  9
$EXTMAX
 10
100
 20
100
 30
100
  9
$LIMMIN
 10
0.0
 20
0.0
  9
$LIMMAX
 10
420.0
 20
297.0
  9
$ORTHOMODE
 70
0
  9
$REGENMODE
 70
1
  9
$FILLMODE
 70
1
  9
$QTEXTMODE
 70
0
  9
$MIRRTEXT
 70
1
  9
$LTSCALE
 40
1.0
  9
$ATTMODE
 70
1
  9
$TEXTSIZE
 40
2.5
  9
$TRACEWID
 40
1.0
  9
$TEXTSTYLE
  7
Standard
  9
$CLAYER
  8
0
  9
$CELTYPE
  6
ByLayer
  9
$CECOLOR
 62
256
  9
$CELTSCALE
 40
1.0
  9
$DISPSILH
 70
0
  9
$DIMSCALE
 40
1.0
  9
$DIMASZ
 40
2.5
  9
$DIMEXO
 40
0.625
  9
$DIMDLI
 40
3.75
  9
$DIMRND
 40
0.0
  9
$DIMDLE
 40
0.0
  9
$DIMEXE
 40
1.25
  9
$DIMTP
 40
0.0
  9
$DIMTM
 40
0.0
  9
$DIMTXT
 40
2.5
  9
$DIMCEN
 40
2.5
  9
$DIMTSZ
 40
0.0
  9
$DIMTOL
 70
0
  9
$DIMLIM
 70
0
  9
$DIMTIH
 70
0
  9
$DIMTOH
 70
0
  9
$DIMSE1
 70
0
  9
$DIMSE2
 70
0
  9
$DIMTAD
 70
1
  9
$DIMZIN
 70
8
  9
$DIMBLK
  1

  9
$DIMASO
 70
1
  9
$DIMSHO
 70
1
  9
$DIMPOST
  1

  9
$DIMAPOST
  1

  9
$DIMALT
 70
0
  9
$DIMALTD
 70
3
  9
$DIMALTF
 40
0.03937007874
  9
$DIMLFAC
 40
1.0
  9
$DIMTOFL
 70
1
  9
$DIMTVP
 40
0.0
  9
$DIMTIX
 70
0
  9
$DIMSOXD
 70
0
  9
$DIMSAH
 70
0
  9
$DIMBLK1
  1

  9
$DIMBLK2
  1

  9
$DIMSTYLE
  2
ISO-25
  9
$DIMCLRD
 70
0
  9
$DIMCLRE
 70
0
  9
$DIMCLRT
 70
0
  9
$DIMTFAC
 40
1.0
  9
$DIMGAP
 40
0.625
  9
$DIMJUST
 70
0
  9
$DIMSD1
 70
0
  9
$DIMSD2
 70
0
  9
$DIMTOLJ
 70
0
  9
$DIMTZIN
 70
8
  9
$DIMALTZ
 70
0
  9
$DIMALTTZ
 70
0
  9
$DIMUPT
 70
0
  9
$DIMDEC
 70
2
  9
$DIMTDEC
 70
2
  9
$DIMALTU
 70
2
  9
$DIMALTTD
 70
3
  9
$DIMTXSTY
  7
Standard
  9
$DIMAUNIT
 70
0
  9
$DIMADEC
 70
0
  9
$DIMALTRND
 40
0.0
  9
$DIMAZIN
 70
0
  9
$DIMDSEP
 70
44
  9
$DIMATFIT
 70
3
  9
$DIMFRAC
 70
0
  9
$DIMLDRBLK
  1

  9
$DIMLUNIT
 70
2
  9
$DIMLWD
 70
-2
  9
$DIMLWE
 70
-2
  9
$DIMTMOVE
 70
0
  9
$DIMFXL
 40
1.0
  9
$DIMFXLON
 70
0
  9
$DIMJOGANG
 40
0.785398163397
  9
$DIMTFILL
 70
0
  9
$DIMTFILLCLR
 70
0
  9
$DIMARCSYM
 70
0
  9
$DIMLTYPE
  6

  9
$DIMLTEX1
  6

  9
$DIMLTEX2
  6

  9
$DIMTXTDIRECTION
 70
0
  9
$LUNITS
 70
2
  9
$LUPREC
 70
4
  9
$SKETCHINC
 40
1.0
  9
$FILLETRAD
 40
10.0
  9
$AUNITS
 70
0
  9
$AUPREC
 70
2
  9
$MENU
  1
.
  9
$ELEVATION
 40
0.0
  9
$PELEVATION
 40
0.0
  9
$THICKNESS
 40
0.0
  9
$LIMCHECK
 70
0
  9
$CHAMFERA
 40
0.0
  9
$CHAMFERB
 40
0.0
  9
$CHAMFERC
 40
0.0
  9
$CHAMFERD
 40
0.0
  9
$SKPOLY
 70
0
  9
$TDCREATE
 40
2459744.44125
  9
$TDUCREATE
 40
2458532.153996898
  9
$TDUPDATE
 40
2459744.44125
  9
$TDUUPDATE
 40
2458532.1544311
  9
$TDINDWG
 40
0.0
  9
$TDUSRTIMER
 40
0.0
  9
$USRTIMER
 70
1
  9
$ANGBASE
 50
0.0
  9
$ANGDIR
 70
0
  9
$PDMODE
 70
0
  9
$PDSIZE
 40
0.0
  9
$PLINEWID
 40
0.0
  9
$SPLFRAME
 70
0
  9
$SPLINETYPE
 70
6
  9
$SPLINESEGS
 70
8
  9
$HANDSEED
  5
DE
  9
$SURFTAB1
 70
6
  9
$SURFTAB2
 70
6
  9
$SURFTYPE
 70
6
  9
$SURFU
 70
6
  9
$SURFV
 70
6
  9
$UCSBASE
  2

  9
$UCSNAME
  2

  9
$UCSORG
 10
0.0
 20
0.0
 30
0.0
  9
$UCSXDIR
 10
1.0
 20
0.0
 30
0.0
  9
$UCSYDIR
 10
0.0
 20
1.0
 30
0.0
  9
$UCSORTHOREF
  2

  9
$UCSORTHOVIEW
 70
0
  9
$UCSORGTOP
 10
0.0
 20
0.0
 30
0.0
  9
$UCSORGBOTTOM
 10
0.0
 20
0.0
 30
0.0
  9
$UCSORGLEFT
 10
0.0
 20
0.0
 30
0.0
  9
$UCSORGRIGHT
 10
0.0
 20
0.0
 30
0.0
  9
$UCSORGFRONT
 10
0.0
 20
0.0
 30
0.0
  9
$UCSORGBACK
 10
0.0
 20
0.0
 30
0.0
  9
$PUCSBASE
  2

  9
$PUCSNAME
  2

  9
$PUCSORG
 10
0.0
 20
0.0
 30
0.0
  9
$PUCSXDIR
 10
1.0
 20
0.0
 30
0.0
  9
$PUCSYDIR
 10
0.0
 20
1.0
 30
0.0
  9
$PUCSORTHOREF
  2

  9
$PUCSORTHOVIEW
 70
0
  9
$PUCSORGTOP
 10
0.0
 20
0.0
 30
0.0
  9
$PUCSORGBOTTOM
 10
0.0
 20
0.0
 30
0.0
  9
$PUCSORGLEFT
 10
0.0
 20
0.0
 30
0.0
  9
$PUCSORGRIGHT
 10
0.0
 20
0.0
 30
0.0
  9
$PUCSORGFRONT
 10
0.0
 20
0.0
 30
0.0
  9
$PUCSORGBACK
 10
0.0
 20
0.0
 30
0.0
  9
$USERI1
 70
0
  9
$USERI2
 70
0
  9
$USERI3
 70
0
  9
$USERI4
 70
0
  9
$USERI5
 70
0
  9
$USERR1
 40
0.0
  9
$USERR2
 40
0.0
  9
$USERR3
 40
0.0
  9
$USERR4
 40
0.0
  9
$USERR5
 40
0.0
  9
$WORLDVIEW
 70
1
  9
$SHADEDGE
 70
3
  9
$SHADEDIF
 70
70
  9
$TILEMODE
 70
1
  9
$MAXACTVP
 70
64
  9
$PINSBASE
 10
0.0
 20
0.0
 30
0.0
  9
$PLIMCHECK
 70
0
  9
$PEXTMIN
 10
1e+20
 20
1e+20
 30
1e+20
  9
$PEXTMAX
 10
-1e+20
 20
-1e+20
 30
-1e+20
  9
$PLIMMIN
 10
0.0
 20
0.0
  9
$PLIMMAX
 10
420.0
 20
297.0
  9
$UNITMODE
 70
0
  9
$VISRETAIN
 70
1
  9
$PLINEGEN
 70
0
  9
$PSLTSCALE
 70
1
  9
$TREEDEPTH
 70
3020
  9
$CMLSTYLE
  2
Standard
  9
$CMLJUST
 70
0
  9
$CMLSCALE
 40
20.0
  9
$PROXYGRAPHICS
 70
1
  9
$MEASUREMENT
 70
1
  9
$CELWEIGHT
370
-1
  9
$ENDCAPS
280
0
  9
$JOINSTYLE
280
0
  9
$LWDISPLAY
290
0
  9
$INSUNITS
 70
6
  9
$HYPERLINKBASE
  1

  9
$STYLESHEET
  1

  9
$XEDIT
290
1
  9
$CEPSNTYPE
380
0
  9
$PSTYLEMODE
290
1
  9
$FINGERPRINTGUID
  2
C51FD1F8-EAF3-11EC-B55B-088FC3043410
  9
$VERSIONGUID
  2
C520BC40-EAF3-11EC-854D-088FC3043410
  9
$EXTNAMES
290
1
  9
$PSVPSCALE
 40
0.0
  9
$OLESTARTUP
290
0
  9
$SORTENTS
280
127
  9
$INDEXCTL
280
0
  9
$HIDETEXT
280
1
  9
$XCLIPFRAME
280
2
  9
$HALOGAP
280
0
  9
$OBSCOLOR
 70
257
  9
$OBSLTYPE
280
0
  9
$INTERSECTIONDISPLAY
280
0
  9
$INTERSECTIONCOLOR
 70
257
  9
$DIMASSOC
280
2
  9
$PROJECTNAME
  1

  9
$CAMERADISPLAY
290
0
  9
$LENSLENGTH
 40
50.0
  9
$CAMERAHEIGHT
 40
0.0
  9
$STEPSPERSEC
 40
24.0
  9
$STEPSIZE
 40
100.0
  9
$3DDWFPREC
 40
2.0
  9
$PSOLWIDTH
 40
0.005
  9
$PSOLHEIGHT
 40
0.08
  9
$LOFTANG1
 40
1.570796326795
  9
$LOFTANG2
 40
1.570796326795
  9
$LOFTMAG1
 40
0.0
  9
$LOFTMAG2
 40
0.0
  9
$LOFTPARAM
 70
7
  9
$LOFTNORMALS
280
1
  9
$LATITUDE
 40
37.795
  9
$LONGITUDE
 40
-122.394
  9
$NORTHDIRECTION
 40
0.0
  9
$TIMEZONE
 70
-8000
  9
$LIGHTGLYPHDISPLAY
280
1
  9
$TILEMODELIGHTSYNCH
280
1
  9
$CMATERIAL
347
20
  9
$SOLIDHIST
280
0
  9
$SHOWHIST
280
1
  9
$DWFFRAME
280
2
  9
$DGNFRAME
280
2
  9
$REALWORLDSCALE
290
1
  9
$INTERFERECOLOR
 62
256
  9
$CSHADOW
280
0
  9
$SHADOWPLANELOCATION
 40
0.0
  0
ENDSEC
  0
SECTION
  2
CLASSES
  0
CLASS
  1
ACDBDICTIONARYWDFLT
  2
AcDbDictionaryWithDefault
  3
ObjectDBX Classes
 90
0
 91
0
280
0
281
0
  0
CLASS
  1
SUN
  2
AcDbSun
  3
SCENEOE
 90
1153
 91
0
280
0
281
0
  0
CLASS
  1
VISUALSTYLE
  2
AcDbVisualStyle
  3
ObjectDBX Classes
 90
4095
 91
0
280
0
281
0
  0
CLASS
  1
MATERIAL
  2
AcDbMaterial
  3
ObjectDBX Classes
 90
1153
 91
0
280
0
281
0
  0
CLASS
  1
SCALE
  2
AcDbScale
  3
ObjectDBX Classes
 90
1153
 91
0
280
0
281
0
  0
CLASS
  1
TABLESTYLE
  2
AcDbTableStyle
  3
ObjectDBX Classes
 90
4095
 91
0
280
0
281
0
  0
CLASS
  1
MLEADERSTYLE
  2
AcDbMLeaderStyle
  3
ACDB_MLEADERSTYLE_CLASS
 90
4095
 91
0
280
0
281
0
  0
CLASS
  1
DICTIONARYVAR
  2
AcDbDictionaryVar
  3
ObjectDBX Classes
 90
0
 91
0
280
0
281
0
  0
CLASS
  1
CELLSTYLEMAP
  2
AcDbCellStyleMap
  3
ObjectDBX Classes
 90
1152
 91
0
280
0
281
0
  0
CLASS
  1
MENTALRAYRENDERSETTINGS
  2
AcDbMentalRayRenderSettings
  3
SCENEOE
 90
1024
 91
0
280
0
281
0
  0
CLASS
  1
ACDBDETAILVIEWSTYLE
  2
AcDbDetailViewStyle
  3
ObjectDBX Classes
 90
1025
 91
0
280
0
281
0
  0
CLASS
  1
ACDBSECTIONVIEWSTYLE
  2
AcDbSectionViewStyle
  3
ObjectDBX Classes
 90
1025
 91
0
280
0
281
0
  0
CLASS
  1
RASTERVARIABLES
  2
AcDbRasterVariables
  3
ISM
 90
0
 91
0
280
0
281
0
  0
CLASS
  1
ACDBPLACEHOLDER
  2
AcDbPlaceHolder
  3
ObjectDBX Classes
 90
0
 91
0
280
0
281
0
  0
CLASS
  1
LAYOUT
  2
AcDbLayout
  3
ObjectDBX Classes
 90
0
 91
0
280
0
281
0
  0
ENDSEC
  0
SECTION
  2
TABLES
  0
TABLE
  2
VPORT
  5
8
330
0
100
AcDbSymbolTable
 70
1
  0
VPORT
  5
23
330
8
100
AcDbSymbolTableRecord
100
AcDbViewportTableRecord
  2
*Active
 70
0
 10
0.0
 20
0.0
 11
1.0
 21
1.0
 12
70.0
 22
50.0
 13
0.0
 23
0.0
 14
0.5
 24
0.5
 15
0.5
 25
0.5
 16
0.0
 26
0.0
 36
1.0
 17
0.0
 27
0.0
 37
0.0
 40
1.0
 41
1.34
 42
50.0
 43
0.0
 44
0.0
 50
0.0
 51
0.0
 71
0
 72
1000
 73
1
 74
3
 75
0
 76
0
 77
0
 78
0
281
0
 65
0
146
0.0
  0
ENDTAB
  0
TABLE
  2
LTYPE
  5
2
330
0
100
AcDbSymbolTable
 70
3
  0
LTYPE
  5
24
330
2
100
AcDbSymbolTableRecord
100
AcDbLinetypeTableRecord
  2
ByBlock
 70
0
  3

 72
65
 73
0
 40
0.0
  0
LTYPE
  5
25
330
2
100
AcDbSymbolTableRecord
100
AcDbLinetypeTableRecord
  2
ByLayer
 70
0
  3

 72
65
 73
0
 40
0.0
  0
LTYPE
  5
26
330
2
100
AcDbSymbolTableRecord
100
AcDbLinetypeTableRecord
  2
Continuous
 70
0
  3

 72
65
 73
0
 40
0.0
  0
ENDTAB
  0
TABLE
  2
LAYER
  5
1
330
0
100
AcDbSymbolTable
 70
2
  0
LAYER
  5
27
330
1
100
AcDbSymbolTableRecord
100
AcDbLayerTableRecord
  2
0
 70
0
 62
7
  6
Continuous
370
-3
390
13
347
21
  0
LAYER
  5
28
330
1
100
AcDbSymbolTableRecord
100
AcDbLayerTableRecord
  2
Defpoints
 70
0
 62
7
  6
Continuous
290
0
370
-3
390
13
347
21
  0
ENDTAB
  0
TABLE
  2
STYLE
  5
5
330
0
100
AcDbSymbolTable
 70
1
  0
STYLE
  5
29
330
5
100
AcDbSymbolTableRecord
100
AcDbTextStyleTableRecord
  2
Standard
 70
0
 40
0.0
 41
1.0
 50
0.0
 71
0
 42
2.5
  3
txt
  4

  0
ENDTAB
  0
TABLE
  2
VIEW
  5
7
330
0
100
AcDbSymbolTable
 70
0
  0
ENDTAB
  0
TABLE
  2
UCS
  5
6
330
0
100
AcDbSymbolTable
 70
0
  0
ENDTAB
  0
TABLE
  2
APPID
  5
3
330
0
100
AcDbSymbolTable
 70
2
  0
APPID
  5
2A
330
3
100
AcDbSymbolTableRecord
100
AcDbRegAppTableRecord
  2
ACAD
 70
0
  0
APPID
  5
DD
330
3
100
AcDbSymbolTableRecord
100
AcDbRegAppTableRecord
  2
HATCHBACKGROUNDCOLOR
 70
0
  0
ENDTAB
  0
TABLE
  2
DIMSTYLE
  5
4
330
0
100
AcDbSymbolTable
 70
1
100
AcDbDimStyleTable
  0
DIMSTYLE
105
2B
330
4
100
AcDbSymbolTableRecord
100
AcDbDimStyleTableRecord
  2
Standard
 70
0
 40
1.0
 41
2.5
 42
0.625
 43
3.75
 44
1.25
 45
0.0
 46
0.0
 47
0.0
 48
0.0
 49
2.5
140
2.5
141
2.5
142
0.0
143
0.03937007874
144
1.0
145
0.0
146
1.0
147
0.625
148
0.0
 69
0
 70
0
 71
0
 72
0
 73
0
 74
0
 75
0
 76
0
 77
1
 78
8
 79
0
170
0
171
3
172
1
173
0
174
0
175
0
176
0
177
0
178
0
179
0
271
0
272
2
273
2
274
3
275
0
276
0
277
2
278
44
279
0
280
0
281
0
282
0
283
0
284
8
285
0
286
0
288
0
289
3
290
0
371
-2
372
-2
  0
ENDTAB
  0
TABLE
  2
BLOCK_RECORD
  5
9
330
0
100
AcDbSymbolTable
 70
2
  0
BLOCK_RECORD
  5
17
330
9
100
AcDbSymbolTableRecord
100
AcDbBlockTableRecord
  2
*Model_Space
340
1A
 70
0
280
1
281
0
  0
BLOCK_RECORD
  5
1B
330
9
100
AcDbSymbolTableRecord
100
AcDbBlockTableRecord
  2
*Paper_Space
340
1E
 70
0
280
1
281
0
  0
ENDTAB
  0
ENDSEC
  0
SECTION
  2
BLOCKS
  0
BLOCK
  5
18
330
17
100
AcDbEntity
  8
0
100
AcDbBlockBegin
  2
*Model_Space
 70
0
 10
0.0
 20
0.0
 30
0.0
  3
*Model_Space
  1

  0
ENDBLK
  5
19
330
17
100
AcDbEntity
  8
0
100
AcDbBlockEnd
  0
BLOCK
  5
1C
330
1B
100
AcDbEntity
  8
0
100
AcDbBlockBegin
  2
*Paper_Space
 70
0
 10
0.0
 20
0.0
 30
0.0
  3
*Paper_Space
  1

  0
ENDBLK
  5
1D
330
1B
100
AcDbEntity
  8
0
100
AcDbBlockEnd
  0
ENDSEC
  0
SECTION
  2
ENTITIES
  0
LINE
  5
2D
330
17
100
AcDbEntity
  8
0
100
AcDbLine
 10
-1.5195081835000002
 20
-0.01086620874999994
 30
-3.13444164009371
 11
-1.5615772985
 21
-0.023104217549999945
 31
-3.1267982966803913
  0
LINE
  5
2E
330
17
100
AcDbEntity
  8
0
100
AcDbLine
 10
-1.5615772985
 20
-0.023104217549999945
 30
-3.1267982966803913
 11
-1.6031038595
 21
-0.04211279754999994
 31
-3.1153291559866387
  0
LINE
  5
2F
330
17
100
AcDbEntity
  8
0
100
AcDbLine
 10
-1.6031038595
 20
-0.04211279754999994
 30
-3.1153291559866387
 11
-1.6870025725000002
 21
-0.07474894022999995
 31
-3.0973128868003656
  0
LINE
  5
30
330
17
100
AcDbEntity
  8
0
100
AcDbLine
 10
-1.6870025725000002
 20
-0.07474894022999995
 30
-3.0973128868003656
 11
-1.7025369825
 21
-0.08434973097999995
 31
-3.0920895770747956
  0
LINE
  5
31
330
17
100
AcDbEntity
  8
0
100
AcDbLine
 10
-1.7025369825
 20
-0.08434973097999995
 30
-3.0920895770747956
 11
-1.7764466055
 21
-0.11950360512999994
 31
-3.074422705926521
  0
LINE
  5
32
330
17
100
AcDbEntity
  8
0
100
AcDbLine
 10
-1.7764466055
 20
-0.11950360512999994
 30
-3.074422705926521
 11
-1.7919748465
 21
-0.13521437072999995
 31
-3.066279862105726
  0
LINE
  5
33
330
17
100
AcDbEntity
  8
0
100
AcDbLine
 10
-1.7919748465
 20
-0.13521437072999995
 30
-3.066279862105726
 11
-1.8081313705000002
 21
-0.15156080389999996
 31
-3.057966355616245
  0
LINE
  5
34
330
17
100
AcDbEntity
  8
0
100
AcDbLine
 10
-1.8081313705000002
 20
-0.15156080389999996
 30
-3.057966355616245
 11
-1.8218858965
 21
-0.16456802090799993
 31
-3.051508736941587
  0
LINE
  5
35
330
17
100
AcDbEntity
  8
0
100
AcDbLine
 10
-1.8218858965
 20
-0.16456802090799993
 30
-3.051508736941587
 11
-1.8123268585
 21
-0.22636196503999995
 31
-3.017334850243515
  0
LINE
  5
36
330
17
100
AcDbEntity
  8
0
100
AcDbLine
 10
-1.8123268585
 20
-0.22636196503999995
 30
-3.017334850243515
 11
-1.8117938805
 21
-0.22855982910999995
 31
-3.0161044086021853
  0
LINE
  5
37
330
17
100
AcDbEntity
  8
0
100
AcDbLine
 10
-1.8117938805
 20
-0.22855982910999995
 30
-3.0161044086021853
 11
-1.8086467085
 21
-0.23334017881999997
 31
-3.0132876937083215
  0
LINE
  5
38
330
17
100
AcDbEntity
  8
0
100
AcDbLine
 10
-1.8086467085
 20
-0.23334017881999997
 30
-3.0132876937083215
 11
-1.7656552265
 21
-0.30080481814999993
 31
-2.9728483394435785
  0
LINE
  5
39
330
17
100
AcDbEntity
  8
0
100
AcDbLine
 10
-1.7656552265
 20
-0.30080481814999993
 30
-2.9728483394435785
 11
-1.7037875965
 21
-0.37009313564999996
 31
-2.9276975709805604
  0
LINE
  5
3A
330
17
100
AcDbEntity
  8
0
100
AcDbLine
 10
-1.7037875965
 20
-0.37009313564999996
 30
-2.9276975709805604
 11
-1.6914904085
 21
-0.3843710201499999
 31
-2.91814900532837
  0
LINE
  5
3B
330
17
100
AcDbEntity
  8
0
100
AcDbLine
 10
-1.6914904085
 20
-0.3843710201499999
 30
-2.91814900532837
 11
-1.6038451795000002
 21
-0.45936146904999997
 31
-2.862647501734489
  0
LINE
  5
3C
330
17
100
AcDbEntity
  8
0
100
AcDbLine
 10
-1.6038451795000002
 20
-0.45936146904999997
 30
-2.862647501734489
 11
-1.5750874005000002
 21
-0.4802855315499999
 31
-2.845622492253374
  0
LINE
  5
3D
330
17
100
AcDbEntity
  8
0
100
AcDbLine
 10
-1.5750874005000002
 20
-0.4802855315499999
 30
-2.845622492253374
 11
-1.5195081835000002
 21
-0.5094180538499999
 31
-2.818116355622162
  0
LINE
  5
3E
330
17
100
AcDbEntity
  8
0
100
AcDbLine
 10
-1.5195081835000002
 20
-0.5094180538499999
 30
-2.818116355622162
 11
-1.4587447645
 21
-0.5338296499499999
 31
-2.790778528301496
  0
LINE
  5
3F
330
17
100
AcDbEntity
  8
0
100
AcDbLine
 10
-1.4587447645
 20
-0.5338296499499999
 30
-2.790778528301496
 11
-1.4098645095
 21
-0.55327942405
 31
-2.7676252556551306
  0
LINE
  5
40
330
17
100
AcDbEntity
  8
0
100
AcDbLine
 10
-1.4098645095
 20
-0.55327942405
 30
-2.7676252556551306
 11
-1.3673269175
 21
-0.5728751974499999
 31
-2.7448366550152943
  0
LINE
  5
41
330
17
100
AcDbEntity
  8
0
100
AcDbLine
 10
-1.3673269175
 20
-0.5728751974499999
 30
-2.7448366550152943
 11
-1.2999002255
 21
-0.5953825695499999
 31
-2.712087901159283
  0
LINE
  5
42
330
17
100
AcDbEntity
  8
0
100
AcDbLine
 10
-1.2999002255
 20
-0.5953825695499999
 30
-2.712087901159283
 11
-1.2573637495
 21
-0.6082597465499999
 31
-2.6910228846928574
  0
LINE
  5
43
330
17
100
AcDbEntity
  8
0
100
AcDbLine
 10
-1.2573637495
 20
-0.6082597465499999
 30
-2.6910228846928574
 11
-1.1897746885
 21
-0.6284292661499999
 31
-2.6556467728688107
  0
LINE
  5
44
330
17
100
AcDbEntity
  8
0
100
AcDbLine
 10
-1.1897746885
 20
-0.6284292661499999
 30
-2.6556467728688107
 11
-1.1062327075000002
 21
-0.6431800625499999
 31
-2.614950848953107
  0
LINE
  5
45
330
17
100
AcDbEntity
  8
0
100
AcDbLine
 10
-1.1062327075000002
 20
-0.6431800625499999
 30
-2.614950848953107
 11
-1.0795081835000002
 21
-0.64809631145
 31
-2.6009065976044705
  0
LINE
  5
46
330
17
100
AcDbEntity
  8
0
100
AcDbLine
 10
-1.0795081835000002
 20
-0.64809631145
 30
-2.6009065976044705
 11
-0.9722645180000001
 21
-0.6586983123499999
 31
-2.5461351850132123
  0
LINE
  5
47
330
17
100
AcDbEntity
  8
0
100
AcDbLine
 10
-0.9722645180000001
 20
-0.6586983123499999
 30
-2.5461351850132123
 11
-0.9702821438000001
 21
-0.6587981601499999
 31
-2.5451166385691617
  0
LINE
  5
48
330
17
100
AcDbEntity
  8
0
100
AcDbLine
 10
-0.9702821438000001
 20
-0.6587981601499999
 30
-2.5451166385691617
 11
-0.9698376300000001
 21
-0.65882712285
 31
-2.5448832311989107
  0
LINE
  5
49
330
17
100
AcDbEntity
  8
0
100
AcDbLine
 10
-0.9698376300000001
 20
-0.65882712285
 30
-2.5448832311989107
 11
-0.8594138127000001
 21
-0.6621324689499999
 31
-2.4851336131363135
  0
LINE
  5
4A
330
17
100
AcDbEntity
  8
0
100
AcDbLine
 10
-0.8594138127000001
 20
-0.6621324689499999
 30
-2.4851336131363135
 11
-0.8122433764000001
 21
-0.66406620285
 31
-2.4562294531935573
  0
LINE
  5
4B
330
17
100
AcDbEntity
  8
0
100
AcDbLine
 10
-0.8122433764000001
 20
-0.66406620285
 30
-2.4562294531935573
 11
-0.7410901745
 21
-0.66391271315
 31
-2.4110698063215095
  0
LINE
  5
4C
330
17
100
AcDbEntity
  8
0
100
AcDbLine
 10
-0.7410901745
 20
-0.66391271315
 30
-2.4110698063215095
 11
-0.6610776634000001
 21
-0.66116369035
 31
-2.3561294287346657
  0
LINE
  5
4D
330
17
100
AcDbEntity
  8
0
100
AcDbLine
 10
-0.6610776634000001
 20
-0.66116369035
 30
-2.3561294287346657
 11
-0.6095081835
 21
-0.6576261348499999
 31
-2.318238890890528
  0
LINE
  5
4E
330
17
100
AcDbEntity
  8
0
100
AcDbLine
 10
-0.6095081835
 20
-0.6576261348499999
 30
-2.318238890890528
 11
-0.5809999667000001
 21
-0.65499949005
 31
-2.296395679600555
  0
LINE
  5
4F
330
17
100
AcDbEntity
  8
0
100
AcDbLine
 10
-0.5809999667000001
 20
-0.65499949005
 30
-2.296395679600555
 11
-0.5620317324000002
 21
-0.6530995200499999
 31
-2.281389518427059
  0
LINE
  5
50
330
17
100
AcDbEntity
  8
0
100
AcDbLine
 10
-0.5620317324000002
 20
-0.6530995200499999
 30
-2.281389518427059
 11
-0.5214636467
 21
-0.6495349164499999
 31
-2.247258185572599
  0
LINE
  5
51
330
17
100
AcDbEntity
  8
0
100
AcDbLine
 10
-0.5214636467
 20
-0.6495349164499999
 30
-2.247258185572599
 11
-0.4918322405000001
 21
-0.64684062795
 31
-2.220895421786639
  0
LINE
  5
52
330
17
100
AcDbEntity
  8
0
100
AcDbLine
 10
-0.4918322405000001
 20
-0.64684062795
 30
-2.220895421786639
 11
-0.44113216010000006
 21
-0.64248547755
 31
-2.1724740010210306
  0
LINE
  5
53
330
17
100
AcDbEntity
  8
0
100
AcDbLine
 10
-0.44113216010000006
 20
-0.64248547755
 30
-2.1724740010210306
 11
-0.4021358963000001
 21
-0.6391100569499999
 31
-2.1324189647778375
  0
LINE
  5
54
330
17
100
AcDbEntity
  8
0
100
AcDbLine
 10
-0.4021358963000001
 20
-0.6391100569499999
 30
-2.1324189647778375
 11
-0.3426428551000001
 21
-0.6340628269499999
 31
-2.066233498928829
  0
LINE
  5
55
330
17
100
AcDbEntity
  8
0
100
AcDbLine
 10
-0.3426428551000001
 20
-0.6340628269499999
 30
-2.066233498928829
 11
-0.2961681331000001
 21
-0.6301579988499999
 31
-2.0101492511190817
  0
LINE
  5
56
330
17
100
AcDbEntity
  8
0
100
AcDbLine
 10
-0.2961681331000001
 20
-0.6301579988499999
 30
-2.0101492511190817
 11
-0.2289073298300001
 21
-0.6244910320499999
 31
-1.922138477065994
  0
LINE
  5
57
330
17
100
AcDbEntity
  8
0
100
AcDbLine
 10
-0.2289073298300001
 20
-0.6244910320499999
 30
-1.922138477065994
 11
-0.17715404045600008
 21
-0.6202272315499999
 31
-1.8490158776181485
  0
LINE
  5
58
330
17
100
AcDbEntity
  8
0
100
AcDbLine
 10
-0.17715404045600008
 20
-0.6202272315499999
 30
-1.8490158776181485
 11
-0.10308333003000009
 21
-0.6140069741499999
 31
-1.7371313932815684
  0
LINE
  5
59
330
17
100
AcDbEntity
  8
0
100
AcDbLine
 10
-0.10308333003000009
 20
-0.6140069741499999
 30
-1.7371313932815684
 11
-0.04831869650000009
 21
-0.6095560174499999
 31
-1.6498995939164862
  0
LINE
  5
5A
330
17
100
AcDbEntity
  8
0
100
AcDbLine
 10
-0.04831869650000009
 20
-0.6095560174499999
 30
-1.6498995939164862
 11
0.03146559599999993
 21
-0.6028599562499999
 31
-1.5186497719881589
  0
LINE
  5
5B
330
17
100
AcDbEntity
  8
0
100
AcDbLine
 10
0.03146559599999993
 20
-0.6028599562499999
 30
-1.5186497719881589
 11
0.08711258649999992
 21
-0.59838083835
 31
-1.4262313977425527
  0
LINE
  5
5C
330
17
100
AcDbEntity
  8
0
100
AcDbLine
 10
0.08711258649999992
 20
-0.59838083835
 30
-1.4262313977425527
 11
0.1712209899999999
 21
-0.59131049865
 31
-1.2889430684757264
  0
LINE
  5
5D
330
17
100
AcDbEntity
  8
0
100
AcDbLine
 10
0.1712209899999999
 20
-0.59131049865
 30
-1.2889430684757264
 11
0.2259141113999999
 21
-0.5869389041499999
 31
-1.2033726090382368
  0
LINE
  5
5E
330
17
100
AcDbEntity
  8
0
100
AcDbLine
 10
0.2259141113999999
 20
-0.5869389041499999
 30
-1.2033726090382368
 11
0.3125684071999999
 21
-0.57962836135
 31
-1.0762388237106963
  0
LINE
  5
5F
330
17
100
AcDbEntity
  8
0
100
AcDbLine
 10
0.3125684071999999
 20
-0.57962836135
 30
-1.0762388237106963
 11
0.3648597428999999
 21
-0.5754703825499999
 31
-1.0057369844247621
  0
LINE
  5
60
330
17
100
AcDbEntity
  8
0
100
AcDbLine
 10
0.3648597428999999
 20
-0.5754703825499999
 30
-1.0057369844247621
 11
0.4518612477999999
 21
-0.5680898894499999
 31
-0.89886381420641
  0
LINE
  5
61
330
17
100
AcDbEntity
  8
0
100
AcDbLine
 10
0.4518612477999999
 20
-0.5680898894499999
 30
-0.89886381420641
 11
0.5007229535
 21
-0.56422030945
 31
-0.8449527618882048
  0
LINE
  5
62
330
17
100
AcDbEntity
  8
0
100
AcDbLine
 10
0.5007229535
 20
-0.56422030945
 30
-0.8449527618882048
 11
0.5854860523
 21
-0.5569748213499999
 31
-0.7604473621247678
  0
LINE
  5
63
330
17
100
AcDbEntity
  8
0
100
AcDbLine
 10
0.5854860523
 20
-0.5569748213499999
 30
-0.7604473621247678
 11
0.6302769673999999
 21
-0.5534401516499999
 31
-0.7205776338563429
  0
LINE
  5
64
330
17
100
AcDbEntity
  8
0
100
AcDbLine
 10
0.6302769673999999
 20
-0.5534401516499999
 30
-0.7205776338563429
 11
0.7099258142999999
 21
-0.5465627372499999
 31
-0.656107846713965
  0
LINE
  5
65
330
17
100
AcDbEntity
  8
0
100
AcDbLine
 10
0.7099258142999999
 20
-0.5465627372499999
 30
-0.656107846713965
 11
0.7502949980999999
 21
-0.54338900205
 31
-0.626805792881415
  0
LINE
  5
66
330
17
100
AcDbEntity
  8
0
100
AcDbLine
 10
0.7502949980999999
 20
-0.54338900205
 30
-0.626805792881415
 11
0.8218181684999999
 21
-0.53712933805
 31
-0.5788924217231188
  0
LINE
  5
67
330
17
100
AcDbEntity
  8
0
100
AcDbLine
 10
0.8218181684999999
 20
-0.53712933805
 30
-0.5788924217231188
 11
0.8575505765
 21
-0.53433440425
 31
-0.5572273540388112
  0
LINE
  5
68
330
17
100
AcDbEntity
  8
0
100
AcDbLine
 10
0.8575505765
 20
-0.53433440425
 30
-0.5572273540388112
 11
0.9180058755
 21
-0.5289427445499999
 31
-0.5227256333087006
  0
LINE
  5
69
330
17
100
AcDbEntity
  8
0
100
AcDbLine
 10
0.9180058755
 20
-0.5289427445499999
 30
-0.5227256333087006
 11
0.9488179614999999
 21
-0.5265528078499999
 31
-0.5066407099999928
  0
LINE
  5
6A
330
17
100
AcDbEntity
  8
0
100
AcDbLine
 10
0.9488179614999999
 20
-0.5265528078499999
 30
-0.5066407099999928
 11
0.9955777614999999
 21
-0.52225998945
 31
-0.48311754251966305
  0
LINE
  5
6B
330
17
100
AcDbEntity
  8
0
100
AcDbLine
 10
0.9955777614999999
 20
-0.52225998945
 30
-0.48311754251966305
 11
1.0208726264999999
 21
-0.5203296666499999
 31
-0.47137037826070094
  0
LINE
  5
6C
330
17
100
AcDbEntity
  8
0
100
AcDbLine
 10
1.0208726264999999
 20
-0.5203296666499999
 30
-0.47137037826070094
 11
1.0518990854999999
 21
-0.51732384255
 31
-0.4570660186684124
  0
LINE
  5
6D
330
17
100
AcDbEntity
  8
0
100
AcDbLine
 10
1.0518990854999999
 20
-0.51732384255
 30
-0.4570660186684124
 11
1.0704918165
 21
-0.5159591994499999
 31
-0.44913065838636557
  0
LINE
  5
6E
330
17
100
AcDbEntity
  8
0
100
AcDbLine
 10
1.0704918165
 20
-0.5159591994499999
 30
-0.44913065838636557
 11
1.1243245035
 21
-0.50599990075
 31
-0.4228937731746265
  0
LINE
  5
6F
330
17
100
AcDbEntity
  8
0
100
AcDbLine
 10
1.1243245035
 20
-0.50599990075
 30
-0.4228937731746265
 11
1.1874087045
 21
-0.49803185734999994
 31
-0.3971412328175653
  0
LINE
  5
70
330
17
100
AcDbEntity
  8
0
100
AcDbLine
 10
1.1874087045
 20
-0.49803185734999994
 30
-0.3971412328175653
 11
1.2096046155
 21
-0.4916490050499999
 31
-0.3860580213518069
  0
LINE
  5
71
330
17
100
AcDbEntity
  8
0
100
AcDbLine
 10
1.2096046155
 20
-0.4916490050499999
 30
-0.3860580213518069
 11
1.2564035255
 21
-0.48245260394999995
 31
-0.3666332363213345
  0
LINE
  5
72
330
17
100
AcDbEntity
  8
0
100
AcDbLine
 10
1.2564035255
 20
-0.48245260394999995
 30
-0.3666332363213345
 11
1.2824788065
 21
-0.47322798224999996
 31
-0.3534954518086767
  0
LINE
  5
73
330
17
100
AcDbEntity
  8
0
100
AcDbLine
 10
1.2824788065
 20
-0.47322798224999996
 30
-0.3534954518086767
 11
1.3007048694999999
 21
-0.46900968044999997
 31
-0.3460699749267717
  0
LINE
  5
74
330
17
100
AcDbEntity
  8
0
100
AcDbLine
 10
1.3007048694999999
 20
-0.46900968044999997
 30
-0.3460699749267717
 11
1.3493922925
 21
-0.45033272834999993
 31
-0.3221075376249751
  0
LINE
  5
75
330
17
100
AcDbEntity
  8
0
100
AcDbLine
 10
1.3493922925
 20
-0.45033272834999993
 30
-0.3221075376249751
 11
1.4124603834999998
 21
-0.43343275314999996
 31
-0.2977417682114715
  0
LINE
  5
76
330
17
100
AcDbEntity
  8
0
100
AcDbLine
 10
1.4124603834999998
 20
-0.43343275314999996
 30
-0.2977417682114715
 11
1.4211475514999998
 21
-0.43039076674999993
 31
-0.29406698865789455
  0
LINE
  5
77
330
17
100
AcDbEntity
  8
0
100
AcDbLine
 10
1.4211475514999998
 20
-0.43039076674999993
 30
-0.29406698865789455
 11
1.4377936375
 21
-0.42585075334999994
 31
-0.28795175189717365
  0
LINE
  5
78
330
17
100
AcDbEntity
  8
0
100
AcDbLine
 10
1.4377936375
 20
-0.42585075334999994
 30
-0.28795175189717365
 11
1.4866856234999999
 21
-0.4030954339499999
 31
-0.26477124675376545
  0
LINE
  5
79
330
17
100
AcDbEntity
  8
0
100
AcDbLine
 10
1.4866856234999999
 20
-0.4030954339499999
 30
-0.26477124675376545
 11
1.5249164984999999
 21
-0.38905257004999994
 31
-0.24980142416508544
  0
LINE
  5
7A
330
17
100
AcDbEntity
  8
0
100
AcDbLine
 10
1.5249164984999999
 20
-0.38905257004999994
 30
-0.24980142416508544
 11
1.5564633095
 21
-0.37662007434999994
 31
-0.2374084610338527
  0
LINE
  5
7B
330
17
100
AcDbEntity
  8
0
100
AcDbLine
 10
1.5564633095
 20
-0.37662007434999994
 30
-0.2374084610338527
 11
1.6082648524999998
 21
-0.35778983254999996
 31
-0.21890454801492434
  0
LINE
  5
7C
330
17
100
AcDbEntity
  8
0
100
AcDbLine
 10
1.6082648524999998
 20
-0.35778983254999996
 30
-0.21890454801492434
 11
1.6245473554999998
 21
-0.3478093420499999
 31
-0.21091208879263856
  0
LINE
  5
7D
330
17
100
AcDbEntity
  8
0
100
AcDbLine
 10
1.6245473554999998
 20
-0.3478093420499999
 30
-0.21091208879263856
 11
1.6404918165
 21
-0.33856529444999994
 31
-0.2035229280058189
  0
LINE
  5
7E
330
17
100
AcDbEntity
  8
0
100
AcDbLine
 10
1.6404918165
 20
-0.33856529444999994
 30
-0.2035229280058189
 11
1.6645495685
 21
-0.3247992853499999
 31
-0.19270603993470803
  0
LINE
  5
7F
330
17
100
AcDbEntity
  8
0
100
AcDbLine
 10
1.6645495685
 20
-0.3247992853499999
 30
-0.19270603993470803
 11
1.6845664505
 21
-0.31312785255
 31
-0.18378287843979088
  0
LINE
  5
80
330
17
100
AcDbEntity
  8
0
100
AcDbLine
 10
1.6845664505
 20
-0.31312785255
 30
-0.18378287843979088
 11
1.7030577045
 21
-0.30238773324999996
 31
-0.1757244173829346
  0
LINE
  5
81
330
17
100
AcDbEntity
  8
0
100
AcDbLine
 10
1.7030577045
 20
-0.30238773324999996
 30
-0.1757244173829346
 11
1.7345758144999999
 21
-0.2837808346499999
 31
-0.16216579378485704
  0
LINE
  5
82
330
17
100
AcDbEntity
  8
0
100
AcDbLine
 10
1.7345758144999999
 20
-0.2837808346499999
 30
-0.16216579378485704
 11
1.7457978505
 21
-0.27162612854999996
 31
-0.15435097525045283
  0
LINE
  5
83
330
17
100
AcDbEntity
  8
0
100
AcDbLine
 10
1.7457978505
 20
-0.27162612854999996
 30
-0.15435097525045283
 11
1.7584623495
 21
-0.25763910733999995
 31
-0.14547878891878543
  0
LINE
  5
84
330
17
100
AcDbEntity
  8
0
100
AcDbLine
 10
1.7584623495
 20
-0.25763910733999995
 30
-0.14547878891878543
 11
1.7828806824999999
 21
-0.23104843345999995
 31
-0.1288745139900474
  0
LINE
  5
85
330
17
100
AcDbEntity
  8
0
100
AcDbLine
 10
1.7828806824999999
 20
-0.23104843345999995
 30
-0.1288745139900474
 11
1.7974996475
 21
-0.21484348114999996
 31
-0.11895918133811251
  0
LINE
  5
86
330
17
100
AcDbEntity
  8
0
100
AcDbLine
 10
1.7974996475
 20
-0.21484348114999996
 30
-0.11895918133811251
 11
1.8087116955
 21
-0.18232505952999994
 31
-0.10046445658409789
  0
LINE
  5
87
330
17
100
AcDbEntity
  8
0
100
AcDbLine
 10
1.8087116955
 20
-0.18232505952999994
 30
-0.10046445658409789
 11
1.8192659075
 21
-0.15093557019999995
 31
-0.08277552274032193
  0
LINE
  5
88
330
17
100
AcDbEntity
  8
0
100
AcDbLine
 10
1.8192659075
 20
-0.15093557019999995
 30
-0.08277552274032193
 11
1.8203477984999998
 21
-0.12673929904999995
 31
-0.06951149939778098
  0
LINE
  5
89
330
17
100
AcDbEntity
  8
0
100
AcDbLine
 10
1.8203477984999998
 20
-0.12673929904999995
 30
-0.06951149939778098
 11
1.8218858964999998
 21
-0.08907843556999995
 31
-0.04885462608598602
  0
LINE
  5
8A
330
17
100
AcDbEntity
  8
0
100
AcDbLine
 10
1.8218858964999998
 20
-0.08907843556999995
 30
-0.04885462608598602
 11
1.8200423934999999
 21
-0.051845548449999945
 31
-0.028478200376463217
  0
LINE
  5
8B
330
17
100
AcDbEntity
  8
0
100
AcDbLine
 10
1.8200423934999999
 20
-0.051845548449999945
 30
-0.028478200376463217
 11
1.8188624235
 21
-0.027625377949999946
 31
-0.015187104668475497
  0
LINE
  5
8C
330
17
100
AcDbEntity
  8
0
100
AcDbLine
 10
1.8188624235
 20
-0.027625377949999946
 30
-0.015187104668475497
 11
1.8082031665
 21
0.0019379912500000485
 31
0.0010717769683428714
  0
LINE
  5
8D
330
17
100
AcDbEntity
  8
0
100
AcDbLine
 10
1.8082031665
 20
0.0019379912500000485
 30
0.0010717769683428714
 11
1.8022067355
 21
0.018390021550000052
 31
0.010203814545956752
  0
LINE
  5
8E
330
17
100
AcDbEntity
  8
0
100
AcDbLine
 10
1.8022067355
 20
0.018390021550000052
 30
0.010203814545956752
 11
1.7968267144999999
 21
0.033150846750000046
 31
0.018447569731892346
  0
LINE
  5
8F
330
17
100
AcDbEntity
  8
0
100
AcDbLine
 10
1.7968267144999999
 20
0.033150846750000046
 30
0.018447569731892346
 11
1.7824378205
 21
0.04701232605000005
 31
0.026369183028043246
  0
LINE
  5
90
330
17
100
AcDbEntity
  8
0
100
AcDbLine
 10
1.7824378205
 20
0.04701232605000005
 30
0.026369183028043246
 11
1.7584469735
 21
0.06981748345000005
 31
0.039683215994129446
  0
LINE
  5
91
330
17
100
AcDbEntity
  8
0
100
AcDbLine
 10
1.7584469735
 20
0.06981748345000005
 30
0.039683215994129446
 11
1.7454843995
 21
0.08255930645000004
 31
0.04726356902408969
  0
LINE
  5
92
330
17
100
AcDbEntity
  8
0
100
AcDbLine
 10
1.7454843995
 20
0.08255930645000004
 30
0.04726356902408969
 11
1.7340653945
 21
0.09359472955000003
 31
0.0539218424723665
  0
LINE
  5
93
330
17
100
AcDbEntity
  8
0
100
AcDbLine
 10
1.7340653945
 20
0.09359472955000003
 30
0.0539218424723665
 11
1.7029265725
 21
0.10824199145000007
 31
0.06347694228775322
  0
LINE
  5
94
330
17
100
AcDbEntity
  8
0
100
AcDbLine
 10
1.7029265725
 20
0.10824199145000007
 30
0.06347694228775322
 11
1.6845614675
 21
0.11673536595000006
 31
0.06918657849955397
  0
LINE
  5
95
330
17
100
AcDbEntity
  8
0
100
AcDbLine
 10
1.6845614675
 20
0.11673536595000006
 30
0.06918657849955397
 11
1.6645172995
 21
0.12702349875000007
 31
0.0761648910468004
  0
LINE
  5
96
330
17
100
AcDbEntity
  8
0
100
AcDbLine
 10
1.6645172995
 20
0.12702349875000007
 30
0.0761648910468004
 11
1.6404918165
 21
0.13911351415000006
 31
0.08459748967372421
  0
LINE
  5
97
330
17
100
AcDbEntity
  8
0
100
AcDbLine
 10
1.6404918165
 20
0.13911351415000006
 30
0.08459748967372421
 11
1.6233179775
 21
0.15107164975000004
 31
0.0927962172276298
  0
LINE
  5
98
330
17
100
AcDbEntity
  8
0
100
AcDbLine
 10
1.6233179775
 20
0.15107164975000004
 30
0.0927962172276298
 11
1.6013774324999999
 21
0.16615537705000005
 31
0.10338783184786626
  0
LINE
  5
99
330
17
100
AcDbEntity
  8
0
100
AcDbLine
 10
1.6013774324999999
 20
0.16615537705000005
 30
0.10338783184786626
 11
1.5501867544999999
 21
0.19171782835000006
 31
0.12304920230480829
  0
LINE
  5
9A
330
17
100
AcDbEntity
  8
0
100
AcDbLine
 10
1.5501867544999999
 20
0.19171782835000006
 30
0.12304920230480829
 11
1.5242998424999998
 21
0.20463976945000006
 31
0.13345370004084228
  0
LINE
  5
9B
330
17
100
AcDbEntity
  8
0
100
AcDbLine
 10
1.5242998424999998
 20
0.20463976945000006
 30
0.13345370004084228
 11
1.4711458135
 21
0.24258032315000005
 31
0.1634215770901921
  0
LINE
  5
9C
330
17
100
AcDbEntity
  8
0
100
AcDbLine
 10
1.4711458135
 20
0.24258032315000005
 30
0.1634215770901921
 11
1.4102793224999999
 21
0.28708826015000005
 31
0.20082431661398695
  0
LINE
  5
9D
330
17
100
AcDbEntity
  8
0
100
AcDbLine
 10
1.4102793224999999
 20
0.28708826015000005
 30
0.20082431661398695
 11
1.3946758725
 21
0.29966849775000004
 31
0.21164812613090372
  0
LINE
  5
9E
330
17
100
AcDbEntity
  8
0
100
AcDbLine
 10
1.3946758725
 20
0.29966849775000004
 30
0.21164812613090372
 11
1.3686061665
 21
0.32216861485000003
 31
0.2311901087964427
  0
LINE
  5
9F
330
17
100
AcDbEntity
  8
0
100
AcDbLine
 10
1.3686061665
 20
0.32216861485000003
 30
0.2311901087964427
 11
1.3175953214999998
 21
0.35938527985
 31
0.26628108347105856
  0
LINE
  5
A0
330
17
100
AcDbEntity
  8
0
100
AcDbLine
 10
1.3175953214999998
 20
0.35938527985
 30
0.26628108347105856
 11
1.2968230895
 21
0.37493999475000006
 31
0.28144727908525585
  0
LINE
  5
A1
330
17
100
AcDbEntity
  8
0
100
AcDbLine
 10
1.2968230895
 20
0.37493999475000006
 30
0.28144727908525585
 11
1.2435957565
 21
0.4125537533500001
 31
0.3203182580060921
  0
LINE
  5
A2
330
17
100
AcDbEntity
  8
0
100
AcDbLine
 10
1.2435957565
 20
0.4125537533500001
 30
0.3203182580060921
 11
1.1831123545
 21
0.45963497365000006
 31
0.37055037598261514
  0
LINE
  5
A3
330
17
100
AcDbEntity
  8
0
100
AcDbLine
 10
1.1831123545
 20
0.45963497365000006
 30
0.37055037598261514
 11
1.1783766654999999
 21
0.46237696865
 31
0.37392426953610663
  0
LINE
  5
A4
330
17
100
AcDbEntity
  8
0
100
AcDbLine
 10
1.1783766654999999
 20
0.46237696865
 30
0.37392426953610663
 11
1.1734531314999999
 21
0.4660383530500001
 31
0.3780481299484903
  0
LINE
  5
A5
330
17
100
AcDbEntity
  8
0
100
AcDbLine
 10
1.1734531314999999
 20
0.4660383530500001
 30
0.3780481299484903
 11
1.1102736535
 21
0.4988546878500001
 31
0.4222781993055604
  0
LINE
  5
A6
330
17
100
AcDbEntity
  8
0
100
AcDbLine
 10
1.1102736535
 20
0.4988546878500001
 30
0.4222781993055604
 11
1.0704918165
 21
0.5238326791500001
 31
0.4550819529626802
  0
LINE
  5
A7
330
17
100
AcDbEntity
  8
0
100
AcDbLine
 10
1.0704918165
 20
0.5238326791500001
 30
0.4550819529626802
 11
1.0555404615
 21
0.5289506499500001
 31
0.4645418550374398
  0
LINE
  5
A8
330
17
100
AcDbEntity
  8
0
100
AcDbLine
 10
1.0555404615
 20
0.5289506499500001
 30
0.4645418550374398
 11
1.0231847385
 21
0.54247023515
 31
0.487497684245849
  0
LINE
  5
A9
330
17
100
AcDbEntity
  8
0
100
AcDbLine
 10
1.0231847385
 20
0.54247023515
 30
0.487497684245849
 11
1.0143729444999998
 21
0.54462643865
 31
0.49273737937839446
  0
LINE
  5
AA
330
17
100
AcDbEntity
  8
0
100
AcDbLine
 10
1.0143729444999998
 20
0.54462643865
 30
0.49273737937839446
 11
0.9787447384999999
 21
0.55504687625
 31
0.515877521476743
  0
LINE
  5
AB
330
17
100
AcDbEntity
  8
0
100
AcDbLine
 10
0.9787447384999999
 20
0.55504687625
 30
0.515877521476743
 11
0.9566297975
 21
0.56001664385
 31
0.5296193593545573
  0
LINE
  5
AC
330
17
100
AcDbEntity
  8
0
100
AcDbLine
 10
0.9566297975
 20
0.56001664385
 30
0.5296193593545573
 11
0.9526621304999998
 21
0.56105758125
 31
0.5322449176077769
  0
LINE
  5
AD
330
17
100
AcDbEntity
  8
0
100
AcDbLine
 10
0.9526621304999998
 20
0.56105758125
 30
0.5322449176077769
 11
0.8812356225
 21
0.57368990335
 31
0.5770822810289299
  0
LINE
  5
AE
330
17
100
AcDbEntity
  8
0
100
AcDbLine
 10
0.8812356225
 20
0.57368990335
 30
0.5770822810289299
 11
0.8620819664999999
 21
0.57756493465
 31
0.5902827423769902
  0
LINE
  5
AF
330
17
100
AcDbEntity
  8
0
100
AcDbLine
 10
0.8620819664999999
 20
0.57756493465
 30
0.5902827423769902
 11
0.7940368148999999
 21
0.5876144308500001
 31
0.6370924534962669
  0
LINE
  5
B0
330
17
100
AcDbEntity
  8
0
100
AcDbLine
 10
0.7940368148999999
 20
0.5876144308500001
 30
0.6370924534962669
 11
0.7547123428999999
 21
0.59415177715
 31
0.6669217250373909
  0
LINE
  5
B1
330
17
100
AcDbEntity
  8
0
100
AcDbLine
 10
0.7547123428999999
 20
0.59415177715
 30
0.6669217250373909
 11
0.6965800692999999
 21
0.60152448665
 31
0.7123021811271463
  0
LINE
  5
B2
330
17
100
AcDbEntity
  8
0
100
AcDbLine
 10
0.6965800692999999
 20
0.60152448665
 30
0.7123021811271463
 11
0.6338374064999999
 21
0.6103585246500001
 31
0.7665296758222022
  0
LINE
  5
B3
330
17
100
AcDbEntity
  8
0
100
AcDbLine
 10
0.6338374064999999
 20
0.6103585246500001
 30
0.7665296758222022
 11
0.5904103458
 21
0.6151344604500001
 31
0.8059039538346467
  0
LINE
  5
B4
330
17
100
AcDbEntity
  8
0
100
AcDbLine
 10
0.5904103458
 20
0.6151344604500001
 30
0.8059039538346467
 11
0.5027836318
 21
0.62569836545
 31
0.8938908926297849
  0
LINE
  5
B5
330
17
100
AcDbEntity
  8
0
100
AcDbLine
 10
0.5027836318
 20
0.62569836545
 30
0.8938908926297849
 11
0.4770923773999999
 21
0.6281371908500001
 31
0.9212204969102177
  0
LINE
  5
B6
330
17
100
AcDbEntity
  8
0
100
AcDbLine
 10
0.4770923773999999
 20
0.6281371908500001
 30
0.9212204969102177
 11
0.36492268309999987
 21
0.6396645026500001
 31
1.0523574697726241
  0
LINE
  5
B7
330
17
100
AcDbEntity
  8
0
100
AcDbLine
 10
0.36492268309999987
 20
0.6396645026500001
 30
1.0523574697726241
 11
0.3582342490999999
 21
0.6402015349500001
 31
1.0606393634042426
  0
LINE
  5
B8
330
17
100
AcDbEntity
  8
0
100
AcDbLine
 10
0.3582342490999999
 20
0.6402015349500001
 30
1.0606393634042426
 11
0.31326872459999994
 21
0.64405674135
 31
1.118088388025666
  0
LINE
  5
B9
330
17
100
AcDbEntity
  8
0
100
AcDbLine
 10
0.31326872459999994
 20
0.64405674135
 30
1.118088388025666
 11
0.23247073699999993
 21
0.6495221385500001
 31
1.2270918234747223
  0
LINE
  5
BA
330
17
100
AcDbEntity
  8
0
100
AcDbLine
 10
0.23247073699999993
 20
0.6495221385500001
 30
1.2270918234747223
 11
0.22368267679999992
 21
0.6501297232500001
 31
1.2394243508717482
  0
LINE
  5
BB
330
17
100
AcDbEntity
  8
0
100
AcDbLine
 10
0.22368267679999992
 20
0.6501297232500001
 30
1.2394243508717482
 11
0.10354369029999994
 21
0.65638952345
 31
1.4143382809842442
  0
LINE
  5
BC
330
17
100
AcDbEntity
  8
0
100
AcDbLine
 10
0.10354369029999994
 20
0.65638952345
 30
1.4143382809842442
 11
0.08255319129999994
 21
0.6574721154500001
 31
1.445888499572954
  0
LINE
  5
BD
330
17
100
AcDbEntity
  8
0
100
AcDbLine
 10
0.08255319129999994
 20
0.6574721154500001
 30
1.445888499572954
 11
-0.02448503240000008
 21
0.66123454795
 31
1.6078086859531393
  0
LINE
  5
BE
330
17
100
AcDbEntity
  8
0
100
AcDbLine
 10
-0.02448503240000008
 20
0.66123454795
 30
1.6078086859531393
 11
-0.054983092900000086
 21
0.66222845365
 31
1.6536337068368987
  0
LINE
  5
BF
330
17
100
AcDbEntity
  8
0
100
AcDbLine
 10
-0.054983092900000086
 20
0.66222845365
 30
1.6536337068368987
 11
-0.14904833389000008
 21
0.6636791642500001
 31
1.7917099199993138
  0
LINE
  5
C0
330
17
100
AcDbEntity
  8
0
100
AcDbLine
 10
-0.14904833389000008
 20
0.6636791642500001
 30
1.7917099199993138
 11
-0.18543035003400007
 21
0.6640662028500001
 31
1.8430952587670704
  0
LINE
  5
C1
330
17
100
AcDbEntity
  8
0
100
AcDbLine
 10
-0.18543035003400007
 20
0.6640662028500001
 30
1.8430952587670704
 11
-0.2672684402600001
 21
0.6633196824500001
 31
1.9538221728773335
  0
LINE
  5
C2
330
17
100
AcDbEntity
  8
0
100
AcDbLine
 10
-0.2672684402600001
 20
0.6633196824500001
 30
1.9538221728773335
 11
-0.3052878996000001
 21
0.6626893717500001
 31
2.0024963628795063
  0
LINE
  5
C3
330
17
100
AcDbEntity
  8
0
100
AcDbLine
 10
-0.3052878996000001
 20
0.6626893717500001
 30
2.0024963628795063
 11
-0.3758698220000001
 21
0.65971790445
 31
2.0886710445317904
  0
LINE
  5
C4
330
17
100
AcDbEntity
  8
0
100
AcDbLine
 10
-0.3758698220000001
 20
0.65971790445
 30
2.0886710445317904
 11
-0.4110636353000001
 21
0.65784795355
 31
2.129295795844017
  0
LINE
  5
C5
330
17
100
AcDbEntity
  8
0
100
AcDbLine
 10
-0.4110636353000001
 20
0.65784795355
 30
2.129295795844017
 11
-0.4710465287000001
 21
0.65238726525
 31
2.196158403815977
  0
LINE
  5
C6
330
17
100
AcDbEntity
  8
0
100
AcDbLine
 10
-0.4710465287000001
 20
0.65238726525
 30
2.196158403815977
 11
-0.49929123910000006
 21
0.6493499622500001
 31
2.226289971432462
  0
LINE
  5
C7
330
17
100
AcDbEntity
  8
0
100
AcDbLine
 10
-0.49929123910000006
 20
0.6493499622500001
 30
2.226289971432462
 11
-0.5482522805000001
 21
0.6407706843500001
 31
2.278540512548856
  0
LINE
  5
C8
330
17
100
AcDbEntity
  8
0
100
AcDbLine
 10
-0.5482522805000001
 20
0.6407706843500001
 30
2.278540512548856
 11
-0.5665526601000002
 21
0.6370773993500001
 31
2.297668038119682
  0
LINE
  5
C9
330
17
100
AcDbEntity
  8
0
100
AcDbLine
 10
-0.5665526601000002
 20
0.6370773993500001
 30
2.297668038119682
 11
-0.6018549479000002
 21
0.62420399665
 31
2.337968144703559
  0
LINE
  5
CA
330
17
100
AcDbEntity
  8
0
100
AcDbLine
 10
-0.6018549479000002
 20
0.62420399665
 30
2.337968144703559
 11
-0.6095081835
 21
0.62100811845
 31
2.3468491445470296
  0
LINE
  5
CB
330
17
100
AcDbEntity
  8
0
100
AcDbLine
 10
-0.6095081835
 20
0.62100811845
 30
2.3468491445470296
 11
-0.6375102407000001
 21
0.5944642639500001
 31
2.391120920790314
  0
LINE
  5
CC
330
17
100
AcDbEntity
  8
0
100
AcDbLine
 10
-0.6375102407000001
 20
0.5944642639500001
 30
2.391120920790314
 11
-0.7316164952
 21
0.50168389115
 31
2.5405151722217862
  0
LINE
  5
CD
330
17
100
AcDbEntity
  8
0
100
AcDbLine
 10
-0.7316164952
 20
0.50168389115
 30
2.5405151722217862
 11
-0.7511625909
 21
0.4754723983500001
 31
2.577274053840619
  0
LINE
  5
CE
330
17
100
AcDbEntity
  8
0
100
AcDbLine
 10
-0.7511625909
 20
0.4754723983500001
 30
2.577274053840619
 11
-0.8025414064
 21
0.40147710415000004
 31
2.677739318415206
  0
LINE
  5
CF
330
17
100
AcDbEntity
  8
0
100
AcDbLine
 10
-0.8025414064
 20
0.40147710415000004
 30
2.677739318415206
 11
-0.8370939770000001
 21
0.35043140625
 31
2.7451310671616
  0
LINE
  5
D0
330
17
100
AcDbEntity
  8
0
100
AcDbLine
 10
-0.8370939770000001
 20
0.35043140625
 30
2.7451310671616
 11
-0.8539794810000001
 21
0.3241281260500001
 31
2.778838702467698
  0
LINE
  5
D1
330
17
100
AcDbEntity
  8
0
100
AcDbLine
 10
-0.8539794810000001
 20
0.3241281260500001
 30
2.778838702467698
 11
-0.9672128950000001
 21
0.17182696785000007
 31
2.9657752932825137
  0
LINE
  5
D2
330
17
100
AcDbEntity
  8
0
100
AcDbLine
 10
-0.9672128950000001
 20
0.17182696785000007
 30
2.9657752932825137
 11
-0.9688111428000001
 21
0.16964801815000008
 31
2.968240759588274
  0
LINE
  5
D3
330
17
100
AcDbEntity
  8
0
100
AcDbLine
 10
-0.9688111428000001
 20
0.16964801815000008
 30
2.968240759588274
 11
-0.9695712847000001
 21
0.16918769155000007
 31
2.968834670695748
  0
LINE
  5
D4
330
17
100
AcDbEntity
  8
0
100
AcDbLine
 10
-0.9695712847000001
 20
0.16918769155000007
 30
2.968834670695748
 11
-1.0795081835000002
 21
0.09795723985000004
 31
3.051098023212788
  0
LINE
  5
D5
330
17
100
AcDbEntity
  8
0
100
AcDbLine
 10
-1.0795081835000002
 20
0.09795723985000004
 30
3.051098023212788
 11
-1.1236786932
 21
0.09162182575000005
 31
3.060235244305302
  0
LINE
  5
D6
330
17
100
AcDbEntity
  8
0
100
AcDbLine
 10
-1.1236786932
 20
0.09162182575000005
 30
3.060235244305302
 11
-1.1899193545000002
 21
0.08217600545000003
 31
3.0726419831688667
  0
LINE
  5
D7
330
17
100
AcDbEntity
  8
0
100
AcDbLine
 10
-1.1899193545000002
 20
0.08217600545000003
 30
3.0726419831688667
 11
-1.2723823795
 21
0.06329134345000006
 31
3.0918912264715073
  0
LINE
  5
D8
330
17
100
AcDbEntity
  8
0
100
AcDbLine
 10
-1.2723823795
 20
0.06329134345000006
 30
3.0918912264715073
 11
-1.3003325885
 21
0.056634970250000055
 31
3.0980659436983298
  0
LINE
  5
D9
330
17
100
AcDbEntity
  8
0
100
AcDbLine
 10
-1.3003325885
 20
0.056634970250000055
 30
3.0980659436983298
 11
-1.3506285095000001
 21
0.04334780515000006
 31
3.1095091232719647
  0
LINE
  5
DA
330
17
100
AcDbEntity
  8
0
100
AcDbLine
 10
-1.3506285095000001
 20
0.04334780515000006
 30
3.1095091232719647
 11
-1.4103385885000002
 21
0.02307439395000005
 31
3.125233223572484
  0
LINE
  5
DB
330
17
100
AcDbEntity
  8
0
100
AcDbLine
 10
-1.4103385885000002
 20
0.02307439395000005
 30
3.125233223572484
 11
-1.4706641705
 21
0.004764722450000064
 31
3.138352820951881
  0
LINE
  5
DC
330
17
100
AcDbEntity
  8
0
100
AcDbLine
 10
-1.4706641705
 20
0.004764722450000064
 30
3.138352820951881
 11
-1.5195081835000002
 21
-0.01086620874999994
 31
-3.13444164009371
  0
ENDSEC
  0
SECTION
  2
OBJECTS
  0
DICTIONARY
  5
A
330
0
100
AcDbDictionary
281
1
  3
ACAD_COLOR
350
B
  3
ACAD_GROUP
350
C
  3
ACAD_LAYOUT
350
D
  3
ACAD_MATERIAL
350
E
  3
ACAD_MLEADERSTYLE
350
F
  3
ACAD_MLINESTYLE
350
10
  3
ACAD_PLOTSETTINGS
350
11
  3
ACAD_PLOTSTYLENAME
350
12
  3
ACAD_SCALELIST
350
14
  3
ACAD_TABLESTYLE
350
15
  3
ACAD_VISUALSTYLE
350
16
  0
DICTIONARY
  5
B
330
A
100
AcDbDictionary
281
1
  0
DICTIONARY
  5
C
330
A
100
AcDbDictionary
281
1
  0
DICTIONARY
  5
D
330
A
100
AcDbDictionary
281
1
  3
Model
350
1A
  3
Layout1
350
1E
  0
DICTIONARY
  5
E
330
A
100
AcDbDictionary
281
1
  3
ByBlock
350
1F
  3
ByLayer
350
20
  3
Global
350
21
  0
DICTIONARY
  5
F
330
A
100
AcDbDictionary
281
1
  3
Standard
350
2C
  0
DICTIONARY
  5
10
330
A
100
AcDbDictionary
281
1
  3
Standard
350
22
  0
DICTIONARY
  5
11
330
A
100
AcDbDictionary
281
1
  0
ACDBDICTIONARYWDFLT
  5
12
330
A
100
AcDbDictionary
281
1
  3
Normal
350
13
100
AcDbDictionaryWithDefault
340
13
  0
ACDBPLACEHOLDER
  5
13
330
12
  0
DICTIONARY
  5
14
330
A
100
AcDbDictionary
281
1
  0
DICTIONARY
  5
15
330
A
100
AcDbDictionary
281
1
  0
DICTIONARY
  5
16
330
A
100
AcDbDictionary
281
1
  0
LAYOUT
  5
1A
330
D
100
AcDbPlotSettings
  1

  2
Adobe PDF
  4
A4
  6

 40
3.175
 41
3.175
 42
3.175
 43
3.175
 44
209.91
 45
297.03
 46
0.0
 47
0.0
 48
0.0
 49
0.0
140
0.0
141
0.0
142
1.0
143
1.0
 70
1024
 72
0
 73
1
 74
5
  7

 75
16
 76
0
 77
2
 78
300
147
1.0
148
0.0
149
0.0
100
AcDbLayout
  1
Model
 70
1
 71
0
 10
-3.175
 20
-3.175
 11
293.857
 21
206.735
 12
0.0
 22
0.0
 32
0.0
 14
29.068
 24
20.356
 34
0.0
 15
261.614
 25
183.204
 35
0.0
146
0.0
 13
0.0
 23
0.0
 33
0.0
 16
1.0
 26
0.0
 36
0.0
 17
0.0
 27
1.0
 37
0.0
 76
1
330
17
  0
LAYOUT
  5
1E
330
D
100
AcDbPlotSettings
  1

  2
Adobe PDF
  4
A4
  6

 40
3.175
 41
3.175
 42
3.175
 43
3.175
 44
209.91
 45
297.03
 46
0.0
 47
0.0
 48
0.0
 49
0.0
140
0.0
141
0.0
142
1.0
143
1.0
 70
0
 72
0
 73
1
 74
5
  7

 75
16
 76
0
 77
2
 78
300
147
1.0
148
0.0
149
0.0
100
AcDbLayout
  1
Layout1
 70
1
 71
1
 10
-3.175
 20
-3.175
 11
293.857
 21
206.735
 12
0.0
 22
0.0
 32
0.0
 14
29.068
 24
20.356
 34
0.0
 15
261.614
 25
183.204
 35
0.0
146
0.0
 13
0.0
 23
0.0
 33
0.0
 16
1.0
 26
0.0
 36
0.0
 17
0.0
 27
1.0
 37
0.0
 76
1
330
1B
  0
MATERIAL
  5
1F
102
{ACAD_REACTORS
330
E
102
}
330
E
100
AcDbMaterial
  1
ByBlock
  2

 70
0
 40
1.0
 71
1
 41
1.0
 91
-1023410177
 42
1.0
 72
1
  3

 73
1
 74
1
 75
1
 44
0.5
 73
0
 45
1.0
 46
1.0
 77
1
  4

 78
1
 79
1
170
1
 48
1.0
171
1
  6

172
1
173
1
174
1
140
1.0
141
1.0
175
1
  7

176
1
177
1
178
1
143
1.0
179
1
  8

270
1
271
1
272
1
145
1.0
146
1.0
273
1
  9

274
1
275
1
276
1
 42
1.0
 72
1
  3

 73
1
 74
1
 75
1
 94
63
  0
MATERIAL
  5
20
102
{ACAD_REACTORS
330
E
102
}
330
E
100
AcDbMaterial
  1
ByLayer
  2

 70
0
 40
1.0
 71
1
 41
1.0
 91
-1023410177
 42
1.0
 72
1
  3

 73
1
 74
1
 75
1
 44
0.5
 73
0
 45
1.0
 46
1.0
 77
1
  4

 78
1
 79
1
170
1
 48
1.0
171
1
  6

172
1
173
1
174
1
140
1.0
141
1.0
175
1
  7

176
1
177
1
178
1
143
1.0
179
1
  8

270
1
271
1
272
1
145
1.0
146
1.0
273
1
  9

274
1
275
1
276
1
 42
1.0
 72
1
  3

 73
1
 74
1
 75
1
 94
63
  0
MATERIAL
  5
21
102
{ACAD_REACTORS
330
E
102
}
330
E
100
AcDbMaterial
  1
Global
  2

 70
0
 40
1.0
 71
1
 41
1.0
 91
-1023410177
 42
1.0
 72
1
  3

 73
1
 74
1
 75
1
 44
0.5
 73
0
 45
1.0
 46
1.0
 77
1
  4

 78
1
 79
1
170
1
 48
1.0
171
1
  6

172
1
173
1
174
1
140
1.0
141
1.0
175
1
  7

176
1
177
1
178
1
143
1.0
179
1
  8

270
1
271
1
272
1
145
1.0
146
1.0
273
1
  9

274
1
275
1
276
1
 42
1.0
 72
1
  3

 73
1
 74
1
 75
1
 94
63
  0
MLINESTYLE
  5
22
102
{ACAD_REACTORS
330
10
102
}
330
10
100
AcDbMlineStyle
  2
Standard
 70
0
  3

 62
256
 51
90.0
 52
90.0
 71
2
 49
0.5
 62
256
  6
BYLAYER
 49
-0.5
 62
256
  6
BYLAYER
  0
MLEADERSTYLE
  5
2C
102
{ACAD_REACTORS
330
F
102
}
330
F
100
AcDbMLeaderStyle
179
2
170
2
171
1
172
0
 90
2
 40
0.0
 41
0.0
173
1
 91
-1056964608
 92
-2
290
1
 42
2.0
291
1
 43
8.0
  3
Standard
 44
4.0
300

342
29
174
1
175
1
176
0
178
1
 93
-1056964608
 45
4.0
292
0
297
0
 46
4.0
 94
-1056964608
 47
1.0
 49
0.0
140
1.0
294
1
141
0.0
177
0
142
1.0
295
0
296
0
143
3.75
271
0
272
9
272
9
  0
ENDSEC
  0
EOF
