  0
SECTION
  2
HEADER
  9
$ACADVER
  1
AC1009
  9
$DWGCODEPAGE
  3
ANSI_1252
  9
$INSBASE
 10
0.0
 20
0.0
 30
0.0
  9
$EXTMIN
 10
-100
 20
-100
 30
-100
  9
$EXTMAX
 10
100
 20
100
 30
100
  9
$LIMMIN
 10
0.0
 20
0.0
  9
$LIMMAX
 10
420.0
 20
297.0
  9
$ORTHOMODE
 70
0
  9
$REGENMODE
 70
1
  9
$DRAGMODE
 70
2
  9
$FILLMODE
 70
1
  9
$QTEXTMODE
 70
0
  9
$MIRRTEXT
 70
1
  9
$OSMODE
 70
20583
  9
$LTSCALE
 40
1.0
  9
$ATTMODE
 70
1
  9
$TEXTSIZE
 40
2.5
  9
$TRACEWID
 40
1.0
  9
$TEXTSTYLE
  7
Standard
  9
$CLAYER
  8
0
  9
$CELTYPE
  6
ByLayer
  9
$CECOLOR
 62
256
  9
$DIMSCALE
 40
1.0
  9
$DIMASZ
 40
2.5
  9
$DIMEXO
 40
0.625
  9
$DIMDLI
 40
3.75
  9
$DIMRND
 40
0.0
  9
$DIMDLE
 40
0.0
  9
$DIMEXE
 40
1.25
  9
$DIMTP
 40
0.0
  9
$DIMTM
 40
0.0
  9
$DIMTXT
 40
2.5
  9
$DIMCEN
 40
2.5
  9
$DIMTSZ
 40
0.0
  9
$DIMTOL
 70
0
  9
$DIMLIM
 70
0
  9
$DIMTIH
 70
0
  9
$DIMTOH
 70
0
  9
$DIMSE1
 70
0
  9
$DIMSE2
 70
0
  9
$DIMTAD
 70
1
  9
$DIMZIN
 70
8
  9
$DIMBLK
  1

  9
$DIMASO
 70
1
  9
$DIMSHO
 70
1
  9
$DIMPOST
  1

  9
$DIMAPOST
  1

  9
$DIMALT
 70
0
  9
$DIMALTD
 70
3
  9
$DIMALTF
 40
0.03937007874
  9
$DIMLFAC
 40
1.0
  9
$DIMTOFL
 70
1
  9
$DIMTVP
 40
0.0
  9
$DIMTIX
 70
0
  9
$DIMSOXD
 70
0
  9
$DIMSAH
 70
0
  9
$DIMBLK1
  1

  9
$DIMBLK2
  1

  9
$DIMSTYLE
  2
ISO-25
  9
$DIMCLRD
 70
0
  9
$DIMCLRE
 70
0
  9
$DIMCLRT
 70
0
  9
$DIMTFAC
 40
1.0
  9
$DIMGAP
 40
0.625
  9
$COORDS
 70
1
  9
$ATTDIA
 70
0
  9
$ATTREQ
 70
1
  9
$HANDLING
 70
1
  9
$LUNITS
 70
2
  9
$LUPREC
 70
4
  9
$SKETCHINC
 40
1.0
  9
$FILLETRAD
 40
10.0
  9
$AUNITS
 70
0
  9
$AUPREC
 70
2
  9
$MENU
  1
.
  9
$ELEVATION
 40
0.0
  9
$PELEVATION
 40
0.0
  9
$THICKNESS
 40
0.0
  9
$LIMCHECK
 70
0
  9
$CHAMFERA
 40
0.0
  9
$CHAMFERB
 40
0.0
  9
$SKPOLY
 70
0
  9
$TDCREATE
 40
2459751.945671296
  9
$TDUPDATE
 40
2459751.945671296
  9
$TDINDWG
 40
0.0
  9
$TDUSRTIMER
 40
0.0
  9
$USRTIMER
 70
1
  9
$ANGBASE
 50
0.0
  9
$ANGDIR
 70
0
  9
$PDMODE
 70
0
  9
$PDSIZE
 40
0.0
  9
$PLINEWID
 40
0.0
  9
$SPLFRAME
 70
0
  9
$SPLINETYPE
 70
6
  9
$SPLINESEGS
 70
8
  9
$HANDSEED
  5
72
  9
$SURFTAB1
 70
6
  9
$SURFTAB2
 70
6
  9
$SURFTYPE
 70
6
  9
$SURFU
 70
6
  9
$SURFV
 70
6
  9
$UCSNAME
  2

  9
$UCSORG
 10
0.0
 20
0.0
 30
0.0
  9
$UCSXDIR
 10
1.0
 20
0.0
 30
0.0
  9
$UCSYDIR
 10
0.0
 20
1.0
 30
0.0
  9
$PUCSNAME
  2

  9
$PUCSORG
 10
0.0
 20
0.0
 30
0.0
  9
$PUCSXDIR
 10
1.0
 20
0.0
 30
0.0
  9
$PUCSYDIR
 10
0.0
 20
1.0
 30
0.0
  9
$USERI1
 70
0
  9
$USERI2
 70
0
  9
$USERI3
 70
0
  9
$USERI4
 70
0
  9
$USERI5
 70
0
  9
$USERR1
 40
0.0
  9
$USERR2
 40
0.0
  9
$USERR3
 40
0.0
  9
$USERR4
 40
0.0
  9
$USERR5
 40
0.0
  9
$WORLDVIEW
 70
1
  9
$SHADEDGE
 70
3
  9
$SHADEDIF
 70
70
  9
$TILEMODE
 70
1
  9
$MAXACTVP
 70
64
  9
$PLIMCHECK
 70
0
  9
$PEXTMIN
 10
1e+20
 20
1e+20
 30
1e+20
  9
$PEXTMAX
 10
-1e+20
 20
-1e+20
 30
-1e+20
  9
$PLIMMIN
 10
0.0
 20
0.0
  9
$PLIMMAX
 10
420.0
 20
297.0
  9
$UNITMODE
 70
0
  9
$VISRETAIN
 70
1
  9
$PLINEGEN
 70
0
  9
$PSLTSCALE
 70
1
  0
ENDSEC
  0
SECTION
  2
TABLES
  0
TABLE
  2
VPORT
 70
1
  0
VPORT
  5
23
  2
*Active
 70
0
 10
0.0
 20
0.0
 11
1.0
 21
1.0
 12
70.0
 22
50.0
 13
0.0
 23
0.0
 14
0.5
 24
0.5
 15
0.5
 25
0.5
 16
0.0
 26
0.0
 36
1.0
 17
0.0
 27
0.0
 37
0.0
 40
1.0
 41
1.34
 42
50.0
 43
0.0
 44
0.0
 50
0.0
 51
0.0
 71
0
 72
1000
 73
1
 74
3
 75
0
 76
0
 77
0
 78
0
  0
ENDTAB
  0
TABLE
  2
LTYPE
 70
3
  0
LTYPE
  5
24
  2
ByBlock
 70
0
  3

 72
65
 73
0
 40
0.0
  0
LTYPE
  5
25
  2
ByLayer
 70
0
  3

 72
65
 73
0
 40
0.0
  0
LTYPE
  5
26
  2
Continuous
 70
0
  3

 72
65
 73
0
 40
0.0
  0
ENDTAB
  0
TABLE
  2
LAYER
 70
2
  0
LAYER
  5
27
  2
0
 70
0
 62
7
  6
Continuous
  0
LAYER
  5
28
  2
Defpoints
 70
0
 62
7
  6
Continuous
  0
ENDTAB
  0
TABLE
  2
STYLE
 70
1
  0
STYLE
  5
29
  2
Standard
 70
0
 40
0.0
 41
1.0
 50
0.0
 71
0
 42
2.5
  3
txt
  4

  0
ENDTAB
  0
TABLE
  2
VIEW
 70
0
  0
ENDTAB
  0
TABLE
  2
UCS
 70
0
  0
ENDTAB
  0
TABLE
  2
APPID
 70
2
  0
APPID
  5
2A
  2
ACAD
 70
0
  0
APPID
  5
71
  2
HATCHBACKGROUNDCOLOR
 70
0
  0
ENDTAB
  0
TABLE
  2
DIMSTYLE
 70
1
  0
DIMSTYLE
105
2B
  2
Standard
 70
0
  3

  4

  5

  6

  7

 40
1.0
 41
2.5
 42
0.625
 43
3.75
 44
1.25
 45
0.0
 46
0.0
 47
0.0
 48
0.0
140
2.5
141
2.5
142
0.0
143
0.03937007874
144
1.0
145
0.0
146
1.0
147
0.625
 71
0
 72
0
 73
0
 74
0
 75
0
 76
0
 77
1
 78
8
170
0
171
3
172
1
173
0
174
0
175
0
176
0
177
0
178
0
  0
ENDTAB
  0
ENDSEC
  0
SECTION
  2
BLOCKS
  0
BLOCK
  5
18
  8
0
  2
$Model_Space
 70
0
 10
0.0
 20
0.0
 30
0.0
  3
$Model_Space
  1

  0
ENDBLK
  5
19
  8
0
  0
BLOCK
  5
1C
  8
0
  2
$Paper_Space
 70
0
 10
0.0
 20
0.0
 30
0.0
  3
$Paper_Space
  1

  0
ENDBLK
  5
1D
  8
0
  0
ENDSEC
  0
SECTION
  2
ENTITIES
  0
LINE
  5
2D
  8
0
 10
-1.6326346939999996
 20
-0.005935846450000004
 30
0.0
 11
-1.6119328489999996
 21
-0.034069986350000026
 31
0.0
  0
LINE
  5
2E
  8
0
 10
-1.6119328489999996
 20
-0.034069986350000026
 30
0.0
 11
-1.5970658899999997
 21
-0.05456737835000003
 31
0.0
  0
LINE
  5
2F
  8
0
 10
-1.5970658899999997
 20
-0.05456737835000003
 30
0.0
 11
-1.5491659089999996
 21
-0.07527072485000003
 31
0.0
  0
LINE
  5
30
  8
0
 10
-1.5491659089999996
 20
-0.07527072485000003
 30
0.0
 11
-1.5145616379999995
 21
-0.09030812365000002
 31
0.0
  0
LINE
  5
31
  8
0
 10
-1.5145616379999995
 20
-0.09030812365000002
 30
0.0
 11
-1.4429912729999996
 21
-0.10744608235000003
 31
0.0
  0
LINE
  5
32
  8
0
 10
-1.4429912729999996
 20
-0.10744608235000003
 30
0.0
 11
-1.391153739
 21
-0.11950373305
 31
0.0
  0
LINE
  5
33
  8
0
 10
-1.391153739
 20
-0.11950373305
 30
0.0
 11
-1.2915479039999997
 21
-0.13365056185000002
 31
0.0
  0
LINE
  5
34
  8
0
 10
-1.2915479039999997
 20
-0.13365056185000002
 30
0.0
 11
-1.2194231279999999
 21
-0.14319423125000003
 31
0.0
  0
LINE
  5
35
  8
0
 10
-1.2194231279999999
 20
-0.14319423125000003
 30
0.0
 11
-1.0876836099999996
 21
-0.15327659565
 31
0.0
  0
LINE
  5
36
  8
0
 10
-1.0876836099999996
 20
-0.15327659565
 30
0.0
 11
-0.9923483249999996
 21
-0.15964050275000002
 31
0.0
  0
LINE
  5
37
  8
0
 10
-0.9923483249999996
 20
-0.15964050275000002
 30
0.0
 11
-0.827695624
 21
-0.16408889415
 31
0.0
  0
LINE
  5
38
  8
0
 10
-0.827695624
 20
-0.16408889415
 30
0.0
 11
-0.7085969479999998
 21
-0.16636215355
 31
0.0
  0
LINE
  5
39
  8
0
 10
-0.7085969479999998
 20
-0.16636215355
 30
0.0
 11
-0.5160937319999999
 21
-0.16414779365000004
 31
0.0
  0
LINE
  5
3A
  8
0
 10
-0.5160937319999999
 20
-0.16414779365000004
 30
0.0
 11
-0.37687428299999937
 21
-0.16192184545
 31
0.0
  0
LINE
  5
3B
  8
0
 10
-0.37687428299999937
 20
-0.16192184545
 30
0.0
 11
-0.16828323899999997
 21
-0.15339417785000004
 31
0.0
  0
LINE
  5
3C
  8
0
 10
-0.16828323899999997
 20
-0.15339417785000004
 30
0.0
 11
-0.017422159999999742
 21
-0.14707414385
 31
0.0
  0
LINE
  5
3D
  8
0
 10
-0.017422159999999742
 20
-0.14707414385
 30
0.0
 11
0.13328805100000007
 21
-0.13780378195000004
 31
0.0
  0
LINE
  5
3E
  8
0
 10
0.13328805100000007
 20
-0.13780378195000004
 30
0.0
 11
0.341650295
 21
-0.12479918855
 31
0.0
  0
LINE
  5
3F
  8
0
 10
0.341650295
 20
-0.12479918855
 30
0.0
 11
0.48050572
 21
-0.11440134225000004
 31
0.0
  0
LINE
  5
40
  8
0
 10
0.48050572
 20
-0.11440134225000004
 30
0.0
 11
0.6724480260000005
 21
-0.09945446815000003
 31
0.0
  0
LINE
  5
41
  8
0
 10
0.6724480260000005
 20
-0.09945446815000003
 30
0.0
 11
0.7911636720000006
 21
-0.08946424265000003
 31
0.0
  0
LINE
  5
42
  8
0
 10
0.7911636720000006
 20
-0.08946424265000003
 30
0.0
 11
0.9552374190000004
 21
-0.07483737405000002
 31
0.0
  0
LINE
  5
43
  8
0
 10
0.9552374190000004
 20
-0.07483737405000002
 30
0.0
 11
1.0504113469999998
 21
-0.06618206495000001
 31
0.0
  0
LINE
  5
44
  8
0
 10
1.0504113469999998
 20
-0.06618206495000001
 30
0.0
 11
1.1819268640000002
 21
-0.05333885345
 31
0.0
  0
LINE
  5
45
  8
0
 10
1.1819268640000002
 20
-0.05333885345
 30
0.0
 11
1.2543668879999998
 21
-0.046376130550000005
 31
0.0
  0
LINE
  5
46
  8
0
 10
1.2543668879999998
 20
-0.046376130550000005
 30
0.0
 11
1.3544535150000003
 21
-0.035947610750000025
 31
0.0
  0
LINE
  5
47
  8
0
 10
1.3544535150000003
 20
-0.035947610750000025
 30
0.0
 11
1.407440007
 21
-0.030641800550000042
 31
0.0
  0
LINE
  5
48
  8
0
 10
1.407440007
 20
-0.030641800550000042
 30
0.0
 11
1.4806403600000007
 21
-0.02264577305000004
 31
0.0
  0
LINE
  5
49
  8
0
 10
1.4806403600000007
 20
-0.02264577305000004
 30
0.0
 11
1.5182806439999998
 21
-0.01876154915
 31
0.0
  0
LINE
  5
4A
  8
0
 10
1.5182806439999998
 20
-0.01876154915
 30
0.0
 11
1.5702758170000006
 21
-0.012884579549999997
 31
0.0
  0
LINE
  5
4B
  8
0
 10
1.5702758170000006
 20
-0.012884579549999997
 30
0.0
 11
1.5964629190000004
 21
-0.010123784050000029
 31
0.0
  0
LINE
  5
4C
  8
0
 10
1.5964629190000004
 20
-0.010123784050000029
 30
0.0
 11
1.632634694
 21
-0.005935846450000004
 31
0.0
  0
LINE
  5
4D
  8
0
 10
1.632634694
 20
-0.005935846450000004
 30
0.0
 11
1.5964629190000004
 21
-0.001747908850000035
 31
0.0
  0
LINE
  5
4E
  8
0
 10
1.5964629190000004
 20
-0.001747908850000035
 30
0.0
 11
1.570300188
 21
0.0018432783499999772
 31
0.0
  0
LINE
  5
4F
  8
0
 10
1.570300188
 20
0.0018432783499999772
 30
0.0
 11
1.5183050150000001
 21
0.007720247849999973
 31
0.0
  0
LINE
  5
50
  8
0
 10
1.5183050150000001
 20
0.007720247849999973
 30
0.0
 11
1.4806894660000003
 21
0.012750408349999964
 31
0.0
  0
LINE
  5
51
  8
0
 10
1.4806894660000003
 20
0.012750408349999964
 30
0.0
 11
1.4074891130000005
 21
0.020746435849999967
 31
0.0
  0
LINE
  5
52
  8
0
 10
1.4074891130000005
 20
0.020746435849999967
 30
0.0
 11
1.3545177940000004
 21
0.027570253749999996
 31
0.0
  0
LINE
  5
53
  8
0
 10
1.3545177940000004
 20
0.027570253749999996
 30
0.0
 11
1.254431167
 21
0.03799877344999997
 31
0.0
  0
LINE
  5
54
  8
0
 10
1.254431167
 20
0.03799877344999997
 30
0.0
 11
1.1819771580000005
 21
0.04685699874999999
 31
0.0
  0
LINE
  5
55
  8
0
 10
1.1819771580000005
 20
0.04685699874999999
 30
0.0
 11
1.0504616420000001
 21
0.05970021014999999
 31
0.0
  0
LINE
  5
56
  8
0
 10
1.0504616420000001
 20
0.05970021014999999
 30
0.0
 11
0.9552134080000005
 21
0.07053034284999998
 31
0.0
  0
LINE
  5
57
  8
0
 10
0.9552134080000005
 20
0.07053034284999998
 30
0.0
 11
0.7911396609999999
 21
0.08515721144999999
 31
0.0
  0
LINE
  5
58
  8
0
 10
0.7911396609999999
 20
0.08515721144999999
 30
0.0
 11
0.6722506830000006
 21
0.09735785324999999
 31
0.0
  0
LINE
  5
59
  8
0
 10
0.6722506830000006
 20
0.09735785324999999
 30
0.0
 11
0.48030837700000006
 21
0.11230472744999997
 31
0.0
  0
LINE
  5
5A
  8
0
 10
0.48030837700000006
 20
0.11230472744999997
 30
0.0
 11
0.34115038799999997
 21
0.12457919644999998
 31
0.0
  0
LINE
  5
5B
  8
0
 10
0.34115038799999997
 20
0.12457919644999998
 30
0.0
 11
0.13278814400000005
 21
0.13758378994999998
 31
0.0
  0
LINE
  5
5C
  8
0
 10
0.13278814400000005
 20
0.13758378994999998
 30
0.0
 11
-0.01835138899999933
 21
0.14802428574999998
 31
0.0
  0
LINE
  5
5D
  8
0
 10
-0.01835138899999933
 20
0.14802428574999998
 30
0.0
 11
-0.16971532399999933
 21
0.15458986514999998
 31
0.0
  0
LINE
  5
5E
  8
0
 10
-0.16971532399999933
 20
0.15458986514999998
 30
0.0
 11
-0.3783063689999997
 21
0.16311753275
 31
0.0
  0
LINE
  5
5F
  8
0
 10
-0.3783063689999997
 20
0.16311753275
 30
0.0
 11
-0.5180115269999996
 21
0.16414779354999998
 31
0.0
  0
LINE
  5
60
  8
0
 10
-0.5180115269999996
 20
0.16414779354999998
 30
0.0
 11
-0.7105147429999996
 21
0.16636215354999997
 31
0.0
  0
LINE
  5
61
  8
0
 10
-0.7105147429999996
 20
0.16636215354999997
 30
0.0
 11
-0.8299346319999996
 21
0.16174314985
 31
0.0
  0
LINE
  5
62
  8
0
 10
-0.8299346319999996
 20
0.16174314985
 30
0.0
 11
-0.9945873329999997
 21
0.15729475845
 31
0.0
  0
LINE
  5
63
  8
0
 10
-0.9945873329999997
 20
0.15729475845
 30
0.0
 11
-1.089985391
 21
0.14819082974999997
 31
0.0
  0
LINE
  5
64
  8
0
 10
-1.089985391
 20
0.14819082974999997
 30
0.0
 11
-1.2217249079999997
 21
0.13810846535
 31
0.0
  0
LINE
  5
65
  8
0
 10
-1.2217249079999997
 20
0.13810846535
 30
0.0
 11
-1.2936452879999996
 21
0.12599621565
 31
0.0
  0
LINE
  5
66
  8
0
 10
-1.2936452879999996
 20
0.12599621565
 30
0.0
 11
-1.3932511239999998
 21
0.11184938684999998
 31
0.0
  0
LINE
  5
67
  8
0
 10
-1.3932511239999998
 20
0.11184938684999998
 30
0.0
 11
-1.4446471889999999
 21
0.09769775644999998
 31
0.0
  0
LINE
  5
68
  8
0
 10
-1.4446471889999999
 20
0.09769775644999998
 30
0.0
 11
-1.5162175549999999
 21
0.08055979764999999
 31
0.0
  0
LINE
  5
69
  8
0
 10
-1.5162175549999999
 20
0.08055979764999999
 30
0.0
 11
-1.5501425439999998
 21
0.06403784215
 31
0.0
  0
LINE
  5
6A
  8
0
 10
-1.5501425439999998
 20
0.06403784215
 30
0.0
 11
-1.598042526
 21
0.04333449574999998
 31
0.0
  0
LINE
  5
6B
  8
0
 10
-1.598042526
 20
0.04333449574999998
 30
0.0
 11
-1.6119328489999996
 21
0.022198293449999962
 31
0.0
  0
LINE
  5
6C
  8
0
 10
-1.6119328489999996
 20
0.022198293449999962
 30
0.0
 11
-1.6326346939999996
 21
-0.005935846450000004
 31
0.0
  0
LINE
  5
6D
  8
0
 10
0.2
 20
0.2
 30
0.0
 11
0.2
 21
-0.2
 31
0.0
  0
LINE
  5
6E
  8
0
 10
0.2
 20
-0.2
 30
0.0
 11
-0.2
 21
-0.2
 31
0.0
  0
LINE
  5
6F
  8
0
 10
-0.2
 20
-0.2
 30
0.0
 11
-0.2
 21
0.2
 31
0.0
  0
LINE
  5
70
  8
0
 10
-0.2
 20
0.2
 30
0.0
 11
0.2
 21
0.2
 31
0.0
  0
ENDSEC
  0
EOF
