  0
SECTION
  2
HEADER
  9
$ACADVER
  1
AC1024
  9
$ACADMAINTVER
 70
6
  9
$DWGCODEPAGE
  3
ANSI_1252
  9
$LASTSAVEDBY
  1
ezdxf
  9
$INSBASE
 10
0.0
 20
0.0
 30
0.0
  9
$EXTMIN
 10
-100
 20
-100
 30
-100
  9
$EXTMAX
 10
100
 20
100
 30
100
  9
$LIMMIN
 10
0.0
 20
0.0
  9
$LIMMAX
 10
420.0
 20
297.0
  9
$ORTHOMODE
 70
0
  9
$REGENMODE
 70
1
  9
$FILLMODE
 70
1
  9
$QTEXTMODE
 70
0
  9
$MIRRTEXT
 70
1
  9
$LTSCALE
 40
1.0
  9
$ATTMODE
 70
1
  9
$TEXTSIZE
 40
2.5
  9
$TRACEWID
 40
1.0
  9
$TEXTSTYLE
  7
Standard
  9
$CLAYER
  8
0
  9
$CELTYPE
  6
ByLayer
  9
$CECOLOR
 62
256
  9
$CELTSCALE
 40
1.0
  9
$DISPSILH
 70
0
  9
$DIMSCALE
 40
1.0
  9
$DIMASZ
 40
2.5
  9
$DIMEXO
 40
0.625
  9
$DIMDLI
 40
3.75
  9
$DIMRND
 40
0.0
  9
$DIMDLE
 40
0.0
  9
$DIMEXE
 40
1.25
  9
$DIMTP
 40
0.0
  9
$DIMTM
 40
0.0
  9
$DIMTXT
 40
2.5
  9
$DIMCEN
 40
2.5
  9
$DIMTSZ
 40
0.0
  9
$DIMTOL
 70
0
  9
$DIMLIM
 70
0
  9
$DIMTIH
 70
0
  9
$DIMTOH
 70
0
  9
$DIMSE1
 70
0
  9
$DIMSE2
 70
0
  9
$DIMTAD
 70
1
  9
$DIMZIN
 70
8
  9
$DIMBLK
  1

  9
$DIMASO
 70
1
  9
$DIMSHO
 70
1
  9
$DIMPOST
  1

  9
$DIMAPOST
  1

  9
$DIMALT
 70
0
  9
$DIMALTD
 70
3
  9
$DIMALTF
 40
0.03937007874
  9
$DIMLFAC
 40
1.0
  9
$DIMTOFL
 70
1
  9
$DIMTVP
 40
0.0
  9
$DIMTIX
 70
0
  9
$DIMSOXD
 70
0
  9
$DIMSAH
 70
0
  9
$DIMBLK1
  1

  9
$DIMBLK2
  1

  9
$DIMSTYLE
  2
ISO-25
  9
$DIMCLRD
 70
0
  9
$DIMCLRE
 70
0
  9
$DIMCLRT
 70
0
  9
$DIMTFAC
 40
1.0
  9
$DIMGAP
 40
0.625
  9
$DIMJUST
 70
0
  9
$DIMSD1
 70
0
  9
$DIMSD2
 70
0
  9
$DIMTOLJ
 70
0
  9
$DIMTZIN
 70
8
  9
$DIMALTZ
 70
0
  9
$DIMALTTZ
 70
0
  9
$DIMUPT
 70
0
  9
$DIMDEC
 70
2
  9
$DIMTDEC
 70
2
  9
$DIMALTU
 70
2
  9
$DIMALTTD
 70
3
  9
$DIMTXSTY
  7
Standard
  9
$DIMAUNIT
 70
0
  9
$DIMADEC
 70
0
  9
$DIMALTRND
 40
0.0
  9
$DIMAZIN
 70
0
  9
$DIMDSEP
 70
44
  9
$DIMATFIT
 70
3
  9
$DIMFRAC
 70
0
  9
$DIMLDRBLK
  1

  9
$DIMLUNIT
 70
2
  9
$DIMLWD
 70
-2
  9
$DIMLWE
 70
-2
  9
$DIMTMOVE
 70
0
  9
$DIMFXL
 40
1.0
  9
$DIMFXLON
 70
0
  9
$DIMJOGANG
 40
0.785398163397
  9
$DIMTFILL
 70
0
  9
$DIMTFILLCLR
 70
0
  9
$DIMARCSYM
 70
0
  9
$DIMLTYPE
  6

  9
$DIMLTEX1
  6

  9
$DIMLTEX2
  6

  9
$DIMTXTDIRECTION
 70
0
  9
$LUNITS
 70
2
  9
$LUPREC
 70
4
  9
$SKETCHINC
 40
1.0
  9
$FILLETRAD
 40
10.0
  9
$AUNITS
 70
0
  9
$AUPREC
 70
2
  9
$MENU
  1
.
  9
$ELEVATION
 40
0.0
  9
$PELEVATION
 40
0.0
  9
$THICKNESS
 40
0.0
  9
$LIMCHECK
 70
0
  9
$CHAMFERA
 40
0.0
  9
$CHAMFERB
 40
0.0
  9
$CHAMFERC
 40
0.0
  9
$CHAMFERD
 40
0.0
  9
$SKPOLY
 70
0
  9
$TDCREATE
 40
2459744.4208564814
  9
$TDUCREATE
 40
2458532.153996898
  9
$TDUPDATE
 40
2459744.4208564814
  9
$TDUUPDATE
 40
2458532.1544311
  9
$TDINDWG
 40
0.0
  9
$TDUSRTIMER
 40
0.0
  9
$USRTIMER
 70
1
  9
$ANGBASE
 50
0.0
  9
$ANGDIR
 70
0
  9
$PDMODE
 70
0
  9
$PDSIZE
 40
0.0
  9
$PLINEWID
 40
0.0
  9
$SPLFRAME
 70
0
  9
$SPLINETYPE
 70
6
  9
$SPLINESEGS
 70
8
  9
$HANDSEED
  5
EC
  9
$SURFTAB1
 70
6
  9
$SURFTAB2
 70
6
  9
$SURFTYPE
 70
6
  9
$SURFU
 70
6
  9
$SURFV
 70
6
  9
$UCSBASE
  2

  9
$UCSNAME
  2

  9
$UCSORG
 10
0.0
 20
0.0
 30
0.0
  9
$UCSXDIR
 10
1.0
 20
0.0
 30
0.0
  9
$UCSYDIR
 10
0.0
 20
1.0
 30
0.0
  9
$UCSORTHOREF
  2

  9
$UCSORTHOVIEW
 70
0
  9
$UCSORGTOP
 10
0.0
 20
0.0
 30
0.0
  9
$UCSORGBOTTOM
 10
0.0
 20
0.0
 30
0.0
  9
$UCSORGLEFT
 10
0.0
 20
0.0
 30
0.0
  9
$UCSORGRIGHT
 10
0.0
 20
0.0
 30
0.0
  9
$UCSORGFRONT
 10
0.0
 20
0.0
 30
0.0
  9
$UCSORGBACK
 10
0.0
 20
0.0
 30
0.0
  9
$PUCSBASE
  2

  9
$PUCSNAME
  2

  9
$PUCSORG
 10
0.0
 20
0.0
 30
0.0
  9
$PUCSXDIR
 10
1.0
 20
0.0
 30
0.0
  9
$PUCSYDIR
 10
0.0
 20
1.0
 30
0.0
  9
$PUCSORTHOREF
  2

  9
$PUCSORTHOVIEW
 70
0
  9
$PUCSORGTOP
 10
0.0
 20
0.0
 30
0.0
  9
$PUCSORGBOTTOM
 10
0.0
 20
0.0
 30
0.0
  9
$PUCSORGLEFT
 10
0.0
 20
0.0
 30
0.0
  9
$PUCSORGRIGHT
 10
0.0
 20
0.0
 30
0.0
  9
$PUCSORGFRONT
 10
0.0
 20
0.0
 30
0.0
  9
$PUCSORGBACK
 10
0.0
 20
0.0
 30
0.0
  9
$USERI1
 70
0
  9
$USERI2
 70
0
  9
$USERI3
 70
0
  9
$USERI4
 70
0
  9
$USERI5
 70
0
  9
$USERR1
 40
0.0
  9
$USERR2
 40
0.0
  9
$USERR3
 40
0.0
  9
$USERR4
 40
0.0
  9
$USERR5
 40
0.0
  9
$WORLDVIEW
 70
1
  9
$SHADEDGE
 70
3
  9
$SHADEDIF
 70
70
  9
$TILEMODE
 70
1
  9
$MAXACTVP
 70
64
  9
$PINSBASE
 10
0.0
 20
0.0
 30
0.0
  9
$PLIMCHECK
 70
0
  9
$PEXTMIN
 10
1e+20
 20
1e+20
 30
1e+20
  9
$PEXTMAX
 10
-1e+20
 20
-1e+20
 30
-1e+20
  9
$PLIMMIN
 10
0.0
 20
0.0
  9
$PLIMMAX
 10
420.0
 20
297.0
  9
$UNITMODE
 70
0
  9
$VISRETAIN
 70
1
  9
$PLINEGEN
 70
0
  9
$PSLTSCALE
 70
1
  9
$TREEDEPTH
 70
3020
  9
$CMLSTYLE
  2
Standard
  9
$CMLJUST
 70
0
  9
$CMLSCALE
 40
20.0
  9
$PROXYGRAPHICS
 70
1
  9
$MEASUREMENT
 70
1
  9
$CELWEIGHT
370
-1
  9
$ENDCAPS
280
0
  9
$JOINSTYLE
280
0
  9
$LWDISPLAY
290
0
  9
$INSUNITS
 70
6
  9
$HYPERLINKBASE
  1

  9
$STYLESHEET
  1

  9
$XEDIT
290
1
  9
$CEPSNTYPE
380
0
  9
$PSTYLEMODE
290
1
  9
$FINGERPRINTGUID
  2
AAF5BCD4-EAEF-11EC-9991-088FC3043410
  9
$VERSIONGUID
  2
AAF6A730-EAEF-11EC-9BF0-088FC3043410
  9
$EXTNAMES
290
1
  9
$PSVPSCALE
 40
0.0
  9
$OLESTARTUP
290
0
  9
$SORTENTS
280
127
  9
$INDEXCTL
280
0
  9
$HIDETEXT
280
1
  9
$XCLIPFRAME
280
2
  9
$HALOGAP
280
0
  9
$OBSCOLOR
 70
257
  9
$OBSLTYPE
280
0
  9
$INTERSECTIONDISPLAY
280
0
  9
$INTERSECTIONCOLOR
 70
257
  9
$DIMASSOC
280
2
  9
$PROJECTNAME
  1

  9
$CAMERADISPLAY
290
0
  9
$LENSLENGTH
 40
50.0
  9
$CAMERAHEIGHT
 40
0.0
  9
$STEPSPERSEC
 40
24.0
  9
$STEPSIZE
 40
100.0
  9
$3DDWFPREC
 40
2.0
  9
$PSOLWIDTH
 40
0.005
  9
$PSOLHEIGHT
 40
0.08
  9
$LOFTANG1
 40
1.570796326795
  9
$LOFTANG2
 40
1.570796326795
  9
$LOFTMAG1
 40
0.0
  9
$LOFTMAG2
 40
0.0
  9
$LOFTPARAM
 70
7
  9
$LOFTNORMALS
280
1
  9
$LATITUDE
 40
37.795
  9
$LONGITUDE
 40
-122.394
  9
$NORTHDIRECTION
 40
0.0
  9
$TIMEZONE
 70
-8000
  9
$LIGHTGLYPHDISPLAY
280
1
  9
$TILEMODELIGHTSYNCH
280
1
  9
$CMATERIAL
347
20
  9
$SOLIDHIST
280
0
  9
$SHOWHIST
280
1
  9
$DWFFRAME
280
2
  9
$DGNFRAME
280
2
  9
$REALWORLDSCALE
290
1
  9
$INTERFERECOLOR
 62
256
  9
$CSHADOW
280
0
  9
$SHADOWPLANELOCATION
 40
0.0
  0
ENDSEC
  0
SECTION
  2
CLASSES
  0
CLASS
  1
ACDBDICTIONARYWDFLT
  2
AcDbDictionaryWithDefault
  3
ObjectDBX Classes
 90
0
 91
0
280
0
281
0
  0
CLASS
  1
SUN
  2
AcDbSun
  3
SCENEOE
 90
1153
 91
0
280
0
281
0
  0
CLASS
  1
VISUALSTYLE
  2
AcDbVisualStyle
  3
ObjectDBX Classes
 90
4095
 91
0
280
0
281
0
  0
CLASS
  1
MATERIAL
  2
AcDbMaterial
  3
ObjectDBX Classes
 90
1153
 91
0
280
0
281
0
  0
CLASS
  1
SCALE
  2
AcDbScale
  3
ObjectDBX Classes
 90
1153
 91
0
280
0
281
0
  0
CLASS
  1
TABLESTYLE
  2
AcDbTableStyle
  3
ObjectDBX Classes
 90
4095
 91
0
280
0
281
0
  0
CLASS
  1
MLEADERSTYLE
  2
AcDbMLeaderStyle
  3
ACDB_MLEADERSTYLE_CLASS
 90
4095
 91
0
280
0
281
0
  0
CLASS
  1
DICTIONARYVAR
  2
AcDbDictionaryVar
  3
ObjectDBX Classes
 90
0
 91
0
280
0
281
0
  0
CLASS
  1
CELLSTYLEMAP
  2
AcDbCellStyleMap
  3
ObjectDBX Classes
 90
1152
 91
0
280
0
281
0
  0
CLASS
  1
MENTALRAYRENDERSETTINGS
  2
AcDbMentalRayRenderSettings
  3
SCENEOE
 90
1024
 91
0
280
0
281
0
  0
CLASS
  1
ACDBDETAILVIEWSTYLE
  2
AcDbDetailViewStyle
  3
ObjectDBX Classes
 90
1025
 91
0
280
0
281
0
  0
CLASS
  1
ACDBSECTIONVIEWSTYLE
  2
AcDbSectionViewStyle
  3
ObjectDBX Classes
 90
1025
 91
0
280
0
281
0
  0
CLASS
  1
RASTERVARIABLES
  2
AcDbRasterVariables
  3
ISM
 90
0
 91
0
280
0
281
0
  0
CLASS
  1
ACDBPLACEHOLDER
  2
AcDbPlaceHolder
  3
ObjectDBX Classes
 90
0
 91
0
280
0
281
0
  0
CLASS
  1
LAYOUT
  2
AcDbLayout
  3
ObjectDBX Classes
 90
0
 91
0
280
0
281
0
  0
ENDSEC
  0
SECTION
  2
TABLES
  0
TABLE
  2
VPORT
  5
8
330
0
100
AcDbSymbolTable
 70
1
  0
VPORT
  5
23
330
8
100
AcDbSymbolTableRecord
100
AcDbViewportTableRecord
  2
*Active
 70
0
 10
0.0
 20
0.0
 11
1.0
 21
1.0
 12
70.0
 22
50.0
 13
0.0
 23
0.0
 14
0.5
 24
0.5
 15
0.5
 25
0.5
 16
0.0
 26
0.0
 36
1.0
 17
0.0
 27
0.0
 37
0.0
 40
1.0
 41
1.34
 42
50.0
 43
0.0
 44
0.0
 50
0.0
 51
0.0
 71
0
 72
1000
 73
1
 74
3
 75
0
 76
0
 77
0
 78
0
281
0
 65
0
146
0.0
  0
ENDTAB
  0
TABLE
  2
LTYPE
  5
2
330
0
100
AcDbSymbolTable
 70
3
  0
LTYPE
  5
24
330
2
100
AcDbSymbolTableRecord
100
AcDbLinetypeTableRecord
  2
ByBlock
 70
0
  3

 72
65
 73
0
 40
0.0
  0
LTYPE
  5
25
330
2
100
AcDbSymbolTableRecord
100
AcDbLinetypeTableRecord
  2
ByLayer
 70
0
  3

 72
65
 73
0
 40
0.0
  0
LTYPE
  5
26
330
2
100
AcDbSymbolTableRecord
100
AcDbLinetypeTableRecord
  2
Continuous
 70
0
  3

 72
65
 73
0
 40
0.0
  0
ENDTAB
  0
TABLE
  2
LAYER
  5
1
330
0
100
AcDbSymbolTable
 70
2
  0
LAYER
  5
27
330
1
100
AcDbSymbolTableRecord
100
AcDbLayerTableRecord
  2
0
 70
0
 62
7
  6
Continuous
370
-3
390
13
347
21
  0
LAYER
  5
28
330
1
100
AcDbSymbolTableRecord
100
AcDbLayerTableRecord
  2
Defpoints
 70
0
 62
7
  6
Continuous
290
0
370
-3
390
13
347
21
  0
ENDTAB
  0
TABLE
  2
STYLE
  5
5
330
0
100
AcDbSymbolTable
 70
1
  0
STYLE
  5
29
330
5
100
AcDbSymbolTableRecord
100
AcDbTextStyleTableRecord
  2
Standard
 70
0
 40
0.0
 41
1.0
 50
0.0
 71
0
 42
2.5
  3
txt
  4

  0
ENDTAB
  0
TABLE
  2
VIEW
  5
7
330
0
100
AcDbSymbolTable
 70
0
  0
ENDTAB
  0
TABLE
  2
UCS
  5
6
330
0
100
AcDbSymbolTable
 70
0
  0
ENDTAB
  0
TABLE
  2
APPID
  5
3
330
0
100
AcDbSymbolTable
 70
2
  0
APPID
  5
2A
330
3
100
AcDbSymbolTableRecord
100
AcDbRegAppTableRecord
  2
ACAD
 70
0
  0
APPID
  5
EB
330
3
100
AcDbSymbolTableRecord
100
AcDbRegAppTableRecord
  2
HATCHBACKGROUNDCOLOR
 70
0
  0
ENDTAB
  0
TABLE
  2
DIMSTYLE
  5
4
330
0
100
AcDbSymbolTable
 70
1
100
AcDbDimStyleTable
  0
DIMSTYLE
105
2B
330
4
100
AcDbSymbolTableRecord
100
AcDbDimStyleTableRecord
  2
Standard
 70
0
 40
1.0
 41
2.5
 42
0.625
 43
3.75
 44
1.25
 45
0.0
 46
0.0
 47
0.0
 48
0.0
 49
2.5
140
2.5
141
2.5
142
0.0
143
0.03937007874
144
1.0
145
0.0
146
1.0
147
0.625
148
0.0
 69
0
 70
0
 71
0
 72
0
 73
0
 74
0
 75
0
 76
0
 77
1
 78
8
 79
0
170
0
171
3
172
1
173
0
174
0
175
0
176
0
177
0
178
0
179
0
271
0
272
2
273
2
274
3
275
0
276
0
277
2
278
44
279
0
280
0
281
0
282
0
283
0
284
8
285
0
286
0
288
0
289
3
290
0
371
-2
372
-2
  0
ENDTAB
  0
TABLE
  2
BLOCK_RECORD
  5
9
330
0
100
AcDbSymbolTable
 70
2
  0
BLOCK_RECORD
  5
17
330
9
100
AcDbSymbolTableRecord
100
AcDbBlockTableRecord
  2
*Model_Space
340
1A
 70
0
280
1
281
0
  0
BLOCK_RECORD
  5
1B
330
9
100
AcDbSymbolTableRecord
100
AcDbBlockTableRecord
  2
*Paper_Space
340
1E
 70
0
280
1
281
0
  0
ENDTAB
  0
ENDSEC
  0
SECTION
  2
BLOCKS
  0
BLOCK
  5
18
330
17
100
AcDbEntity
  8
0
100
AcDbBlockBegin
  2
*Model_Space
 70
0
 10
0.0
 20
0.0
 30
0.0
  3
*Model_Space
  1

  0
ENDBLK
  5
19
330
17
100
AcDbEntity
  8
0
100
AcDbBlockEnd
  0
BLOCK
  5
1C
330
1B
100
AcDbEntity
  8
0
100
AcDbBlockBegin
  2
*Paper_Space
 70
0
 10
0.0
 20
0.0
 30
0.0
  3
*Paper_Space
  1

  0
ENDBLK
  5
1D
330
1B
100
AcDbEntity
  8
0
100
AcDbBlockEnd
  0
ENDSEC
  0
SECTION
  2
ENTITIES
  0
LINE
  5
2D
330
17
100
AcDbEntity
  8
0
100
AcDbLine
 10
-4.118095905300001
 20
-8.326672685e-17
 30
-3.141592653589793
 11
-1.650879217700001
 21
-6.661338148e-16
 31
-3.1415926535897927
  0
LINE
  5
2E
330
17
100
AcDbEntity
  8
0
100
AcDbLine
 10
-1.650879217700001
 20
-6.661338148e-16
 30
-3.1415926535897927
 11
-4.102547069600001
 21
-0.04693754994
 31
-3.130152077457233
  0
LINE
  5
2F
330
17
100
AcDbEntity
  8
0
100
AcDbLine
 10
-4.102547069600001
 20
-0.04693754994
 30
-3.130152077457233
 11
-4.087372048700001
 21
-0.09274665872
 31
-3.1189055224329056
  0
LINE
  5
30
330
17
100
AcDbEntity
  8
0
100
AcDbLine
 10
-4.087372048700001
 20
-0.09274665872
 30
-3.1189055224329056
 11
-1.622406395700001
 21
-0.04069567191
 31
-3.1165143869934355
  0
LINE
  5
31
330
17
100
AcDbEntity
  8
0
100
AcDbLine
 10
-1.622406395700001
 20
-0.04069567191
 30
-3.1165143869934355
 11
-4.063706858600001
 21
-0.1175476507
 31
-3.1126745041790405
  0
LINE
  5
32
330
17
100
AcDbEntity
  8
0
100
AcDbLine
 10
-4.063706858600001
 20
-0.1175476507
 30
-3.1126745041790405
 11
-1.6095482917000008
 21
-0.05925995498
 31
-3.1047915209433326
  0
LINE
  5
33
330
17
100
AcDbEntity
  8
0
100
AcDbLine
 10
-1.6095482917000008
 20
-0.05925995498
 30
-3.1047915209433326
 11
-4.021833444000001
 21
-0.1614307642
 31
-3.1014755885584835
  0
LINE
  5
34
330
17
100
AcDbEntity
  8
0
100
AcDbLine
 10
-4.021833444000001
 20
-0.1614307642
 30
-3.1014755885584835
 11
-3.997467835900001
 21
-0.1813546444
 31
-3.096256359731882
  0
LINE
  5
35
330
17
100
AcDbEntity
  8
0
100
AcDbLine
 10
-3.997467835900001
 20
-0.1813546444
 30
-3.096256359731882
 11
-3.969976364300001
 21
-0.2038345588
 31
-3.0902936769514278
  0
LINE
  5
36
330
17
100
AcDbEntity
  8
0
100
AcDbLine
 10
-3.969976364300001
 20
-0.2038345588
 30
-3.0902936769514278
 11
-1.542267388700001
 21
-0.08889144215
 31
-3.0840194948327455
  0
LINE
  5
37
330
17
100
AcDbEntity
  8
0
100
AcDbLine
 10
-1.542267388700001
 20
-0.08889144215
 30
-3.0840194948327455
 11
-3.907016322500001
 21
-0.2372963215
 31
-3.0809312275404546
  0
LINE
  5
38
330
17
100
AcDbEntity
  8
0
100
AcDbLine
 10
-3.907016322500001
 20
-0.2372963215
 30
-3.0809312275404546
 11
-3.863647119400001
 21
-0.26034602
 31
-3.074310874150286
  0
LINE
  5
39
330
17
100
AcDbEntity
  8
0
100
AcDbLine
 10
-3.863647119400001
 20
-0.26034602
 30
-3.074310874150286
 11
-1.5117533567000008
 21
-0.1023805709
 31
-3.0739728398939663
  0
LINE
  5
3A
330
17
100
AcDbEntity
  8
0
100
AcDbLine
 10
-1.5117533567000008
 20
-0.1023805709
 30
-3.0739728398939663
 11
-3.792190017500001
 21
-0.2900605428
 31
-3.0652523734090815
  0
LINE
  5
3B
330
17
100
AcDbEntity
  8
0
100
AcDbLine
 10
-3.792190017500001
 20
-0.2900605428
 30
-3.0652523734090815
 11
-1.410315626700001
 21
-0.124244986
 31
-3.0537222188325917
  0
LINE
  5
3C
330
17
100
AcDbEntity
  8
0
100
AcDbLine
 10
-1.410315626700001
 20
-0.124244986
 30
-3.0537222188325917
 11
-3.686653388600001
 21
-0.3339466014
 31
-3.0512566035349167
  0
LINE
  5
3D
330
17
100
AcDbEntity
  8
0
100
AcDbLine
 10
-3.686653388600001
 20
-0.3339466014
 30
-3.0512566035349167
 11
-3.657202020000001
 21
-0.3435249086
 31
-3.047936380406686
  0
LINE
  5
3E
330
17
100
AcDbEntity
  8
0
100
AcDbLine
 10
-3.657202020000001
 20
-0.3435249086
 30
-3.047936380406686
 11
-1.3642274317000012
 21
-0.1339597395
 31
-3.043711863467699
  0
LINE
  5
3F
330
17
100
AcDbEntity
  8
0
100
AcDbLine
 10
-1.3642274317000012
 20
-0.1339597395
 30
-3.043711863467699
 11
-3.542742471000001
 21
-0.3807499605
 31
-3.0345303734692424
  0
LINE
  5
40
330
17
100
AcDbEntity
  8
0
100
AcDbLine
 10
-3.542742471000001
 20
-0.3807499605
 30
-3.0345303734692424
 11
-3.4999952596000012
 21
-0.3918177663
 31
-3.030108741803378
  0
LINE
  5
41
330
17
100
AcDbEntity
  8
0
100
AcDbLine
 10
-3.4999952596000012
 20
-0.3918177663
 30
-3.030108741803378
 11
-3.4904148698000013
 21
-0.3942982531
 31
-3.0291035258468493
  0
LINE
  5
42
330
17
100
AcDbEntity
  8
0
100
AcDbLine
 10
-3.4904148698000013
 20
-0.3942982531
 30
-3.0291035258468493
 11
-1.2231809777000011
 21
-0.1492113458
 31
-3.0202060673382625
  0
LINE
  5
43
330
17
100
AcDbEntity
  8
0
100
AcDbLine
 10
-1.2231809777000011
 20
-0.1492113458
 30
-3.0202060673382625
 11
-3.316460913700001
 21
-0.4294039543
 31
-3.0128324236894493
  0
LINE
  5
44
330
17
100
AcDbEntity
  8
0
100
AcDbLine
 10
-3.316460913700001
 20
-0.4294039543
 30
-3.0128324236894493
 11
-3.274494181700001
 21
-0.4378732734
 31
-3.008658854260043
  0
LINE
  5
45
330
17
100
AcDbEntity
  8
0
100
AcDbLine
 10
-3.274494181700001
 20
-0.4378732734
 30
-3.008658854260043
 11
-1.1591080007000012
 21
-0.1557069421
 31
-3.0080586322432836
  0
LINE
  5
46
330
17
100
AcDbEntity
  8
0
100
AcDbLine
 10
-1.1591080007000012
 20
-0.1557069421
 30
-3.0080586322432836
 11
-3.110626877700001
 21
-0.4634855296
 31
-2.993680176021413
  0
LINE
  5
47
330
17
100
AcDbEntity
  8
0
100
AcDbLine
 10
-3.110626877700001
 20
-0.4634855296
 30
-2.993680176021413
 11
-3.0384539427000012
 21
-0.4747660697
 31
-2.986593456784273
  0
LINE
  5
48
330
17
100
AcDbEntity
  8
0
100
AcDbLine
 10
-3.0384539427000012
 20
-0.4747660697
 30
-2.986593456784273
 11
-0.9729517967000012
 21
-0.1635867742
 31
-2.975016144510562
  0
LINE
  5
49
330
17
100
AcDbEntity
  8
0
100
AcDbLine
 10
-0.9729517967000012
 20
-0.1635867742
 30
-2.975016144510562
 11
-2.882383738700001
 21
-0.4934764647
 31
-2.972032265144287
  0
LINE
  5
4A
330
17
100
AcDbEntity
  8
0
100
AcDbLine
 10
-2.882383738700001
 20
-0.4934764647
 30
-2.972032265144287
 11
-2.781856770700001
 21
-0.5055280878
 31
-2.961831037364038
  0
LINE
  5
4B
330
17
100
AcDbEntity
  8
0
100
AcDbLine
 10
-2.781856770700001
 20
-0.5055280878
 30
-2.961831037364038
 11
-0.888422448700001
 21
-0.1665873113
 31
-2.956235893609798
  0
LINE
  5
4C
330
17
100
AcDbEntity
  8
0
100
AcDbLine
 10
-0.888422448700001
 20
-0.1665873113
 30
-2.956235893609798
 11
-2.6314816597000013
 21
-0.5191698935
 31
-2.9468024319377055
  0
LINE
  5
4D
330
17
100
AcDbEntity
  8
0
100
AcDbLine
 10
-2.6314816597000013
 20
-0.5191698935
 30
-2.9468024319377055
 11
-2.5042652857000007
 21
-0.5307107732
 31
-2.932759640092598
  0
LINE
  5
4E
330
17
100
AcDbEntity
  8
0
100
AcDbLine
 10
-2.5042652857000007
 20
-0.5307107732
 30
-2.932759640092598
 11
-2.357588444700001
 21
-0.5405971043
 31
-2.9161883619008226
  0
LINE
  5
4F
330
17
100
AcDbEntity
  8
0
100
AcDbLine
 10
-2.357588444700001
 20
-0.5405971043
 30
-2.9161883619008226
 11
-2.205242103700001
 21
-0.5508655717
 31
-2.896803901731222
  0
LINE
  5
50
330
17
100
AcDbEntity
  8
0
100
AcDbLine
 10
-2.205242103700001
 20
-0.5508655717
 30
-2.896803901731222
 11
-0.6561316127000012
 21
-0.1664135314
 31
-2.893202066161634
  0
LINE
  5
51
330
17
100
AcDbEntity
  8
0
100
AcDbLine
 10
-0.6561316127000012
 20
-0.1664135314
 30
-2.893202066161634
 11
-2.060326507700001
 21
-0.5579459497
 31
-2.8771310166086708
  0
LINE
  5
52
330
17
100
AcDbEntity
  8
0
100
AcDbLine
 10
-2.060326507700001
 20
-0.5579459497
 30
-2.8771310166086708
 11
-1.884349845700001
 21
-0.5665439289
 31
-2.8495327499337826
  0
LINE
  5
53
330
17
100
AcDbEntity
  8
0
100
AcDbLine
 10
-1.884349845700001
 20
-0.5665439289
 30
-2.8495327499337826
 11
-0.5506874677000009
 21
-0.1657487184
 31
-2.8492323497430325
  0
LINE
  5
54
330
17
100
AcDbEntity
  8
0
100
AcDbLine
 10
-0.5506874677000009
 20
-0.1657487184
 30
-2.8492323497430325
 11
-1.739299333700001
 21
-0.571511404
 31
-2.824119732525846
  0
LINE
  5
55
330
17
100
AcDbEntity
  8
0
100
AcDbLine
 10
-1.739299333700001
 20
-0.571511404
 30
-2.824119732525846
 11
-1.541151128700001
 21
-0.5782972904
 31
-2.7826140114710056
  0
LINE
  5
56
330
17
100
AcDbEntity
  8
0
100
AcDbLine
 10
-1.541151128700001
 20
-0.5782972904
 30
-2.7826140114710056
 11
-1.394112878700001
 21
-0.5816643567
 31
-2.746322460601361
  0
LINE
  5
57
330
17
100
AcDbEntity
  8
0
100
AcDbLine
 10
-1.394112878700001
 20
-0.5816643567
 30
-2.746322460601361
 11
-1.1752085717000011
 21
-0.586677102
 31
-2.6785764058251855
  0
LINE
  5
58
330
17
100
AcDbEntity
  8
0
100
AcDbLine
 10
-1.1752085717000011
 20
-0.586677102
 30
-2.6785764058251855
 11
-0.27927205870000105
 21
-0.1583617339
 31
-2.6257521440276297
  0
LINE
  5
59
330
17
100
AcDbEntity
  8
0
100
AcDbLine
 10
-0.27927205870000105
 20
-0.1583617339
 30
-2.6257521440276297
 11
-1.024394855700001
 21
-0.5888311171
 31
-2.619902122009846
  0
LINE
  5
5A
330
17
100
AcDbEntity
  8
0
100
AcDbLine
 10
-1.024394855700001
 20
-0.5888311171
 30
-2.619902122009846
 11
-0.786084792700001
 21
-0.5922348093
 31
-2.4959202894326884
  0
LINE
  5
5B
330
17
100
AcDbEntity
  8
0
100
AcDbLine
 10
-0.786084792700001
 20
-0.5922348093
 30
-2.4959202894326884
 11
-0.629813388700001
 21
-0.5934793428
 31
-2.3858876012465267
  0
LINE
  5
5C
330
17
100
AcDbEntity
  8
0
100
AcDbLine
 10
-0.629813388700001
 20
-0.5934793428
 30
-2.3858876012465267
 11
-0.15608318170000057
 21
-0.1546212642
 31
-2.360899626314953
  0
LINE
  5
5D
330
17
100
AcDbEntity
  8
0
100
AcDbLine
 10
-0.15608318170000057
 20
-0.1546212642
 30
-2.360899626314953
 11
-0.3733424107000012
 21
-0.595521858
 31
-2.1307725303200837
  0
LINE
  5
5E
330
17
100
AcDbEntity
  8
0
100
AcDbLine
 10
-0.3733424107000012
 20
-0.595521858
 30
-2.1307725303200837
 11
-0.21009556070000102
 21
-0.5961078131
 31
-1.9096481682685549
  0
LINE
  5
5F
330
17
100
AcDbEntity
  8
0
100
AcDbLine
 10
-0.21009556070000102
 20
-0.5961078131
 30
-1.9096481682685549
 11
0.06345595729999864
 21
-0.5970896937
 31
-1.464918326194312
  0
LINE
  5
60
330
17
100
AcDbEntity
  8
0
100
AcDbLine
 10
0.06345595729999864
 20
-0.5970896937
 30
-1.464918326194312
 11
0.2349544292999992
 21
-0.5972384307
 31
-1.1959913170112346
  0
LINE
  5
61
330
17
100
AcDbEntity
  8
0
100
AcDbLine
 10
0.2349544292999992
 20
-0.5972384307
 30
-1.1959913170112346
 11
0.524747690299999
 21
-0.5974897621
 31
-0.8501264016307128
  0
LINE
  5
62
330
17
100
AcDbEntity
  8
0
100
AcDbLine
 10
0.524747690299999
 20
-0.5974897621
 30
-0.8501264016307128
 11
0.13806145329999886
 21
-0.1415545492
 31
-0.7978899885172166
  0
LINE
  5
63
330
17
100
AcDbEntity
  8
0
100
AcDbLine
 10
0.13806145329999886
 20
-0.1415545492
 30
-0.7978899885172166
 11
0.5916197192999988
 21
-0.5959124787
 31
-0.7890130049228168
  0
LINE
  5
64
330
17
100
AcDbEntity
  8
0
100
AcDbLine
 10
0.5916197192999988
 20
-0.5959124787
 30
-0.7890130049228168
 11
0.7026161842999992
 21
-0.59329445
 31
-0.7012384182380956
  0
LINE
  5
65
330
17
100
AcDbEntity
  8
0
100
AcDbLine
 10
0.7026161842999992
 20
-0.59329445
 30
-0.7012384182380956
 11
0.7871645482999989
 21
-0.5885234571
 31
-0.6419953158066416
  0
LINE
  5
66
330
17
100
AcDbEntity
  8
0
100
AcDbLine
 10
0.7871645482999989
 20
-0.5885234571
 30
-0.6419953158066416
 11
0.9172247272999989
 21
-0.5811842707
 31
-0.5647835654603685
  0
LINE
  5
67
330
17
100
AcDbEntity
  8
0
100
AcDbLine
 10
0.9172247272999989
 20
-0.5811842707
 30
-0.5647835654603685
 11
1.023297734299999
 21
-0.5728755132
 31
-0.510360937804554
  0
LINE
  5
68
330
17
100
AcDbEntity
  8
0
100
AcDbLine
 10
1.023297734299999
 20
-0.5728755132
 30
-0.510360937804554
 11
0.27157080729999894
 21
-0.135529041
 31
-0.46289212443959654
  0
LINE
  5
69
330
17
100
AcDbEntity
  8
0
100
AcDbLine
 10
0.27157080729999894
 20
-0.135529041
 30
-0.46289212443959654
 11
1.163762124299999
 21
-0.5618728597
 31
-0.4497990983131193
  0
LINE
  5
6A
330
17
100
AcDbEntity
  8
0
100
AcDbLine
 10
1.163762124299999
 20
-0.5618728597
 30
-0.4497990983131193
 11
1.2968735682999988
 21
-0.5493236922
 31
-0.4006633483480631
  0
LINE
  5
6B
330
17
100
AcDbEntity
  8
0
100
AcDbLine
 10
1.2968735682999988
 20
-0.5493236922
 30
-0.4006633483480631
 11
1.4374171752999994
 21
-0.5360738526
 31
-0.3569655531261231
  0
LINE
  5
6C
330
17
100
AcDbEntity
  8
0
100
AcDbLine
 10
1.4374171752999994
 20
-0.5360738526
 30
-0.3569655531261231
 11
1.6047173402999988
 21
-0.5182263878
 31
-0.31236699148813746
  0
LINE
  5
6D
330
17
100
AcDbEntity
  8
0
100
AcDbLine
 10
1.6047173402999988
 20
-0.5182263878
 30
-0.31236699148813746
 11
0.4049880732999993
 21
-0.127707892
 31
-0.30546775178832153
  0
LINE
  5
6E
330
17
100
AcDbEntity
  8
0
100
AcDbLine
 10
0.4049880732999993
 20
-0.127707892
 30
-0.30546775178832153
 11
1.7333786862999991
 21
-0.5045008851
 31
-0.2832262367176334
  0
LINE
  5
6F
330
17
100
AcDbEntity
  8
0
100
AcDbLine
 10
1.7333786862999991
 20
-0.5045008851
 30
-0.2832262367176334
 11
1.9437595802999992
 21
-0.4799139387
 31
-0.2420587483606986
  0
LINE
  5
70
330
17
100
AcDbEntity
  8
0
100
AcDbLine
 10
1.9437595802999992
 20
-0.4799139387
 30
-0.2420587483606986
 11
2.0468354582999986
 21
-0.4678675926
 31
-0.22472021663510905
  0
LINE
  5
71
330
17
100
AcDbEntity
  8
0
100
AcDbLine
 10
2.0468354582999986
 20
-0.4678675926
 30
-0.22472021663510905
 11
2.3111926992999994
 21
-0.4346507925
 31
-0.18589217486540202
  0
LINE
  5
72
330
17
100
AcDbEntity
  8
0
100
AcDbLine
 10
2.3111926992999994
 20
-0.4346507925
 30
-0.18589217486540202
 11
2.372976295299999
 21
-0.4268876107
 31
-0.1779916561567294
  0
LINE
  5
73
330
17
100
AcDbEntity
  8
0
100
AcDbLine
 10
2.372976295299999
 20
-0.4268876107
 30
-0.1779916561567294
 11
0.6989098392999988
 21
-0.1102918241
 31
-0.1565148199756016
  0
LINE
  5
74
330
17
100
AcDbEntity
  8
0
100
AcDbLine
 10
0.6989098392999988
 20
-0.1102918241
 30
-0.1565148199756016
 11
2.704684326299999
 21
-0.3825825357
 31
-0.140519573578042
  0
LINE
  5
75
330
17
100
AcDbEntity
  8
0
100
AcDbLine
 10
2.704684326299999
 20
-0.3825825357
 30
-0.140519573578042
 11
2.7069899992999993
 21
-0.382274575
 31
-0.14028991484011755
  0
LINE
  5
76
330
17
100
AcDbEntity
  8
0
100
AcDbLine
 10
2.7069899992999993
 20
-0.382274575
 30
-0.14028991484011755
 11
2.7178017702999986
 21
-0.3807499605
 31
-0.13918894138396382
  0
LINE
  5
77
330
17
100
AcDbEntity
  8
0
100
AcDbLine
 10
2.7178017702999986
 20
-0.3807499605
 30
-0.13918894138396382
 11
0.8218946522999993
 21
-0.1022589864
 31
-0.12378250354648204
  0
LINE
  5
78
330
17
100
AcDbEntity
  8
0
100
AcDbLine
 10
0.8218946522999993
 20
-0.1022589864
 30
-0.12378250354648204
 11
3.044065375299999
 21
-0.3229588047
 31
-0.10569916735257986
  0
LINE
  5
79
330
17
100
AcDbEntity
  8
0
100
AcDbLine
 10
3.044065375299999
 20
-0.3229588047
 30
-0.10569916735257986
 11
3.1873870662999986
 21
-0.296255512
 31
-0.09267992373621789
  0
LINE
  5
7A
330
17
100
AcDbEntity
  8
0
100
AcDbLine
 10
3.1873870662999986
 20
-0.296255512
 30
-0.09267992373621789
 11
3.379391224299999
 21
-0.2604818395
 31
-0.07692740812461737
  0
LINE
  5
7B
330
17
100
AcDbEntity
  8
0
100
AcDbLine
 10
3.379391224299999
 20
-0.2604818395
 30
-0.07692740812461737
 11
1.0928035172999992
 21
-0.08399739012
 31
-0.07671328946629999
  0
LINE
  5
7C
330
17
100
AcDbEntity
  8
0
100
AcDbLine
 10
1.0928035172999992
 20
-0.08399739012
 30
-0.07671328946629999
 11
1.1980098932999992
 21
-0.07682483586
 31
-0.06403935977509548
  0
LINE
  5
7D
330
17
100
AcDbEntity
  8
0
100
AcDbLine
 10
1.1980098932999992
 20
-0.07682483586
 30
-0.06403935977509548
 11
3.6687973102999996
 21
-0.2038345588
 31
-0.05550189807003442
  0
LINE
  5
7E
330
17
100
AcDbEntity
  8
0
100
AcDbLine
 10
3.6687973102999996
 20
-0.2038345588
 30
-0.05550189807003442
 11
3.7081563502999986
 21
-0.1919815458
 31
-0.05172659203341977
  0
LINE
  5
7F
330
17
100
AcDbEntity
  8
0
100
AcDbLine
 10
3.7081563502999986
 20
-0.1919815458
 30
-0.05172659203341977
 11
1.4297280702999986
 21
-0.06021766579
 31
-0.04209338630026895
  0
LINE
  5
80
330
17
100
AcDbEntity
  8
0
100
AcDbLine
 10
1.4297280702999986
 20
-0.06021766579
 30
-0.04209338630026895
 11
1.5141164622999987
 21
-0.05435381805
 31
-0.03588263479268437
  0
LINE
  5
81
330
17
100
AcDbEntity
  8
0
100
AcDbLine
 10
1.5141164622999987
 20
-0.05435381805
 30
-0.03588263479268437
 11
1.6999612282999994
 21
-0.04056854835
 31
-0.023859867457750674
  0
LINE
  5
82
330
17
100
AcDbEntity
  8
0
100
AcDbLine
 10
1.6999612282999994
 20
-0.04056854835
 30
-0.023859867457750674
 11
4.0215152092999995
 21
-0.09274665872
 31
-0.02305852785440577
  0
LINE
  5
83
330
17
100
AcDbEntity
  8
0
100
AcDbLine
 10
4.0215152092999995
 20
-0.09274665872
 30
-0.02305852785440577
 11
4.025549556299999
 21
-0.08906656287
 31
-0.02212170843170116
  0
LINE
  5
84
330
17
100
AcDbEntity
  8
0
100
AcDbLine
 10
4.025549556299999
 20
-0.08906656287
 30
-0.02212170843170116
 11
1.764221105299999
 21
-0.03605002987
 31
-0.02043112027889971
  0
LINE
  5
85
330
17
100
AcDbEntity
  8
0
100
AcDbLine
 10
1.764221105299999
 20
-0.03605002987
 30
-0.02043112027889971
 11
1.9057237472999988
 21
-0.02530234615
 31
-0.013276247190512987
  0
LINE
  5
86
330
17
100
AcDbEntity
  8
0
100
AcDbLine
 10
1.9057237472999988
 20
-0.02530234615
 30
-0.013276247190512987
 11
1.9527439402999986
 21
-0.02195993378
 31
-0.01124520612953299
  0
LINE
  5
87
330
17
100
AcDbEntity
  8
0
100
AcDbLine
 10
1.9527439402999986
 20
-0.02195993378
 30
-0.01124520612953299
 11
2.056275931299999
 21
-0.01394339717
 31
-0.006780793985465056
  0
LINE
  5
88
330
17
100
AcDbEntity
  8
0
100
AcDbLine
 10
2.056275931299999
 20
-0.01394339717
 30
-0.006780793985465056
 11
2.0896872042999988
 21
-0.01154433667
 31
-0.005524376665789625
  0
LINE
  5
89
330
17
100
AcDbEntity
  8
0
100
AcDbLine
 10
2.0896872042999988
 20
-0.01154433667
 30
-0.005524376665789625
 11
2.163249755299999
 21
-0.005757962236
 31
-0.00266171237234644
  0
LINE
  5
8A
330
17
100
AcDbEntity
  8
0
100
AcDbLine
 10
2.163249755299999
 20
-0.005757962236
 30
-0.00266171237234644
 11
2.186499391299999
 21
-0.004074834358
 31
-0.0018636317287556673
  0
LINE
  5
8B
330
17
100
AcDbEntity
  8
0
100
AcDbLine
 10
2.186499391299999
 20
-0.004074834358
 30
-0.0018636317287556673
 11
2.2376864962999994
 21
-1.33226763e-15
 31
-5.953772488697126e-16
  0
LINE
  5
8C
330
17
100
AcDbEntity
  8
0
100
AcDbLine
 10
2.2376864962999994
 20
-1.33226763e-15
 30
-5.953772488697126e-16
 11
4.1180959053
 21
-1.776356839e-15
 31
-4.31353926632409e-16
  0
LINE
  5
8D
330
17
100
AcDbEntity
  8
0
100
AcDbLine
 10
4.1180959053
 20
-1.776356839e-15
 30
-4.31353926632409e-16
 11
2.1866658262999987
 21
0.009745737936
 31
0.004456864551539496
  0
LINE
  5
8E
330
17
100
AcDbEntity
  8
0
100
AcDbLine
 10
2.1866658262999987
 20
0.009745737936
 30
0.004456864551539496
 11
2.163506860299999
 21
0.01451825927
 31
0.006710420760804268
  0
LINE
  5
8F
330
17
100
AcDbEntity
  8
0
100
AcDbLine
 10
2.163506860299999
 20
0.01451825927
 30
0.006710420760804268
 11
2.090113230299999
 21
0.02813045361
 31
0.013458005466904847
  0
LINE
  5
90
330
17
100
AcDbEntity
  8
0
100
AcDbLine
 10
2.090113230299999
 20
0.02813045361
 30
0.013458005466904847
 11
2.0567939802999993
 21
0.03479286235
 31
0.01691445256823563
  0
LINE
  5
91
330
17
100
AcDbEntity
  8
0
100
AcDbLine
 10
2.0567939802999993
 20
0.03479286235
 30
0.01691445256823563
 11
4.025549556299999
 21
0.08906656287
 31
0.02212170843170116
  0
LINE
  5
92
330
17
100
AcDbEntity
  8
0
100
AcDbLine
 10
4.025549556299999
 20
0.08906656287
 30
0.02212170843170116
 11
4.0215152092999995
 21
0.09274665872
 31
0.02305852785440577
  0
LINE
  5
93
330
17
100
AcDbEntity
  8
0
100
AcDbLine
 10
4.0215152092999995
 20
0.09274665872
 30
0.02305852785440577
 11
1.9533656082999986
 21
0.05317616365
 31
0.02721612035959741
  0
LINE
  5
94
330
17
100
AcDbEntity
  8
0
100
AcDbLine
 10
1.9533656082999986
 20
0.05317616365
 30
0.02721612035959741
 11
1.9064018632999993
 21
0.06216617955
 31
0.03259761744304481
  0
LINE
  5
95
330
17
100
AcDbEntity
  8
0
100
AcDbLine
 10
1.9064018632999993
 20
0.06216617955
 30
0.03259761744304481
 11
1.7648037202999989
 21
0.08585861164
 31
0.048612187228969046
  0
LINE
  5
96
330
17
100
AcDbEntity
  8
0
100
AcDbLine
 10
1.7648037202999989
 20
0.08585861164
 30
0.048612187228969046
 11
3.7081563502999986
 21
0.1919815458
 31
0.05172659203341977
  0
LINE
  5
97
330
17
100
AcDbEntity
  8
0
100
AcDbLine
 10
3.7081563502999986
 20
0.1919815458
 30
0.05172659203341977
 11
3.6687973102999996
 21
0.2038345588
 31
0.05550189807003442
  0
LINE
  5
98
330
17
100
AcDbEntity
  8
0
100
AcDbLine
 10
3.6687973102999996
 20
0.2038345588
 30
0.05550189807003442
 11
1.7004918172999988
 21
0.09742916696
 31
0.057232128836516925
  0
LINE
  5
99
330
17
100
AcDbEntity
  8
0
100
AcDbLine
 10
1.7004918172999988
 20
0.09742916696
 30
0.057232128836516925
 11
3.379391224299999
 21
0.2604818395
 31
0.07692740812461737
  0
LINE
  5
9A
330
17
100
AcDbEntity
  8
0
100
AcDbLine
 10
3.379391224299999
 20
0.2604818395
 30
0.07692740812461737
 11
1.5141396032999994
 21
0.1260667229
 31
0.0830680493686859
  0
LINE
  5
9B
330
17
100
AcDbEntity
  8
0
100
AcDbLine
 10
1.5141396032999994
 20
0.1260667229
 30
0.0830680493686859
 11
3.1873870662999986
 21
0.296255512
 31
0.09267992373621789
  0
LINE
  5
9C
330
17
100
AcDbEntity
  8
0
100
AcDbLine
 10
3.1873870662999986
 20
0.296255512
 30
0.09267992373621789
 11
1.4294747632999991
 21
0.1400217955
 31
0.09764182633489076
  0
LINE
  5
9D
330
17
100
AcDbEntity
  8
0
100
AcDbLine
 10
1.4294747632999991
 20
0.1400217955
 30
0.09764182633489076
 11
3.044065375299999
 21
0.3229588047
 31
0.10569916735257986
  0
LINE
  5
9E
330
17
100
AcDbEntity
  8
0
100
AcDbLine
 10
3.044065375299999
 20
0.3229588047
 30
0.10569916735257986
 11
2.7178017702999986
 21
0.3807499605
 31
0.13918894138396382
  0
LINE
  5
9F
330
17
100
AcDbEntity
  8
0
100
AcDbLine
 10
2.7178017702999986
 20
0.3807499605
 30
0.13918894138396382
 11
2.7069899992999993
 21
0.382274575
 31
0.14028991484011755
  0
LINE
  5
A0
330
17
100
AcDbEntity
  8
0
100
AcDbLine
 10
2.7069899992999993
 20
0.382274575
 30
0.14028991484011755
 11
2.704684326299999
 21
0.3825825357
 31
0.140519573578042
  0
LINE
  5
A1
330
17
100
AcDbEntity
  8
0
100
AcDbLine
 10
2.704684326299999
 20
0.3825825357
 30
0.140519573578042
 11
1.1965728682999988
 21
0.1717243221
 31
0.14254019410577434
  0
LINE
  5
A2
330
17
100
AcDbEntity
  8
0
100
AcDbLine
 10
1.1965728682999988
 20
0.1717243221
 30
0.14254019410577434
 11
1.0907216262999988
 21
0.1871205211
 31
0.16990266918328162
  0
LINE
  5
A3
330
17
100
AcDbEntity
  8
0
100
AcDbLine
 10
1.0907216262999988
 20
0.1871205211
 30
0.16990266918328162
 11
2.372976295299999
 21
0.4268876107
 31
0.1779916561567294
  0
LINE
  5
A4
330
17
100
AcDbEntity
  8
0
100
AcDbLine
 10
2.372976295299999
 20
0.4268876107
 30
0.1779916561567294
 11
2.3111926992999994
 21
0.4346507925
 31
0.18589217486540202
  0
LINE
  5
A5
330
17
100
AcDbEntity
  8
0
100
AcDbLine
 10
2.3111926992999994
 20
0.4346507925
 30
0.18589217486540202
 11
2.0468354582999986
 21
0.4678675926
 31
0.22472021663510905
  0
LINE
  5
A6
330
17
100
AcDbEntity
  8
0
100
AcDbLine
 10
2.0468354582999986
 20
0.4678675926
 30
0.22472021663510905
 11
1.9437595802999992
 21
0.4799139387
 31
0.2420587483606986
  0
LINE
  5
A7
330
17
100
AcDbEntity
  8
0
100
AcDbLine
 10
1.9437595802999992
 20
0.4799139387
 30
0.2420587483606986
 11
0.8177464912999994
 21
0.2181979332
 31
0.26075331909567084
  0
LINE
  5
A8
330
17
100
AcDbEntity
  8
0
100
AcDbLine
 10
0.8177464912999994
 20
0.2181979332
 30
0.26075331909567084
 11
1.7333786862999991
 21
0.5045008851
 31
0.2832262367176334
  0
LINE
  5
A9
330
17
100
AcDbEntity
  8
0
100
AcDbLine
 10
1.7333786862999991
 20
0.5045008851
 30
0.2832262367176334
 11
1.6047173402999988
 21
0.5182263878
 31
0.31236699148813746
  0
LINE
  5
AA
330
17
100
AcDbEntity
  8
0
100
AcDbLine
 10
1.6047173402999988
 20
0.5182263878
 30
0.31236699148813746
 11
0.6936360162999993
 21
0.233212568
 31
0.32434405544403155
  0
LINE
  5
AB
330
17
100
AcDbEntity
  8
0
100
AcDbLine
 10
0.6936360162999993
 20
0.233212568
 30
0.32434405544403155
 11
1.4374171752999994
 21
0.5360738526
 31
0.3569655531261231
  0
LINE
  5
AC
330
17
100
AcDbEntity
  8
0
100
AcDbLine
 10
1.4374171752999994
 20
0.5360738526
 30
0.3569655531261231
 11
1.2968735682999988
 21
0.5493236922
 31
0.4006633483480631
  0
LINE
  5
AD
330
17
100
AcDbEntity
  8
0
100
AcDbLine
 10
1.2968735682999988
 20
0.5493236922
 30
0.4006633483480631
 11
1.163762124299999
 21
0.5618728597
 31
0.4497990983131193
  0
LINE
  5
AE
330
17
100
AcDbEntity
  8
0
100
AcDbLine
 10
1.163762124299999
 20
0.5618728597
 30
0.4497990983131193
 11
1.023297734299999
 21
0.5728755132
 31
0.510360937804554
  0
LINE
  5
AF
330
17
100
AcDbEntity
  8
0
100
AcDbLine
 10
1.023297734299999
 20
0.5728755132
 30
0.510360937804554
 11
0.9172247272999989
 21
0.5811842707
 31
0.5647835654603685
  0
LINE
  5
B0
330
17
100
AcDbEntity
  8
0
100
AcDbLine
 10
0.9172247272999989
 20
0.5811842707
 30
0.5647835654603685
 11
0.3967823332999991
 21
0.2586197045
 31
0.577634215433388
  0
LINE
  5
B1
330
17
100
AcDbEntity
  8
0
100
AcDbLine
 10
0.3967823332999991
 20
0.2586197045
 30
0.577634215433388
 11
0.7871645482999989
 21
0.5885234571
 31
0.6419953158066416
  0
LINE
  5
B2
330
17
100
AcDbEntity
  8
0
100
AcDbLine
 10
0.7871645482999989
 20
0.5885234571
 30
0.6419953158066416
 11
0.7026161842999992
 21
0.59329445
 31
0.7012384182380956
  0
LINE
  5
B3
330
17
100
AcDbEntity
  8
0
100
AcDbLine
 10
0.7026161842999992
 20
0.59329445
 30
0.7012384182380956
 11
0.5916197192999988
 21
0.5959124787
 31
0.7890130049228168
  0
LINE
  5
B4
330
17
100
AcDbEntity
  8
0
100
AcDbLine
 10
0.5916197192999988
 20
0.5959124787
 30
0.7890130049228168
 11
0.2617678182999992
 21
0.270794226
 31
0.8023455662558352
  0
LINE
  5
B5
330
17
100
AcDbEntity
  8
0
100
AcDbLine
 10
0.2617678182999992
 20
0.270794226
 30
0.8023455662558352
 11
0.524747690299999
 21
0.5974897621
 31
0.8501264016307128
  0
LINE
  5
B6
330
17
100
AcDbEntity
  8
0
100
AcDbLine
 10
0.524747690299999
 20
0.5974897621
 30
0.8501264016307128
 11
0.12638763429999944
 21
0.2777332629
 31
1.143735510928874
  0
LINE
  5
B7
330
17
100
AcDbEntity
  8
0
100
AcDbLine
 10
0.12638763429999944
 20
0.2777332629
 30
1.143735510928874
 11
0.2349544292999992
 21
0.5972384307
 31
1.1959913170112346
  0
LINE
  5
B8
330
17
100
AcDbEntity
  8
0
100
AcDbLine
 10
0.2349544292999992
 20
0.5972384307
 30
1.1959913170112346
 11
0.06345595729999864
 21
0.5970896937
 31
1.464918326194312
  0
LINE
  5
B9
330
17
100
AcDbEntity
  8
0
100
AcDbLine
 10
0.06345595729999864
 20
0.5970896937
 30
1.464918326194312
 11
-0.21009556070000102
 21
0.5961078131
 31
1.9096481682685549
  0
LINE
  5
BA
330
17
100
AcDbEntity
  8
0
100
AcDbLine
 10
-0.21009556070000102
 20
0.5961078131
 30
1.9096481682685549
 11
-0.17119110170000074
 21
0.2924768552
 31
2.1003480777573795
  0
LINE
  5
BB
330
17
100
AcDbEntity
  8
0
100
AcDbLine
 10
-0.17119110170000074
 20
0.2924768552
 30
2.1003480777573795
 11
-0.3733424107000012
 21
0.595521858
 31
2.1307725303200837
  0
LINE
  5
BC
330
17
100
AcDbEntity
  8
0
100
AcDbLine
 10
-0.3733424107000012
 20
0.595521858
 30
2.1307725303200837
 11
-0.296187014700001
 21
0.2917688833
 31
2.3637087412775672
  0
LINE
  5
BD
330
17
100
AcDbEntity
  8
0
100
AcDbLine
 10
-0.296187014700001
 20
0.2917688833
 30
2.3637087412775672
 11
-0.629813388700001
 21
0.5934793428
 31
2.3858876012465267
  0
LINE
  5
BE
330
17
100
AcDbEntity
  8
0
100
AcDbLine
 10
-0.629813388700001
 20
0.5934793428
 30
2.3858876012465267
 11
-0.786084792700001
 21
0.5922348093
 31
2.4959202894326884
  0
LINE
  5
BF
330
17
100
AcDbEntity
  8
0
100
AcDbLine
 10
-0.786084792700001
 20
0.5922348093
 30
2.4959202894326884
 11
-1.024394855700001
 21
0.5888311171
 31
2.619902122009846
  0
LINE
  5
C0
330
17
100
AcDbEntity
  8
0
100
AcDbLine
 10
-1.024394855700001
 20
0.5888311171
 30
2.619902122009846
 11
-0.5709194267000011
 21
0.2909902899
 31
2.670225398859646
  0
LINE
  5
C1
330
17
100
AcDbEntity
  8
0
100
AcDbLine
 10
-0.5709194267000011
 20
0.2909902899
 30
2.670225398859646
 11
-1.1752085717000011
 21
0.586677102
 31
2.6785764058251855
  0
LINE
  5
C2
330
17
100
AcDbEntity
  8
0
100
AcDbLine
 10
-1.1752085717000011
 20
0.586677102
 30
2.6785764058251855
 11
-0.6775586157000011
 21
0.2829279837
 31
2.746032287125868
  0
LINE
  5
C3
330
17
100
AcDbEntity
  8
0
100
AcDbLine
 10
-0.6775586157000011
 20
0.2829279837
 30
2.746032287125868
 11
-1.394112878700001
 21
0.5816643567
 31
2.746322460601361
  0
LINE
  5
C4
330
17
100
AcDbEntity
  8
0
100
AcDbLine
 10
-1.394112878700001
 20
0.5816643567
 30
2.746322460601361
 11
-1.541151128700001
 21
0.5782972904
 31
2.7826140114710056
  0
LINE
  5
C5
330
17
100
AcDbEntity
  8
0
100
AcDbLine
 10
-1.541151128700001
 20
0.5782972904
 30
2.7826140114710056
 11
-1.739299333700001
 21
0.571511404
 31
2.824119732525846
  0
LINE
  5
C6
330
17
100
AcDbEntity
  8
0
100
AcDbLine
 10
-1.739299333700001
 20
0.571511404
 30
2.824119732525846
 11
-1.884349845700001
 21
0.5665439289
 31
2.8495327499337826
  0
LINE
  5
C7
330
17
100
AcDbEntity
  8
0
100
AcDbLine
 10
-1.884349845700001
 20
0.5665439289
 30
2.8495327499337826
 11
-0.912043079700001
 21
0.2670822271
 31
2.856718014710473
  0
LINE
  5
C8
330
17
100
AcDbEntity
  8
0
100
AcDbLine
 10
-0.912043079700001
 20
0.2670822271
 30
2.856718014710473
 11
-2.060326507700001
 21
0.5579459497
 31
2.8771310166086708
  0
LINE
  5
C9
330
17
100
AcDbEntity
  8
0
100
AcDbLine
 10
-2.060326507700001
 20
0.5579459497
 30
2.8771310166086708
 11
-0.996805965700001
 21
0.2538876992
 31
2.892194227207459
  0
LINE
  5
CA
330
17
100
AcDbEntity
  8
0
100
AcDbLine
 10
-0.996805965700001
 20
0.2538876992
 30
2.892194227207459
 11
-2.205242103700001
 21
0.5508655717
 31
2.896803901731222
  0
LINE
  5
CB
330
17
100
AcDbEntity
  8
0
100
AcDbLine
 10
-2.205242103700001
 20
0.5508655717
 30
2.896803901731222
 11
-2.357588444700001
 21
0.5405971043
 31
2.9161883619008226
  0
LINE
  5
CC
330
17
100
AcDbEntity
  8
0
100
AcDbLine
 10
-2.357588444700001
 20
0.5405971043
 30
2.9161883619008226
 11
-2.5042652857000007
 21
0.5307107732
 31
2.932759640092598
  0
LINE
  5
CD
330
17
100
AcDbEntity
  8
0
100
AcDbLine
 10
-2.5042652857000007
 20
0.5307107732
 30
2.932759640092598
 11
-2.6314816597000013
 21
0.5191698935
 31
2.9468024319377055
  0
LINE
  5
CE
330
17
100
AcDbEntity
  8
0
100
AcDbLine
 10
-2.6314816597000013
 20
0.5191698935
 30
2.9468024319377055
 11
-1.1833908567000009
 21
0.2272957346
 31
2.9518320812497123
  0
LINE
  5
CF
330
17
100
AcDbEntity
  8
0
100
AcDbLine
 10
-1.1833908567000009
 20
0.2272957346
 30
2.9518320812497123
 11
-2.781856770700001
 21
0.5055280878
 31
2.961831037364038
  0
LINE
  5
D0
330
17
100
AcDbEntity
  8
0
100
AcDbLine
 10
-2.781856770700001
 20
0.5055280878
 30
2.961831037364038
 11
-2.882383738700001
 21
0.4934764647
 31
2.972032265144287
  0
LINE
  5
D1
330
17
100
AcDbEntity
  8
0
100
AcDbLine
 10
-2.882383738700001
 20
0.4934764647
 30
2.972032265144287
 11
-1.246703396700001
 21
0.2112439788
 31
2.9737448249193412
  0
LINE
  5
D2
330
17
100
AcDbEntity
  8
0
100
AcDbLine
 10
-1.246703396700001
 20
0.2112439788
 30
2.9737448249193412
 11
-3.0384539427000012
 21
0.4747660697
 31
2.986593456784273
  0
LINE
  5
D3
330
17
100
AcDbEntity
  8
0
100
AcDbLine
 10
-3.0384539427000012
 20
0.4747660697
 30
2.986593456784273
 11
-3.110626877700001
 21
0.4634855296
 31
2.993680176021413
  0
LINE
  5
D4
330
17
100
AcDbEntity
  8
0
100
AcDbLine
 10
-3.110626877700001
 20
0.4634855296
 30
2.993680176021413
 11
-3.274494181700001
 21
0.4378732734
 31
3.008658854260043
  0
LINE
  5
D5
330
17
100
AcDbEntity
  8
0
100
AcDbLine
 10
-3.274494181700001
 20
0.4378732734
 30
3.008658854260043
 11
-3.316460913700001
 21
0.4294039543
 31
3.0128324236894493
  0
LINE
  5
D6
330
17
100
AcDbEntity
  8
0
100
AcDbLine
 10
-3.316460913700001
 20
0.4294039543
 30
3.0128324236894493
 11
-1.386353991700001
 21
0.178451046
 31
3.013576894459473
  0
LINE
  5
D7
330
17
100
AcDbEntity
  8
0
100
AcDbLine
 10
-1.386353991700001
 20
0.178451046
 30
3.013576894459473
 11
-3.4904148698000013
 21
0.3942982531
 31
3.0291035258468493
  0
LINE
  5
D8
330
17
100
AcDbEntity
  8
0
100
AcDbLine
 10
-3.4904148698000013
 20
0.3942982531
 30
3.0291035258468493
 11
-1.430799747700001
 21
0.1609458394
 31
3.029576895756931
  0
LINE
  5
D9
330
17
100
AcDbEntity
  8
0
100
AcDbLine
 10
-1.430799747700001
 20
0.1609458394
 30
3.029576895756931
 11
-3.4999952596000012
 21
0.3918177663
 31
3.030108741803378
  0
LINE
  5
DA
330
17
100
AcDbEntity
  8
0
100
AcDbLine
 10
-3.4999952596000012
 20
0.3918177663
 30
3.030108741803378
 11
-3.542742471000001
 21
0.3807499605
 31
3.0345303734692424
  0
LINE
  5
DB
330
17
100
AcDbEntity
  8
0
100
AcDbLine
 10
-3.542742471000001
 20
0.3807499605
 30
3.0345303734692424
 11
-3.657202020000001
 21
0.3435249086
 31
3.047936380406686
  0
LINE
  5
DC
330
17
100
AcDbEntity
  8
0
100
AcDbLine
 10
-3.657202020000001
 20
0.3435249086
 30
3.047936380406686
 11
-3.686653388600001
 21
0.3339466014
 31
3.0512566035349167
  0
LINE
  5
DD
330
17
100
AcDbEntity
  8
0
100
AcDbLine
 10
-3.686653388600001
 20
0.3339466014
 30
3.0512566035349167
 11
-1.529222609700001
 21
0.1247812362
 31
3.060175208637814
  0
LINE
  5
DE
330
17
100
AcDbEntity
  8
0
100
AcDbLine
 10
-1.529222609700001
 20
0.1247812362
 30
3.060175208637814
 11
-3.792190017500001
 21
0.2900605428
 31
3.0652523734090815
  0
LINE
  5
DF
330
17
100
AcDbEntity
  8
0
100
AcDbLine
 10
-3.792190017500001
 20
0.2900605428
 30
3.0652523734090815
 11
-1.5572094397000011
 21
0.1057689548
 31
3.07377470380882
  0
LINE
  5
E0
330
17
100
AcDbEntity
  8
0
100
AcDbLine
 10
-1.5572094397000011
 20
0.1057689548
 30
3.07377470380882
 11
-3.863647119400001
 21
0.26034602
 31
3.074310874150286
  0
LINE
  5
E1
330
17
100
AcDbEntity
  8
0
100
AcDbLine
 10
-3.863647119400001
 20
0.26034602
 30
3.074310874150286
 11
-3.907016322500001
 21
0.2372963215
 31
3.0809312275404546
  0
LINE
  5
E2
330
17
100
AcDbEntity
  8
0
100
AcDbLine
 10
-3.907016322500001
 20
0.2372963215
 30
3.0809312275404546
 11
-3.969976364300001
 21
0.2038345588
 31
3.0902936769514278
  0
LINE
  5
E3
330
17
100
AcDbEntity
  8
0
100
AcDbLine
 10
-3.969976364300001
 20
0.2038345588
 30
3.0902936769514278
 11
-3.997467835900001
 21
0.1813546444
 31
3.096256359731882
  0
LINE
  5
E4
330
17
100
AcDbEntity
  8
0
100
AcDbLine
 10
-3.997467835900001
 20
0.1813546444
 30
3.096256359731882
 11
-1.619851401700001
 21
0.06599914563
 31
3.100871226403586
  0
LINE
  5
E5
330
17
100
AcDbEntity
  8
0
100
AcDbLine
 10
-1.619851401700001
 20
0.06599914563
 30
3.100871226403586
 11
-4.021833444000001
 21
0.1614307642
 31
3.1014755885584835
  0
LINE
  5
E6
330
17
100
AcDbEntity
  8
0
100
AcDbLine
 10
-4.021833444000001
 20
0.1614307642
 30
3.1014755885584835
 11
-4.063706858600001
 21
0.1175476507
 31
3.1126745041790405
  0
LINE
  5
E7
330
17
100
AcDbEntity
  8
0
100
AcDbLine
 10
-4.063706858600001
 20
0.1175476507
 30
3.1126745041790405
 11
-1.6290760257000012
 21
0.04505822949
 31
3.113940939309256
  0
LINE
  5
E8
330
17
100
AcDbEntity
  8
0
100
AcDbLine
 10
-1.6290760257000012
 20
0.04505822949
 30
3.113940939309256
 11
-4.087372048700001
 21
0.09274665872
 31
3.1189055224329056
  0
LINE
  5
E9
330
17
100
AcDbEntity
  8
0
100
AcDbLine
 10
-4.087372048700001
 20
0.09274665872
 30
3.1189055224329056
 11
-4.102547069600001
 21
0.04693754994
 31
3.130152077457233
  0
LINE
  5
EA
330
17
100
AcDbEntity
  8
0
100
AcDbLine
 10
-4.102547069600001
 20
0.04693754994
 30
3.130152077457233
 11
-4.118095905300001
 21
-8.326672685e-17
 31
-3.141592653589793
  0
ENDSEC
  0
SECTION
  2
OBJECTS
  0
DICTIONARY
  5
A
330
0
100
AcDbDictionary
281
1
  3
ACAD_COLOR
350
B
  3
ACAD_GROUP
350
C
  3
ACAD_LAYOUT
350
D
  3
ACAD_MATERIAL
350
E
  3
ACAD_MLEADERSTYLE
350
F
  3
ACAD_MLINESTYLE
350
10
  3
ACAD_PLOTSETTINGS
350
11
  3
ACAD_PLOTSTYLENAME
350
12
  3
ACAD_SCALELIST
350
14
  3
ACAD_TABLESTYLE
350
15
  3
ACAD_VISUALSTYLE
350
16
  0
DICTIONARY
  5
B
330
A
100
AcDbDictionary
281
1
  0
DICTIONARY
  5
C
330
A
100
AcDbDictionary
281
1
  0
DICTIONARY
  5
D
330
A
100
AcDbDictionary
281
1
  3
Model
350
1A
  3
Layout1
350
1E
  0
DICTIONARY
  5
E
330
A
100
AcDbDictionary
281
1
  3
ByBlock
350
1F
  3
ByLayer
350
20
  3
Global
350
21
  0
DICTIONARY
  5
F
330
A
100
AcDbDictionary
281
1
  3
Standard
350
2C
  0
DICTIONARY
  5
10
330
A
100
AcDbDictionary
281
1
  3
Standard
350
22
  0
DICTIONARY
  5
11
330
A
100
AcDbDictionary
281
1
  0
ACDBDICTIONARYWDFLT
  5
12
330
A
100
AcDbDictionary
281
1
  3
Normal
350
13
100
AcDbDictionaryWithDefault
340
13
  0
ACDBPLACEHOLDER
  5
13
330
12
  0
DICTIONARY
  5
14
330
A
100
AcDbDictionary
281
1
  0
DICTIONARY
  5
15
330
A
100
AcDbDictionary
281
1
  0
DICTIONARY
  5
16
330
A
100
AcDbDictionary
281
1
  0
LAYOUT
  5
1A
330
D
100
AcDbPlotSettings
  1

  2
Adobe PDF
  4
A4
  6

 40
3.175
 41
3.175
 42
3.175
 43
3.175
 44
209.91
 45
297.03
 46
0.0
 47
0.0
 48
0.0
 49
0.0
140
0.0
141
0.0
142
1.0
143
1.0
 70
1024
 72
0
 73
1
 74
5
  7

 75
16
 76
0
 77
2
 78
300
147
1.0
148
0.0
149
0.0
100
AcDbLayout
  1
Model
 70
1
 71
0
 10
-3.175
 20
-3.175
 11
293.857
 21
206.735
 12
0.0
 22
0.0
 32
0.0
 14
29.068
 24
20.356
 34
0.0
 15
261.614
 25
183.204
 35
0.0
146
0.0
 13
0.0
 23
0.0
 33
0.0
 16
1.0
 26
0.0
 36
0.0
 17
0.0
 27
1.0
 37
0.0
 76
1
330
17
  0
LAYOUT
  5
1E
330
D
100
AcDbPlotSettings
  1

  2
Adobe PDF
  4
A4
  6

 40
3.175
 41
3.175
 42
3.175
 43
3.175
 44
209.91
 45
297.03
 46
0.0
 47
0.0
 48
0.0
 49
0.0
140
0.0
141
0.0
142
1.0
143
1.0
 70
0
 72
0
 73
1
 74
5
  7

 75
16
 76
0
 77
2
 78
300
147
1.0
148
0.0
149
0.0
100
AcDbLayout
  1
Layout1
 70
1
 71
1
 10
-3.175
 20
-3.175
 11
293.857
 21
206.735
 12
0.0
 22
0.0
 32
0.0
 14
29.068
 24
20.356
 34
0.0
 15
261.614
 25
183.204
 35
0.0
146
0.0
 13
0.0
 23
0.0
 33
0.0
 16
1.0
 26
0.0
 36
0.0
 17
0.0
 27
1.0
 37
0.0
 76
1
330
1B
  0
MATERIAL
  5
1F
102
{ACAD_REACTORS
330
E
102
}
330
E
100
AcDbMaterial
  1
ByBlock
  2

 70
0
 40
1.0
 71
1
 41
1.0
 91
-1023410177
 42
1.0
 72
1
  3

 73
1
 74
1
 75
1
 44
0.5
 73
0
 45
1.0
 46
1.0
 77
1
  4

 78
1
 79
1
170
1
 48
1.0
171
1
  6

172
1
173
1
174
1
140
1.0
141
1.0
175
1
  7

176
1
177
1
178
1
143
1.0
179
1
  8

270
1
271
1
272
1
145
1.0
146
1.0
273
1
  9

274
1
275
1
276
1
 42
1.0
 72
1
  3

 73
1
 74
1
 75
1
 94
63
  0
MATERIAL
  5
20
102
{ACAD_REACTORS
330
E
102
}
330
E
100
AcDbMaterial
  1
ByLayer
  2

 70
0
 40
1.0
 71
1
 41
1.0
 91
-1023410177
 42
1.0
 72
1
  3

 73
1
 74
1
 75
1
 44
0.5
 73
0
 45
1.0
 46
1.0
 77
1
  4

 78
1
 79
1
170
1
 48
1.0
171
1
  6

172
1
173
1
174
1
140
1.0
141
1.0
175
1
  7

176
1
177
1
178
1
143
1.0
179
1
  8

270
1
271
1
272
1
145
1.0
146
1.0
273
1
  9

274
1
275
1
276
1
 42
1.0
 72
1
  3

 73
1
 74
1
 75
1
 94
63
  0
MATERIAL
  5
21
102
{ACAD_REACTORS
330
E
102
}
330
E
100
AcDbMaterial
  1
Global
  2

 70
0
 40
1.0
 71
1
 41
1.0
 91
-1023410177
 42
1.0
 72
1
  3

 73
1
 74
1
 75
1
 44
0.5
 73
0
 45
1.0
 46
1.0
 77
1
  4

 78
1
 79
1
170
1
 48
1.0
171
1
  6

172
1
173
1
174
1
140
1.0
141
1.0
175
1
  7

176
1
177
1
178
1
143
1.0
179
1
  8

270
1
271
1
272
1
145
1.0
146
1.0
273
1
  9

274
1
275
1
276
1
 42
1.0
 72
1
  3

 73
1
 74
1
 75
1
 94
63
  0
MLINESTYLE
  5
22
102
{ACAD_REACTORS
330
10
102
}
330
10
100
AcDbMlineStyle
  2
Standard
 70
0
  3

 62
256
 51
90.0
 52
90.0
 71
2
 49
0.5
 62
256
  6
BYLAYER
 49
-0.5
 62
256
  6
BYLAYER
  0
MLEADERSTYLE
  5
2C
102
{ACAD_REACTORS
330
F
102
}
330
F
100
AcDbMLeaderStyle
179
2
170
2
171
1
172
0
 90
2
 40
0.0
 41
0.0
173
1
 91
-1056964608
 92
-2
290
1
 42
2.0
291
1
 43
8.0
  3
Standard
 44
4.0
300

342
29
174
1
175
1
176
0
178
1
 93
-1056964608
 45
4.0
292
0
297
0
 46
4.0
 94
-1056964608
 47
1.0
 49
0.0
140
1.0
294
1
141
0.0
177
0
142
1.0
295
0
296
0
143
3.75
271
0
272
9
272
9
  0
ENDSEC
  0
EOF
