  0
SECTION
  2
HEADER
  9
$ACADVER
  1
AC1009
  9
$DWGCODEPAGE
  3
ANSI_1252
  9
$INSBASE
 10
0.0
 20
0.0
 30
0.0
  9
$EXTMIN
 10
-100
 20
-100
 30
-100
  9
$EXTMAX
 10
100
 20
100
 30
100
  9
$LIMMIN
 10
0.0
 20
0.0
  9
$LIMMAX
 10
420.0
 20
297.0
  9
$ORTHOMODE
 70
0
  9
$REGENMODE
 70
1
  9
$DRAGMODE
 70
2
  9
$FILLMODE
 70
1
  9
$QTEXTMODE
 70
0
  9
$MIRRTEXT
 70
1
  9
$OSMODE
 70
20583
  9
$LTSCALE
 40
1.0
  9
$ATTMODE
 70
1
  9
$TEXTSIZE
 40
2.5
  9
$TRACEWID
 40
1.0
  9
$TEXTSTYLE
  7
Standard
  9
$CLAYER
  8
0
  9
$CELTYPE
  6
ByLayer
  9
$CECOLOR
 62
256
  9
$DIMSCALE
 40
1.0
  9
$DIMASZ
 40
2.5
  9
$DIMEXO
 40
0.625
  9
$DIMDLI
 40
3.75
  9
$DIMRND
 40
0.0
  9
$DIMDLE
 40
0.0
  9
$DIMEXE
 40
1.25
  9
$DIMTP
 40
0.0
  9
$DIMTM
 40
0.0
  9
$DIMTXT
 40
2.5
  9
$DIMCEN
 40
2.5
  9
$DIMTSZ
 40
0.0
  9
$DIMTOL
 70
0
  9
$DIMLIM
 70
0
  9
$DIMTIH
 70
0
  9
$DIMTOH
 70
0
  9
$DIMSE1
 70
0
  9
$DIMSE2
 70
0
  9
$DIMTAD
 70
1
  9
$DIMZIN
 70
8
  9
$DIMBLK
  1

  9
$DIMASO
 70
1
  9
$DIMSHO
 70
1
  9
$DIMPOST
  1

  9
$DIMAPOST
  1

  9
$DIMALT
 70
0
  9
$DIMALTD
 70
3
  9
$DIMALTF
 40
0.03937007874
  9
$DIMLFAC
 40
1.0
  9
$DIMTOFL
 70
1
  9
$DIMTVP
 40
0.0
  9
$DIMTIX
 70
0
  9
$DIMSOXD
 70
0
  9
$DIMSAH
 70
0
  9
$DIMBLK1
  1

  9
$DIMBLK2
  1

  9
$DIMSTYLE
  2
ISO-25
  9
$DIMCLRD
 70
0
  9
$DIMCLRE
 70
0
  9
$DIMCLRT
 70
0
  9
$DIMTFAC
 40
1.0
  9
$DIMGAP
 40
0.625
  9
$COORDS
 70
1
  9
$ATTDIA
 70
0
  9
$ATTREQ
 70
1
  9
$HANDLING
 70
1
  9
$LUNITS
 70
2
  9
$LUPREC
 70
4
  9
$SKETCHINC
 40
1.0
  9
$FILLETRAD
 40
10.0
  9
$AUNITS
 70
0
  9
$AUPREC
 70
2
  9
$MENU
  1
.
  9
$ELEVATION
 40
0.0
  9
$PELEVATION
 40
0.0
  9
$THICKNESS
 40
0.0
  9
$LIMCHECK
 70
0
  9
$CHAMFERA
 40
0.0
  9
$CHAMFERB
 40
0.0
  9
$SKPOLY
 70
0
  9
$TDCREATE
 40
2459867.7772800927
  9
$TDUPDATE
 40
2459867.7772800927
  9
$TDINDWG
 40
0.0
  9
$TDUSRTIMER
 40
0.0
  9
$USRTIMER
 70
1
  9
$ANGBASE
 50
0.0
  9
$ANGDIR
 70
0
  9
$PDMODE
 70
0
  9
$PDSIZE
 40
0.0
  9
$PLINEWID
 40
0.0
  9
$SPLFRAME
 70
0
  9
$SPLINETYPE
 70
6
  9
$SPLINESEGS
 70
8
  9
$HANDSEED
  5
82
  9
$SURFTAB1
 70
6
  9
$SURFTAB2
 70
6
  9
$SURFTYPE
 70
6
  9
$SURFU
 70
6
  9
$SURFV
 70
6
  9
$UCSNAME
  2

  9
$UCSORG
 10
0.0
 20
0.0
 30
0.0
  9
$UCSXDIR
 10
1.0
 20
0.0
 30
0.0
  9
$UCSYDIR
 10
0.0
 20
1.0
 30
0.0
  9
$PUCSNAME
  2

  9
$PUCSORG
 10
0.0
 20
0.0
 30
0.0
  9
$PUCSXDIR
 10
1.0
 20
0.0
 30
0.0
  9
$PUCSYDIR
 10
0.0
 20
1.0
 30
0.0
  9
$USERI1
 70
0
  9
$USERI2
 70
0
  9
$USERI3
 70
0
  9
$USERI4
 70
0
  9
$USERI5
 70
0
  9
$USERR1
 40
0.0
  9
$USERR2
 40
0.0
  9
$USERR3
 40
0.0
  9
$USERR4
 40
0.0
  9
$USERR5
 40
0.0
  9
$WORLDVIEW
 70
1
  9
$SHADEDGE
 70
3
  9
$SHADEDIF
 70
70
  9
$TILEMODE
 70
1
  9
$MAXACTVP
 70
64
  9
$PLIMCHECK
 70
0
  9
$PEXTMIN
 10
1e+20
 20
1e+20
 30
1e+20
  9
$PEXTMAX
 10
-1e+20
 20
-1e+20
 30
-1e+20
  9
$PLIMMIN
 10
0.0
 20
0.0
  9
$PLIMMAX
 10
420.0
 20
297.0
  9
$UNITMODE
 70
0
  9
$VISRETAIN
 70
1
  9
$PLINEGEN
 70
0
  9
$PSLTSCALE
 70
1
  0
ENDSEC
  0
SECTION
  2
TABLES
  0
TABLE
  2
VPORT
 70
1
  0
VPORT
  5
23
  2
*Active
 70
0
 10
0.0
 20
0.0
 11
1.0
 21
1.0
 12
70.0
 22
50.0
 13
0.0
 23
0.0
 14
0.5
 24
0.5
 15
0.5
 25
0.5
 16
0.0
 26
0.0
 36
1.0
 17
0.0
 27
0.0
 37
0.0
 40
1.0
 41
1.34
 42
50.0
 43
0.0
 44
0.0
 50
0.0
 51
0.0
 71
0
 72
1000
 73
1
 74
3
 75
0
 76
0
 77
0
 78
0
  0
ENDTAB
  0
TABLE
  2
LTYPE
 70
3
  0
LTYPE
  5
24
  2
ByBlock
 70
0
  3

 72
65
 73
0
 40
0.0
  0
LTYPE
  5
25
  2
ByLayer
 70
0
  3

 72
65
 73
0
 40
0.0
  0
LTYPE
  5
26
  2
Continuous
 70
0
  3

 72
65
 73
0
 40
0.0
  0
ENDTAB
  0
TABLE
  2
LAYER
 70
2
  0
LAYER
  5
27
  2
0
 70
0
 62
7
  6
Continuous
  0
LAYER
  5
28
  2
Defpoints
 70
0
 62
7
  6
Continuous
  0
ENDTAB
  0
TABLE
  2
STYLE
 70
1
  0
STYLE
  5
29
  2
Standard
 70
0
 40
0.0
 41
1.0
 50
0.0
 71
0
 42
2.5
  3
txt
  4

  0
ENDTAB
  0
TABLE
  2
VIEW
 70
0
  0
ENDTAB
  0
TABLE
  2
UCS
 70
0
  0
ENDTAB
  0
TABLE
  2
APPID
 70
2
  0
APPID
  5
2A
  2
ACAD
 70
0
  0
APPID
  5
81
  2
HATCHBACKGROUNDCOLOR
 70
0
  0
ENDTAB
  0
TABLE
  2
DIMSTYLE
 70
1
  0
DIMSTYLE
105
2B
  2
Standard
 70
0
  3

  4

  5

  6

  7

 40
1.0
 41
2.5
 42
0.625
 43
3.75
 44
1.25
 45
0.0
 46
0.0
 47
0.0
 48
0.0
140
2.5
141
2.5
142
0.0
143
0.03937007874
144
1.0
145
0.0
146
1.0
147
0.625
 71
0
 72
0
 73
0
 74
0
 75
0
 76
0
 77
1
 78
8
170
0
171
3
172
1
173
0
174
0
175
0
176
0
177
0
178
0
  0
ENDTAB
  0
ENDSEC
  0
SECTION
  2
BLOCKS
  0
BLOCK
  5
18
  8
0
  2
$Model_Space
 70
0
 10
0.0
 20
0.0
 30
0.0
  3
$Model_Space
  1

  0
ENDBLK
  5
19
  8
0
  0
BLOCK
  5
1C
  8
0
  2
$Paper_Space
 70
0
 10
0.0
 20
0.0
 30
0.0
  3
$Paper_Space
  1

  0
ENDBLK
  5
1D
  8
0
  0
ENDSEC
  0
SECTION
  2
ENTITIES
  0
LINE
  5
2D
  8
0
 10
-4.804666399
 20
-0.05103881950000044
 30
0.0
 11
-4.790338519
 21
-0.3466550394999999
 31
0.0
  0
LINE
  5
2E
  8
0
 10
-4.790338519
 20
-0.3466550394999999
 30
0.0
 11
-4.739091453
 21
-1.3274122565000006
 31
0.0
  0
LINE
  5
2F
  8
0
 10
-4.739091453
 20
-1.3274122565000006
 30
0.0
 11
-4.695583721
 21
-1.6550257755000004
 31
0.0
  0
LINE
  5
30
  8
0
 10
-4.695583721
 20
-1.6550257755000004
 30
0.0
 11
-4.566478729
 21
-2.5556888825
 31
0.0
  0
LINE
  5
31
  8
0
 10
-4.566478729
 20
-2.5556888825
 30
0.0
 11
-4.472738391
 21
-2.9053543325
 31
0.0
  0
LINE
  5
32
  8
0
 10
-4.472738391
 20
-2.9053543325
 30
0.0
 11
-4.274431891
 21
-3.5831859195
 31
0.0
  0
LINE
  5
33
  8
0
 10
-4.274431891
 20
-3.5831859195
 30
0.0
 11
-4.049221693
 21
-3.9271579814999997
 31
0.0
  0
LINE
  5
34
  8
0
 10
-4.049221693
 20
-3.9271579814999997
 30
0.0
 11
-3.734830968
 21
-4.3841508795
 31
0.0
  0
LINE
  5
35
  8
0
 10
-3.734830968
 20
-4.3841508795
 30
0.0
 11
-3.353074058
 21
-4.7022475815
 31
0.0
  0
LINE
  5
36
  8
0
 10
-3.353074058
 20
-4.7022475815
 30
0.0
 11
-2.980984235
 21
-5.0001530045
 31
0.0
  0
LINE
  5
37
  8
0
 10
-2.980984235
 20
-5.0001530045
 30
0.0
 11
-2.631951719
 21
-5.1223685715
 31
0.0
  0
LINE
  5
38
  8
0
 10
-2.631951719
 20
-5.1223685715
 30
0.0
 11
-2.358560587
 21
-5.2150080155000005
 31
0.0
  0
LINE
  5
39
  8
0
 10
-2.358560587
 20
-5.2150080155000005
 30
0.0
 11
-1.988779869
 21
-5.2735269325
 31
0.0
  0
LINE
  5
3A
  8
0
 10
-1.988779869
 20
-5.2735269325
 30
0.0
 11
-1.745542153
 21
-5.3061952685
 31
0.0
  0
LINE
  5
3B
  8
0
 10
-1.745542153
 20
-5.3061952685
 30
0.0
 11
-1.371280884
 21
-5.3132475985
 31
0.0
  0
LINE
  5
3C
  8
0
 10
-1.371280884
 20
-5.3132475985
 30
0.0
 11
-1.145057264
 21
-5.3100664225
 31
0.0
  0
LINE
  5
3D
  8
0
 10
-1.145057264
 20
-5.3100664225
 30
0.0
 11
-0.78106812
 21
-5.3014833855
 31
0.0
  0
LINE
  5
3E
  8
0
 10
-0.78106812
 20
-5.3014833855
 30
0.0
 11
-0.5682650808
 21
-5.2917764055
 31
0.0
  0
LINE
  5
3F
  8
0
 10
-0.5682650808
 20
-5.2917764055
 30
0.0
 11
-0.2084945664
 21
-5.2857523545000005
 31
0.0
  0
LINE
  5
40
  8
0
 10
-0.2084945664
 20
-5.2857523545000005
 30
0.0
 11
-4.440892099e-16
 21
-5.2806746315
 31
0.0
  0
LINE
  5
41
  8
0
 10
-4.440892099e-16
 20
-5.2806746315
 30
0.0
 11
0.2133003639
 21
-5.2865072215
 31
0.0
  0
LINE
  5
42
  8
0
 10
0.2133003639
 20
-5.2865072215
 30
0.0
 11
0.5803431509
 21
-5.2938235165
 31
0.0
  0
LINE
  5
43
  8
0
 10
0.5803431509
 20
-5.2938235165
 30
0.0
 11
0.8015423587
 21
-5.3039417315
 31
0.0
  0
LINE
  5
44
  8
0
 10
0.8015423587
 20
-5.3039417315
 30
0.0
 11
1.1759277
 21
-5.3130883635
 31
0.0
  0
LINE
  5
45
  8
0
 10
1.1759277
 20
-5.3130883635
 30
0.0
 11
1.404433172
 21
-5.3158430305
 31
0.0
  0
LINE
  5
46
  8
0
 10
1.404433172
 20
-5.3158430305
 30
0.0
 11
1.776696111
 21
-5.3080789245
 31
0.0
  0
LINE
  5
47
  8
0
 10
1.776696111
 20
-5.3080789245
 30
0.0
 11
2.0145082
 21
-5.2744271445
 31
0.0
  0
LINE
  5
48
  8
0
 10
2.0145082
 20
-5.2744271445
 30
0.0
 11
2.371307248
 21
-5.2151201485000005
 31
0.0
  0
LINE
  5
49
  8
0
 10
2.371307248
 20
-5.2151201485000005
 30
0.0
 11
2.639839868
 21
-5.1221685665
 31
0.0
  0
LINE
  5
4A
  8
0
 10
2.639839868
 20
-5.1221685665
 30
0.0
 11
2.980984235
 21
-5.0001530045
 31
0.0
  0
LINE
  5
4B
  8
0
 10
2.980984235
 20
-5.0001530045
 30
0.0
 11
3.353049732
 21
-4.7022864345
 31
0.0
  0
LINE
  5
4C
  8
0
 10
3.353049732
 20
-4.7022864345
 30
0.0
 11
3.734803052
 21
-4.3842107905
 31
0.0
  0
LINE
  5
4D
  8
0
 10
3.734803052
 20
-4.3842107905
 30
0.0
 11
4.049209574
 21
-3.9271245845000005
 31
0.0
  0
LINE
  5
4E
  8
0
 10
4.049209574
 20
-3.9271245845000005
 30
0.0
 11
4.274428244
 21
-3.5830925025000004
 31
0.0
  0
LINE
  5
4F
  8
0
 10
4.274428244
 20
-3.5830925025000004
 30
0.0
 11
4.473015605
 21
-2.9056434875
 31
0.0
  0
LINE
  5
50
  8
0
 10
4.473015605
 20
-2.9056434875
 30
0.0
 11
4.566854257
 21
-2.556288821500001
 31
0.0
  0
LINE
  5
51
  8
0
 10
4.566854257
 20
-2.556288821500001
 30
0.0
 11
4.696507832
 21
-1.6559008024999997
 31
0.0
  0
LINE
  5
52
  8
0
 10
4.696507832
 20
-1.6559008024999997
 30
0.0
 11
4.740133595
 21
-1.3288778524999998
 31
0.0
  0
LINE
  5
53
  8
0
 10
4.740133595
 20
-1.3288778524999998
 30
0.0
 11
4.790571476
 21
-0.34687298949999956
 31
0.0
  0
LINE
  5
54
  8
0
 10
4.790571476
 20
-0.34687298949999956
 30
0.0
 11
4.804666399
 21
-0.05103881950000044
 31
0.0
  0
LINE
  5
55
  8
0
 10
4.804666399
 20
-0.05103881950000044
 30
0.0
 11
4.790338519
 21
0.2458996004999996
 31
0.0
  0
LINE
  5
56
  8
0
 10
4.790338519
 20
0.2458996004999996
 30
0.0
 11
4.739091453
 21
1.2313860205000005
 31
0.0
  0
LINE
  5
57
  8
0
 10
4.739091453
 20
1.2313860205000005
 30
0.0
 11
4.695583721
 21
1.5628296205000005
 31
0.0
  0
LINE
  5
58
  8
0
 10
4.695583721
 20
1.5628296205000005
 30
0.0
 11
4.566478729
 21
2.4748534104999997
 31
0.0
  0
LINE
  5
59
  8
0
 10
4.566478729
 20
2.4748534104999997
 30
0.0
 11
4.472738391
 21
2.830962660499999
 31
0.0
  0
LINE
  5
5A
  8
0
 10
4.472738391
 20
2.830962660499999
 30
0.0
 11
4.274431891
 21
3.5223691104999997
 31
0.0
  0
LINE
  5
5B
  8
0
 10
4.274431891
 20
3.5223691104999997
 30
0.0
 11
4.049221693
 21
3.8747405404999995
 31
0.0
  0
LINE
  5
5C
  8
0
 10
4.049221693
 20
3.8747405404999995
 30
0.0
 11
3.734830968
 21
4.3438711705
 31
0.0
  0
LINE
  5
5D
  8
0
 10
3.734830968
 20
4.3438711705
 30
0.0
 11
3.353074058
 21
4.670722380499999
 31
0.0
  0
LINE
  5
5E
  8
0
 10
3.353074058
 20
4.670722380499999
 30
0.0
 11
2.980984235
 21
4.9776329705
 31
0.0
  0
LINE
  5
5F
  8
0
 10
2.980984235
 20
4.9776329705
 30
0.0
 11
2.631951719
 21
5.1071628705
 31
0.0
  0
LINE
  5
60
  8
0
 10
2.631951719
 20
5.1071628705
 30
0.0
 11
2.358560587
 21
5.2055657305
 31
0.0
  0
LINE
  5
61
  8
0
 10
2.358560587
 20
5.2055657305
 30
0.0
 11
1.988779869
 21
5.268865160500001
 31
0.0
  0
LINE
  5
62
  8
0
 10
1.988779869
 20
5.268865160500001
 30
0.0
 11
1.745542153
 21
5.3046880105
 31
0.0
  0
LINE
  5
63
  8
0
 10
1.745542153
 20
5.3046880105
 30
0.0
 11
1.371280884
 21
5.3141114705
 31
0.0
  0
LINE
  5
64
  8
0
 10
1.371280884
 20
5.3141114705
 30
0.0
 11
1.145057264
 21
5.312352370499999
 31
0.0
  0
LINE
  5
65
  8
0
 10
1.145057264
 20
5.312352370499999
 30
0.0
 11
0.78106812
 21
5.304489840499999
 31
0.0
  0
LINE
  5
66
  8
0
 10
0.78106812
 20
5.304489840499999
 30
0.0
 11
0.5682650808
 21
5.2951991504999985
 31
0.0
  0
LINE
  5
67
  8
0
 10
0.5682650808
 20
5.2951991504999985
 30
0.0
 11
0.2084945664
 21
5.289109910500001
 31
0.0
  0
LINE
  5
68
  8
0
 10
0.2084945664
 20
5.289109910500001
 30
0.0
 11
-3.552713679e-15
 21
5.2839947305
 31
0.0
  0
LINE
  5
69
  8
0
 10
-3.552713679e-15
 20
5.2839947305
 30
0.0
 11
-0.2133003639
 21
5.2896880705000004
 31
0.0
  0
LINE
  5
6A
  8
0
 10
-0.2133003639
 20
5.2896880705000004
 30
0.0
 11
-0.5803431509
 21
5.2967626805000005
 31
0.0
  0
LINE
  5
6B
  8
0
 10
-0.5803431509
 20
5.2967626805000005
 30
0.0
 11
-0.8015423587
 21
5.306335110499999
 31
0.0
  0
LINE
  5
6C
  8
0
 10
-0.8015423587
 20
5.306335110499999
 30
0.0
 11
-1.1759277
 21
5.314547400499999
 31
0.0
  0
LINE
  5
6D
  8
0
 10
-1.1759277
 20
5.314547400499999
 30
0.0
 11
-1.404433172
 21
5.3158430305
 31
0.0
  0
LINE
  5
6E
  8
0
 10
-1.404433172
 20
5.3158430305
 30
0.0
 11
-1.776696111
 21
5.305683350499999
 31
0.0
  0
LINE
  5
6F
  8
0
 10
-1.776696111
 20
5.305683350499999
 30
0.0
 11
-2.0145082
 21
5.2690120905
 31
0.0
  0
LINE
  5
70
  8
0
 10
-2.0145082
 20
5.2690120905
 30
0.0
 11
-2.371307248
 21
5.205189600500001
 31
0.0
  0
LINE
  5
71
  8
0
 10
-2.371307248
 20
5.205189600500001
 30
0.0
 11
-2.639839868
 21
5.106674050500001
 31
0.0
  0
LINE
  5
72
  8
0
 10
-2.639839868
 20
5.106674050500001
 30
0.0
 11
-2.980984235
 21
4.9776329705
 31
0.0
  0
LINE
  5
73
  8
0
 10
-2.980984235
 20
4.9776329705
 30
0.0
 11
-3.353049732
 21
4.6707646405
 31
0.0
  0
LINE
  5
74
  8
0
 10
-3.353049732
 20
4.6707646405
 30
0.0
 11
-3.734803052
 21
4.3439373405
 31
0.0
  0
LINE
  5
75
  8
0
 10
-3.734803052
 20
4.3439373405
 30
0.0
 11
-4.049209574
 21
3.874706250499999
 31
0.0
  0
LINE
  5
76
  8
0
 10
-4.049209574
 20
3.874706250499999
 30
0.0
 11
-4.274428244
 21
3.5222699204999994
 31
0.0
  0
LINE
  5
77
  8
0
 10
-4.274428244
 20
3.5222699204999994
 30
0.0
 11
-4.473015605
 21
2.8312305605
 31
0.0
  0
LINE
  5
78
  8
0
 10
-4.473015605
 20
2.8312305605
 30
0.0
 11
-4.566854257
 21
2.475427140500001
 31
0.0
  0
LINE
  5
79
  8
0
 10
-4.566854257
 20
2.475427140500001
 30
0.0
 11
-4.696507832
 21
1.5636284704999994
 31
0.0
  0
LINE
  5
7A
  8
0
 10
-4.696507832
 20
1.5636284704999994
 30
0.0
 11
-4.740133595
 21
1.2327644805000002
 31
0.0
  0
LINE
  5
7B
  8
0
 10
-4.740133595
 20
1.2327644805000002
 30
0.0
 11
-4.790571476
 21
0.24609803050000068
 31
0.0
  0
LINE
  5
7C
  8
0
 10
-4.790571476
 20
0.24609803050000068
 30
0.0
 11
-4.804666399
 21
-0.05103881950000044
 31
0.0
  0
LINE
  5
7D
  8
0
 10
0.2
 20
0.2
 30
0.0
 11
0.2
 21
-0.2
 31
0.0
  0
LINE
  5
7E
  8
0
 10
0.2
 20
-0.2
 30
0.0
 11
-0.2
 21
-0.2
 31
0.0
  0
LINE
  5
7F
  8
0
 10
-0.2
 20
-0.2
 30
0.0
 11
-0.2
 21
0.2
 31
0.0
  0
LINE
  5
80
  8
0
 10
-0.2
 20
0.2
 30
0.0
 11
0.2
 21
0.2
 31
0.0
  0
ENDSEC
  0
EOF
