  0
SECTION
  2
HEADER
  9
$ACADVER
  1
AC1024
  9
$ACADMAINTVER
 70
6
  9
$DWGCODEPAGE
  3
ANSI_1252
  9
$LASTSAVEDBY
  1
ezdxf
  9
$INSBASE
 10
0.0
 20
0.0
 30
0.0
  9
$EXTMIN
 10
-100
 20
-100
 30
-100
  9
$EXTMAX
 10
100
 20
100
 30
100
  9
$LIMMIN
 10
0.0
 20
0.0
  9
$LIMMAX
 10
420.0
 20
297.0
  9
$ORTHOMODE
 70
0
  9
$REGENMODE
 70
1
  9
$FILLMODE
 70
1
  9
$QTEXTMODE
 70
0
  9
$MIRRTEXT
 70
1
  9
$LTSCALE
 40
1.0
  9
$ATTMODE
 70
1
  9
$TEXTSIZE
 40
2.5
  9
$TRACEWID
 40
1.0
  9
$TEXTSTYLE
  7
Standard
  9
$CLAYER
  8
0
  9
$CELTYPE
  6
ByLayer
  9
$CECOLOR
 62
256
  9
$CELTSCALE
 40
1.0
  9
$DISPSILH
 70
0
  9
$DIMSCALE
 40
1.0
  9
$DIMASZ
 40
2.5
  9
$DIMEXO
 40
0.625
  9
$DIMDLI
 40
3.75
  9
$DIMRND
 40
0.0
  9
$DIMDLE
 40
0.0
  9
$DIMEXE
 40
1.25
  9
$DIMTP
 40
0.0
  9
$DIMTM
 40
0.0
  9
$DIMTXT
 40
2.5
  9
$DIMCEN
 40
2.5
  9
$DIMTSZ
 40
0.0
  9
$DIMTOL
 70
0
  9
$DIMLIM
 70
0
  9
$DIMTIH
 70
0
  9
$DIMTOH
 70
0
  9
$DIMSE1
 70
0
  9
$DIMSE2
 70
0
  9
$DIMTAD
 70
1
  9
$DIMZIN
 70
8
  9
$DIMBLK
  1

  9
$DIMASO
 70
1
  9
$DIMSHO
 70
1
  9
$DIMPOST
  1

  9
$DIMAPOST
  1

  9
$DIMALT
 70
0
  9
$DIMALTD
 70
3
  9
$DIMALTF
 40
0.03937007874
  9
$DIMLFAC
 40
1.0
  9
$DIMTOFL
 70
1
  9
$DIMTVP
 40
0.0
  9
$DIMTIX
 70
0
  9
$DIMSOXD
 70
0
  9
$DIMSAH
 70
0
  9
$DIMBLK1
  1

  9
$DIMBLK2
  1

  9
$DIMSTYLE
  2
ISO-25
  9
$DIMCLRD
 70
0
  9
$DIMCLRE
 70
0
  9
$DIMCLRT
 70
0
  9
$DIMTFAC
 40
1.0
  9
$DIMGAP
 40
0.625
  9
$DIMJUST
 70
0
  9
$DIMSD1
 70
0
  9
$DIMSD2
 70
0
  9
$DIMTOLJ
 70
0
  9
$DIMTZIN
 70
8
  9
$DIMALTZ
 70
0
  9
$DIMALTTZ
 70
0
  9
$DIMUPT
 70
0
  9
$DIMDEC
 70
2
  9
$DIMTDEC
 70
2
  9
$DIMALTU
 70
2
  9
$DIMALTTD
 70
3
  9
$DIMTXSTY
  7
Standard
  9
$DIMAUNIT
 70
0
  9
$DIMADEC
 70
0
  9
$DIMALTRND
 40
0.0
  9
$DIMAZIN
 70
0
  9
$DIMDSEP
 70
44
  9
$DIMATFIT
 70
3
  9
$DIMFRAC
 70
0
  9
$DIMLDRBLK
  1

  9
$DIMLUNIT
 70
2
  9
$DIMLWD
 70
-2
  9
$DIMLWE
 70
-2
  9
$DIMTMOVE
 70
0
  9
$DIMFXL
 40
1.0
  9
$DIMFXLON
 70
0
  9
$DIMJOGANG
 40
0.785398163397
  9
$DIMTFILL
 70
0
  9
$DIMTFILLCLR
 70
0
  9
$DIMARCSYM
 70
0
  9
$DIMLTYPE
  6

  9
$DIMLTEX1
  6

  9
$DIMLTEX2
  6

  9
$DIMTXTDIRECTION
 70
0
  9
$LUNITS
 70
2
  9
$LUPREC
 70
4
  9
$SKETCHINC
 40
1.0
  9
$FILLETRAD
 40
10.0
  9
$AUNITS
 70
0
  9
$AUPREC
 70
2
  9
$MENU
  1
.
  9
$ELEVATION
 40
0.0
  9
$PELEVATION
 40
0.0
  9
$THICKNESS
 40
0.0
  9
$LIMCHECK
 70
0
  9
$CHAMFERA
 40
0.0
  9
$CHAMFERB
 40
0.0
  9
$CHAMFERC
 40
0.0
  9
$CHAMFERD
 40
0.0
  9
$SKPOLY
 70
0
  9
$TDCREATE
 40
2459744.44125
  9
$TDUCREATE
 40
2458532.153996898
  9
$TDUPDATE
 40
2459744.44125
  9
$TDUUPDATE
 40
2458532.1544311
  9
$TDINDWG
 40
0.0
  9
$TDUSRTIMER
 40
0.0
  9
$USRTIMER
 70
1
  9
$ANGBASE
 50
0.0
  9
$ANGDIR
 70
0
  9
$PDMODE
 70
0
  9
$PDSIZE
 40
0.0
  9
$PLINEWID
 40
0.0
  9
$SPLFRAME
 70
0
  9
$SPLINETYPE
 70
6
  9
$SPLINESEGS
 70
8
  9
$HANDSEED
  5
15E
  9
$SURFTAB1
 70
6
  9
$SURFTAB2
 70
6
  9
$SURFTYPE
 70
6
  9
$SURFU
 70
6
  9
$SURFV
 70
6
  9
$UCSBASE
  2

  9
$UCSNAME
  2

  9
$UCSORG
 10
0.0
 20
0.0
 30
0.0
  9
$UCSXDIR
 10
1.0
 20
0.0
 30
0.0
  9
$UCSYDIR
 10
0.0
 20
1.0
 30
0.0
  9
$UCSORTHOREF
  2

  9
$UCSORTHOVIEW
 70
0
  9
$UCSORGTOP
 10
0.0
 20
0.0
 30
0.0
  9
$UCSORGBOTTOM
 10
0.0
 20
0.0
 30
0.0
  9
$UCSORGLEFT
 10
0.0
 20
0.0
 30
0.0
  9
$UCSORGRIGHT
 10
0.0
 20
0.0
 30
0.0
  9
$UCSORGFRONT
 10
0.0
 20
0.0
 30
0.0
  9
$UCSORGBACK
 10
0.0
 20
0.0
 30
0.0
  9
$PUCSBASE
  2

  9
$PUCSNAME
  2

  9
$PUCSORG
 10
0.0
 20
0.0
 30
0.0
  9
$PUCSXDIR
 10
1.0
 20
0.0
 30
0.0
  9
$PUCSYDIR
 10
0.0
 20
1.0
 30
0.0
  9
$PUCSORTHOREF
  2

  9
$PUCSORTHOVIEW
 70
0
  9
$PUCSORGTOP
 10
0.0
 20
0.0
 30
0.0
  9
$PUCSORGBOTTOM
 10
0.0
 20
0.0
 30
0.0
  9
$PUCSORGLEFT
 10
0.0
 20
0.0
 30
0.0
  9
$PUCSORGRIGHT
 10
0.0
 20
0.0
 30
0.0
  9
$PUCSORGFRONT
 10
0.0
 20
0.0
 30
0.0
  9
$PUCSORGBACK
 10
0.0
 20
0.0
 30
0.0
  9
$USERI1
 70
0
  9
$USERI2
 70
0
  9
$USERI3
 70
0
  9
$USERI4
 70
0
  9
$USERI5
 70
0
  9
$USERR1
 40
0.0
  9
$USERR2
 40
0.0
  9
$USERR3
 40
0.0
  9
$USERR4
 40
0.0
  9
$USERR5
 40
0.0
  9
$WORLDVIEW
 70
1
  9
$SHADEDGE
 70
3
  9
$SHADEDIF
 70
70
  9
$TILEMODE
 70
1
  9
$MAXACTVP
 70
64
  9
$PINSBASE
 10
0.0
 20
0.0
 30
0.0
  9
$PLIMCHECK
 70
0
  9
$PEXTMIN
 10
1e+20
 20
1e+20
 30
1e+20
  9
$PEXTMAX
 10
-1e+20
 20
-1e+20
 30
-1e+20
  9
$PLIMMIN
 10
0.0
 20
0.0
  9
$PLIMMAX
 10
420.0
 20
297.0
  9
$UNITMODE
 70
0
  9
$VISRETAIN
 70
1
  9
$PLINEGEN
 70
0
  9
$PSLTSCALE
 70
1
  9
$TREEDEPTH
 70
3020
  9
$CMLSTYLE
  2
Standard
  9
$CMLJUST
 70
0
  9
$CMLSCALE
 40
20.0
  9
$PROXYGRAPHICS
 70
1
  9
$MEASUREMENT
 70
1
  9
$CELWEIGHT
370
-1
  9
$ENDCAPS
280
0
  9
$JOINSTYLE
280
0
  9
$LWDISPLAY
290
0
  9
$INSUNITS
 70
6
  9
$HYPERLINKBASE
  1

  9
$STYLESHEET
  1

  9
$XEDIT
290
1
  9
$CEPSNTYPE
380
0
  9
$PSTYLEMODE
290
1
  9
$FINGERPRINTGUID
  2
C5056BBA-EAF3-11EC-8FFA-088FC3043410
  9
$VERSIONGUID
  2
C507196E-EAF3-11EC-B51A-088FC3043410
  9
$EXTNAMES
290
1
  9
$PSVPSCALE
 40
0.0
  9
$OLESTARTUP
290
0
  9
$SORTENTS
280
127
  9
$INDEXCTL
280
0
  9
$HIDETEXT
280
1
  9
$XCLIPFRAME
280
2
  9
$HALOGAP
280
0
  9
$OBSCOLOR
 70
257
  9
$OBSLTYPE
280
0
  9
$INTERSECTIONDISPLAY
280
0
  9
$INTERSECTIONCOLOR
 70
257
  9
$DIMASSOC
280
2
  9
$PROJECTNAME
  1

  9
$CAMERADISPLAY
290
0
  9
$LENSLENGTH
 40
50.0
  9
$CAMERAHEIGHT
 40
0.0
  9
$STEPSPERSEC
 40
24.0
  9
$STEPSIZE
 40
100.0
  9
$3DDWFPREC
 40
2.0
  9
$PSOLWIDTH
 40
0.005
  9
$PSOLHEIGHT
 40
0.08
  9
$LOFTANG1
 40
1.570796326795
  9
$LOFTANG2
 40
1.570796326795
  9
$LOFTMAG1
 40
0.0
  9
$LOFTMAG2
 40
0.0
  9
$LOFTPARAM
 70
7
  9
$LOFTNORMALS
280
1
  9
$LATITUDE
 40
37.795
  9
$LONGITUDE
 40
-122.394
  9
$NORTHDIRECTION
 40
0.0
  9
$TIMEZONE
 70
-8000
  9
$LIGHTGLYPHDISPLAY
280
1
  9
$TILEMODELIGHTSYNCH
280
1
  9
$CMATERIAL
347
20
  9
$SOLIDHIST
280
0
  9
$SHOWHIST
280
1
  9
$DWFFRAME
280
2
  9
$DGNFRAME
280
2
  9
$REALWORLDSCALE
290
1
  9
$INTERFERECOLOR
 62
256
  9
$CSHADOW
280
0
  9
$SHADOWPLANELOCATION
 40
0.0
  0
ENDSEC
  0
SECTION
  2
CLASSES
  0
CLASS
  1
ACDBDICTIONARYWDFLT
  2
AcDbDictionaryWithDefault
  3
ObjectDBX Classes
 90
0
 91
0
280
0
281
0
  0
CLASS
  1
SUN
  2
AcDbSun
  3
SCENEOE
 90
1153
 91
0
280
0
281
0
  0
CLASS
  1
VISUALSTYLE
  2
AcDbVisualStyle
  3
ObjectDBX Classes
 90
4095
 91
0
280
0
281
0
  0
CLASS
  1
MATERIAL
  2
AcDbMaterial
  3
ObjectDBX Classes
 90
1153
 91
0
280
0
281
0
  0
CLASS
  1
SCALE
  2
AcDbScale
  3
ObjectDBX Classes
 90
1153
 91
0
280
0
281
0
  0
CLASS
  1
TABLESTYLE
  2
AcDbTableStyle
  3
ObjectDBX Classes
 90
4095
 91
0
280
0
281
0
  0
CLASS
  1
MLEADERSTYLE
  2
AcDbMLeaderStyle
  3
ACDB_MLEADERSTYLE_CLASS
 90
4095
 91
0
280
0
281
0
  0
CLASS
  1
DICTIONARYVAR
  2
AcDbDictionaryVar
  3
ObjectDBX Classes
 90
0
 91
0
280
0
281
0
  0
CLASS
  1
CELLSTYLEMAP
  2
AcDbCellStyleMap
  3
ObjectDBX Classes
 90
1152
 91
0
280
0
281
0
  0
CLASS
  1
MENTALRAYRENDERSETTINGS
  2
AcDbMentalRayRenderSettings
  3
SCENEOE
 90
1024
 91
0
280
0
281
0
  0
CLASS
  1
ACDBDETAILVIEWSTYLE
  2
AcDbDetailViewStyle
  3
ObjectDBX Classes
 90
1025
 91
0
280
0
281
0
  0
CLASS
  1
ACDBSECTIONVIEWSTYLE
  2
AcDbSectionViewStyle
  3
ObjectDBX Classes
 90
1025
 91
0
280
0
281
0
  0
CLASS
  1
RASTERVARIABLES
  2
AcDbRasterVariables
  3
ISM
 90
0
 91
0
280
0
281
0
  0
CLASS
  1
ACDBPLACEHOLDER
  2
AcDbPlaceHolder
  3
ObjectDBX Classes
 90
0
 91
0
280
0
281
0
  0
CLASS
  1
LAYOUT
  2
AcDbLayout
  3
ObjectDBX Classes
 90
0
 91
0
280
0
281
0
  0
ENDSEC
  0
SECTION
  2
TABLES
  0
TABLE
  2
VPORT
  5
8
330
0
100
AcDbSymbolTable
 70
1
  0
VPORT
  5
23
330
8
100
AcDbSymbolTableRecord
100
AcDbViewportTableRecord
  2
*Active
 70
0
 10
0.0
 20
0.0
 11
1.0
 21
1.0
 12
70.0
 22
50.0
 13
0.0
 23
0.0
 14
0.5
 24
0.5
 15
0.5
 25
0.5
 16
0.0
 26
0.0
 36
1.0
 17
0.0
 27
0.0
 37
0.0
 40
1.0
 41
1.34
 42
50.0
 43
0.0
 44
0.0
 50
0.0
 51
0.0
 71
0
 72
1000
 73
1
 74
3
 75
0
 76
0
 77
0
 78
0
281
0
 65
0
146
0.0
  0
ENDTAB
  0
TABLE
  2
LTYPE
  5
2
330
0
100
AcDbSymbolTable
 70
3
  0
LTYPE
  5
24
330
2
100
AcDbSymbolTableRecord
100
AcDbLinetypeTableRecord
  2
ByBlock
 70
0
  3

 72
65
 73
0
 40
0.0
  0
LTYPE
  5
25
330
2
100
AcDbSymbolTableRecord
100
AcDbLinetypeTableRecord
  2
ByLayer
 70
0
  3

 72
65
 73
0
 40
0.0
  0
LTYPE
  5
26
330
2
100
AcDbSymbolTableRecord
100
AcDbLinetypeTableRecord
  2
Continuous
 70
0
  3

 72
65
 73
0
 40
0.0
  0
ENDTAB
  0
TABLE
  2
LAYER
  5
1
330
0
100
AcDbSymbolTable
 70
2
  0
LAYER
  5
27
330
1
100
AcDbSymbolTableRecord
100
AcDbLayerTableRecord
  2
0
 70
0
 62
7
  6
Continuous
370
-3
390
13
347
21
  0
LAYER
  5
28
330
1
100
AcDbSymbolTableRecord
100
AcDbLayerTableRecord
  2
Defpoints
 70
0
 62
7
  6
Continuous
290
0
370
-3
390
13
347
21
  0
ENDTAB
  0
TABLE
  2
STYLE
  5
5
330
0
100
AcDbSymbolTable
 70
1
  0
STYLE
  5
29
330
5
100
AcDbSymbolTableRecord
100
AcDbTextStyleTableRecord
  2
Standard
 70
0
 40
0.0
 41
1.0
 50
0.0
 71
0
 42
2.5
  3
txt
  4

  0
ENDTAB
  0
TABLE
  2
VIEW
  5
7
330
0
100
AcDbSymbolTable
 70
0
  0
ENDTAB
  0
TABLE
  2
UCS
  5
6
330
0
100
AcDbSymbolTable
 70
0
  0
ENDTAB
  0
TABLE
  2
APPID
  5
3
330
0
100
AcDbSymbolTable
 70
2
  0
APPID
  5
2A
330
3
100
AcDbSymbolTableRecord
100
AcDbRegAppTableRecord
  2
ACAD
 70
0
  0
APPID
  5
15D
330
3
100
AcDbSymbolTableRecord
100
AcDbRegAppTableRecord
  2
HATCHBACKGROUNDCOLOR
 70
0
  0
ENDTAB
  0
TABLE
  2
DIMSTYLE
  5
4
330
0
100
AcDbSymbolTable
 70
1
100
AcDbDimStyleTable
  0
DIMSTYLE
105
2B
330
4
100
AcDbSymbolTableRecord
100
AcDbDimStyleTableRecord
  2
Standard
 70
0
 40
1.0
 41
2.5
 42
0.625
 43
3.75
 44
1.25
 45
0.0
 46
0.0
 47
0.0
 48
0.0
 49
2.5
140
2.5
141
2.5
142
0.0
143
0.03937007874
144
1.0
145
0.0
146
1.0
147
0.625
148
0.0
 69
0
 70
0
 71
0
 72
0
 73
0
 74
0
 75
0
 76
0
 77
1
 78
8
 79
0
170
0
171
3
172
1
173
0
174
0
175
0
176
0
177
0
178
0
179
0
271
0
272
2
273
2
274
3
275
0
276
0
277
2
278
44
279
0
280
0
281
0
282
0
283
0
284
8
285
0
286
0
288
0
289
3
290
0
371
-2
372
-2
  0
ENDTAB
  0
TABLE
  2
BLOCK_RECORD
  5
9
330
0
100
AcDbSymbolTable
 70
2
  0
BLOCK_RECORD
  5
17
330
9
100
AcDbSymbolTableRecord
100
AcDbBlockTableRecord
  2
*Model_Space
340
1A
 70
0
280
1
281
0
  0
BLOCK_RECORD
  5
1B
330
9
100
AcDbSymbolTableRecord
100
AcDbBlockTableRecord
  2
*Paper_Space
340
1E
 70
0
280
1
281
0
  0
ENDTAB
  0
ENDSEC
  0
SECTION
  2
BLOCKS
  0
BLOCK
  5
18
330
17
100
AcDbEntity
  8
0
100
AcDbBlockBegin
  2
*Model_Space
 70
0
 10
0.0
 20
0.0
 30
0.0
  3
*Model_Space
  1

  0
ENDBLK
  5
19
330
17
100
AcDbEntity
  8
0
100
AcDbBlockEnd
  0
BLOCK
  5
1C
330
1B
100
AcDbEntity
  8
0
100
AcDbBlockBegin
  2
*Paper_Space
 70
0
 10
0.0
 20
0.0
 30
0.0
  3
*Paper_Space
  1

  0
ENDBLK
  5
1D
330
1B
100
AcDbEntity
  8
0
100
AcDbBlockEnd
  0
ENDSEC
  0
SECTION
  2
ENTITIES
  0
LINE
  5
2D
330
17
100
AcDbEntity
  8
0
100
AcDbLine
 10
-3.2385023265
 20
-0.002322675549999903
 30
-3.1408754470178715
 11
-3.3204066135
 21
-0.025179026609999905
 31
-3.134009683511453
  0
LINE
  5
2E
330
17
100
AcDbEntity
  8
0
100
AcDbLine
 10
-3.3204066135
 20
-0.025179026609999905
 30
-3.134009683511453
 11
-3.3302646495
 21
-0.028218543049999906
 31
-3.133119492833821
  0
LINE
  5
2F
330
17
100
AcDbEntity
  8
0
100
AcDbLine
 10
-3.3302646495
 20
-0.028218543049999906
 30
-3.133119492833821
 11
-3.3723610605000003
 21
-0.04468288684999991
 31
-3.1283436949080095
  0
LINE
  5
30
330
17
100
AcDbEntity
  8
0
100
AcDbLine
 10
-3.3723610605000003
 20
-0.04468288684999991
 30
-3.1283436949080095
 11
-3.3934608605000003
 21
-0.054002036839999906
 31
-3.1256804385278483
  0
LINE
  5
31
330
17
100
AcDbEntity
  8
0
100
AcDbLine
 10
-3.3934608605000003
 20
-0.054002036839999906
 30
-3.1256804385278483
 11
-3.4066745055000003
 21
-0.0598452470399999
 31
-3.1240274027940975
  0
LINE
  5
32
330
17
100
AcDbEntity
  8
0
100
AcDbLine
 10
-3.4066745055000003
 20
-0.0598452470399999
 30
-3.1240274027940975
 11
-3.4262347755
 21
-0.06992757639999991
 31
-3.121186034060745
  0
LINE
  5
33
330
17
100
AcDbEntity
  8
0
100
AcDbLine
 10
-3.4262347755
 20
-0.06992757639999991
 30
-3.121186034060745
 11
-3.4295510145
 21
-0.0722854644699999
 31
-3.1205185355070792
  0
LINE
  5
34
330
17
100
AcDbEntity
  8
0
100
AcDbLine
 10
-3.4295510145
 20
-0.0722854644699999
 30
-3.1205185355070792
 11
-3.4298604435
 21
-0.0725523720699999
 31
-3.12044265205534
  0
LINE
  5
35
330
17
100
AcDbEntity
  8
0
100
AcDbLine
 10
-3.4298604435
 20
-0.0725523720699999
 30
-3.12044265205534
 11
-3.4417046005
 21
-0.08291980304999991
 31
-3.1175046581074795
  0
LINE
  5
36
330
17
100
AcDbEntity
  8
0
100
AcDbLine
 10
-3.4417046005
 20
-0.08291980304999991
 30
-3.1175046581074795
 11
-3.4426861135
 21
-0.08404787466999991
 31
-3.117184043602629
  0
LINE
  5
37
330
17
100
AcDbEntity
  8
0
100
AcDbLine
 10
-3.4426861135
 20
-0.08404787466999991
 30
-3.117184043602629
 11
-3.4497972855
 21
-0.0924234697099999
 31
-3.114808074945649
  0
LINE
  5
38
330
17
100
AcDbEntity
  8
0
100
AcDbLine
 10
-3.4497972855
 20
-0.0924234697099999
 30
-3.114808074945649
 11
-3.4506681545
 21
-0.09401764391999991
 31
-3.1143531784480376
  0
LINE
  5
39
330
17
100
AcDbEntity
  8
0
100
AcDbLine
 10
-3.4506681545
 20
-0.09401764391999991
 30
-3.1143531784480376
 11
-3.4544899695
 21
-0.1012717959439999
 31
-3.112285056846695
  0
LINE
  5
3A
330
17
100
AcDbEntity
  8
0
100
AcDbLine
 10
-3.4544899695
 20
-0.1012717959439999
 30
-3.112285056846695
 11
-3.4548327675
 21
-0.1030893758679999
 31
-3.111762325173298
  0
LINE
  5
3B
330
17
100
AcDbEntity
  8
0
100
AcDbLine
 10
-3.4548327675
 20
-0.1030893758679999
 30
-3.111762325173298
 11
-3.4551314555
 21
-0.1047527551649999
 31
-3.1112839146693623
  0
LINE
  5
3C
330
17
100
AcDbEntity
  8
0
100
AcDbLine
 10
-3.4551314555
 20
-0.1047527551649999
 30
-3.1112839146693623
 11
-3.4560507165
 21
-0.10987206494999946
 31
-3.1098121384396644
  0
LINE
  5
3D
330
17
100
AcDbEntity
  8
0
100
AcDbLine
 10
-3.4560507165
 20
-0.10987206494999946
 30
-3.1098121384396644
 11
-3.4548327675
 21
-0.1166547540319999
 31
-3.1078398039779938
  0
LINE
  5
3E
330
17
100
AcDbEntity
  8
0
100
AcDbLine
 10
-3.4548327675
 20
-0.1166547540319999
 30
-3.1078398039779938
 11
-3.4544899695
 21
-0.1184723339559999
 31
-3.107310915816646
  0
LINE
  5
3F
330
17
100
AcDbEntity
  8
0
100
AcDbLine
 10
-3.4544899695
 20
-0.1184723339559999
 30
-3.107310915816646
 11
-3.4506681545
 21
-0.1257264859799999
 31
-3.1051733605607694
  0
LINE
  5
40
330
17
100
AcDbEntity
  8
0
100
AcDbLine
 10
-3.4506681545
 20
-0.1257264859799999
 30
-3.1051733605607694
 11
-3.4497972855
 21
-0.1273206601899999
 31
-3.1047026891028455
  0
LINE
  5
41
330
17
100
AcDbEntity
  8
0
100
AcDbLine
 10
-3.4497972855
 20
-0.1273206601899999
 30
-3.1047026891028455
 11
-3.4426861135
 21
-0.1356962552299999
 31
-3.1021972386851986
  0
LINE
  5
42
330
17
100
AcDbEntity
  8
0
100
AcDbLine
 10
-3.4426861135
 20
-0.1356962552299999
 30
-3.1021972386851986
 11
-3.4417046005
 21
-0.1368243268499999
 31
-3.1018587630095107
  0
LINE
  5
43
330
17
100
AcDbEntity
  8
0
100
AcDbLine
 10
-3.4417046005
 20
-0.1368243268499999
 30
-3.1018587630095107
 11
-3.4298604435
 21
-0.1471917578299999
 31
-3.0987041746123403
  0
LINE
  5
44
330
17
100
AcDbEntity
  8
0
100
AcDbLine
 10
-3.4298604435
 20
-0.1471917578299999
 30
-3.0987041746123403
 11
-3.4295510145
 21
-0.1474586654299999
 31
-3.098622627308904
  0
LINE
  5
45
330
17
100
AcDbEntity
  8
0
100
AcDbLine
 10
-3.4295510145
 20
-0.1474586654299999
 30
-3.098622627308904
 11
-3.4262347755
 21
-0.1498165534999999
 31
-3.0978941944447587
  0
LINE
  5
46
330
17
100
AcDbEntity
  8
0
100
AcDbLine
 10
-3.4262347755
 20
-0.1498165534999999
 30
-3.0978941944447587
 11
-3.4066745055000003
 21
-0.1598988828599999
 31
-3.094690134897045
  0
LINE
  5
47
330
17
100
AcDbEntity
  8
0
100
AcDbLine
 10
-3.4066745055000003
 20
-0.1598988828599999
 30
-3.094690134897045
 11
-3.3934608605000003
 21
-0.1657420930599999
 31
-3.092789825022018
  0
LINE
  5
48
330
17
100
AcDbEntity
  8
0
100
AcDbLine
 10
-3.3934608605000003
 20
-0.1657420930599999
 30
-3.092789825022018
 11
-3.3723610605000003
 21
-0.1750612430499999
 31
-3.0897286190778326
  0
LINE
  5
49
330
17
100
AcDbEntity
  8
0
100
AcDbLine
 10
-3.3723610605000003
 20
-0.1750612430499999
 30
-3.0897286190778326
 11
-3.3302646495
 21
-0.1915255868499999
 31
-3.084145312344403
  0
LINE
  5
4A
330
17
100
AcDbEntity
  8
0
100
AcDbLine
 10
-3.3302646495
 20
-0.1915255868499999
 30
-3.084145312344403
 11
-3.3204066135
 21
-0.1945651032899999
 31
-3.0830628111611262
  0
LINE
  5
4B
330
17
100
AcDbEntity
  8
0
100
AcDbLine
 10
-3.3204066135
 20
-0.1945651032899999
 30
-3.0830628111611262
 11
-3.2385023265
 21
-0.2174214543499999
 31
-3.074556829039322
  0
LINE
  5
4C
330
17
100
AcDbEntity
  8
0
100
AcDbLine
 10
-3.2385023265
 20
-0.2174214543499999
 30
-3.074556829039322
 11
-3.2207499875
 21
-0.2215278092499999
 31
-3.0729193764176537
  0
LINE
  5
4D
330
17
100
AcDbEntity
  8
0
100
AcDbLine
 10
-3.2207499875
 20
-0.2215278092499999
 30
-3.0729193764176537
 11
-3.1649179325
 21
-0.2334821116499999
 31
-3.0679541155277366
  0
LINE
  5
4E
330
17
100
AcDbEntity
  8
0
100
AcDbLine
 10
-3.1649179325
 20
-0.2334821116499999
 30
-3.0679541155277366
 11
-3.1449021495
 21
-0.2566968627499999
 31
-3.060150035904163
  0
LINE
  5
4F
330
17
100
AcDbEntity
  8
0
100
AcDbLine
 10
-3.1449021495
 20
-0.2566968627499999
 30
-3.060150035904163
 11
-3.0921303045000004
 21
-0.31031850534999994
 31
-3.0415700409777804
  0
LINE
  5
50
330
17
100
AcDbEntity
  8
0
100
AcDbLine
 10
-3.0921303045000004
 20
-0.31031850534999994
 30
-3.0415700409777804
 11
-3.0880068265
 21
-0.31803013754999987
 31
-3.038965670800301
  0
LINE
  5
51
330
17
100
AcDbEntity
  8
0
100
AcDbLine
 10
-3.0880068265
 20
-0.31803013754999987
 30
-3.038965670800301
 11
-3.0349179325
 21
-0.4150535171499999
 31
-3.005676433869724
  0
LINE
  5
52
330
17
100
AcDbEntity
  8
0
100
AcDbLine
 10
-3.0349179325
 20
-0.4150535171499999
 30
-3.005676433869724
 11
-2.9931129235
 21
-0.4496393283499999
 31
-2.9924830108680234
  0
LINE
  5
53
330
17
100
AcDbEntity
  8
0
100
AcDbLine
 10
-2.9931129235
 20
-0.4496393283499999
 30
-2.9924830108680234
 11
-2.9779805015000003
 21
-0.4618861896499999
 31
-2.987718237461851
  0
LINE
  5
54
330
17
100
AcDbEntity
  8
0
100
AcDbLine
 10
-2.9779805015000003
 20
-0.4618861896499999
 30
-2.987718237461851
 11
-2.9034966895
 21
-0.52102513805
 31
-2.9640349557288093
  0
LINE
  5
55
330
17
100
AcDbEntity
  8
0
100
AcDbLine
 10
-2.9034966895
 20
-0.52102513805
 30
-2.9640349557288093
 11
-2.8928466725
 21
-0.5293610531499999
 31
-2.96060538909463
  0
LINE
  5
56
330
17
100
AcDbEntity
  8
0
100
AcDbLine
 10
-2.8928466725
 20
-0.5293610531499999
 30
-2.96060538909463
 11
-2.7911052965
 21
-0.6048161822499999
 31
-2.9281977631711005
  0
LINE
  5
57
330
17
100
AcDbEntity
  8
0
100
AcDbLine
 10
-2.7911052965
 20
-0.6048161822499999
 30
-2.9281977631711005
 11
-2.7907126275
 21
-0.6051042574499998
 31
-2.928070047455022
  0
LINE
  5
58
330
17
100
AcDbEntity
  8
0
100
AcDbLine
 10
-2.7907126275
 20
-0.6051042574499998
 30
-2.928070047455022
 11
-2.7864792215
 21
-0.6079084904499998
 31
-2.926794591471658
  0
LINE
  5
59
330
17
100
AcDbEntity
  8
0
100
AcDbLine
 10
-2.7864792215
 20
-0.6079084904499998
 30
-2.926794591471658
 11
-2.6828110065
 21
-0.6759075670499999
 31
-2.8947888864118596
  0
LINE
  5
5A
330
17
100
AcDbEntity
  8
0
100
AcDbLine
 10
-2.6828110065
 20
-0.6759075670499999
 30
-2.8947888864118596
 11
-2.6755804705
 21
-0.6797388540499999
 31
-2.8928031923360025
  0
LINE
  5
5B
330
17
100
AcDbEntity
  8
0
100
AcDbLine
 10
-2.6755804705
 20
-0.6797388540499999
 30
-2.8928031923360025
 11
-2.5804494665
 21
-0.73004940665
 31
-2.8658823680859724
  0
LINE
  5
5C
330
17
100
AcDbEntity
  8
0
100
AcDbLine
 10
-2.5804494665
 20
-0.73004940665
 30
-2.8658823680859724
 11
-2.5701967505
 21
-0.7330598623499999
 31
-2.863754228828925
  0
LINE
  5
5D
330
17
100
AcDbEntity
  8
0
100
AcDbLine
 10
-2.5701967505
 20
-0.7330598623499999
 30
-2.863754228828925
 11
-2.4949179325
 21
-0.7551812958499999
 31
-2.8476717875593214
  0
LINE
  5
5E
330
17
100
AcDbEntity
  8
0
100
AcDbLine
 10
-2.4949179325
 20
-0.7551812958499999
 30
-2.8476717875593214
 11
-2.4791707295
 21
-0.7561807978499999
 31
-2.845542593443842
  0
LINE
  5
5F
330
17
100
AcDbEntity
  8
0
100
AcDbLine
 10
-2.4791707295
 20
-0.7561807978499999
 30
-2.845542593443842
 11
-2.3849875365
 21
-0.7624462071499999
 31
-2.83217491748167
  0
LINE
  5
60
330
17
100
AcDbEntity
  8
0
100
AcDbLine
 10
-2.3849875365
 20
-0.7624462071499999
 30
-2.83217491748167
 11
-2.3672270214999998
 21
-0.7629046829499999
 31
-2.8298248709581957
  0
LINE
  5
61
330
17
100
AcDbEntity
  8
0
100
AcDbLine
 10
-2.3672270214999998
 20
-0.7629046829499999
 30
-2.8298248709581957
 11
-2.2751331865
 21
-0.7657450374499999
 31
-2.8169305667997335
  0
LINE
  5
62
330
17
100
AcDbEntity
  8
0
100
AcDbLine
 10
-2.2751331865
 20
-0.7657450374499999
 30
-2.8169305667997335
 11
-2.2550153835
 21
-0.7658235216499999
 31
-2.814204671705084
  0
LINE
  5
63
330
17
100
AcDbEntity
  8
0
100
AcDbLine
 10
-2.2550153835
 20
-0.7658235216499999
 30
-2.814204671705084
 11
-2.1651713194999997
 21
-0.7666263896499999
 31
-2.801294894623634
  0
LINE
  5
64
330
17
100
AcDbEntity
  8
0
100
AcDbLine
 10
-2.1651713194999997
 20
-0.7666263896499999
 30
-2.801294894623634
 11
-2.1431065802
 21
-0.7665778347499999
 31
-2.7980793941714857
  0
LINE
  5
65
330
17
100
AcDbEntity
  8
0
100
AcDbLine
 10
-2.1431065802
 20
-0.7665778347499999
 30
-2.7980793941714857
 11
-2.0549179325
 21
-0.7666673805499999
 31
-2.7844983878393768
  0
LINE
  5
66
330
17
100
AcDbEntity
  8
0
100
AcDbLine
 10
-2.0549179325
 20
-0.7666673805499999
 30
-2.7844983878393768
 11
-2.0322767107
 21
-0.76585768225
 31
-2.7812035502065453
  0
LINE
  5
67
330
17
100
AcDbEntity
  8
0
100
AcDbLine
 10
-2.0322767107
 20
-0.76585768225
 30
-2.7812035502065453
 11
-1.94568398
 21
-0.7630532088499999
 31
-2.7678480675789734
  0
LINE
  5
68
330
17
100
AcDbEntity
  8
0
100
AcDbLine
 10
-1.94568398
 20
-0.7630532088499999
 30
-2.7678480675789734
 11
-1.9157479293000002
 21
-0.76073037215
 31
-2.7635946942059433
  0
LINE
  5
69
330
17
100
AcDbEntity
  8
0
100
AcDbLine
 10
-1.9157479293000002
 20
-0.76073037215
 30
-2.7635946942059433
 11
-1.8349233864
 21
-0.7547744801499999
 31
-2.751350154627301
  0
LINE
  5
6A
330
17
100
AcDbEntity
  8
0
100
AcDbLine
 10
-1.8349233864
 20
-0.7547744801499999
 30
-2.751350154627301
 11
-1.7902075784
 21
-0.75152512965
 31
-2.7441365896007013
  0
LINE
  5
6B
330
17
100
AcDbEntity
  8
0
100
AcDbLine
 10
-1.7902075784
 20
-0.75152512965
 30
-2.7441365896007013
 11
-1.7166610163000002
 21
-0.7463112353499999
 31
-2.7314962366666315
  0
LINE
  5
6C
330
17
100
AcDbEntity
  8
0
100
AcDbLine
 10
-1.7166610163000002
 20
-0.7463112353499999
 30
-2.7314962366666315
 11
-1.656452367
 21
-0.7445261794499999
 31
-2.719179295081448
  0
LINE
  5
6D
330
17
100
AcDbEntity
  8
0
100
AcDbLine
 10
-1.656452367
 20
-0.7445261794499999
 30
-2.719179295081448
 11
-1.5849179325
 21
-0.7422746486499999
 31
-2.7035952970183605
  0
LINE
  5
6E
330
17
100
AcDbEntity
  8
0
100
AcDbLine
 10
-1.5849179325
 20
-0.7422746486499999
 30
-2.7035952970183605
 11
-1.5618855163
 21
-0.7415619741499999
 31
-2.69831862431372
  0
LINE
  5
6F
330
17
100
AcDbEntity
  8
0
100
AcDbLine
 10
-1.5618855163
 20
-0.7415619741499999
 30
-2.69831862431372
 11
-1.5373452899000002
 21
-0.7407333533499999
 31
-2.69258944310875
  0
LINE
  5
70
330
17
100
AcDbEntity
  8
0
100
AcDbLine
 10
-1.5373452899000002
 20
-0.7407333533499999
 30
-2.69258944310875
 11
-1.5033557558000001
 21
-0.7387055617499999
 31
-2.6848719680343107
  0
LINE
  5
71
330
17
100
AcDbEntity
  8
0
100
AcDbLine
 10
-1.5033557558000001
 20
-0.7387055617499999
 30
-2.6848719680343107
 11
-1.4670214816
 21
-0.7364792630499999
 31
-2.6763275528653616
  0
LINE
  5
72
330
17
100
AcDbEntity
  8
0
100
AcDbLine
 10
-1.4670214816
 20
-0.7364792630499999
 30
-2.6763275528653616
 11
-1.4236330092
 21
-0.7332976045499999
 31
-2.6659468948968104
  0
LINE
  5
73
330
17
100
AcDbEntity
  8
0
100
AcDbLine
 10
-1.4236330092
 20
-0.7332976045499999
 30
-2.6659468948968104
 11
-1.377180966
 21
-0.72984395055
 31
-2.654269199646451
  0
LINE
  5
74
330
17
100
AcDbEntity
  8
0
100
AcDbLine
 10
-1.377180966
 20
-0.72984395055
 30
-2.654269199646451
 11
-1.3259298794
 21
-0.7256667680499999
 31
-2.6408332474781155
  0
LINE
  5
75
330
17
100
AcDbEntity
  8
0
100
AcDbLine
 10
-1.3259298794
 20
-0.7256667680499999
 30
-2.6408332474781155
 11
-1.2710582042
 21
-0.7211589121499999
 31
-2.625512248605291
  0
LINE
  5
76
330
17
100
AcDbEntity
  8
0
100
AcDbLine
 10
-1.2710582042
 20
-0.7211589121499999
 30
-2.625512248605291
 11
-1.21347126909
 21
-0.7161430053499999
 31
-2.6084393764775373
  0
LINE
  5
77
330
17
100
AcDbEntity
  8
0
100
AcDbLine
 10
-1.21347126909
 20
-0.7161430053499999
 30
-2.6084393764775373
 11
-1.151887660943
 21
-0.7107555807499999
 31
-2.5887411293699274
  0
LINE
  5
78
330
17
100
AcDbEntity
  8
0
100
AcDbLine
 10
-1.151887660943
 20
-0.7107555807499999
 30
-2.5887411293699274
 11
-1.08949211928
 21
-0.7050573440499999
 31
-2.5672283974167813
  0
LINE
  5
79
330
17
100
AcDbEntity
  8
0
100
AcDbLine
 10
-1.08949211928
 20
-0.7050573440499999
 30
-2.5672283974167813
 11
-1.0229038055000002
 21
-0.6989653402499999
 31
-2.542152782184732
  0
LINE
  5
7A
330
17
100
AcDbEntity
  8
0
100
AcDbLine
 10
-1.0229038055000002
 20
-0.6989653402499999
 30
-2.542152782184732
 11
-0.9572350498000001
 21
-0.6927416613499999
 31
-2.5151435040353975
  0
LINE
  5
7B
330
17
100
AcDbEntity
  8
0
100
AcDbLine
 10
-0.9572350498000001
 20
-0.6927416613499999
 30
-2.5151435040353975
 11
-0.8873411113
 21
-0.6861195416499999
 31
-2.4833888053517215
  0
LINE
  5
7C
330
17
100
AcDbEntity
  8
0
100
AcDbLine
 10
-0.8873411113
 20
-0.6861195416499999
 30
-2.4833888053517215
 11
-0.8199479695
 21
-0.6795284562499999
 31
-2.4495678749146186
  0
LINE
  5
7D
330
17
100
AcDbEntity
  8
0
100
AcDbLine
 10
-0.8199479695
 20
-0.6795284562499999
 30
-2.4495678749146186
 11
-0.7484340562
 21
-0.6725495197499999
 31
-2.4095466355075748
  0
LINE
  5
7E
330
17
100
AcDbEntity
  8
0
100
AcDbLine
 10
-0.7484340562
 20
-0.6725495197499999
 30
-2.4095466355075748
 11
-0.6808817052
 21
-0.6657506228499999
 31
-2.367430256110961
  0
LINE
  5
7F
330
17
100
AcDbEntity
  8
0
100
AcDbLine
 10
-0.6808817052
 20
-0.6657506228499999
 30
-2.367430256110961
 11
-0.6094171203000001
 21
-0.6585866105499999
 31
-2.3174368221404498
  0
LINE
  5
80
330
17
100
AcDbEntity
  8
0
100
AcDbLine
 10
-0.6094171203000001
 20
-0.6585866105499999
 30
-2.3174368221404498
 11
-0.543287681
 21
-0.6517412293499999
 31
-2.2656885122750308
  0
LINE
  5
81
330
17
100
AcDbEntity
  8
0
100
AcDbLine
 10
-0.543287681
 20
-0.6517412293499999
 30
-2.2656885122750308
 11
-0.4735247857000001
 21
-0.6445621691499999
 31
-2.2043980048963303
  0
LINE
  5
82
330
17
100
AcDbEntity
  8
0
100
AcDbLine
 10
-0.4735247857000001
 20
-0.6445621691499999
 30
-2.2043980048963303
 11
-0.41041566000000007
 21
-0.6378333030499999
 31
-2.142555207297783
  0
LINE
  5
83
330
17
100
AcDbEntity
  8
0
100
AcDbLine
 10
-0.41041566000000007
 20
-0.6378333030499999
 30
-2.142555207297783
 11
-0.3439915333000001
 21
-0.6308075891499999
 31
-2.0700387847804858
  0
LINE
  5
84
330
17
100
AcDbEntity
  8
0
100
AcDbLine
 10
-0.3439915333000001
 20
-0.6308075891499999
 30
-2.0700387847804858
 11
-0.28551154330000006
 21
-0.62435962345
 31
-1.9996935801417715
  0
LINE
  5
85
330
17
100
AcDbEntity
  8
0
100
AcDbLine
 10
-0.28551154330000006
 20
-0.62435962345
 30
-1.9996935801417715
 11
-0.2240518411000001
 21
-0.6176543216499999
 31
-1.9187810215523675
  0
LINE
  5
86
330
17
100
AcDbEntity
  8
0
100
AcDbLine
 10
-0.2240518411000001
 20
-0.6176543216499999
 30
-1.9187810215523675
 11
-0.1718152046000001
 21
-0.6116525201499999
 31
-1.8446424528502685
  0
LINE
  5
87
330
17
100
AcDbEntity
  8
0
100
AcDbLine
 10
-0.1718152046000001
 20
-0.6116525201499999
 30
-1.8446424528502685
 11
-0.1169401805000001
 21
-0.6054338967499999
 31
-1.7615977484134377
  0
LINE
  5
88
330
17
100
AcDbEntity
  8
0
100
AcDbLine
 10
-0.1169401805000001
 20
-0.6054338967499999
 30
-1.7615977484134377
 11
-0.07255832350000002
 21
-0.6000436726499999
 31
-1.6911338064391064
  0
LINE
  5
89
330
17
100
AcDbEntity
  8
0
100
AcDbLine
 10
-0.07255832350000002
 20
-0.6000436726499999
 30
-1.6911338064391064
 11
-0.025891014499999976
 21
-0.5944779457499999
 31
-1.6143213441196762
  0
LINE
  5
8A
330
17
100
AcDbEntity
  8
0
100
AcDbLine
 10
-0.025891014499999976
 20
-0.5944779457499999
 30
-1.6143213441196762
 11
0.009037841499999866
 21
-0.5898639094499999
 31
-1.5554756160159433
  0
LINE
  5
8B
330
17
100
AcDbEntity
  8
0
100
AcDbLine
 10
0.009037841499999866
 20
-0.5898639094499999
 30
-1.5554756160159433
 11
0.04586121149999989
 21
-0.5851182266499999
 31
-1.4925768481304658
  0
LINE
  5
8C
330
17
100
AcDbEntity
  8
0
100
AcDbLine
 10
0.04586121149999989
 20
-0.5851182266499999
 30
-1.4925768481304658
 11
0.06976480350000003
 21
-0.58144299755
 31
-1.4513815682853561
  0
LINE
  5
8D
330
17
100
AcDbEntity
  8
0
100
AcDbLine
 10
0.06976480350000003
 20
-0.58144299755
 30
-1.4513815682853561
 11
0.09508206749999992
 21
-0.57768665265
 31
-1.407667820630521
  0
LINE
  5
8E
330
17
100
AcDbEntity
  8
0
100
AcDbLine
 10
0.09508206749999992
 20
-0.57768665265
 30
-1.407667820630521
 11
0.15119035449999996
 21
-0.5678187420499998
 31
-1.3105688127705581
  0
LINE
  5
8F
330
17
100
AcDbEntity
  8
0
100
AcDbLine
 10
0.15119035449999996
 20
-0.5678187420499998
 30
-1.3105688127705581
 11
0.21101369849999996
 21
-0.5576975075499999
 31
-1.2090780336494111
  0
LINE
  5
90
330
17
100
AcDbEntity
  8
0
100
AcDbLine
 10
0.21101369849999996
 20
-0.5576975075499999
 30
-1.2090780336494111
 11
0.2623555325
 21
-0.5487015908499999
 31
-1.1247901101829716
  0
LINE
  5
91
330
17
100
AcDbEntity
  8
0
100
AcDbLine
 10
0.2623555325
 20
-0.5487015908499999
 30
-1.1247901101829716
 11
0.3240706755
 21
-0.5382209286499999
 31
-1.0288234290198668
  0
LINE
  5
92
330
17
100
AcDbEntity
  8
0
100
AcDbLine
 10
0.3240706755
 20
-0.5382209286499999
 30
-1.0288234290198668
 11
0.3665449384999999
 21
-0.5307883634499999
 31
-0.9664293163534415
  0
LINE
  5
93
330
17
100
AcDbEntity
  8
0
100
AcDbLine
 10
0.3665449384999999
 20
-0.5307883634499999
 30
-0.9664293163534415
 11
0.4361606604999999
 21
-0.51892972965
 31
-0.871843170759246
  0
LINE
  5
94
330
17
100
AcDbEntity
  8
0
100
AcDbLine
 10
0.4361606604999999
 20
-0.51892972965
 30
-0.871843170759246
 11
0.46529178449999997
 21
-0.5138254873499999
 31
-0.8349264604840101
  0
LINE
  5
95
330
17
100
AcDbEntity
  8
0
100
AcDbLine
 10
0.46529178449999997
 20
-0.5138254873499999
 30
-0.8349264604840101
 11
0.5491916234999998
 21
-0.4994493297499999
 31
-0.737998683304973
  0
LINE
  5
96
330
17
100
AcDbEntity
  8
0
100
AcDbLine
 10
0.5491916234999998
 20
-0.4994493297499999
 30
-0.737998683304973
 11
0.5614207485
 21
-0.4972985616499999
 31
-0.7249062524098115
  0
LINE
  5
97
330
17
100
AcDbEntity
  8
0
100
AcDbLine
 10
0.5614207485
 20
-0.4972985616499999
 30
-0.7249062524098115
 11
0.6623972674999998
 21
-0.4797805712499999
 31
-0.6268553805878444
  0
LINE
  5
98
330
17
100
AcDbEntity
  8
0
100
AcDbLine
 10
0.6623972674999998
 20
-0.4797805712499999
 30
-0.6268553805878444
 11
0.6648129814999999
 21
-0.4793549462499999
 31
-0.6247058595095716
  0
LINE
  5
99
330
17
100
AcDbEntity
  8
0
100
AcDbLine
 10
0.6648129814999999
 20
-0.4793549462499999
 30
-0.6247058595095716
 11
0.6650820675
 21
-0.4793096117499999
 31
-0.6244690337876975
  0
LINE
  5
9A
330
17
100
AcDbEntity
  8
0
100
AcDbLine
 10
0.6650820675
 20
-0.4793096117499999
 30
-0.6244690337876975
 11
0.7084235424999998
 21
-0.4716900580499999
 31
-0.5874235507977213
  0
LINE
  5
9B
330
17
100
AcDbEntity
  8
0
100
AcDbLine
 10
0.7084235424999998
 20
-0.4716900580499999
 30
-0.5874235507977213
 11
0.7091552415
 21
-0.4715615347499999
 31
-0.5868217625727701
  0
LINE
  5
9C
330
17
100
AcDbEntity
  8
0
100
AcDbLine
 10
0.7091552415
 20
-0.4715615347499999
 30
-0.5868217625727701
 11
0.7802261554999999
 21
-0.4590604448499999
 31
-0.5318229785965423
  0
LINE
  5
9D
330
17
100
AcDbEntity
  8
0
100
AcDbLine
 10
0.7802261554999999
 20
-0.4590604448499999
 30
-0.5318229785965423
 11
0.7830475834999999
 21
-0.4585572278499999
 31
-0.5297683109090819
  0
LINE
  5
9E
330
17
100
AcDbEntity
  8
0
100
AcDbLine
 10
0.7830475834999999
 20
-0.4585572278499999
 30
-0.5297683109090819
 11
0.8767502724999998
 21
-0.4420669598499999
 31
-0.46701057522637024
  0
LINE
  5
9F
330
17
100
AcDbEntity
  8
0
100
AcDbLine
 10
0.8767502724999998
 20
-0.4420669598499999
 30
-0.46701057522637024
 11
0.8835278765000001
 21
-0.4408497476499999
 31
-0.4628195025526278
  0
LINE
  5
A0
330
17
100
AcDbEntity
  8
0
100
AcDbLine
 10
0.8835278765000001
 20
-0.4408497476499999
 30
-0.4628195025526278
 11
0.9944007624999998
 21
-0.4213243631499999
 31
-0.4007662583763052
  0
LINE
  5
A1
330
17
100
AcDbEntity
  8
0
100
AcDbLine
 10
0.9944007624999998
 20
-0.4213243631499999
 30
-0.4007662583763052
 11
1.0073649164999998
 21
-0.4189848701499999
 31
-0.3941561378998155
  0
LINE
  5
A2
330
17
100
AcDbEntity
  8
0
100
AcDbLine
 10
1.0073649164999998
 20
-0.4189848701499999
 30
-0.3941561378998155
 11
1.1296625484999998
 21
-0.3974274636499999
 31
-0.3382870757779065
  0
LINE
  5
A3
330
17
100
AcDbEntity
  8
0
100
AcDbLine
 10
1.1296625484999998
 20
-0.3974274636499999
 30
-0.3382870757779065
 11
1.1513275025
 21
-0.39350113814999993
 31
-0.3293335243104791
  0
LINE
  5
A4
330
17
100
AcDbEntity
  8
0
100
AcDbLine
 10
1.1513275025
 20
-0.39350113814999993
 30
-0.3293335243104791
 11
1.2790805315
 21
-0.3709547378499999
 31
-0.28227284303280037
  0
LINE
  5
A5
330
17
100
AcDbEntity
  8
0
100
AcDbLine
 10
1.2790805315
 20
-0.3709547378499999
 30
-0.28227284303280037
 11
1.3121844444999997
 21
-0.3649292501499999
 31
-0.27125357452906124
  0
LINE
  5
A6
330
17
100
AcDbEntity
  8
0
100
AcDbLine
 10
1.3121844444999997
 20
-0.3649292501499999
 30
-0.27125357452906124
 11
1.4392492115
 21
-0.3424697160499999
 31
-0.23360597080617404
  0
LINE
  5
A7
330
17
100
AcDbEntity
  8
0
100
AcDbLine
 10
1.4392492115
 20
-0.3424697160499999
 30
-0.23360597080617404
 11
1.4867045554999998
 21
-0.3337907930499999
 31
-0.22085489026191857
  0
LINE
  5
A8
330
17
100
AcDbEntity
  8
0
100
AcDbLine
 10
1.4867045554999998
 20
-0.3337907930499999
 30
-0.22085489026191857
 11
1.6068104085
 21
-0.31252044314999994
 31
-0.19209904089760946
  0
LINE
  5
A9
330
17
100
AcDbEntity
  8
0
100
AcDbLine
 10
1.6068104085
 20
-0.31252044314999994
 30
-0.19209904089760946
 11
1.6716566545
 21
-0.3005962440499999
 31
-0.1779179700659716
  0
LINE
  5
AA
330
17
100
AcDbEntity
  8
0
100
AcDbLine
 10
1.6716566545
 20
-0.3005962440499999
 30
-0.1779179700659716
 11
1.7784593604999999
 21
-0.2816369166499999
 31
-0.1570558410030553
  0
LINE
  5
AB
330
17
100
AcDbEntity
  8
0
100
AcDbLine
 10
1.7784593604999999
 20
-0.2816369166499999
 30
-0.1570558410030553
 11
1.8638095624999997
 21
-0.2658421029499999
 31
-0.14167809950001614
  0
LINE
  5
AC
330
17
100
AcDbEntity
  8
0
100
AcDbLine
 10
1.8638095624999997
 20
-0.2658421029499999
 30
-0.14167809950001614
 11
1.9509614135
 21
-0.2503260225499999
 31
-0.12761180674595252
  0
LINE
  5
AD
330
17
100
AcDbEntity
  8
0
100
AcDbLine
 10
1.9509614135
 20
-0.2503260225499999
 30
-0.12761180674595252
 11
2.0599321004999998
 21
-0.2300069816499999
 31
-0.11119696861316662
  0
LINE
  5
AE
330
17
100
AcDbEntity
  8
0
100
AcDbLine
 10
2.0599321004999998
 20
-0.2300069816499999
 30
-0.11119696861316662
 11
2.1211839735
 21
-0.21906300624999991
 31
-0.10290910609055051
  0
LINE
  5
AF
330
17
100
AcDbEntity
  8
0
100
AcDbLine
 10
2.1211839735
 20
-0.21906300624999991
 30
-0.10290910609055051
 11
2.2567930845
 21
-0.19354651794999989
 31
-0.08555240880009317
  0
LINE
  5
B0
330
17
100
AcDbEntity
  8
0
100
AcDbLine
 10
2.2567930845
 20
-0.19354651794999989
 30
-0.08555240880009317
 11
2.2861522075
 21
-0.18827784676999992
 31
-0.08217034141946934
  0
LINE
  5
B1
330
17
100
AcDbEntity
  8
0
100
AcDbLine
 10
2.2861522075
 20
-0.18827784676999992
 30
-0.08217034141946934
 11
2.4119545165
 21
-0.1643457494099999
 31
-0.06803283963572851
  0
LINE
  5
B2
330
17
100
AcDbEntity
  8
0
100
AcDbLine
 10
2.4119545165
 20
-0.1643457494099999
 30
-0.06803283963572851
 11
2.4441655545
 21
-0.1581761545099999
 31
-0.06462569050352589
  0
LINE
  5
B3
330
17
100
AcDbEntity
  8
0
100
AcDbLine
 10
2.4441655545
 20
-0.1581761545099999
 30
-0.06462569050352589
 11
2.4511615855
 21
-0.1567407778899999
 31
-0.06385856496734624
  0
LINE
  5
B4
330
17
100
AcDbEntity
  8
0
100
AcDbLine
 10
2.4511615855
 20
-0.1567407778899999
 30
-0.06385856496734624
 11
2.5958254195
 21
-0.1286772126499999
 31
-0.04953028378650107
  0
LINE
  5
B5
330
17
100
AcDbEntity
  8
0
100
AcDbLine
 10
2.5958254195
 20
-0.1286772126499999
 30
-0.04953028378650107
 11
2.6398074905
 21
-0.1194404747839999
 31
-0.04521506561733732
  0
LINE
  5
B6
330
17
100
AcDbEntity
  8
0
100
AcDbLine
 10
2.6398074905
 20
-0.1194404747839999
 30
-0.04521506561733732
 11
2.7348306315
 21
-0.1007114677839999
 31
-0.0368088532207895
  0
LINE
  5
B7
330
17
100
AcDbEntity
  8
0
100
AcDbLine
 10
2.7348306315
 20
-0.1007114677839999
 30
-0.0368088532207895
 11
2.8194987344999998
 21
-0.08240741827999991
 31
-0.029219365688384052
  0
LINE
  5
B8
330
17
100
AcDbEntity
  8
0
100
AcDbLine
 10
2.8194987344999998
 20
-0.08240741827999991
 30
-0.029219365688384052
 11
2.8592821534999997
 21
-0.07440787513999991
 31
-0.02601739925133383
  0
LINE
  5
B9
330
17
100
AcDbEntity
  8
0
100
AcDbLine
 10
2.8592821534999997
 20
-0.07440787513999991
 30
-0.02601739925133383
 11
2.9351299795
 21
-0.05740741055999991
 31
-0.01955623510932839
  0
LINE
  5
BA
330
17
100
AcDbEntity
  8
0
100
AcDbLine
 10
2.9351299795
 20
-0.05740741055999991
 30
-0.01955623510932839
 11
2.9703440074999996
 21
-0.0494942209299999
 31
-0.01666124896676968
  0
LINE
  5
BB
330
17
100
AcDbEntity
  8
0
100
AcDbLine
 10
2.9703440074999996
 20
-0.0494942209299999
 30
-0.01666124896676968
 11
2.9870046734999995
 21
-0.04527291511999991
 31
-0.015155466361003296
  0
LINE
  5
BC
330
17
100
AcDbEntity
  8
0
100
AcDbLine
 10
2.9870046734999995
 20
-0.04527291511999991
 30
-0.015155466361003296
 11
3.0695341984999995
 21
-0.0259661295799999
 31
-0.008459104394973303
  0
LINE
  5
BD
330
17
100
AcDbEntity
  8
0
100
AcDbLine
 10
3.0695341984999995
 20
-0.0259661295799999
 30
-0.008459104394973303
 11
3.1390949805000004
 21
-0.0071730835499999035
 31
-0.002285076147624738
  0
LINE
  5
BE
330
17
100
AcDbEntity
  8
0
100
AcDbLine
 10
3.1390949805000004
 20
-0.0071730835499999035
 30
-0.002285076147624738
 11
3.1517515685
 21
-0.0040554150499999
 31
-0.0012867171551296692
  0
LINE
  5
BF
330
17
100
AcDbEntity
  8
0
100
AcDbLine
 10
3.1517515685
 20
-0.0040554150499999
 30
-0.0012867171551296692
 11
3.1650975875
 21
-0.0001477998499999078
 31
-4.669677499871955e-05
  0
LINE
  5
C0
330
17
100
AcDbEntity
  8
0
100
AcDbLine
 10
3.1650975875
 20
-0.0001477998499999078
 30
-4.669677499871955e-05
 11
3.2235619015
 21
0.016769910850000097
 31
0.00520224524262134
  0
LINE
  5
C1
330
17
100
AcDbEntity
  8
0
100
AcDbLine
 10
3.2235619015
 20
0.016769910850000097
 30
0.00520224524262134
 11
3.2725378395
 21
0.033800235550000085
 31
0.01032808034129004
  0
LINE
  5
C2
330
17
100
AcDbEntity
  8
0
100
AcDbLine
 10
3.2725378395
 20
0.033800235550000085
 30
0.01032808034129004
 11
3.2808551065
 21
0.03642920955000009
 31
0.011103115306116457
  0
LINE
  5
C3
330
17
100
AcDbEntity
  8
0
100
AcDbLine
 10
3.2808551065
 20
0.03642920955000009
 30
0.011103115306116457
 11
3.2865636855
 21
0.038678604950000084
 31
0.011768163682630357
  0
LINE
  5
C4
330
17
100
AcDbEntity
  8
0
100
AcDbLine
 10
3.2865636855
 20
0.038678604950000084
 30
0.011768163682630357
 11
3.3290150054999996
 21
0.0551891761500001
 31
0.016576711390668408
  0
LINE
  5
C5
330
17
100
AcDbEntity
  8
0
100
AcDbLine
 10
3.3290150054999996
 20
0.0551891761500001
 30
0.016576711390668408
 11
3.3568730305
 21
0.06874926975000009
 31
0.020477289297655243
  0
LINE
  5
C6
330
17
100
AcDbEntity
  8
0
100
AcDbLine
 10
3.3568730305
 20
0.06874926975000009
 30
0.020477289297655243
 11
3.3662914294999995
 21
0.07345427895000009
 31
0.02181707251093447
  0
LINE
  5
C7
330
17
100
AcDbEntity
  8
0
100
AcDbLine
 10
3.3662914294999995
 20
0.07345427895000009
 30
0.02181707251093447
 11
3.3840983865
 21
0.08447270995000009
 31
0.024956476531494926
  0
LINE
  5
C8
330
17
100
AcDbEntity
  8
0
100
AcDbLine
 10
3.3840983865
 20
0.08447270995000009
 30
0.024956476531494926
 11
3.3955609615
 21
0.0911051431500001
 31
0.02682422489205579
  0
LINE
  5
C9
330
17
100
AcDbEntity
  8
0
100
AcDbLine
 10
3.3955609615
 20
0.0911051431500001
 30
0.02682422489205579
 11
3.3994748535
 21
0.09400661655000009
 31
0.027646230428785366
  0
LINE
  5
CA
330
17
100
AcDbEntity
  8
0
100
AcDbLine
 10
3.3994748535
 20
0.09400661655000009
 30
0.027646230428785366
 11
3.4176020085000003
 21
0.1083751025500001
 31
0.03170023824220618
  0
LINE
  5
CB
330
17
100
AcDbEntity
  8
0
100
AcDbLine
 10
3.4176020085000003
 20
0.1083751025500001
 30
0.03170023824220618
 11
3.4256915804999997
 21
0.11633430005000009
 31
0.033946316487420684
  0
LINE
  5
CC
330
17
100
AcDbEntity
  8
0
100
AcDbLine
 10
3.4256915804999997
 20
0.11633430005000009
 30
0.033946316487420684
 11
3.4336616724999995
 21
0.1256382071500001
 31
0.03657383700995216
  0
LINE
  5
CD
330
17
100
AcDbEntity
  8
0
100
AcDbLine
 10
3.4336616724999995
 20
0.1256382071500001
 30
0.03657383700995216
 11
3.4417746954999995
 21
0.1368371552500001
 31
0.03973680359481011
  0
LINE
  5
CE
330
17
100
AcDbEntity
  8
0
100
AcDbLine
 10
3.4417746954999995
 20
0.1368371552500001
 30
0.03973680359481011
 11
3.4449305255000002
 21
0.1429450099500001
 31
0.041470518403939165
  0
LINE
  5
CF
330
17
100
AcDbEntity
  8
0
100
AcDbLine
 10
3.4449305255000002
 20
0.1429450099500001
 30
0.041470518403939165
 11
3.4510811155
 21
0.1561608228500001
 31
0.04521898100220487
  0
LINE
  5
D0
330
17
100
AcDbEntity
  8
0
100
AcDbLine
 10
3.4510811155
 20
0.1561608228500001
 30
0.04521898100220487
 11
3.4520888845
 21
0.1603839882500001
 31
0.04642659704179716
  0
LINE
  5
D1
330
17
100
AcDbEntity
  8
0
100
AcDbLine
 10
3.4520888845
 20
0.1603839882500001
 30
0.04642659704179716
 11
3.4554746165
 21
0.1747248016500001
 31
0.050521603534480375
  0
LINE
  5
D2
330
17
100
AcDbEntity
  8
0
100
AcDbLine
 10
3.4554746165
 20
0.1747248016500001
 30
0.050521603534480375
 11
3.4555342524999997
 21
0.17806159085000012
 31
0.05148385963400295
  0
LINE
  5
D3
330
17
100
AcDbEntity
  8
0
100
AcDbLine
 10
3.4555342524999997
 20
0.17806159085000012
 30
0.05148385963400295
 11
3.4559734245
 21
0.1906068533500001
 31
0.05509704989026458
  0
LINE
  5
D4
330
17
100
AcDbEntity
  8
0
100
AcDbLine
 10
3.4559734245
 20
0.1906068533500001
 30
0.05509704989026458
 11
3.4560507165
 21
0.19281475925000008
 31
0.05573271269928743
  0
LINE
  5
D5
330
17
100
AcDbEntity
  8
0
100
AcDbLine
 10
3.4560507165
 20
0.19281475925000008
 30
0.05573271269928743
 11
3.4536714955
 21
0.20691850145000007
 31
0.05984108624106194
  0
LINE
  5
D6
330
17
100
AcDbEntity
  8
0
100
AcDbLine
 10
3.4536714955
 20
0.20691850145000007
 30
0.05984108624106194
 11
3.4529925045
 21
0.21059649045000012
 31
0.06091410594541668
  0
LINE
  5
D7
330
17
100
AcDbEntity
  8
0
100
AcDbLine
 10
3.4529925045
 20
0.21059649045000012
 30
0.06091410594541668
 11
3.4481404645
 21
0.22338881645000008
 31
0.0646948905986542
  0
LINE
  5
D8
330
17
100
AcDbEntity
  8
0
100
AcDbLine
 10
3.4481404645
 20
0.22338881645000008
 30
0.0646948905986542
 11
3.4461299294999996
 21
0.22820407855000008
 31
0.06612385172376532
  0
LINE
  5
D9
330
17
100
AcDbEntity
  8
0
100
AcDbLine
 10
3.4461299294999996
 20
0.22820407855000008
 30
0.06612385172376532
 11
3.4392060495
 21
0.23907815895000012
 31
0.06940385679048365
  0
LINE
  5
DA
330
17
100
AcDbEntity
  8
0
100
AcDbLine
 10
3.4392060495
 20
0.23907815895000012
 30
0.06940385679048365
 11
3.4342995705000003
 21
0.24573094895000008
 31
0.07143025011796726
  0
LINE
  5
DB
330
17
100
AcDbEntity
  8
0
100
AcDbLine
 10
3.4342995705000003
 20
0.24573094895000008
 30
0.07143025011796726
 11
3.4263934505
 21
0.2540005888500001
 31
0.07399525097602468
  0
LINE
  5
DC
330
17
100
AcDbEntity
  8
0
100
AcDbLine
 10
3.4263934505
 20
0.2540005888500001
 30
0.07399525097602468
 11
3.4154541304999997
 21
0.2632649238500001
 31
0.07692838986157657
  0
LINE
  5
DD
330
17
100
AcDbEntity
  8
0
100
AcDbLine
 10
3.4154541304999997
 20
0.2632649238500001
 30
0.07692838986157657
 11
3.4088875835000003
 21
0.2680905476500001
 31
0.07848304540804539
  0
LINE
  5
DE
330
17
100
AcDbEntity
  8
0
100
AcDbLine
 10
3.4088875835000003
 20
0.2680905476500001
 30
0.07848304540804539
 11
3.3858695264999996
 21
0.2808528262500001
 31
0.08275904858817983
  0
LINE
  5
DF
330
17
100
AcDbEntity
  8
0
100
AcDbLine
 10
3.3858695264999996
 20
0.2808528262500001
 30
0.08275904858817983
 11
3.3853174714999996
 21
0.2811444814500001
 31
0.08285804629310087
  0
LINE
  5
E0
330
17
100
AcDbEntity
  8
0
100
AcDbLine
 10
3.3853174714999996
 20
0.2811444814500001
 30
0.08285804629310087
 11
3.3837866854999996
 21
0.2817140400500001
 31
0.08306252245142803
  0
LINE
  5
E1
330
17
100
AcDbEntity
  8
0
100
AcDbLine
 10
3.3837866854999996
 20
0.2817140400500001
 30
0.08306252245142803
 11
3.3552283085
 21
0.2936304810500001
 31
0.08729191146418375
  0
LINE
  5
E2
330
17
100
AcDbEntity
  8
0
100
AcDbLine
 10
3.3552283085
 20
0.2936304810500001
 30
0.08729191146418375
 11
3.3395084524999996
 21
0.2984040134500001
 31
0.08911898411370148
  0
LINE
  5
E3
330
17
100
AcDbEntity
  8
0
100
AcDbLine
 10
3.3395084524999996
 20
0.2984040134500001
 30
0.08911898411370148
 11
3.3169616755
 21
0.3051303437500001
 31
0.09173274007767698
  0
LINE
  5
E4
330
17
100
AcDbEntity
  8
0
100
AcDbLine
 10
3.3169616755
 20
0.3051303437500001
 30
0.09173274007767698
 11
3.2721262734999996
 21
0.3142239928500001
 31
0.09573695090019498
  0
LINE
  5
E5
330
17
100
AcDbEntity
  8
0
100
AcDbLine
 10
3.2721262734999996
 20
0.3142239928500001
 30
0.09573695090019498
 11
3.2678739675
 21
0.3152295720500001
 31
0.0961656555228036
  0
LINE
  5
E6
330
17
100
AcDbEntity
  8
0
100
AcDbLine
 10
3.2678739675
 20
0.3152295720500001
 30
0.0961656555228036
 11
3.2642955794999997
 21
0.31582768285000007
 31
0.0964519565409723
  0
LINE
  5
E7
330
17
100
AcDbEntity
  8
0
100
AcDbLine
 10
3.2642955794999997
 20
0.31582768285000007
 30
0.0964519565409723
 11
3.2107073925
 21
0.3248166983500001
 31
0.10082367532893108
  0
LINE
  5
E8
330
17
100
AcDbEntity
  8
0
100
AcDbLine
 10
3.2107073925
 20
0.3248166983500001
 30
0.10082367532893108
 11
3.1386342545000003
 21
0.3327371521500001
 31
0.10561885790020754
  0
LINE
  5
E9
330
17
100
AcDbEntity
  8
0
100
AcDbLine
 10
3.1386342545000003
 20
0.3327371521500001
 30
0.10561885790020754
 11
3.1380530794999997
 21
0.3328159187500001
 31
0.10566309491508276
  0
LINE
  5
EA
330
17
100
AcDbEntity
  8
0
100
AcDbLine
 10
3.1380530794999997
 20
0.3328159187500001
 30
0.10566309491508276
 11
3.1372988174999996
 21
0.3328853189500001
 31
0.10571018424224049
  0
LINE
  5
EB
330
17
100
AcDbEntity
  8
0
100
AcDbLine
 10
3.1372988174999996
 20
0.3328853189500001
 30
0.10571018424224049
 11
3.0570572394999997
 21
0.3403655844500001
 31
0.11088099683029891
  0
LINE
  5
EC
330
17
100
AcDbEntity
  8
0
100
AcDbLine
 10
3.0570572394999997
 20
0.3403655844500001
 30
0.11088099683029891
 11
2.9865229954999997
 21
0.3443878952500001
 31
0.11480691149815778
  0
LINE
  5
ED
330
17
100
AcDbEntity
  8
0
100
AcDbLine
 10
2.9865229954999997
 20
0.3443878952500001
 30
0.11480691149815778
 11
2.9591005604999996
 21
0.3465001082500001
 31
0.1165655970772093
  0
LINE
  5
EE
330
17
100
AcDbEntity
  8
0
100
AcDbLine
 10
2.9591005604999996
 20
0.3465001082500001
 30
0.1165655970772093
 11
2.9021236955000003
 21
0.3492664994500001
 31
0.11977255498948937
  0
LINE
  5
EF
330
17
100
AcDbEntity
  8
0
100
AcDbLine
 10
2.9021236955000003
 20
0.3492664994500001
 30
0.11977255498948937
 11
2.8481061995
 21
0.3518909007500001
 31
0.12292960054324453
  0
LINE
  5
F0
330
17
100
AcDbEntity
  8
0
100
AcDbLine
 10
2.8481061995
 20
0.3518909007500001
 30
0.12292960054324453
 11
2.8190129914999997
 21
0.3526321355500001
 31
0.12444423778835768
  0
LINE
  5
F1
330
17
100
AcDbEntity
  8
0
100
AcDbLine
 10
2.8190129914999997
 20
0.3526321355500001
 30
0.12444423778835768
 11
2.7253385304999997
 21
0.3564920458500001
 31
0.13006803731476865
  0
LINE
  5
F2
330
17
100
AcDbEntity
  8
0
100
AcDbLine
 10
2.7253385304999997
 20
0.3564920458500001
 30
0.13006803731476865
 11
2.6393328444999997
 21
0.3584003485500001
 31
0.13496649369387867
  0
LINE
  5
F3
330
17
100
AcDbEntity
  8
0
100
AcDbLine
 10
2.6393328444999997
 20
0.3584003485500001
 30
0.13496649369387867
 11
2.5878344054999998
 21
0.3602404875500001
 31
0.13831651772902415
  0
LINE
  5
F4
330
17
100
AcDbEntity
  8
0
100
AcDbLine
 10
2.5878344054999998
 20
0.3602404875500001
 30
0.13831651772902415
 11
2.4507096114999998
 21
0.3629646912500001
 31
0.14703706967103816
  0
LINE
  5
F5
330
17
100
AcDbEntity
  8
0
100
AcDbLine
 10
2.4507096114999998
 20
0.3629646912500001
 30
0.14703706967103816
 11
2.4375005245
 21
0.3633840672500001
 31
0.1479906685141396
  0
LINE
  5
F6
330
17
100
AcDbEntity
  8
0
100
AcDbLine
 10
2.4375005245
 20
0.3633840672500001
 30
0.1479906685141396
 11
2.3782512015
 21
0.3644700816500001
 31
0.15206817375051174
  0
LINE
  5
F7
330
17
100
AcDbEntity
  8
0
100
AcDbLine
 10
2.3782512015
 20
0.3644700816500001
 30
0.15206817375051174
 11
2.2800280864999998
 21
0.3661563222500001
 31
0.15923330917525802
  0
LINE
  5
F8
330
17
100
AcDbEntity
  8
0
100
AcDbLine
 10
2.2800280864999998
 20
0.3661563222500001
 30
0.15923330917525802
 11
2.2563729565
 21
0.3663091041500001
 31
0.1609401270196019
  0
LINE
  5
F9
330
17
100
AcDbEntity
  8
0
100
AcDbLine
 10
2.2563729565
 20
0.3663091041500001
 30
0.1609401270196019
 11
2.1163801575
 21
0.3685673065500001
 31
0.17242066871315787
  0
LINE
  5
FA
330
17
100
AcDbEntity
  8
0
100
AcDbLine
 10
2.1163801575
 20
0.3685673065500001
 30
0.17242066871315787
 11
2.0595515975
 21
0.3689508568500001
 31
0.17726111260740463
  0
LINE
  5
FB
330
17
100
AcDbEntity
  8
0
100
AcDbLine
 10
2.0595515975
 20
0.3689508568500001
 30
0.17726111260740463
 11
1.9472593065
 21
0.3707131012500001
 31
0.18812564521777506
  0
LINE
  5
FC
330
17
100
AcDbEntity
  8
0
100
AcDbLine
 10
1.9472593065
 20
0.3707131012500001
 30
0.18812564521777506
 11
1.8634743705
 21
0.3713332227500001
 31
0.1966928595843127
  0
LINE
  5
FD
330
17
100
AcDbEntity
  8
0
100
AcDbLine
 10
1.8634743705
 20
0.3713332227500001
 30
0.1966928595843127
 11
1.7756660814999998
 21
0.3727240668500001
 31
0.20690275743583167
  0
LINE
  5
FE
330
17
100
AcDbEntity
  8
0
100
AcDbLine
 10
1.7756660814999998
 20
0.3727240668500001
 30
0.20690275743583167
 11
1.6713704675
 21
0.3736057639500001
 31
0.2199172990970955
  0
LINE
  5
FF
330
17
100
AcDbEntity
  8
0
100
AcDbLine
 10
1.6713704675
 20
0.3736057639500001
 30
0.2199172990970955
 11
1.6047582485
 21
0.3747117429500001
 31
0.2293903974414471
  0
LINE
  5
100
330
17
100
AcDbEntity
  8
0
100
AcDbLine
 10
1.6047582485
 20
0.3747117429500001
 30
0.2293903974414471
 11
1.4864690815000001
 21
0.3758928546500001
 31
0.2476839652170239
  0
LINE
  5
101
330
17
100
AcDbEntity
  8
0
100
AcDbLine
 10
1.4864690815000001
 20
0.3758928546500001
 30
0.2476839652170239
 11
1.4377929684999997
 21
0.3767731697500001
 31
0.2562869819856131
  0
LINE
  5
102
330
17
100
AcDbEntity
  8
0
100
AcDbLine
 10
1.4377929684999997
 20
0.3767731697500001
 30
0.2562869819856131
 11
1.3119994044999999
 21
0.3782994598500001
 31
0.28072379592556546
  0
LINE
  5
103
330
17
100
AcDbEntity
  8
0
100
AcDbLine
 10
1.3119994044999999
 20
0.3782994598500001
 30
0.28072379592556546
 11
1.2780943204999997
 21
0.3789942113500001
 31
0.28827092479467886
  0
LINE
  5
104
330
17
100
AcDbEntity
  8
0
100
AcDbLine
 10
1.2780943204999997
 20
0.3789942113500001
 30
0.28827092479467886
 11
1.1511906294999998
 21
0.3809155444500001
 31
0.3195484393425548
  0
LINE
  5
105
330
17
100
AcDbEntity
  8
0
100
AcDbLine
 10
1.1511906294999998
 20
0.3809155444500001
 30
0.3195484393425548
 11
1.1290368585000001
 21
0.3814520521500001
 31
0.3258155561184118
  0
LINE
  5
106
330
17
100
AcDbEntity
  8
0
100
AcDbLine
 10
1.1290368585000001
 20
0.3814520521500001
 30
0.3258155561184118
 11
1.0072719485000001
 21
0.3838192889500001
 31
0.3640627387712828
  0
LINE
  5
107
330
17
100
AcDbEntity
  8
0
100
AcDbLine
 10
1.0072719485000001
 20
0.3838192889500001
 30
0.3640627387712828
 11
0.9940401175
 21
0.3842170398500001
 31
0.36883252152288765
  0
LINE
  5
108
330
17
100
AcDbEntity
  8
0
100
AcDbLine
 10
0.9940401175
 20
0.3842170398500001
 30
0.36883252152288765
 11
0.8834725574999998
 21
0.3870793275500001
 31
0.4129424259031882
  0
LINE
  5
109
330
17
100
AcDbEntity
  8
0
100
AcDbLine
 10
0.8834725574999998
 20
0.3870793275500001
 30
0.4129424259031882
 11
0.8765717464999998
 21
0.3873540157500001
 31
0.4160946816172983
  0
LINE
  5
10A
330
17
100
AcDbEntity
  8
0
100
AcDbLine
 10
0.8765717464999998
 20
0.3873540157500001
 30
0.4160946816172983
 11
0.7830216484999999
 21
0.3907561795500001
 31
0.4628763040619051
  0
LINE
  5
10B
330
17
100
AcDbEntity
  8
0
100
AcDbLine
 10
0.7830216484999999
 20
0.3907561795500001
 30
0.4628763040619051
 11
0.7801589874999999
 21
0.3909232302500001
 31
0.4645124290828981
  0
LINE
  5
10C
330
17
100
AcDbEntity
  8
0
100
AcDbLine
 10
0.7801589874999999
 20
0.3909232302500001
 30
0.4645124290828981
 11
0.7091484195
 21
0.39490297475000014
 31
0.5081018336114874
  0
LINE
  5
10D
330
17
100
AcDbEntity
  8
0
100
AcDbLine
 10
0.7091484195
 20
0.39490297475000014
 30
0.5081018336114874
 11
0.7084102754999999
 21
0.3949809005500001
 31
0.508628540808536
  0
LINE
  5
10E
330
17
100
AcDbEntity
  8
0
100
AcDbLine
 10
0.7084102754999999
 20
0.3949809005500001
 30
0.508628540808536
 11
0.6650820675
 21
0.39956548185000007
 31
0.540990045262933
  0
LINE
  5
10F
330
17
100
AcDbEntity
  8
0
100
AcDbLine
 10
0.6650820675
 20
0.39956548185000007
 30
0.540990045262933
 11
0.6647995794999999
 21
0.39963295605000004
 31
0.5412521615217184
  0
LINE
  5
110
330
17
100
AcDbEntity
  8
0
100
AcDbLine
 10
0.6647995794999999
 20
0.39963295605000004
 30
0.5412521615217184
 11
0.6619323874999998
 21
0.40029971745000015
 31
0.5439005220362677
  0
LINE
  5
111
330
17
100
AcDbEntity
  8
0
100
AcDbLine
 10
0.6619323874999998
 20
0.40029971745000015
 30
0.5439005220362677
 11
0.5572145714999999
 21
0.42453855935000007
 31
0.6510700491816036
  0
LINE
  5
112
330
17
100
AcDbEntity
  8
0
100
AcDbLine
 10
0.5572145714999999
 20
0.42453855935000007
 30
0.6510700491816036
 11
0.5461080674999998
 21
0.4270829395500001
 31
0.6636985920764008
  0
LINE
  5
113
330
17
100
AcDbEntity
  8
0
100
AcDbLine
 10
0.5461080674999998
 20
0.4270829395500001
 30
0.6636985920764008
 11
0.45455360849999993
 21
0.45771655565000013
 31
0.7888652662366785
  0
LINE
  5
114
330
17
100
AcDbEntity
  8
0
100
AcDbLine
 10
0.45455360849999993
 20
0.45771655565000013
 30
0.7888652662366785
 11
0.4268687524999999
 21
0.46680548435000013
 31
0.8300566943722978
  0
LINE
  5
115
330
17
100
AcDbEntity
  8
0
100
AcDbLine
 10
0.4268687524999999
 20
0.46680548435000013
 30
0.8300566943722978
 11
0.35116100949999995
 21
0.49926021375000007
 31
0.9578170835819743
  0
LINE
  5
116
330
17
100
AcDbEntity
  8
0
100
AcDbLine
 10
0.35116100949999995
 20
0.49926021375000007
 30
0.9578170835819743
 11
0.3100787814999999
 21
0.5166826803500001
 31
1.0302783914286542
  0
LINE
  5
117
330
17
100
AcDbEntity
  8
0
100
AcDbLine
 10
0.3100787814999999
 20
0.5166826803500001
 30
1.0302783914286542
 11
0.24708996049999987
 21
0.5495350997500001
 31
1.1482463610152311
  0
LINE
  5
118
330
17
100
AcDbEntity
  8
0
100
AcDbLine
 10
0.24708996049999987
 20
0.5495350997500001
 30
1.1482463610152311
 11
0.19854222249999998
 21
0.5749543332500001
 31
1.2382984072151384
  0
LINE
  5
119
330
17
100
AcDbEntity
  8
0
100
AcDbLine
 10
0.19854222249999998
 20
0.5749543332500001
 30
1.2382984072151384
 11
0.1450425984999999
 21
0.6081874248500001
 31
1.3366858502801868
  0
LINE
  5
11A
330
17
100
AcDbEntity
  8
0
100
AcDbLine
 10
0.1450425984999999
 20
0.6081874248500001
 30
1.3366858502801868
 11
0.09508206749999992
 21
0.6399458173500001
 31
1.423297075017137
  0
LINE
  5
11B
330
17
100
AcDbEntity
  8
0
100
AcDbLine
 10
0.09508206749999992
 20
0.6399458173500001
 30
1.423297075017137
 11
0.07264427249999983
 21
0.6502493248500001
 31
1.459540085503153
  0
LINE
  5
11C
330
17
100
AcDbEntity
  8
0
100
AcDbLine
 10
0.07264427249999983
 20
0.6502493248500001
 30
1.459540085503153
 11
0.0507504594999999
 21
0.6606038880500001
 31
1.4941225896761057
  0
LINE
  5
11D
330
17
100
AcDbEntity
  8
0
100
AcDbLine
 10
0.0507504594999999
 20
0.6606038880500001
 30
1.4941225896761057
 11
0.016686964499999846
 21
0.6700892414500002
 31
1.5458988723431033
  0
LINE
  5
11E
330
17
100
AcDbEntity
  8
0
100
AcDbLine
 10
0.016686964499999846
 20
0.6700892414500002
 30
1.5458988723431033
 11
-0.01831278950000015
 21
0.6800722629500001
 31
1.5977175323945467
  0
LINE
  5
11F
330
17
100
AcDbEntity
  8
0
100
AcDbLine
 10
-0.01831278950000015
 20
0.6800722629500001
 30
1.5977175323945467
 11
-0.06161206350000015
 21
0.6886491944500001
 31
1.6600267467567382
  0
LINE
  5
120
330
17
100
AcDbEntity
  8
0
100
AcDbLine
 10
-0.06161206350000015
 20
0.6886491944500001
 30
1.6600267467567382
 11
-0.10854292350000017
 21
0.6981327686500001
 31
1.725037472173164
  0
LINE
  5
121
330
17
100
AcDbEntity
  8
0
100
AcDbLine
 10
-0.10854292350000017
 20
0.6981327686500001
 30
1.725037472173164
 11
-0.15883745030000007
 21
0.7057311624500001
 31
1.792175422837741
  0
LINE
  5
122
330
17
100
AcDbEntity
  8
0
100
AcDbLine
 10
-0.15883745030000007
 20
0.7057311624500001
 30
1.792175422837741
 11
-0.21637511780000007
 21
0.7145659597500001
 31
1.864825771401688
  0
LINE
  5
123
330
17
100
AcDbEntity
  8
0
100
AcDbLine
 10
-0.21637511780000007
 20
0.7145659597500001
 30
1.864825771401688
 11
-0.27161065410000007
 21
0.7211317810500001
 31
1.9310083772434228
  0
LINE
  5
124
330
17
100
AcDbEntity
  8
0
100
AcDbLine
 10
-0.27161065410000007
 20
0.7211317810500001
 30
1.9310083772434228
 11
-0.33824406260000006
 21
0.7291517163500001
 31
2.0051385517206137
  0
LINE
  5
125
330
17
100
AcDbEntity
  8
0
100
AcDbLine
 10
-0.33824406260000006
 20
0.7291517163500001
 30
2.0051385517206137
 11
-0.39656504670000003
 21
0.7346426978500001
 31
2.065779914925478
  0
LINE
  5
126
330
17
100
AcDbEntity
  8
0
100
AcDbLine
 10
-0.39656504670000003
 20
0.7346426978500001
 30
2.065779914925478
 11
-0.4705837357000001
 21
0.7416697197500001
 31
2.136192473017699
  0
LINE
  5
127
330
17
100
AcDbEntity
  8
0
100
AcDbLine
 10
-0.4705837357000001
 20
0.7416697197500001
 30
2.136192473017699
 11
-0.5303276720000001
 21
0.74605111575
 31
2.1887646529694567
  0
LINE
  5
128
330
17
100
AcDbEntity
  8
0
100
AcDbLine
 10
-0.5303276720000001
 20
0.74605111575
 30
2.1887646529694567
 11
-0.6098273317
 21
0.7518997988500001
 31
2.252238047500942
  0
LINE
  5
129
330
17
100
AcDbEntity
  8
0
100
AcDbLine
 10
-0.6098273317
 20
0.7518997988500001
 30
2.252238047500942
 11
-0.6695068447000001
 21
0.7551403585500001
 31
2.296158149832632
  0
LINE
  5
12A
330
17
100
AcDbEntity
  8
0
100
AcDbLine
 10
-0.6695068447000001
 20
0.7551403585500001
 30
2.296158149832632
 11
-0.7524072969000001
 21
0.7596221662500001
 31
2.3514228803996278
  0
LINE
  5
12B
330
17
100
AcDbEntity
  8
0
100
AcDbLine
 10
-0.7524072969000001
 20
0.7596221662500001
 30
2.3514228803996278
 11
-0.8106842468000001
 21
0.7616903507500001
 31
2.3873435874832336
  0
LINE
  5
12C
330
17
100
AcDbEntity
  8
0
100
AcDbLine
 10
-0.8106842468000001
 20
0.7616903507500001
 30
2.3873435874832336
 11
-0.8947554347000001
 21
0.7646175685500001
 31
2.4344602185343587
  0
LINE
  5
12D
330
17
100
AcDbEntity
  8
0
100
AcDbLine
 10
-0.8947554347000001
 20
0.7646175685500001
 30
2.4344602185343587
 11
-0.9504100739000001
 21
0.7654779392500001
 31
2.46355641673477
  0
LINE
  5
12E
330
17
100
AcDbEntity
  8
0
100
AcDbLine
 10
-0.9504100739000001
 20
0.7654779392500001
 30
2.46355641673477
 11
-1.0333030531
 21
0.76666738055
 31
2.5032583773439647
  0
LINE
  5
12F
330
17
100
AcDbEntity
  8
0
100
AcDbLine
 10
-1.0333030531
 20
0.76666738055
 30
2.5032583773439647
 11
-1.0851998816700001
 21
0.7662770116500001
 31
2.5267737668787063
  0
LINE
  5
130
330
17
100
AcDbEntity
  8
0
100
AcDbLine
 10
-1.0851998816700001
 20
0.7662770116500001
 30
2.5267737668787063
 11
-1.1644811385140001
 21
0.7655536674500001
 31
2.560018650589919
  0
LINE
  5
131
330
17
100
AcDbEntity
  8
0
100
AcDbLine
 10
-1.1644811385140001
 20
0.7655536674500001
 30
2.560018650589919
 11
-1.2115319336500001
 21
0.7638583685500001
 31
2.5790554469083204
  0
LINE
  5
132
330
17
100
AcDbEntity
  8
0
100
AcDbLine
 10
-1.2115319336500001
 20
0.7638583685500001
 30
2.5790554469083204
 11
-1.2847205516
 21
0.7610592414500001
 31
2.6067854384339566
  0
LINE
  5
133
330
17
100
AcDbEntity
  8
0
100
AcDbLine
 10
-1.2847205516
 20
0.7610592414500001
 30
2.6067854384339566
 11
-1.3258439403
 21
0.7579892977500001
 31
2.622239493861934
  0
LINE
  5
134
330
17
100
AcDbEntity
  8
0
100
AcDbLine
 10
-1.3258439403
 20
0.7579892977500001
 30
2.622239493861934
 11
-1.390452247
 21
0.7529677317500001
 31
2.6452777247901746
  0
LINE
  5
135
330
17
100
AcDbEntity
  8
0
100
AcDbLine
 10
-1.390452247
 20
0.7529677317500001
 30
2.6452777247901746
 11
-1.4245280409
 21
0.7484327636500001
 31
2.6578399816834213
  0
LINE
  5
136
330
17
100
AcDbEntity
  8
0
100
AcDbLine
 10
-1.4245280409
 20
0.7484327636500001
 30
2.6578399816834213
 11
-1.4781075325000002
 21
0.7410636936500001
 31
2.6768577981360027
  0
LINE
  5
137
330
17
100
AcDbEntity
  8
0
100
AcDbLine
 10
-1.4781075325000002
 20
0.7410636936500001
 30
2.6768577981360027
 11
-1.5039226221000002
 21
0.7349460669500001
 31
2.687037069138785
  0
LINE
  5
138
330
17
100
AcDbEntity
  8
0
100
AcDbLine
 10
-1.5039226221000002
 20
0.7349460669500001
 30
2.687037069138785
 11
-1.5441183942
 21
0.7251327836500001
 31
2.702551598525376
  0
LINE
  5
139
330
17
100
AcDbEntity
  8
0
100
AcDbLine
 10
-1.5441183942
 20
0.7251327836500001
 30
2.702551598525376
 11
-1.560298957
 21
0.7172787249500001
 31
2.710696629944289
  0
LINE
  5
13A
330
17
100
AcDbEntity
  8
0
100
AcDbLine
 10
-1.560298957
 20
0.7172787249500001
 30
2.710696629944289
 11
-1.5849179325
 21
0.7049620447500001
 31
2.723076434486705
  0
LINE
  5
13B
330
17
100
AcDbEntity
  8
0
100
AcDbLine
 10
-1.5849179325
 20
0.7049620447500001
 30
2.723076434486705
 11
-1.6366510644
 21
0.6514477516500001
 31
2.762779624547927
  0
LINE
  5
13C
330
17
100
AcDbEntity
  8
0
100
AcDbLine
 10
-1.6366510644
 20
0.6514477516500001
 30
2.762779624547927
 11
-1.698439229
 21
0.5866582838500001
 31
2.8090125537614794
  0
LINE
  5
13D
330
17
100
AcDbEntity
  8
0
100
AcDbLine
 10
-1.698439229
 20
0.5866582838500001
 30
2.8090125537614794
 11
-1.7698417927
 21
0.5010936508500001
 31
2.8656847336181346
  0
LINE
  5
13E
330
17
100
AcDbEntity
  8
0
100
AcDbLine
 10
-1.7698417927
 20
0.5010936508500001
 30
2.8656847336181346
 11
-1.8187970647
 21
0.4425480625500001
 31
2.9029117142898917
  0
LINE
  5
13F
330
17
100
AcDbEntity
  8
0
100
AcDbLine
 10
-1.8187970647
 20
0.4425480625500001
 30
2.9029117142898917
 11
-1.9185211058
 21
0.3415448219500001
 31
2.965413338616226
  0
LINE
  5
140
330
17
100
AcDbEntity
  8
0
100
AcDbLine
 10
-1.9185211058
 20
0.3415448219500001
 30
2.965413338616226
 11
-1.9396808970000001
 21
0.3203353549500001
 31
2.977921491879905
  0
LINE
  5
141
330
17
100
AcDbEntity
  8
0
100
AcDbLine
 10
-1.9396808970000001
 20
0.3203353549500001
 30
2.977921491879905
 11
-2.0545203239000003
 21
0.2685806341500001
 31
3.0116031065131557
  0
LINE
  5
142
330
17
100
AcDbEntity
  8
0
100
AcDbLine
 10
-2.0545203239000003
 20
0.2685806341500001
 30
3.0116031065131557
 11
-2.0549179325
 21
0.2684047785500001
 31
3.0117121175387203
  0
LINE
  5
143
330
17
100
AcDbEntity
  8
0
100
AcDbLine
 10
-2.0549179325
 20
0.2684047785500001
 30
3.0117121175387203
 11
-2.0870261071
 21
0.2671326547500001
 31
3.0142880641320215
  0
LINE
  5
144
330
17
100
AcDbEntity
  8
0
100
AcDbLine
 10
-2.0870261071
 20
0.2671326547500001
 30
3.0142880641320215
 11
-2.1654067745
 21
0.2640001405500001
 31
3.0202742607164743
  0
LINE
  5
145
330
17
100
AcDbEntity
  8
0
100
AcDbLine
 10
-2.1654067745
 20
0.2640001405500001
 30
3.0202742607164743
 11
-2.1664096615000004
 21
0.2638921433500001
 31
3.0203789946859443
  0
LINE
  5
146
330
17
100
AcDbEntity
  8
0
100
AcDbLine
 10
-2.1664096615000004
 20
0.2638921433500001
 30
3.0203789946859443
 11
-2.2757613025000003
 21
0.2525877945500001
 31
3.031054613430473
  0
LINE
  5
147
330
17
100
AcDbEntity
  8
0
100
AcDbLine
 10
-2.2757613025000003
 20
0.2525877945500001
 30
3.031054613430473
 11
-2.2805024345
 21
0.2518755690500001
 31
3.0315910952232423
  0
LINE
  5
148
330
17
100
AcDbEntity
  8
0
100
AcDbLine
 10
-2.2805024345
 20
0.2518755690500001
 30
3.0315910952232423
 11
-2.3856945685
 21
0.23638120325000012
 31
3.0428322413796236
  0
LINE
  5
149
330
17
100
AcDbEntity
  8
0
100
AcDbLine
 10
-2.3856945685
 20
0.23638120325000012
 30
3.0428322413796236
 11
-2.3957234805
 21
0.23465543145000012
 31
3.043956463126818
  0
LINE
  5
14A
330
17
100
AcDbEntity
  8
0
100
AcDbLine
 10
-2.3957234805
 20
0.23465543145000012
 30
3.043956463126818
 11
-2.4949179325
 21
0.2176272766500001
 31
3.0545846515113144
  0
LINE
  5
14B
330
17
100
AcDbEntity
  8
0
100
AcDbLine
 10
-2.4949179325
 20
0.2176272766500001
 30
3.0545846515113144
 11
-2.5070025055
 21
0.2154061321500001
 31
3.0558813768879394
  0
LINE
  5
14C
330
17
100
AcDbEntity
  8
0
100
AcDbLine
 10
-2.5070025055
 20
0.2154061321500001
 30
3.0558813768879394
 11
-2.5786604225
 21
0.2021751072500001
 31
3.063349560298984
  0
LINE
  5
14D
330
17
100
AcDbEntity
  8
0
100
AcDbLine
 10
-2.5786604225
 20
0.2021751072500001
 30
3.063349560298984
 11
-2.5983172615
 21
0.19832425055000008
 31
3.0654124074978712
  0
LINE
  5
14E
330
17
100
AcDbEntity
  8
0
100
AcDbLine
 10
-2.5983172615
 20
0.19832425055000008
 30
3.0654124074978712
 11
-2.6782058375
 21
0.1826320035500001
 31
3.0735061382811044
  0
LINE
  5
14F
330
17
100
AcDbEntity
  8
0
100
AcDbLine
 10
-2.6782058375
 20
0.1826320035500001
 30
3.0735061382811044
 11
-2.7071395355
 21
0.17662092135000007
 31
3.0764423517714605
  0
LINE
  5
150
330
17
100
AcDbEntity
  8
0
100
AcDbLine
 10
-2.7071395355
 20
0.17662092135000007
 30
3.0764423517714605
 11
-2.7835760965
 21
0.1606879809500001
 31
3.0839294757944082
  0
LINE
  5
151
330
17
100
AcDbEntity
  8
0
100
AcDbLine
 10
-2.7835760965
 20
0.1606879809500001
 30
3.0839294757944082
 11
-2.8212743305
 21
0.1522863341500001
 31
3.087667131497634
  0
LINE
  5
152
330
17
100
AcDbEntity
  8
0
100
AcDbLine
 10
-2.8212743305
 20
0.1522863341500001
 30
3.087667131497634
 11
-2.8847968385
 21
0.1380452318500001
 31
3.093776458831657
  0
LINE
  5
153
330
17
100
AcDbEntity
  8
0
100
AcDbLine
 10
-2.8847968385
 20
0.1380452318500001
 30
3.093776458831657
 11
-2.9268856815
 21
0.12765556605000009
 31
3.098005466438681
  0
LINE
  5
154
330
17
100
AcDbEntity
  8
0
100
AcDbLine
 10
-2.9268856815
 20
0.12765556605000009
 30
3.098005466438681
 11
-2.9718989025
 21
0.1164210887500001
 31
3.102438700488928
  0
LINE
  5
155
330
17
100
AcDbEntity
  8
0
100
AcDbLine
 10
-2.9718989025
 20
0.1164210887500001
 30
3.102438700488928
 11
-3.0092140145000004
 21
0.10533622435000009
 31
3.1066023764158417
  0
LINE
  5
156
330
17
100
AcDbEntity
  8
0
100
AcDbLine
 10
-3.0092140145000004
 20
0.10533622435000009
 30
3.1066023764158417
 11
-3.0349179325
 21
0.09754189515000009
 31
3.1094638342577223
  0
LINE
  5
157
330
17
100
AcDbEntity
  8
0
100
AcDbLine
 10
-3.0349179325
 20
0.09754189515000009
 30
3.1094638342577223
 11
-3.0767209545
 21
0.0690285019500001
 31
3.1191606799553884
  0
LINE
  5
158
330
17
100
AcDbEntity
  8
0
100
AcDbLine
 10
-3.0767209545
 20
0.0690285019500001
 30
3.1191606799553884
 11
-3.0983049415000004
 21
0.0534863181500001
 31
3.124331277811546
  0
LINE
  5
159
330
17
100
AcDbEntity
  8
0
100
AcDbLine
 10
-3.0983049415000004
 20
0.0534863181500001
 30
3.124331277811546
 11
-3.1417485005000003
 21
0.029880646150000106
 31
3.1320821070793388
  0
LINE
  5
15A
330
17
100
AcDbEntity
  8
0
100
AcDbLine
 10
-3.1417485005000003
 20
0.029880646150000106
 30
3.1320821070793388
 11
-3.1649179325
 21
0.0137379817500001
 31
3.1372519737486453
  0
LINE
  5
15B
330
17
100
AcDbEntity
  8
0
100
AcDbLine
 10
-3.1649179325
 20
0.0137379817500001
 30
3.1372519737486453
 11
-3.2207499875
 21
0.0017836793500000947
 31
3.1410388449506352
  0
LINE
  5
15C
330
17
100
AcDbEntity
  8
0
100
AcDbLine
 10
-3.2207499875
 20
0.0017836793500000947
 30
3.1410388449506352
 11
-3.2385023265
 21
-0.002322675549999903
 31
-3.1408754470178715
  0
ENDSEC
  0
SECTION
  2
OBJECTS
  0
DICTIONARY
  5
A
330
0
100
AcDbDictionary
281
1
  3
ACAD_COLOR
350
B
  3
ACAD_GROUP
350
C
  3
ACAD_LAYOUT
350
D
  3
ACAD_MATERIAL
350
E
  3
ACAD_MLEADERSTYLE
350
F
  3
ACAD_MLINESTYLE
350
10
  3
ACAD_PLOTSETTINGS
350
11
  3
ACAD_PLOTSTYLENAME
350
12
  3
ACAD_SCALELIST
350
14
  3
ACAD_TABLESTYLE
350
15
  3
ACAD_VISUALSTYLE
350
16
  0
DICTIONARY
  5
B
330
A
100
AcDbDictionary
281
1
  0
DICTIONARY
  5
C
330
A
100
AcDbDictionary
281
1
  0
DICTIONARY
  5
D
330
A
100
AcDbDictionary
281
1
  3
Model
350
1A
  3
Layout1
350
1E
  0
DICTIONARY
  5
E
330
A
100
AcDbDictionary
281
1
  3
ByBlock
350
1F
  3
ByLayer
350
20
  3
Global
350
21
  0
DICTIONARY
  5
F
330
A
100
AcDbDictionary
281
1
  3
Standard
350
2C
  0
DICTIONARY
  5
10
330
A
100
AcDbDictionary
281
1
  3
Standard
350
22
  0
DICTIONARY
  5
11
330
A
100
AcDbDictionary
281
1
  0
ACDBDICTIONARYWDFLT
  5
12
330
A
100
AcDbDictionary
281
1
  3
Normal
350
13
100
AcDbDictionaryWithDefault
340
13
  0
ACDBPLACEHOLDER
  5
13
330
12
  0
DICTIONARY
  5
14
330
A
100
AcDbDictionary
281
1
  0
DICTIONARY
  5
15
330
A
100
AcDbDictionary
281
1
  0
DICTIONARY
  5
16
330
A
100
AcDbDictionary
281
1
  0
LAYOUT
  5
1A
330
D
100
AcDbPlotSettings
  1

  2
Adobe PDF
  4
A4
  6

 40
3.175
 41
3.175
 42
3.175
 43
3.175
 44
209.91
 45
297.03
 46
0.0
 47
0.0
 48
0.0
 49
0.0
140
0.0
141
0.0
142
1.0
143
1.0
 70
1024
 72
0
 73
1
 74
5
  7

 75
16
 76
0
 77
2
 78
300
147
1.0
148
0.0
149
0.0
100
AcDbLayout
  1
Model
 70
1
 71
0
 10
-3.175
 20
-3.175
 11
293.857
 21
206.735
 12
0.0
 22
0.0
 32
0.0
 14
29.068
 24
20.356
 34
0.0
 15
261.614
 25
183.204
 35
0.0
146
0.0
 13
0.0
 23
0.0
 33
0.0
 16
1.0
 26
0.0
 36
0.0
 17
0.0
 27
1.0
 37
0.0
 76
1
330
17
  0
LAYOUT
  5
1E
330
D
100
AcDbPlotSettings
  1

  2
Adobe PDF
  4
A4
  6

 40
3.175
 41
3.175
 42
3.175
 43
3.175
 44
209.91
 45
297.03
 46
0.0
 47
0.0
 48
0.0
 49
0.0
140
0.0
141
0.0
142
1.0
143
1.0
 70
0
 72
0
 73
1
 74
5
  7

 75
16
 76
0
 77
2
 78
300
147
1.0
148
0.0
149
0.0
100
AcDbLayout
  1
Layout1
 70
1
 71
1
 10
-3.175
 20
-3.175
 11
293.857
 21
206.735
 12
0.0
 22
0.0
 32
0.0
 14
29.068
 24
20.356
 34
0.0
 15
261.614
 25
183.204
 35
0.0
146
0.0
 13
0.0
 23
0.0
 33
0.0
 16
1.0
 26
0.0
 36
0.0
 17
0.0
 27
1.0
 37
0.0
 76
1
330
1B
  0
MATERIAL
  5
1F
102
{ACAD_REACTORS
330
E
102
}
330
E
100
AcDbMaterial
  1
ByBlock
  2

 70
0
 40
1.0
 71
1
 41
1.0
 91
-1023410177
 42
1.0
 72
1
  3

 73
1
 74
1
 75
1
 44
0.5
 73
0
 45
1.0
 46
1.0
 77
1
  4

 78
1
 79
1
170
1
 48
1.0
171
1
  6

172
1
173
1
174
1
140
1.0
141
1.0
175
1
  7

176
1
177
1
178
1
143
1.0
179
1
  8

270
1
271
1
272
1
145
1.0
146
1.0
273
1
  9

274
1
275
1
276
1
 42
1.0
 72
1
  3

 73
1
 74
1
 75
1
 94
63
  0
MATERIAL
  5
20
102
{ACAD_REACTORS
330
E
102
}
330
E
100
AcDbMaterial
  1
ByLayer
  2

 70
0
 40
1.0
 71
1
 41
1.0
 91
-1023410177
 42
1.0
 72
1
  3

 73
1
 74
1
 75
1
 44
0.5
 73
0
 45
1.0
 46
1.0
 77
1
  4

 78
1
 79
1
170
1
 48
1.0
171
1
  6

172
1
173
1
174
1
140
1.0
141
1.0
175
1
  7

176
1
177
1
178
1
143
1.0
179
1
  8

270
1
271
1
272
1
145
1.0
146
1.0
273
1
  9

274
1
275
1
276
1
 42
1.0
 72
1
  3

 73
1
 74
1
 75
1
 94
63
  0
MATERIAL
  5
21
102
{ACAD_REACTORS
330
E
102
}
330
E
100
AcDbMaterial
  1
Global
  2

 70
0
 40
1.0
 71
1
 41
1.0
 91
-1023410177
 42
1.0
 72
1
  3

 73
1
 74
1
 75
1
 44
0.5
 73
0
 45
1.0
 46
1.0
 77
1
  4

 78
1
 79
1
170
1
 48
1.0
171
1
  6

172
1
173
1
174
1
140
1.0
141
1.0
175
1
  7

176
1
177
1
178
1
143
1.0
179
1
  8

270
1
271
1
272
1
145
1.0
146
1.0
273
1
  9

274
1
275
1
276
1
 42
1.0
 72
1
  3

 73
1
 74
1
 75
1
 94
63
  0
MLINESTYLE
  5
22
102
{ACAD_REACTORS
330
10
102
}
330
10
100
AcDbMlineStyle
  2
Standard
 70
0
  3

 62
256
 51
90.0
 52
90.0
 71
2
 49
0.5
 62
256
  6
BYLAYER
 49
-0.5
 62
256
  6
BYLAYER
  0
MLEADERSTYLE
  5
2C
102
{ACAD_REACTORS
330
F
102
}
330
F
100
AcDbMLeaderStyle
179
2
170
2
171
1
172
0
 90
2
 40
0.0
 41
0.0
173
1
 91
-1056964608
 92
-2
290
1
 42
2.0
291
1
 43
8.0
  3
Standard
 44
4.0
300

342
29
174
1
175
1
176
0
178
1
 93
-1056964608
 45
4.0
292
0
297
0
 46
4.0
 94
-1056964608
 47
1.0
 49
0.0
140
1.0
294
1
141
0.0
177
0
142
1.0
295
0
296
0
143
3.75
271
0
272
9
272
9
  0
ENDSEC
  0
EOF
