  0
SECTION
  2
HEADER
  9
$ACADVER
  1
AC1009
  9
$DWGCODEPAGE
  3
ANSI_1252
  9
$INSBASE
 10
0.0
 20
0.0
 30
0.0
  9
$EXTMIN
 10
-100
 20
-100
 30
-100
  9
$EXTMAX
 10
100
 20
100
 30
100
  9
$LIMMIN
 10
0.0
 20
0.0
  9
$LIMMAX
 10
420.0
 20
297.0
  9
$ORTHOMODE
 70
0
  9
$REGENMODE
 70
1
  9
$DRAGMODE
 70
2
  9
$FILLMODE
 70
1
  9
$QTEXTMODE
 70
0
  9
$MIRRTEXT
 70
1
  9
$OSMODE
 70
20583
  9
$LTSCALE
 40
1.0
  9
$ATTMODE
 70
1
  9
$TEXTSIZE
 40
2.5
  9
$TRACEWID
 40
1.0
  9
$TEXTSTYLE
  7
Standard
  9
$CLAYER
  8
0
  9
$CELTYPE
  6
ByLayer
  9
$CECOLOR
 62
256
  9
$DIMSCALE
 40
1.0
  9
$DIMASZ
 40
2.5
  9
$DIMEXO
 40
0.625
  9
$DIMDLI
 40
3.75
  9
$DIMRND
 40
0.0
  9
$DIMDLE
 40
0.0
  9
$DIMEXE
 40
1.25
  9
$DIMTP
 40
0.0
  9
$DIMTM
 40
0.0
  9
$DIMTXT
 40
2.5
  9
$DIMCEN
 40
2.5
  9
$DIMTSZ
 40
0.0
  9
$DIMTOL
 70
0
  9
$DIMLIM
 70
0
  9
$DIMTIH
 70
0
  9
$DIMTOH
 70
0
  9
$DIMSE1
 70
0
  9
$DIMSE2
 70
0
  9
$DIMTAD
 70
1
  9
$DIMZIN
 70
8
  9
$DIMBLK
  1

  9
$DIMASO
 70
1
  9
$DIMSHO
 70
1
  9
$DIMPOST
  1

  9
$DIMAPOST
  1

  9
$DIMALT
 70
0
  9
$DIMALTD
 70
3
  9
$DIMALTF
 40
0.03937007874
  9
$DIMLFAC
 40
1.0
  9
$DIMTOFL
 70
1
  9
$DIMTVP
 40
0.0
  9
$DIMTIX
 70
0
  9
$DIMSOXD
 70
0
  9
$DIMSAH
 70
0
  9
$DIMBLK1
  1

  9
$DIMBLK2
  1

  9
$DIMSTYLE
  2
ISO-25
  9
$DIMCLRD
 70
0
  9
$DIMCLRE
 70
0
  9
$DIMCLRT
 70
0
  9
$DIMTFAC
 40
1.0
  9
$DIMGAP
 40
0.625
  9
$COORDS
 70
1
  9
$ATTDIA
 70
0
  9
$ATTREQ
 70
1
  9
$HANDLING
 70
1
  9
$LUNITS
 70
2
  9
$LUPREC
 70
4
  9
$SKETCHINC
 40
1.0
  9
$FILLETRAD
 40
10.0
  9
$AUNITS
 70
0
  9
$AUPREC
 70
2
  9
$MENU
  1
.
  9
$ELEVATION
 40
0.0
  9
$PELEVATION
 40
0.0
  9
$THICKNESS
 40
0.0
  9
$LIMCHECK
 70
0
  9
$CHAMFERA
 40
0.0
  9
$CHAMFERB
 40
0.0
  9
$SKPOLY
 70
0
  9
$TDCREATE
 40
2459746.820277778
  9
$TDUPDATE
 40
2459746.820277778
  9
$TDINDWG
 40
0.0
  9
$TDUSRTIMER
 40
0.0
  9
$USRTIMER
 70
1
  9
$ANGBASE
 50
0.0
  9
$ANGDIR
 70
0
  9
$PDMODE
 70
0
  9
$PDSIZE
 40
0.0
  9
$PLINEWID
 40
0.0
  9
$SPLFRAME
 70
0
  9
$SPLINETYPE
 70
6
  9
$SPLINESEGS
 70
8
  9
$HANDSEED
  5
92
  9
$SURFTAB1
 70
6
  9
$SURFTAB2
 70
6
  9
$SURFTYPE
 70
6
  9
$SURFU
 70
6
  9
$SURFV
 70
6
  9
$UCSNAME
  2

  9
$UCSORG
 10
0.0
 20
0.0
 30
0.0
  9
$UCSXDIR
 10
1.0
 20
0.0
 30
0.0
  9
$UCSYDIR
 10
0.0
 20
1.0
 30
0.0
  9
$PUCSNAME
  2

  9
$PUCSORG
 10
0.0
 20
0.0
 30
0.0
  9
$PUCSXDIR
 10
1.0
 20
0.0
 30
0.0
  9
$PUCSYDIR
 10
0.0
 20
1.0
 30
0.0
  9
$USERI1
 70
0
  9
$USERI2
 70
0
  9
$USERI3
 70
0
  9
$USERI4
 70
0
  9
$USERI5
 70
0
  9
$USERR1
 40
0.0
  9
$USERR2
 40
0.0
  9
$USERR3
 40
0.0
  9
$USERR4
 40
0.0
  9
$USERR5
 40
0.0
  9
$WORLDVIEW
 70
1
  9
$SHADEDGE
 70
3
  9
$SHADEDIF
 70
70
  9
$TILEMODE
 70
1
  9
$MAXACTVP
 70
64
  9
$PLIMCHECK
 70
0
  9
$PEXTMIN
 10
1e+20
 20
1e+20
 30
1e+20
  9
$PEXTMAX
 10
-1e+20
 20
-1e+20
 30
-1e+20
  9
$PLIMMIN
 10
0.0
 20
0.0
  9
$PLIMMAX
 10
420.0
 20
297.0
  9
$UNITMODE
 70
0
  9
$VISRETAIN
 70
1
  9
$PLINEGEN
 70
0
  9
$PSLTSCALE
 70
1
  0
ENDSEC
  0
SECTION
  2
TABLES
  0
TABLE
  2
VPORT
 70
1
  0
VPORT
  5
23
  2
*Active
 70
0
 10
0.0
 20
0.0
 11
1.0
 21
1.0
 12
70.0
 22
50.0
 13
0.0
 23
0.0
 14
0.5
 24
0.5
 15
0.5
 25
0.5
 16
0.0
 26
0.0
 36
1.0
 17
0.0
 27
0.0
 37
0.0
 40
1.0
 41
1.34
 42
50.0
 43
0.0
 44
0.0
 50
0.0
 51
0.0
 71
0
 72
1000
 73
1
 74
3
 75
0
 76
0
 77
0
 78
0
  0
ENDTAB
  0
TABLE
  2
LTYPE
 70
3
  0
LTYPE
  5
24
  2
ByBlock
 70
0
  3

 72
65
 73
0
 40
0.0
  0
LTYPE
  5
25
  2
ByLayer
 70
0
  3

 72
65
 73
0
 40
0.0
  0
LTYPE
  5
26
  2
Continuous
 70
0
  3

 72
65
 73
0
 40
0.0
  0
ENDTAB
  0
TABLE
  2
LAYER
 70
2
  0
LAYER
  5
27
  2
0
 70
0
 62
7
  6
Continuous
  0
LAYER
  5
28
  2
Defpoints
 70
0
 62
7
  6
Continuous
  0
ENDTAB
  0
TABLE
  2
STYLE
 70
1
  0
STYLE
  5
29
  2
Standard
 70
0
 40
0.0
 41
1.0
 50
0.0
 71
0
 42
2.5
  3
txt
  4

  0
ENDTAB
  0
TABLE
  2
VIEW
 70
0
  0
ENDTAB
  0
TABLE
  2
UCS
 70
0
  0
ENDTAB
  0
TABLE
  2
APPID
 70
2
  0
APPID
  5
2A
  2
ACAD
 70
0
  0
APPID
  5
91
  2
HATCHBACKGROUNDCOLOR
 70
0
  0
ENDTAB
  0
TABLE
  2
DIMSTYLE
 70
1
  0
DIMSTYLE
105
2B
  2
Standard
 70
0
  3

  4

  5

  6

  7

 40
1.0
 41
2.5
 42
0.625
 43
3.75
 44
1.25
 45
0.0
 46
0.0
 47
0.0
 48
0.0
140
2.5
141
2.5
142
0.0
143
0.03937007874
144
1.0
145
0.0
146
1.0
147
0.625
 71
0
 72
0
 73
0
 74
0
 75
0
 76
0
 77
1
 78
8
170
0
171
3
172
1
173
0
174
0
175
0
176
0
177
0
178
0
  0
ENDTAB
  0
ENDSEC
  0
SECTION
  2
BLOCKS
  0
BLOCK
  5
18
  8
0
  2
$Model_Space
 70
0
 10
0.0
 20
0.0
 30
0.0
  3
$Model_Space
  1

  0
ENDBLK
  5
19
  8
0
  0
BLOCK
  5
1C
  8
0
  2
$Paper_Space
 70
0
 10
0.0
 20
0.0
 30
0.0
  3
$Paper_Space
  1

  0
ENDBLK
  5
1D
  8
0
  0
ENDSEC
  0
SECTION
  2
ENTITIES
  0
LINE
  5
2D
  8
0
 10
-0.3956551265
 20
-0.030348929379999987
 30
-3.0650370502244013
 11
-0.3955351345
 21
-0.05385570889999999
 31
-3.006265745131201
  0
LINE
  5
2E
  8
0
 10
-0.3955351345
 20
-0.05385570889999999
 30
-3.006265745131201
 11
-0.3939707003
 21
-0.08510336846
 31
-2.9288470565931863
  0
LINE
  5
2F
  8
0
 10
-0.3939707003
 20
-0.08510336846
 30
-2.9288470565931863
 11
-0.3927704037
 21
-0.10859081476999999
 31
-2.8718565696313676
  0
LINE
  5
30
  8
0
 10
-0.3927704037
 20
-0.10859081476999999
 30
-2.8718565696313676
 11
-0.3882742114
 21
-0.13953908595999998
 31
-2.796583539585326
  0
LINE
  5
31
  8
0
 10
-0.3882742114
 20
-0.13953908595999998
 30
-2.796583539585326
 11
-0.3848406716
 21
-0.16280052535
 31
-2.7413887636051926
  0
LINE
  5
32
  8
0
 10
-0.3848406716
 20
-0.16280052535
 30
-2.7413887636051926
 11
-0.375832044
 21
-0.19268498058
 31
-2.6678453969303226
  0
LINE
  5
33
  8
0
 10
-0.375832044
 20
-0.19268498058
 30
-2.6678453969303226
 11
-0.3689561036
 21
-0.21513349129999998
 31
-2.6137020505430395
  0
LINE
  5
34
  8
0
 10
-0.3689561036
 20
-0.21513349129999998
 30
-2.6137020505430395
 11
-0.3541863512
 21
-0.242475067
 31
-2.541278952834582
  0
LINE
  5
35
  8
0
 10
-0.3541863512
 20
-0.242475067
 30
-2.541278952834582
 11
-0.342913418
 21
-0.2629772151
 31
-2.487368654925233
  0
LINE
  5
36
  8
0
 10
-0.342913418
 20
-0.2629772151
 30
-2.487368654925233
 11
-0.3222571528
 21
-0.2859319448
 31
-2.415850452659551
  0
LINE
  5
37
  8
0
 10
-0.3222571528
 20
-0.2859319448
 30
-2.415850452659551
 11
-0.3064936461
 21
-0.3030760659
 31
-2.361800976742993
  0
LINE
  5
38
  8
0
 10
-0.3064936461
 20
-0.3030760659
 30
-2.361800976742993
 11
-0.2812329761
 21
-0.320472479
 31
-2.2910728968426723
  0
LINE
  5
39
  8
0
 10
-0.2812329761
 20
-0.320472479
 30
-2.2910728968426723
 11
-0.2619635803
 21
-0.33336272349999996
 31
-2.23683182289263
  0
LINE
  5
3A
  8
0
 10
-0.2619635803
 20
-0.33336272349999996
 30
-2.23683182289263
 11
-0.2339380644
 21
-0.3453894247
 31
-2.166135911725722
  0
LINE
  5
3B
  8
0
 10
-0.2339380644
 20
-0.3453894247
 30
-2.166135911725722
 11
-0.212575309
 21
-0.3541717398
 31
-2.1113658428022704
  0
LINE
  5
3C
  8
0
 10
-0.212575309
 20
-0.3541717398
 30
-2.1113658428022704
 11
-0.1831789405
 21
-0.36187355509999997
 31
-2.0393884286264012
  0
LINE
  5
3D
  8
0
 10
-0.1831789405
 20
-0.36187355509999997
 30
-2.0393884286264012
 11
-0.1607963533
 21
-0.36735021959999997
 31
-1.98339098698388
  0
LINE
  5
3E
  8
0
 10
-0.1607963533
 20
-0.36735021959999997
 30
-1.98339098698388
 11
-0.1307536206
 21
-0.37187657539999996
 31
-1.9089001719314171
  0
LINE
  5
3F
  8
0
 10
-0.1307536206
 20
-0.37187657539999996
 30
-1.9089001719314171
 11
-0.1079202128
 21
-0.3749345591
 31
-1.8510578217732558
  0
LINE
  5
40
  8
0
 10
-0.1079202128
 20
-0.3749345591
 30
-1.8510578217732558
 11
-0.07747216906
 21
-0.3773989212
 31
-1.7732629007415395
  0
LINE
  5
41
  8
0
 10
-0.07747216906
 20
-0.3773989212
 30
-1.7732629007415395
 11
-0.05440136419
 21
-0.3789132055
 31
-1.7133939680184993
  0
LINE
  5
42
  8
0
 10
-0.05440136419
 20
-0.3789132055
 30
-1.7133939680184993
 11
-0.02337187713
 21
-0.3799466995
 31
-1.632232483001177
  0
LINE
  5
43
  8
0
 10
-0.02337187713
 20
-0.3799466995
 30
-1.632232483001177
 11
5.551115123e-17
 21
-0.3805323437
 31
-1.5707963267948966
  0
LINE
  5
44
  8
0
 10
5.551115123e-17
 20
-0.3805323437
 30
-1.5707963267948966
 11
0.02337187713
 21
-0.3799466995
 31
-1.5093601705886162
  0
LINE
  5
45
  8
0
 10
0.02337187713
 20
-0.3799466995
 30
-1.5093601705886162
 11
0.05440136419
 21
-0.3789132055
 31
-1.4281986855712938
  0
LINE
  5
46
  8
0
 10
0.05440136419
 20
-0.3789132055
 30
-1.4281986855712938
 11
0.07747216906
 21
-0.3773989212
 31
-1.3683297528482539
  0
LINE
  5
47
  8
0
 10
0.07747216906
 20
-0.3773989212
 30
-1.3683297528482539
 11
0.1079202128
 21
-0.3749345591
 31
-1.2905348318165375
  0
LINE
  5
48
  8
0
 10
0.1079202128
 20
-0.3749345591
 30
-1.2905348318165375
 11
0.1307536206
 21
-0.37187657539999996
 31
-1.232692481658376
  0
LINE
  5
49
  8
0
 10
0.1307536206
 20
-0.37187657539999996
 30
-1.232692481658376
 11
0.1607963533
 21
-0.36735021959999997
 31
-1.1582016666059132
  0
LINE
  5
4A
  8
0
 10
0.1607963533
 20
-0.36735021959999997
 30
-1.1582016666059132
 11
0.1831789405
 21
-0.36187355509999997
 31
-1.1022042249633919
  0
LINE
  5
4B
  8
0
 10
0.1831789405
 20
-0.36187355509999997
 30
-1.1022042249633919
 11
0.212575309
 21
-0.3541717398
 31
-1.030226810787523
  0
LINE
  5
4C
  8
0
 10
0.212575309
 20
-0.3541717398
 30
-1.030226810787523
 11
0.2339380644
 21
-0.3453894247
 31
-0.9754567418640712
  0
LINE
  5
4D
  8
0
 10
0.2339380644
 20
-0.3453894247
 30
-0.9754567418640712
 11
0.2619635803
 21
-0.33336272349999996
 31
-0.9047608306971631
  0
LINE
  5
4E
  8
0
 10
0.2619635803
 20
-0.33336272349999996
 30
-0.9047608306971631
 11
0.2812329761
 21
-0.320472479
 31
-0.850519756747121
  0
LINE
  5
4F
  8
0
 10
0.2812329761
 20
-0.320472479
 30
-0.850519756747121
 11
0.3064936461
 21
-0.3030760659
 31
-0.7797916768468004
  0
LINE
  5
50
  8
0
 10
0.3064936461
 20
-0.3030760659
 30
-0.7797916768468004
 11
0.3222571528
 21
-0.2859319448
 31
-0.7257422009302421
  0
LINE
  5
51
  8
0
 10
0.3222571528
 20
-0.2859319448
 30
-0.7257422009302421
 11
0.342913418
 21
-0.262977215
 31
-0.6542239984809349
  0
LINE
  5
52
  8
0
 10
0.342913418
 20
-0.262977215
 30
-0.6542239984809349
 11
0.3541863512
 21
-0.2424750671
 31
-0.6003137009474508
  0
LINE
  5
53
  8
0
 10
0.3541863512
 20
-0.2424750671
 30
-0.6003137009474508
 11
0.3689561038
 21
-0.2151334916
 31
-0.5278906034176749
  0
LINE
  5
54
  8
0
 10
0.3689561038
 20
-0.2151334916
 30
-0.5278906034176749
 11
0.3758320441
 21
-0.19268498078
 31
-0.47374725697283954
  0
LINE
  5
55
  8
0
 10
0.3758320441
 20
-0.19268498078
 30
-0.47374725697283954
 11
0.3848406716
 21
-0.16280052535
 31
-0.4002038899846006
  0
LINE
  5
56
  8
0
 10
0.3848406716
 20
-0.16280052535
 30
-0.4002038899846006
 11
0.3882742109
 21
-0.13953908530999998
 31
-0.34500911293173764
  0
LINE
  5
57
  8
0
 10
0.3882742109
 20
-0.13953908530999998
 30
-0.34500911293173764
 11
0.3927704022
 21
-0.10859081279699999
 31
-0.2697360802727233
  0
LINE
  5
58
  8
0
 10
0.3927704022
 20
-0.10859081279699999
 30
-0.2697360802727233
 11
0.3939707001
 21
-0.08510336819999999
 31
-0.21274559647085248
  0
LINE
  5
59
  8
0
 10
0.3939707001
 20
-0.08510336819999999
 30
-0.21274559647085248
 11
0.3955351366
 21
-0.05385571182999999
 31
-0.13532691502169816
  0
LINE
  5
5A
  8
0
 10
0.3955351366
 20
-0.05385571182999999
 30
-0.13532691502169816
 11
0.3956551279
 21
-0.030348931199999984
 31
-0.07655560766862095
  0
LINE
  5
5B
  8
0
 10
0.3956551279
 20
-0.030348931199999984
 30
-0.07655560766862095
 11
0.3957951422
 21
0.0009307316000000121
 31
0.0023515444865022874
  0
LINE
  5
5C
  8
0
 10
0.3957951422
 20
0.0009307316000000121
 30
0.0023515444865022874
 11
0.3955022942
 21
0.0321998158
 31
0.08123581949968635
  0
LINE
  5
5D
  8
0
 10
0.3955022942
 20
0.0321998158
 30
0.08123581949968635
 11
0.3953014487
 21
0.05568695010000002
 31
0.13995118641375734
  0
LINE
  5
5E
  8
0
 10
0.3953014487
 20
0.05568695010000002
 30
0.13995118641375734
 11
0.3935928514
 21
0.08689873270000001
 31
0.2172973305071111
  0
LINE
  5
5F
  8
0
 10
0.3935928514
 20
0.08689873270000001
 30
0.2172973305071111
 11
0.3923180061
 21
0.11033302290000002
 31
0.2741522950355148
  0
LINE
  5
60
  8
0
 10
0.3923180061
 20
0.11033302290000002
 30
0.2741522950355148
 11
0.3876929075
 21
0.1412219308
 31
0.3493237736766858
  0
LINE
  5
61
  8
0
 10
0.3876929075
 20
0.1412219308
 30
0.3493237736766858
 11
0.3841987872
 21
0.1644003531
 31
0.4043281295584573
  0
LINE
  5
62
  8
0
 10
0.3841987872
 20
0.1644003531
 30
0.4043281295584573
 11
0.3750809756
 21
0.19420427020000003
 31
0.4777593802535635
  0
LINE
  5
63
  8
0
 10
0.3750809756
 20
0.19420427020000003
 30
0.4777593802535635
 11
0.3681668651
 21
0.21654615430000002
 31
0.5316784815152397
  0
LINE
  5
64
  8
0
 10
0.3681668651
 20
0.21654615430000002
 30
0.5316784815152397
 11
0.3533104451
 21
0.24378861490000003
 31
0.6039914299752939
  0
LINE
  5
65
  8
0
 10
0.3533104451
 20
0.24378861490000003
 30
0.6039914299752939
 11
0.3420291683
 21
0.2641699638
 31
0.6576591806622594
  0
LINE
  5
66
  8
0
 10
0.3420291683
 20
0.2641699638
 30
0.6576591806622594
 11
0.3213120817
 21
0.2870098287
 31
0.7290694905190255
  0
LINE
  5
67
  8
0
 10
0.3213120817
 20
0.2870098287
 30
0.7290694905190255
 11
0.3055739262
 21
0.3040303863
 31
0.7828661330792368
  0
LINE
  5
68
  8
0
 10
0.3055739262
 20
0.3040303863
 30
0.7828661330792368
 11
0.2802827695
 21
0.3213015727
 31
0.8534774161821962
  0
LINE
  5
69
  8
0
 10
0.2802827695
 20
0.3213015727
 30
0.8534774161821962
 11
0.2610709828
 21
0.33407595830000003
 31
0.9074555363421588
  0
LINE
  5
6A
  8
0
 10
0.2610709828
 20
0.33407595830000003
 30
0.9074555363421588
 11
0.2330490121
 21
0.34597636800000003
 31
0.9780104016595068
  0
LINE
  5
6B
  8
0
 10
0.2330490121
 20
0.34597636800000003
 30
0.9780104016595068
 11
0.2117710706
 21
0.3546574575
 31
1.0325013016305449
  0
LINE
  5
6C
  8
0
 10
0.2117710706
 20
0.3546574575
 30
1.0325013016305449
 11
0.1824128296
 21
0.36224364800000003
 31
1.1043016521132025
  0
LINE
  5
6D
  8
0
 10
0.1824128296
 20
0.36224364800000003
 30
1.1043016521132025
 11
0.1601365904
 21
0.367637716
 31
1.159996380532641
  0
LINE
  5
6E
  8
0
 10
0.1601365904
 20
0.367637716
 30
1.159996380532641
 11
0.1301626512
 21
0.3720707706
 31
1.2342702487626391
  0
LINE
  5
6F
  8
0
 10
0.1301626512
 20
0.3720707706
 30
1.2342702487626391
 11
0.107451747
 21
0.37506750510000003
 31
1.2917829529736524
  0
LINE
  5
70
  8
0
 10
0.107451747
 20
0.37506750510000003
 30
1.2917829529736524
 11
0.07709536398
 21
0.3774711568
 31
1.3693255224219583
  0
LINE
  5
71
  8
0
 10
0.07709536398
 20
0.3774711568
 30
1.3693255224219583
 11
0.05415816369
 21
0.3789473816
 31
1.4288402486833458
  0
LINE
  5
72
  8
0
 10
0.05415816369
 20
0.3789473816
 30
1.4288402486833458
 11
0.0232319992
 21
0.3799600568
 31
1.5097290840265096
  0
LINE
  5
73
  8
0
 10
0.0232319992
 20
0.3799600568
 30
1.5097290840265096
 11
-3.330669074e-16
 21
0.3805323437
 31
1.5707963267948974
  0
LINE
  5
74
  8
0
 10
-3.330669074e-16
 20
0.3805323437
 30
1.5707963267948974
 11
-0.0232319992
 21
0.3799600568
 31
1.6318635695632835
  0
LINE
  5
75
  8
0
 10
-0.0232319992
 20
0.3799600568
 30
1.6318635695632835
 11
-0.05415816369
 21
0.3789473816
 31
1.7127524049064475
  0
LINE
  5
76
  8
0
 10
-0.05415816369
 20
0.3789473816
 30
1.7127524049064475
 11
-0.07709536398
 21
0.3774711568
 31
1.7722671311678349
  0
LINE
  5
77
  8
0
 10
-0.07709536398
 20
0.3774711568
 30
1.7722671311678349
 11
-0.107451747
 21
0.37506750510000003
 31
1.849809700616141
  0
LINE
  5
78
  8
0
 10
-0.107451747
 20
0.37506750510000003
 30
1.849809700616141
 11
-0.1301626512
 21
0.3720707706
 31
1.9073224048271542
  0
LINE
  5
79
  8
0
 10
-0.1301626512
 20
0.3720707706
 30
1.9073224048271542
 11
-0.1601365904
 21
0.367637716
 31
1.9815962730571524
  0
LINE
  5
7A
  8
0
 10
-0.1601365904
 20
0.367637716
 30
1.9815962730571524
 11
-0.1824128296
 21
0.36224364800000003
 31
2.0372910014765906
  0
LINE
  5
7B
  8
0
 10
-0.1824128296
 20
0.36224364800000003
 30
2.0372910014765906
 11
-0.2117710706
 21
0.3546574575
 31
2.1090913519592482
  0
LINE
  5
7C
  8
0
 10
-0.2117710706
 20
0.3546574575
 30
2.1090913519592482
 11
-0.2330490121
 21
0.34597636800000003
 31
2.1635822519302863
  0
LINE
  5
7D
  8
0
 10
-0.2330490121
 20
0.34597636800000003
 30
2.1635822519302863
 11
-0.2610709828
 21
0.33407595830000003
 31
2.2341371172476343
  0
LINE
  5
7E
  8
0
 10
-0.2610709828
 20
0.33407595830000003
 30
2.2341371172476343
 11
-0.2802827695
 21
0.3213015727
 31
2.288115237407597
  0
LINE
  5
7F
  8
0
 10
-0.2802827695
 20
0.3213015727
 30
2.288115237407597
 11
-0.3055739262
 21
0.3040303863
 31
2.3587265205105563
  0
LINE
  5
80
  8
0
 10
-0.3055739262
 20
0.3040303863
 30
2.3587265205105563
 11
-0.3213120817
 21
0.28700982880000003
 31
2.412523162897662
  0
LINE
  5
81
  8
0
 10
-0.3213120817
 20
0.28700982880000003
 30
2.412523162897662
 11
-0.3420291683
 21
0.2641699639
 31
2.483933472744405
  0
LINE
  5
82
  8
0
 10
-0.3420291683
 20
0.2641699639
 30
2.483933472744405
 11
-0.3533104451
 21
0.24378861480000003
 31
2.5376012238062438
  0
LINE
  5
83
  8
0
 10
-0.3533104451
 20
0.24378861480000003
 30
2.5376012238062438
 11
-0.3681668649
 21
0.21654615380000003
 31
2.6099141728461768
  0
LINE
  5
84
  8
0
 10
-0.3681668649
 20
0.21654615380000003
 30
2.6099141728461768
 11
-0.3750809755
 21
0.1942042699
 31
2.6638332738581094
  0
LINE
  5
85
  8
0
 10
-0.3750809755
 20
0.1942042699
 30
2.6638332738581094
 11
-0.3841987872
 21
0.1644003531
 31
2.737264524031336
  0
LINE
  5
86
  8
0
 10
-0.3841987872
 20
0.1644003531
 30
2.737264524031336
 11
-0.3876929079
 21
0.1412219319
 31
2.7922688777399816
  0
LINE
  5
87
  8
0
 10
-0.3876929079
 20
0.1412219319
 30
2.7922688777399816
 11
-0.3923180073
 21
0.11033302610000001
 31
2.8674403517926454
  0
LINE
  5
88
  8
0
 10
-0.3923180073
 20
0.11033302610000001
 30
2.8674403517926454
 11
-0.3935928515
 21
0.08689873320000002
 31
2.924295321924866
  0
LINE
  5
89
  8
0
 10
-0.3935928515
 20
0.08689873320000002
 30
2.924295321924866
 11
-0.3953014471
 21
0.05568694540000002
 31
3.001641478275247
  0
LINE
  5
8A
  8
0
 10
-0.3953014471
 20
0.05568694540000002
 30
3.001641478275247
 11
-0.3955022931
 21
0.0321998127
 31
3.0603568416516826
  0
LINE
  5
8B
  8
0
 10
-0.3955022931
 20
0.0321998127
 30
3.0603568416516826
 11
-0.3957951422
 21
0.0009307316000000121
 31
3.139241109103291
  0
LINE
  5
8C
  8
0
 10
-0.3957951422
 20
0.0009307316000000121
 30
3.139241109103291
 11
-0.3956551265
 21
-0.030348929379999987
 31
-3.0650370502244013
  0
LINE
  5
8D
  8
0
 10
0.2
 20
0.2
 30
0.0
 11
0.2
 21
-0.2
 31
0.0
  0
LINE
  5
8E
  8
0
 10
0.2
 20
-0.2
 30
0.0
 11
-0.2
 21
-0.2
 31
0.0
  0
LINE
  5
8F
  8
0
 10
-0.2
 20
-0.2
 30
0.0
 11
-0.2
 21
0.2
 31
0.0
  0
LINE
  5
90
  8
0
 10
-0.2
 20
0.2
 30
0.0
 11
0.2
 21
0.2
 31
0.0
  0
ENDSEC
  0
EOF
