  0
SECTION
  2
HEADER
  9
$ACADVER
  1
AC1009
  9
$DWGCODEPAGE
  3
ANSI_1252
  9
$INSBASE
 10
0.0
 20
0.0
 30
0.0
  9
$EXTMIN
 10
-100
 20
-100
 30
-100
  9
$EXTMAX
 10
100
 20
100
 30
100
  9
$LIMMIN
 10
0.0
 20
0.0
  9
$LIMMAX
 10
420.0
 20
297.0
  9
$ORTHOMODE
 70
0
  9
$REGENMODE
 70
1
  9
$DRAGMODE
 70
2
  9
$FILLMODE
 70
1
  9
$QTEXTMODE
 70
0
  9
$MIRRTEXT
 70
1
  9
$OSMODE
 70
20583
  9
$LTSCALE
 40
1.0
  9
$ATTMODE
 70
1
  9
$TEXTSIZE
 40
2.5
  9
$TRACEWID
 40
1.0
  9
$TEXTSTYLE
  7
Standard
  9
$CLAYER
  8
0
  9
$CELTYPE
  6
ByLayer
  9
$CECOLOR
 62
256
  9
$DIMSCALE
 40
1.0
  9
$DIMASZ
 40
2.5
  9
$DIMEXO
 40
0.625
  9
$DIMDLI
 40
3.75
  9
$DIMRND
 40
0.0
  9
$DIMDLE
 40
0.0
  9
$DIMEXE
 40
1.25
  9
$DIMTP
 40
0.0
  9
$DIMTM
 40
0.0
  9
$DIMTXT
 40
2.5
  9
$DIMCEN
 40
2.5
  9
$DIMTSZ
 40
0.0
  9
$DIMTOL
 70
0
  9
$DIMLIM
 70
0
  9
$DIMTIH
 70
0
  9
$DIMTOH
 70
0
  9
$DIMSE1
 70
0
  9
$DIMSE2
 70
0
  9
$DIMTAD
 70
1
  9
$DIMZIN
 70
8
  9
$DIMBLK
  1

  9
$DIMASO
 70
1
  9
$DIMSHO
 70
1
  9
$DIMPOST
  1

  9
$DIMAPOST
  1

  9
$DIMALT
 70
0
  9
$DIMALTD
 70
3
  9
$DIMALTF
 40
0.03937007874
  9
$DIMLFAC
 40
1.0
  9
$DIMTOFL
 70
1
  9
$DIMTVP
 40
0.0
  9
$DIMTIX
 70
0
  9
$DIMSOXD
 70
0
  9
$DIMSAH
 70
0
  9
$DIMBLK1
  1

  9
$DIMBLK2
  1

  9
$DIMSTYLE
  2
ISO-25
  9
$DIMCLRD
 70
0
  9
$DIMCLRE
 70
0
  9
$DIMCLRT
 70
0
  9
$DIMTFAC
 40
1.0
  9
$DIMGAP
 40
0.625
  9
$COORDS
 70
1
  9
$ATTDIA
 70
0
  9
$ATTREQ
 70
1
  9
$HANDLING
 70
1
  9
$LUNITS
 70
2
  9
$LUPREC
 70
4
  9
$SKETCHINC
 40
1.0
  9
$FILLETRAD
 40
10.0
  9
$AUNITS
 70
0
  9
$AUPREC
 70
2
  9
$MENU
  1
.
  9
$ELEVATION
 40
0.0
  9
$PELEVATION
 40
0.0
  9
$THICKNESS
 40
0.0
  9
$LIMCHECK
 70
0
  9
$CHAMFERA
 40
0.0
  9
$CHAMFERB
 40
0.0
  9
$SKPOLY
 70
0
  9
$TDCREATE
 40
2459746.820277778
  9
$TDUPDATE
 40
2459746.820277778
  9
$TDINDWG
 40
0.0
  9
$TDUSRTIMER
 40
0.0
  9
$USRTIMER
 70
1
  9
$ANGBASE
 50
0.0
  9
$ANGDIR
 70
0
  9
$PDMODE
 70
0
  9
$PDSIZE
 40
0.0
  9
$PLINEWID
 40
0.0
  9
$SPLFRAME
 70
0
  9
$SPLINETYPE
 70
6
  9
$SPLINESEGS
 70
8
  9
$HANDSEED
  5
92
  9
$SURFTAB1
 70
6
  9
$SURFTAB2
 70
6
  9
$SURFTYPE
 70
6
  9
$SURFU
 70
6
  9
$SURFV
 70
6
  9
$UCSNAME
  2

  9
$UCSORG
 10
0.0
 20
0.0
 30
0.0
  9
$UCSXDIR
 10
1.0
 20
0.0
 30
0.0
  9
$UCSYDIR
 10
0.0
 20
1.0
 30
0.0
  9
$PUCSNAME
  2

  9
$PUCSORG
 10
0.0
 20
0.0
 30
0.0
  9
$PUCSXDIR
 10
1.0
 20
0.0
 30
0.0
  9
$PUCSYDIR
 10
0.0
 20
1.0
 30
0.0
  9
$USERI1
 70
0
  9
$USERI2
 70
0
  9
$USERI3
 70
0
  9
$USERI4
 70
0
  9
$USERI5
 70
0
  9
$USERR1
 40
0.0
  9
$USERR2
 40
0.0
  9
$USERR3
 40
0.0
  9
$USERR4
 40
0.0
  9
$USERR5
 40
0.0
  9
$WORLDVIEW
 70
1
  9
$SHADEDGE
 70
3
  9
$SHADEDIF
 70
70
  9
$TILEMODE
 70
1
  9
$MAXACTVP
 70
64
  9
$PLIMCHECK
 70
0
  9
$PEXTMIN
 10
1e+20
 20
1e+20
 30
1e+20
  9
$PEXTMAX
 10
-1e+20
 20
-1e+20
 30
-1e+20
  9
$PLIMMIN
 10
0.0
 20
0.0
  9
$PLIMMAX
 10
420.0
 20
297.0
  9
$UNITMODE
 70
0
  9
$VISRETAIN
 70
1
  9
$PLINEGEN
 70
0
  9
$PSLTSCALE
 70
1
  0
ENDSEC
  0
SECTION
  2
TABLES
  0
TABLE
  2
VPORT
 70
1
  0
VPORT
  5
23
  2
*Active
 70
0
 10
0.0
 20
0.0
 11
1.0
 21
1.0
 12
70.0
 22
50.0
 13
0.0
 23
0.0
 14
0.5
 24
0.5
 15
0.5
 25
0.5
 16
0.0
 26
0.0
 36
1.0
 17
0.0
 27
0.0
 37
0.0
 40
1.0
 41
1.34
 42
50.0
 43
0.0
 44
0.0
 50
0.0
 51
0.0
 71
0
 72
1000
 73
1
 74
3
 75
0
 76
0
 77
0
 78
0
  0
ENDTAB
  0
TABLE
  2
LTYPE
 70
3
  0
LTYPE
  5
24
  2
ByBlock
 70
0
  3

 72
65
 73
0
 40
0.0
  0
LTYPE
  5
25
  2
ByLayer
 70
0
  3

 72
65
 73
0
 40
0.0
  0
LTYPE
  5
26
  2
Continuous
 70
0
  3

 72
65
 73
0
 40
0.0
  0
ENDTAB
  0
TABLE
  2
LAYER
 70
2
  0
LAYER
  5
27
  2
0
 70
0
 62
7
  6
Continuous
  0
LAYER
  5
28
  2
Defpoints
 70
0
 62
7
  6
Continuous
  0
ENDTAB
  0
TABLE
  2
STYLE
 70
1
  0
STYLE
  5
29
  2
Standard
 70
0
 40
0.0
 41
1.0
 50
0.0
 71
0
 42
2.5
  3
txt
  4

  0
ENDTAB
  0
TABLE
  2
VIEW
 70
0
  0
ENDTAB
  0
TABLE
  2
UCS
 70
0
  0
ENDTAB
  0
TABLE
  2
APPID
 70
2
  0
APPID
  5
2A
  2
ACAD
 70
0
  0
APPID
  5
91
  2
HATCHBACKGROUNDCOLOR
 70
0
  0
ENDTAB
  0
TABLE
  2
DIMSTYLE
 70
1
  0
DIMSTYLE
105
2B
  2
Standard
 70
0
  3

  4

  5

  6

  7

 40
1.0
 41
2.5
 42
0.625
 43
3.75
 44
1.25
 45
0.0
 46
0.0
 47
0.0
 48
0.0
140
2.5
141
2.5
142
0.0
143
0.03937007874
144
1.0
145
0.0
146
1.0
147
0.625
 71
0
 72
0
 73
0
 74
0
 75
0
 76
0
 77
1
 78
8
170
0
171
3
172
1
173
0
174
0
175
0
176
0
177
0
178
0
  0
ENDTAB
  0
ENDSEC
  0
SECTION
  2
BLOCKS
  0
BLOCK
  5
18
  8
0
  2
$Model_Space
 70
0
 10
0.0
 20
0.0
 30
0.0
  3
$Model_Space
  1

  0
ENDBLK
  5
19
  8
0
  0
BLOCK
  5
1C
  8
0
  2
$Paper_Space
 70
0
 10
0.0
 20
0.0
 30
0.0
  3
$Paper_Space
  1

  0
ENDBLK
  5
1D
  8
0
  0
ENDSEC
  0
SECTION
  2
ENTITIES
  0
LINE
  5
2D
  8
0
 10
-0.5397800716
 20
-0.03874599615000002
 30
-3.069934479065478
 11
-0.5397057155
 21
-0.055631864950000026
 31
-3.0388772690118433
  0
LINE
  5
2E
  8
0
 10
-0.5397057155
 20
-0.055631864950000026
 30
-3.0388772690118433
 11
-0.5360135483
 21
-0.12325892445
 31
-2.915567131011713
  0
LINE
  5
2F
  8
0
 10
-0.5360135483
 20
-0.12325892445
 30
-2.915567131011713
 11
-0.535213301
 21
-0.14015555145000003
 31
-2.885475123123635
  0
LINE
  5
30
  8
0
 10
-0.535213301
 20
-0.14015555145000003
 30
-2.885475123123635
 11
-0.5248823115
 21
-0.20579037655
 31
-2.7679415027409444
  0
LINE
  5
31
  8
0
 10
-0.5248823115
 20
-0.20579037655
 30
-2.7679415027409444
 11
-0.5223408875
 21
-0.22255164605
 31
-2.7388195165320637
  0
LINE
  5
32
  8
0
 10
-0.5223408875
 20
-0.22255164605
 30
-2.7388195165320637
 11
-0.5019527839
 21
-0.28450614765
 31
-2.6259437675475765
  0
LINE
  5
33
  8
0
 10
-0.5019527839
 20
-0.28450614765
 30
-2.6259437675475765
 11
-0.4966369972
 21
-0.30064066195
 31
-2.59724646800527
  0
LINE
  5
34
  8
0
 10
-0.4966369972
 20
-0.30064066195
 30
-2.59724646800527
 11
-0.4636203796
 21
-0.35568772655
 31
-2.4871765993553447
  0
LINE
  5
35
  8
0
 10
-0.4636203796
 20
-0.35568772655
 30
-2.4871765993553447
 11
-0.4547557895
 21
-0.37020298045
 31
-2.458331217077456
  0
LINE
  5
36
  8
0
 10
-0.4547557895
 20
-0.37020298045
 30
-2.458331217077456
 11
-0.4097360054
 21
-0.41520276224999997
 31
-2.349567723404693
  0
LINE
  5
37
  8
0
 10
-0.4097360054
 20
-0.41520276224999997
 30
-2.349567723404693
 11
-0.3975535688
 21
-0.42710794235000005
 31
-2.320371634487672
  0
LINE
  5
38
  8
0
 10
-0.3975535688
 20
-0.42710794235000005
 30
-2.320371634487672
 11
-0.3436224411
 21
-0.46131459794999996
 31
-2.2110103764200644
  0
LINE
  5
39
  8
0
 10
-0.3436224411
 20
-0.46131459794999996
 30
-2.2110103764200644
 11
-0.3291472405
 21
-0.47033301625
 31
-2.1813997473670286
  0
LINE
  5
3A
  8
0
 10
-0.3291472405
 20
-0.47033301625
 30
-2.1813997473670286
 11
-0.2691684314
 21
-0.49488200065
 31
-2.068947468634552
  0
LINE
  5
3B
  8
0
 10
-0.2691684314
 20
-0.49488200065
 30
-2.068947468634552
 11
-0.2533677045
 21
-0.50132126595
 31
-2.038754497413564
  0
LINE
  5
3C
  8
0
 10
-0.2533677045
 20
-0.50132126595
 30
-2.038754497413564
 11
-0.1890556544
 21
-0.51768363155
 31
-1.9209435543570943
  0
LINE
  5
3D
  8
0
 10
-0.1890556544
 20
-0.51768363155
 30
-1.9209435543570943
 11
-0.1725431127
 21
-0.52196153255
 31
-1.8900548675999633
  0
LINE
  5
3E
  8
0
 10
-0.1725431127
 20
-0.52196153255
 30
-1.8900548675999633
 11
-0.1047452026
 21
-0.53119357085
 31
-1.765486955171023
  0
LINE
  5
3F
  8
0
 10
-0.1047452026
 20
-0.53119357085
 30
-1.765486955171023
 11
-0.08786542008
 21
-0.53360274325
 31
-1.733996303809117
  0
LINE
  5
40
  8
0
 10
-0.08786542008
 20
-0.53360274325
 30
-1.733996303809117
 11
-0.01702810769
 21
-0.53676751835
 31
-1.6025091229828505
  0
LINE
  5
41
  8
0
 10
-0.01702810769
 20
-0.53676751835
 30
-1.6025091229828505
 11
5.551115123e-17
 21
-0.53760461605
 31
-1.5707963267948966
  0
LINE
  5
42
  8
0
 10
5.551115123e-17
 20
-0.53760461605
 30
-1.5707963267948966
 11
0.01702810769
 21
-0.53676751835
 31
-1.5390835306069428
  0
LINE
  5
43
  8
0
 10
0.01702810769
 20
-0.53676751835
 30
-1.5390835306069428
 11
0.08786542008
 21
-0.53360274325
 31
-1.407596349780676
  0
LINE
  5
44
  8
0
 10
0.08786542008
 20
-0.53360274325
 30
-1.407596349780676
 11
0.1047452026
 21
-0.53119357085
 31
-1.37610569841877
  0
LINE
  5
45
  8
0
 10
0.1047452026
 20
-0.53119357085
 30
-1.37610569841877
 11
0.1725431127
 21
-0.52196153255
 31
-1.2515377859898298
  0
LINE
  5
46
  8
0
 10
0.1725431127
 20
-0.52196153255
 30
-1.2515377859898298
 11
0.1890556544
 21
-0.51768363155
 31
-1.220649099232699
  0
LINE
  5
47
  8
0
 10
0.1890556544
 20
-0.51768363155
 30
-1.220649099232699
 11
0.2533677045
 21
-0.50132126595
 31
-1.1028381561762293
  0
LINE
  5
48
  8
0
 10
0.2533677045
 20
-0.50132126595
 30
-1.1028381561762293
 11
0.2691684314
 21
-0.49488200065
 31
-1.072645184955241
  0
LINE
  5
49
  8
0
 10
0.2691684314
 20
-0.49488200065
 30
-1.072645184955241
 11
0.3291472405
 21
-0.47033301625
 31
-0.9601929062227645
  0
LINE
  5
4A
  8
0
 10
0.3291472405
 20
-0.47033301625
 30
-0.9601929062227645
 11
0.3436224411
 21
-0.46131459794999996
 31
-0.9305822771697289
  0
LINE
  5
4B
  8
0
 10
0.3436224411
 20
-0.46131459794999996
 30
-0.9305822771697289
 11
0.3975535688
 21
-0.42710794235000005
 31
-0.8212210191021214
  0
LINE
  5
4C
  8
0
 10
0.3975535688
 20
-0.42710794235000005
 30
-0.8212210191021214
 11
0.4097360054
 21
-0.41520276224999997
 31
-0.7920249301851003
  0
LINE
  5
4D
  8
0
 10
0.4097360054
 20
-0.41520276224999997
 30
-0.7920249301851003
 11
0.4547557895
 21
-0.37020298045
 31
-0.6832614365123375
  0
LINE
  5
4E
  8
0
 10
0.4547557895
 20
-0.37020298045
 30
-0.6832614365123375
 11
0.4636203796
 21
-0.35568772655
 31
-0.6544160542344483
  0
LINE
  5
4F
  8
0
 10
0.4636203796
 20
-0.35568772655
 30
-0.6544160542344483
 11
0.4966369972
 21
-0.30064066195
 31
-0.5443461855845233
  0
LINE
  5
50
  8
0
 10
0.4966369972
 20
-0.30064066195
 30
-0.5443461855845233
 11
0.5019527839
 21
-0.28450614765
 31
-0.5156488860422169
  0
LINE
  5
51
  8
0
 10
0.5019527839
 20
-0.28450614765
 30
-0.5156488860422169
 11
0.5223408875
 21
-0.22255164605
 31
-0.4027731370577297
  0
LINE
  5
52
  8
0
 10
0.5223408875
 20
-0.22255164605
 30
-0.4027731370577297
 11
0.5248823115
 21
-0.20579037655
 31
-0.3736511508488487
  0
LINE
  5
53
  8
0
 10
0.5248823115
 20
-0.20579037655
 30
-0.3736511508488487
 11
0.535213301
 21
-0.14015555145000003
 31
-0.2561175304661585
  0
LINE
  5
54
  8
0
 10
0.535213301
 20
-0.14015555145000003
 30
-0.2561175304661585
 11
0.5360135483
 21
-0.12325892445
 31
-0.2260255225780805
  0
LINE
  5
55
  8
0
 10
0.5360135483
 20
-0.12325892445
 30
-0.2260255225780805
 11
0.5397057155
 21
-0.055631864950000026
 31
-0.1027153845779501
  0
LINE
  5
56
  8
0
 10
0.5397057155
 20
-0.055631864950000026
 30
-0.1027153845779501
 11
0.5397800716
 21
-0.03874599615000002
 31
-0.07165817452431553
  0
LINE
  5
57
  8
0
 10
0.5397800716
 20
-0.03874599615000002
 30
-0.07165817452431553
 11
0.5402317785
 21
0.030224341309999986
 31
0.05588872569078999
  0
LINE
  5
58
  8
0
 10
0.5402317785
 20
0.030224341309999986
 30
0.05588872569078999
 11
0.540577026
 21
0.04709924519999999
 31
0.08690825227901068
  0
LINE
  5
59
  8
0
 10
0.540577026
 20
0.04709924519999999
 30
0.08690825227901068
 11
0.5411657967
 21
0.11716011041699999
 31
0.21320541068479265
  0
LINE
  5
5A
  8
0
 10
0.5411657967
 20
0.11716011041699999
 30
0.21320541068479265
 11
0.5406308869
 21
0.18179581325
 31
0.32438767377305905
  0
LINE
  5
5B
  8
0
 10
0.5406308869
 20
0.18179581325
 30
0.32438767377305905
 11
0.5406972617
 21
0.1952971324
 31
0.3466130494438083
  0
LINE
  5
5C
  8
0
 10
0.5406972617
 20
0.1952971324
 30
0.3466130494438083
 11
0.5379149985
 21
0.25592419884999995
 31
0.44407697586438755
  0
LINE
  5
5D
  8
0
 10
0.5379149985
 20
0.25592419884999995
 30
0.44407697586438755
 11
0.5372641108
 21
0.26951265495
 31
0.4649579843939106
  0
LINE
  5
5E
  8
0
 10
0.5372641108
 20
0.26951265495
 30
0.4649579843939106
 11
0.5275461435
 21
0.32551523335
 31
0.5528522573818864
  0
LINE
  5
5F
  8
0
 10
0.5275461435
 20
0.32551523335
 30
0.5528522573818864
 11
0.5247604137
 21
0.33897187014999997
 31
0.5735267231622
  0
LINE
  5
60
  8
0
 10
0.5247604137
 20
0.33897187014999997
 30
0.5735267231622
 11
0.5032142349
 21
0.38729526645
 31
0.6559545011995739
  0
LINE
  5
61
  8
0
 10
0.5032142349
 20
0.38729526645
 30
0.6559545011995739
 11
0.4967164786
 21
0.39959457425
 31
0.6774619212536148
  0
LINE
  5
62
  8
0
 10
0.4967164786
 20
0.39959457425
 30
0.6774619212536148
 11
0.4634106608
 21
0.43637787845
 31
0.7553637139556153
  0
LINE
  5
63
  8
0
 10
0.4634106608
 20
0.43637787845
 30
0.7553637139556153
 11
0.4531156783
 21
0.44614114745
 31
0.7776424357706594
  0
LINE
  5
64
  8
0
 10
0.4531156783
 20
0.44614114745
 30
0.7776424357706594
 11
0.412835146
 21
0.47194232845
 31
0.8521036232472962
  0
LINE
  5
65
  8
0
 10
0.412835146
 20
0.47194232845
 30
0.8521036232472962
 11
0.4002023742
 21
0.47914243985
 31
0.8749296268394057
  0
LINE
  5
66
  8
0
 10
0.4002023742
 20
0.47914243985
 30
0.8749296268394057
 11
0.356078583
 21
0.49662786705
 31
0.9487566343733324
  0
LINE
  5
67
  8
0
 10
0.356078583
 20
0.49662786705
 30
0.9487566343733324
 11
0.3421153314
 21
0.50191761455
 31
0.972515119652224
  0
LINE
  5
68
  8
0
 10
0.3421153314
 20
0.50191761455
 30
0.972515119652224
 11
0.2952418116
 21
0.51345898035
 31
1.0489578054683348
  0
LINE
  5
69
  8
0
 10
0.2952418116
 20
0.51345898035
 30
1.0489578054683348
 11
0.2804148234
 21
0.51737153885
 31
1.074116713912604
  0
LINE
  5
6A
  8
0
 10
0.2804148234
 20
0.51737153885
 30
1.074116713912604
 11
0.230961198
 21
0.52464465665
 31
1.156101754370296
  0
LINE
  5
6B
  8
0
 10
0.230961198
 20
0.52464465665
 30
1.156101754370296
 11
0.2155097539
 21
0.52749021735
 31
1.1829351691249153
  0
LINE
  5
6C
  8
0
 10
0.2155097539
 20
0.52749021735
 30
1.1829351691249153
 11
0.1632420728
 21
0.53157868725
 31
1.27284843732061
  0
LINE
  5
6D
  8
0
 10
0.1632420728
 20
0.53157868725
 30
1.27284843732061
 11
0.1473304064
 21
0.53348312905
 31
1.301345539649108
  0
LINE
  5
6E
  8
0
 10
0.1473304064
 20
0.53348312905
 30
1.301345539649108
 11
0.09183340028
 21
0.53539019815
 31
1.400923296301722
  0
LINE
  5
6F
  8
0
 10
0.09183340028
 20
0.53539019815
 30
1.400923296301722
 11
0.0756293742
 21
0.53648304835
 31
1.430746675246828
  0
LINE
  5
70
  8
0
 10
0.0756293742
 20
0.53648304835
 30
1.430746675246828
 11
0.01631549711
 21
0.53717334585
 31
1.540432789709223
  0
LINE
  5
71
  8
0
 10
0.01631549711
 20
0.53717334585
 30
1.540432789709223
 11
-8.326672685e-17
 21
0.53760461605
 31
1.5707963267948968
  0
LINE
  5
72
  8
0
 10
-8.326672685e-17
 20
0.53760461605
 30
1.5707963267948968
 11
-0.01631549711
 21
0.53717334585
 31
1.6011598638805702
  0
LINE
  5
73
  8
0
 10
-0.01631549711
 20
0.53717334585
 30
1.6011598638805702
 11
-0.0756293742
 21
0.53648304835
 31
1.7108459783429653
  0
LINE
  5
74
  8
0
 10
-0.0756293742
 20
0.53648304835
 30
1.7108459783429653
 11
-0.09183340028
 21
0.53539019815
 31
1.7406693572880714
  0
LINE
  5
75
  8
0
 10
-0.09183340028
 20
0.53539019815
 30
1.7406693572880714
 11
-0.1473304064
 21
0.53348312905
 31
1.840247113940685
  0
LINE
  5
76
  8
0
 10
-0.1473304064
 20
0.53348312905
 30
1.840247113940685
 11
-0.1632420728
 21
0.53157868725
 31
1.8687442162691834
  0
LINE
  5
77
  8
0
 10
-0.1632420728
 20
0.53157868725
 30
1.8687442162691834
 11
-0.2155097539
 21
0.52749021735
 31
1.958657484464878
  0
LINE
  5
78
  8
0
 10
-0.2155097539
 20
0.52749021735
 30
1.958657484464878
 11
-0.230961198
 21
0.52464465665
 31
1.9854908992194973
  0
LINE
  5
79
  8
0
 10
-0.230961198
 20
0.52464465665
 30
1.9854908992194973
 11
-0.2804148234
 21
0.51737153885
 31
2.0674759396771893
  0
LINE
  5
7A
  8
0
 10
-0.2804148234
 20
0.51737153885
 30
2.0674759396771893
 11
-0.2952418116
 21
0.51345898035
 31
2.0926348481214583
  0
LINE
  5
7B
  8
0
 10
-0.2952418116
 20
0.51345898035
 30
2.0926348481214583
 11
-0.3421153314
 21
0.50191761455
 31
2.169077533937569
  0
LINE
  5
7C
  8
0
 10
-0.3421153314
 20
0.50191761455
 30
2.169077533937569
 11
-0.356078583
 21
0.49662786705
 31
2.192836019216461
  0
LINE
  5
7D
  8
0
 10
-0.356078583
 20
0.49662786705
 30
2.192836019216461
 11
-0.4002023742
 21
0.47914243985
 31
2.2666630267503876
  0
LINE
  5
7E
  8
0
 10
-0.4002023742
 20
0.47914243985
 30
2.2666630267503876
 11
-0.412835146
 21
0.47194232845
 31
2.289489030342497
  0
LINE
  5
7F
  8
0
 10
-0.412835146
 20
0.47194232845
 30
2.289489030342497
 11
-0.4531156783
 21
0.44614114745
 31
2.363950217819134
  0
LINE
  5
80
  8
0
 10
-0.4531156783
 20
0.44614114745
 30
2.363950217819134
 11
-0.4634106608
 21
0.43637787845
 31
2.386228939634178
  0
LINE
  5
81
  8
0
 10
-0.4634106608
 20
0.43637787845
 30
2.386228939634178
 11
-0.4967164786
 21
0.39959457425
 31
2.4641307323361783
  0
LINE
  5
82
  8
0
 10
-0.4967164786
 20
0.39959457425
 30
2.4641307323361783
 11
-0.5032142349
 21
0.38729526645
 31
2.4856381523902193
  0
LINE
  5
83
  8
0
 10
-0.5032142349
 20
0.38729526645
 30
2.4856381523902193
 11
-0.5247604137
 21
0.33897187014999997
 31
2.5680659304275935
  0
LINE
  5
84
  8
0
 10
-0.5247604137
 20
0.33897187014999997
 30
2.5680659304275935
 11
-0.5275461435
 21
0.32551523335
 31
2.588740396207907
  0
LINE
  5
85
  8
0
 10
-0.5275461435
 20
0.32551523335
 30
2.588740396207907
 11
-0.5372641108
 21
0.26951265495
 31
2.6766346691958827
  0
LINE
  5
86
  8
0
 10
-0.5372641108
 20
0.26951265495
 30
2.6766346691958827
 11
-0.5379149985
 21
0.25592419884999995
 31
2.6975156777254057
  0
LINE
  5
87
  8
0
 10
-0.5379149985
 20
0.25592419884999995
 30
2.6975156777254057
 11
-0.5406972617
 21
0.1952971324
 31
2.794979604145985
  0
LINE
  5
88
  8
0
 10
-0.5406972617
 20
0.1952971324
 30
2.794979604145985
 11
-0.5406308869
 21
0.18179581325
 31
2.8172049798167342
  0
LINE
  5
89
  8
0
 10
-0.5406308869
 20
0.18179581325
 30
2.8172049798167342
 11
-0.5411657967
 21
0.11716011041699999
 31
2.9283872429050004
  0
LINE
  5
8A
  8
0
 10
-0.5411657967
 20
0.11716011041699999
 30
2.9283872429050004
 11
-0.540577026
 21
0.04709924515999998
 31
3.05468440138422
  0
LINE
  5
8B
  8
0
 10
-0.540577026
 20
0.04709924515999998
 30
3.05468440138422
 11
-0.5402317785
 21
0.030224341269999982
 31
3.0857039279728147
  0
LINE
  5
8C
  8
0
 10
-0.5402317785
 20
0.030224341269999982
 30
3.0857039279728147
 11
-0.5397800716
 21
-0.03874599615000002
 31
-3.069934479065478
  0
LINE
  5
8D
  8
0
 10
0.2
 20
0.2
 30
0.0
 11
0.2
 21
-0.2
 31
0.0
  0
LINE
  5
8E
  8
0
 10
0.2
 20
-0.2
 30
0.0
 11
-0.2
 21
-0.2
 31
0.0
  0
LINE
  5
8F
  8
0
 10
-0.2
 20
-0.2
 30
0.0
 11
-0.2
 21
0.2
 31
0.0
  0
LINE
  5
90
  8
0
 10
-0.2
 20
0.2
 30
0.0
 11
0.2
 21
0.2
 31
0.0
  0
ENDSEC
  0
EOF
