  0
SECTION
  2
HEADER
  9
$ACADVER
  1
AC1009
  9
$DWGCODEPAGE
  3
ANSI_1252
  9
$INSBASE
 10
0.0
 20
0.0
 30
0.0
  9
$EXTMIN
 10
-100
 20
-100
 30
-100
  9
$EXTMAX
 10
100
 20
100
 30
100
  9
$LIMMIN
 10
0.0
 20
0.0
  9
$LIMMAX
 10
420.0
 20
297.0
  9
$ORTHOMODE
 70
0
  9
$REGENMODE
 70
1
  9
$DRAGMODE
 70
2
  9
$FILLMODE
 70
1
  9
$QTEXTMODE
 70
0
  9
$MIRRTEXT
 70
1
  9
$OSMODE
 70
20583
  9
$LTSCALE
 40
1.0
  9
$ATTMODE
 70
1
  9
$TEXTSIZE
 40
2.5
  9
$TRACEWID
 40
1.0
  9
$TEXTSTYLE
  7
Standard
  9
$CLAYER
  8
0
  9
$CELTYPE
  6
ByLayer
  9
$CECOLOR
 62
256
  9
$DIMSCALE
 40
1.0
  9
$DIMASZ
 40
2.5
  9
$DIMEXO
 40
0.625
  9
$DIMDLI
 40
3.75
  9
$DIMRND
 40
0.0
  9
$DIMDLE
 40
0.0
  9
$DIMEXE
 40
1.25
  9
$DIMTP
 40
0.0
  9
$DIMTM
 40
0.0
  9
$DIMTXT
 40
2.5
  9
$DIMCEN
 40
2.5
  9
$DIMTSZ
 40
0.0
  9
$DIMTOL
 70
0
  9
$DIMLIM
 70
0
  9
$DIMTIH
 70
0
  9
$DIMTOH
 70
0
  9
$DIMSE1
 70
0
  9
$DIMSE2
 70
0
  9
$DIMTAD
 70
1
  9
$DIMZIN
 70
8
  9
$DIMBLK
  1

  9
$DIMASO
 70
1
  9
$DIMSHO
 70
1
  9
$DIMPOST
  1

  9
$DIMAPOST
  1

  9
$DIMALT
 70
0
  9
$DIMALTD
 70
3
  9
$DIMALTF
 40
0.03937007874
  9
$DIMLFAC
 40
1.0
  9
$DIMTOFL
 70
1
  9
$DIMTVP
 40
0.0
  9
$DIMTIX
 70
0
  9
$DIMSOXD
 70
0
  9
$DIMSAH
 70
0
  9
$DIMBLK1
  1

  9
$DIMBLK2
  1

  9
$DIMSTYLE
  2
ISO-25
  9
$DIMCLRD
 70
0
  9
$DIMCLRE
 70
0
  9
$DIMCLRT
 70
0
  9
$DIMTFAC
 40
1.0
  9
$DIMGAP
 40
0.625
  9
$COORDS
 70
1
  9
$ATTDIA
 70
0
  9
$ATTREQ
 70
1
  9
$HANDLING
 70
1
  9
$LUNITS
 70
2
  9
$LUPREC
 70
4
  9
$SKETCHINC
 40
1.0
  9
$FILLETRAD
 40
10.0
  9
$AUNITS
 70
0
  9
$AUPREC
 70
2
  9
$MENU
  1
.
  9
$ELEVATION
 40
0.0
  9
$PELEVATION
 40
0.0
  9
$THICKNESS
 40
0.0
  9
$LIMCHECK
 70
0
  9
$CHAMFERA
 40
0.0
  9
$CHAMFERB
 40
0.0
  9
$SKPOLY
 70
0
  9
$TDCREATE
 40
2459751.945671296
  9
$TDUPDATE
 40
2459751.945671296
  9
$TDINDWG
 40
0.0
  9
$TDUSRTIMER
 40
0.0
  9
$USRTIMER
 70
1
  9
$ANGBASE
 50
0.0
  9
$ANGDIR
 70
0
  9
$PDMODE
 70
0
  9
$PDSIZE
 40
0.0
  9
$PLINEWID
 40
0.0
  9
$SPLFRAME
 70
0
  9
$SPLINETYPE
 70
6
  9
$SPLINESEGS
 70
8
  9
$HANDSEED
  5
72
  9
$SURFTAB1
 70
6
  9
$SURFTAB2
 70
6
  9
$SURFTYPE
 70
6
  9
$SURFU
 70
6
  9
$SURFV
 70
6
  9
$UCSNAME
  2

  9
$UCSORG
 10
0.0
 20
0.0
 30
0.0
  9
$UCSXDIR
 10
1.0
 20
0.0
 30
0.0
  9
$UCSYDIR
 10
0.0
 20
1.0
 30
0.0
  9
$PUCSNAME
  2

  9
$PUCSORG
 10
0.0
 20
0.0
 30
0.0
  9
$PUCSXDIR
 10
1.0
 20
0.0
 30
0.0
  9
$PUCSYDIR
 10
0.0
 20
1.0
 30
0.0
  9
$USERI1
 70
0
  9
$USERI2
 70
0
  9
$USERI3
 70
0
  9
$USERI4
 70
0
  9
$USERI5
 70
0
  9
$USERR1
 40
0.0
  9
$USERR2
 40
0.0
  9
$USERR3
 40
0.0
  9
$USERR4
 40
0.0
  9
$USERR5
 40
0.0
  9
$WORLDVIEW
 70
1
  9
$SHADEDGE
 70
3
  9
$SHADEDIF
 70
70
  9
$TILEMODE
 70
1
  9
$MAXACTVP
 70
64
  9
$PLIMCHECK
 70
0
  9
$PEXTMIN
 10
1e+20
 20
1e+20
 30
1e+20
  9
$PEXTMAX
 10
-1e+20
 20
-1e+20
 30
-1e+20
  9
$PLIMMIN
 10
0.0
 20
0.0
  9
$PLIMMAX
 10
420.0
 20
297.0
  9
$UNITMODE
 70
0
  9
$VISRETAIN
 70
1
  9
$PLINEGEN
 70
0
  9
$PSLTSCALE
 70
1
  0
ENDSEC
  0
SECTION
  2
TABLES
  0
TABLE
  2
VPORT
 70
1
  0
VPORT
  5
23
  2
*Active
 70
0
 10
0.0
 20
0.0
 11
1.0
 21
1.0
 12
70.0
 22
50.0
 13
0.0
 23
0.0
 14
0.5
 24
0.5
 15
0.5
 25
0.5
 16
0.0
 26
0.0
 36
1.0
 17
0.0
 27
0.0
 37
0.0
 40
1.0
 41
1.34
 42
50.0
 43
0.0
 44
0.0
 50
0.0
 51
0.0
 71
0
 72
1000
 73
1
 74
3
 75
0
 76
0
 77
0
 78
0
  0
ENDTAB
  0
TABLE
  2
LTYPE
 70
3
  0
LTYPE
  5
24
  2
ByBlock
 70
0
  3

 72
65
 73
0
 40
0.0
  0
LTYPE
  5
25
  2
ByLayer
 70
0
  3

 72
65
 73
0
 40
0.0
  0
LTYPE
  5
26
  2
Continuous
 70
0
  3

 72
65
 73
0
 40
0.0
  0
ENDTAB
  0
TABLE
  2
LAYER
 70
2
  0
LAYER
  5
27
  2
0
 70
0
 62
7
  6
Continuous
  0
LAYER
  5
28
  2
Defpoints
 70
0
 62
7
  6
Continuous
  0
ENDTAB
  0
TABLE
  2
STYLE
 70
1
  0
STYLE
  5
29
  2
Standard
 70
0
 40
0.0
 41
1.0
 50
0.0
 71
0
 42
2.5
  3
txt
  4

  0
ENDTAB
  0
TABLE
  2
VIEW
 70
0
  0
ENDTAB
  0
TABLE
  2
UCS
 70
0
  0
ENDTAB
  0
TABLE
  2
APPID
 70
2
  0
APPID
  5
2A
  2
ACAD
 70
0
  0
APPID
  5
71
  2
HATCHBACKGROUNDCOLOR
 70
0
  0
ENDTAB
  0
TABLE
  2
DIMSTYLE
 70
1
  0
DIMSTYLE
105
2B
  2
Standard
 70
0
  3

  4

  5

  6

  7

 40
1.0
 41
2.5
 42
0.625
 43
3.75
 44
1.25
 45
0.0
 46
0.0
 47
0.0
 48
0.0
140
2.5
141
2.5
142
0.0
143
0.03937007874
144
1.0
145
0.0
146
1.0
147
0.625
 71
0
 72
0
 73
0
 74
0
 75
0
 76
0
 77
1
 78
8
170
0
171
3
172
1
173
0
174
0
175
0
176
0
177
0
178
0
  0
ENDTAB
  0
ENDSEC
  0
SECTION
  2
BLOCKS
  0
BLOCK
  5
18
  8
0
  2
$Model_Space
 70
0
 10
0.0
 20
0.0
 30
0.0
  3
$Model_Space
  1

  0
ENDBLK
  5
19
  8
0
  0
BLOCK
  5
1C
  8
0
  2
$Paper_Space
 70
0
 10
0.0
 20
0.0
 30
0.0
  3
$Paper_Space
  1

  0
ENDBLK
  5
1D
  8
0
  0
ENDSEC
  0
SECTION
  2
ENTITIES
  0
LINE
  5
2D
  8
0
 10
-1.7776456124999997
 20
-0.004709942929999988
 30
0.0
 11
-1.7959081635
 21
-0.035633267430000004
 31
0.0
  0
LINE
  5
2E
  8
0
 10
-1.7959081635
 20
-0.035633267430000004
 30
0.0
 11
-1.7750066015
 21
-0.06483043403
 31
0.0
  0
LINE
  5
2F
  8
0
 10
-1.7750066015
 20
-0.06483043403
 30
0.0
 11
-1.7573205654999997
 21
-0.08983306413000003
 31
0.0
  0
LINE
  5
30
  8
0
 10
-1.7573205654999997
 20
-0.08983306413000003
 30
0.0
 11
-1.7084043685
 21
-0.11119378053000001
 31
0.0
  0
LINE
  5
31
  8
0
 10
-1.7084043685
 20
-0.11119378053000001
 30
0.0
 11
-1.6668054755
 21
-0.12944014733000003
 31
0.0
  0
LINE
  5
32
  8
0
 10
-1.6668054755
 20
-0.12944014733000003
 30
0.0
 11
-1.5933570045
 21
-0.14606813213000003
 31
0.0
  0
LINE
  5
33
  8
0
 10
-1.5933570045
 20
-0.14606813213000003
 30
0.0
 11
-1.5307620665
 21
-0.15988451103
 31
0.0
  0
LINE
  5
34
  8
0
 10
-1.5307620665
 20
-0.15988451103
 30
0.0
 11
-1.4285924314999998
 21
-0.17250376353000002
 31
0.0
  0
LINE
  5
35
  8
0
 10
-1.4285924314999998
 20
-0.17250376353000002
 30
0.0
 11
-1.3415389455
 21
-0.18255691033
 31
0.0
  0
LINE
  5
36
  8
0
 10
-1.3415389455
 20
-0.18255691033
 30
0.0
 11
-1.2065640365
 21
-0.19036754883
 31
0.0
  0
LINE
  5
37
  8
0
 10
-1.2065640365
 20
-0.19036754883
 30
0.0
 11
-1.0916163315
 21
-0.19608718783
 31
0.0
  0
LINE
  5
38
  8
0
 10
-1.0916163315
 20
-0.19608718783
 30
0.0
 11
-0.9230678124999998
 21
-0.19808890643
 31
0.0
  0
LINE
  5
39
  8
0
 10
-0.9230678124999998
 20
-0.19808890643
 30
0.0
 11
-0.7795827714999999
 21
-0.19884800283000004
 31
0.0
  0
LINE
  5
3A
  8
0
 10
-0.7795827714999999
 20
-0.19884800283000004
 30
0.0
 11
-0.5825907435
 21
-0.19489449123000002
 31
0.0
  0
LINE
  5
3B
  8
0
 10
-0.5825907435
 20
-0.19489449123000002
 30
0.0
 11
-0.41491622449999976
 21
-0.19090427753
 31
0.0
  0
LINE
  5
3C
  8
0
 10
-0.41491622449999976
 20
-0.19090427753
 30
0.0
 11
-0.20144280450000007
 21
-0.18176494063000004
 31
0.0
  0
LINE
  5
3D
  8
0
 10
-0.20144280450000007
 20
-0.18176494063000004
 30
0.0
 11
-0.01973292549999961
 21
-0.17383285753
 31
0.0
  0
LINE
  5
3E
  8
0
 10
-0.01973292549999961
 20
-0.17383285753
 30
0.0
 11
0.1618258655
 21
-0.16294999403
 31
0.0
  0
LINE
  5
3F
  8
0
 10
0.1618258655
 20
-0.16294999403
 30
0.0
 11
0.37510460749999996
 21
-0.15000596383000003
 31
0.0
  0
LINE
  5
40
  8
0
 10
0.37510460749999996
 20
-0.15000596383000003
 30
0.0
 11
0.5424279785000001
 21
-0.13834629443000002
 31
0.0
  0
LINE
  5
41
  8
0
 10
0.5424279785000001
 20
-0.13834629443000002
 30
0.0
 11
0.7389585075000005
 21
-0.12416368543
 31
0.0
  0
LINE
  5
42
  8
0
 10
0.7389585075000005
 20
-0.12416368543
 30
0.0
 11
0.8820570234999998
 21
-0.11336434003000001
 31
0.0
  0
LINE
  5
43
  8
0
 10
0.8820570234999998
 20
-0.11336434003000001
 30
0.0
 11
1.0501094835
 21
-0.09998529203
 31
0.0
  0
LINE
  5
44
  8
0
 10
1.0501094835
 20
-0.09998529203
 30
0.0
 11
1.1648641995000002
 21
-0.09088797703000001
 31
0.0
  0
LINE
  5
45
  8
0
 10
1.1648641995000002
 20
-0.09088797703000001
 30
0.0
 11
1.2996116195000003
 21
-0.07945567973
 31
0.0
  0
LINE
  5
46
  8
0
 10
1.2996116195000003
 20
-0.07945567973
 30
0.0
 11
1.3869767294999997
 21
-0.07228424613000001
 31
0.0
  0
LINE
  5
47
  8
0
 10
1.3869767294999997
 20
-0.07228424613000001
 30
0.0
 11
1.4895506474999998
 21
-0.06317775253000002
 31
0.0
  0
LINE
  5
48
  8
0
 10
1.4895506474999998
 20
-0.06317775253000002
 30
0.0
 11
1.5534667835000002
 21
-0.05778745553000003
 31
0.0
  0
LINE
  5
49
  8
0
 10
1.5534667835000002
 20
-0.05778745553000003
 30
0.0
 11
1.6285025715000003
 21
-0.050893800430000025
 31
0.0
  0
LINE
  5
4A
  8
0
 10
1.6285025715000003
 20
-0.050893800430000025
 30
0.0
 11
1.6739138785000005
 21
-0.04698308233000004
 31
0.0
  0
LINE
  5
4B
  8
0
 10
1.6739138785000005
 20
-0.04698308233000004
 30
0.0
 11
1.7272216545
 21
-0.04195815183000001
 31
0.0
  0
LINE
  5
4C
  8
0
 10
1.7272216545
 20
-0.04195815183000001
 30
0.0
 11
1.7588187194999998
 21
-0.03919483253
 31
0.0
  0
LINE
  5
4D
  8
0
 10
1.7588187194999998
 20
-0.03919483253
 30
0.0
 11
1.7959081635
 21
-0.035633267430000004
 31
0.0
  0
LINE
  5
4E
  8
0
 10
1.7959081635
 20
-0.035633267430000004
 30
0.0
 11
1.7588845735000005
 21
-0.029827863630000007
 31
0.0
  0
LINE
  5
4F
  8
0
 10
1.7588845735000005
 20
-0.029827863630000007
 30
0.0
 11
1.7273679555
 21
-0.024323488529999993
 31
0.0
  0
LINE
  5
50
  8
0
 10
1.7273679555
 20
-0.024323488529999993
 30
0.0
 11
1.6741270175
 21
-0.01620207153000003
 31
0.0
  0
LINE
  5
51
  8
0
 10
1.6741270175
 20
-0.01620207153000003
 30
0.0
 11
1.6287973585
 21
-0.008508709430000039
 31
0.0
  0
LINE
  5
52
  8
0
 10
1.6287973585
 20
-0.008508709430000039
 30
0.0
 11
1.5538025695000002
 21
0.0024868223699999747
 31
0.0
  0
LINE
  5
53
  8
0
 10
1.5538025695000002
 20
0.0024868223699999747
 30
0.0
 11
1.4899365175000003
 21
0.012887939969999984
 31
0.0
  0
LINE
  5
54
  8
0
 10
1.4899365175000003
 20
0.012887939969999984
 30
0.0
 11
1.3873248125000002
 21
0.02711635566999998
 31
0.0
  0
LINE
  5
55
  8
0
 10
1.3873248125000002
 20
0.02711635566999998
 30
0.0
 11
1.2999135415000005
 21
0.04054468946999998
 31
0.0
  0
LINE
  5
56
  8
0
 10
1.2999135415000005
 20
0.04054468946999998
 30
0.0
 11
1.1649653365
 21
0.05785367526999999
 31
0.0
  0
LINE
  5
57
  8
0
 10
1.1649653365
 20
0.05785367526999999
 30
0.0
 11
1.0499653435000003
 21
0.07412990716999998
 31
0.0
  0
LINE
  5
58
  8
0
 10
1.0499653435000003
 20
0.07412990716999998
 30
0.0
 11
0.8814445145
 21
0.09348182067
 31
0.0
  0
LINE
  5
59
  8
0
 10
0.8814445145
 20
0.09348182067
 30
0.0
 11
0.7377738435000003
 21
0.11157757206999999
 31
0.0
  0
LINE
  5
5A
  8
0
 10
0.7377738435000003
 20
0.11157757206999999
 30
0.0
 11
0.5404257425000001
 21
0.13083108766999998
 31
0.0
  0
LINE
  5
5B
  8
0
 10
0.5404257425000001
 20
0.13083108766999998
 30
0.0
 11
0.37210363049999984
 21
0.14868533727
 31
0.0
  0
LINE
  5
5C
  8
0
 10
0.37210363049999984
 20
0.14868533727
 30
0.0
 11
0.1576648005000001
 21
0.16479123901999998
 31
0.0
  0
LINE
  5
5D
  8
0
 10
0.1576648005000001
 20
0.16479123901999998
 30
0.0
 11
-0.02531114549999991
 21
0.17953662017
 31
0.0
  0
LINE
  5
5E
  8
0
 10
-0.02531114549999991
 20
0.17953662017
 30
0.0
 11
-0.2086809125000002
 21
0.18827922919999998
 31
0.0
  0
LINE
  5
5F
  8
0
 10
-0.2086809125000002
 20
0.18827922919999998
 30
0.0
 11
-0.42351312350000025
 21
0.19808206555999996
 31
0.0
  0
LINE
  5
60
  8
0
 10
-0.42351312350000025
 20
0.19808206555999996
 30
0.0
 11
-0.5927909304999996
 21
0.19812541176999998
 31
0.0
  0
LINE
  5
61
  8
0
 10
-0.5927909304999996
 20
0.19812541176999998
 30
0.0
 11
-0.7910954155000001
 21
0.19884800282999998
 31
0.0
  0
LINE
  5
62
  8
0
 10
-0.7910954155000001
 20
0.19884800282999998
 30
0.0
 11
-0.9356407564999998
 21
0.19034579403
 31
0.0
  0
LINE
  5
63
  8
0
 10
-0.9356407564999998
 20
0.19034579403
 30
0.0
 11
-1.1050572394999998
 21
0.18200553448999998
 31
0.0
  0
LINE
  5
64
  8
0
 10
-1.1050572394999998
 20
0.18200553448999998
 30
0.0
 11
-1.2202121514999997
 21
0.16724130515
 31
0.0
  0
LINE
  5
65
  8
0
 10
-1.2202121514999997
 20
0.16724130515
 30
0.0
 11
-1.3553566805
 21
0.15202673106999998
 31
0.0
  0
LINE
  5
66
  8
0
 10
-1.3553566805
 20
0.15202673106999998
 30
0.0
 11
-1.4417354725
 21
0.13349490797
 31
0.0
  0
LINE
  5
67
  8
0
 10
-1.4417354725
 20
0.13349490797
 30
0.0
 11
-1.5433527995
 21
0.11393497916999998
 31
0.0
  0
LINE
  5
68
  8
0
 10
-1.5433527995
 20
0.11393497916999998
 30
0.0
 11
-1.6044904884999998
 21
0.09320654236999998
 31
0.0
  0
LINE
  5
69
  8
0
 10
-1.6044904884999998
 20
0.09320654236999998
 30
0.0
 11
-1.6767460494999997
 21
0.07092032076999999
 31
0.0
  0
LINE
  5
6A
  8
0
 10
-1.6767460494999997
 20
0.07092032076999999
 30
0.0
 11
-1.7161026895
 21
0.04777355216999998
 31
0.0
  0
LINE
  5
6B
  8
0
 10
-1.7161026895
 20
0.04777355216999998
 30
0.0
 11
-1.7631833704999997
 21
0.02240134836999999
 31
0.0
  0
LINE
  5
6C
  8
0
 10
-1.7631833704999997
 20
0.02240134836999999
 30
0.0
 11
-1.7776456124999997
 21
-0.004709942929999988
 31
0.0
  0
LINE
  5
6D
  8
0
 10
0.2
 20
0.2
 30
0.0
 11
0.2
 21
-0.2
 31
0.0
  0
LINE
  5
6E
  8
0
 10
0.2
 20
-0.2
 30
0.0
 11
-0.2
 21
-0.2
 31
0.0
  0
LINE
  5
6F
  8
0
 10
-0.2
 20
-0.2
 30
0.0
 11
-0.2
 21
0.2
 31
0.0
  0
LINE
  5
70
  8
0
 10
-0.2
 20
0.2
 30
0.0
 11
0.2
 21
0.2
 31
0.0
  0
ENDSEC
  0
EOF
