  0
SECTION
  2
HEADER
  9
$ACADVER
  1
AC1009
  9
$DWGCODEPAGE
  3
ANSI_1252
  9
$INSBASE
 10
0.0
 20
0.0
 30
0.0
  9
$EXTMIN
 10
-100
 20
-100
 30
-100
  9
$EXTMAX
 10
100
 20
100
 30
100
  9
$LIMMIN
 10
0.0
 20
0.0
  9
$LIMMAX
 10
420.0
 20
297.0
  9
$ORTHOMODE
 70
0
  9
$REGENMODE
 70
1
  9
$DRAGMODE
 70
2
  9
$FILLMODE
 70
1
  9
$QTEXTMODE
 70
0
  9
$MIRRTEXT
 70
1
  9
$OSMODE
 70
20583
  9
$LTSCALE
 40
1.0
  9
$ATTMODE
 70
1
  9
$TEXTSIZE
 40
2.5
  9
$TRACEWID
 40
1.0
  9
$TEXTSTYLE
  7
Standard
  9
$CLAYER
  8
0
  9
$CELTYPE
  6
ByLayer
  9
$CECOLOR
 62
256
  9
$DIMSCALE
 40
1.0
  9
$DIMASZ
 40
2.5
  9
$DIMEXO
 40
0.625
  9
$DIMDLI
 40
3.75
  9
$DIMRND
 40
0.0
  9
$DIMDLE
 40
0.0
  9
$DIMEXE
 40
1.25
  9
$DIMTP
 40
0.0
  9
$DIMTM
 40
0.0
  9
$DIMTXT
 40
2.5
  9
$DIMCEN
 40
2.5
  9
$DIMTSZ
 40
0.0
  9
$DIMTOL
 70
0
  9
$DIMLIM
 70
0
  9
$DIMTIH
 70
0
  9
$DIMTOH
 70
0
  9
$DIMSE1
 70
0
  9
$DIMSE2
 70
0
  9
$DIMTAD
 70
1
  9
$DIMZIN
 70
8
  9
$DIMBLK
  1

  9
$DIMASO
 70
1
  9
$DIMSHO
 70
1
  9
$DIMPOST
  1

  9
$DIMAPOST
  1

  9
$DIMALT
 70
0
  9
$DIMALTD
 70
3
  9
$DIMALTF
 40
0.03937007874
  9
$DIMLFAC
 40
1.0
  9
$DIMTOFL
 70
1
  9
$DIMTVP
 40
0.0
  9
$DIMTIX
 70
0
  9
$DIMSOXD
 70
0
  9
$DIMSAH
 70
0
  9
$DIMBLK1
  1

  9
$DIMBLK2
  1

  9
$DIMSTYLE
  2
ISO-25
  9
$DIMCLRD
 70
0
  9
$DIMCLRE
 70
0
  9
$DIMCLRT
 70
0
  9
$DIMTFAC
 40
1.0
  9
$DIMGAP
 40
0.625
  9
$COORDS
 70
1
  9
$ATTDIA
 70
0
  9
$ATTREQ
 70
1
  9
$HANDLING
 70
1
  9
$LUNITS
 70
2
  9
$LUPREC
 70
4
  9
$SKETCHINC
 40
1.0
  9
$FILLETRAD
 40
10.0
  9
$AUNITS
 70
0
  9
$AUPREC
 70
2
  9
$MENU
  1
.
  9
$ELEVATION
 40
0.0
  9
$PELEVATION
 40
0.0
  9
$THICKNESS
 40
0.0
  9
$LIMCHECK
 70
0
  9
$CHAMFERA
 40
0.0
  9
$CHAMFERB
 40
0.0
  9
$SKPOLY
 70
0
  9
$TDCREATE
 40
2459746.820277778
  9
$TDUPDATE
 40
2459746.820277778
  9
$TDINDWG
 40
0.0
  9
$TDUSRTIMER
 40
0.0
  9
$USRTIMER
 70
1
  9
$ANGBASE
 50
0.0
  9
$ANGDIR
 70
0
  9
$PDMODE
 70
0
  9
$PDSIZE
 40
0.0
  9
$PLINEWID
 40
0.0
  9
$SPLFRAME
 70
0
  9
$SPLINETYPE
 70
6
  9
$SPLINESEGS
 70
8
  9
$HANDSEED
  5
92
  9
$SURFTAB1
 70
6
  9
$SURFTAB2
 70
6
  9
$SURFTYPE
 70
6
  9
$SURFU
 70
6
  9
$SURFV
 70
6
  9
$UCSNAME
  2

  9
$UCSORG
 10
0.0
 20
0.0
 30
0.0
  9
$UCSXDIR
 10
1.0
 20
0.0
 30
0.0
  9
$UCSYDIR
 10
0.0
 20
1.0
 30
0.0
  9
$PUCSNAME
  2

  9
$PUCSORG
 10
0.0
 20
0.0
 30
0.0
  9
$PUCSXDIR
 10
1.0
 20
0.0
 30
0.0
  9
$PUCSYDIR
 10
0.0
 20
1.0
 30
0.0
  9
$USERI1
 70
0
  9
$USERI2
 70
0
  9
$USERI3
 70
0
  9
$USERI4
 70
0
  9
$USERI5
 70
0
  9
$USERR1
 40
0.0
  9
$USERR2
 40
0.0
  9
$USERR3
 40
0.0
  9
$USERR4
 40
0.0
  9
$USERR5
 40
0.0
  9
$WORLDVIEW
 70
1
  9
$SHADEDGE
 70
3
  9
$SHADEDIF
 70
70
  9
$TILEMODE
 70
1
  9
$MAXACTVP
 70
64
  9
$PLIMCHECK
 70
0
  9
$PEXTMIN
 10
1e+20
 20
1e+20
 30
1e+20
  9
$PEXTMAX
 10
-1e+20
 20
-1e+20
 30
-1e+20
  9
$PLIMMIN
 10
0.0
 20
0.0
  9
$PLIMMAX
 10
420.0
 20
297.0
  9
$UNITMODE
 70
0
  9
$VISRETAIN
 70
1
  9
$PLINEGEN
 70
0
  9
$PSLTSCALE
 70
1
  0
ENDSEC
  0
SECTION
  2
TABLES
  0
TABLE
  2
VPORT
 70
1
  0
VPORT
  5
23
  2
*Active
 70
0
 10
0.0
 20
0.0
 11
1.0
 21
1.0
 12
70.0
 22
50.0
 13
0.0
 23
0.0
 14
0.5
 24
0.5
 15
0.5
 25
0.5
 16
0.0
 26
0.0
 36
1.0
 17
0.0
 27
0.0
 37
0.0
 40
1.0
 41
1.34
 42
50.0
 43
0.0
 44
0.0
 50
0.0
 51
0.0
 71
0
 72
1000
 73
1
 74
3
 75
0
 76
0
 77
0
 78
0
  0
ENDTAB
  0
TABLE
  2
LTYPE
 70
3
  0
LTYPE
  5
24
  2
ByBlock
 70
0
  3

 72
65
 73
0
 40
0.0
  0
LTYPE
  5
25
  2
ByLayer
 70
0
  3

 72
65
 73
0
 40
0.0
  0
LTYPE
  5
26
  2
Continuous
 70
0
  3

 72
65
 73
0
 40
0.0
  0
ENDTAB
  0
TABLE
  2
LAYER
 70
2
  0
LAYER
  5
27
  2
0
 70
0
 62
7
  6
Continuous
  0
LAYER
  5
28
  2
Defpoints
 70
0
 62
7
  6
Continuous
  0
ENDTAB
  0
TABLE
  2
STYLE
 70
1
  0
STYLE
  5
29
  2
Standard
 70
0
 40
0.0
 41
1.0
 50
0.0
 71
0
 42
2.5
  3
txt
  4

  0
ENDTAB
  0
TABLE
  2
VIEW
 70
0
  0
ENDTAB
  0
TABLE
  2
UCS
 70
0
  0
ENDTAB
  0
TABLE
  2
APPID
 70
2
  0
APPID
  5
2A
  2
ACAD
 70
0
  0
APPID
  5
91
  2
HATCHBACKGROUNDCOLOR
 70
0
  0
ENDTAB
  0
TABLE
  2
DIMSTYLE
 70
1
  0
DIMSTYLE
105
2B
  2
Standard
 70
0
  3

  4

  5

  6

  7

 40
1.0
 41
2.5
 42
0.625
 43
3.75
 44
1.25
 45
0.0
 46
0.0
 47
0.0
 48
0.0
140
2.5
141
2.5
142
0.0
143
0.03937007874
144
1.0
145
0.0
146
1.0
147
0.625
 71
0
 72
0
 73
0
 74
0
 75
0
 76
0
 77
1
 78
8
170
0
171
3
172
1
173
0
174
0
175
0
176
0
177
0
178
0
  0
ENDTAB
  0
ENDSEC
  0
SECTION
  2
BLOCKS
  0
BLOCK
  5
18
  8
0
  2
$Model_Space
 70
0
 10
0.0
 20
0.0
 30
0.0
  3
$Model_Space
  1

  0
ENDBLK
  5
19
  8
0
  0
BLOCK
  5
1C
  8
0
  2
$Paper_Space
 70
0
 10
0.0
 20
0.0
 30
0.0
  3
$Paper_Space
  1

  0
ENDBLK
  5
1D
  8
0
  0
ENDSEC
  0
SECTION
  2
ENTITIES
  0
LINE
  5
2D
  8
0
 10
-0.55
 20
-0.03052081009999999
 30
-3.0861571277397326
 11
-0.5473119853
 21
-0.12027320705
 31
-2.9252783825994007
  0
LINE
  5
2E
  8
0
 10
-0.5473119853
 20
-0.12027320705
 30
-2.9252783825994007
 11
-0.5468799122
 21
-0.13332645084
 31
-2.9024626997174674
  0
LINE
  5
2F
  8
0
 10
-0.5468799122
 20
-0.13332645084
 30
-2.9024626997174674
 11
-0.5441447854
 21
-0.21462142321
 31
-2.76590611689948
  0
LINE
  5
30
  8
0
 10
-0.5441447854
 20
-0.21462142321
 30
-2.76590611689948
 11
-0.5437272609
 21
-0.22637457069
 31
-2.747081221501839
  0
LINE
  5
31
  8
0
 10
-0.5437272609
 20
-0.22637457069
 30
-2.747081221501839
 11
-0.5388274084
 21
-0.29957648179999996
 31
-2.634170974819502
  0
LINE
  5
32
  8
0
 10
-0.5388274084
 20
-0.29957648179999996
 30
-2.634170974819502
 11
-0.5381190498
 21
-0.3101166398
 31
-2.6187838473287917
  0
LINE
  5
33
  8
0
 10
-0.5381190498
 20
-0.3101166398
 30
-2.6187838473287917
 11
-0.5289371194
 21
-0.3755856371
 31
-2.52413613064411
  0
LINE
  5
34
  8
0
 10
-0.5289371194
 20
-0.3755856371
 30
-2.52413613064411
 11
-0.5276323946
 21
-0.3850044813
 31
-2.5112216105070084
  0
LINE
  5
35
  8
0
 10
-0.5276323946
 20
-0.3850044813
 30
-2.5112216105070084
 11
-0.5120579823
 21
-0.4431004993
 31
-2.428264260169044
  0
LINE
  5
36
  8
0
 10
-0.5120579823
 20
-0.4431004993
 30
-2.428264260169044
 11
-0.5098445844
 21
-0.45149014
 31
-2.416821583612325
  0
LINE
  5
37
  8
0
 10
-0.5098445844
 20
-0.45149014
 30
-2.416821583612325
 11
-0.4857841329
 21
-0.5025763281
 31
-2.3392061742831416
  0
LINE
  5
38
  8
0
 10
-0.4857841329
 20
-0.5025763281
 30
-2.3392061742831416
 11
-0.4823330613
 21
-0.5100258719999999
 31
-2.3282956880940904
  0
LINE
  5
39
  8
0
 10
-0.4823330613
 20
-0.5100258719999999
 30
-2.3282956880940904
 11
-0.4478110547
 21
-0.5543321169
 31
-2.2502988502117667
  0
LINE
  5
3A
  8
0
 10
-0.4478110547
 20
-0.5543321169
 30
-2.2502988502117667
 11
-0.4427799546
 21
-0.5608990289
 31
-2.2390472286857754
  0
LINE
  5
3B
  8
0
 10
-0.4427799546
 20
-0.5608990289
 30
-2.2390472286857754
 11
-0.3962070643
 21
-0.5981083652
 31
-2.1558626020109135
  0
LINE
  5
3C
  8
0
 10
-0.3962070643
 20
-0.5981083652
 30
-2.1558626020109135
 11
-0.3892858611
 21
-0.6037359123
 31
-2.1435037468243263
  0
LINE
  5
3D
  8
0
 10
-0.3892858611
 20
-0.6037359123
 30
-2.1435037468243263
 11
-0.3291718847
 21
-0.633412765
 31
-2.050063620782122
  0
LINE
  5
3E
  8
0
 10
-0.3291718847
 20
-0.633412765
 30
-2.050063620782122
 11
-0.3200558935
 21
-0.6379964258999999
 31
-2.0357693087629163
  0
LINE
  5
3F
  8
0
 10
-0.3200558935
 20
-0.6379964258999999
 30
-2.0357693087629163
 11
-0.2449005791
 21
-0.6597197963
 31
-1.926248108877412
  0
LINE
  5
40
  8
0
 10
-0.2449005791
 20
-0.6597197963
 30
-1.926248108877412
 11
-0.2332950401
 21
-0.6631393241
 31
-1.9090773324613013
  0
LINE
  5
41
  8
0
 10
-0.2332950401
 20
-0.6631393241
 30
-1.9090773324613013
 11
-0.1415641732
 21
-0.6764908038
 31
-1.77708208955778
  0
LINE
  5
42
  8
0
 10
-0.1415641732
 20
-0.6764908038
 30
-1.77708208955778
 11
-0.1272081636
 21
-0.6786226017
 31
-1.7560964825485301
  0
LINE
  5
43
  8
0
 10
-0.1272081636
 20
-0.6786226017
 30
-1.7560964825485301
 11
-0.01730357307
 21
-0.6831726891
 31
-1.596119169130719
  0
LINE
  5
44
  8
0
 10
-0.01730357307
 20
-0.6831726891
 30
-1.596119169130719
 11
1.110223025e-16
 21
-0.6839040968
 31
-1.5707963267948966
  0
LINE
  5
45
  8
0
 10
1.110223025e-16
 20
-0.6839040968
 30
-1.5707963267948966
 11
0.01730357307
 21
-0.6831726891
 31
-1.5454734844590743
  0
LINE
  5
46
  8
0
 10
0.01730357307
 20
-0.6831726891
 30
-1.5454734844590743
 11
0.1272081636
 21
-0.6786226017
 31
-1.385496171041263
  0
LINE
  5
47
  8
0
 10
0.1272081636
 20
-0.6786226017
 30
-1.385496171041263
 11
0.1415641732
 21
-0.6764908038
 31
-1.3645105640320134
  0
LINE
  5
48
  8
0
 10
0.1415641732
 20
-0.6764908038
 30
-1.3645105640320134
 11
0.2332950401
 21
-0.6631393241
 31
-1.2325153211284918
  0
LINE
  5
49
  8
0
 10
0.2332950401
 20
-0.6631393241
 30
-1.2325153211284918
 11
0.2449005791
 21
-0.6597197963
 31
-1.2153445447123812
  0
LINE
  5
4A
  8
0
 10
0.2449005791
 20
-0.6597197963
 30
-1.2153445447123812
 11
0.3200558935
 21
-0.6379964258999999
 31
-1.1058233448268768
  0
LINE
  5
4B
  8
0
 10
0.3200558935
 20
-0.6379964258999999
 30
-1.1058233448268768
 11
0.3291718847
 21
-0.633412765
 31
-1.0915290328076714
  0
LINE
  5
4C
  8
0
 10
0.3291718847
 20
-0.633412765
 30
-1.0915290328076714
 11
0.3892858611
 21
-0.6037359123
 31
-0.9980889067654668
  0
LINE
  5
4D
  8
0
 10
0.3892858611
 20
-0.6037359123
 30
-0.9980889067654668
 11
0.3962070643
 21
-0.5981083652
 31
-0.9857300515788796
  0
LINE
  5
4E
  8
0
 10
0.3962070643
 20
-0.5981083652
 30
-0.9857300515788796
 11
0.4427799546
 21
-0.5608990289
 31
-0.9025454249040178
  0
LINE
  5
4F
  8
0
 10
0.4427799546
 20
-0.5608990289
 30
-0.9025454249040178
 11
0.4478110547
 21
-0.5543321169
 31
-0.8912938033780267
  0
LINE
  5
50
  8
0
 10
0.4478110547
 20
-0.5543321169
 30
-0.8912938033780267
 11
0.4823330613
 21
-0.5100258719999999
 31
-0.8132969654957027
  0
LINE
  5
51
  8
0
 10
0.4823330613
 20
-0.5100258719999999
 30
-0.8132969654957027
 11
0.4857841329
 21
-0.5025763281
 31
-0.8023864793066514
  0
LINE
  5
52
  8
0
 10
0.4857841329
 20
-0.5025763281
 30
-0.8023864793066514
 11
0.5098445844
 21
-0.45149014
 31
-0.7247710699774684
  0
LINE
  5
53
  8
0
 10
0.5098445844
 20
-0.45149014
 30
-0.7247710699774684
 11
0.5120579823
 21
-0.4431004993
 31
-0.7133283934207492
  0
LINE
  5
54
  8
0
 10
0.5120579823
 20
-0.4431004993
 30
-0.7133283934207492
 11
0.5276323946
 21
-0.3850044813
 31
-0.6303710430827846
  0
LINE
  5
55
  8
0
 10
0.5276323946
 20
-0.3850044813
 30
-0.6303710430827846
 11
0.5289371194
 21
-0.3755856371
 31
-0.6174565229456832
  0
LINE
  5
56
  8
0
 10
0.5289371194
 20
-0.3755856371
 30
-0.6174565229456832
 11
0.5381190498
 21
-0.3101166398
 31
-0.5228088062610015
  0
LINE
  5
57
  8
0
 10
0.5381190498
 20
-0.3101166398
 30
-0.5228088062610015
 11
0.5388274084
 21
-0.29957648179999996
 31
-0.5074216787702912
  0
LINE
  5
58
  8
0
 10
0.5388274084
 20
-0.29957648179999996
 30
-0.5074216787702912
 11
0.5437272609
 21
-0.22637457069
 31
-0.39451143208795386
  0
LINE
  5
59
  8
0
 10
0.5437272609
 20
-0.22637457069
 30
-0.39451143208795386
 11
0.5441447854
 21
-0.21462142321
 31
-0.3756865366903133
  0
LINE
  5
5A
  8
0
 10
0.5441447854
 20
-0.21462142321
 30
-0.3756865366903133
 11
0.5468799122
 21
-0.13332645084
 31
-0.2391299538723258
  0
LINE
  5
5B
  8
0
 10
0.5468799122
 20
-0.13332645084
 30
-0.2391299538723258
 11
0.5473119853
 21
-0.12027320705
 31
-0.21631427099039277
  0
LINE
  5
5C
  8
0
 10
0.5473119853
 20
-0.12027320705
 30
-0.21631427099039277
 11
0.55
 21
-0.03052081009999999
 31
-0.055435525850060445
  0
LINE
  5
5D
  8
0
 10
0.55
 20
-0.03052081009999999
 30
-0.055435525850060445
 11
0.5546945846
 21
0.0991477973
 31
0.17687516106893253
  0
LINE
  5
5E
  8
0
 10
0.5546945846
 20
0.0991477973
 30
0.17687516106893253
 11
0.5554799699
 21
0.1182215794
 31
0.20969900842996236
  0
LINE
  5
5F
  8
0
 10
0.5554799699
 20
0.1182215794
 30
0.20969900842996236
 11
0.5609108862
 21
0.22767071910000003
 31
0.3855776070058101
  0
LINE
  5
60
  8
0
 10
0.5609108862
 20
0.22767071910000003
 30
0.3855776070058101
 11
0.5618846471
 21
0.2439217667
 31
0.40956455455879265
  0
LINE
  5
61
  8
0
 10
0.5618846471
 20
0.2439217667
 30
0.40956455455879265
 11
0.5651820015
 21
0.3350378352
 31
0.5351058714607599
  0
LINE
  5
62
  8
0
 10
0.5651820015
 20
0.3350378352
 30
0.5351058714607599
 11
0.5658970517
 21
0.34876927850000006
 31
0.5523275290631723
  0
LINE
  5
63
  8
0
 10
0.5658970517
 20
0.34876927850000006
 30
0.5523275290631723
 11
0.5642122997
 21
0.4234380471
 31
0.6438173088541522
  0
LINE
  5
64
  8
0
 10
0.5642122997
 20
0.4234380471
 30
0.6438173088541522
 11
0.564202294
 21
0.4349558739
 31
0.6567571818622886
  0
LINE
  5
65
  8
0
 10
0.564202294
 20
0.4349558739
 30
0.6567571818622886
 11
0.55473171
 21
0.4950771517
 31
0.7286349976645567
  0
LINE
  5
66
  8
0
 10
0.55473171
 20
0.4950771517
 30
0.7286349976645567
 11
0.5534863664
 21
0.504675025
 31
0.7393023928225194
  0
LINE
  5
67
  8
0
 10
0.5534863664
 20
0.504675025
 30
0.7393023928225194
 11
0.5335043625
 21
0.5521696773
 31
0.80258884441649
  0
LINE
  5
68
  8
0
 10
0.5335043625
 20
0.5521696773
 30
0.80258884441649
 11
0.5304332669
 21
0.5601215317
 31
0.8126145253290982
  0
LINE
  5
69
  8
0
 10
0.5304332669
 20
0.5601215317
 30
0.8126145253290982
 11
0.4975358906
 21
0.5968151087
 31
0.8758702303923066
  0
LINE
  5
6A
  8
0
 10
0.4975358906
 20
0.5968151087
 30
0.8758702303923066
 11
0.4919682853
 21
0.6033437028
 31
0.886733604054168
  0
LINE
  5
6B
  8
0
 10
0.4919682853
 20
0.6033437028
 30
0.886733604054168
 11
0.4446749276
 21
0.6306100915
 31
0.9566221079404342
  0
LINE
  5
6C
  8
0
 10
0.4446749276
 20
0.6306100915
 30
0.9566221079404342
 11
0.4359971449
 21
0.6357976027
 31
0.9696994158271299
  0
LINE
  5
6D
  8
0
 10
0.4359971449
 20
0.6357976027
 30
0.9696994158271299
 11
0.3730551482
 21
0.6549039386
 31
1.0530045525038043
  0
LINE
  5
6E
  8
0
 10
0.3730551482
 20
0.6549039386
 30
1.0530045525038043
 11
0.3606650452
 21
0.658785241
 31
1.069897738480878
  0
LINE
  5
6F
  8
0
 10
0.3606650452
 20
0.658785241
 30
1.069897738480878
 11
0.2807726001
 21
0.6709787709
 31
1.1744846982882973
  0
LINE
  5
70
  8
0
 10
0.2807726001
 20
0.6709787709
 30
1.1744846982882973
 11
0.2641162785
 21
0.6736031485
 31
1.1971233155351326
  0
LINE
  5
71
  8
0
 10
0.2641162785
 20
0.6736031485
 30
1.1971233155351326
 11
0.1658402675
 21
0.6800859148
 31
1.3316123940191484
  0
LINE
  5
72
  8
0
 10
0.1658402675
 20
0.6800859148
 30
1.3316123940191484
 11
0.1445036761
 21
0.6815448667
 31
1.3618666827867472
  0
LINE
  5
73
  8
0
 10
0.1445036761
 20
0.6815448667
 30
1.3618666827867472
 11
0.02617965841
 21
0.6834615964
 31
1.5325105388252998
  0
LINE
  5
74
  8
0
 10
0.02617965841
 20
0.6834615964
 30
1.5325105388252998
 11
-1.665334537e-16
 21
0.6839040968
 31
1.5707963267948968
  0
LINE
  5
75
  8
0
 10
-1.665334537e-16
 20
0.6839040968
 30
1.5707963267948968
 11
-0.02617965841
 21
0.6834615964
 31
1.6090821147644934
  0
LINE
  5
76
  8
0
 10
-0.02617965841
 20
0.6834615964
 30
1.6090821147644934
 11
-0.1445036761
 21
0.6815448667
 31
1.7797259708030462
  0
LINE
  5
77
  8
0
 10
-0.1445036761
 20
0.6815448667
 30
1.7797259708030462
 11
-0.1658402675
 21
0.6800859148
 31
1.809980259570645
  0
LINE
  5
78
  8
0
 10
-0.1658402675
 20
0.6800859148
 30
1.809980259570645
 11
-0.2641162785
 21
0.6736031485
 31
1.9444693380546607
  0
LINE
  5
79
  8
0
 10
-0.2641162785
 20
0.6736031485
 30
1.9444693380546607
 11
-0.2807726001
 21
0.6709787709
 31
1.967107955301496
  0
LINE
  5
7A
  8
0
 10
-0.2807726001
 20
0.6709787709
 30
1.967107955301496
 11
-0.3606650452
 21
0.658785241
 31
2.0716949151089152
  0
LINE
  5
7B
  8
0
 10
-0.3606650452
 20
0.658785241
 30
2.0716949151089152
 11
-0.3730551482
 21
0.6549039386
 31
2.088588101085989
  0
LINE
  5
7C
  8
0
 10
-0.3730551482
 20
0.6549039386
 30
2.088588101085989
 11
-0.4359971449
 21
0.6357976027
 31
2.171893237762663
  0
LINE
  5
7D
  8
0
 10
-0.4359971449
 20
0.6357976027
 30
2.171893237762663
 11
-0.4446749276
 21
0.6306100915
 31
2.184970545649359
  0
LINE
  5
7E
  8
0
 10
-0.4446749276
 20
0.6306100915
 30
2.184970545649359
 11
-0.4919682853
 21
0.6033437028
 31
2.254859049535625
  0
LINE
  5
7F
  8
0
 10
-0.4919682853
 20
0.6033437028
 30
2.254859049535625
 11
-0.4975358906
 21
0.5968151087
 31
2.2657224231974866
  0
LINE
  5
80
  8
0
 10
-0.4975358906
 20
0.5968151087
 30
2.2657224231974866
 11
-0.5304332669
 21
0.5601215317
 31
2.328978128260695
  0
LINE
  5
81
  8
0
 10
-0.5304332669
 20
0.5601215317
 30
2.328978128260695
 11
-0.5335043625
 21
0.5521696773
 31
2.339003809173303
  0
LINE
  5
82
  8
0
 10
-0.5335043625
 20
0.5521696773
 30
2.339003809173303
 11
-0.5534863664
 21
0.504675025
 31
2.402290260767274
  0
LINE
  5
83
  8
0
 10
-0.5534863664
 20
0.504675025
 30
2.402290260767274
 11
-0.55473171
 21
0.4950771517
 31
2.4129576559252364
  0
LINE
  5
84
  8
0
 10
-0.55473171
 20
0.4950771517
 30
2.4129576559252364
 11
-0.564202294
 21
0.4349558739
 31
2.4848354717275045
  0
LINE
  5
85
  8
0
 10
-0.564202294
 20
0.4349558739
 30
2.4848354717275045
 11
-0.5642122997
 21
0.4234380471
 31
2.4977753447356412
  0
LINE
  5
86
  8
0
 10
-0.5642122997
 20
0.4234380471
 30
2.4977753447356412
 11
-0.5658970517
 21
0.34876927850000006
 31
2.5892651245266207
  0
LINE
  5
87
  8
0
 10
-0.5658970517
 20
0.34876927850000006
 30
2.5892651245266207
 11
-0.5651820015
 21
0.3350378352
 31
2.6064867821290334
  0
LINE
  5
88
  8
0
 10
-0.5651820015
 20
0.3350378352
 30
2.6064867821290334
 11
-0.5618846471
 21
0.2439217667
 31
2.7320280990310004
  0
LINE
  5
89
  8
0
 10
-0.5618846471
 20
0.2439217667
 30
2.7320280990310004
 11
-0.5609108862
 21
0.22767071910000003
 31
2.756015046583983
  0
LINE
  5
8A
  8
0
 10
-0.5609108862
 20
0.22767071910000003
 30
2.756015046583983
 11
-0.5554799699
 21
0.1182215794
 31
2.931893645159831
  0
LINE
  5
8B
  8
0
 10
-0.5554799699
 20
0.1182215794
 30
2.931893645159831
 11
-0.5546945846
 21
0.0991477973
 31
2.964717492520861
  0
LINE
  5
8C
  8
0
 10
-0.5546945846
 20
0.0991477973
 30
2.964717492520861
 11
-0.55
 21
-0.03052081009999999
 31
-3.0861571277397326
  0
LINE
  5
8D
  8
0
 10
0.2
 20
0.2
 30
0.0
 11
0.2
 21
-0.2
 31
0.0
  0
LINE
  5
8E
  8
0
 10
0.2
 20
-0.2
 30
0.0
 11
-0.2
 21
-0.2
 31
0.0
  0
LINE
  5
8F
  8
0
 10
-0.2
 20
-0.2
 30
0.0
 11
-0.2
 21
0.2
 31
0.0
  0
LINE
  5
90
  8
0
 10
-0.2
 20
0.2
 30
0.0
 11
0.2
 21
0.2
 31
0.0
  0
ENDSEC
  0
EOF
