  0
SECTION
  2
HEADER
  9
$ACADVER
  1
AC1009
  9
$DWGCODEPAGE
  3
ANSI_1252
  9
$INSBASE
 10
0.0
 20
0.0
 30
0.0
  9
$EXTMIN
 10
-100
 20
-100
 30
-100
  9
$EXTMAX
 10
100
 20
100
 30
100
  9
$LIMMIN
 10
0.0
 20
0.0
  9
$LIMMAX
 10
420.0
 20
297.0
  9
$ORTHOMODE
 70
0
  9
$REGENMODE
 70
1
  9
$DRAGMODE
 70
2
  9
$FILLMODE
 70
1
  9
$QTEXTMODE
 70
0
  9
$MIRRTEXT
 70
1
  9
$OSMODE
 70
20583
  9
$LTSCALE
 40
1.0
  9
$ATTMODE
 70
1
  9
$TEXTSIZE
 40
2.5
  9
$TRACEWID
 40
1.0
  9
$TEXTSTYLE
  7
Standard
  9
$CLAYER
  8
0
  9
$CELTYPE
  6
ByLayer
  9
$CECOLOR
 62
256
  9
$DIMSCALE
 40
1.0
  9
$DIMASZ
 40
2.5
  9
$DIMEXO
 40
0.625
  9
$DIMDLI
 40
3.75
  9
$DIMRND
 40
0.0
  9
$DIMDLE
 40
0.0
  9
$DIMEXE
 40
1.25
  9
$DIMTP
 40
0.0
  9
$DIMTM
 40
0.0
  9
$DIMTXT
 40
2.5
  9
$DIMCEN
 40
2.5
  9
$DIMTSZ
 40
0.0
  9
$DIMTOL
 70
0
  9
$DIMLIM
 70
0
  9
$DIMTIH
 70
0
  9
$DIMTOH
 70
0
  9
$DIMSE1
 70
0
  9
$DIMSE2
 70
0
  9
$DIMTAD
 70
1
  9
$DIMZIN
 70
8
  9
$DIMBLK
  1

  9
$DIMASO
 70
1
  9
$DIMSHO
 70
1
  9
$DIMPOST
  1

  9
$DIMAPOST
  1

  9
$DIMALT
 70
0
  9
$DIMALTD
 70
3
  9
$DIMALTF
 40
0.03937007874
  9
$DIMLFAC
 40
1.0
  9
$DIMTOFL
 70
1
  9
$DIMTVP
 40
0.0
  9
$DIMTIX
 70
0
  9
$DIMSOXD
 70
0
  9
$DIMSAH
 70
0
  9
$DIMBLK1
  1

  9
$DIMBLK2
  1

  9
$DIMSTYLE
  2
ISO-25
  9
$DIMCLRD
 70
0
  9
$DIMCLRE
 70
0
  9
$DIMCLRT
 70
0
  9
$DIMTFAC
 40
1.0
  9
$DIMGAP
 40
0.625
  9
$COORDS
 70
1
  9
$ATTDIA
 70
0
  9
$ATTREQ
 70
1
  9
$HANDLING
 70
1
  9
$LUNITS
 70
2
  9
$LUPREC
 70
4
  9
$SKETCHINC
 40
1.0
  9
$FILLETRAD
 40
10.0
  9
$AUNITS
 70
0
  9
$AUPREC
 70
2
  9
$MENU
  1
.
  9
$ELEVATION
 40
0.0
  9
$PELEVATION
 40
0.0
  9
$THICKNESS
 40
0.0
  9
$LIMCHECK
 70
0
  9
$CHAMFERA
 40
0.0
  9
$CHAMFERB
 40
0.0
  9
$SKPOLY
 70
0
  9
$TDCREATE
 40
2459751.945671296
  9
$TDUPDATE
 40
2459751.945671296
  9
$TDINDWG
 40
0.0
  9
$TDUSRTIMER
 40
0.0
  9
$USRTIMER
 70
1
  9
$ANGBASE
 50
0.0
  9
$ANGDIR
 70
0
  9
$PDMODE
 70
0
  9
$PDSIZE
 40
0.0
  9
$PLINEWID
 40
0.0
  9
$SPLFRAME
 70
0
  9
$SPLINETYPE
 70
6
  9
$SPLINESEGS
 70
8
  9
$HANDSEED
  5
72
  9
$SURFTAB1
 70
6
  9
$SURFTAB2
 70
6
  9
$SURFTYPE
 70
6
  9
$SURFU
 70
6
  9
$SURFV
 70
6
  9
$UCSNAME
  2

  9
$UCSORG
 10
0.0
 20
0.0
 30
0.0
  9
$UCSXDIR
 10
1.0
 20
0.0
 30
0.0
  9
$UCSYDIR
 10
0.0
 20
1.0
 30
0.0
  9
$PUCSNAME
  2

  9
$PUCSORG
 10
0.0
 20
0.0
 30
0.0
  9
$PUCSXDIR
 10
1.0
 20
0.0
 30
0.0
  9
$PUCSYDIR
 10
0.0
 20
1.0
 30
0.0
  9
$USERI1
 70
0
  9
$USERI2
 70
0
  9
$USERI3
 70
0
  9
$USERI4
 70
0
  9
$USERI5
 70
0
  9
$USERR1
 40
0.0
  9
$USERR2
 40
0.0
  9
$USERR3
 40
0.0
  9
$USERR4
 40
0.0
  9
$USERR5
 40
0.0
  9
$WORLDVIEW
 70
1
  9
$SHADEDGE
 70
3
  9
$SHADEDIF
 70
70
  9
$TILEMODE
 70
1
  9
$MAXACTVP
 70
64
  9
$PLIMCHECK
 70
0
  9
$PEXTMIN
 10
1e+20
 20
1e+20
 30
1e+20
  9
$PEXTMAX
 10
-1e+20
 20
-1e+20
 30
-1e+20
  9
$PLIMMIN
 10
0.0
 20
0.0
  9
$PLIMMAX
 10
420.0
 20
297.0
  9
$UNITMODE
 70
0
  9
$VISRETAIN
 70
1
  9
$PLINEGEN
 70
0
  9
$PSLTSCALE
 70
1
  0
ENDSEC
  0
SECTION
  2
TABLES
  0
TABLE
  2
VPORT
 70
1
  0
VPORT
  5
23
  2
*Active
 70
0
 10
0.0
 20
0.0
 11
1.0
 21
1.0
 12
70.0
 22
50.0
 13
0.0
 23
0.0
 14
0.5
 24
0.5
 15
0.5
 25
0.5
 16
0.0
 26
0.0
 36
1.0
 17
0.0
 27
0.0
 37
0.0
 40
1.0
 41
1.34
 42
50.0
 43
0.0
 44
0.0
 50
0.0
 51
0.0
 71
0
 72
1000
 73
1
 74
3
 75
0
 76
0
 77
0
 78
0
  0
ENDTAB
  0
TABLE
  2
LTYPE
 70
3
  0
LTYPE
  5
24
  2
ByBlock
 70
0
  3

 72
65
 73
0
 40
0.0
  0
LTYPE
  5
25
  2
ByLayer
 70
0
  3

 72
65
 73
0
 40
0.0
  0
LTYPE
  5
26
  2
Continuous
 70
0
  3

 72
65
 73
0
 40
0.0
  0
ENDTAB
  0
TABLE
  2
LAYER
 70
2
  0
LAYER
  5
27
  2
0
 70
0
 62
7
  6
Continuous
  0
LAYER
  5
28
  2
Defpoints
 70
0
 62
7
  6
Continuous
  0
ENDTAB
  0
TABLE
  2
STYLE
 70
1
  0
STYLE
  5
29
  2
Standard
 70
0
 40
0.0
 41
1.0
 50
0.0
 71
0
 42
2.5
  3
txt
  4

  0
ENDTAB
  0
TABLE
  2
VIEW
 70
0
  0
ENDTAB
  0
TABLE
  2
UCS
 70
0
  0
ENDTAB
  0
TABLE
  2
APPID
 70
2
  0
APPID
  5
2A
  2
ACAD
 70
0
  0
APPID
  5
71
  2
HATCHBACKGROUNDCOLOR
 70
0
  0
ENDTAB
  0
TABLE
  2
DIMSTYLE
 70
1
  0
DIMSTYLE
105
2B
  2
Standard
 70
0
  3

  4

  5

  6

  7

 40
1.0
 41
2.5
 42
0.625
 43
3.75
 44
1.25
 45
0.0
 46
0.0
 47
0.0
 48
0.0
140
2.5
141
2.5
142
0.0
143
0.03937007874
144
1.0
145
0.0
146
1.0
147
0.625
 71
0
 72
0
 73
0
 74
0
 75
0
 76
0
 77
1
 78
8
170
0
171
3
172
1
173
0
174
0
175
0
176
0
177
0
178
0
  0
ENDTAB
  0
ENDSEC
  0
SECTION
  2
BLOCKS
  0
BLOCK
  5
18
  8
0
  2
$Model_Space
 70
0
 10
0.0
 20
0.0
 30
0.0
  3
$Model_Space
  1

  0
ENDBLK
  5
19
  8
0
  0
BLOCK
  5
1C
  8
0
  2
$Paper_Space
 70
0
 10
0.0
 20
0.0
 30
0.0
  3
$Paper_Space
  1

  0
ENDBLK
  5
1D
  8
0
  0
ENDSEC
  0
SECTION
  2
ENTITIES
  0
LINE
  5
2D
  8
0
 10
-1.7180847145000002
 20
-0.0047122871299999924
 30
0.0
 11
-1.7305987755000003
 21
-0.02375429902999998
 31
0.0
  0
LINE
  5
2E
  8
0
 10
-1.7305987755000003
 20
-0.02375429902999998
 30
0.0
 11
-1.7172048455
 21
-0.042220794429999986
 31
0.0
  0
LINE
  5
2F
  8
0
 10
-1.7172048455
 20
-0.042220794429999986
 30
0.0
 11
-1.6932186945
 21
-0.07572678982999997
 31
0.0
  0
LINE
  5
30
  8
0
 10
-1.6932186945
 20
-0.07572678982999997
 30
0.0
 11
-1.6620430405
 21
-0.08927427213
 31
0.0
  0
LINE
  5
31
  8
0
 10
-1.6620430405
 20
-0.08927427213
 30
0.0
 11
-1.6059079405000003
 21
-0.11378733783
 31
0.0
  0
LINE
  5
32
  8
0
 10
-1.6059079405000003
 20
-0.11378733783
 30
0.0
 11
-1.5592065075000003
 21
-0.12465030763000001
 31
0.0
  0
LINE
  5
33
  8
0
 10
-1.5592065075000003
 20
-0.12465030763000001
 30
0.0
 11
-1.4749187355000002
 21
-0.14373219983000002
 31
0.0
  0
LINE
  5
34
  8
0
 10
-1.4749187355000002
 20
-0.14373219983000002
 30
0.0
 11
-1.4099401345000002
 21
-0.15233027543
 31
0.0
  0
LINE
  5
35
  8
0
 10
-1.4099401345000002
 20
-0.15233027543
 30
0.0
 11
-1.2926926175000002
 21
-0.16681183873
 31
0.0
  0
LINE
  5
36
  8
0
 10
-1.2926926175000002
 20
-0.16681183873
 30
0.0
 11
-1.2068032225
 21
-0.17254520523
 31
0.0
  0
LINE
  5
37
  8
0
 10
-1.2068032225
 20
-0.17254520523
 30
0.0
 11
-1.0519091285000002
 21
-0.18150851383
 31
0.0
  0
LINE
  5
38
  8
0
 10
-1.0519091285000002
 20
-0.18150851383
 30
0.0
 11
-0.9446108365000003
 21
-0.18355653702999997
 31
0.0
  0
LINE
  5
39
  8
0
 10
-0.9446108365000003
 20
-0.18355653702999997
 30
0.0
 11
-0.7511884415000001
 21
-0.18585366313
 31
0.0
  0
LINE
  5
3A
  8
0
 10
-0.7511884415000001
 20
-0.18585366313
 30
0.0
 11
-0.6257629585000002
 21
-0.18384826353
 31
0.0
  0
LINE
  5
3B
  8
0
 10
-0.6257629585000002
 20
-0.18384826353
 30
0.0
 11
-0.39969944749999975
 21
-0.17931130463
 31
0.0
  0
LINE
  5
3C
  8
0
 10
-0.39969944749999975
 20
-0.17931130463
 30
0.0
 11
-0.2637857945000004
 21
-0.17361746432999997
 31
0.0
  0
LINE
  5
3D
  8
0
 10
-0.2637857945000004
 20
-0.17361746432999997
 30
0.0
 11
-0.018808618500000485
 21
-0.16312937203
 31
0.0
  0
LINE
  5
3E
  8
0
 10
-0.018808618500000485
 20
-0.16312937203
 30
0.0
 11
0.22594514950000022
 21
-0.14827510133
 31
0.0
  0
LINE
  5
3F
  8
0
 10
0.22594514950000022
 20
-0.14827510133
 30
0.0
 11
0.3617228834999997
 21
-0.13992325372999997
 31
0.0
  0
LINE
  5
40
  8
0
 10
0.3617228834999997
 20
-0.13992325372999997
 30
0.0
 11
0.5872567874999994
 21
-0.12364761853
 31
0.0
  0
LINE
  5
41
  8
0
 10
0.5872567874999994
 20
-0.12364761853
 30
0.0
 11
0.7123543144999998
 21
-0.11427999852999998
 31
0.0
  0
LINE
  5
42
  8
0
 10
0.7123543144999998
 20
-0.11427999852999998
 30
0.0
 11
0.9052074445000002
 21
-0.09892651142999997
 31
0.0
  0
LINE
  5
43
  8
0
 10
0.9052074445000002
 20
-0.09892651142999997
 30
0.0
 11
1.0121606575
 21
-0.08992612483000001
 31
0.0
  0
LINE
  5
44
  8
0
 10
1.0121606575
 20
-0.08992612483000001
 30
0.0
 11
1.1667936914999997
 21
-0.07680668403000002
 31
0.0
  0
LINE
  5
45
  8
0
 10
1.1667936914999997
 20
-0.07680668403000002
 30
0.0
 11
1.2525377175
 21
-0.06900894923
 31
0.0
  0
LINE
  5
46
  8
0
 10
1.2525377175
 20
-0.06900894923
 30
0.0
 11
1.3702491815000002
 21
-0.05855854703000002
 31
0.0
  0
LINE
  5
47
  8
0
 10
1.3702491815000002
 20
-0.05855854703000002
 30
0.0
 11
1.4355117945
 21
-0.05228569582999998
 31
0.0
  0
LINE
  5
48
  8
0
 10
1.4355117945
 20
-0.05228569582999998
 30
0.0
 11
1.5216211355000002
 21
-0.044374696029999994
 31
0.0
  0
LINE
  5
49
  8
0
 10
1.5216211355000002
 20
-0.044374696029999994
 30
0.0
 11
1.5693576875000002
 21
-0.03959458942999999
 31
0.0
  0
LINE
  5
4A
  8
0
 10
1.5693576875000002
 20
-0.03959458942999999
 30
0.0
 11
1.6305324624999997
 21
-0.03382809513000001
 31
0.0
  0
LINE
  5
4B
  8
0
 10
1.6305324624999997
 20
-0.03382809513000001
 30
0.0
 11
1.6644433195000001
 21
-0.030328722929999996
 31
0.0
  0
LINE
  5
4C
  8
0
 10
1.6644433195000001
 20
-0.030328722929999996
 30
0.0
 11
1.7070063104999997
 21
-0.026241552929999967
 31
0.0
  0
LINE
  5
4D
  8
0
 10
1.7070063104999997
 20
-0.026241552929999967
 30
0.0
 11
1.7305987754999999
 21
-0.02375429902999998
 31
0.0
  0
LINE
  5
4E
  8
0
 10
1.7305987754999999
 20
-0.02375429902999998
 30
0.0
 11
1.7070282675000001
 21
-0.02051892932999999
 31
0.0
  0
LINE
  5
4F
  8
0
 10
1.7070282675000001
 20
-0.02051892932999999
 30
0.0
 11
1.6645408484999997
 21
-0.013856781829999998
 31
0.0
  0
LINE
  5
50
  8
0
 10
1.6645408484999997
 20
-0.013856781829999998
 30
0.0
 11
1.6306522755000001
 21
-0.009325013329999965
 31
0.0
  0
LINE
  5
51
  8
0
 10
1.6306522755000001
 20
-0.009325013329999965
 30
0.0
 11
1.5695542015
 21
-5.062329999971915e-06
 31
0.0
  0
LINE
  5
52
  8
0
 10
1.5695542015
 20
-5.062329999971915e-06
 30
0.0
 11
1.5218313194999995
 21
0.006142646670000029
 31
0.0
  0
LINE
  5
53
  8
0
 10
1.5218313194999995
 20
0.006142646670000029
 30
0.0
 11
1.4357690285000002
 21
0.01876086547
 31
0.0
  0
LINE
  5
54
  8
0
 10
1.4357690285000002
 20
0.01876086547
 30
0.0
 11
1.3704938164999998
 21
0.026741411270000015
 31
0.0
  0
LINE
  5
55
  8
0
 10
1.3704938164999998
 20
0.026741411270000015
 30
0.0
 11
1.2527389885
 21
0.04306961317000002
 31
0.0
  0
LINE
  5
56
  8
0
 10
1.2527389885
 20
0.04306961317000002
 30
0.0
 11
1.1669280185000002
 21
0.05282668837000001
 31
0.0
  0
LINE
  5
57
  8
0
 10
1.1669280185000002
 20
0.05282668837000001
 30
0.0
 11
1.0120645694999997
 21
0.07269008147
 31
0.0
  0
LINE
  5
58
  8
0
 10
1.0120645694999997
 20
0.07269008147
 30
0.0
 11
0.9049551974999996
 21
0.08368187477
 31
0.0
  0
LINE
  5
59
  8
0
 10
0.9049551974999996
 20
0.08368187477
 30
0.0
 11
0.7115645795000001
 21
0.10588968457
 31
0.0
  0
LINE
  5
5A
  8
0
 10
0.7115645795000001
 20
0.10588968457
 30
0.0
 11
0.5861944655000002
 21
0.11694799017000002
 31
0.0
  0
LINE
  5
5B
  8
0
 10
0.5861944655000002
 20
0.11694799017000002
 30
0.0
 11
0.3597223344999998
 21
0.13904288097
 31
0.0
  0
LINE
  5
5C
  8
0
 10
0.3597223344999998
 20
0.13904288097
 30
0.0
 11
0.22355781649999962
 21
0.14844892477000002
 31
0.0
  0
LINE
  5
5D
  8
0
 10
0.22355781649999962
 20
0.14844892477000002
 30
0.0
 11
-0.022527242499999822
 21
0.16693168637
 31
0.0
  0
LINE
  5
5E
  8
0
 10
-0.022527242499999822
 20
0.16693168637
 30
0.0
 11
-0.2690637355000005
 21
0.17818119546
 31
0.0
  0
LINE
  5
5F
  8
0
 10
-0.2690637355000005
 20
0.17818119546
 30
0.0
 11
-0.4054304205000001
 21
0.18409625245
 31
0.0
  0
LINE
  5
60
  8
0
 10
-0.4054304205000001
 20
0.18409625245
 30
0.0
 11
-0.6330000775000002
 21
0.18492548129000003
 31
0.0
  0
LINE
  5
61
  8
0
 10
-0.6330000775000002
 20
0.18492548129000003
 30
0.0
 11
-0.7588631455000003
 21
0.18585366313
 31
0.0
  0
LINE
  5
62
  8
0
 10
-0.7588631455000003
 20
0.18585366313
 30
0.0
 11
-0.9532815975000002
 21
0.17628257354
 31
0.0
  0
LINE
  5
63
  8
0
 10
-0.9532815975000002
 20
0.17628257354
 30
0.0
 11
-1.0608692765
 21
0.17212122407000002
 31
0.0
  0
LINE
  5
64
  8
0
 10
-1.0608692765
 20
0.17212122407000002
 30
0.0
 11
-1.2159580235000003
 21
0.15466132957
 31
0.0
  0
LINE
  5
65
  8
0
 10
-1.2159580235000003
 20
0.15466132957
 30
0.0
 11
-1.3019039715000003
 21
0.14645942477
 31
0.0
  0
LINE
  5
66
  8
0
 10
-1.3019039715000003
 20
0.14645942477
 30
0.0
 11
-1.4185176725000002
 21
0.12401290137000001
 31
0.0
  0
LINE
  5
67
  8
0
 10
-1.4185176725000002
 20
0.12401290137000001
 30
0.0
 11
-1.4833121285000002
 21
0.11310074227
 31
0.0
  0
LINE
  5
68
  8
0
 10
-1.4833121285000002
 20
0.11310074227
 30
0.0
 11
-1.5662309455
 21
0.08752558807000002
 31
0.0
  0
LINE
  5
69
  8
0
 10
-1.5662309455
 20
0.08752558807000002
 30
0.0
 11
-1.6125346515000003
 21
0.07477611157
 31
0.0
  0
LINE
  5
6A
  8
0
 10
-1.6125346515000003
 20
0.07477611157
 30
0.0
 11
-1.6665633555000001
 21
0.04565955537000002
 31
0.0
  0
LINE
  5
6B
  8
0
 10
-1.6665633555000001
 20
0.04565955537000002
 30
0.0
 11
-1.6971270325
 21
0.030774607270000004
 31
0.0
  0
LINE
  5
6C
  8
0
 10
-1.6971270325
 20
0.030774607270000004
 30
0.0
 11
-1.7180847145000002
 21
-0.0047122871299999924
 31
0.0
  0
LINE
  5
6D
  8
0
 10
0.2
 20
0.2
 30
0.0
 11
0.2
 21
-0.2
 31
0.0
  0
LINE
  5
6E
  8
0
 10
0.2
 20
-0.2
 30
0.0
 11
-0.2
 21
-0.2
 31
0.0
  0
LINE
  5
6F
  8
0
 10
-0.2
 20
-0.2
 30
0.0
 11
-0.2
 21
0.2
 31
0.0
  0
LINE
  5
70
  8
0
 10
-0.2
 20
0.2
 30
0.0
 11
0.2
 21
0.2
 31
0.0
  0
ENDSEC
  0
EOF
