  0
SECTION
  2
HEADER
  9
$ACADVER
  1
AC1009
  9
$DWGCODEPAGE
  3
ANSI_1252
  9
$INSBASE
 10
0.0
 20
0.0
 30
0.0
  9
$EXTMIN
 10
-100
 20
-100
 30
-100
  9
$EXTMAX
 10
100
 20
100
 30
100
  9
$LIMMIN
 10
0.0
 20
0.0
  9
$LIMMAX
 10
420.0
 20
297.0
  9
$ORTHOMODE
 70
0
  9
$REGENMODE
 70
1
  9
$DRAGMODE
 70
2
  9
$FILLMODE
 70
1
  9
$QTEXTMODE
 70
0
  9
$MIRRTEXT
 70
1
  9
$OSMODE
 70
20583
  9
$LTSCALE
 40
1.0
  9
$ATTMODE
 70
1
  9
$TEXTSIZE
 40
2.5
  9
$TRACEWID
 40
1.0
  9
$TEXTSTYLE
  7
Standard
  9
$CLAYER
  8
0
  9
$CELTYPE
  6
ByLayer
  9
$CECOLOR
 62
256
  9
$DIMSCALE
 40
1.0
  9
$DIMASZ
 40
2.5
  9
$DIMEXO
 40
0.625
  9
$DIMDLI
 40
3.75
  9
$DIMRND
 40
0.0
  9
$DIMDLE
 40
0.0
  9
$DIMEXE
 40
1.25
  9
$DIMTP
 40
0.0
  9
$DIMTM
 40
0.0
  9
$DIMTXT
 40
2.5
  9
$DIMCEN
 40
2.5
  9
$DIMTSZ
 40
0.0
  9
$DIMTOL
 70
0
  9
$DIMLIM
 70
0
  9
$DIMTIH
 70
0
  9
$DIMTOH
 70
0
  9
$DIMSE1
 70
0
  9
$DIMSE2
 70
0
  9
$DIMTAD
 70
1
  9
$DIMZIN
 70
8
  9
$DIMBLK
  1

  9
$DIMASO
 70
1
  9
$DIMSHO
 70
1
  9
$DIMPOST
  1

  9
$DIMAPOST
  1

  9
$DIMALT
 70
0
  9
$DIMALTD
 70
3
  9
$DIMALTF
 40
0.03937007874
  9
$DIMLFAC
 40
1.0
  9
$DIMTOFL
 70
1
  9
$DIMTVP
 40
0.0
  9
$DIMTIX
 70
0
  9
$DIMSOXD
 70
0
  9
$DIMSAH
 70
0
  9
$DIMBLK1
  1

  9
$DIMBLK2
  1

  9
$DIMSTYLE
  2
ISO-25
  9
$DIMCLRD
 70
0
  9
$DIMCLRE
 70
0
  9
$DIMCLRT
 70
0
  9
$DIMTFAC
 40
1.0
  9
$DIMGAP
 40
0.625
  9
$COORDS
 70
1
  9
$ATTDIA
 70
0
  9
$ATTREQ
 70
1
  9
$HANDLING
 70
1
  9
$LUNITS
 70
2
  9
$LUPREC
 70
4
  9
$SKETCHINC
 40
1.0
  9
$FILLETRAD
 40
10.0
  9
$AUNITS
 70
0
  9
$AUPREC
 70
2
  9
$MENU
  1
.
  9
$ELEVATION
 40
0.0
  9
$PELEVATION
 40
0.0
  9
$THICKNESS
 40
0.0
  9
$LIMCHECK
 70
0
  9
$CHAMFERA
 40
0.0
  9
$CHAMFERB
 40
0.0
  9
$SKPOLY
 70
0
  9
$TDCREATE
 40
2459751.945671296
  9
$TDUPDATE
 40
2459751.945671296
  9
$TDINDWG
 40
0.0
  9
$TDUSRTIMER
 40
0.0
  9
$USRTIMER
 70
1
  9
$ANGBASE
 50
0.0
  9
$ANGDIR
 70
0
  9
$PDMODE
 70
0
  9
$PDSIZE
 40
0.0
  9
$PLINEWID
 40
0.0
  9
$SPLFRAME
 70
0
  9
$SPLINETYPE
 70
6
  9
$SPLINESEGS
 70
8
  9
$HANDSEED
  5
72
  9
$SURFTAB1
 70
6
  9
$SURFTAB2
 70
6
  9
$SURFTYPE
 70
6
  9
$SURFU
 70
6
  9
$SURFV
 70
6
  9
$UCSNAME
  2

  9
$UCSORG
 10
0.0
 20
0.0
 30
0.0
  9
$UCSXDIR
 10
1.0
 20
0.0
 30
0.0
  9
$UCSYDIR
 10
0.0
 20
1.0
 30
0.0
  9
$PUCSNAME
  2

  9
$PUCSORG
 10
0.0
 20
0.0
 30
0.0
  9
$PUCSXDIR
 10
1.0
 20
0.0
 30
0.0
  9
$PUCSYDIR
 10
0.0
 20
1.0
 30
0.0
  9
$USERI1
 70
0
  9
$USERI2
 70
0
  9
$USERI3
 70
0
  9
$USERI4
 70
0
  9
$USERI5
 70
0
  9
$USERR1
 40
0.0
  9
$USERR2
 40
0.0
  9
$USERR3
 40
0.0
  9
$USERR4
 40
0.0
  9
$USERR5
 40
0.0
  9
$WORLDVIEW
 70
1
  9
$SHADEDGE
 70
3
  9
$SHADEDIF
 70
70
  9
$TILEMODE
 70
1
  9
$MAXACTVP
 70
64
  9
$PLIMCHECK
 70
0
  9
$PEXTMIN
 10
1e+20
 20
1e+20
 30
1e+20
  9
$PEXTMAX
 10
-1e+20
 20
-1e+20
 30
-1e+20
  9
$PLIMMIN
 10
0.0
 20
0.0
  9
$PLIMMAX
 10
420.0
 20
297.0
  9
$UNITMODE
 70
0
  9
$VISRETAIN
 70
1
  9
$PLINEGEN
 70
0
  9
$PSLTSCALE
 70
1
  0
ENDSEC
  0
SECTION
  2
TABLES
  0
TABLE
  2
VPORT
 70
1
  0
VPORT
  5
23
  2
*Active
 70
0
 10
0.0
 20
0.0
 11
1.0
 21
1.0
 12
70.0
 22
50.0
 13
0.0
 23
0.0
 14
0.5
 24
0.5
 15
0.5
 25
0.5
 16
0.0
 26
0.0
 36
1.0
 17
0.0
 27
0.0
 37
0.0
 40
1.0
 41
1.34
 42
50.0
 43
0.0
 44
0.0
 50
0.0
 51
0.0
 71
0
 72
1000
 73
1
 74
3
 75
0
 76
0
 77
0
 78
0
  0
ENDTAB
  0
TABLE
  2
LTYPE
 70
3
  0
LTYPE
  5
24
  2
ByBlock
 70
0
  3

 72
65
 73
0
 40
0.0
  0
LTYPE
  5
25
  2
ByLayer
 70
0
  3

 72
65
 73
0
 40
0.0
  0
LTYPE
  5
26
  2
Continuous
 70
0
  3

 72
65
 73
0
 40
0.0
  0
ENDTAB
  0
TABLE
  2
LAYER
 70
2
  0
LAYER
  5
27
  2
0
 70
0
 62
7
  6
Continuous
  0
LAYER
  5
28
  2
Defpoints
 70
0
 62
7
  6
Continuous
  0
ENDTAB
  0
TABLE
  2
STYLE
 70
1
  0
STYLE
  5
29
  2
Standard
 70
0
 40
0.0
 41
1.0
 50
0.0
 71
0
 42
2.5
  3
txt
  4

  0
ENDTAB
  0
TABLE
  2
VIEW
 70
0
  0
ENDTAB
  0
TABLE
  2
UCS
 70
0
  0
ENDTAB
  0
TABLE
  2
APPID
 70
2
  0
APPID
  5
2A
  2
ACAD
 70
0
  0
APPID
  5
71
  2
HATCHBACKGROUNDCOLOR
 70
0
  0
ENDTAB
  0
TABLE
  2
DIMSTYLE
 70
1
  0
DIMSTYLE
105
2B
  2
Standard
 70
0
  3

  4

  5

  6

  7

 40
1.0
 41
2.5
 42
0.625
 43
3.75
 44
1.25
 45
0.0
 46
0.0
 47
0.0
 48
0.0
140
2.5
141
2.5
142
0.0
143
0.03937007874
144
1.0
145
0.0
146
1.0
147
0.625
 71
0
 72
0
 73
0
 74
0
 75
0
 76
0
 77
1
 78
8
170
0
171
3
172
1
173
0
174
0
175
0
176
0
177
0
178
0
  0
ENDTAB
  0
ENDSEC
  0
SECTION
  2
BLOCKS
  0
BLOCK
  5
18
  8
0
  2
$Model_Space
 70
0
 10
0.0
 20
0.0
 30
0.0
  3
$Model_Space
  1

  0
ENDBLK
  5
19
  8
0
  0
BLOCK
  5
1C
  8
0
  2
$Paper_Space
 70
0
 10
0.0
 20
0.0
 30
0.0
  3
$Paper_Space
  1

  0
ENDBLK
  5
1D
  8
0
  0
ENDSEC
  0
SECTION
  2
ENTITIES
  0
LINE
  5
2D
  8
0
 10
-1.7413614800000001
 20
-0.018256607044999984
 30
0.0
 11
-1.746926122
 21
-0.026724041144999988
 31
0.0
  0
LINE
  5
2E
  8
0
 10
-1.746926122
 20
-0.026724041144999988
 30
0.0
 11
-1.7409702280000001
 21
-0.034935559645
 31
0.0
  0
LINE
  5
2F
  8
0
 10
-1.7409702280000001
 20
-0.034935559645
 30
0.0
 11
-1.7092441630000001
 21
-0.07925335844499998
 31
0.0
  0
LINE
  5
30
  8
0
 10
-1.7092441630000001
 20
-0.07925335844499998
 30
0.0
 11
-1.6953812470000003
 21
-0.085277533545
 31
0.0
  0
LINE
  5
31
  8
0
 10
-1.6953812470000003
 20
-0.085277533545
 30
0.0
 11
-1.621132324
 21
-0.11770054014499998
 31
0.0
  0
LINE
  5
32
  8
0
 10
-1.621132324
 20
-0.11770054014499998
 30
0.0
 11
-1.6003655430000001
 21
-0.122530989945
 31
0.0
  0
LINE
  5
33
  8
0
 10
-1.6003655430000001
 20
-0.122530989945
 30
0.0
 11
-1.4888795680000002
 21
-0.147770277645
 31
0.0
  0
LINE
  5
34
  8
0
 10
-1.4888795680000002
 20
-0.147770277645
 30
0.0
 11
-1.459985456
 21
-0.151593594145
 31
0.0
  0
LINE
  5
35
  8
0
 10
-1.459985456
 20
-0.151593594145
 30
0.0
 11
-1.3049042000000002
 21
-0.170748106645
 31
0.0
  0
LINE
  5
36
  8
0
 10
-1.3049042000000002
 20
-0.170748106645
 30
0.0
 11
-1.26671166
 21
-0.17329756954499997
 31
0.0
  0
LINE
  5
37
  8
0
 10
-1.26671166
 20
-0.17329756954499997
 30
0.0
 11
-1.061835929
 21
-0.185153182345
 31
0.0
  0
LINE
  5
38
  8
0
 10
-1.061835929
 20
-0.185153182345
 30
0.0
 11
-1.01412347
 21
-0.186063879245
 31
0.0
  0
LINE
  5
39
  8
0
 10
-1.01412347
 20
-0.186063879245
 30
0.0
 11
-0.7582870239999999
 21
-0.18910224804499998
 31
0.0
  0
LINE
  5
3A
  8
0
 10
-0.7582870239999999
 20
-0.18910224804499998
 30
0.0
 11
-0.7025139250000003
 21
-0.188210504645
 31
0.0
  0
LINE
  5
3B
  8
0
 10
-0.7025139250000003
 20
-0.188210504645
 30
0.0
 11
-0.40350364200000044
 21
-0.182209547845
 31
0.0
  0
LINE
  5
3C
  8
0
 10
-0.40350364200000044
 20
-0.182209547845
 30
0.0
 11
-0.3430667559999998
 21
-0.179677661145
 31
0.0
  0
LINE
  5
3D
  8
0
 10
-0.3430667559999998
 20
-0.179677661145
 30
0.0
 11
-0.019039696000000106
 21
-0.16580524344499997
 31
0.0
  0
LINE
  5
3E
  8
0
 10
-0.019039696000000106
 20
-0.16580524344499997
 30
0.0
 11
0.30469186699999984
 21
-0.14615775724500002
 31
0.0
  0
LINE
  5
3F
  8
0
 10
0.30469186699999984
 20
-0.14615775724500002
 30
0.0
 11
0.36506831400000017
 21
-0.142443931245
 31
0.0
  0
LINE
  5
40
  8
0
 10
0.36506831400000017
 20
-0.142443931245
 30
0.0
 11
0.6633780959999998
 21
-0.120916431045
 31
0.0
  0
LINE
  5
41
  8
0
 10
0.6633780959999998
 20
-0.120916431045
 30
0.0
 11
0.719005363
 21
-0.116750920245
 31
0.0
  0
LINE
  5
42
  8
0
 10
0.719005363
 20
-0.116750920245
 30
0.0
 11
0.9740888510000003
 21
-0.09644312934499999
 31
0.0
  0
LINE
  5
43
  8
0
 10
0.9740888510000003
 20
-0.09644312934499999
 30
0.0
 11
1.0216478640000002
 21
-0.09244091664499998
 31
0.0
  0
LINE
  5
44
  8
0
 10
1.0216478640000002
 20
-0.09244091664499998
 30
0.0
 11
1.2261782939999994
 21
-0.075088059845
 31
0.0
  0
LINE
  5
45
  8
0
 10
1.2261782939999994
 20
-0.075088059845
 30
0.0
 11
1.2643061920000003
 21
-0.071620631845
 31
0.0
  0
LINE
  5
46
  8
0
 10
1.2643061920000003
 20
-0.071620631845
 30
0.0
 11
1.4200011029999997
 21
-0.057798066245
 31
0.0
  0
LINE
  5
47
  8
0
 10
1.4200011029999997
 20
-0.057798066245
 30
0.0
 11
1.4490215079999995
 21
-0.05500871004500002
 31
0.0
  0
LINE
  5
48
  8
0
 10
1.4490215079999995
 20
-0.05500871004500002
 30
0.0
 11
1.5629168389999997
 21
-0.044544967945000014
 31
0.0
  0
LINE
  5
49
  8
0
 10
1.5629168389999997
 20
-0.044544967945000014
 30
0.0
 11
1.5841439079999997
 21
-0.04241939214500001
 31
0.0
  0
LINE
  5
4A
  8
0
 10
1.5841439079999997
 20
-0.04241939214500001
 30
0.0
 11
1.6650587219999995
 21
-0.03479215014499998
 31
0.0
  0
LINE
  5
4B
  8
0
 10
1.6650587219999995
 20
-0.03479215014499998
 30
0.0
 11
1.6801379030000003
 21
-0.03323608014500001
 31
0.0
  0
LINE
  5
4C
  8
0
 10
1.6801379030000003
 20
-0.03323608014500001
 30
0.0
 11
1.736435233
 21
-0.027830051244999987
 31
0.0
  0
LINE
  5
4D
  8
0
 10
1.736435233
 20
-0.027830051244999987
 30
0.0
 11
1.7469261219999996
 21
-0.026724041144999988
 31
0.0
  0
LINE
  5
4E
  8
0
 10
1.7469261219999996
 20
-0.026724041144999988
 30
0.0
 11
1.7364449959999995
 21
-0.025285365444999985
 31
0.0
  0
LINE
  5
4F
  8
0
 10
1.7364449959999995
 20
-0.025285365444999985
 30
0.0
 11
1.6802476249999998
 21
-0.016473458544999986
 31
0.0
  0
LINE
  5
50
  8
0
 10
1.6802476249999998
 20
-0.016473458544999986
 30
0.0
 11
1.665178353
 21
-0.014458311645
 31
0.0
  0
LINE
  5
51
  8
0
 10
1.665178353
 20
-0.014458311645
 30
0.0
 11
1.5843649910000002
 21
-0.0021309741450000197
 31
0.0
  0
LINE
  5
52
  8
0
 10
1.5843649910000002
 20
-0.0021309741450000197
 30
0.0
 11
1.5631440000000003
 21
0.0006027349550000172
 31
0.0
  0
LINE
  5
53
  8
0
 10
1.5631440000000003
 20
0.0006027349550000172
 30
0.0
 11
1.4493109009999996
 21
0.017292634054999978
 31
0.0
  0
LINE
  5
54
  8
0
 10
1.4493109009999996
 20
0.017292634054999978
 30
0.0
 11
1.420284894
 21
0.020841352955000003
 31
0.0
  0
LINE
  5
55
  8
0
 10
1.420284894
 20
0.020841352955000003
 30
0.0
 11
1.2645326260000003
 21
0.04243838225499999
 31
0.0
  0
LINE
  5
56
  8
0
 10
1.2645326260000003
 20
0.04243838225499999
 30
0.0
 11
1.2263749600000002
 21
0.04677707255499999
 31
0.0
  0
LINE
  5
57
  8
0
 10
1.2263749600000002
 20
0.04677707255499999
 30
0.0
 11
1.0215397629999998
 21
0.073050037855
 31
0.0
  0
LINE
  5
58
  8
0
 10
1.0215397629999998
 20
0.073050037855
 30
0.0
 11
0.9739113110000002
 21
0.077937771755
 31
0.0
  0
LINE
  5
59
  8
0
 10
0.9739113110000002
 20
0.077937771755
 30
0.0
 11
0.7181168949999996
 21
0.10731165645499999
 31
0.0
  0
LINE
  5
5A
  8
0
 10
0.7181168949999996
 20
0.10731165645499999
 30
0.0
 11
0.6623684169999997
 21
0.11222896635499999
 31
0.0
  0
LINE
  5
5B
  8
0
 10
0.6623684169999997
 20
0.11222896635499999
 30
0.0
 11
0.362817658
 21
0.141453494955
 31
0.0
  0
LINE
  5
5C
  8
0
 10
0.362817658
 20
0.141453494955
 30
0.0
 11
0.30226921999999945
 21
0.145636091755
 31
0.0
  0
LINE
  5
5D
  8
0
 10
0.30226921999999945
 20
0.145636091755
 30
0.0
 11
-0.023223219000000128
 21
0.17008291985500001
 31
0.0
  0
LINE
  5
5E
  8
0
 10
-0.023223219000000128
 20
0.17008291985500001
 30
0.0
 11
-0.3493127600000001
 21
0.184962450265
 31
0.0
  0
LINE
  5
5F
  8
0
 10
-0.3493127600000001
 20
0.184962450265
 30
0.0
 11
-0.40995109700000043
 21
0.187592705715
 31
0.0
  0
LINE
  5
60
  8
0
 10
-0.40995109700000043
 20
0.187592705715
 30
0.0
 11
-0.7109535330000001
 21
0.188689512315
 31
0.0
  0
LINE
  5
61
  8
0
 10
-0.7109535330000001
 20
0.188689512315
 30
0.0
 11
-0.7669212139999999
 21
0.189102248045
 31
0.0
  0
LINE
  5
62
  8
0
 10
-0.7669212139999999
 20
0.189102248045
 30
0.0
 11
-1.024075126
 21
0.17644273389499998
 31
0.0
  0
LINE
  5
63
  8
0
 10
-1.024075126
 20
0.17644273389499998
 30
0.0
 11
-1.0719162680000003
 21
0.174592301685
 31
0.0
  0
LINE
  5
64
  8
0
 10
-1.0719162680000003
 20
0.174592301685
 30
0.0
 11
-1.277049462
 21
0.15149840205499998
 31
0.0
  0
LINE
  5
65
  8
0
 10
-1.277049462
 20
0.15149840205499998
 30
0.0
 11
-1.3152671490000003
 21
0.147851251355
 31
0.0
  0
LINE
  5
66
  8
0
 10
-1.3152671490000003
 20
0.147851251355
 30
0.0
 11
-1.469510069
 21
0.11816162425500001
 31
0.0
  0
LINE
  5
67
  8
0
 10
-1.469510069
 20
0.11816162425500001
 30
0.0
 11
-1.498322297
 21
0.11330930145500001
 31
0.0
  0
LINE
  5
68
  8
0
 10
-1.498322297
 20
0.11330930145500001
 30
0.0
 11
-1.607997577
 21
0.079481488755
 31
0.0
  0
LINE
  5
69
  8
0
 10
-1.607997577
 20
0.079481488755
 30
0.0
 11
-1.6285875010000002
 21
0.073812163855
 31
0.0
  0
LINE
  5
6A
  8
0
 10
-1.6285875010000002
 20
0.073812163855
 30
0.0
 11
-1.7000503300000003
 21
0.03530020015499999
 31
0.0
  0
LINE
  5
6B
  8
0
 10
-1.7000503300000003
 20
0.03530020015499999
 30
0.0
 11
-1.7136411170000003
 21
0.028681292554999988
 31
0.0
  0
LINE
  5
6C
  8
0
 10
-1.7136411170000003
 20
0.028681292554999988
 30
0.0
 11
-1.7413614800000001
 21
-0.018256607044999984
 31
0.0
  0
LINE
  5
6D
  8
0
 10
0.2
 20
0.2
 30
0.0
 11
0.2
 21
-0.2
 31
0.0
  0
LINE
  5
6E
  8
0
 10
0.2
 20
-0.2
 30
0.0
 11
-0.2
 21
-0.2
 31
0.0
  0
LINE
  5
6F
  8
0
 10
-0.2
 20
-0.2
 30
0.0
 11
-0.2
 21
0.2
 31
0.0
  0
LINE
  5
70
  8
0
 10
-0.2
 20
0.2
 30
0.0
 11
0.2
 21
0.2
 31
0.0
  0
ENDSEC
  0
EOF
