  0
SECTION
  2
HEADER
  9
$ACADVER
  1
AC1009
  9
$DWGCODEPAGE
  3
ANSI_1252
  9
$INSBASE
 10
0.0
 20
0.0
 30
0.0
  9
$EXTMIN
 10
-100
 20
-100
 30
-100
  9
$EXTMAX
 10
100
 20
100
 30
100
  9
$LIMMIN
 10
0.0
 20
0.0
  9
$LIMMAX
 10
420.0
 20
297.0
  9
$ORTHOMODE
 70
0
  9
$REGENMODE
 70
1
  9
$DRAGMODE
 70
2
  9
$FILLMODE
 70
1
  9
$QTEXTMODE
 70
0
  9
$MIRRTEXT
 70
1
  9
$OSMODE
 70
20583
  9
$LTSCALE
 40
1.0
  9
$ATTMODE
 70
1
  9
$TEXTSIZE
 40
2.5
  9
$TRACEWID
 40
1.0
  9
$TEXTSTYLE
  7
Standard
  9
$CLAYER
  8
0
  9
$CELTYPE
  6
ByLayer
  9
$CECOLOR
 62
256
  9
$DIMSCALE
 40
1.0
  9
$DIMASZ
 40
2.5
  9
$DIMEXO
 40
0.625
  9
$DIMDLI
 40
3.75
  9
$DIMRND
 40
0.0
  9
$DIMDLE
 40
0.0
  9
$DIMEXE
 40
1.25
  9
$DIMTP
 40
0.0
  9
$DIMTM
 40
0.0
  9
$DIMTXT
 40
2.5
  9
$DIMCEN
 40
2.5
  9
$DIMTSZ
 40
0.0
  9
$DIMTOL
 70
0
  9
$DIMLIM
 70
0
  9
$DIMTIH
 70
0
  9
$DIMTOH
 70
0
  9
$DIMSE1
 70
0
  9
$DIMSE2
 70
0
  9
$DIMTAD
 70
1
  9
$DIMZIN
 70
8
  9
$DIMBLK
  1

  9
$DIMASO
 70
1
  9
$DIMSHO
 70
1
  9
$DIMPOST
  1

  9
$DIMAPOST
  1

  9
$DIMALT
 70
0
  9
$DIMALTD
 70
3
  9
$DIMALTF
 40
0.03937007874
  9
$DIMLFAC
 40
1.0
  9
$DIMTOFL
 70
1
  9
$DIMTVP
 40
0.0
  9
$DIMTIX
 70
0
  9
$DIMSOXD
 70
0
  9
$DIMSAH
 70
0
  9
$DIMBLK1
  1

  9
$DIMBLK2
  1

  9
$DIMSTYLE
  2
ISO-25
  9
$DIMCLRD
 70
0
  9
$DIMCLRE
 70
0
  9
$DIMCLRT
 70
0
  9
$DIMTFAC
 40
1.0
  9
$DIMGAP
 40
0.625
  9
$COORDS
 70
1
  9
$ATTDIA
 70
0
  9
$ATTREQ
 70
1
  9
$HANDLING
 70
1
  9
$LUNITS
 70
2
  9
$LUPREC
 70
4
  9
$SKETCHINC
 40
1.0
  9
$FILLETRAD
 40
10.0
  9
$AUNITS
 70
0
  9
$AUPREC
 70
2
  9
$MENU
  1
.
  9
$ELEVATION
 40
0.0
  9
$PELEVATION
 40
0.0
  9
$THICKNESS
 40
0.0
  9
$LIMCHECK
 70
0
  9
$CHAMFERA
 40
0.0
  9
$CHAMFERB
 40
0.0
  9
$SKPOLY
 70
0
  9
$TDCREATE
 40
2459746.820277778
  9
$TDUPDATE
 40
2459746.820277778
  9
$TDINDWG
 40
0.0
  9
$TDUSRTIMER
 40
0.0
  9
$USRTIMER
 70
1
  9
$ANGBASE
 50
0.0
  9
$ANGDIR
 70
0
  9
$PDMODE
 70
0
  9
$PDSIZE
 40
0.0
  9
$PLINEWID
 40
0.0
  9
$SPLFRAME
 70
0
  9
$SPLINETYPE
 70
6
  9
$SPLINESEGS
 70
8
  9
$HANDSEED
  5
92
  9
$SURFTAB1
 70
6
  9
$SURFTAB2
 70
6
  9
$SURFTYPE
 70
6
  9
$SURFU
 70
6
  9
$SURFV
 70
6
  9
$UCSNAME
  2

  9
$UCSORG
 10
0.0
 20
0.0
 30
0.0
  9
$UCSXDIR
 10
1.0
 20
0.0
 30
0.0
  9
$UCSYDIR
 10
0.0
 20
1.0
 30
0.0
  9
$PUCSNAME
  2

  9
$PUCSORG
 10
0.0
 20
0.0
 30
0.0
  9
$PUCSXDIR
 10
1.0
 20
0.0
 30
0.0
  9
$PUCSYDIR
 10
0.0
 20
1.0
 30
0.0
  9
$USERI1
 70
0
  9
$USERI2
 70
0
  9
$USERI3
 70
0
  9
$USERI4
 70
0
  9
$USERI5
 70
0
  9
$USERR1
 40
0.0
  9
$USERR2
 40
0.0
  9
$USERR3
 40
0.0
  9
$USERR4
 40
0.0
  9
$USERR5
 40
0.0
  9
$WORLDVIEW
 70
1
  9
$SHADEDGE
 70
3
  9
$SHADEDIF
 70
70
  9
$TILEMODE
 70
1
  9
$MAXACTVP
 70
64
  9
$PLIMCHECK
 70
0
  9
$PEXTMIN
 10
1e+20
 20
1e+20
 30
1e+20
  9
$PEXTMAX
 10
-1e+20
 20
-1e+20
 30
-1e+20
  9
$PLIMMIN
 10
0.0
 20
0.0
  9
$PLIMMAX
 10
420.0
 20
297.0
  9
$UNITMODE
 70
0
  9
$VISRETAIN
 70
1
  9
$PLINEGEN
 70
0
  9
$PSLTSCALE
 70
1
  0
ENDSEC
  0
SECTION
  2
TABLES
  0
TABLE
  2
VPORT
 70
1
  0
VPORT
  5
23
  2
*Active
 70
0
 10
0.0
 20
0.0
 11
1.0
 21
1.0
 12
70.0
 22
50.0
 13
0.0
 23
0.0
 14
0.5
 24
0.5
 15
0.5
 25
0.5
 16
0.0
 26
0.0
 36
1.0
 17
0.0
 27
0.0
 37
0.0
 40
1.0
 41
1.34
 42
50.0
 43
0.0
 44
0.0
 50
0.0
 51
0.0
 71
0
 72
1000
 73
1
 74
3
 75
0
 76
0
 77
0
 78
0
  0
ENDTAB
  0
TABLE
  2
LTYPE
 70
3
  0
LTYPE
  5
24
  2
ByBlock
 70
0
  3

 72
65
 73
0
 40
0.0
  0
LTYPE
  5
25
  2
ByLayer
 70
0
  3

 72
65
 73
0
 40
0.0
  0
LTYPE
  5
26
  2
Continuous
 70
0
  3

 72
65
 73
0
 40
0.0
  0
ENDTAB
  0
TABLE
  2
LAYER
 70
2
  0
LAYER
  5
27
  2
0
 70
0
 62
7
  6
Continuous
  0
LAYER
  5
28
  2
Defpoints
 70
0
 62
7
  6
Continuous
  0
ENDTAB
  0
TABLE
  2
STYLE
 70
1
  0
STYLE
  5
29
  2
Standard
 70
0
 40
0.0
 41
1.0
 50
0.0
 71
0
 42
2.5
  3
txt
  4

  0
ENDTAB
  0
TABLE
  2
VIEW
 70
0
  0
ENDTAB
  0
TABLE
  2
UCS
 70
0
  0
ENDTAB
  0
TABLE
  2
APPID
 70
2
  0
APPID
  5
2A
  2
ACAD
 70
0
  0
APPID
  5
91
  2
HATCHBACKGROUNDCOLOR
 70
0
  0
ENDTAB
  0
TABLE
  2
DIMSTYLE
 70
1
  0
DIMSTYLE
105
2B
  2
Standard
 70
0
  3

  4

  5

  6

  7

 40
1.0
 41
2.5
 42
0.625
 43
3.75
 44
1.25
 45
0.0
 46
0.0
 47
0.0
 48
0.0
140
2.5
141
2.5
142
0.0
143
0.03937007874
144
1.0
145
0.0
146
1.0
147
0.625
 71
0
 72
0
 73
0
 74
0
 75
0
 76
0
 77
1
 78
8
170
0
171
3
172
1
173
0
174
0
175
0
176
0
177
0
178
0
  0
ENDTAB
  0
ENDSEC
  0
SECTION
  2
BLOCKS
  0
BLOCK
  5
18
  8
0
  2
$Model_Space
 70
0
 10
0.0
 20
0.0
 30
0.0
  3
$Model_Space
  1

  0
ENDBLK
  5
19
  8
0
  0
BLOCK
  5
1C
  8
0
  2
$Paper_Space
 70
0
 10
0.0
 20
0.0
 30
0.0
  3
$Paper_Space
  1

  0
ENDBLK
  5
1D
  8
0
  0
ENDSEC
  0
SECTION
  2
ENTITIES
  0
LINE
  5
2D
  8
0
 10
-0.55
 20
-0.03453927240000004
 30
-3.0788763342114662
 11
-0.5466319245
 21
-0.13493425646870005
 31
-2.89958404919598
  0
LINE
  5
2E
  8
0
 10
-0.5466319245
 20
-0.13493425646870005
 30
-2.89958404919598
 11
-0.5462694062
 21
-0.14694120695000004
 31
-2.8788220916750036
  0
LINE
  5
2F
  8
0
 10
-0.5462694062
 20
-0.14694120695000004
 30
-2.8788220916750036
 11
-0.5427813834
 21
-0.23768437070000004
 31
-2.7288459007418617
  0
LINE
  5
30
  8
0
 10
-0.5427813834
 20
-0.23768437070000004
 30
-2.7288459007418617
 11
-0.542378901
 21
-0.24856423200000005
 31
-2.7118701390200117
  0
LINE
  5
31
  8
0
 10
-0.542378901
 20
-0.24856423200000005
 30
-2.7118701390200117
 11
-0.5366814238
 21
-0.33012974100000003
 31
-2.5901211578966143
  0
LINE
  5
32
  8
0
 10
-0.5366814238
 20
-0.33012974100000003
 30
-2.5901211578966143
 11
-0.5360026801
 21
-0.33986422870000005
 31
-2.5764963187078718
  0
LINE
  5
33
  8
0
 10
-0.5360026801
 20
-0.33986422870000005
 30
-2.5764963187078718
 11
-0.5260026026
 21
-0.4126789094
 31
-2.476339499074025
  0
LINE
  5
34
  8
0
 10
-0.5260026026
 20
-0.4126789094
 30
-2.476339499074025
 11
-0.5248155514
 21
-0.42129913410000003
 31
-2.4651731321870645
  0
LINE
  5
35
  8
0
 10
-0.5248155514
 20
-0.42129913410000003
 30
-2.4651731321870645
 11
-0.5084172592
 21
-0.48575782050000005
 31
-2.3789827461476043
  0
LINE
  5
36
  8
0
 10
-0.5084172592
 20
-0.48575782050000005
 30
-2.3789827461476043
 11
-0.5064921542
 21
-0.4933288196
 31
-2.3693594211815574
  0
LINE
  5
37
  8
0
 10
-0.5064921542
 20
-0.4933288196
 30
-2.3693594211815574
 11
-0.4816075077
 21
-0.5498079739
 31
-2.2901674329000703
  0
LINE
  5
38
  8
0
 10
-0.4816075077
 20
-0.5498079739
 30
-2.2901674329000703
 11
-0.4787066649
 21
-0.5564145564
 31
-2.2812637457515996
  0
LINE
  5
39
  8
0
 10
-0.4787066649
 20
-0.5564145564
 30
-2.2812637457515996
 11
-0.4433412631
 21
-0.6051535608
 31
-2.203074315098493
  0
LINE
  5
3A
  8
0
 10
-0.4433412631
 20
-0.6051535608
 30
-2.203074315098493
 11
-0.4392115031
 21
-0.6108683832
 31
-2.1941573883210688
  0
LINE
  5
3B
  8
0
 10
-0.4392115031
 20
-0.6108683832
 30
-2.1941573883210688
 11
-0.3916783439
 21
-0.6515883434
 31
-2.112033942904219
  0
LINE
  5
3C
  8
0
 10
-0.3916783439
 20
-0.6515883434
 30
-2.112033942904219
 11
-0.3860733612
 21
-0.6564028919
 31
-2.1024683434334523
  0
LINE
  5
3D
  8
0
 10
-0.3860733612
 20
-0.6564028919
 30
-2.1024683434334523
 11
-0.3247673042
 21
-0.6887158049000001
 31
-2.0114300103291125
  0
LINE
  5
3E
  8
0
 10
-0.3247673042
 20
-0.6887158049000001
 30
-2.0114300103291125
 11
-0.3174377212
 21
-0.6925802236
 31
-2.00056471361686
  0
LINE
  5
3F
  8
0
 10
-0.3174377212
 20
-0.6925802236
 30
-2.00056471361686
 11
-0.2407491624
 21
-0.7161158470000001
 31
-1.8951133853972266
  0
LINE
  5
40
  8
0
 10
-0.2407491624
 20
-0.7161158470000001
 30
-1.8951133853972266
 11
-0.2314500898
 21
-0.7189625116
 31
-1.8822420688585104
  0
LINE
  5
41
  8
0
 10
-0.2314500898
 20
-0.7189625116
 30
-1.8822420688585104
 11
-0.1377450527
 21
-0.7333571032
 31
-1.756461190406641
  0
LINE
  5
42
  8
0
 10
-0.1377450527
 20
-0.7333571032
 30
-1.756461190406641
 11
-0.1262558154
 21
-0.7351123212
 31
-1.740887198581619
  0
LINE
  5
43
  8
0
 10
-0.1262558154
 20
-0.7351123212
 30
-1.740887198581619
 11
-0.01385045992
 21
-0.7399958939000001
 31
-1.5895110831761823
  0
LINE
  5
44
  8
0
 10
-0.01385045992
 20
-0.7399958939000001
 30
-1.5895110831761823
 11
1.110223025e-16
 21
-0.7405926679
 31
-1.5707963267948966
  0
LINE
  5
45
  8
0
 10
1.110223025e-16
 20
-0.7405926679
 30
-1.5707963267948966
 11
0.01385045992
 21
-0.7399958939000001
 31
-1.552081570413611
  0
LINE
  5
46
  8
0
 10
0.01385045992
 20
-0.7399958939000001
 30
-1.552081570413611
 11
0.1262558154
 21
-0.7351123212
 31
-1.4007054550081743
  0
LINE
  5
47
  8
0
 10
0.1262558154
 20
-0.7351123212
 30
-1.4007054550081743
 11
0.1377450527
 21
-0.7333571032
 31
-1.3851314631831522
  0
LINE
  5
48
  8
0
 10
0.1377450527
 20
-0.7333571032
 30
-1.3851314631831522
 11
0.2314500898
 21
-0.7189625116
 31
-1.2593505847312827
  0
LINE
  5
49
  8
0
 10
0.2314500898
 20
-0.7189625116
 30
-1.2593505847312827
 11
0.2407491624
 21
-0.7161158470000001
 31
-1.2464792681925667
  0
LINE
  5
4A
  8
0
 10
0.2407491624
 20
-0.7161158470000001
 30
-1.2464792681925667
 11
0.3174377212
 21
-0.6925802236
 31
-1.1410279399729333
  0
LINE
  5
4B
  8
0
 10
0.3174377212
 20
-0.6925802236
 30
-1.1410279399729333
 11
0.3247673042
 21
-0.6887158049000001
 31
-1.1301626432606808
  0
LINE
  5
4C
  8
0
 10
0.3247673042
 20
-0.6887158049000001
 30
-1.1301626432606808
 11
0.3860733612
 21
-0.6564028919
 31
-1.0391243101563408
  0
LINE
  5
4D
  8
0
 10
0.3860733612
 20
-0.6564028919
 30
-1.0391243101563408
 11
0.3916783439
 21
-0.6515883434
 31
-1.0295587106855744
  0
LINE
  5
4E
  8
0
 10
0.3916783439
 20
-0.6515883434
 30
-1.0295587106855744
 11
0.4392115031
 21
-0.6108683832
 31
-0.9474352652687246
  0
LINE
  5
4F
  8
0
 10
0.4392115031
 20
-0.6108683832
 30
-0.9474352652687246
 11
0.4433412631
 21
-0.6051535608
 31
-0.9385183384913003
  0
LINE
  5
50
  8
0
 10
0.4433412631
 20
-0.6051535608
 30
-0.9385183384913003
 11
0.4787066649
 21
-0.5564145564
 31
-0.8603289078381935
  0
LINE
  5
51
  8
0
 10
0.4787066649
 20
-0.5564145564
 30
-0.8603289078381935
 11
0.4816075077
 21
-0.5498079739
 31
-0.851425220689723
  0
LINE
  5
52
  8
0
 10
0.4816075077
 20
-0.5498079739
 30
-0.851425220689723
 11
0.5064921542
 21
-0.4933288196
 31
-0.7722332324082356
  0
LINE
  5
53
  8
0
 10
0.5064921542
 20
-0.4933288196
 30
-0.7722332324082356
 11
0.5084172592
 21
-0.48575782050000005
 31
-0.7626099074421888
  0
LINE
  5
54
  8
0
 10
0.5084172592
 20
-0.48575782050000005
 30
-0.7626099074421888
 11
0.5248155514
 21
-0.42129913410000003
 31
-0.676419521402729
  0
LINE
  5
55
  8
0
 10
0.5248155514
 20
-0.42129913410000003
 30
-0.676419521402729
 11
0.5260026026
 21
-0.4126789094
 31
-0.665253154515768
  0
LINE
  5
56
  8
0
 10
0.5260026026
 20
-0.4126789094
 30
-0.665253154515768
 11
0.5360026801
 21
-0.33986422870000005
 31
-0.5650963348819217
  0
LINE
  5
57
  8
0
 10
0.5360026801
 20
-0.33986422870000005
 30
-0.5650963348819217
 11
0.5366814238
 21
-0.33012974100000003
 31
-0.551471495693179
  0
LINE
  5
58
  8
0
 10
0.5366814238
 20
-0.33012974100000003
 30
-0.551471495693179
 11
0.542378901
 21
-0.24856423200000005
 31
-0.42972251456978156
  0
LINE
  5
59
  8
0
 10
0.542378901
 20
-0.24856423200000005
 30
-0.42972251456978156
 11
0.5427813834
 21
-0.23768437070000004
 31
-0.41274675284793155
  0
LINE
  5
5A
  8
0
 10
0.5427813834
 20
-0.23768437070000004
 30
-0.41274675284793155
 11
0.5462694062
 21
-0.14694120695000004
 31
-0.2627705619147896
  0
LINE
  5
5B
  8
0
 10
0.5462694062
 20
-0.14694120695000004
 30
-0.2627705619147896
 11
0.5466319245
 21
-0.13493425646870005
 31
-0.24200860439381308
  0
LINE
  5
5C
  8
0
 10
0.5466319245
 20
-0.13493425646870005
 30
-0.24200860439381308
 11
0.55
 21
-0.03453927240000004
 31
-0.06271631937832718
  0
LINE
  5
5D
  8
0
 10
0.55
 20
-0.03453927240000004
 30
-0.06271631937832718
 11
0.5569915222
 21
0.11135620059999995
 31
0.19732287463228232
  0
LINE
  5
5E
  8
0
 10
0.5569915222
 20
0.11135620059999995
 30
0.19732287463228232
 11
0.5577573967
 21
0.12825633619999993
 31
0.22602093845879054
  0
LINE
  5
5F
  8
0
 10
0.5577573967
 20
0.12825633619999993
 30
0.22602093845879054
 11
0.5681727889
 21
0.25202800259999997
 31
0.41749917884140314
  0
LINE
  5
60
  8
0
 10
0.5681727889
 20
0.25202800259999997
 30
0.41749917884140314
 11
0.5693102538
 21
0.265780853
 31
0.4367753329520836
  0
LINE
  5
61
  8
0
 10
0.5693102538
 20
0.265780853
 30
0.4367753329520836
 11
0.5793087998
 21
0.3695528779999999
 31
0.5678364571457093
  0
LINE
  5
62
  8
0
 10
0.5793087998
 20
0.3695528779999999
 30
0.5678364571457093
 11
0.5803571253
 21
0.38038190679999995
 31
0.5801810926667473
  0
LINE
  5
63
  8
0
 10
0.5803571253
 20
0.38038190679999995
 30
0.5801810926667473
 11
0.5860275883
 21
0.4662199456999999
 31
0.6720275856691734
  0
LINE
  5
64
  8
0
 10
0.5860275883
 20
0.4662199456999999
 30
0.6720275856691734
 11
0.5865948059
 21
0.474410455
 31
0.68005554609343
  0
LINE
  5
65
  8
0
 10
0.5865948059
 20
0.474410455
 30
0.68005554609343
 11
0.5839065432
 21
0.5443325779
 31
0.7503366706428796
  0
LINE
  5
66
  8
0
 10
0.5839065432
 20
0.5443325779
 30
0.7503366706428796
 11
0.5837184293
 21
0.5502209378999999
 31
0.7558659383971373
  0
LINE
  5
67
  8
0
 10
0.5837184293
 20
0.5502209378999999
 30
0.7558659383971373
 11
0.5684651759
 21
0.606212526
 31
0.8175213281976487
  0
LINE
  5
68
  8
0
 10
0.5684651759
 20
0.606212526
 30
0.8175213281976487
 11
0.5674216586
 21
0.6101713102999999
 31
0.8216847989966953
  0
LINE
  5
69
  8
0
 10
0.5674216586
 20
0.6101713102999999
 30
0.8216847989966953
 11
0.5353997579
 21
0.6540685608
 31
0.8848353825923331
  0
LINE
  5
6A
  8
0
 10
0.5353997579
 20
0.6540685608
 30
0.8848353825923331
 11
0.5336415442
 21
0.6564932032999999
 31
0.8882588549352757
  0
LINE
  5
6B
  8
0
 10
0.5336415442
 20
0.6564932032999999
 30
0.8882588549352757
 11
0.4813870783
 21
0.6895944989999999
 31
0.9613650389920434
  0
LINE
  5
6C
  8
0
 10
0.4813870783
 20
0.6895944989999999
 30
0.9613650389920434
 11
0.4792980082
 21
0.6908981267
 31
0.9642896008955358
  0
LINE
  5
6D
  8
0
 10
0.4792980082
 20
0.6908981267
 30
0.9642896008955358
 11
0.4035224677
 21
0.7143737349
 31
1.056614514192458
  0
LINE
  5
6E
  8
0
 10
0.4035224677
 20
0.7143737349
 30
1.056614514192458
 11
0.4015699192
 21
0.7149572109
 31
1.0590376981551082
  0
LINE
  5
6F
  8
0
 10
0.4015699192
 20
0.7149572109
 30
1.0590376981551082
 11
0.2990736208
 21
0.7300310306
 31
1.1819795172478391
  0
LINE
  5
70
  8
0
 10
0.2990736208
 20
0.7300310306
 30
1.1819795172478391
 11
0.297648921
 21
0.7302284742999999
 31
1.1837462899618933
  0
LINE
  5
71
  8
0
 10
0.297648921
 20
0.7302284742999999
 30
1.1837462899618933
 11
0.1654971656
 21
0.7382167824
 31
1.3502577017038058
  0
LINE
  5
72
  8
0
 10
0.1654971656
 20
0.7382167824
 30
1.3502577017038058
 11
0.1647306508
 21
0.738259255
 31
1.3512587941576386
  0
LINE
  5
73
  8
0
 10
0.1647306508
 20
0.738259255
 30
1.3512587941576386
 11
0.000459917752
 21
0.7405868838999999
 31
1.5701753089199195
  0
LINE
  5
74
  8
0
 10
0.000459917752
 20
0.7405868838999999
 30
1.5701753089199195
 11
-1.110223025e-16
 21
0.7405926679
 31
1.5707963267948968
  0
LINE
  5
75
  8
0
 10
-1.110223025e-16
 20
0.7405926679
 30
1.5707963267948968
 11
-0.000459917752
 21
0.7405868838999999
 31
1.5714173446698738
  0
LINE
  5
76
  8
0
 10
-0.000459917752
 20
0.7405868838999999
 30
1.5714173446698738
 11
-0.1647306508
 21
0.738259255
 31
1.7903338594321547
  0
LINE
  5
77
  8
0
 10
-0.1647306508
 20
0.738259255
 30
1.7903338594321547
 11
-0.1654971656
 21
0.7382167824
 31
1.7913349518859876
  0
LINE
  5
78
  8
0
 10
-0.1654971656
 20
0.7382167824
 30
1.7913349518859876
 11
-0.297648921
 21
0.7302284742999999
 31
1.9578463636278998
  0
LINE
  5
79
  8
0
 10
-0.297648921
 20
0.7302284742999999
 30
1.9578463636278998
 11
-0.2990736208
 21
0.7300310306
 31
1.959613136341954
  0
LINE
  5
7A
  8
0
 10
-0.2990736208
 20
0.7300310306
 30
1.959613136341954
 11
-0.4015699192
 21
0.7149572109
 31
2.082554955434685
  0
LINE
  5
7B
  8
0
 10
-0.4015699192
 20
0.7149572109
 30
2.082554955434685
 11
-0.4035224677
 21
0.7143737349
 31
2.084978139397335
  0
LINE
  5
7C
  8
0
 10
-0.4035224677
 20
0.7143737349
 30
2.084978139397335
 11
-0.4792980082
 21
0.6908981267
 31
2.1773030526942576
  0
LINE
  5
7D
  8
0
 10
-0.4792980082
 20
0.6908981267
 30
2.1773030526942576
 11
-0.4813870783
 21
0.6895944989999999
 31
2.18022761459775
  0
LINE
  5
7E
  8
0
 10
-0.4813870783
 20
0.6895944989999999
 30
2.18022761459775
 11
-0.5336415442
 21
0.6564932032999999
 31
2.2533337986545177
  0
LINE
  5
7F
  8
0
 10
-0.5336415442
 20
0.6564932032999999
 30
2.2533337986545177
 11
-0.5353997579
 21
0.6540685608
 31
2.2567572709974604
  0
LINE
  5
80
  8
0
 10
-0.5353997579
 20
0.6540685608
 30
2.2567572709974604
 11
-0.5674216586
 21
0.6101713102999999
 31
2.319907854593098
  0
LINE
  5
81
  8
0
 10
-0.5674216586
 20
0.6101713102999999
 30
2.319907854593098
 11
-0.5684651759
 21
0.606212526
 31
2.324071325392145
  0
LINE
  5
82
  8
0
 10
-0.5684651759
 20
0.606212526
 30
2.324071325392145
 11
-0.5837184293
 21
0.5502209378999999
 31
2.385726715192656
  0
LINE
  5
83
  8
0
 10
-0.5837184293
 20
0.5502209378999999
 30
2.385726715192656
 11
-0.5839065432
 21
0.5443325779
 31
2.3912559829469138
  0
LINE
  5
84
  8
0
 10
-0.5839065432
 20
0.5443325779
 30
2.3912559829469138
 11
-0.5865948059
 21
0.474410455
 31
2.4615371074963632
  0
LINE
  5
85
  8
0
 10
-0.5865948059
 20
0.474410455
 30
2.4615371074963632
 11
-0.5860275883
 21
0.4662199456999999
 31
2.46956506792062
  0
LINE
  5
86
  8
0
 10
-0.5860275883
 20
0.4662199456999999
 30
2.46956506792062
 11
-0.5803571253
 21
0.38038190679999995
 31
2.561411560923046
  0
LINE
  5
87
  8
0
 10
-0.5803571253
 20
0.38038190679999995
 30
2.561411560923046
 11
-0.5793087998
 21
0.3695528779999999
 31
2.573756196444084
  0
LINE
  5
88
  8
0
 10
-0.5793087998
 20
0.3695528779999999
 30
2.573756196444084
 11
-0.5693102538
 21
0.265780853
 31
2.7048173206377095
  0
LINE
  5
89
  8
0
 10
-0.5693102538
 20
0.265780853
 30
2.7048173206377095
 11
-0.5681727889
 21
0.25202800259999997
 31
2.7240934747483903
  0
LINE
  5
8A
  8
0
 10
-0.5681727889
 20
0.25202800259999997
 30
2.7240934747483903
 11
-0.5577573967
 21
0.12825633619999993
 31
2.9155717151310028
  0
LINE
  5
8B
  8
0
 10
-0.5577573967
 20
0.12825633619999993
 30
2.9155717151310028
 11
-0.5569915222
 21
0.11135620059999995
 31
2.9442697789575107
  0
LINE
  5
8C
  8
0
 10
-0.5569915222
 20
0.11135620059999995
 30
2.9442697789575107
 11
-0.55
 21
-0.03453927240000004
 31
-3.0788763342114662
  0
LINE
  5
8D
  8
0
 10
0.2
 20
0.2
 30
0.0
 11
0.2
 21
-0.2
 31
0.0
  0
LINE
  5
8E
  8
0
 10
0.2
 20
-0.2
 30
0.0
 11
-0.2
 21
-0.2
 31
0.0
  0
LINE
  5
8F
  8
0
 10
-0.2
 20
-0.2
 30
0.0
 11
-0.2
 21
0.2
 31
0.0
  0
LINE
  5
90
  8
0
 10
-0.2
 20
0.2
 30
0.0
 11
0.2
 21
0.2
 31
0.0
  0
ENDSEC
  0
EOF
