  0
SECTION
  2
HEADER
  9
$ACADVER
  1
AC1009
  9
$DWGCODEPAGE
  3
ANSI_1252
  9
$INSBASE
 10
0.0
 20
0.0
 30
0.0
  9
$EXTMIN
 10
-100
 20
-100
 30
-100
  9
$EXTMAX
 10
100
 20
100
 30
100
  9
$LIMMIN
 10
0.0
 20
0.0
  9
$LIMMAX
 10
420.0
 20
297.0
  9
$ORTHOMODE
 70
0
  9
$REGENMODE
 70
1
  9
$DRAGMODE
 70
2
  9
$FILLMODE
 70
1
  9
$QTEXTMODE
 70
0
  9
$MIRRTEXT
 70
1
  9
$OSMODE
 70
20583
  9
$LTSCALE
 40
1.0
  9
$ATTMODE
 70
1
  9
$TEXTSIZE
 40
2.5
  9
$TRACEWID
 40
1.0
  9
$TEXTSTYLE
  7
Standard
  9
$CLAYER
  8
0
  9
$CELTYPE
  6
ByLayer
  9
$CECOLOR
 62
256
  9
$DIMSCALE
 40
1.0
  9
$DIMASZ
 40
2.5
  9
$DIMEXO
 40
0.625
  9
$DIMDLI
 40
3.75
  9
$DIMRND
 40
0.0
  9
$DIMDLE
 40
0.0
  9
$DIMEXE
 40
1.25
  9
$DIMTP
 40
0.0
  9
$DIMTM
 40
0.0
  9
$DIMTXT
 40
2.5
  9
$DIMCEN
 40
2.5
  9
$DIMTSZ
 40
0.0
  9
$DIMTOL
 70
0
  9
$DIMLIM
 70
0
  9
$DIMTIH
 70
0
  9
$DIMTOH
 70
0
  9
$DIMSE1
 70
0
  9
$DIMSE2
 70
0
  9
$DIMTAD
 70
1
  9
$DIMZIN
 70
8
  9
$DIMBLK
  1

  9
$DIMASO
 70
1
  9
$DIMSHO
 70
1
  9
$DIMPOST
  1

  9
$DIMAPOST
  1

  9
$DIMALT
 70
0
  9
$DIMALTD
 70
3
  9
$DIMALTF
 40
0.03937007874
  9
$DIMLFAC
 40
1.0
  9
$DIMTOFL
 70
1
  9
$DIMTVP
 40
0.0
  9
$DIMTIX
 70
0
  9
$DIMSOXD
 70
0
  9
$DIMSAH
 70
0
  9
$DIMBLK1
  1

  9
$DIMBLK2
  1

  9
$DIMSTYLE
  2
ISO-25
  9
$DIMCLRD
 70
0
  9
$DIMCLRE
 70
0
  9
$DIMCLRT
 70
0
  9
$DIMTFAC
 40
1.0
  9
$DIMGAP
 40
0.625
  9
$COORDS
 70
1
  9
$ATTDIA
 70
0
  9
$ATTREQ
 70
1
  9
$HANDLING
 70
1
  9
$LUNITS
 70
2
  9
$LUPREC
 70
4
  9
$SKETCHINC
 40
1.0
  9
$FILLETRAD
 40
10.0
  9
$AUNITS
 70
0
  9
$AUPREC
 70
2
  9
$MENU
  1
.
  9
$ELEVATION
 40
0.0
  9
$PELEVATION
 40
0.0
  9
$THICKNESS
 40
0.0
  9
$LIMCHECK
 70
0
  9
$CHAMFERA
 40
0.0
  9
$CHAMFERB
 40
0.0
  9
$SKPOLY
 70
0
  9
$TDCREATE
 40
2459751.945671296
  9
$TDUPDATE
 40
2459751.945671296
  9
$TDINDWG
 40
0.0
  9
$TDUSRTIMER
 40
0.0
  9
$USRTIMER
 70
1
  9
$ANGBASE
 50
0.0
  9
$ANGDIR
 70
0
  9
$PDMODE
 70
0
  9
$PDSIZE
 40
0.0
  9
$PLINEWID
 40
0.0
  9
$SPLFRAME
 70
0
  9
$SPLINETYPE
 70
6
  9
$SPLINESEGS
 70
8
  9
$HANDSEED
  5
72
  9
$SURFTAB1
 70
6
  9
$SURFTAB2
 70
6
  9
$SURFTYPE
 70
6
  9
$SURFU
 70
6
  9
$SURFV
 70
6
  9
$UCSNAME
  2

  9
$UCSORG
 10
0.0
 20
0.0
 30
0.0
  9
$UCSXDIR
 10
1.0
 20
0.0
 30
0.0
  9
$UCSYDIR
 10
0.0
 20
1.0
 30
0.0
  9
$PUCSNAME
  2

  9
$PUCSORG
 10
0.0
 20
0.0
 30
0.0
  9
$PUCSXDIR
 10
1.0
 20
0.0
 30
0.0
  9
$PUCSYDIR
 10
0.0
 20
1.0
 30
0.0
  9
$USERI1
 70
0
  9
$USERI2
 70
0
  9
$USERI3
 70
0
  9
$USERI4
 70
0
  9
$USERI5
 70
0
  9
$USERR1
 40
0.0
  9
$USERR2
 40
0.0
  9
$USERR3
 40
0.0
  9
$USERR4
 40
0.0
  9
$USERR5
 40
0.0
  9
$WORLDVIEW
 70
1
  9
$SHADEDGE
 70
3
  9
$SHADEDIF
 70
70
  9
$TILEMODE
 70
1
  9
$MAXACTVP
 70
64
  9
$PLIMCHECK
 70
0
  9
$PEXTMIN
 10
1e+20
 20
1e+20
 30
1e+20
  9
$PEXTMAX
 10
-1e+20
 20
-1e+20
 30
-1e+20
  9
$PLIMMIN
 10
0.0
 20
0.0
  9
$PLIMMAX
 10
420.0
 20
297.0
  9
$UNITMODE
 70
0
  9
$VISRETAIN
 70
1
  9
$PLINEGEN
 70
0
  9
$PSLTSCALE
 70
1
  0
ENDSEC
  0
SECTION
  2
TABLES
  0
TABLE
  2
VPORT
 70
1
  0
VPORT
  5
23
  2
*Active
 70
0
 10
0.0
 20
0.0
 11
1.0
 21
1.0
 12
70.0
 22
50.0
 13
0.0
 23
0.0
 14
0.5
 24
0.5
 15
0.5
 25
0.5
 16
0.0
 26
0.0
 36
1.0
 17
0.0
 27
0.0
 37
0.0
 40
1.0
 41
1.34
 42
50.0
 43
0.0
 44
0.0
 50
0.0
 51
0.0
 71
0
 72
1000
 73
1
 74
3
 75
0
 76
0
 77
0
 78
0
  0
ENDTAB
  0
TABLE
  2
LTYPE
 70
3
  0
LTYPE
  5
24
  2
ByBlock
 70
0
  3

 72
65
 73
0
 40
0.0
  0
LTYPE
  5
25
  2
ByLayer
 70
0
  3

 72
65
 73
0
 40
0.0
  0
LTYPE
  5
26
  2
Continuous
 70
0
  3

 72
65
 73
0
 40
0.0
  0
ENDTAB
  0
TABLE
  2
LAYER
 70
2
  0
LAYER
  5
27
  2
0
 70
0
 62
7
  6
Continuous
  0
LAYER
  5
28
  2
Defpoints
 70
0
 62
7
  6
Continuous
  0
ENDTAB
  0
TABLE
  2
STYLE
 70
1
  0
STYLE
  5
29
  2
Standard
 70
0
 40
0.0
 41
1.0
 50
0.0
 71
0
 42
2.5
  3
txt
  4

  0
ENDTAB
  0
TABLE
  2
VIEW
 70
0
  0
ENDTAB
  0
TABLE
  2
UCS
 70
0
  0
ENDTAB
  0
TABLE
  2
APPID
 70
2
  0
APPID
  5
2A
  2
ACAD
 70
0
  0
APPID
  5
71
  2
HATCHBACKGROUNDCOLOR
 70
0
  0
ENDTAB
  0
TABLE
  2
DIMSTYLE
 70
1
  0
DIMSTYLE
105
2B
  2
Standard
 70
0
  3

  4

  5

  6

  7

 40
1.0
 41
2.5
 42
0.625
 43
3.75
 44
1.25
 45
0.0
 46
0.0
 47
0.0
 48
0.0
140
2.5
141
2.5
142
0.0
143
0.03937007874
144
1.0
145
0.0
146
1.0
147
0.625
 71
0
 72
0
 73
0
 74
0
 75
0
 76
0
 77
1
 78
8
170
0
171
3
172
1
173
0
174
0
175
0
176
0
177
0
178
0
  0
ENDTAB
  0
ENDSEC
  0
SECTION
  2
BLOCKS
  0
BLOCK
  5
18
  8
0
  2
$Model_Space
 70
0
 10
0.0
 20
0.0
 30
0.0
  3
$Model_Space
  1

  0
ENDBLK
  5
19
  8
0
  0
BLOCK
  5
1C
  8
0
  2
$Paper_Space
 70
0
 10
0.0
 20
0.0
 30
0.0
  3
$Paper_Space
  1

  0
ENDBLK
  5
1D
  8
0
  0
ENDSEC
  0
SECTION
  2
ENTITIES
  0
LINE
  5
2D
  8
0
 10
-1.823825667
 20
-0.03355143730500004
 30
0.0
 11
-1.8285628569999997
 21
-0.04157275160500001
 31
0.0
  0
LINE
  5
2E
  8
0
 10
-1.8285628569999997
 20
-0.04157275160500001
 30
0.0
 11
-1.8231411249999998
 21
-0.04914631150500004
 31
0.0
  0
LINE
  5
2F
  8
0
 10
-1.8231411249999998
 20
-0.04914631150500004
 30
0.0
 11
-1.7893715009999998
 21
-0.09688620130500003
 31
0.0
  0
LINE
  5
30
  8
0
 10
-1.7893715009999998
 20
-0.09688620130500003
 30
0.0
 11
-1.7766829489999996
 21
-0.102427035705
 31
0.0
  0
LINE
  5
31
  8
0
 10
-1.7766829489999996
 20
-0.102427035705
 30
0.0
 11
-1.6972542429999997
 21
-0.13726655200500004
 31
0.0
  0
LINE
  5
32
  8
0
 10
-1.6972542429999997
 20
-0.13726655200500004
 30
0.0
 11
-1.6782021759999997
 21
-0.14157974580500005
 31
0.0
  0
LINE
  5
33
  8
0
 10
-1.6782021759999997
 20
-0.14157974580500005
 30
0.0
 11
-1.558683732
 21
-0.16796066660500003
 31
0.0
  0
LINE
  5
34
  8
0
 10
-1.558683732
 20
-0.16796066660500003
 30
0.0
 11
-1.5321815759999997
 21
-0.17123402060500004
 31
0.0
  0
LINE
  5
35
  8
0
 10
-1.5321815759999997
 20
-0.17123402060500004
 30
0.0
 11
-1.3659621089999998
 21
-0.19042944620500002
 31
0.0
  0
LINE
  5
36
  8
0
 10
-1.3659621089999998
 20
-0.19042944620500002
 30
0.0
 11
-1.3309504729999997
 21
-0.19245547620500003
 31
0.0
  0
LINE
  5
37
  8
0
 10
-1.3309504729999997
 20
-0.19245547620500003
 30
0.0
 11
-1.111469933
 21
-0.20337652490500002
 31
0.0
  0
LINE
  5
38
  8
0
 10
-1.111469933
 20
-0.20337652490500002
 30
0.0
 11
-1.0677495159999997
 21
-0.20389575800500004
 31
0.0
  0
LINE
  5
39
  8
0
 10
-1.0677495159999997
 20
-0.20389575800500004
 30
0.0
 11
-0.793779936
 21
-0.20534517270500002
 31
0.0
  0
LINE
  5
3A
  8
0
 10
-0.793779936
 20
-0.20534517270500002
 30
0.0
 11
-0.7426814529999999
 21
-0.20431965680500003
 31
0.0
  0
LINE
  5
3B
  8
0
 10
-0.7426814529999999
 20
-0.20431965680500003
 30
0.0
 11
-0.42252461200000013
 21
-0.19670076390500002
 31
0.0
  0
LINE
  5
3C
  8
0
 10
-0.42252461200000013
 20
-0.19670076390500002
 30
0.0
 11
-0.3671509610000001
 21
-0.194330077905
 31
0.0
  0
LINE
  5
3D
  8
0
 10
-0.3671509610000001
 20
-0.194330077905
 30
0.0
 11
-0.020195077999999533
 21
-0.17918460020500004
 31
0.0
  0
LINE
  5
3E
  8
0
 10
-0.020195077999999533
 20
-0.17918460020500004
 30
0.0
 11
0.32647231700000034
 21
-0.15840491820500002
 31
0.0
  0
LINE
  5
3F
  8
0
 10
0.32647231700000034
 20
-0.15840491820500002
 30
0.0
 11
0.38179547000000014
 21
-0.155047318905
 31
0.0
  0
LINE
  5
40
  8
0
 10
0.38179547000000014
 20
-0.155047318905
 30
0.0
 11
0.7012818300000001
 21
-0.13278440770500005
 31
0.0
  0
LINE
  5
41
  8
0
 10
0.7012818300000001
 20
-0.13278440770500005
 30
0.0
 11
0.7522606029999999
 21
-0.12910552890500004
 31
0.0
  0
LINE
  5
42
  8
0
 10
0.7522606029999999
 20
-0.12910552890500004
 30
0.0
 11
1.0254921540000002
 21
-0.10848531580500004
 31
0.0
  0
LINE
  5
43
  8
0
 10
1.0254921540000002
 20
-0.10848531580500004
 30
0.0
 11
1.0690838960000004
 21
-0.105014875605
 31
0.0
  0
LINE
  5
44
  8
0
 10
1.0690838960000004
 20
-0.105014875605
 30
0.0
 11
1.288195944
 21
-0.08764451030500003
 31
0.0
  0
LINE
  5
45
  8
0
 10
1.288195944
 20
-0.08764451030500003
 30
0.0
 11
1.3231485699999999
 21
-0.084679044905
 31
0.0
  0
LINE
  5
46
  8
0
 10
1.3231485699999999
 20
-0.084679044905
 30
0.0
 11
1.48996305
 21
-0.07098594750500004
 31
0.0
  0
LINE
  5
47
  8
0
 10
1.48996305
 20
-0.07098594750500004
 30
0.0
 11
1.5165700740000005
 21
-0.06862378080500003
 31
0.0
  0
LINE
  5
48
  8
0
 10
1.5165700740000005
 20
-0.06862378080500003
 30
0.0
 11
1.6386112060000002
 21
-0.05833157630500002
 31
0.0
  0
LINE
  5
49
  8
0
 10
1.6386112060000002
 20
-0.05833157630500002
 30
0.0
 11
1.6580750140000005
 21
-0.056543405805
 31
0.0
  0
LINE
  5
4A
  8
0
 10
1.6580750140000005
 20
-0.056543405805
 30
0.0
 11
1.7447831220000003
 21
-0.04907630140500002
 31
0.0
  0
LINE
  5
4B
  8
0
 10
1.7447831220000003
 20
-0.04907630140500002
 30
0.0
 11
1.7586108220000005
 21
-0.04777286630500005
 31
0.0
  0
LINE
  5
4C
  8
0
 10
1.7586108220000005
 20
-0.04777286630500005
 30
0.0
 11
1.8189420900000002
 21
-0.042496599005000024
 31
0.0
  0
LINE
  5
4D
  8
0
 10
1.8189420900000002
 20
-0.042496599005000024
 30
0.0
 11
1.8285628570000005
 21
-0.04157275160500001
 31
0.0
  0
LINE
  5
4E
  8
0
 10
1.8285628570000005
 20
-0.04157275160500001
 30
0.0
 11
1.8189591720000005
 21
-0.04006686670500004
 31
0.0
  0
LINE
  5
4F
  8
0
 10
1.8189591720000005
 20
-0.04006686670500004
 30
0.0
 11
1.7587815090000003
 21
-0.02955684190500002
 31
0.0
  0
LINE
  5
50
  8
0
 10
1.7587815090000003
 20
-0.02955684190500002
 30
0.0
 11
1.7449711470000002
 21
-0.02745019780500002
 31
0.0
  0
LINE
  5
51
  8
0
 10
1.7449711470000002
 20
-0.02745019780500002
 30
0.0
 11
1.6584189370000004
 21
-0.012760533005000019
 31
0.0
  0
LINE
  5
52
  8
0
 10
1.6584189370000004
 20
-0.012760533005000019
 30
0.0
 11
1.638965764
 21
-0.009908361705000035
 31
0.0
  0
LINE
  5
53
  8
0
 10
1.638965764
 20
-0.009908361705000035
 30
0.0
 11
1.517020262
 21
0.009951477294999983
 31
0.0
  0
LINE
  5
54
  8
0
 10
1.517020262
 20
0.009951477294999983
 30
0.0
 11
1.4904034370000003
 21
0.013642238094999981
 31
0.0
  0
LINE
  5
55
  8
0
 10
1.4904034370000003
 20
0.013642238094999981
 30
0.0
 11
1.3235008170000002
 21
0.03928222769499998
 31
0.0
  0
LINE
  5
56
  8
0
 10
1.3235008170000002
 20
0.03928222769499998
 30
0.0
 11
1.2884961090000004
 21
0.04377206879499998
 31
0.0
  0
LINE
  5
57
  8
0
 10
1.2884961090000004
 20
0.04377206879499998
 30
0.0
 11
1.0689157310000006
 21
0.07484982009499996
 31
0.0
  0
LINE
  5
58
  8
0
 10
1.0689157310000006
 20
0.07484982009499996
 30
0.0
 11
1.0252024960000004
 21
0.07986958369499997
 31
0.0
  0
LINE
  5
59
  8
0
 10
1.0252024960000004
 20
0.07986958369499997
 30
0.0
 11
0.7508784750000004
 21
0.11442151589499996
 31
0.0
  0
LINE
  5
5A
  8
0
 10
0.7508784750000004
 20
0.11442151589499996
 30
0.0
 11
0.6996876290000005
 21
0.11941575569499999
 31
0.0
  0
LINE
  5
5B
  8
0
 10
0.6996876290000005
 20
0.11941575569499999
 30
0.0
 11
0.37829427900000034
 21
0.15350656549499997
 31
0.0
  0
LINE
  5
5C
  8
0
 10
0.37829427900000034
 20
0.15350656549499997
 30
0.0
 11
0.3226702060000006
 21
0.15768433419499997
 31
0.0
  0
LINE
  5
5D
  8
0
 10
0.3226702060000006
 20
0.15768433419499997
 30
0.0
 11
-0.02670309699999951
 21
0.18583908707499996
 31
0.0
  0
LINE
  5
5E
  8
0
 10
-0.02670309699999951
 20
0.18583908707499996
 30
0.0
 11
-0.3768283609999994
 21
0.20253217855499997
 31
0.0
  0
LINE
  5
5F
  8
0
 10
-0.3768283609999994
 20
0.20253217855499997
 30
0.0
 11
-0.4325544739999998
 21
0.20507497214499998
 31
0.0
  0
LINE
  5
60
  8
0
 10
-0.4325544739999998
 20
0.20507497214499998
 30
0.0
 11
-0.7557726239999996
 21
0.20515773716499996
 31
0.0
  0
LINE
  5
61
  8
0
 10
-0.7557726239999996
 20
0.20515773716499996
 30
0.0
 11
-0.8072115499999999
 21
0.20534517270499997
 31
0.0
  0
LINE
  5
62
  8
0
 10
-0.8072115499999999
 20
0.20534517270499997
 30
0.0
 11
-1.08320566
 21
0.189111100155
 31
0.0
  0
LINE
  5
63
  8
0
 10
-1.08320566
 20
0.189111100155
 30
0.0
 11
-1.1271512209999996
 21
0.18694768971499998
 31
0.0
  0
LINE
  5
64
  8
0
 10
-1.1271512209999996
 20
0.18694768971499998
 30
0.0
 11
-1.3470274019999997
 21
0.15875694824499997
 31
0.0
  0
LINE
  5
65
  8
0
 10
-1.3470274019999997
 20
0.15875694824499997
 30
0.0
 11
-1.3820830359999996
 21
0.15481038419499998
 31
0.0
  0
LINE
  5
66
  8
0
 10
-1.3820830359999996
 20
0.15481038419499998
 30
0.0
 11
-1.5470142439999996
 21
0.11942581919499998
 31
0.0
  0
LINE
  5
67
  8
0
 10
-1.5470142439999996
 20
0.11942581919499998
 30
0.0
 11
-1.5733731339999997
 21
0.11435209769499999
 31
0.0
  0
LINE
  5
68
  8
0
 10
-1.5733731339999997
 20
0.11435209769499999
 30
0.0
 11
-1.6901091149999998
 21
0.07477332999499997
 31
0.0
  0
LINE
  5
69
  8
0
 10
-1.6901091149999998
 20
0.07477332999499997
 30
0.0
 11
-1.708851749
 21
0.06899242549499998
 31
0.0
  0
LINE
  5
6A
  8
0
 10
-1.708851749
 20
0.06899242549499998
 30
0.0
 11
-1.7839991099999999
 21
0.024796107694999986
 31
0.0
  0
LINE
  5
6B
  8
0
 10
-1.7839991099999999
 20
0.024796107694999986
 30
0.0
 11
-1.7962115399999998
 21
0.01821471889499998
 31
0.0
  0
LINE
  5
6C
  8
0
 10
-1.7962115399999998
 20
0.01821471889499998
 30
0.0
 11
-1.823825667
 21
-0.03355143730500004
 31
0.0
  0
LINE
  5
6D
  8
0
 10
0.2
 20
0.2
 30
0.0
 11
0.2
 21
-0.2
 31
0.0
  0
LINE
  5
6E
  8
0
 10
0.2
 20
-0.2
 30
0.0
 11
-0.2
 21
-0.2
 31
0.0
  0
LINE
  5
6F
  8
0
 10
-0.2
 20
-0.2
 30
0.0
 11
-0.2
 21
0.2
 31
0.0
  0
LINE
  5
70
  8
0
 10
-0.2
 20
0.2
 30
0.0
 11
0.2
 21
0.2
 31
0.0
  0
ENDSEC
  0
EOF
