  0
SECTION
  2
HEADER
  9
$ACADVER
  1
AC1009
  9
$DWGCODEPAGE
  3
ANSI_1252
  9
$INSBASE
 10
0.0
 20
0.0
 30
0.0
  9
$EXTMIN
 10
-100
 20
-100
 30
-100
  9
$EXTMAX
 10
100
 20
100
 30
100
  9
$LIMMIN
 10
0.0
 20
0.0
  9
$LIMMAX
 10
420.0
 20
297.0
  9
$ORTHOMODE
 70
0
  9
$REGENMODE
 70
1
  9
$DRAGMODE
 70
2
  9
$FILLMODE
 70
1
  9
$QTEXTMODE
 70
0
  9
$MIRRTEXT
 70
1
  9
$OSMODE
 70
20583
  9
$LTSCALE
 40
1.0
  9
$ATTMODE
 70
1
  9
$TEXTSIZE
 40
2.5
  9
$TRACEWID
 40
1.0
  9
$TEXTSTYLE
  7
Standard
  9
$CLAYER
  8
0
  9
$CELTYPE
  6
ByLayer
  9
$CECOLOR
 62
256
  9
$DIMSCALE
 40
1.0
  9
$DIMASZ
 40
2.5
  9
$DIMEXO
 40
0.625
  9
$DIMDLI
 40
3.75
  9
$DIMRND
 40
0.0
  9
$DIMDLE
 40
0.0
  9
$DIMEXE
 40
1.25
  9
$DIMTP
 40
0.0
  9
$DIMTM
 40
0.0
  9
$DIMTXT
 40
2.5
  9
$DIMCEN
 40
2.5
  9
$DIMTSZ
 40
0.0
  9
$DIMTOL
 70
0
  9
$DIMLIM
 70
0
  9
$DIMTIH
 70
0
  9
$DIMTOH
 70
0
  9
$DIMSE1
 70
0
  9
$DIMSE2
 70
0
  9
$DIMTAD
 70
1
  9
$DIMZIN
 70
8
  9
$DIMBLK
  1

  9
$DIMASO
 70
1
  9
$DIMSHO
 70
1
  9
$DIMPOST
  1

  9
$DIMAPOST
  1

  9
$DIMALT
 70
0
  9
$DIMALTD
 70
3
  9
$DIMALTF
 40
0.03937007874
  9
$DIMLFAC
 40
1.0
  9
$DIMTOFL
 70
1
  9
$DIMTVP
 40
0.0
  9
$DIMTIX
 70
0
  9
$DIMSOXD
 70
0
  9
$DIMSAH
 70
0
  9
$DIMBLK1
  1

  9
$DIMBLK2
  1

  9
$DIMSTYLE
  2
ISO-25
  9
$DIMCLRD
 70
0
  9
$DIMCLRE
 70
0
  9
$DIMCLRT
 70
0
  9
$DIMTFAC
 40
1.0
  9
$DIMGAP
 40
0.625
  9
$COORDS
 70
1
  9
$ATTDIA
 70
0
  9
$ATTREQ
 70
1
  9
$HANDLING
 70
1
  9
$LUNITS
 70
2
  9
$LUPREC
 70
4
  9
$SKETCHINC
 40
1.0
  9
$FILLETRAD
 40
10.0
  9
$AUNITS
 70
0
  9
$AUPREC
 70
2
  9
$MENU
  1
.
  9
$ELEVATION
 40
0.0
  9
$PELEVATION
 40
0.0
  9
$THICKNESS
 40
0.0
  9
$LIMCHECK
 70
0
  9
$CHAMFERA
 40
0.0
  9
$CHAMFERB
 40
0.0
  9
$SKPOLY
 70
0
  9
$TDCREATE
 40
2459751.94568287
  9
$TDUPDATE
 40
2459751.94568287
  9
$TDINDWG
 40
0.0
  9
$TDUSRTIMER
 40
0.0
  9
$USRTIMER
 70
1
  9
$ANGBASE
 50
0.0
  9
$ANGDIR
 70
0
  9
$PDMODE
 70
0
  9
$PDSIZE
 40
0.0
  9
$PLINEWID
 40
0.0
  9
$SPLFRAME
 70
0
  9
$SPLINETYPE
 70
6
  9
$SPLINESEGS
 70
8
  9
$HANDSEED
  5
72
  9
$SURFTAB1
 70
6
  9
$SURFTAB2
 70
6
  9
$SURFTYPE
 70
6
  9
$SURFU
 70
6
  9
$SURFV
 70
6
  9
$UCSNAME
  2

  9
$UCSORG
 10
0.0
 20
0.0
 30
0.0
  9
$UCSXDIR
 10
1.0
 20
0.0
 30
0.0
  9
$UCSYDIR
 10
0.0
 20
1.0
 30
0.0
  9
$PUCSNAME
  2

  9
$PUCSORG
 10
0.0
 20
0.0
 30
0.0
  9
$PUCSXDIR
 10
1.0
 20
0.0
 30
0.0
  9
$PUCSYDIR
 10
0.0
 20
1.0
 30
0.0
  9
$USERI1
 70
0
  9
$USERI2
 70
0
  9
$USERI3
 70
0
  9
$USERI4
 70
0
  9
$USERI5
 70
0
  9
$USERR1
 40
0.0
  9
$USERR2
 40
0.0
  9
$USERR3
 40
0.0
  9
$USERR4
 40
0.0
  9
$USERR5
 40
0.0
  9
$WORLDVIEW
 70
1
  9
$SHADEDGE
 70
3
  9
$SHADEDIF
 70
70
  9
$TILEMODE
 70
1
  9
$MAXACTVP
 70
64
  9
$PLIMCHECK
 70
0
  9
$PEXTMIN
 10
1e+20
 20
1e+20
 30
1e+20
  9
$PEXTMAX
 10
-1e+20
 20
-1e+20
 30
-1e+20
  9
$PLIMMIN
 10
0.0
 20
0.0
  9
$PLIMMAX
 10
420.0
 20
297.0
  9
$UNITMODE
 70
0
  9
$VISRETAIN
 70
1
  9
$PLINEGEN
 70
0
  9
$PSLTSCALE
 70
1
  0
ENDSEC
  0
SECTION
  2
TABLES
  0
TABLE
  2
VPORT
 70
1
  0
VPORT
  5
23
  2
*Active
 70
0
 10
0.0
 20
0.0
 11
1.0
 21
1.0
 12
70.0
 22
50.0
 13
0.0
 23
0.0
 14
0.5
 24
0.5
 15
0.5
 25
0.5
 16
0.0
 26
0.0
 36
1.0
 17
0.0
 27
0.0
 37
0.0
 40
1.0
 41
1.34
 42
50.0
 43
0.0
 44
0.0
 50
0.0
 51
0.0
 71
0
 72
1000
 73
1
 74
3
 75
0
 76
0
 77
0
 78
0
  0
ENDTAB
  0
TABLE
  2
LTYPE
 70
3
  0
LTYPE
  5
24
  2
ByBlock
 70
0
  3

 72
65
 73
0
 40
0.0
  0
LTYPE
  5
25
  2
ByLayer
 70
0
  3

 72
65
 73
0
 40
0.0
  0
LTYPE
  5
26
  2
Continuous
 70
0
  3

 72
65
 73
0
 40
0.0
  0
ENDTAB
  0
TABLE
  2
LAYER
 70
2
  0
LAYER
  5
27
  2
0
 70
0
 62
7
  6
Continuous
  0
LAYER
  5
28
  2
Defpoints
 70
0
 62
7
  6
Continuous
  0
ENDTAB
  0
TABLE
  2
STYLE
 70
1
  0
STYLE
  5
29
  2
Standard
 70
0
 40
0.0
 41
1.0
 50
0.0
 71
0
 42
2.5
  3
txt
  4

  0
ENDTAB
  0
TABLE
  2
VIEW
 70
0
  0
ENDTAB
  0
TABLE
  2
UCS
 70
0
  0
ENDTAB
  0
TABLE
  2
APPID
 70
2
  0
APPID
  5
2A
  2
ACAD
 70
0
  0
APPID
  5
71
  2
HATCHBACKGROUNDCOLOR
 70
0
  0
ENDTAB
  0
TABLE
  2
DIMSTYLE
 70
1
  0
DIMSTYLE
105
2B
  2
Standard
 70
0
  3

  4

  5

  6

  7

 40
1.0
 41
2.5
 42
0.625
 43
3.75
 44
1.25
 45
0.0
 46
0.0
 47
0.0
 48
0.0
140
2.5
141
2.5
142
0.0
143
0.03937007874
144
1.0
145
0.0
146
1.0
147
0.625
 71
0
 72
0
 73
0
 74
0
 75
0
 76
0
 77
1
 78
8
170
0
171
3
172
1
173
0
174
0
175
0
176
0
177
0
178
0
  0
ENDTAB
  0
ENDSEC
  0
SECTION
  2
BLOCKS
  0
BLOCK
  5
18
  8
0
  2
$Model_Space
 70
0
 10
0.0
 20
0.0
 30
0.0
  3
$Model_Space
  1

  0
ENDBLK
  5
19
  8
0
  0
BLOCK
  5
1C
  8
0
  2
$Paper_Space
 70
0
 10
0.0
 20
0.0
 30
0.0
  3
$Paper_Space
  1

  0
ENDBLK
  5
1D
  8
0
  0
ENDSEC
  0
SECTION
  2
ENTITIES
  0
LINE
  5
2D
  8
0
 10
-1.6163073469999998
 20
-0.0029661043499999984
 30
0.0
 11
-1.5884693469999998
 21
-0.040798394650000014
 31
0.0
  0
LINE
  5
2E
  8
0
 10
-1.5884693469999998
 20
-0.040798394650000014
 30
0.0
 11
-1.5810404229999997
 21
-0.05104080975000003
 31
0.0
  0
LINE
  5
2F
  8
0
 10
-1.5810404229999997
 20
-0.05104080975000003
 30
0.0
 11
-1.516628786
 21
-0.07888082964999998
 31
0.0
  0
LINE
  5
30
  8
0
 10
-1.516628786
 20
-0.07888082964999998
 30
0.0
 11
-1.4993372539999998
 21
-0.08639492125000003
 31
0.0
  0
LINE
  5
31
  8
0
 10
-1.4993372539999998
 20
-0.08639492125000003
 30
0.0
 11
-1.403095789
 21
-0.10944052464999998
 31
0.0
  0
LINE
  5
32
  8
0
 10
-1.403095789
 20
-0.10944052464999998
 30
0.0
 11
-1.377192907
 21
-0.11546565525000002
 31
0.0
  0
LINE
  5
33
  8
0
 10
-1.377192907
 20
-0.11546565525000002
 30
0.0
 11
-1.243251834
 21
-0.13448905305000003
 31
0.0
  0
LINE
  5
34
  8
0
 10
-1.243251834
 20
-0.13448905305000003
 30
0.0
 11
-1.207211546
 21
-0.13925796335
 31
0.0
  0
LINE
  5
35
  8
0
 10
-1.207211546
 20
-0.13925796335
 30
0.0
 11
-1.030059954
 21
-0.15281583075
 31
0.0
  0
LINE
  5
36
  8
0
 10
-1.030059954
 20
-0.15281583075
 30
0.0
 11
-0.9824215249999999
 21
-0.15599583425000002
 31
0.0
  0
LINE
  5
37
  8
0
 10
-0.9824215249999999
 20
-0.15599583425000002
 30
0.0
 11
-0.7610112089999999
 21
-0.16197763545
 31
0.0
  0
LINE
  5
38
  8
0
 10
-0.7610112089999999
 20
-0.16197763545
 30
0.0
 11
-0.701498366
 21
-0.16311356864999998
 31
0.0
  0
LINE
  5
39
  8
0
 10
-0.701498366
 20
-0.16311356864999998
 30
0.0
 11
-0.4426371539999998
 21
-0.16013589425000002
 31
0.0
  0
LINE
  5
3A
  8
0
 10
-0.4426371539999998
 20
-0.16013589425000002
 30
0.0
 11
-0.3730700899999997
 21
-0.15902360215
 31
0.0
  0
LINE
  5
3B
  8
0
 10
-0.3730700899999997
 20
-0.15902360215
 30
0.0
 11
-0.09257539599999998
 21
-0.14755635285000002
 31
0.0
  0
LINE
  5
3C
  8
0
 10
-0.09257539599999998
 20
-0.14755635285000002
 30
0.0
 11
-0.017191084000000245
 21
-0.14439827254999998
 31
0.0
  0
LINE
  5
3D
  8
0
 10
-0.017191084000000245
 20
-0.14439827254999998
 30
0.0
 11
0.0581178410000005
 21
-0.13976593225
 31
0.0
  0
LINE
  5
3E
  8
0
 10
0.0581178410000005
 20
-0.13976593225
 30
0.0
 11
0.33830486400000037
 21
-0.12227851095000003
 31
0.0
  0
LINE
  5
3F
  8
0
 10
0.33830486400000037
 20
-0.12227851095000003
 30
0.0
 11
0.4076900280000002
 21
-0.11708277395
 31
0.0
  0
LINE
  5
40
  8
0
 10
0.4076900280000002
 20
-0.11708277395
 30
0.0
 11
0.6657969770000003
 21
-0.09698354635
 31
0.0
  0
LINE
  5
41
  8
0
 10
0.6657969770000003
 20
-0.09698354635
 30
0.0
 11
0.7251184240000006
 21
-0.09199149485000002
 31
0.0
  0
LINE
  5
42
  8
0
 10
0.7251184240000006
 20
-0.09199149485000002
 30
0.0
 11
0.9457502120000001
 21
-0.07232258224999999
 31
0.0
  0
LINE
  5
43
  8
0
 10
0.9457502120000001
 20
-0.07232258224999999
 30
0.0
 11
0.993308013
 21
-0.06799757984999999
 31
0.0
  0
LINE
  5
44
  8
0
 10
0.993308013
 20
-0.06799757984999999
 30
0.0
 11
1.170158388
 21
-0.05072717085
 31
0.0
  0
LINE
  5
45
  8
0
 10
1.170158388
 20
-0.05072717085
 30
0.0
 11
1.2063562030000003
 21
-0.04724794295000001
 31
0.0
  0
LINE
  5
46
  8
0
 10
1.2063562030000003
 20
-0.04724794295000001
 30
0.0
 11
1.3409438009999999
 21
-0.03322459664999999
 31
0.0
  0
LINE
  5
47
  8
0
 10
1.3409438009999999
 20
-0.03322459664999999
 30
0.0
 11
1.3674208110000006
 21
-0.030573317350000018
 31
0.0
  0
LINE
  5
48
  8
0
 10
1.3674208110000006
 20
-0.030573317350000018
 30
0.0
 11
1.4658541390000002
 21
-0.019820970250000014
 31
0.0
  0
LINE
  5
49
  8
0
 10
1.4658541390000002
 20
-0.019820970250000014
 30
0.0
 11
1.4846627469999998
 21
-0.017880048550000027
 31
0.0
  0
LINE
  5
4A
  8
0
 10
1.4846627469999998
 20
-0.017880048550000027
 30
0.0
 11
1.5545812330000004
 21
-0.009977222350000037
 31
0.0
  0
LINE
  5
4B
  8
0
 10
1.5545812330000004
 20
-0.009977222350000037
 30
0.0
 11
1.5676667599999998
 21
-0.008597670549999992
 31
0.0
  0
LINE
  5
4C
  8
0
 10
1.5676667599999998
 20
-0.008597670549999992
 30
0.0
 11
1.6163073470000002
 21
-0.0029661043499999984
 31
0.0
  0
LINE
  5
4D
  8
0
 10
1.6163073470000002
 20
-0.0029661043499999984
 30
0.0
 11
1.5676667599999998
 21
0.002665461849999995
 31
0.0
  0
LINE
  5
4E
  8
0
 10
1.5676667599999998
 20
0.002665461849999995
 30
0.0
 11
1.554593411
 21
0.004459955049999964
 31
0.0
  0
LINE
  5
4F
  8
0
 10
1.554593411
 20
0.004459955049999964
 30
0.0
 11
1.4846749250000002
 21
0.01236278125000001
 31
0.0
  0
LINE
  5
50
  8
0
 10
1.4846749250000002
 20
0.01236278125000001
 30
0.0
 11
1.465878676
 21
0.014876320050000003
 31
0.0
  0
LINE
  5
51
  8
0
 10
1.465878676
 20
0.014876320050000003
 30
0.0
 11
1.3674453490000005
 21
0.025628667150000006
 31
0.0
  0
LINE
  5
52
  8
0
 10
1.3674453490000005
 20
0.025628667150000006
 30
0.0
 11
1.340975921
 21
0.029038485050000007
 31
0.0
  0
LINE
  5
53
  8
0
 10
1.340975921
 20
0.029038485050000007
 30
0.0
 11
1.2063883220000005
 21
0.04306183134999997
 31
0.0
  0
LINE
  5
54
  8
0
 10
1.2063883220000005
 20
0.04306183134999997
 30
0.0
 11
1.1701835200000001
 21
0.04748822964999999
 31
0.0
  0
LINE
  5
55
  8
0
 10
1.1701835200000001
 20
0.04748822964999999
 30
0.0
 11
0.9933331450000003
 21
0.06475863864999998
 31
0.0
  0
LINE
  5
56
  8
0
 10
0.9933331450000003
 20
0.06475863864999998
 30
0.0
 11
0.9457382140000004
 21
0.07017038644999998
 31
0.0
  0
LINE
  5
57
  8
0
 10
0.9457382140000004
 20
0.07017038644999998
 30
0.0
 11
0.725106426
 21
0.08983929904999999
 31
0.0
  0
LINE
  5
58
  8
0
 10
0.725106426
 20
0.08983929904999999
 30
0.0
 11
0.665698366
 21
0.09593588144999998
 31
0.0
  0
LINE
  5
59
  8
0
 10
0.665698366
 20
0.09593588144999998
 30
0.0
 11
0.4075914169999999
 21
0.11603510905
 31
0.0
  0
LINE
  5
5A
  8
0
 10
0.4075914169999999
 20
0.11603510905
 30
0.0
 11
0.33805506300000054
 21
0.12216858235
 31
0.0
  0
LINE
  5
5B
  8
0
 10
0.33805506300000054
 20
0.12216858235
 30
0.0
 11
0.05786803999999979
 21
0.13965600355
 31
0.0
  0
LINE
  5
5C
  8
0
 10
0.05786803999999979
 20
0.13965600355
 30
0.0
 11
-0.017655414000000036
 21
0.14487305235
 31
0.0
  0
LINE
  5
5D
  8
0
 10
-0.017655414000000036
 20
0.14487305235
 30
0.0
 11
-0.09329099999999979
 21
0.14815383015
 31
0.0
  0
LINE
  5
5E
  8
0
 10
-0.09329099999999979
 20
0.14815383015
 30
0.0
 11
-0.3737856929999994
 21
0.15962107944999998
 31
0.0
  0
LINE
  5
5F
  8
0
 10
-0.3737856929999994
 20
0.15962107944999998
 30
0.0
 11
-0.4435954639999995
 21
0.16013589425
 31
0.0
  0
LINE
  5
60
  8
0
 10
-0.4435954639999995
 20
0.16013589425
 30
0.0
 11
-0.7024566759999997
 21
0.16311356864999998
 31
0.0
  0
LINE
  5
61
  8
0
 10
-0.7024566759999997
 20
0.16311356864999998
 30
0.0
 11
-0.762130027
 21
0.16080548214999998
 31
0.0
  0
LINE
  5
62
  8
0
 10
-0.762130027
 20
0.16080548214999998
 30
0.0
 11
-0.983540342
 21
0.15482368084999998
 31
0.0
  0
LINE
  5
63
  8
0
 10
-0.983540342
 20
0.15482368084999998
 30
0.0
 11
-1.0312101389999997
 21
0.15027450615
 31
0.0
  0
LINE
  5
64
  8
0
 10
-1.0312101389999997
 20
0.15027450615
 30
0.0
 11
-1.2083617309999997
 21
0.13671663874999998
 31
0.0
  0
LINE
  5
65
  8
0
 10
-1.2083617309999997
 20
0.13671663874999998
 30
0.0
 11
-1.244299883
 21
0.13066422535
 31
0.0
  0
LINE
  5
66
  8
0
 10
-1.244299883
 20
0.13066422535
 30
0.0
 11
-1.378240956
 21
0.11164082765
 31
0.0
  0
LINE
  5
67
  8
0
 10
-1.378240956
 20
0.11164082765
 30
0.0
 11
-1.4039232399999997
 21
0.10456934874999999
 31
0.0
  0
LINE
  5
68
  8
0
 10
-1.4039232399999997
 20
0.10456934874999999
 30
0.0
 11
-1.500164705
 21
0.08152374534999998
 31
0.0
  0
LINE
  5
69
  8
0
 10
-1.500164705
 20
0.08152374534999998
 30
0.0
 11
-1.5171168049999997
 21
0.07326783034999998
 31
0.0
  0
LINE
  5
6A
  8
0
 10
-1.5171168049999997
 20
0.07326783034999998
 30
0.0
 11
-1.5815284409999997
 21
0.045427810449999995
 31
0.0
  0
LINE
  5
6B
  8
0
 10
-1.5815284409999997
 20
0.045427810449999995
 30
0.0
 11
-1.5884693469999998
 21
0.03486618595000002
 31
0.0
  0
LINE
  5
6C
  8
0
 10
-1.5884693469999998
 20
0.03486618595000002
 30
0.0
 11
-1.6163073469999998
 21
-0.0029661043499999984
 31
0.0
  0
LINE
  5
6D
  8
0
 10
0.2
 20
0.2
 30
0.0
 11
0.2
 21
-0.2
 31
0.0
  0
LINE
  5
6E
  8
0
 10
0.2
 20
-0.2
 30
0.0
 11
-0.2
 21
-0.2
 31
0.0
  0
LINE
  5
6F
  8
0
 10
-0.2
 20
-0.2
 30
0.0
 11
-0.2
 21
0.2
 31
0.0
  0
LINE
  5
70
  8
0
 10
-0.2
 20
0.2
 30
0.0
 11
0.2
 21
0.2
 31
0.0
  0
ENDSEC
  0
EOF
