  0
SECTION
  2
HEADER
  9
$ACADVER
  1
AC1024
  9
$ACADMAINTVER
 70
6
  9
$DWGCODEPAGE
  3
ANSI_1252
  9
$LASTSAVEDBY
  1
ezdxf
  9
$INSBASE
 10
0.0
 20
0.0
 30
0.0
  9
$EXTMIN
 10
-100
 20
-100
 30
-100
  9
$EXTMAX
 10
100
 20
100
 30
100
  9
$LIMMIN
 10
0.0
 20
0.0
  9
$LIMMAX
 10
420.0
 20
297.0
  9
$ORTHOMODE
 70
0
  9
$REGENMODE
 70
1
  9
$FILLMODE
 70
1
  9
$QTEXTMODE
 70
0
  9
$MIRRTEXT
 70
1
  9
$LTSCALE
 40
1.0
  9
$ATTMODE
 70
1
  9
$TEXTSIZE
 40
2.5
  9
$TRACEWID
 40
1.0
  9
$TEXTSTYLE
  7
Standard
  9
$CLAYER
  8
0
  9
$CELTYPE
  6
ByLayer
  9
$CECOLOR
 62
256
  9
$CELTSCALE
 40
1.0
  9
$DISPSILH
 70
0
  9
$DIMSCALE
 40
1.0
  9
$DIMASZ
 40
2.5
  9
$DIMEXO
 40
0.625
  9
$DIMDLI
 40
3.75
  9
$DIMRND
 40
0.0
  9
$DIMDLE
 40
0.0
  9
$DIMEXE
 40
1.25
  9
$DIMTP
 40
0.0
  9
$DIMTM
 40
0.0
  9
$DIMTXT
 40
2.5
  9
$DIMCEN
 40
2.5
  9
$DIMTSZ
 40
0.0
  9
$DIMTOL
 70
0
  9
$DIMLIM
 70
0
  9
$DIMTIH
 70
0
  9
$DIMTOH
 70
0
  9
$DIMSE1
 70
0
  9
$DIMSE2
 70
0
  9
$DIMTAD
 70
1
  9
$DIMZIN
 70
8
  9
$DIMBLK
  1

  9
$DIMASO
 70
1
  9
$DIMSHO
 70
1
  9
$DIMPOST
  1

  9
$DIMAPOST
  1

  9
$DIMALT
 70
0
  9
$DIMALTD
 70
3
  9
$DIMALTF
 40
0.03937007874
  9
$DIMLFAC
 40
1.0
  9
$DIMTOFL
 70
1
  9
$DIMTVP
 40
0.0
  9
$DIMTIX
 70
0
  9
$DIMSOXD
 70
0
  9
$DIMSAH
 70
0
  9
$DIMBLK1
  1

  9
$DIMBLK2
  1

  9
$DIMSTYLE
  2
ISO-25
  9
$DIMCLRD
 70
0
  9
$DIMCLRE
 70
0
  9
$DIMCLRT
 70
0
  9
$DIMTFAC
 40
1.0
  9
$DIMGAP
 40
0.625
  9
$DIMJUST
 70
0
  9
$DIMSD1
 70
0
  9
$DIMSD2
 70
0
  9
$DIMTOLJ
 70
0
  9
$DIMTZIN
 70
8
  9
$DIMALTZ
 70
0
  9
$DIMALTTZ
 70
0
  9
$DIMUPT
 70
0
  9
$DIMDEC
 70
2
  9
$DIMTDEC
 70
2
  9
$DIMALTU
 70
2
  9
$DIMALTTD
 70
3
  9
$DIMTXSTY
  7
Standard
  9
$DIMAUNIT
 70
0
  9
$DIMADEC
 70
0
  9
$DIMALTRND
 40
0.0
  9
$DIMAZIN
 70
0
  9
$DIMDSEP
 70
44
  9
$DIMATFIT
 70
3
  9
$DIMFRAC
 70
0
  9
$DIMLDRBLK
  1

  9
$DIMLUNIT
 70
2
  9
$DIMLWD
 70
-2
  9
$DIMLWE
 70
-2
  9
$DIMTMOVE
 70
0
  9
$DIMFXL
 40
1.0
  9
$DIMFXLON
 70
0
  9
$DIMJOGANG
 40
0.785398163397
  9
$DIMTFILL
 70
0
  9
$DIMTFILLCLR
 70
0
  9
$DIMARCSYM
 70
0
  9
$DIMLTYPE
  6

  9
$DIMLTEX1
  6

  9
$DIMLTEX2
  6

  9
$DIMTXTDIRECTION
 70
0
  9
$LUNITS
 70
2
  9
$LUPREC
 70
4
  9
$SKETCHINC
 40
1.0
  9
$FILLETRAD
 40
10.0
  9
$AUNITS
 70
0
  9
$AUPREC
 70
2
  9
$MENU
  1
.
  9
$ELEVATION
 40
0.0
  9
$PELEVATION
 40
0.0
  9
$THICKNESS
 40
0.0
  9
$LIMCHECK
 70
0
  9
$CHAMFERA
 40
0.0
  9
$CHAMFERB
 40
0.0
  9
$CHAMFERC
 40
0.0
  9
$CHAMFERD
 40
0.0
  9
$SKPOLY
 70
0
  9
$TDCREATE
 40
2459744.4208564814
  9
$TDUCREATE
 40
2458532.153996898
  9
$TDUPDATE
 40
2459744.4208564814
  9
$TDUUPDATE
 40
2458532.1544311
  9
$TDINDWG
 40
0.0
  9
$TDUSRTIMER
 40
0.0
  9
$USRTIMER
 70
1
  9
$ANGBASE
 50
0.0
  9
$ANGDIR
 70
0
  9
$PDMODE
 70
0
  9
$PDSIZE
 40
0.0
  9
$PLINEWID
 40
0.0
  9
$SPLFRAME
 70
0
  9
$SPLINETYPE
 70
6
  9
$SPLINESEGS
 70
8
  9
$HANDSEED
  5
B2
  9
$SURFTAB1
 70
6
  9
$SURFTAB2
 70
6
  9
$SURFTYPE
 70
6
  9
$SURFU
 70
6
  9
$SURFV
 70
6
  9
$UCSBASE
  2

  9
$UCSNAME
  2

  9
$UCSORG
 10
0.0
 20
0.0
 30
0.0
  9
$UCSXDIR
 10
1.0
 20
0.0
 30
0.0
  9
$UCSYDIR
 10
0.0
 20
1.0
 30
0.0
  9
$UCSORTHOREF
  2

  9
$UCSORTHOVIEW
 70
0
  9
$UCSORGTOP
 10
0.0
 20
0.0
 30
0.0
  9
$UCSORGBOTTOM
 10
0.0
 20
0.0
 30
0.0
  9
$UCSORGLEFT
 10
0.0
 20
0.0
 30
0.0
  9
$UCSORGRIGHT
 10
0.0
 20
0.0
 30
0.0
  9
$UCSORGFRONT
 10
0.0
 20
0.0
 30
0.0
  9
$UCSORGBACK
 10
0.0
 20
0.0
 30
0.0
  9
$PUCSBASE
  2

  9
$PUCSNAME
  2

  9
$PUCSORG
 10
0.0
 20
0.0
 30
0.0
  9
$PUCSXDIR
 10
1.0
 20
0.0
 30
0.0
  9
$PUCSYDIR
 10
0.0
 20
1.0
 30
0.0
  9
$PUCSORTHOREF
  2

  9
$PUCSORTHOVIEW
 70
0
  9
$PUCSORGTOP
 10
0.0
 20
0.0
 30
0.0
  9
$PUCSORGBOTTOM
 10
0.0
 20
0.0
 30
0.0
  9
$PUCSORGLEFT
 10
0.0
 20
0.0
 30
0.0
  9
$PUCSORGRIGHT
 10
0.0
 20
0.0
 30
0.0
  9
$PUCSORGFRONT
 10
0.0
 20
0.0
 30
0.0
  9
$PUCSORGBACK
 10
0.0
 20
0.0
 30
0.0
  9
$USERI1
 70
0
  9
$USERI2
 70
0
  9
$USERI3
 70
0
  9
$USERI4
 70
0
  9
$USERI5
 70
0
  9
$USERR1
 40
0.0
  9
$USERR2
 40
0.0
  9
$USERR3
 40
0.0
  9
$USERR4
 40
0.0
  9
$USERR5
 40
0.0
  9
$WORLDVIEW
 70
1
  9
$SHADEDGE
 70
3
  9
$SHADEDIF
 70
70
  9
$TILEMODE
 70
1
  9
$MAXACTVP
 70
64
  9
$PINSBASE
 10
0.0
 20
0.0
 30
0.0
  9
$PLIMCHECK
 70
0
  9
$PEXTMIN
 10
1e+20
 20
1e+20
 30
1e+20
  9
$PEXTMAX
 10
-1e+20
 20
-1e+20
 30
-1e+20
  9
$PLIMMIN
 10
0.0
 20
0.0
  9
$PLIMMAX
 10
420.0
 20
297.0
  9
$UNITMODE
 70
0
  9
$VISRETAIN
 70
1
  9
$PLINEGEN
 70
0
  9
$PSLTSCALE
 70
1
  9
$TREEDEPTH
 70
3020
  9
$CMLSTYLE
  2
Standard
  9
$CMLJUST
 70
0
  9
$CMLSCALE
 40
20.0
  9
$PROXYGRAPHICS
 70
1
  9
$MEASUREMENT
 70
1
  9
$CELWEIGHT
370
-1
  9
$ENDCAPS
280
0
  9
$JOINSTYLE
280
0
  9
$LWDISPLAY
290
0
  9
$INSUNITS
 70
6
  9
$HYPERLINKBASE
  1

  9
$STYLESHEET
  1

  9
$XEDIT
290
1
  9
$CEPSNTYPE
380
0
  9
$PSTYLEMODE
290
1
  9
$FINGERPRINTGUID
  2
AAE5DE28-EAEF-11EC-B120-088FC3043410
  9
$VERSIONGUID
  2
AAE6A188-EAEF-11EC-9258-088FC3043410
  9
$EXTNAMES
290
1
  9
$PSVPSCALE
 40
0.0
  9
$OLESTARTUP
290
0
  9
$SORTENTS
280
127
  9
$INDEXCTL
280
0
  9
$HIDETEXT
280
1
  9
$XCLIPFRAME
280
2
  9
$HALOGAP
280
0
  9
$OBSCOLOR
 70
257
  9
$OBSLTYPE
280
0
  9
$INTERSECTIONDISPLAY
280
0
  9
$INTERSECTIONCOLOR
 70
257
  9
$DIMASSOC
280
2
  9
$PROJECTNAME
  1

  9
$CAMERADISPLAY
290
0
  9
$LENSLENGTH
 40
50.0
  9
$CAMERAHEIGHT
 40
0.0
  9
$STEPSPERSEC
 40
24.0
  9
$STEPSIZE
 40
100.0
  9
$3DDWFPREC
 40
2.0
  9
$PSOLWIDTH
 40
0.005
  9
$PSOLHEIGHT
 40
0.08
  9
$LOFTANG1
 40
1.570796326795
  9
$LOFTANG2
 40
1.570796326795
  9
$LOFTMAG1
 40
0.0
  9
$LOFTMAG2
 40
0.0
  9
$LOFTPARAM
 70
7
  9
$LOFTNORMALS
280
1
  9
$LATITUDE
 40
37.795
  9
$LONGITUDE
 40
-122.394
  9
$NORTHDIRECTION
 40
0.0
  9
$TIMEZONE
 70
-8000
  9
$LIGHTGLYPHDISPLAY
280
1
  9
$TILEMODELIGHTSYNCH
280
1
  9
$CMATERIAL
347
20
  9
$SOLIDHIST
280
0
  9
$SHOWHIST
280
1
  9
$DWFFRAME
280
2
  9
$DGNFRAME
280
2
  9
$REALWORLDSCALE
290
1
  9
$INTERFERECOLOR
 62
256
  9
$CSHADOW
280
0
  9
$SHADOWPLANELOCATION
 40
0.0
  0
ENDSEC
  0
SECTION
  2
CLASSES
  0
CLASS
  1
ACDBDICTIONARYWDFLT
  2
AcDbDictionaryWithDefault
  3
ObjectDBX Classes
 90
0
 91
0
280
0
281
0
  0
CLASS
  1
SUN
  2
AcDbSun
  3
SCENEOE
 90
1153
 91
0
280
0
281
0
  0
CLASS
  1
VISUALSTYLE
  2
AcDbVisualStyle
  3
ObjectDBX Classes
 90
4095
 91
0
280
0
281
0
  0
CLASS
  1
MATERIAL
  2
AcDbMaterial
  3
ObjectDBX Classes
 90
1153
 91
0
280
0
281
0
  0
CLASS
  1
SCALE
  2
AcDbScale
  3
ObjectDBX Classes
 90
1153
 91
0
280
0
281
0
  0
CLASS
  1
TABLESTYLE
  2
AcDbTableStyle
  3
ObjectDBX Classes
 90
4095
 91
0
280
0
281
0
  0
CLASS
  1
MLEADERSTYLE
  2
AcDbMLeaderStyle
  3
ACDB_MLEADERSTYLE_CLASS
 90
4095
 91
0
280
0
281
0
  0
CLASS
  1
DICTIONARYVAR
  2
AcDbDictionaryVar
  3
ObjectDBX Classes
 90
0
 91
0
280
0
281
0
  0
CLASS
  1
CELLSTYLEMAP
  2
AcDbCellStyleMap
  3
ObjectDBX Classes
 90
1152
 91
0
280
0
281
0
  0
CLASS
  1
MENTALRAYRENDERSETTINGS
  2
AcDbMentalRayRenderSettings
  3
SCENEOE
 90
1024
 91
0
280
0
281
0
  0
CLASS
  1
ACDBDETAILVIEWSTYLE
  2
AcDbDetailViewStyle
  3
ObjectDBX Classes
 90
1025
 91
0
280
0
281
0
  0
CLASS
  1
ACDBSECTIONVIEWSTYLE
  2
AcDbSectionViewStyle
  3
ObjectDBX Classes
 90
1025
 91
0
280
0
281
0
  0
CLASS
  1
RASTERVARIABLES
  2
AcDbRasterVariables
  3
ISM
 90
0
 91
0
280
0
281
0
  0
CLASS
  1
ACDBPLACEHOLDER
  2
AcDbPlaceHolder
  3
ObjectDBX Classes
 90
0
 91
0
280
0
281
0
  0
CLASS
  1
LAYOUT
  2
AcDbLayout
  3
ObjectDBX Classes
 90
0
 91
0
280
0
281
0
  0
ENDSEC
  0
SECTION
  2
TABLES
  0
TABLE
  2
VPORT
  5
8
330
0
100
AcDbSymbolTable
 70
1
  0
VPORT
  5
23
330
8
100
AcDbSymbolTableRecord
100
AcDbViewportTableRecord
  2
*Active
 70
0
 10
0.0
 20
0.0
 11
1.0
 21
1.0
 12
70.0
 22
50.0
 13
0.0
 23
0.0
 14
0.5
 24
0.5
 15
0.5
 25
0.5
 16
0.0
 26
0.0
 36
1.0
 17
0.0
 27
0.0
 37
0.0
 40
1.0
 41
1.34
 42
50.0
 43
0.0
 44
0.0
 50
0.0
 51
0.0
 71
0
 72
1000
 73
1
 74
3
 75
0
 76
0
 77
0
 78
0
281
0
 65
0
146
0.0
  0
ENDTAB
  0
TABLE
  2
LTYPE
  5
2
330
0
100
AcDbSymbolTable
 70
3
  0
LTYPE
  5
24
330
2
100
AcDbSymbolTableRecord
100
AcDbLinetypeTableRecord
  2
ByBlock
 70
0
  3

 72
65
 73
0
 40
0.0
  0
LTYPE
  5
25
330
2
100
AcDbSymbolTableRecord
100
AcDbLinetypeTableRecord
  2
ByLayer
 70
0
  3

 72
65
 73
0
 40
0.0
  0
LTYPE
  5
26
330
2
100
AcDbSymbolTableRecord
100
AcDbLinetypeTableRecord
  2
Continuous
 70
0
  3

 72
65
 73
0
 40
0.0
  0
ENDTAB
  0
TABLE
  2
LAYER
  5
1
330
0
100
AcDbSymbolTable
 70
2
  0
LAYER
  5
27
330
1
100
AcDbSymbolTableRecord
100
AcDbLayerTableRecord
  2
0
 70
0
 62
7
  6
Continuous
370
-3
390
13
347
21
  0
LAYER
  5
28
330
1
100
AcDbSymbolTableRecord
100
AcDbLayerTableRecord
  2
Defpoints
 70
0
 62
7
  6
Continuous
290
0
370
-3
390
13
347
21
  0
ENDTAB
  0
TABLE
  2
STYLE
  5
5
330
0
100
AcDbSymbolTable
 70
1
  0
STYLE
  5
29
330
5
100
AcDbSymbolTableRecord
100
AcDbTextStyleTableRecord
  2
Standard
 70
0
 40
0.0
 41
1.0
 50
0.0
 71
0
 42
2.5
  3
txt
  4

  0
ENDTAB
  0
TABLE
  2
VIEW
  5
7
330
0
100
AcDbSymbolTable
 70
0
  0
ENDTAB
  0
TABLE
  2
UCS
  5
6
330
0
100
AcDbSymbolTable
 70
0
  0
ENDTAB
  0
TABLE
  2
APPID
  5
3
330
0
100
AcDbSymbolTable
 70
2
  0
APPID
  5
2A
330
3
100
AcDbSymbolTableRecord
100
AcDbRegAppTableRecord
  2
ACAD
 70
0
  0
APPID
  5
B1
330
3
100
AcDbSymbolTableRecord
100
AcDbRegAppTableRecord
  2
HATCHBACKGROUNDCOLOR
 70
0
  0
ENDTAB
  0
TABLE
  2
DIMSTYLE
  5
4
330
0
100
AcDbSymbolTable
 70
1
100
AcDbDimStyleTable
  0
DIMSTYLE
105
2B
330
4
100
AcDbSymbolTableRecord
100
AcDbDimStyleTableRecord
  2
Standard
 70
0
 40
1.0
 41
2.5
 42
0.625
 43
3.75
 44
1.25
 45
0.0
 46
0.0
 47
0.0
 48
0.0
 49
2.5
140
2.5
141
2.5
142
0.0
143
0.03937007874
144
1.0
145
0.0
146
1.0
147
0.625
148
0.0
 69
0
 70
0
 71
0
 72
0
 73
0
 74
0
 75
0
 76
0
 77
1
 78
8
 79
0
170
0
171
3
172
1
173
0
174
0
175
0
176
0
177
0
178
0
179
0
271
0
272
2
273
2
274
3
275
0
276
0
277
2
278
44
279
0
280
0
281
0
282
0
283
0
284
8
285
0
286
0
288
0
289
3
290
0
371
-2
372
-2
  0
ENDTAB
  0
TABLE
  2
BLOCK_RECORD
  5
9
330
0
100
AcDbSymbolTable
 70
2
  0
BLOCK_RECORD
  5
17
330
9
100
AcDbSymbolTableRecord
100
AcDbBlockTableRecord
  2
*Model_Space
340
1A
 70
0
280
1
281
0
  0
BLOCK_RECORD
  5
1B
330
9
100
AcDbSymbolTableRecord
100
AcDbBlockTableRecord
  2
*Paper_Space
340
1E
 70
0
280
1
281
0
  0
ENDTAB
  0
ENDSEC
  0
SECTION
  2
BLOCKS
  0
BLOCK
  5
18
330
17
100
AcDbEntity
  8
0
100
AcDbBlockBegin
  2
*Model_Space
 70
0
 10
0.0
 20
0.0
 30
0.0
  3
*Model_Space
  1

  0
ENDBLK
  5
19
330
17
100
AcDbEntity
  8
0
100
AcDbBlockEnd
  0
BLOCK
  5
1C
330
1B
100
AcDbEntity
  8
0
100
AcDbBlockBegin
  2
*Paper_Space
 70
0
 10
0.0
 20
0.0
 30
0.0
  3
*Paper_Space
  1

  0
ENDBLK
  5
1D
330
1B
100
AcDbEntity
  8
0
100
AcDbBlockEnd
  0
ENDSEC
  0
SECTION
  2
ENTITIES
  0
LINE
  5
2D
330
17
100
AcDbEntity
  8
0
100
AcDbLine
 10
-1.1864061485000001
 20
-2.220446049e-16
 30
-3.141592653589793
 11
-2.5907252795
 21
-1.110223025e-16
 31
-3.141592653589793
  0
LINE
  5
2E
330
17
100
AcDbEntity
  8
0
100
AcDbLine
 10
-2.5907252795
 20
-1.110223025e-16
 30
-3.141592653589793
 11
-1.1709236545000001
 21
-0.0218874971
 31
-3.1229023245362386
  0
LINE
  5
2F
330
17
100
AcDbEntity
  8
0
100
AcDbLine
 10
-1.1709236545000001
 20
-0.0218874971
 30
-3.1229023245362386
 11
-2.4646180405
 21
-0.0841606079
 31
-3.107458391217007
  0
LINE
  5
30
330
17
100
AcDbEntity
  8
0
100
AcDbLine
 10
-2.4646180405
 20
-0.0841606079
 30
-3.107458391217007
 11
-1.1461053875
 21
-0.05735978217
 31
-3.0915868130827326
  0
LINE
  5
31
330
17
100
AcDbEntity
  8
0
100
AcDbLine
 10
-1.1461053875
 20
-0.05735978217
 30
-3.0915868130827326
 11
-1.1096893925
 21
-0.07333279374
 31
-3.0756045289664367
  0
LINE
  5
32
330
17
100
AcDbEntity
  8
0
100
AcDbLine
 10
-1.1096893925
 20
-0.07333279374
 30
-3.0756045289664367
 11
-2.3417567935
 21
-0.1661549269
 31
-3.0707582528689086
  0
LINE
  5
33
330
17
100
AcDbEntity
  8
0
100
AcDbLine
 10
-2.3417567935
 20
-0.1661549269
 30
-3.0707582528689086
 11
-2.3260672155
 21
-0.174078354
 31
-3.0668938436459245
  0
LINE
  5
34
330
17
100
AcDbEntity
  8
0
100
AcDbLine
 10
-2.3260672155
 20
-0.174078354
 30
-3.0668938436459245
 11
-2.3034638695
 21
-0.1854933174
 31
-3.061238056749184
  0
LINE
  5
35
330
17
100
AcDbEntity
  8
0
100
AcDbLine
 10
-2.3034638695
 20
-0.1854933174
 30
-3.061238056749184
 11
-1.0510441545
 21
-0.09916100864
 31
-3.047525855277674
  0
LINE
  5
36
330
17
100
AcDbEntity
  8
0
100
AcDbLine
 10
-1.0510441545
 20
-0.09916100864
 30
-3.047525855277674
 11
-2.1133913035000003
 21
-0.2188173642
 31
-3.0384217776662013
  0
LINE
  5
37
330
17
100
AcDbEntity
  8
0
100
AcDbLine
 10
-2.1133913035000003
 20
-0.2188173642
 30
-3.0384217776662013
 11
-2.0641653085
 21
-0.2274478017
 31
-3.0318466340728447
  0
LINE
  5
38
330
17
100
AcDbEntity
  8
0
100
AcDbLine
 10
-2.0641653085
 20
-0.2274478017
 30
-3.0318466340728447
 11
-0.9962480585
 21
-0.1112559743
 31
-3.0303784821452577
  0
LINE
  5
39
330
17
100
AcDbEntity
  8
0
100
AcDbLine
 10
-0.9962480585
 20
-0.1112559743
 30
-3.0303784821452577
 11
-1.8684617755000001
 21
-0.2529404331
 31
-3.0070370118501555
  0
LINE
  5
3A
330
17
100
AcDbEntity
  8
0
100
AcDbLine
 10
-1.8684617755000001
 20
-0.2529404331
 30
-3.0070370118501555
 11
-0.9078301035000003
 21
-0.1303140393
 31
-2.9990220312288796
  0
LINE
  5
3B
330
17
100
AcDbEntity
  8
0
100
AcDbLine
 10
-0.9078301035000003
 20
-0.1303140393
 30
-2.9990220312288796
 11
-1.7651421265000002
 21
-0.2663990033
 31
-2.9918009929997584
  0
LINE
  5
3C
330
17
100
AcDbEntity
  8
0
100
AcDbLine
 10
-1.7651421265000002
 20
-0.2663990033
 30
-2.9918009929997584
 11
-0.8316228035000002
 21
-0.1391146424
 31
-2.975846366640753
  0
LINE
  5
3D
330
17
100
AcDbEntity
  8
0
100
AcDbLine
 10
-0.8316228035000002
 20
-0.1391146424
 30
-2.975846366640753
 11
-1.5985087455000002
 21
-0.2821332416
 31
-2.966894086164165
  0
LINE
  5
3E
330
17
100
AcDbEntity
  8
0
100
AcDbLine
 10
-1.5985087455000002
 20
-0.2821332416
 30
-2.966894086164165
 11
-1.4442498685
 21
-0.2966990261
 31
-2.9389769321218404
  0
LINE
  5
3F
330
17
100
AcDbEntity
  8
0
100
AcDbLine
 10
-1.4442498685
 20
-0.2966990261
 30
-2.9389769321218404
 11
-0.7086799985000001
 21
-0.1524086685
 31
-2.92975921533808
  0
LINE
  5
40
330
17
100
AcDbEntity
  8
0
100
AcDbLine
 10
-0.7086799985000001
 20
-0.1524086685
 30
-2.92975921533808
 11
-1.3023868845000002
 21
-0.3060882119
 31
-2.910760833118236
  0
LINE
  5
41
330
17
100
AcDbEntity
  8
0
100
AcDbLine
 10
-1.3023868845000002
 20
-0.3060882119
 30
-2.910760833118236
 11
-0.6080538825000001
 21
-0.1574156851
 31
-2.88826980760658
  0
LINE
  5
42
330
17
100
AcDbEntity
  8
0
100
AcDbLine
 10
-0.6080538825000001
 20
-0.1574156851
 30
-2.88826980760658
 11
-1.1010511515
 21
-0.3194135948
 31
-2.8592441177712424
  0
LINE
  5
43
330
17
100
AcDbEntity
  8
0
100
AcDbLine
 10
-1.1010511515
 20
-0.3194135948
 30
-2.8592441177712424
 11
-0.9790822664999999
 21
-0.3248113452
 31
-2.8212670363180634
  0
LINE
  5
44
330
17
100
AcDbEntity
  8
0
100
AcDbLine
 10
-0.9790822664999999
 20
-0.3248113452
 30
-2.8212670363180634
 11
-0.44579127250000017
 21
-0.1642841219
 31
-2.7885129303636886
  0
LINE
  5
45
330
17
100
AcDbEntity
  8
0
100
AcDbLine
 10
-0.44579127250000017
 20
-0.1642841219
 30
-2.7885129303636886
 11
-0.7351085945000002
 21
-0.3356084346
 31
-2.7133111864914863
  0
LINE
  5
46
330
17
100
AcDbEntity
  8
0
100
AcDbLine
 10
-0.7351085945000002
 20
-0.3356084346
 30
-2.7133111864914863
 11
-0.32018334950000016
 21
-0.1649486409
 31
-2.6658833580180943
  0
LINE
  5
47
330
17
100
AcDbEntity
  8
0
100
AcDbLine
 10
-0.32018334950000016
 20
-0.1649486409
 30
-2.6658833580180943
 11
-0.6277678314999999
 21
-0.3385713208
 31
-2.6469816083305764
  0
LINE
  5
48
330
17
100
AcDbEntity
  8
0
100
AcDbLine
 10
-0.6277678314999999
 20
-0.3385713208
 30
-2.6469816083305764
 11
-0.34598481550000004
 21
-0.3463492702
 31
-2.355668075743219
  0
LINE
  5
49
330
17
100
AcDbEntity
  8
0
100
AcDbLine
 10
-0.34598481550000004
 20
-0.3463492702
 30
-2.355668075743219
 11
-0.11770759850000001
 21
-0.164797166
 31
-2.191027076677694
  0
LINE
  5
4A
330
17
100
AcDbEntity
  8
0
100
AcDbLine
 10
-0.11770759850000001
 20
-0.164797166
 30
-2.191027076677694
 11
-0.24787111950000007
 21
-0.3478593473
 31
-2.1899030598712868
  0
LINE
  5
4B
330
17
100
AcDbEntity
  8
0
100
AcDbLine
 10
-0.24787111950000007
 20
-0.3478593473
 30
-2.1899030598712868
 11
0.029075981500000125
 21
-0.1613041019
 31
-1.3924557381055802
  0
LINE
  5
4C
330
17
100
AcDbEntity
  8
0
100
AcDbLine
 10
0.029075981500000125
 20
-0.1613041019
 30
-1.3924557381055802
 11
0.06675756649999975
 21
-0.3527018267
 31
-1.3837344090076134
  0
LINE
  5
4D
330
17
100
AcDbEntity
  8
0
100
AcDbLine
 10
0.06675756649999975
 20
-0.3527018267
 30
-1.3837344090076134
 11
0.1608503524999998
 21
-0.3533545337
 31
-1.143618604440459
  0
LINE
  5
4E
330
17
100
AcDbEntity
  8
0
100
AcDbLine
 10
0.1608503524999998
 20
-0.3533545337
 30
-1.143618604440459
 11
0.5035559344999996
 21
-0.355731829
 31
-0.6150347495847188
  0
LINE
  5
4F
330
17
100
AcDbEntity
  8
0
100
AcDbLine
 10
0.5035559344999996
 20
-0.355731829
 30
-0.6150347495847188
 11
0.5982342415000002
 21
-0.3558905197
 31
-0.5366622583384523
  0
LINE
  5
50
330
17
100
AcDbEntity
  8
0
100
AcDbLine
 10
0.5982342415000002
 20
-0.3558905197
 30
-0.5366622583384523
 11
0.2656545735
 21
-0.1548652545
 31
-0.5277937870824552
  0
LINE
  5
51
330
17
100
AcDbEntity
  8
0
100
AcDbLine
 10
0.2656545735
 20
-0.1548652545
 30
-0.5277937870824552
 11
0.9648476675
 21
-0.356505002
 31
-0.3539343910362105
  0
LINE
  5
52
330
17
100
AcDbEntity
  8
0
100
AcDbLine
 10
0.9648476675
 20
-0.356505002
 30
-0.3539343910362105
 11
1.0023382114999997
 21
-0.3547960519
 31
-0.34020575762008676
  0
LINE
  5
53
330
17
100
AcDbEntity
  8
0
100
AcDbLine
 10
1.0023382114999997
 20
-0.3547960519
 30
-0.34020575762008676
 11
0.4247248165000004
 21
-0.1479214471
 31
-0.33513810960203266
  0
LINE
  5
54
330
17
100
AcDbEntity
  8
0
100
AcDbLine
 10
0.4247248165000004
 20
-0.1479214471
 30
-0.33513810960203266
 11
1.1427161615
 21
-0.3483971338
 31
-0.29593249210130135
  0
LINE
  5
55
330
17
100
AcDbEntity
  8
0
100
AcDbLine
 10
1.1427161615
 20
-0.3483971338
 30
-0.29593249210130135
 11
1.1996747085
 21
-0.3421855139
 31
-0.27785363637673444
  0
LINE
  5
56
330
17
100
AcDbEntity
  8
0
100
AcDbLine
 10
1.1996747085
 20
-0.3421855139
 30
-0.27785363637673444
 11
1.3573247044999999
 21
-0.3249929783
 31
-0.2350120339922909
  0
LINE
  5
57
330
17
100
AcDbEntity
  8
0
100
AcDbLine
 10
1.3573247044999999
 20
-0.3249929783
 30
-0.2350120339922909
 11
1.4578120634999996
 21
-0.3097810234
 31
-0.20938274134790497
  0
LINE
  5
58
330
17
100
AcDbEntity
  8
0
100
AcDbLine
 10
1.4578120634999996
 20
-0.3097810234
 30
-0.20938274134790497
 11
0.6811152834999996
 21
-0.1365318762
 31
-0.1978314859351836
  0
LINE
  5
59
330
17
100
AcDbEntity
  8
0
100
AcDbLine
 10
0.6811152834999996
 20
-0.1365318762
 30
-0.1978314859351836
 11
1.6038621014999999
 21
-0.287671709
 31
-0.17747476804958554
  0
LINE
  5
5A
330
17
100
AcDbEntity
  8
0
100
AcDbLine
 10
1.6038621014999999
 20
-0.287671709
 30
-0.17747476804958554
 11
1.7847618975000001
 21
-0.2547122556
 31
-0.14175773063617214
  0
LINE
  5
5B
330
17
100
AcDbEntity
  8
0
100
AcDbLine
 10
1.7847618975000001
 20
-0.2547122556
 30
-0.14175773063617214
 11
0.9373114874999997
 21
-0.1213512023
 31
-0.12875113691534848
  0
LINE
  5
5C
330
17
100
AcDbEntity
  8
0
100
AcDbLine
 10
0.9373114874999997
 20
-0.1213512023
 30
-0.12875113691534848
 11
1.8775171525000003
 21
-0.2378124991
 31
-0.12599235857233007
  0
LINE
  5
5D
330
17
100
AcDbEntity
  8
0
100
AcDbLine
 10
1.8775171525000003
 20
-0.2378124991
 30
-0.12599235857233007
 11
1.0962494664999998
 21
-0.1118242589
 31
-0.1016546069988285
  0
LINE
  5
5E
330
17
100
AcDbEntity
  8
0
100
AcDbLine
 10
1.0962494664999998
 20
-0.1118242589
 30
-0.1016546069988285
 11
2.1312860395
 21
-0.1854933174
 31
-0.08681475450866767
  0
LINE
  5
5F
330
17
100
AcDbEntity
  8
0
100
AcDbLine
 10
2.1312860395
 20
-0.1854933174
 30
-0.08681475450866767
 11
2.1734786635
 21
-0.1604366913
 31
-0.0736819964975477
  0
LINE
  5
60
330
17
100
AcDbEntity
  8
0
100
AcDbLine
 10
2.1734786635
 20
-0.1604366913
 30
-0.0736819964975477
 11
1.3323865305
 21
-0.09590658219
 31
-0.07185711779758173
  0
LINE
  5
61
330
17
100
AcDbEntity
  8
0
100
AcDbLine
 10
1.3323865305
 20
-0.09590658219
 30
-0.07185711779758173
 11
1.4788627124999998
 21
-0.0856996168
 31
-0.05788493938747595
  0
LINE
  5
62
330
17
100
AcDbEntity
  8
0
100
AcDbLine
 10
1.4788627124999998
 20
-0.0856996168
 30
-0.05788493938747595
 11
1.6808393075000003
 21
-0.07122401672
 31
-0.04234874399413204
  0
LINE
  5
63
330
17
100
AcDbEntity
  8
0
100
AcDbLine
 10
1.6808393075000003
 20
-0.07122401672
 30
-0.04234874399413204
 11
1.8061088625000004
 21
-0.06177018567
 31
-0.03418737369369735
  0
LINE
  5
64
330
17
100
AcDbEntity
  8
0
100
AcDbLine
 10
1.8061088625000004
 20
-0.06177018567
 30
-0.03418737369369735
 11
1.9681000084999996
 21
-0.04975428832
 31
-0.025274982418179003
  0
LINE
  5
65
330
17
100
AcDbEntity
  8
0
100
AcDbLine
 10
1.9681000084999996
 20
-0.04975428832
 30
-0.025274982418179003
 11
2.0685571805
 21
-0.04179042787
 31
-0.020199946167392836
  0
LINE
  5
66
330
17
100
AcDbEntity
  8
0
100
AcDbLine
 10
2.0685571805
 20
-0.04179042787
 30
-0.020199946167392836
 11
2.1918976194999997
 21
-0.03242223507
 31
-0.014790777836011054
  0
LINE
  5
67
330
17
100
AcDbEntity
  8
0
100
AcDbLine
 10
2.1918976194999997
 20
-0.03242223507
 30
-0.014790777836011054
 11
2.2683777175
 21
-0.02614430628
 31
-0.011525042110489415
  0
LINE
  5
68
330
17
100
AcDbEntity
  8
0
100
AcDbLine
 10
2.2683777175
 20
-0.02614430628
 30
-0.011525042110489415
 11
2.3586211295000004
 21
-0.01915671131
 31
-0.00812181738360258
  0
LINE
  5
69
330
17
100
AcDbEntity
  8
0
100
AcDbLine
 10
2.3586211295000004
 20
-0.01915671131
 30
-0.00812181738360258
 11
2.3954052035
 21
-0.01605456697
 31
-0.0067021339700412165
  0
LINE
  5
6A
330
17
100
AcDbEntity
  8
0
100
AcDbLine
 10
2.3954052035
 20
-0.01605456697
 30
-0.0067021339700412165
 11
2.4145738134999997
 21
-0.01443800337
 31
-0.005979453275526203
  0
LINE
  5
6B
330
17
100
AcDbEntity
  8
0
100
AcDbLine
 10
2.4145738134999997
 20
-0.01443800337
 30
-0.005979453275526203
 11
2.4786944345000004
 21
-0.009394323932
 31
-0.003790010910827262
  0
LINE
  5
6C
330
17
100
AcDbEntity
  8
0
100
AcDbLine
 10
2.4786944345000004
 20
-0.009394323932
 30
-0.003790010910827262
 11
2.5184478455
 21
-0.005970850867
 31
-0.0023708411077498163
  0
LINE
  5
6D
330
17
100
AcDbEntity
  8
0
100
AcDbLine
 10
2.5184478455
 20
-0.005970850867
 30
-0.0023708411077498163
 11
2.5630649634999996
 21
-0.002419031246
 31
-0.0009438038294719289
  0
LINE
  5
6E
330
17
100
AcDbEntity
  8
0
100
AcDbLine
 10
2.5630649634999996
 20
-0.002419031246
 30
-0.0009438038294719289
 11
2.5907252795
 21
-8.881784197e-16
 31
-3.4283002784124416e-16
  0
LINE
  5
6F
330
17
100
AcDbEntity
  8
0
100
AcDbLine
 10
2.5907252795
 20
-8.881784197e-16
 30
-3.4283002784124416e-16
 11
2.4200823194999996
 21
-4.440892099e-16
 31
-1.8350169592237297e-16
  0
LINE
  5
70
330
17
100
AcDbEntity
  8
0
100
AcDbLine
 10
2.4200823194999996
 20
-4.440892099e-16
 30
-1.8350169592237297e-16
 11
2.5631353875
 21
0.004818572853
 31
0.001879950313930668
  0
LINE
  5
71
330
17
100
AcDbEntity
  8
0
100
AcDbLine
 10
2.5631353875
 20
0.004818572853
 30
0.001879950313930668
 11
2.5186633425
 21
0.01331342201
 31
0.005285858491467184
  0
LINE
  5
72
330
17
100
AcDbEntity
  8
0
100
AcDbLine
 10
2.5186633425
 20
0.01331342201
 30
0.005285858491467184
 11
2.4789814065
 21
0.02004825105
 31
0.00808711752893025
  0
LINE
  5
73
330
17
100
AcDbEntity
  8
0
100
AcDbLine
 10
2.4789814065
 20
0.02004825105
 30
0.00808711752893025
 11
2.4150080234999995
 21
0.03191328768
 31
0.013213798855677666
  0
LINE
  5
74
330
17
100
AcDbEntity
  8
0
100
AcDbLine
 10
2.4150080234999995
 20
0.03191328768
 30
0.013213798855677666
 11
2.3590991845
 21
0.04101850703
 31
0.01738560823277372
  0
LINE
  5
75
330
17
100
AcDbEntity
  8
0
100
AcDbLine
 10
2.3590991845
 20
0.04101850703
 30
0.01738560823277372
 11
2.3562572824999997
 21
0.0415236251
 31
0.01762088023561525
  0
LINE
  5
76
330
17
100
AcDbEntity
  8
0
100
AcDbLine
 10
2.3562572824999997
 20
0.0415236251
 30
0.01762088023561525
 11
2.2689460905
 21
0.05704226763
 31
0.02513512980380624
  0
LINE
  5
77
330
17
100
AcDbEntity
  8
0
100
AcDbLine
 10
2.2689460905
 20
0.05704226763
 30
0.02513512980380624
 11
2.1924255835000004
 21
0.0687975356
 31
0.03136935101268702
  0
LINE
  5
78
330
17
100
AcDbEntity
  8
0
100
AcDbLine
 10
2.1924255835000004
 20
0.0687975356
 30
0.03136935101268702
 11
2.0690019005
 21
0.08944898735
 31
0.043206011790499876
  0
LINE
  5
79
330
17
100
AcDbEntity
  8
0
100
AcDbLine
 10
2.0690019005
 20
0.08944898735
 30
0.043206011790499876
 11
1.9683300115
 21
0.1036973275
 31
0.05263423788578571
  0
LINE
  5
7A
330
17
100
AcDbEntity
  8
0
100
AcDbLine
 10
1.9683300115
 20
0.1036973275
 30
0.05263423788578571
 11
1.8058965505
 21
0.1286591847
 31
0.07112376772860979
  0
LINE
  5
7B
330
17
100
AcDbEntity
  8
0
100
AcDbLine
 10
1.8058965505
 20
0.1286591847
 30
0.07112376772860979
 11
2.1734786635
 21
0.1604366913
 31
0.0736819964975477
  0
LINE
  5
7C
330
17
100
AcDbEntity
  8
0
100
AcDbLine
 10
2.1734786635
 20
0.1604366913
 30
0.0736819964975477
 11
1.6801261255000002
 21
0.1445003464
 31
0.0857945298354419
  0
LINE
  5
7D
330
17
100
AcDbEntity
  8
0
100
AcDbLine
 10
1.6801261255000002
 20
0.1445003464
 30
0.0857945298354419
 11
2.1312860395
 21
0.1854933174
 31
0.08681475450866767
  0
LINE
  5
7E
330
17
100
AcDbEntity
  8
0
100
AcDbLine
 10
2.1312860395
 20
0.1854933174
 30
0.08681475450866767
 11
1.4771177455000002
 21
0.1721337779
 31
0.11601029790726532
  0
LINE
  5
7F
330
17
100
AcDbEntity
  8
0
100
AcDbLine
 10
1.4771177455000002
 20
0.1721337779
 30
0.11601029790726532
 11
1.8775171525000003
 21
0.2378124991
 31
0.12599235857233007
  0
LINE
  5
80
330
17
100
AcDbEntity
  8
0
100
AcDbLine
 10
1.8775171525000003
 20
0.2378124991
 30
0.12599235857233007
 11
1.3297672584999995
 21
0.187763527
 31
0.1402729668023644
  0
LINE
  5
81
330
17
100
AcDbEntity
  8
0
100
AcDbLine
 10
1.3297672584999995
 20
0.187763527
 30
0.1402729668023644
 11
1.7847618975000001
 21
0.2547122556
 31
0.14175773063617214
  0
LINE
  5
82
330
17
100
AcDbEntity
  8
0
100
AcDbLine
 10
1.7847618975000001
 20
0.2547122556
 30
0.14175773063617214
 11
1.6038621014999999
 21
0.287671709
 31
0.17747476804958554
  0
LINE
  5
83
330
17
100
AcDbEntity
  8
0
100
AcDbLine
 10
1.6038621014999999
 20
0.287671709
 30
0.17747476804958554
 11
1.0918291345000002
 21
0.2148520789
 31
0.1942992096883845
  0
LINE
  5
84
330
17
100
AcDbEntity
  8
0
100
AcDbLine
 10
1.0918291345000002
 20
0.2148520789
 30
0.1942992096883845
 11
1.4578120634999996
 21
0.3097810234
 31
0.20938274134790497
  0
LINE
  5
85
330
17
100
AcDbEntity
  8
0
100
AcDbLine
 10
1.4578120634999996
 20
0.3097810234
 30
0.20938274134790497
 11
1.3573247044999999
 21
0.3249929783
 31
0.2350120339922909
  0
LINE
  5
86
330
17
100
AcDbEntity
  8
0
100
AcDbLine
 10
1.3573247044999999
 20
0.3249929783
 30
0.2350120339922909
 11
0.9316505675000002
 21
0.2277603004
 31
0.23976690549647825
  0
LINE
  5
87
330
17
100
AcDbEntity
  8
0
100
AcDbLine
 10
0.9316505675000002
 20
0.2277603004
 30
0.23976690549647825
 11
1.1996747085
 21
0.3421855139
 31
0.27785363637673444
  0
LINE
  5
88
330
17
100
AcDbEntity
  8
0
100
AcDbLine
 10
1.1996747085
 20
0.3421855139
 30
0.27785363637673444
 11
1.1427161615
 21
0.3483971338
 31
0.29593249210130135
  0
LINE
  5
89
330
17
100
AcDbEntity
  8
0
100
AcDbLine
 10
1.1427161615
 20
0.3483971338
 30
0.29593249210130135
 11
1.0023382114999997
 21
0.3547960519
 31
0.34020575762008676
  0
LINE
  5
8A
330
17
100
AcDbEntity
  8
0
100
AcDbLine
 10
1.0023382114999997
 20
0.3547960519
 30
0.34020575762008676
 11
0.9648476675
 21
0.356505002
 31
0.3539343910362105
  0
LINE
  5
8B
330
17
100
AcDbEntity
  8
0
100
AcDbLine
 10
0.9648476675
 20
0.356505002
 30
0.3539343910362105
 11
0.6728987645000002
 21
0.2499063702
 31
0.3556000271026524
  0
LINE
  5
8C
330
17
100
AcDbEntity
  8
0
100
AcDbLine
 10
0.6728987645000002
 20
0.2499063702
 30
0.3556000271026524
 11
0.5982342415000002
 21
0.3558905197
 31
0.5366622583384523
  0
LINE
  5
8D
330
17
100
AcDbEntity
  8
0
100
AcDbLine
 10
0.5982342415000002
 20
0.3558905197
 30
0.5366622583384523
 11
0.41351497049999963
 21
0.2627575872
 31
0.566060564548634
  0
LINE
  5
8E
330
17
100
AcDbEntity
  8
0
100
AcDbLine
 10
0.41351497049999963
 20
0.2627575872
 30
0.566060564548634
 11
0.5035559344999996
 21
0.355731829
 31
0.6150347495847188
  0
LINE
  5
8F
330
17
100
AcDbEntity
  8
0
100
AcDbLine
 10
0.5035559344999996
 20
0.355731829
 30
0.6150347495847188
 11
0.2529916485000001
 21
0.2704109352
 31
0.8186667413955399
  0
LINE
  5
90
330
17
100
AcDbEntity
  8
0
100
AcDbLine
 10
0.2529916485000001
 20
0.2704109352
 30
0.8186667413955399
 11
0.1608503524999998
 21
0.3533545337
 31
1.143618604440459
  0
LINE
  5
91
330
17
100
AcDbEntity
  8
0
100
AcDbLine
 10
0.1608503524999998
 20
0.3533545337
 30
1.143618604440459
 11
0.06675756649999975
 21
0.3527018267
 31
1.3837344090076134
  0
LINE
  5
92
330
17
100
AcDbEntity
  8
0
100
AcDbLine
 10
0.06675756649999975
 20
0.3527018267
 30
1.3837344090076134
 11
0.01352179950000032
 21
0.2697322761
 31
1.520707810487883
  0
LINE
  5
93
330
17
100
AcDbEntity
  8
0
100
AcDbLine
 10
0.01352179950000032
 20
0.2697322761
 30
1.520707810487883
 11
-0.13466531150000005
 21
0.2697702217
 31
2.0337919113439553
  0
LINE
  5
94
330
17
100
AcDbEntity
  8
0
100
AcDbLine
 10
-0.13466531150000005
 20
0.2697702217
 30
2.0337919113439553
 11
-0.24787111950000007
 21
0.3478593473
 31
2.1899030598712868
  0
LINE
  5
95
330
17
100
AcDbEntity
  8
0
100
AcDbLine
 10
-0.24787111950000007
 20
0.3478593473
 30
2.1899030598712868
 11
-0.34598481550000004
 21
0.3463492702
 31
2.355668075743219
  0
LINE
  5
96
330
17
100
AcDbEntity
  8
0
100
AcDbLine
 10
-0.34598481550000004
 20
0.3463492702
 30
2.355668075743219
 11
-0.33905313250000013
 21
0.2559583059
 31
2.4949495818109324
  0
LINE
  5
97
330
17
100
AcDbEntity
  8
0
100
AcDbLine
 10
-0.33905313250000013
 20
0.2559583059
 30
2.4949495818109324
 11
-0.6277678314999999
 21
0.3385713208
 31
2.6469816083305764
  0
LINE
  5
98
330
17
100
AcDbEntity
  8
0
100
AcDbLine
 10
-0.6277678314999999
 20
0.3385713208
 30
2.6469816083305764
 11
-0.46558924950000025
 21
0.2485154061
 31
2.6512990468893585
  0
LINE
  5
99
330
17
100
AcDbEntity
  8
0
100
AcDbLine
 10
-0.46558924950000025
 20
0.2485154061
 30
2.6512990468893585
 11
-0.7351085945000002
 21
0.3356084346
 31
2.7133111864914863
  0
LINE
  5
9A
330
17
100
AcDbEntity
  8
0
100
AcDbLine
 10
-0.7351085945000002
 20
0.3356084346
 30
2.7133111864914863
 11
-0.6282255225000002
 21
0.2253365838
 31
2.797199556652645
  0
LINE
  5
9B
330
17
100
AcDbEntity
  8
0
100
AcDbLine
 10
-0.6282255225000002
 20
0.2253365838
 30
2.797199556652645
 11
-0.9790822664999999
 21
0.3248113452
 31
2.8212670363180634
  0
LINE
  5
9C
330
17
100
AcDbEntity
  8
0
100
AcDbLine
 10
-0.9790822664999999
 20
0.3248113452
 30
2.8212670363180634
 11
-0.7290330295
 21
0.2124118625
 31
2.858080181427437
  0
LINE
  5
9D
330
17
100
AcDbEntity
  8
0
100
AcDbLine
 10
-0.7290330295
 20
0.2124118625
 30
2.858080181427437
 11
-1.1010511515
 21
0.3194135948
 31
2.8592441177712424
  0
LINE
  5
9E
330
17
100
AcDbEntity
  8
0
100
AcDbLine
 10
-1.1010511515
 20
0.3194135948
 30
2.8592441177712424
 11
-1.3023868845000002
 21
0.3060882119
 31
2.910760833118236
  0
LINE
  5
9F
330
17
100
AcDbEntity
  8
0
100
AcDbLine
 10
-1.3023868845000002
 20
0.3060882119
 30
2.910760833118236
 11
-0.8507591355000002
 21
0.1838279811
 31
2.9287889916209986
  0
LINE
  5
A0
330
17
100
AcDbEntity
  8
0
100
AcDbLine
 10
-0.8507591355000002
 20
0.1838279811
 30
2.9287889916209986
 11
-1.4442498685
 21
0.2966990261
 31
2.9389769321218404
  0
LINE
  5
A1
330
17
100
AcDbEntity
  8
0
100
AcDbLine
 10
-1.4442498685
 20
0.2966990261
 30
2.9389769321218404
 11
-0.9263758035
 21
0.1676050788
 31
2.962603328682159
  0
LINE
  5
A2
330
17
100
AcDbEntity
  8
0
100
AcDbLine
 10
-0.9263758035
 20
0.1676050788
 30
2.962603328682159
 11
-1.5985087455000002
 21
0.2821332416
 31
2.966894086164165
  0
LINE
  5
A3
330
17
100
AcDbEntity
  8
0
100
AcDbLine
 10
-1.5985087455000002
 20
0.2821332416
 30
2.966894086164165
 11
-1.7651421265000002
 21
0.2663990033
 31
2.9918009929997584
  0
LINE
  5
A4
330
17
100
AcDbEntity
  8
0
100
AcDbLine
 10
-1.7651421265000002
 20
0.2663990033
 30
2.9918009929997584
 11
-1.8684617755000001
 21
0.2529404331
 31
3.0070370118501555
  0
LINE
  5
A5
330
17
100
AcDbEntity
  8
0
100
AcDbLine
 10
-1.8684617755000001
 20
0.2529404331
 30
3.0070370118501555
 11
-1.0121658555000002
 21
0.1360822889
 31
3.0079474301953293
  0
LINE
  5
A6
330
17
100
AcDbEntity
  8
0
100
AcDbLine
 10
-1.0121658555000002
 20
0.1360822889
 30
3.0079474301953293
 11
-1.0656862645
 21
0.117936454
 31
3.0313740078346374
  0
LINE
  5
A7
330
17
100
AcDbEntity
  8
0
100
AcDbLine
 10
-1.0656862645
 20
0.117936454
 30
3.0313740078346374
 11
-2.0641653085
 21
0.2274478017
 31
3.0318466340728447
  0
LINE
  5
A8
330
17
100
AcDbEntity
  8
0
100
AcDbLine
 10
-2.0641653085
 20
0.2274478017
 30
3.0318466340728447
 11
-2.1133913035000003
 21
0.2188173642
 31
3.0384217776662013
  0
LINE
  5
A9
330
17
100
AcDbEntity
  8
0
100
AcDbLine
 10
-2.1133913035000003
 20
0.2188173642
 30
3.0384217776662013
 11
-2.3034638695
 21
0.1854933174
 31
3.061238056749184
  0
LINE
  5
AA
330
17
100
AcDbEntity
  8
0
100
AcDbLine
 10
-2.3034638695
 20
0.1854933174
 30
3.061238056749184
 11
-2.3260672155
 21
0.174078354
 31
3.0668938436459245
  0
LINE
  5
AB
330
17
100
AcDbEntity
  8
0
100
AcDbLine
 10
-2.3260672155
 20
0.174078354
 30
3.0668938436459245
 11
-1.1202879805000001
 21
0.08327119495
 31
3.0673989233059227
  0
LINE
  5
AC
330
17
100
AcDbEntity
  8
0
100
AcDbLine
 10
-1.1202879805000001
 20
0.08327119495
 30
3.0673989233059227
 11
-2.3417567935
 21
0.1661549269
 31
3.0707582528689086
  0
LINE
  5
AD
330
17
100
AcDbEntity
  8
0
100
AcDbLine
 10
-2.3417567935
 20
0.1661549269
 30
3.0707582528689086
 11
-1.1547410894999999
 21
0.06300833341
 31
3.08708180844451
  0
LINE
  5
AE
330
17
100
AcDbEntity
  8
0
100
AcDbLine
 10
-1.1547410894999999
 20
0.06300833341
 30
3.08708180844451
 11
-2.4646180405
 21
0.0841606079
 31
3.107458391217007
  0
LINE
  5
AF
330
17
100
AcDbEntity
  8
0
100
AcDbLine
 10
-2.4646180405
 20
0.0841606079
 30
3.107458391217007
 11
-1.1737457894999999
 21
0.02373343546
 31
3.1213751568150023
  0
LINE
  5
B0
330
17
100
AcDbEntity
  8
0
100
AcDbLine
 10
-1.1737457894999999
 20
0.02373343546
 30
3.1213751568150023
 11
-1.1864061485000001
 21
-2.220446049e-16
 31
-3.141592653589793
  0
ENDSEC
  0
SECTION
  2
OBJECTS
  0
DICTIONARY
  5
A
330
0
100
AcDbDictionary
281
1
  3
ACAD_COLOR
350
B
  3
ACAD_GROUP
350
C
  3
ACAD_LAYOUT
350
D
  3
ACAD_MATERIAL
350
E
  3
ACAD_MLEADERSTYLE
350
F
  3
ACAD_MLINESTYLE
350
10
  3
ACAD_PLOTSETTINGS
350
11
  3
ACAD_PLOTSTYLENAME
350
12
  3
ACAD_SCALELIST
350
14
  3
ACAD_TABLESTYLE
350
15
  3
ACAD_VISUALSTYLE
350
16
  0
DICTIONARY
  5
B
330
A
100
AcDbDictionary
281
1
  0
DICTIONARY
  5
C
330
A
100
AcDbDictionary
281
1
  0
DICTIONARY
  5
D
330
A
100
AcDbDictionary
281
1
  3
Model
350
1A
  3
Layout1
350
1E
  0
DICTIONARY
  5
E
330
A
100
AcDbDictionary
281
1
  3
ByBlock
350
1F
  3
ByLayer
350
20
  3
Global
350
21
  0
DICTIONARY
  5
F
330
A
100
AcDbDictionary
281
1
  3
Standard
350
2C
  0
DICTIONARY
  5
10
330
A
100
AcDbDictionary
281
1
  3
Standard
350
22
  0
DICTIONARY
  5
11
330
A
100
AcDbDictionary
281
1
  0
ACDBDICTIONARYWDFLT
  5
12
330
A
100
AcDbDictionary
281
1
  3
Normal
350
13
100
AcDbDictionaryWithDefault
340
13
  0
ACDBPLACEHOLDER
  5
13
330
12
  0
DICTIONARY
  5
14
330
A
100
AcDbDictionary
281
1
  0
DICTIONARY
  5
15
330
A
100
AcDbDictionary
281
1
  0
DICTIONARY
  5
16
330
A
100
AcDbDictionary
281
1
  0
LAYOUT
  5
1A
330
D
100
AcDbPlotSettings
  1

  2
Adobe PDF
  4
A4
  6

 40
3.175
 41
3.175
 42
3.175
 43
3.175
 44
209.91
 45
297.03
 46
0.0
 47
0.0
 48
0.0
 49
0.0
140
0.0
141
0.0
142
1.0
143
1.0
 70
1024
 72
0
 73
1
 74
5
  7

 75
16
 76
0
 77
2
 78
300
147
1.0
148
0.0
149
0.0
100
AcDbLayout
  1
Model
 70
1
 71
0
 10
-3.175
 20
-3.175
 11
293.857
 21
206.735
 12
0.0
 22
0.0
 32
0.0
 14
29.068
 24
20.356
 34
0.0
 15
261.614
 25
183.204
 35
0.0
146
0.0
 13
0.0
 23
0.0
 33
0.0
 16
1.0
 26
0.0
 36
0.0
 17
0.0
 27
1.0
 37
0.0
 76
1
330
17
  0
LAYOUT
  5
1E
330
D
100
AcDbPlotSettings
  1

  2
Adobe PDF
  4
A4
  6

 40
3.175
 41
3.175
 42
3.175
 43
3.175
 44
209.91
 45
297.03
 46
0.0
 47
0.0
 48
0.0
 49
0.0
140
0.0
141
0.0
142
1.0
143
1.0
 70
0
 72
0
 73
1
 74
5
  7

 75
16
 76
0
 77
2
 78
300
147
1.0
148
0.0
149
0.0
100
AcDbLayout
  1
Layout1
 70
1
 71
1
 10
-3.175
 20
-3.175
 11
293.857
 21
206.735
 12
0.0
 22
0.0
 32
0.0
 14
29.068
 24
20.356
 34
0.0
 15
261.614
 25
183.204
 35
0.0
146
0.0
 13
0.0
 23
0.0
 33
0.0
 16
1.0
 26
0.0
 36
0.0
 17
0.0
 27
1.0
 37
0.0
 76
1
330
1B
  0
MATERIAL
  5
1F
102
{ACAD_REACTORS
330
E
102
}
330
E
100
AcDbMaterial
  1
ByBlock
  2

 70
0
 40
1.0
 71
1
 41
1.0
 91
-1023410177
 42
1.0
 72
1
  3

 73
1
 74
1
 75
1
 44
0.5
 73
0
 45
1.0
 46
1.0
 77
1
  4

 78
1
 79
1
170
1
 48
1.0
171
1
  6

172
1
173
1
174
1
140
1.0
141
1.0
175
1
  7

176
1
177
1
178
1
143
1.0
179
1
  8

270
1
271
1
272
1
145
1.0
146
1.0
273
1
  9

274
1
275
1
276
1
 42
1.0
 72
1
  3

 73
1
 74
1
 75
1
 94
63
  0
MATERIAL
  5
20
102
{ACAD_REACTORS
330
E
102
}
330
E
100
AcDbMaterial
  1
ByLayer
  2

 70
0
 40
1.0
 71
1
 41
1.0
 91
-1023410177
 42
1.0
 72
1
  3

 73
1
 74
1
 75
1
 44
0.5
 73
0
 45
1.0
 46
1.0
 77
1
  4

 78
1
 79
1
170
1
 48
1.0
171
1
  6

172
1
173
1
174
1
140
1.0
141
1.0
175
1
  7

176
1
177
1
178
1
143
1.0
179
1
  8

270
1
271
1
272
1
145
1.0
146
1.0
273
1
  9

274
1
275
1
276
1
 42
1.0
 72
1
  3

 73
1
 74
1
 75
1
 94
63
  0
MATERIAL
  5
21
102
{ACAD_REACTORS
330
E
102
}
330
E
100
AcDbMaterial
  1
Global
  2

 70
0
 40
1.0
 71
1
 41
1.0
 91
-1023410177
 42
1.0
 72
1
  3

 73
1
 74
1
 75
1
 44
0.5
 73
0
 45
1.0
 46
1.0
 77
1
  4

 78
1
 79
1
170
1
 48
1.0
171
1
  6

172
1
173
1
174
1
140
1.0
141
1.0
175
1
  7

176
1
177
1
178
1
143
1.0
179
1
  8

270
1
271
1
272
1
145
1.0
146
1.0
273
1
  9

274
1
275
1
276
1
 42
1.0
 72
1
  3

 73
1
 74
1
 75
1
 94
63
  0
MLINESTYLE
  5
22
102
{ACAD_REACTORS
330
10
102
}
330
10
100
AcDbMlineStyle
  2
Standard
 70
0
  3

 62
256
 51
90.0
 52
90.0
 71
2
 49
0.5
 62
256
  6
BYLAYER
 49
-0.5
 62
256
  6
BYLAYER
  0
MLEADERSTYLE
  5
2C
102
{ACAD_REACTORS
330
F
102
}
330
F
100
AcDbMLeaderStyle
179
2
170
2
171
1
172
0
 90
2
 40
0.0
 41
0.0
173
1
 91
-1056964608
 92
-2
290
1
 42
2.0
291
1
 43
8.0
  3
Standard
 44
4.0
300

342
29
174
1
175
1
176
0
178
1
 93
-1056964608
 45
4.0
292
0
297
0
 46
4.0
 94
-1056964608
 47
1.0
 49
0.0
140
1.0
294
1
141
0.0
177
0
142
1.0
295
0
296
0
143
3.75
271
0
272
9
272
9
  0
ENDSEC
  0
EOF
